# MagicaVoxel @ Ephtracy

# group
o 

# material
mtllib lab-door-0.mtl
usemtl palette

# normals
vn 1 0 0
vn -1 0 0
vn 0 0 1
vn 0 0 -1
vn 0 -1 0
vn 0 1 0

# texcoords
vt 0.00976563 0.5
vt 0.814453 0.5
vt 0.845703 0.5
vt 0.876953 0.5
vt 0.916016 0.5
vt 0.958984 0.5

# verts
v 2.8 0 -1.6
v 2.8 0 -1.7
v 2.8 0.1 -1.6
v 2.8 0.1 -1.7
v 2.8 0.2 2
v 2.8 0.2 -1.6
v 2.8 0.2 -1.7
v 2.8 9.3 -1.7
v 2.8 9.3 -2.2
v 2.8 9.6 -1.6
v 2.8 9.6 -1.7
v 2.8 10.2 2
v 2.8 10.2 -2.2
v 2.7 0.1 2
v 2.7 0.1 -1.6
v 2.7 0.2 2
v 2.7 0.2 -1.6
v -1 0 -1.7
v -1 0 -2.7
v -1 0.1 -1.7
v -1 0.1 -2.7
v -1 1.4 -1.7
v -1 1.4 -2.7
v -1.3 1.4 -1.7
v -1.3 1.4 -2.2
v -1.3 9.3 -1.7
v -1.3 9.3 -2.2
v -1.9 0.1 2
v -1.9 0.1 -1.6
v -1.9 0.2 2
v -1.9 0.2 -1.6
v -2 0 -1.6
v -2 0 -2.7
v -2 0.1 -1.6
v -2 0.1 -2.7
v -2 0.2 2
v -2 0.2 -1.6
v -2 0.2 -2.2
v -2 0.2 -2.7
v -2 1.4 -2.2
v -2 1.4 -2.7
v -2 10.2 2
v -2 10.2 -2.2
v 2.8 0.2 2
v 2.8 10.2 2
v 2.7 0.1 2
v 2.7 0.2 2
v -1.9 0.1 2
v -1.9 0.2 2
v -2 0.2 2
v -2 10.2 2
v 2.8 0 -1.6
v 2.8 0.1 -1.6
v 2.8 0.2 -1.6
v 2.7 0.1 -1.6
v 2.7 0.2 -1.6
v -1.9 0.1 -1.6
v -1.9 0.2 -1.6
v -2 0 -1.6
v -2 0.1 -1.6
v -2 0.2 -1.6
v 2.8 0 -1.7
v 2.8 0.1 -1.7
v 2.8 0.2 -1.7
v 2.8 9.3 -1.7
v 2.7 0.1 -1.7
v 2.7 0.2 -1.7
v -1 0 -1.7
v -1 0.1 -1.7
v -1 1.4 -1.7
v -1.3 1.4 -1.7
v -1.3 9.3 -1.7
v 2.8 9.3 -2.2
v 2.8 10.2 -2.2
v -1.3 1.4 -2.2
v -1.3 9.3 -2.2
v -2 1.4 -2.2
v -2 10.2 -2.2
v -1 0 -2.7
v -1 0.1 -2.7
v -1 1.4 -2.7
v -1.9 0 -2.7
v -1.9 0.1 -2.7
v -1.9 0.2 -2.7
v -2 0 -2.7
v -2 0.1 -2.7
v -2 0.2 -2.7
v -2 1.4 -2.7
v 2.8 0 -1.6
v -2 0 -1.6
v 2.8 0 -1.7
v -1 0 -1.7
v -1.9 0 -1.7
v -1 0 -2.7
v -1.9 0 -2.7
v -2 0 -2.7
v 2.7 0.1 2
v -1.9 0.1 2
v 2.7 0.1 -1.6
v -1.9 0.1 -1.6
v 2.8 0.2 2
v 2.7 0.2 2
v -1.9 0.2 2
v -2 0.2 2
v 2.8 0.2 -1.6
v 2.7 0.2 -1.6
v -1.9 0.2 -1.6
v -2 0.2 -1.6
v 2.8 9.3 -1.7
v -1.3 9.3 -1.7
v 2.8 9.3 -2.2
v -1.3 9.3 -2.2
v -1 1.4 -1.7
v -1.3 1.4 -1.7
v -1.3 1.4 -2.2
v -2 1.4 -2.2
v -1 1.4 -2.7
v -2 1.4 -2.7
v 2.8 10.2 2
v -2 10.2 2
v 2.8 10.2 -2.2
v -2 10.2 -2.2

# faces
f 1/3/1 2/3/1 3/3/1
f 3/3/1 2/3/1 4/3/1
f 3/4/1 4/4/1 6/4/1
f 6/4/1 4/4/1 7/4/1
f 6/1/1 7/1/1 8/1/1
f 6/1/1 8/1/1 10/1/1
f 5/2/1 6/2/1 10/2/1
f 8/2/1 9/2/1 11/2/1
f 10/1/1 8/1/1 11/1/1
f 5/2/1 10/2/1 12/2/1
f 10/2/1 11/2/1 12/2/1
f 11/2/1 9/2/1 13/2/1
f 12/2/1 11/2/1 13/2/1
f 14/2/1 15/2/1 16/2/1
f 16/2/1 15/2/1 17/2/1
f 18/5/1 19/5/1 20/5/1
f 20/5/1 19/5/1 21/5/1
f 20/6/1 21/6/1 22/6/1
f 22/6/1 21/6/1 23/6/1
f 24/2/1 25/2/1 26/2/1
f 26/2/1 25/2/1 27/2/1
f 30/2/2 29/2/2 28/2/2
f 31/2/2 29/2/2 30/2/2
f 34/3/2 33/3/2 32/3/2
f 35/3/2 33/3/2 34/3/2
f 37/4/2 35/4/2 34/4/2
f 38/4/2 35/4/2 37/4/2
f 39/4/2 35/4/2 38/4/2
f 40/2/2 37/2/2 36/2/2
f 40/2/2 38/2/2 37/2/2
f 40/6/2 39/6/2 38/6/2
f 41/6/2 39/6/2 40/6/2
f 42/2/2 40/2/2 36/2/2
f 43/2/2 40/2/2 42/2/2
f 44/2/3 45/2/3 47/2/3
f 46/2/3 47/2/3 48/2/3
f 47/2/3 45/2/3 49/2/3
f 48/2/3 47/2/3 49/2/3
f 49/2/3 45/2/3 50/2/3
f 50/2/3 45/2/3 51/2/3
f 52/3/3 53/3/3 55/3/3
f 53/4/3 54/4/3 55/4/3
f 55/4/3 54/4/3 56/4/3
f 52/3/3 55/3/3 57/3/3
f 52/3/3 57/3/3 59/3/3
f 57/4/3 58/4/3 60/4/3
f 59/3/3 57/3/3 60/3/3
f 60/4/3 58/4/3 61/4/3
f 66/3/4 63/3/4 62/3/4
f 66/4/4 64/4/4 63/4/4
f 67/1/4 65/1/4 64/1/4
f 67/4/4 64/4/4 66/4/4
f 68/3/4 66/3/4 62/3/4
f 69/1/4 67/1/4 66/1/4
f 69/3/4 66/3/4 68/3/4
f 70/1/4 65/1/4 67/1/4
f 70/1/4 67/1/4 69/1/4
f 71/1/4 65/1/4 70/1/4
f 72/1/4 65/1/4 71/1/4
f 76/2/4 74/2/4 73/2/4
f 77/2/4 76/2/4 75/2/4
f 78/2/4 74/2/4 76/2/4
f 78/2/4 76/2/4 77/2/4
f 82/5/4 80/5/4 79/5/4
f 83/6/4 81/6/4 80/6/4
f 83/5/4 80/5/4 82/5/4
f 84/6/4 81/6/4 83/6/4
f 85/3/4 83/3/4 82/3/4
f 86/4/4 84/4/4 83/4/4
f 86/3/4 83/3/4 85/3/4
f 87/6/4 81/6/4 84/6/4
f 87/4/4 84/4/4 86/4/4
f 88/6/4 81/6/4 87/6/4
f 89/3/5 90/3/5 91/3/5
f 91/3/5 90/3/5 92/3/5
f 92/3/5 90/3/5 93/3/5
f 92/5/5 93/5/5 94/5/5
f 93/3/5 90/3/5 95/3/5
f 94/5/5 93/5/5 95/5/5
f 95/3/5 90/3/5 96/3/5
f 97/2/5 98/2/5 99/2/5
f 99/2/5 98/2/5 100/2/5
f 101/2/5 102/2/5 105/2/5
f 105/2/5 102/2/5 106/2/5
f 103/2/5 104/2/5 107/2/5
f 107/2/5 104/2/5 108/2/5
f 109/2/5 110/2/5 111/2/5
f 111/2/5 110/2/5 112/2/5
f 115/6/6 114/6/6 113/6/6
f 117/6/6 115/6/6 113/6/6
f 117/6/6 116/6/6 115/6/6
f 118/6/6 116/6/6 117/6/6
f 121/2/6 120/2/6 119/2/6
f 122/2/6 120/2/6 121/2/6
