# MagicaVoxel @ Ephtracy

# group
o 

# material
mtllib charmander-3.mtl
usemtl palette

# normals
vn -1 0 0
vn 1 0 0
vn 0 0 1
vn 0 0 -1
vn 0 -1 0
vn 0 1 0

# texcoords
vt 0.908203 0.5
vt 0.919922 0.5

# verts
v 0.3 1.5 5.96046e-08
v 0.3 1.5 -0.4
v 0.3 1.6 0.1
v 0.3 1.6 5.96046e-08
v 0.3 1.7 0.1
v 0.3 1.7 5.96046e-08
v 0.3 1.8 5.96046e-08
v 0.3 1.8 -0.4
v 0.6 1.1 0.3
v 0.6 1.1 0.2
v 0.6 1.2 0.4
v 0.6 1.2 0.3
v 0.6 1.2 0.2
v 0.6 1.2 0.1
v 0.6 1.3 0.1
v 0.6 1.3 5.96046e-08
v 0.6 1.4 0.4
v 0.6 1.4 0.2
v 0.6 1.4 5.96046e-08
v 0.6 1.4 -0.3
v 0.6 1.5 0.2
v 0.6 1.5 0.1
v 0.6 1.5 -0.1
v 0.6 1.5 -0.3
v 0.6 1.6 0.1
v 0.6 1.6 5.96046e-08
v 0.6 1.6 -0.1
v 0.7 1 0.5
v 0.7 1 0.4
v 0.7 1 0.3
v 0.7 1 0.2
v 0.7 1.1 0.5
v 0.7 1.1 0.4
v 0.7 1.1 0.3
v 0.7 1.1 0.2
v 0.7 1.1 0.1
v 0.7 1.2 0.6
v 0.7 1.2 0.5
v 0.7 1.2 0.4
v 0.7 1.2 0.3
v 0.7 1.2 0.2
v 0.7 1.2 0.1
v 0.7 1.2 5.96046e-08
v 0.7 1.3 0.6
v 0.7 1.3 0.5
v 0.7 1.3 0.1
v 0.7 1.3 5.96046e-08
v 0.7 1.3 -0.2
v 0.7 1.4 0.5
v 0.7 1.4 0.4
v 0.7 1.4 0.3
v 0.7 1.4 0.2
v 0.7 1.4 5.96046e-08
v 0.7 1.4 -0.2
v 0.7 1.5 0.3
v 0.7 1.5 0.2
v 0.7 1.5 0.1
v 0.7 1.6 0.2
v 0.7 1.6 0.1
v 0.4 1.6 0.1
v 0.4 1.6 5.96046e-08
v 0.4 1.7 0.1
v 0.4 1.7 5.96046e-08
v 0.5 1.5 5.96046e-08
v 0.5 1.5 -0.1
v 0.5 1.6 5.96046e-08
v 0.5 1.6 -0.1
v 0.5 1.7 5.96046e-08
v 0.5 1.7 -0.1
v 0.5 1.8 5.96046e-08
v 0.5 1.8 -0.1
v 0.6 1.5 -0.3
v 0.6 1.5 -0.4
v 0.6 1.7 -0.1
v 0.6 1.7 -0.3
v 0.6 1.8 -0.1
v 0.6 1.8 -0.4
v 0.7 1.4 -0.2
v 0.7 1.4 -0.3
v 0.7 1.6 5.96046e-08
v 0.7 1.6 -0.2
v 0.7 1.7 5.96046e-08
v 0.7 1.7 -0.3
v 0.8 1 0.5
v 0.8 1 0.4
v 0.8 1 0.3
v 0.8 1 0.2
v 0.8 1.1 0.5
v 0.8 1.1 0.4
v 0.8 1.1 0.3
v 0.8 1.1 0.2
v 0.8 1.2 0.6
v 0.8 1.2 0.5
v 0.8 1.2 0.4
v 0.8 1.2 0.3
v 0.8 1.3 0.6
v 0.8 1.3 0.5
v 0.8 1.3 -0.1
v 0.8 1.3 -0.2
v 0.8 1.4 0.5
v 0.8 1.4 0.4
v 0.8 1.5 0.2
v 0.8 1.5 -0.1
v 0.8 1.6 0.2
v 0.8 1.6 -0.2
v 0.9 1.1 0.3
v 0.9 1.1 0.1
v 0.9 1.2 0.4
v 0.9 1.2 0.3
v 0.9 1.2 0.1
v 0.9 1.2 5.96046e-08
v 0.9 1.3 5.96046e-08
v 0.9 1.3 -0.1
v 0.9 1.4 0.4
v 0.9 1.4 0.3
v 0.9 1.5 0.3
v 0.9 1.5 -0.1
v 0.7 1.2 0.6
v 0.7 1.3 0.6
v 0.8 1.2 0.6
v 0.8 1.3 0.6
v 0.7 1 0.5
v 0.7 1.1 0.5
v 0.7 1.3 0.5
v 0.7 1.4 0.5
v 0.8 1 0.5
v 0.8 1.1 0.5
v 0.8 1.3 0.5
v 0.8 1.4 0.5
v 0.6 1.2 0.4
v 0.6 1.4 0.4
v 0.7 1.1 0.4
v 0.7 1.2 0.4
v 0.7 1.4 0.4
v 0.8 1.1 0.4
v 0.8 1.2 0.4
v 0.8 1.4 0.4
v 0.9 1.2 0.4
v 0.9 1.4 0.4
v 0.6 1.1 0.3
v 0.6 1.2 0.3
v 0.7 1 0.3
v 0.7 1.1 0.3
v 0.7 1.2 0.3
v 0.7 1.4 0.3
v 0.7 1.5 0.3
v 0.8 1 0.3
v 0.8 1.1 0.3
v 0.8 1.2 0.3
v 0.9 1.1 0.3
v 0.9 1.2 0.3
v 0.9 1.4 0.3
v 0.9 1.5 0.3
v 0.6 1.4 0.2
v 0.6 1.5 0.2
v 0.7 1.4 0.2
v 0.7 1.5 0.2
v 0.7 1.6 0.2
v 0.8 1.5 0.2
v 0.8 1.6 0.2
v 0.3 1.6 0.1
v 0.3 1.7 0.1
v 0.4 1.6 0.1
v 0.4 1.7 0.1
v 0.6 1.5 0.1
v 0.6 1.6 0.1
v 0.7 1.5 0.1
v 0.7 1.6 0.1
v 0.3 1.5 5.96046e-08
v 0.3 1.6 5.96046e-08
v 0.3 1.7 5.96046e-08
v 0.3 1.8 5.96046e-08
v 0.4 1.6 5.96046e-08
v 0.4 1.7 5.96046e-08
v 0.5 1.5 5.96046e-08
v 0.5 1.6 5.96046e-08
v 0.5 1.7 5.96046e-08
v 0.5 1.8 5.96046e-08
v 0.6 1.6 5.96046e-08
v 0.7 1.6 5.96046e-08
v 0.7 1.7 5.96046e-08
v 0.5 1.5 -0.1
v 0.5 1.6 -0.1
v 0.5 1.7 -0.1
v 0.5 1.8 -0.1
v 0.6 1.5 -0.1
v 0.6 1.6 -0.1
v 0.6 1.7 -0.1
v 0.6 1.8 -0.1
v 0.7 1 0.4
v 0.7 1.1 0.4
v 0.8 1 0.4
v 0.8 1.1 0.4
v 0.6 1.1 0.2
v 0.6 1.2 0.2
v 0.7 1 0.2
v 0.7 1.1 0.2
v 0.7 1.2 0.2
v 0.8 1 0.2
v 0.8 1.1 0.2
v 0.6 1.2 0.1
v 0.6 1.3 0.1
v 0.7 1.1 0.1
v 0.7 1.2 0.1
v 0.7 1.3 0.1
v 0.9 1.1 0.1
v 0.9 1.2 0.1
v 0.6 1.3 5.96046e-08
v 0.6 1.4 5.96046e-08
v 0.7 1.2 5.96046e-08
v 0.7 1.3 5.96046e-08
v 0.7 1.4 5.96046e-08
v 0.9 1.2 5.96046e-08
v 0.9 1.3 5.96046e-08
v 0.8 1.3 -0.1
v 0.8 1.5 -0.1
v 0.9 1.3 -0.1
v 0.9 1.5 -0.1
v 0.7 1.3 -0.2
v 0.7 1.4 -0.2
v 0.7 1.6 -0.2
v 0.8 1.3 -0.2
v 0.8 1.6 -0.2
v 0.6 1.4 -0.3
v 0.6 1.5 -0.3
v 0.6 1.7 -0.3
v 0.7 1.4 -0.3
v 0.7 1.7 -0.3
v 0.3 1.5 -0.4
v 0.3 1.8 -0.4
v 0.6 1.5 -0.4
v 0.6 1.8 -0.4
v 0.7 1 0.5
v 0.8 1 0.5
v 0.7 1 0.4
v 0.8 1 0.4
v 0.7 1 0.3
v 0.8 1 0.3
v 0.7 1 0.2
v 0.8 1 0.2
v 0.7 1.1 0.4
v 0.8 1.1 0.4
v 0.6 1.1 0.3
v 0.7 1.1 0.3
v 0.8 1.1 0.3
v 0.9 1.1 0.3
v 0.6 1.1 0.2
v 0.7 1.1 0.2
v 0.8 1.1 0.2
v 0.7 1.1 0.1
v 0.9 1.1 0.1
v 0.7 1.2 0.6
v 0.8 1.2 0.6
v 0.7 1.2 0.5
v 0.8 1.2 0.5
v 0.6 1.2 0.4
v 0.7 1.2 0.4
v 0.8 1.2 0.4
v 0.9 1.2 0.4
v 0.6 1.2 0.3
v 0.7 1.2 0.3
v 0.8 1.2 0.3
v 0.9 1.2 0.3
v 0.6 1.2 0.2
v 0.7 1.2 0.2
v 0.6 1.2 0.1
v 0.7 1.2 0.1
v 0.9 1.2 0.1
v 0.7 1.2 5.96046e-08
v 0.9 1.2 5.96046e-08
v 0.6 1.3 0.1
v 0.7 1.3 0.1
v 0.6 1.3 5.96046e-08
v 0.7 1.3 5.96046e-08
v 0.9 1.3 5.96046e-08
v 0.8 1.3 -0.1
v 0.9 1.3 -0.1
v 0.7 1.3 -0.2
v 0.8 1.3 -0.2
v 0.6 1.4 5.96046e-08
v 0.7 1.4 5.96046e-08
v 0.7 1.4 -0.2
v 0.6 1.4 -0.3
v 0.7 1.4 -0.3
v 0.3 1.5 5.96046e-08
v 0.5 1.5 5.96046e-08
v 0.5 1.5 -0.1
v 0.6 1.5 -0.1
v 0.6 1.5 -0.3
v 0.3 1.5 -0.4
v 0.6 1.5 -0.4
v 0.3 1.6 0.1
v 0.4 1.6 0.1
v 0.3 1.6 5.96046e-08
v 0.4 1.6 5.96046e-08
v 0.5 1.6 5.96046e-08
v 0.6 1.6 5.96046e-08
v 0.5 1.6 -0.1
v 0.6 1.6 -0.1
v 0.7 1.1 0.5
v 0.8 1.1 0.5
v 0.7 1.1 0.4
v 0.8 1.1 0.4
v 0.7 1.3 0.6
v 0.8 1.3 0.6
v 0.7 1.3 0.5
v 0.8 1.3 0.5
v 0.7 1.4 0.5
v 0.8 1.4 0.5
v 0.6 1.4 0.4
v 0.7 1.4 0.4
v 0.8 1.4 0.4
v 0.9 1.4 0.4
v 0.7 1.4 0.3
v 0.9 1.4 0.3
v 0.6 1.4 0.2
v 0.7 1.4 0.2
v 0.7 1.5 0.3
v 0.9 1.5 0.3
v 0.6 1.5 0.2
v 0.7 1.5 0.2
v 0.8 1.5 0.2
v 0.6 1.5 0.1
v 0.7 1.5 0.1
v 0.8 1.5 -0.1
v 0.9 1.5 -0.1
v 0.7 1.6 0.2
v 0.8 1.6 0.2
v 0.6 1.6 0.1
v 0.7 1.6 0.1
v 0.6 1.6 5.96046e-08
v 0.7 1.6 5.96046e-08
v 0.7 1.6 -0.2
v 0.8 1.6 -0.2
v 0.3 1.7 0.1
v 0.4 1.7 0.1
v 0.3 1.7 5.96046e-08
v 0.4 1.7 5.96046e-08
v 0.5 1.7 5.96046e-08
v 0.7 1.7 5.96046e-08
v 0.5 1.7 -0.1
v 0.6 1.7 -0.1
v 0.6 1.7 -0.3
v 0.7 1.7 -0.3
v 0.3 1.8 5.96046e-08
v 0.5 1.8 5.96046e-08
v 0.5 1.8 -0.1
v 0.6 1.8 -0.1
v 0.3 1.8 -0.4
v 0.6 1.8 -0.4

# faces
f 4/1/1 2/1/1 1/1/1
f 5/1/1 4/1/1 3/1/1
f 6/1/1 2/1/1 4/1/1
f 6/1/1 4/1/1 5/1/1
f 7/1/1 2/1/1 6/1/1
f 8/1/1 2/1/1 7/1/1
f 12/1/1 10/1/1 9/1/1
f 13/1/1 10/1/1 12/1/1
f 15/1/1 12/1/1 11/1/1
f 15/1/1 14/1/1 13/1/1
f 15/1/1 13/1/1 12/1/1
f 17/1/1 15/1/1 11/1/1
f 17/1/1 16/1/1 15/1/1
f 18/1/1 16/1/1 17/1/1
f 19/1/1 16/1/1 18/1/1
f 21/1/1 20/1/1 19/1/1
f 21/1/1 19/1/1 18/1/1
f 22/1/1 20/1/1 21/1/1
f 23/1/1 20/1/1 22/1/1
f 24/1/1 20/1/1 23/1/1
f 25/1/1 23/1/1 22/1/1
f 26/1/1 23/1/1 25/1/1
f 27/1/1 23/1/1 26/1/1
f 32/2/1 29/2/1 28/2/1
f 33/2/1 29/2/1 32/2/1
f 34/2/1 31/2/1 30/2/1
f 35/2/1 31/2/1 34/2/1
f 39/1/1 34/1/1 33/1/1
f 40/1/1 34/1/1 39/1/1
f 41/1/1 36/1/1 35/1/1
f 42/1/1 36/1/1 41/1/1
f 44/2/1 38/2/1 37/2/1
f 45/1/1 39/1/1 38/1/1
f 45/2/1 38/2/1 44/2/1
f 46/1/1 43/1/1 42/1/1
f 47/1/1 43/1/1 46/1/1
f 49/1/1 39/1/1 45/1/1
f 50/1/1 39/1/1 49/1/1
f 53/1/1 48/1/1 47/1/1
f 54/1/1 48/1/1 53/1/1
f 55/1/1 52/1/1 51/1/1
f 56/1/1 52/1/1 55/1/1
f 58/1/1 57/1/1 56/1/1
f 59/1/1 57/1/1 58/1/1
f 60/1/2 61/1/2 62/1/2
f 62/1/2 61/1/2 63/1/2
f 64/1/2 65/1/2 66/1/2
f 66/1/2 65/1/2 67/1/2
f 68/1/2 69/1/2 70/1/2
f 70/1/2 69/1/2 71/1/2
f 72/1/2 73/1/2 75/1/2
f 74/1/2 75/1/2 76/1/2
f 75/1/2 73/1/2 77/1/2
f 76/1/2 75/1/2 77/1/2
f 78/1/2 79/1/2 81/1/2
f 80/1/2 81/1/2 82/1/2
f 81/1/2 79/1/2 83/1/2
f 82/1/2 81/1/2 83/1/2
f 84/2/2 85/2/2 88/2/2
f 88/2/2 85/2/2 89/2/2
f 86/2/2 87/2/2 90/2/2
f 90/2/2 87/2/2 91/2/2
f 89/1/2 90/1/2 94/1/2
f 94/1/2 90/1/2 95/1/2
f 92/2/2 93/2/2 96/2/2
f 93/1/2 94/1/2 97/1/2
f 96/2/2 93/2/2 97/2/2
f 97/1/2 94/1/2 100/1/2
f 100/1/2 94/1/2 101/1/2
f 98/1/2 99/1/2 103/1/2
f 102/1/2 103/1/2 104/1/2
f 103/1/2 99/1/2 105/1/2
f 104/1/2 103/1/2 105/1/2
f 106/1/2 107/1/2 109/1/2
f 109/1/2 107/1/2 110/1/2
f 108/1/2 109/1/2 112/1/2
f 110/1/2 111/1/2 112/1/2
f 109/1/2 110/1/2 112/1/2
f 108/1/2 112/1/2 114/1/2
f 112/1/2 113/1/2 114/1/2
f 114/1/2 113/1/2 115/1/2
f 115/1/2 113/1/2 116/1/2
f 116/1/2 113/1/2 117/1/2
f 120/2/3 119/2/3 118/2/3
f 121/2/3 119/2/3 120/2/3
f 126/2/3 123/2/3 122/2/3
f 127/2/3 123/2/3 126/2/3
f 128/1/3 125/1/3 124/1/3
f 129/1/3 125/1/3 128/1/3
f 133/1/3 131/1/3 130/1/3
f 134/1/3 131/1/3 133/1/3
f 135/1/3 133/1/3 132/1/3
f 136/1/3 133/1/3 135/1/3
f 138/1/3 137/1/3 136/1/3
f 139/1/3 137/1/3 138/1/3
f 143/1/3 141/1/3 140/1/3
f 144/1/3 141/1/3 143/1/3
f 147/2/3 143/2/3 142/2/3
f 148/2/3 143/2/3 147/2/3
f 150/1/3 149/1/3 148/1/3
f 151/1/3 149/1/3 150/1/3
f 152/1/3 146/1/3 145/1/3
f 153/1/3 146/1/3 152/1/3
f 156/1/3 155/1/3 154/1/3
f 157/1/3 155/1/3 156/1/3
f 159/1/3 158/1/3 157/1/3
f 160/1/3 158/1/3 159/1/3
f 163/1/3 162/1/3 161/1/3
f 164/1/3 162/1/3 163/1/3
f 167/1/3 166/1/3 165/1/3
f 168/1/3 166/1/3 167/1/3
f 173/1/3 170/1/3 169/1/3
f 174/1/3 172/1/3 171/1/3
f 175/1/3 173/1/3 169/1/3
f 175/1/3 174/1/3 173/1/3
f 176/1/3 174/1/3 175/1/3
f 177/1/3 172/1/3 174/1/3
f 177/1/3 174/1/3 176/1/3
f 178/1/3 172/1/3 177/1/3
f 179/1/3 177/1/3 176/1/3
f 180/1/3 177/1/3 179/1/3
f 181/1/3 177/1/3 180/1/3
f 186/1/3 183/1/3 182/1/3
f 187/1/3 183/1/3 186/1/3
f 188/1/3 185/1/3 184/1/3
f 189/1/3 185/1/3 188/1/3
f 190/2/4 191/2/4 192/2/4
f 192/2/4 191/2/4 193/2/4
f 194/1/4 195/1/4 197/1/4
f 197/1/4 195/1/4 198/1/4
f 196/2/4 197/2/4 199/2/4
f 199/2/4 197/2/4 200/2/4
f 201/1/4 202/1/4 204/1/4
f 204/1/4 202/1/4 205/1/4
f 203/1/4 204/1/4 206/1/4
f 206/1/4 204/1/4 207/1/4
f 208/1/4 209/1/4 211/1/4
f 211/1/4 209/1/4 212/1/4
f 210/1/4 211/1/4 213/1/4
f 213/1/4 211/1/4 214/1/4
f 215/1/4 216/1/4 217/1/4
f 217/1/4 216/1/4 218/1/4
f 219/1/4 220/1/4 222/1/4
f 220/1/4 221/1/4 222/1/4
f 222/1/4 221/1/4 223/1/4
f 224/1/4 225/1/4 227/1/4
f 225/1/4 226/1/4 227/1/4
f 227/1/4 226/1/4 228/1/4
f 229/1/4 230/1/4 231/1/4
f 231/1/4 230/1/4 232/1/4
f 235/2/5 234/2/5 233/2/5
f 236/2/5 234/2/5 235/2/5
f 239/2/5 238/2/5 237/2/5
f 240/2/5 238/2/5 239/2/5
f 244/1/5 242/1/5 241/1/5
f 245/1/5 242/1/5 244/1/5
f 247/1/5 244/1/5 243/1/5
f 248/1/5 244/1/5 247/1/5
f 249/1/5 246/1/5 245/1/5
f 250/1/5 249/1/5 248/1/5
f 251/1/5 246/1/5 249/1/5
f 251/1/5 249/1/5 250/1/5
f 254/2/5 253/2/5 252/2/5
f 255/2/5 253/2/5 254/2/5
f 257/1/5 255/1/5 254/1/5
f 258/1/5 255/1/5 257/1/5
f 260/1/5 257/1/5 256/1/5
f 261/1/5 257/1/5 260/1/5
f 262/1/5 259/1/5 258/1/5
f 263/1/5 259/1/5 262/1/5
f 266/1/5 265/1/5 264/1/5
f 267/1/5 265/1/5 266/1/5
f 269/1/5 268/1/5 267/1/5
f 270/1/5 268/1/5 269/1/5
f 273/1/5 272/1/5 271/1/5
f 274/1/5 272/1/5 273/1/5
f 276/1/5 275/1/5 274/1/5
f 277/1/5 275/1/5 276/1/5
f 278/1/5 276/1/5 274/1/5
f 279/1/5 276/1/5 278/1/5
f 282/1/5 281/1/5 280/1/5
f 283/1/5 282/1/5 280/1/5
f 284/1/5 282/1/5 283/1/5
f 287/1/5 286/1/5 285/1/5
f 289/1/5 288/1/5 287/1/5
f 290/1/5 287/1/5 285/1/5
f 290/1/5 289/1/5 287/1/5
f 291/1/5 289/1/5 290/1/5
f 294/1/5 293/1/5 292/1/5
f 295/1/5 293/1/5 294/1/5
f 298/1/5 297/1/5 296/1/5
f 299/1/5 297/1/5 298/1/5
f 300/2/6 301/2/6 302/2/6
f 302/2/6 301/2/6 303/2/6
f 304/2/6 305/2/6 306/2/6
f 306/2/6 305/2/6 307/2/6
f 308/1/6 309/1/6 311/1/6
f 311/1/6 309/1/6 312/1/6
f 310/1/6 311/1/6 314/1/6
f 312/1/6 313/1/6 314/1/6
f 311/1/6 312/1/6 314/1/6
f 314/1/6 313/1/6 315/1/6
f 310/1/6 314/1/6 316/1/6
f 316/1/6 314/1/6 317/1/6
f 318/1/6 319/1/6 321/1/6
f 321/1/6 319/1/6 322/1/6
f 320/1/6 321/1/6 323/1/6
f 323/1/6 321/1/6 324/1/6
f 322/1/6 319/1/6 325/1/6
f 325/1/6 319/1/6 326/1/6
f 327/1/6 328/1/6 330/1/6
f 329/1/6 330/1/6 331/1/6
f 330/1/6 328/1/6 332/1/6
f 331/1/6 330/1/6 332/1/6
f 332/1/6 328/1/6 333/1/6
f 333/1/6 328/1/6 334/1/6
f 335/1/6 336/1/6 337/1/6
f 337/1/6 336/1/6 338/1/6
f 339/1/6 340/1/6 341/1/6
f 341/1/6 340/1/6 342/1/6
f 342/1/6 340/1/6 343/1/6
f 343/1/6 340/1/6 344/1/6
f 345/1/6 346/1/6 347/1/6
f 345/1/6 347/1/6 349/1/6
f 347/1/6 348/1/6 349/1/6
f 349/1/6 348/1/6 350/1/6
