# MagicaVoxel @ Ephtracy

# group
o 

# material
mtllib world-dialog-3.mtl
usemtl palette

# normals
vn -1 0 0
vn 1 0 0
vn 0 0 1
vn 0 0 -1
vn 0 -1 0
vn 0 1 0

# texcoords
vt 0.845703 0.5
vt 0.849609 0.5
vt 0.962891 0.5

# verts
v -1.9 1 -2.3
v -1.9 1 -2.4
v -1.9 4.2 -2.3
v -1.9 4.2 -2.4
v -1.8 0.7 -2.3
v -1.8 0.7 -2.4
v -1.8 1 -2.3
v -1.8 1 -2.4
v -1.8 4.2 -2.3
v -1.8 4.2 -2.4
v -1.8 4.4 -2.3
v -1.8 4.4 -2.4
v -1.7 0.6 -2.3
v -1.7 0.6 -2.4
v -1.7 0.7 -2.3
v -1.7 0.7 -2.4
v -1.7 1.3 -2.2
v -1.7 1.3 -2.3
v -1.7 3.9 -2.2
v -1.7 3.9 -2.3
v -1.7 4.4 -2.3
v -1.7 4.4 -2.4
v -1.7 4.6 -2.3
v -1.7 4.6 -2.4
v -1.6 0.5 -2.3
v -1.6 0.5 -2.4
v -1.6 0.6 -2.3
v -1.6 0.6 -2.4
v -1.6 1 -2.2
v -1.6 1 -2.3
v -1.6 1.3 -2.2
v -1.6 1.3 -2.3
v -1.6 3.9 -2.2
v -1.6 3.9 -2.3
v -1.6 4.2 -2.2
v -1.6 4.2 -2.3
v -1.6 4.6 -2.3
v -1.6 4.6 -2.4
v -1.6 4.7 -2.3
v -1.6 4.7 -2.4
v -1.5 0.4 -2.3
v -1.5 0.4 -2.4
v -1.5 0.5 -2.3
v -1.5 0.5 -2.4
v -1.5 0.8 -2.2
v -1.5 0.8 -2.3
v -1.5 1 -2.2
v -1.5 1 -2.3
v -1.5 4.2 -2.2
v -1.5 4.2 -2.3
v -1.5 4.4 -2.2
v -1.5 4.4 -2.3
v -1.5 4.7 -2.3
v -1.5 4.7 -2.4
v -1.5 4.8 -2.3
v -1.5 4.8 -2.4
v -1.4 0.6 -2.2
v -1.4 0.6 -2.3
v -1.4 0.8 -2.2
v -1.4 0.8 -2.3
v -1.4 4.4 -2.2
v -1.4 4.4 -2.3
v -1.4 4.6 -2.2
v -1.4 4.6 -2.3
v -1.3 0.3 -2.3
v -1.3 0.3 -2.4
v -1.3 0.4 -2.3
v -1.3 0.4 -2.4
v -1.3 0.5 -2.2
v -1.3 0.5 -2.3
v -1.3 0.6 -2.2
v -1.3 0.6 -2.3
v -1.3 4.6 -2.2
v -1.3 4.6 -2.3
v -1.3 4.7 -2.2
v -1.3 4.7 -2.3
v -1.3 4.8 -2.3
v -1.3 4.8 -2.4
v -1.3 4.9 -2.3
v -1.3 4.9 -2.4
v -1.2 0.4 -2.2
v -1.2 0.4 -2.3
v -1.2 0.5 -2.2
v -1.2 0.5 -2.3
v -1.2 0.8 -2.1
v -1.2 0.8 -2.2
v -1.2 4.4 -2.1
v -1.2 4.4 -2.2
v -1.2 4.7 -2.2
v -1.2 4.7 -2.3
v -1.2 4.8 -2.2
v -1.2 4.8 -2.3
v -1.1 0.6 -2.1
v -1.1 0.6 -2.2
v -1.1 0.8 -2.1
v -1.1 0.8 -2.2
v -1.1 4.4 -2.1
v -1.1 4.4 -2.2
v -1.1 4.6 -2.1
v -1.1 4.6 -2.2
v -1 0.2 -2.3
v -1 0.2 -2.4
v -1 0.3 -2.2
v -1 0.3 -2.3
v -1 0.3 -2.4
v -1 0.4 -2.2
v -1 0.4 -2.3
v -1 0.5 -2.1
v -1 0.5 -2.2
v -1 0.6 -2.1
v -1 0.6 -2.2
v -1 4.6 -2.1
v -1 4.6 -2.2
v -1 4.7 -2.1
v -1 4.7 -2.2
v -1 4.8 -2.2
v -1 4.8 -2.3
v -1 4.9 -2.2
v -1 4.9 -2.3
v -1 4.9 -2.4
v -1 5 -2.3
v -1 5 -2.4
v -0.9 0.4 -2.1
v -0.9 0.4 -2.2
v -0.9 0.5 -2.1
v -0.9 0.5 -2.2
v -0.9 4.7 -2.1
v -0.9 4.7 -2.2
v -0.9 4.8 -2.1
v -0.9 4.8 -2.2
v -0.8 0.2 -2.2
v -0.8 0.2 -2.3
v -0.8 0.3 -2.2
v -0.8 0.3 -2.3
v -0.8 4.9 -2.2
v -0.8 4.9 -2.3
v -0.8 5 -2.2
v -0.8 5 -2.3
v 2.4 0.2 -2.2
v 2.4 0.2 -2.3
v 2.4 0.2 -2.4
v 2.4 0.4 -2.1
v 2.4 0.4 -2.2
v 2.4 4.8 -2.1
v 2.4 4.8 -2.2
v 2.4 5 -2.2
v 2.4 5 -2.3
v 2.4 5 -2.4
v -1.2 0.8 -2.1
v -1.2 4.4 -2.1
v -1.1 0.6 -2.1
v -1.1 0.8 -2.1
v -1.1 4.4 -2.1
v -1.1 4.6 -2.1
v -1 0.5 -2.1
v -1 0.6 -2.1
v -1 4.6 -2.1
v -1 4.7 -2.1
v -0.9 0.4 -2.1
v -0.9 0.5 -2.1
v -0.9 4.7 -2.1
v -0.9 4.8 -2.1
v 2.4 0.4 -2.1
v 2.4 4.8 -2.1
v -1.7 1.3 -2.2
v -1.7 3.9 -2.2
v -1.6 1 -2.2
v -1.6 1.3 -2.2
v -1.6 3.9 -2.2
v -1.6 4.2 -2.2
v -1.5 0.8 -2.2
v -1.5 1 -2.2
v -1.5 4.2 -2.2
v -1.5 4.4 -2.2
v -1.4 0.6 -2.2
v -1.4 0.8 -2.2
v -1.4 4.4 -2.2
v -1.4 4.6 -2.2
v -1.3 0.5 -2.2
v -1.3 0.6 -2.2
v -1.3 4.6 -2.2
v -1.3 4.7 -2.2
v -1.2 0.4 -2.2
v -1.2 0.5 -2.2
v -1.2 0.8 -2.2
v -1.2 4.4 -2.2
v -1.2 4.7 -2.2
v -1.2 4.8 -2.2
v -1.1 0.6 -2.2
v -1.1 0.8 -2.2
v -1.1 4.4 -2.2
v -1.1 4.6 -2.2
v -1 0.3 -2.2
v -1 0.4 -2.2
v -1 0.5 -2.2
v -1 0.6 -2.2
v -1 4.6 -2.2
v -1 4.7 -2.2
v -1 4.8 -2.2
v -1 4.9 -2.2
v -0.9 0.4 -2.2
v -0.9 0.5 -2.2
v -0.9 4.7 -2.2
v -0.9 4.8 -2.2
v -0.8 0.2 -2.2
v -0.8 0.3 -2.2
v -0.8 4.9 -2.2
v -0.8 5 -2.2
v 2.4 0.2 -2.2
v 2.4 0.4 -2.2
v 2.4 4.8 -2.2
v 2.4 5 -2.2
v -1.9 1 -2.3
v -1.9 4.2 -2.3
v -1.8 0.7 -2.3
v -1.8 1 -2.3
v -1.8 4.2 -2.3
v -1.8 4.4 -2.3
v -1.7 0.6 -2.3
v -1.7 0.7 -2.3
v -1.7 1.3 -2.3
v -1.7 3.9 -2.3
v -1.7 4.4 -2.3
v -1.7 4.6 -2.3
v -1.6 0.5 -2.3
v -1.6 0.6 -2.3
v -1.6 1 -2.3
v -1.6 1.3 -2.3
v -1.6 3.9 -2.3
v -1.6 4.2 -2.3
v -1.6 4.6 -2.3
v -1.6 4.7 -2.3
v -1.5 0.4 -2.3
v -1.5 0.5 -2.3
v -1.5 0.8 -2.3
v -1.5 1 -2.3
v -1.5 4.2 -2.3
v -1.5 4.4 -2.3
v -1.5 4.7 -2.3
v -1.5 4.8 -2.3
v -1.4 0.6 -2.3
v -1.4 0.8 -2.3
v -1.4 4.4 -2.3
v -1.4 4.6 -2.3
v -1.3 0.3 -2.3
v -1.3 0.4 -2.3
v -1.3 0.5 -2.3
v -1.3 0.6 -2.3
v -1.3 4.6 -2.3
v -1.3 4.7 -2.3
v -1.3 4.8 -2.3
v -1.3 4.9 -2.3
v -1.2 0.4 -2.3
v -1.2 0.5 -2.3
v -1.2 4.7 -2.3
v -1.2 4.8 -2.3
v -1 0.2 -2.3
v -1 0.3 -2.3
v -1 0.4 -2.3
v -1 4.8 -2.3
v -1 4.9 -2.3
v -1 5 -2.3
v -0.8 0.2 -2.3
v -0.8 0.3 -2.3
v -0.8 4.9 -2.3
v -0.8 5 -2.3
v -1.9 1 -2.4
v -1.9 4.2 -2.4
v -1.8 0.7 -2.4
v -1.8 1 -2.4
v -1.8 4.2 -2.4
v -1.8 4.4 -2.4
v -1.7 0.6 -2.4
v -1.7 0.7 -2.4
v -1.7 4.4 -2.4
v -1.7 4.6 -2.4
v -1.6 0.5 -2.4
v -1.6 0.6 -2.4
v -1.6 4.6 -2.4
v -1.6 4.7 -2.4
v -1.5 0.4 -2.4
v -1.5 0.5 -2.4
v -1.5 4.7 -2.4
v -1.5 4.8 -2.4
v -1.3 0.3 -2.4
v -1.3 0.4 -2.4
v -1.3 4.8 -2.4
v -1.3 4.9 -2.4
v -1 0.2 -2.4
v -1 0.3 -2.4
v -1 4.9 -2.4
v -1 5 -2.4
v -0.7 1.6 -2.4
v -0.7 1.7 -2.4
v -0.7 2.4 -2.4
v -0.7 2.5 -2.4
v -0.7 3.5 -2.4
v -0.7 3.6 -2.4
v -0.6 1.6 -2.4
v -0.6 1.7 -2.4
v -0.6 2.4 -2.4
v -0.6 2.5 -2.4
v -0.6 3.5 -2.4
v -0.6 3.6 -2.4
v 2.4 0.2 -2.4
v 2.4 5 -2.4
v -0.8 0.2 -2.2
v 2.4 0.2 -2.2
v -1 0.2 -2.3
v -0.8 0.2 -2.3
v 2.4 0.2 -2.3
v -1 0.2 -2.4
v 2.4 0.2 -2.4
v -1 0.3 -2.2
v -0.8 0.3 -2.2
v -1.3 0.3 -2.3
v -1 0.3 -2.3
v -0.8 0.3 -2.3
v -1.3 0.3 -2.4
v -1 0.3 -2.4
v -0.9 0.4 -2.1
v 2.4 0.4 -2.1
v -1.2 0.4 -2.2
v -1 0.4 -2.2
v -0.9 0.4 -2.2
v 2.4 0.4 -2.2
v -1.5 0.4 -2.3
v -1.3 0.4 -2.3
v -1.2 0.4 -2.3
v -1 0.4 -2.3
v -1.5 0.4 -2.4
v -1.3 0.4 -2.4
v -1 0.5 -2.1
v -0.9 0.5 -2.1
v -1.3 0.5 -2.2
v -1.2 0.5 -2.2
v -1 0.5 -2.2
v -0.9 0.5 -2.2
v -1.6 0.5 -2.3
v -1.5 0.5 -2.3
v -1.3 0.5 -2.3
v -1.2 0.5 -2.3
v -1.6 0.5 -2.4
v -1.5 0.5 -2.4
v -1.1 0.6 -2.1
v -1 0.6 -2.1
v -1.4 0.6 -2.2
v -1.3 0.6 -2.2
v -1.1 0.6 -2.2
v -1 0.6 -2.2
v -1.7 0.6 -2.3
v -1.6 0.6 -2.3
v -1.4 0.6 -2.3
v -1.3 0.6 -2.3
v -1.7 0.6 -2.4
v -1.6 0.6 -2.4
v -1.8 0.7 -2.3
v -1.7 0.7 -2.3
v -1.8 0.7 -2.4
v -1.7 0.7 -2.4
v -1.2 0.8 -2.1
v -1.1 0.8 -2.1
v -1.5 0.8 -2.2
v -1.4 0.8 -2.2
v -1.2 0.8 -2.2
v -1.1 0.8 -2.2
v -1.5 0.8 -2.3
v -1.4 0.8 -2.3
v -1.6 1 -2.2
v -1.5 1 -2.2
v -1.9 1 -2.3
v -1.8 1 -2.3
v -1.6 1 -2.3
v -1.5 1 -2.3
v -1.9 1 -2.4
v -1.8 1 -2.4
v -1.7 1.3 -2.2
v -1.6 1.3 -2.2
v -1.7 1.3 -2.3
v -1.6 1.3 -2.3
v -1.7 3.9 -2.2
v -1.6 3.9 -2.2
v -1.7 3.9 -2.3
v -1.6 3.9 -2.3
v -1.6 4.2 -2.2
v -1.5 4.2 -2.2
v -1.9 4.2 -2.3
v -1.8 4.2 -2.3
v -1.6 4.2 -2.3
v -1.5 4.2 -2.3
v -1.9 4.2 -2.4
v -1.8 4.2 -2.4
v -1.2 4.4 -2.1
v -1.1 4.4 -2.1
v -1.5 4.4 -2.2
v -1.4 4.4 -2.2
v -1.2 4.4 -2.2
v -1.1 4.4 -2.2
v -1.8 4.4 -2.3
v -1.7 4.4 -2.3
v -1.5 4.4 -2.3
v -1.4 4.4 -2.3
v -1.8 4.4 -2.4
v -1.7 4.4 -2.4
v -1.1 4.6 -2.1
v -1 4.6 -2.1
v -1.4 4.6 -2.2
v -1.3 4.6 -2.2
v -1.1 4.6 -2.2
v -1 4.6 -2.2
v -1.7 4.6 -2.3
v -1.6 4.6 -2.3
v -1.4 4.6 -2.3
v -1.3 4.6 -2.3
v -1.7 4.6 -2.4
v -1.6 4.6 -2.4
v -1 4.7 -2.1
v -0.9 4.7 -2.1
v -1.3 4.7 -2.2
v -1.2 4.7 -2.2
v -1 4.7 -2.2
v -0.9 4.7 -2.2
v -1.6 4.7 -2.3
v -1.5 4.7 -2.3
v -1.3 4.7 -2.3
v -1.2 4.7 -2.3
v -1.6 4.7 -2.4
v -1.5 4.7 -2.4
v -0.9 4.8 -2.1
v 2.4 4.8 -2.1
v -1.2 4.8 -2.2
v -1 4.8 -2.2
v -0.9 4.8 -2.2
v 2.4 4.8 -2.2
v -1.5 4.8 -2.3
v -1.3 4.8 -2.3
v -1.2 4.8 -2.3
v -1 4.8 -2.3
v -1.5 4.8 -2.4
v -1.3 4.8 -2.4
v -1 4.9 -2.2
v -0.8 4.9 -2.2
v -1.3 4.9 -2.3
v -1 4.9 -2.3
v -0.8 4.9 -2.3
v -1.3 4.9 -2.4
v -1 4.9 -2.4
v -0.8 5 -2.2
v 2.4 5 -2.2
v -1 5 -2.3
v -0.8 5 -2.3
v 2.4 5 -2.3
v -1 5 -2.4
v 2.4 5 -2.4

# faces
f 3/2/1 2/2/1 1/2/1
f 4/2/1 2/2/1 3/2/1
f 7/2/1 6/2/1 5/2/1
f 8/2/1 6/2/1 7/2/1
f 11/2/1 10/2/1 9/2/1
f 12/2/1 10/2/1 11/2/1
f 15/2/1 14/2/1 13/2/1
f 16/2/1 14/2/1 15/2/1
f 19/1/1 18/1/1 17/1/1
f 20/1/1 18/1/1 19/1/1
f 23/2/1 22/2/1 21/2/1
f 24/2/1 22/2/1 23/2/1
f 27/2/1 26/2/1 25/2/1
f 28/2/1 26/2/1 27/2/1
f 31/1/1 30/1/1 29/1/1
f 32/1/1 30/1/1 31/1/1
f 35/1/1 34/1/1 33/1/1
f 36/1/1 34/1/1 35/1/1
f 39/2/1 38/2/1 37/2/1
f 40/2/1 38/2/1 39/2/1
f 43/2/1 42/2/1 41/2/1
f 44/2/1 42/2/1 43/2/1
f 47/1/1 46/1/1 45/1/1
f 48/1/1 46/1/1 47/1/1
f 51/1/1 50/1/1 49/1/1
f 52/1/1 50/1/1 51/1/1
f 55/2/1 54/2/1 53/2/1
f 56/2/1 54/2/1 55/2/1
f 59/1/1 58/1/1 57/1/1
f 60/1/1 58/1/1 59/1/1
f 63/1/1 62/1/1 61/1/1
f 64/1/1 62/1/1 63/1/1
f 67/2/1 66/2/1 65/2/1
f 68/2/1 66/2/1 67/2/1
f 71/1/1 70/1/1 69/1/1
f 72/1/1 70/1/1 71/1/1
f 75/1/1 74/1/1 73/1/1
f 76/1/1 74/1/1 75/1/1
f 79/2/1 78/2/1 77/2/1
f 80/2/1 78/2/1 79/2/1
f 83/1/1 82/1/1 81/1/1
f 84/1/1 82/1/1 83/1/1
f 87/3/1 86/3/1 85/3/1
f 88/3/1 86/3/1 87/3/1
f 91/1/1 90/1/1 89/1/1
f 92/1/1 90/1/1 91/1/1
f 95/3/1 94/3/1 93/3/1
f 96/3/1 94/3/1 95/3/1
f 99/3/1 98/3/1 97/3/1
f 100/3/1 98/3/1 99/3/1
f 104/2/1 102/2/1 101/2/1
f 105/2/1 102/2/1 104/2/1
f 106/1/1 104/1/1 103/1/1
f 107/1/1 104/1/1 106/1/1
f 110/3/1 109/3/1 108/3/1
f 111/3/1 109/3/1 110/3/1
f 114/3/1 113/3/1 112/3/1
f 115/3/1 113/3/1 114/3/1
f 118/1/1 117/1/1 116/1/1
f 119/1/1 117/1/1 118/1/1
f 121/2/1 120/2/1 119/2/1
f 122/2/1 120/2/1 121/2/1
f 125/3/1 124/3/1 123/3/1
f 126/3/1 124/3/1 125/3/1
f 129/3/1 128/3/1 127/3/1
f 130/3/1 128/3/1 129/3/1
f 133/1/1 132/1/1 131/1/1
f 134/1/1 132/1/1 133/1/1
f 137/1/1 136/1/1 135/1/1
f 138/1/1 136/1/1 137/1/1
f 139/1/2 140/1/2 143/1/2
f 142/3/2 143/3/2 144/3/2
f 143/1/2 140/1/2 145/1/2
f 144/3/2 143/3/2 145/3/2
f 145/1/2 140/1/2 146/1/2
f 140/2/2 141/2/2 147/2/2
f 146/1/2 140/1/2 147/1/2
f 147/2/2 141/2/2 148/2/2
f 152/3/3 150/3/3 149/3/3
f 153/3/3 150/3/3 152/3/3
f 156/3/3 152/3/3 151/3/3
f 156/3/3 154/3/3 153/3/3
f 156/3/3 153/3/3 152/3/3
f 157/3/3 154/3/3 156/3/3
f 160/3/3 156/3/3 155/3/3
f 160/3/3 158/3/3 157/3/3
f 160/3/3 157/3/3 156/3/3
f 161/3/3 158/3/3 160/3/3
f 163/3/3 160/3/3 159/3/3
f 163/3/3 162/3/3 161/3/3
f 163/3/3 161/3/3 160/3/3
f 164/3/3 162/3/3 163/3/3
f 168/1/3 166/1/3 165/1/3
f 169/1/3 166/1/3 168/1/3
f 172/1/3 168/1/3 167/1/3
f 172/1/3 170/1/3 169/1/3
f 172/1/3 169/1/3 168/1/3
f 173/1/3 170/1/3 172/1/3
f 176/1/3 172/1/3 171/1/3
f 176/1/3 174/1/3 173/1/3
f 176/1/3 173/1/3 172/1/3
f 177/1/3 174/1/3 176/1/3
f 180/1/3 176/1/3 175/1/3
f 180/1/3 178/1/3 177/1/3
f 180/1/3 177/1/3 176/1/3
f 181/1/3 178/1/3 180/1/3
f 184/1/3 180/1/3 179/1/3
f 184/1/3 182/1/3 181/1/3
f 184/1/3 181/1/3 180/1/3
f 185/1/3 182/1/3 184/1/3
f 186/1/3 182/1/3 185/1/3
f 187/1/3 182/1/3 186/1/3
f 189/1/3 184/1/3 183/1/3
f 189/1/3 185/1/3 184/1/3
f 190/1/3 185/1/3 189/1/3
f 191/1/3 188/1/3 187/1/3
f 191/1/3 187/1/3 186/1/3
f 192/1/3 188/1/3 191/1/3
f 194/1/3 189/1/3 183/1/3
f 195/1/3 189/1/3 194/1/3
f 196/1/3 189/1/3 195/1/3
f 197/1/3 188/1/3 192/1/3
f 198/1/3 188/1/3 197/1/3
f 199/1/3 188/1/3 198/1/3
f 201/1/3 194/1/3 193/1/3
f 201/1/3 195/1/3 194/1/3
f 202/1/3 195/1/3 201/1/3
f 203/1/3 200/1/3 199/1/3
f 203/1/3 199/1/3 198/1/3
f 204/1/3 200/1/3 203/1/3
f 206/1/3 201/1/3 193/1/3
f 207/1/3 200/1/3 204/1/3
f 209/1/3 206/1/3 205/1/3
f 210/1/3 201/1/3 206/1/3
f 210/1/3 206/1/3 209/1/3
f 211/1/3 208/1/3 207/1/3
f 211/1/3 207/1/3 204/1/3
f 212/1/3 208/1/3 211/1/3
f 216/2/3 214/2/3 213/2/3
f 217/2/3 214/2/3 216/2/3
f 220/2/3 216/2/3 215/2/3
f 220/2/3 218/2/3 217/2/3
f 220/2/3 217/2/3 216/2/3
f 221/2/3 218/2/3 220/2/3
f 222/2/3 218/2/3 221/2/3
f 223/2/3 218/2/3 222/2/3
f 226/2/3 220/2/3 219/2/3
f 226/2/3 221/2/3 220/2/3
f 227/2/3 221/2/3 226/2/3
f 228/2/3 221/2/3 227/2/3
f 229/2/3 223/2/3 222/2/3
f 229/2/3 224/2/3 223/2/3
f 230/2/3 224/2/3 229/2/3
f 231/2/3 224/2/3 230/2/3
f 234/2/3 227/2/3 226/2/3
f 234/2/3 226/2/3 225/2/3
f 235/2/3 227/2/3 234/2/3
f 236/2/3 227/2/3 235/2/3
f 237/2/3 232/2/3 231/2/3
f 237/2/3 231/2/3 230/2/3
f 238/2/3 232/2/3 237/2/3
f 239/2/3 232/2/3 238/2/3
f 241/2/3 235/2/3 234/2/3
f 241/2/3 234/2/3 233/2/3
f 242/2/3 235/2/3 241/2/3
f 243/2/3 240/2/3 239/2/3
f 243/2/3 239/2/3 238/2/3
f 244/2/3 240/2/3 243/2/3
f 246/2/3 241/2/3 233/2/3
f 247/2/3 241/2/3 246/2/3
f 248/2/3 241/2/3 247/2/3
f 249/2/3 240/2/3 244/2/3
f 250/2/3 240/2/3 249/2/3
f 251/2/3 240/2/3 250/2/3
f 253/2/3 246/2/3 245/2/3
f 253/2/3 247/2/3 246/2/3
f 254/2/3 247/2/3 253/2/3
f 255/2/3 252/2/3 251/2/3
f 255/2/3 251/2/3 250/2/3
f 256/2/3 252/2/3 255/2/3
f 258/2/3 253/2/3 245/2/3
f 259/2/3 253/2/3 258/2/3
f 260/2/3 252/2/3 256/2/3
f 261/2/3 252/2/3 260/2/3
f 263/2/3 258/2/3 257/2/3
f 264/2/3 258/2/3 263/2/3
f 265/2/3 262/2/3 261/2/3
f 266/2/3 262/2/3 265/2/3
f 267/2/4 268/2/4 270/2/4
f 270/2/4 268/2/4 271/2/4
f 269/2/4 270/2/4 274/2/4
f 271/2/4 272/2/4 274/2/4
f 270/2/4 271/2/4 274/2/4
f 274/2/4 272/2/4 275/2/4
f 273/2/4 274/2/4 278/2/4
f 275/2/4 276/2/4 278/2/4
f 274/2/4 275/2/4 278/2/4
f 278/2/4 276/2/4 279/2/4
f 277/2/4 278/2/4 282/2/4
f 279/2/4 280/2/4 282/2/4
f 278/2/4 279/2/4 282/2/4
f 282/2/4 280/2/4 283/2/4
f 281/2/4 282/2/4 286/2/4
f 283/2/4 284/2/4 286/2/4
f 282/2/4 283/2/4 286/2/4
f 286/2/4 284/2/4 287/2/4
f 285/2/4 286/2/4 290/2/4
f 287/2/4 288/2/4 290/2/4
f 286/2/4 287/2/4 290/2/4
f 290/2/4 288/2/4 291/2/4
f 289/2/4 290/2/4 293/2/4
f 291/2/4 292/2/4 293/2/4
f 290/2/4 291/2/4 293/2/4
f 293/2/4 292/2/4 294/2/4
f 294/2/4 292/2/4 295/2/4
f 295/2/4 292/2/4 296/2/4
f 296/2/4 292/2/4 297/2/4
f 297/2/4 292/2/4 298/2/4
f 289/2/4 293/2/4 299/2/4
f 293/3/4 294/3/4 299/3/4
f 294/2/4 295/2/4 300/2/4
f 299/3/4 294/3/4 300/3/4
f 295/3/4 296/3/4 301/3/4
f 300/2/4 295/2/4 301/2/4
f 296/2/4 297/2/4 302/2/4
f 301/3/4 296/3/4 302/3/4
f 297/3/4 298/3/4 303/3/4
f 302/2/4 297/2/4 303/2/4
f 298/2/4 292/2/4 304/2/4
f 303/3/4 298/3/4 304/3/4
f 302/2/4 303/2/4 305/2/4
f 301/2/4 302/2/4 305/2/4
f 303/2/4 304/2/4 305/2/4
f 300/2/4 301/2/4 305/2/4
f 299/2/4 300/2/4 305/2/4
f 289/2/4 299/2/4 305/2/4
f 304/2/4 292/2/4 306/2/4
f 305/2/4 304/2/4 306/2/4
f 310/1/5 308/1/5 307/1/5
f 311/1/5 308/1/5 310/1/5
f 312/2/5 310/2/5 309/2/5
f 312/2/5 311/2/5 310/2/5
f 313/2/5 311/2/5 312/2/5
f 317/1/5 315/1/5 314/1/5
f 318/1/5 315/1/5 317/1/5
f 319/2/5 317/2/5 316/2/5
f 320/2/5 317/2/5 319/2/5
f 325/3/5 322/3/5 321/3/5
f 326/3/5 322/3/5 325/3/5
f 329/1/5 324/1/5 323/1/5
f 330/1/5 324/1/5 329/1/5
f 331/2/5 328/2/5 327/2/5
f 332/2/5 328/2/5 331/2/5
f 337/3/5 334/3/5 333/3/5
f 338/3/5 334/3/5 337/3/5
f 341/1/5 336/1/5 335/1/5
f 342/1/5 336/1/5 341/1/5
f 343/2/5 340/2/5 339/2/5
f 344/2/5 340/2/5 343/2/5
f 349/3/5 346/3/5 345/3/5
f 350/3/5 346/3/5 349/3/5
f 353/1/5 348/1/5 347/1/5
f 354/1/5 348/1/5 353/1/5
f 355/2/5 352/2/5 351/2/5
f 356/2/5 352/2/5 355/2/5
f 359/2/5 358/2/5 357/2/5
f 360/2/5 358/2/5 359/2/5
f 365/3/5 362/3/5 361/3/5
f 366/3/5 362/3/5 365/3/5
f 367/1/5 364/1/5 363/1/5
f 368/1/5 364/1/5 367/1/5
f 373/1/5 370/1/5 369/1/5
f 374/1/5 370/1/5 373/1/5
f 375/2/5 372/2/5 371/2/5
f 376/2/5 372/2/5 375/2/5
f 379/1/5 378/1/5 377/1/5
f 380/1/5 378/1/5 379/1/5
f 381/1/6 382/1/6 383/1/6
f 383/1/6 382/1/6 384/1/6
f 385/1/6 386/1/6 389/1/6
f 389/1/6 386/1/6 390/1/6
f 387/2/6 388/2/6 391/2/6
f 391/2/6 388/2/6 392/2/6
f 393/3/6 394/3/6 397/3/6
f 397/3/6 394/3/6 398/3/6
f 395/1/6 396/1/6 401/1/6
f 401/1/6 396/1/6 402/1/6
f 399/2/6 400/2/6 403/2/6
f 403/2/6 400/2/6 404/2/6
f 405/3/6 406/3/6 409/3/6
f 409/3/6 406/3/6 410/3/6
f 407/1/6 408/1/6 413/1/6
f 413/1/6 408/1/6 414/1/6
f 411/2/6 412/2/6 415/2/6
f 415/2/6 412/2/6 416/2/6
f 417/3/6 418/3/6 421/3/6
f 421/3/6 418/3/6 422/3/6
f 419/1/6 420/1/6 425/1/6
f 425/1/6 420/1/6 426/1/6
f 423/2/6 424/2/6 427/2/6
f 427/2/6 424/2/6 428/2/6
f 429/3/6 430/3/6 433/3/6
f 433/3/6 430/3/6 434/3/6
f 431/1/6 432/1/6 437/1/6
f 437/1/6 432/1/6 438/1/6
f 435/2/6 436/2/6 439/2/6
f 439/2/6 436/2/6 440/2/6
f 441/1/6 442/1/6 444/1/6
f 444/1/6 442/1/6 445/1/6
f 443/2/6 444/2/6 446/2/6
f 446/2/6 444/2/6 447/2/6
f 448/1/6 449/1/6 451/1/6
f 451/1/6 449/1/6 452/1/6
f 450/2/6 451/2/6 453/2/6
f 451/2/6 452/2/6 453/2/6
f 453/2/6 452/2/6 454/2/6
