# MagicaVoxel @ Ephtracy

# group
o arms-right-forward

# material
mtllib dad-3-arms-right-forward.mtl
usemtl palette

# normals
vn 1 0 0
vn -1 0 0
vn 0 0 -1
vn 0 0 1
vn 0 -1 0
vn 0 1 0

# texcoords
vt 0.892578 0.5
vt 0.982422 0.5

# verts
v -0.8 1.6 -0.3
v -0.8 1.6 -0.2
v -0.8 1.7 -0.2
v -0.8 1.7 -0.1
v -0.8 1.9 -0.3
v -0.8 1.9 -0.1
v -0.9 1.5 -0.1
v -0.9 1.5 0.1
v -0.9 1.6 -0.2
v -0.9 1.6 -0.1
v -0.9 1.7 -0.2
v -0.9 1.7 -0.1
v -0.9 1.7 0
v -0.9 1.7 0.1
v -0.9 1.8 -0.1
v -0.9 1.8 0
v -1 1.4 0
v -1 1.4 0.1
v -1 1.5 0
v -1 1.5 0.1
v -1 1.5 0.2
v -1 1.6 0.1
v -1 1.6 0.2
v -1.2 1.3 0.1
v -1.2 1.3 0.2
v -1.2 1.4 0.1
v -1.2 1.4 0.2
v -1.2 1.4 0.3
v -1.2 1.5 0.1
v -1.2 1.5 0.2
v -1.2 1.5 0.3
v -1.3 1.3 0.2
v -1.3 1.3 0.3
v -1.3 1.4 0.2
v -1.3 1.4 0.3
v -1 1.6 -0.3
v -1 1.6 -0.2
v -1 1.7 -0.3
v -1 1.7 -0.2
v -1 1.8 -0.3
v -1 1.8 -0.2
v -1 1.9 -0.3
v -1 1.9 -0.2
v -1.1 1.7 -0.3
v -1.1 1.7 -0.2
v -1.1 1.7 -0.1
v -1.1 1.8 -0.3
v -1.1 1.8 -0.2
v -1.1 1.8 -0.1
v -1.1 1.9 -0.2
v -1.1 1.9 -0.1
v -1.2 1.6 -0.2
v -1.2 1.6 -0.1
v -1.2 1.7 -0.2
v -1.2 1.7 -0.1
v -1.2 1.7 0
v -1.2 1.8 -0.1
v -1.2 1.8 0
v -1.3 1.5 -0.1
v -1.3 1.5 0
v -1.3 1.6 0
v -1.3 1.6 0.1
v -1.3 1.7 -0.1
v -1.3 1.7 0.1
v -1.5 1.4 0
v -1.5 1.4 0.1
v -1.5 1.5 0.1
v -1.5 1.5 0.2
v -1.5 1.6 0
v -1.5 1.6 0.2
v -1.6 1.3 0.1
v -1.6 1.3 0.3
v -1.6 1.5 0.1
v -1.6 1.5 0.3
v -0.8 1.6 -0.3
v -0.8 1.9 -0.3
v -1 1.6 -0.3
v -1 1.7 -0.3
v -1 1.8 -0.3
v -1 1.9 -0.3
v -1.1 1.7 -0.3
v -1.1 1.8 -0.3
v -1 1.6 -0.2
v -1 1.7 -0.2
v -1 1.8 -0.2
v -1 1.9 -0.2
v -1.1 1.7 -0.2
v -1.1 1.8 -0.2
v -1.1 1.9 -0.2
v -1.2 1.6 -0.2
v -1.2 1.7 -0.2
v -0.9 1.5 -0.1
v -0.9 1.6 -0.1
v -1.1 1.7 -0.1
v -1.1 1.8 -0.1
v -1.2 1.6 -0.1
v -1.2 1.7 -0.1
v -1.2 1.8 -0.1
v -1.3 1.5 -0.1
v -1.3 1.7 -0.1
v -1 1.4 0
v -1 1.5 0
v -1.2 1.4 0
v -1.2 1.5 0
v -1.3 1.5 0
v -1.3 1.6 0
v -1.5 1.4 0
v -1.5 1.6 0
v -1.2 1.3 0.1
v -1.2 1.4 0.1
v -1.5 1.4 0.1
v -1.5 1.5 0.1
v -1.6 1.3 0.1
v -1.6 1.5 0.1
v -0.8 1.6 -0.2
v -0.8 1.7 -0.2
v -0.9 1.6 -0.2
v -0.9 1.7 -0.2
v -0.8 1.7 -0.1
v -0.8 1.9 -0.1
v -0.9 1.7 -0.1
v -0.9 1.8 -0.1
v -1.1 1.8 -0.1
v -1.1 1.9 -0.1
v -0.9 1.7 0
v -0.9 1.8 0
v -1.2 1.7 0
v -1.2 1.8 0
v -0.9 1.5 0.1
v -0.9 1.7 0.1
v -1 1.4 0.1
v -1 1.5 0.1
v -1 1.6 0.1
v -1.1 1.5 0.1
v -1.1 1.6 0.1
v -1.2 1.4 0.1
v -1.2 1.5 0.1
v -1.3 1.6 0.1
v -1.3 1.7 0.1
v -1 1.5 0.2
v -1 1.6 0.2
v -1.1 1.5 0.2
v -1.1 1.6 0.2
v -1.2 1.3 0.2
v -1.2 1.4 0.2
v -1.2 1.5 0.2
v -1.3 1.3 0.2
v -1.3 1.4 0.2
v -1.5 1.5 0.2
v -1.5 1.6 0.2
v -1.2 1.4 0.3
v -1.2 1.5 0.3
v -1.3 1.3 0.3
v -1.3 1.4 0.3
v -1.6 1.3 0.3
v -1.6 1.5 0.3
v -1.2 1.3 0.1
v -1.6 1.3 0.1
v -1.2 1.3 0.2
v -1.3 1.3 0.2
v -1.3 1.3 0.3
v -1.6 1.3 0.3
v -1 1.4 0
v -1.2 1.4 0
v -1.5 1.4 0
v -1 1.4 0.1
v -1.2 1.4 0.1
v -1.5 1.4 0.1
v -1.2 1.4 0.2
v -1.3 1.4 0.2
v -1.2 1.4 0.3
v -1.3 1.4 0.3
v -0.9 1.5 -0.1
v -1.3 1.5 -0.1
v -1 1.5 0
v -1.2 1.5 0
v -1.3 1.5 0
v -0.9 1.5 0.1
v -1 1.5 0.1
v -1.1 1.5 0.1
v -1.2 1.5 0.1
v -1 1.5 0.2
v -1.1 1.5 0.2
v -1.2 1.5 0.2
v -0.8 1.6 -0.3
v -1 1.6 -0.3
v -0.8 1.6 -0.2
v -0.9 1.6 -0.2
v -1 1.6 -0.2
v -1.2 1.6 -0.2
v -0.9 1.6 -0.1
v -1.2 1.6 -0.1
v -1 1.7 -0.3
v -1.1 1.7 -0.3
v -0.8 1.7 -0.2
v -0.9 1.7 -0.2
v -1 1.7 -0.2
v -1.1 1.7 -0.2
v -0.8 1.7 -0.1
v -0.9 1.7 -0.1
v -1.5 1.5 0.1
v -1.6 1.5 0.1
v -1.2 1.5 0.2
v -1.5 1.5 0.2
v -1.2 1.5 0.3
v -1.6 1.5 0.3
v -1.3 1.6 0
v -1.5 1.6 0
v -1 1.6 0.1
v -1.1 1.6 0.1
v -1.3 1.6 0.1
v -1 1.6 0.2
v -1.1 1.6 0.2
v -1.5 1.6 0.2
v -1.1 1.7 -0.2
v -1.2 1.7 -0.2
v -1.1 1.7 -0.1
v -1.2 1.7 -0.1
v -1.3 1.7 -0.1
v -0.9 1.7 0
v -1.2 1.7 0
v -0.9 1.7 0.1
v -1.3 1.7 0.1
v -1 1.8 -0.3
v -1.1 1.8 -0.3
v -1 1.8 -0.2
v -1.1 1.8 -0.2
v -0.9 1.8 -0.1
v -1.1 1.8 -0.1
v -1.2 1.8 -0.1
v -0.9 1.8 0
v -1.2 1.8 0
v -0.8 1.9 -0.3
v -1 1.9 -0.3
v -1 1.9 -0.2
v -1.1 1.9 -0.2
v -0.8 1.9 -0.1
v -1.1 1.9 -0.1

# faces
f 3/1/1 2/1/1 1/1/1
f 5/1/1 3/1/1 1/1/1
f 5/1/1 4/1/1 3/1/1
f 6/1/1 4/1/1 5/1/1
f 10/1/1 8/1/1 7/1/1
f 11/1/1 10/1/1 9/1/1
f 12/1/1 8/1/1 10/1/1
f 12/1/1 10/1/1 11/1/1
f 13/1/1 8/1/1 12/1/1
f 14/1/1 8/1/1 13/1/1
f 15/1/1 13/1/1 12/1/1
f 16/1/1 13/1/1 15/1/1
f 19/1/1 18/1/1 17/1/1
f 20/1/1 18/1/1 19/1/1
f 22/1/1 21/1/1 20/1/1
f 23/1/1 21/1/1 22/1/1
f 26/2/1 25/2/1 24/2/1
f 27/2/1 25/2/1 26/2/1
f 29/2/1 27/2/1 26/2/1
f 29/2/1 28/2/1 27/2/1
f 30/2/1 28/2/1 29/2/1
f 31/2/1 28/2/1 30/2/1
f 34/2/1 33/2/1 32/2/1
f 35/2/1 33/2/1 34/2/1
f 36/1/2 37/1/2 38/1/2
f 38/1/2 37/1/2 39/1/2
f 40/1/2 41/1/2 42/1/2
f 42/1/2 41/1/2 43/1/2
f 44/1/2 45/1/2 47/1/2
f 45/1/2 46/1/2 47/1/2
f 47/1/2 46/1/2 48/1/2
f 48/1/2 46/1/2 49/1/2
f 48/1/2 49/1/2 50/1/2
f 50/1/2 49/1/2 51/1/2
f 52/1/2 53/1/2 54/1/2
f 54/1/2 53/1/2 55/1/2
f 55/1/2 56/1/2 57/1/2
f 57/1/2 56/1/2 58/1/2
f 59/1/2 60/1/2 61/1/2
f 59/1/2 61/1/2 63/1/2
f 61/1/2 62/1/2 63/1/2
f 63/1/2 62/1/2 64/1/2
f 65/2/2 66/2/2 67/2/2
f 65/2/2 67/2/2 69/2/2
f 67/2/2 68/2/2 69/2/2
f 69/2/2 68/2/2 70/2/2
f 71/2/2 72/2/2 73/2/2
f 73/2/2 72/2/2 74/2/2
f 77/1/3 76/1/3 75/1/3
f 78/1/3 76/1/3 77/1/3
f 79/1/3 76/1/3 78/1/3
f 80/1/3 76/1/3 79/1/3
f 81/1/3 79/1/3 78/1/3
f 82/1/3 79/1/3 81/1/3
f 87/1/3 84/1/3 83/1/3
f 88/1/3 86/1/3 85/1/3
f 89/1/3 86/1/3 88/1/3
f 90/1/3 87/1/3 83/1/3
f 91/1/3 87/1/3 90/1/3
f 96/1/3 93/1/3 92/1/3
f 97/1/3 95/1/3 94/1/3
f 98/1/3 95/1/3 97/1/3
f 99/1/3 96/1/3 92/1/3
f 99/1/3 97/1/3 96/1/3
f 100/1/3 97/1/3 99/1/3
f 103/1/3 102/1/3 101/1/3
f 104/1/3 102/1/3 103/1/3
f 105/2/3 104/2/3 103/2/3
f 107/2/3 105/2/3 103/2/3
f 107/2/3 106/2/3 105/2/3
f 108/2/3 106/2/3 107/2/3
f 111/2/3 110/2/3 109/2/3
f 113/2/3 111/2/3 109/2/3
f 113/2/3 112/2/3 111/2/3
f 114/2/3 112/2/3 113/2/3
f 115/1/4 116/1/4 117/1/4
f 117/1/4 116/1/4 118/1/4
f 119/1/4 120/1/4 121/1/4
f 121/1/4 120/1/4 122/1/4
f 122/1/4 120/1/4 123/1/4
f 123/1/4 120/1/4 124/1/4
f 125/1/4 126/1/4 127/1/4
f 127/1/4 126/1/4 128/1/4
f 129/1/4 130/1/4 132/1/4
f 132/1/4 130/1/4 133/1/4
f 131/1/4 132/1/4 134/1/4
f 133/1/4 130/1/4 135/1/4
f 131/1/4 134/1/4 136/1/4
f 136/1/4 134/1/4 137/1/4
f 135/1/4 130/1/4 138/1/4
f 138/1/4 130/1/4 139/1/4
f 140/1/4 141/1/4 142/1/4
f 142/1/4 141/1/4 143/1/4
f 142/2/4 143/2/4 146/2/4
f 144/2/4 145/2/4 147/2/4
f 147/2/4 145/2/4 148/2/4
f 146/2/4 143/2/4 149/2/4
f 149/2/4 143/2/4 150/2/4
f 151/2/4 152/2/4 154/2/4
f 153/2/4 154/2/4 155/2/4
f 154/2/4 152/2/4 156/2/4
f 155/2/4 154/2/4 156/2/4
f 159/2/5 158/2/5 157/2/5
f 160/2/5 158/2/5 159/2/5
f 161/2/5 158/2/5 160/2/5
f 162/2/5 158/2/5 161/2/5
f 166/1/5 164/1/5 163/1/5
f 167/2/5 165/2/5 164/2/5
f 167/1/5 164/1/5 166/1/5
f 168/2/5 165/2/5 167/2/5
f 171/2/5 170/2/5 169/2/5
f 172/2/5 170/2/5 171/2/5
f 175/1/5 174/1/5 173/1/5
f 176/1/5 174/1/5 175/1/5
f 177/1/5 174/1/5 176/1/5
f 178/1/5 175/1/5 173/1/5
f 179/1/5 175/1/5 178/1/5
f 182/1/5 180/1/5 179/1/5
f 183/2/5 181/2/5 180/2/5
f 183/1/5 180/1/5 182/1/5
f 184/2/5 181/2/5 183/2/5
f 187/1/5 186/1/5 185/1/5
f 188/1/5 186/1/5 187/1/5
f 189/1/5 186/1/5 188/1/5
f 191/1/5 190/1/5 189/1/5
f 191/1/5 189/1/5 188/1/5
f 192/1/5 190/1/5 191/1/5
f 197/1/5 194/1/5 193/1/5
f 198/1/5 194/1/5 197/1/5
f 199/1/5 196/1/5 195/1/5
f 200/1/5 196/1/5 199/1/5
f 201/2/6 202/2/6 204/2/6
f 203/2/6 204/2/6 205/2/6
f 204/2/6 202/2/6 206/2/6
f 205/2/6 204/2/6 206/2/6
f 207/2/6 208/2/6 211/2/6
f 209/1/6 210/1/6 212/1/6
f 210/2/6 211/2/6 213/2/6
f 212/1/6 210/1/6 213/1/6
f 211/2/6 208/2/6 214/2/6
f 213/2/6 211/2/6 214/2/6
f 215/1/6 216/1/6 217/1/6
f 217/1/6 216/1/6 218/1/6
f 218/1/6 219/1/6 221/1/6
f 220/1/6 221/1/6 222/1/6
f 221/1/6 219/1/6 223/1/6
f 222/1/6 221/1/6 223/1/6
f 224/1/6 225/1/6 226/1/6
f 226/1/6 225/1/6 227/1/6
f 228/1/6 229/1/6 231/1/6
f 229/1/6 230/1/6 231/1/6
f 231/1/6 230/1/6 232/1/6
f 233/1/6 234/1/6 235/1/6
f 233/1/6 235/1/6 237/1/6
f 235/1/6 236/1/6 237/1/6
f 237/1/6 236/1/6 238/1/6
