# MagicaVoxel @ Ephtracy

# group
o 

# material
mtllib dad-0.mtl
usemtl palette

# normals
vn -1 0 0
vn 1 0 0
vn 0 0 1
vn 0 0 -1
vn 0 -1 0
vn 0 1 0

# texcoords
vt 0.892578 0.5
vt 0.982422 0.5

# verts
v -1.5 1.2 -0.1
v -1.5 1.2 -0.3
v -1.5 1.4 -0.1
v -1.5 1.4 -0.3
v -1.4 1.4 -0.1
v -1.4 1.4 -0.3
v -1.4 1.6 -0.1
v -1.4 1.6 -0.3
v -1.2 1.6 -0.1
v -1.2 1.6 -0.3
v -1.2 1.7 -0.1
v -1.2 1.7 -0.3
v -1.1 1.7 -0.1
v -1.1 1.7 -0.3
v -1.1 1.8 -0.1
v -1.1 1.8 -0.3
v -1 1.8 -0.1
v -1 1.8 -0.3
v -1 1.9 -0.1
v -1 1.9 -0.3
v -0.9 1.9 -0.1
v -0.9 1.9 -0.3
v -0.9 2 -0.1
v -0.9 2 -0.3
v -1.2 1.2 -0.1
v -1.2 1.2 -0.3
v -1.2 1.3 -0.1
v -1.2 1.3 -0.3
v -1.1 1.3 -0.1
v -1.1 1.3 -0.3
v -1.1 1.4 -0.1
v -1.1 1.4 -0.3
v -0.9 1.4 -0.1
v -0.9 1.4 -0.3
v -0.9 1.5 -0.1
v -0.9 1.5 -0.3
v -0.8 1.5 -0.1
v -0.8 1.5 -0.3
v -0.8 2 -0.1
v -0.8 2 -0.3
v -1.5 1.2 -0.1
v -1.5 1.4 -0.1
v -1.4 1.4 -0.1
v -1.4 1.6 -0.1
v -1.2 1.2 -0.1
v -1.2 1.3 -0.1
v -1.2 1.5 -0.1
v -1.2 1.6 -0.1
v -1.2 1.7 -0.1
v -1.1 1.3 -0.1
v -1.1 1.4 -0.1
v -1.1 1.5 -0.1
v -1.1 1.7 -0.1
v -1.1 1.8 -0.1
v -1 1.8 -0.1
v -1 1.9 -0.1
v -0.9 1.4 -0.1
v -0.9 1.5 -0.1
v -0.9 1.9 -0.1
v -0.9 2 -0.1
v -0.8 1.5 -0.1
v -0.8 2 -0.1
v -1.5 1.2 -0.3
v -1.5 1.4 -0.3
v -1.4 1.4 -0.3
v -1.4 1.6 -0.3
v -1.2 1.2 -0.3
v -1.2 1.3 -0.3
v -1.2 1.5 -0.3
v -1.2 1.6 -0.3
v -1.2 1.7 -0.3
v -1.1 1.3 -0.3
v -1.1 1.4 -0.3
v -1.1 1.5 -0.3
v -1.1 1.7 -0.3
v -1.1 1.8 -0.3
v -1 1.8 -0.3
v -1 1.9 -0.3
v -0.9 1.4 -0.3
v -0.9 1.5 -0.3
v -0.9 1.9 -0.3
v -0.9 2 -0.3
v -0.8 1.5 -0.3
v -0.8 2 -0.3
v -1.5 1.2 -0.1
v -1.2 1.2 -0.1
v -1.5 1.2 -0.3
v -1.2 1.2 -0.3
v -1.2 1.3 -0.1
v -1.1 1.3 -0.1
v -1.2 1.3 -0.3
v -1.1 1.3 -0.3
v -1.1 1.4 -0.1
v -0.9 1.4 -0.1
v -1.1 1.4 -0.3
v -0.9 1.4 -0.3
v -0.9 1.5 -0.1
v -0.8 1.5 -0.1
v -0.9 1.5 -0.3
v -0.8 1.5 -0.3
v -1.5 1.4 -0.1
v -1.4 1.4 -0.1
v -1.5 1.4 -0.3
v -1.4 1.4 -0.3
v -1.4 1.6 -0.1
v -1.2 1.6 -0.1
v -1.4 1.6 -0.3
v -1.2 1.6 -0.3
v -1.2 1.7 -0.1
v -1.1 1.7 -0.1
v -1.2 1.7 -0.3
v -1.1 1.7 -0.3
v -1.1 1.8 -0.1
v -1 1.8 -0.1
v -1.1 1.8 -0.3
v -1 1.8 -0.3
v -1 1.9 -0.1
v -0.9 1.9 -0.1
v -1 1.9 -0.3
v -0.9 1.9 -0.3
v -0.9 2 -0.1
v -0.8 2 -0.1
v -0.9 2 -0.3
v -0.8 2 -0.3

# faces
f 3/2/1 2/2/1 1/2/1
f 4/2/1 2/2/1 3/2/1
f 7/2/1 6/2/1 5/2/1
f 8/2/1 6/2/1 7/2/1
f 11/1/1 10/1/1 9/1/1
f 12/1/1 10/1/1 11/1/1
f 15/1/1 14/1/1 13/1/1
f 16/1/1 14/1/1 15/1/1
f 19/1/1 18/1/1 17/1/1
f 20/1/1 18/1/1 19/1/1
f 23/1/1 22/1/1 21/1/1
f 24/1/1 22/1/1 23/1/1
f 25/2/2 26/2/2 27/2/2
f 27/2/2 26/2/2 28/2/2
f 29/2/2 30/2/2 31/2/2
f 31/2/2 30/2/2 32/2/2
f 33/1/2 34/1/2 35/1/2
f 35/1/2 34/1/2 36/1/2
f 37/1/2 38/1/2 39/1/2
f 39/1/2 38/1/2 40/1/2
f 43/2/3 42/2/3 41/2/3
f 45/2/3 43/2/3 41/2/3
f 45/2/3 44/2/3 43/2/3
f 46/2/3 44/2/3 45/2/3
f 47/2/3 44/2/3 46/2/3
f 48/2/3 44/2/3 47/2/3
f 50/2/3 47/2/3 46/2/3
f 51/2/3 47/2/3 50/2/3
f 52/1/3 49/1/3 48/1/3
f 52/2/3 47/2/3 51/2/3
f 52/1/3 48/1/3 47/1/3
f 53/1/3 49/1/3 52/1/3
f 55/1/3 54/1/3 53/1/3
f 55/1/3 53/1/3 52/1/3
f 55/1/3 52/1/3 51/1/3
f 57/1/3 55/1/3 51/1/3
f 57/1/3 56/1/3 55/1/3
f 58/1/3 56/1/3 57/1/3
f 59/1/3 56/1/3 58/1/3
f 61/1/3 60/1/3 59/1/3
f 61/1/3 59/1/3 58/1/3
f 62/1/3 60/1/3 61/1/3
f 63/2/4 64/2/4 65/2/4
f 63/2/4 65/2/4 67/2/4
f 65/2/4 66/2/4 67/2/4
f 67/2/4 66/2/4 68/2/4
f 68/2/4 66/2/4 69/2/4
f 69/2/4 66/2/4 70/2/4
f 68/2/4 69/2/4 72/2/4
f 72/2/4 69/2/4 73/2/4
f 70/1/4 71/1/4 74/1/4
f 73/2/4 69/2/4 74/2/4
f 69/1/4 70/1/4 74/1/4
f 74/1/4 71/1/4 75/1/4
f 75/1/4 76/1/4 77/1/4
f 74/1/4 75/1/4 77/1/4
f 73/1/4 74/1/4 77/1/4
f 73/1/4 77/1/4 79/1/4
f 77/1/4 78/1/4 79/1/4
f 79/1/4 78/1/4 80/1/4
f 80/1/4 78/1/4 81/1/4
f 81/1/4 82/1/4 83/1/4
f 80/1/4 81/1/4 83/1/4
f 83/1/4 82/1/4 84/1/4
f 87/2/5 86/2/5 85/2/5
f 88/2/5 86/2/5 87/2/5
f 91/2/5 90/2/5 89/2/5
f 92/2/5 90/2/5 91/2/5
f 95/1/5 94/1/5 93/1/5
f 96/1/5 94/1/5 95/1/5
f 99/1/5 98/1/5 97/1/5
f 100/1/5 98/1/5 99/1/5
f 101/2/6 102/2/6 103/2/6
f 103/2/6 102/2/6 104/2/6
f 105/2/6 106/2/6 107/2/6
f 107/2/6 106/2/6 108/2/6
f 109/1/6 110/1/6 111/1/6
f 111/1/6 110/1/6 112/1/6
f 113/1/6 114/1/6 115/1/6
f 115/1/6 114/1/6 116/1/6
f 117/1/6 118/1/6 119/1/6
f 119/1/6 118/1/6 120/1/6
f 121/1/6 122/1/6 123/1/6
f 123/1/6 122/1/6 124/1/6
