# MagicaVoxel @ Ephtracy

# group
o legs-right-forward

# material
mtllib dad-2-legs-right-forward.mtl
usemtl palette

# normals
vn 1 0 0
vn -1 0 0
vn 0 0 1
vn 0 0 -1
vn 0 -1 0
vn 0 1 0

# texcoords
vt 0.869141 0.5
vt 0.888672 0.5

# verts
v 0.6 0 -0.3
v 0.6 0 -0.7
v 0.6 0.2 -0.3
v 0.6 0.2 -0.5
v 0.6 0.2 -0.7
v 0.6 0.4 -0.1
v 0.6 0.4 -0.5
v 0.6 0.4 -0.7
v 0.6 0.5 -0.3
v 0.6 0.5 -0.5
v 0.6 0.9 -0.1
v 0.6 0.9 -0.3
v 0.4 0 -0.7
v 0.4 0 -0.8
v 0.4 0.2 -0.7
v 0.4 0.4 -0.5
v 0.4 0.4 -0.7
v 0.4 0.4 -0.8
v 0.4 0.5 0.1
v 0.4 0.5 -0.1
v 0.4 0.5 -0.3
v 0.4 0.5 -0.5
v 0.4 0.5 -0.7
v 0.4 0.9 0.1
v 0.4 0.9 -0.1
v 0.4 0.9 -0.3
v 0.4 0.9 -0.5
v -0.1 0.2 0.6
v -0.1 0.2 0.2
v -0.1 0.4 0.6
v -0.1 0.4 0.2
v -0.1 0.4 -0.1
v -0.1 0.5 -0.1
v -0.1 0.5 -0.3
v -0.1 0.6 -0.1
v -0.1 0.6 -0.3
v -0.1 0.7 0.2
v -0.1 0.7 0.1
v -0.1 0.7 -0.1
v -0.3 0.2 0.2
v -0.3 0.2 0.1
v -0.3 0.4 0.2
v -0.3 0.4 0.1
v 0.1 0 -0.3
v 0.1 0 -0.8
v 0.1 0.2 -0.3
v 0.1 0.2 -0.5
v 0.1 0.2 -0.7
v 0.1 0.4 -0.1
v 0.1 0.4 -0.5
v 0.1 0.4 -0.7
v 0.1 0.4 -0.8
v 0.1 0.5 0.1
v 0.1 0.5 -0.1
v 0.1 0.5 -0.5
v 0.1 0.5 -0.7
v 0.1 0.6 -0.1
v 0.1 0.6 -0.3
v 0.1 0.7 0.1
v 0.1 0.7 -0.1
v 0.1 0.7 -0.3
v 0.1 0.7 -0.5
v -0.5 0.5 0.2
v -0.5 0.5 0.1
v -0.5 0.7 0.2
v -0.5 0.7 0.1
v -0.5 0.7 -0.1
v -0.5 0.7 -0.3
v -0.5 0.7 -0.5
v -0.5 0.9 0.1
v -0.5 0.9 -0.1
v -0.5 0.9 -0.3
v -0.5 0.9 -0.5
v -0.6 0.2 0.6
v -0.6 0.2 0.2
v -0.6 0.2 0.1
v -0.6 0.4 0.6
v -0.6 0.4 0.2
v -0.6 0.4 0.1
v -0.6 0.4 -0.1
v -0.6 0.5 0.2
v -0.6 0.5 0.1
v -0.6 0.5 -0.1
v -0.6 0.5 -0.3
v -0.6 0.7 0.1
v -0.6 0.7 -0.1
v -0.6 0.9 -0.1
v -0.6 0.9 -0.3
v -0.1 0.2 0.6
v -0.1 0.4 0.6
v -0.6 0.2 0.6
v -0.6 0.4 0.6
v -0.1 0.4 0.2
v -0.1 0.7 0.2
v -0.5 0.5 0.2
v -0.5 0.7 0.2
v -0.6 0.4 0.2
v -0.6 0.5 0.2
v 0.4 0.5 0.1
v 0.4 0.9 0.1
v 0.1 0.5 0.1
v 0.1 0.7 0.1
v -0.1 0.7 0.1
v -0.5 0.5 0.1
v -0.5 0.7 0.1
v -0.5 0.9 0.1
v -0.6 0.5 0.1
v -0.6 0.7 0.1
v 0.6 0.4 -0.1
v 0.6 0.9 -0.1
v 0.4 0.5 -0.1
v 0.4 0.9 -0.1
v 0.1 0.4 -0.1
v 0.1 0.5 -0.1
v 0.1 0.6 -0.1
v 0.1 0.7 -0.1
v -0.1 0.6 -0.1
v -0.1 0.7 -0.1
v -0.5 0.7 -0.1
v -0.5 0.9 -0.1
v -0.6 0.7 -0.1
v -0.6 0.9 -0.1
v 0.6 0 -0.3
v 0.6 0.2 -0.3
v 0.1 0 -0.3
v 0.1 0.2 -0.3
v 0.6 0.2 -0.5
v 0.6 0.4 -0.5
v 0.1 0.2 -0.5
v 0.1 0.4 -0.5
v -0.1 0.2 0.2
v -0.1 0.4 0.2
v -0.3 0.2 0.2
v -0.3 0.4 0.2
v -0.3 0.2 0.1
v -0.3 0.4 0.1
v -0.6 0.2 0.1
v -0.6 0.4 0.1
v -0.1 0.4 -0.1
v -0.1 0.5 -0.1
v -0.6 0.4 -0.1
v -0.6 0.5 -0.1
v 0.6 0.5 -0.3
v 0.6 0.9 -0.3
v 0.4 0.5 -0.3
v 0.4 0.9 -0.3
v 0.1 0.6 -0.3
v 0.1 0.7 -0.3
v -0.1 0.5 -0.3
v -0.1 0.6 -0.3
v -0.5 0.7 -0.3
v -0.5 0.9 -0.3
v -0.6 0.5 -0.3
v -0.6 0.9 -0.3
v 0.6 0.4 -0.5
v 0.6 0.5 -0.5
v 0.4 0.4 -0.5
v 0.4 0.5 -0.5
v 0.4 0.9 -0.5
v 0.1 0.5 -0.5
v 0.1 0.7 -0.5
v -0.5 0.7 -0.5
v -0.5 0.9 -0.5
v 0.6 0 -0.7
v 0.6 0.2 -0.7
v 0.6 0.4 -0.7
v 0.4 0 -0.7
v 0.4 0.2 -0.7
v 0.4 0.4 -0.7
v 0.4 0.5 -0.7
v 0.1 0.4 -0.7
v 0.1 0.5 -0.7
v 0.4 0 -0.8
v 0.4 0.4 -0.8
v 0.1 0 -0.8
v 0.1 0.4 -0.8
v 0.6 0 -0.3
v 0.1 0 -0.3
v 0.6 0 -0.7
v 0.4 0 -0.7
v 0.4 0 -0.8
v 0.1 0 -0.8
v -0.1 0.2 0.6
v -0.6 0.2 0.6
v -0.1 0.2 0.2
v -0.3 0.2 0.2
v -0.6 0.2 0.2
v -0.3 0.2 0.1
v -0.6 0.2 0.1
v -0.1 0.4 0.2
v -0.3 0.4 0.2
v -0.3 0.4 0.1
v -0.6 0.4 0.1
v 0.6 0.4 -0.1
v 0.1 0.4 -0.1
v -0.1 0.4 -0.1
v -0.6 0.4 -0.1
v 0.6 0.4 -0.5
v 0.1 0.4 -0.5
v 0.4 0.5 0.1
v 0.1 0.5 0.1
v 0.4 0.5 -0.1
v 0.1 0.5 -0.1
v -0.1 0.5 -0.1
v -0.6 0.5 -0.1
v -0.1 0.5 -0.3
v -0.6 0.5 -0.3
v 0.1 0.6 -0.1
v -0.1 0.6 -0.1
v 0.1 0.6 -0.3
v -0.1 0.6 -0.3
v 0.1 0.7 0.1
v -0.1 0.7 0.1
v 0.1 0.7 -0.1
v -0.1 0.7 -0.1
v 0.1 0.7 -0.3
v -0.5 0.7 -0.3
v 0.1 0.7 -0.5
v -0.5 0.7 -0.5
v 0.6 0.2 -0.3
v 0.1 0.2 -0.3
v 0.6 0.2 -0.5
v 0.1 0.2 -0.5
v -0.1 0.4 0.6
v -0.6 0.4 0.6
v -0.1 0.4 0.2
v -0.6 0.4 0.2
v 0.6 0.4 -0.5
v 0.4 0.4 -0.5
v 0.6 0.4 -0.7
v 0.4 0.4 -0.7
v 0.1 0.4 -0.7
v 0.4 0.4 -0.8
v 0.1 0.4 -0.8
v -0.5 0.5 0.2
v -0.6 0.5 0.2
v -0.5 0.5 0.1
v -0.6 0.5 0.1
v 0.6 0.5 -0.3
v 0.4 0.5 -0.3
v 0.6 0.5 -0.5
v 0.4 0.5 -0.5
v 0.1 0.5 -0.5
v 0.4 0.5 -0.7
v 0.1 0.5 -0.7
v -0.1 0.7 0.2
v -0.5 0.7 0.2
v -0.1 0.7 0.1
v -0.5 0.7 0.1
v -0.6 0.7 0.1
v -0.5 0.7 -0.1
v -0.6 0.7 -0.1
v 0.4 0.9 0.1
v -0.5 0.9 0.1
v 0.6 0.9 -0.1
v 0.4 0.9 -0.1
v -0.5 0.9 -0.1
v -0.6 0.9 -0.1
v 0.6 0.9 -0.3
v 0.4 0.9 -0.3
v -0.5 0.9 -0.3
v -0.6 0.9 -0.3
v 0.4 0.9 -0.5
v -0.5 0.9 -0.5

# faces
f 1/2/1 2/2/1 3/2/1
f 3/2/1 2/2/1 4/2/1
f 4/2/1 2/2/1 5/2/1
f 4/1/1 5/1/1 7/1/1
f 7/1/1 5/1/1 8/1/1
f 6/1/1 7/1/1 9/1/1
f 9/1/1 7/1/1 10/1/1
f 6/1/1 9/1/1 11/1/1
f 11/1/1 9/1/1 12/1/1
f 13/2/1 14/2/1 15/2/1
f 15/2/1 14/2/1 17/2/1
f 17/2/1 14/2/1 18/2/1
f 16/1/1 17/1/1 22/1/1
f 22/1/1 17/1/1 23/1/1
f 19/1/1 20/1/1 24/1/1
f 24/1/1 20/1/1 25/1/1
f 21/1/1 22/1/1 26/1/1
f 26/1/1 22/1/1 27/1/1
f 28/2/1 29/2/1 30/2/1
f 30/2/1 29/2/1 31/2/1
f 31/1/1 32/1/1 33/1/1
f 31/1/1 33/1/1 35/1/1
f 33/1/1 34/1/1 35/1/1
f 35/1/1 34/1/1 36/1/1
f 31/1/1 35/1/1 37/1/1
f 37/1/1 35/1/1 38/1/1
f 38/1/1 35/1/1 39/1/1
f 40/1/1 41/1/1 42/1/1
f 42/1/1 41/1/1 43/1/1
f 46/2/2 45/2/2 44/2/2
f 47/2/2 45/2/2 46/2/2
f 48/2/2 45/2/2 47/2/2
f 50/1/2 48/1/2 47/1/2
f 51/2/2 45/2/2 48/2/2
f 51/1/2 48/1/2 50/1/2
f 52/2/2 45/2/2 51/2/2
f 54/1/2 50/1/2 49/1/2
f 54/1/2 51/1/2 50/1/2
f 55/1/2 51/1/2 54/1/2
f 56/1/2 51/1/2 55/1/2
f 57/1/2 54/1/2 53/1/2
f 57/1/2 55/1/2 54/1/2
f 58/1/2 55/1/2 57/1/2
f 59/1/2 57/1/2 53/1/2
f 60/1/2 57/1/2 59/1/2
f 61/1/2 55/1/2 58/1/2
f 62/1/2 55/1/2 61/1/2
f 65/1/2 64/1/2 63/1/2
f 66/1/2 64/1/2 65/1/2
f 70/1/2 67/1/2 66/1/2
f 71/1/2 67/1/2 70/1/2
f 72/1/2 69/1/2 68/1/2
f 73/1/2 69/1/2 72/1/2
f 77/2/2 75/2/2 74/2/2
f 78/1/2 76/1/2 75/1/2
f 78/2/2 75/2/2 77/2/2
f 79/1/2 76/1/2 78/1/2
f 81/1/2 80/1/2 79/1/2
f 81/1/2 79/1/2 78/1/2
f 82/1/2 80/1/2 81/1/2
f 83/1/2 80/1/2 82/1/2
f 85/1/2 84/1/2 83/1/2
f 85/1/2 83/1/2 82/1/2
f 86/1/2 84/1/2 85/1/2
f 87/1/2 84/1/2 86/1/2
f 88/1/2 84/1/2 87/1/2
f 89/2/3 90/2/3 91/2/3
f 91/2/3 90/2/3 92/2/3
f 93/1/3 94/1/3 95/1/3
f 95/1/3 94/1/3 96/1/3
f 93/1/3 95/1/3 97/1/3
f 97/1/3 95/1/3 98/1/3
f 99/1/3 100/1/3 101/1/3
f 101/1/3 100/1/3 102/1/3
f 102/1/3 100/1/3 103/1/3
f 103/1/3 100/1/3 105/1/3
f 105/1/3 100/1/3 106/1/3
f 104/1/3 105/1/3 107/1/3
f 107/1/3 105/1/3 108/1/3
f 109/1/3 110/1/3 111/1/3
f 111/1/3 110/1/3 112/1/3
f 109/1/3 111/1/3 113/1/3
f 113/1/3 111/1/3 114/1/3
f 115/1/3 116/1/3 117/1/3
f 117/1/3 116/1/3 118/1/3
f 119/1/3 120/1/3 121/1/3
f 121/1/3 120/1/3 122/1/3
f 123/2/3 124/2/3 125/2/3
f 125/2/3 124/2/3 126/2/3
f 127/1/3 128/1/3 129/1/3
f 129/1/3 128/1/3 130/1/3
f 133/2/4 132/2/4 131/2/4
f 134/2/4 132/2/4 133/2/4
f 137/1/4 136/1/4 135/1/4
f 138/1/4 136/1/4 137/1/4
f 141/1/4 140/1/4 139/1/4
f 142/1/4 140/1/4 141/1/4
f 145/1/4 144/1/4 143/1/4
f 146/1/4 144/1/4 145/1/4
f 150/1/4 148/1/4 147/1/4
f 151/1/4 148/1/4 150/1/4
f 151/1/4 150/1/4 149/1/4
f 153/1/4 151/1/4 149/1/4
f 153/1/4 152/1/4 151/1/4
f 154/1/4 152/1/4 153/1/4
f 157/1/4 156/1/4 155/1/4
f 158/1/4 156/1/4 157/1/4
f 160/1/4 159/1/4 158/1/4
f 161/1/4 159/1/4 160/1/4
f 162/1/4 159/1/4 161/1/4
f 163/1/4 159/1/4 162/1/4
f 167/2/4 165/2/4 164/2/4
f 168/1/4 166/1/4 165/1/4
f 168/2/4 165/2/4 167/2/4
f 169/1/4 166/1/4 168/1/4
f 171/1/4 170/1/4 169/1/4
f 172/1/4 170/1/4 171/1/4
f 175/2/4 174/2/4 173/2/4
f 176/2/4 174/2/4 175/2/4
f 177/2/5 178/2/5 179/2/5
f 179/2/5 178/2/5 180/2/5
f 180/2/5 178/2/5 181/2/5
f 181/2/5 178/2/5 182/2/5
f 183/2/5 184/2/5 185/2/5
f 185/2/5 184/2/5 186/2/5
f 186/2/5 184/2/5 187/2/5
f 186/1/5 187/1/5 188/1/5
f 188/1/5 187/1/5 189/1/5
f 190/1/5 191/1/5 192/1/5
f 190/1/5 192/1/5 196/1/5
f 192/1/5 193/1/5 196/1/5
f 196/1/5 193/1/5 197/1/5
f 194/1/5 195/1/5 198/1/5
f 198/1/5 195/1/5 199/1/5
f 200/1/5 201/1/5 202/1/5
f 202/1/5 201/1/5 203/1/5
f 204/1/5 205/1/5 206/1/5
f 206/1/5 205/1/5 207/1/5
f 208/1/5 209/1/5 210/1/5
f 210/1/5 209/1/5 211/1/5
f 212/1/5 213/1/5 214/1/5
f 214/1/5 213/1/5 215/1/5
f 216/1/5 217/1/5 218/1/5
f 218/1/5 217/1/5 219/1/5
f 222/2/6 221/2/6 220/2/6
f 223/2/6 221/2/6 222/2/6
f 226/2/6 225/2/6 224/2/6
f 227/2/6 225/2/6 226/2/6
f 230/1/6 229/1/6 228/1/6
f 231/1/6 229/1/6 230/1/6
f 233/2/6 232/2/6 231/2/6
f 234/2/6 232/2/6 233/2/6
f 237/1/6 236/1/6 235/1/6
f 238/1/6 236/1/6 237/1/6
f 241/1/6 240/1/6 239/1/6
f 242/1/6 240/1/6 241/1/6
f 244/1/6 243/1/6 242/1/6
f 245/1/6 243/1/6 244/1/6
f 248/1/6 247/1/6 246/1/6
f 249/1/6 247/1/6 248/1/6
f 251/1/6 250/1/6 249/1/6
f 252/1/6 250/1/6 251/1/6
f 256/1/6 254/1/6 253/1/6
f 257/1/6 254/1/6 256/1/6
f 259/1/6 256/1/6 255/1/6
f 259/1/6 258/1/6 257/1/6
f 259/1/6 257/1/6 256/1/6
f 260/1/6 258/1/6 259/1/6
f 261/1/6 258/1/6 260/1/6
f 262/1/6 258/1/6 261/1/6
f 263/1/6 261/1/6 260/1/6
f 264/1/6 261/1/6 263/1/6
