# MagicaVoxel @ Ephtracy

# group
o legs-stand

# material
mtllib dad-8-legs-stand.mtl
usemtl palette

# normals
vn -1 0 0
vn 1 0 0
vn 0 0 1
vn 0 0 -1
vn 0 -1 0
vn 0 1 0

# texcoords
vt 0.853516 0.5
vt 0.869141 0.5
vt 0.888672 0.5

# verts
v -0.6 0 0.3
v -0.6 0 -0.3
v -0.6 0.1 0.3
v -0.6 0.1 0.2
v -0.6 0.2 0.2
v -0.6 0.2 0
v -0.6 0.2 -0.3
v -0.6 0.6 0
v -0.6 0.6 -0.1
v -0.6 0.8 0.1
v -0.6 0.8 -0.1
v -0.6 0.8 -0.3
v -0.6 0.8 -0.4
v -0.6 0.9 0.1
v -0.6 0.9 -0.4
v -0.5 0 -0.3
v -0.5 0 -0.4
v -0.5 0.1 0.3
v -0.5 0.1 0.2
v -0.5 0.2 0.3
v -0.5 0.2 0.2
v -0.5 0.2 0.1
v -0.5 0.2 0
v -0.5 0.2 -0.3
v -0.5 0.2 -0.4
v -0.5 0.6 0
v -0.5 0.6 -0.1
v -0.5 0.8 0.1
v -0.5 0.8 -0.1
v -0.5 0.8 -0.3
v -0.5 0.8 -0.4
v 0.1 0 0.3
v 0.1 0 -0.4
v 0.1 0.1 0.3
v 0.1 0.1 0.2
v 0.1 0.2 0.2
v 0.1 0.2 0.1
v 0.1 0.2 -0.4
v 0.1 0.6 -0.1
v 0.1 0.6 -0.3
v 0.1 0.8 0.1
v 0.1 0.8 -0.1
v 0.1 0.8 -0.3
v 0.1 0.8 -0.4
v 0.2 0.1 0.3
v 0.2 0.1 0.2
v 0.2 0.2 0.3
v 0.2 0.2 0.2
v -0.2 0.1 0.3
v -0.2 0.1 0.2
v -0.2 0.2 0.3
v -0.2 0.2 0.2
v -0.1 0 0.3
v -0.1 0 -0.4
v -0.1 0.1 0.3
v -0.1 0.1 0.2
v -0.1 0.2 0.2
v -0.1 0.2 0.1
v -0.1 0.2 -0.4
v -0.1 0.6 -0.1
v -0.1 0.6 -0.3
v -0.1 0.8 0.1
v -0.1 0.8 -0.1
v -0.1 0.8 -0.3
v -0.1 0.8 -0.4
v 0.5 0 -0.3
v 0.5 0 -0.4
v 0.5 0.1 0.3
v 0.5 0.1 0.2
v 0.5 0.2 0.3
v 0.5 0.2 0.2
v 0.5 0.2 0.1
v 0.5 0.2 0
v 0.5 0.2 -0.3
v 0.5 0.2 -0.4
v 0.5 0.6 0
v 0.5 0.6 -0.1
v 0.5 0.8 0.1
v 0.5 0.8 -0.1
v 0.5 0.8 -0.3
v 0.5 0.8 -0.4
v 0.6 0 0.3
v 0.6 0 -0.3
v 0.6 0.1 0.3
v 0.6 0.1 0.2
v 0.6 0.2 0.2
v 0.6 0.2 0
v 0.6 0.2 -0.3
v 0.6 0.6 0
v 0.6 0.6 -0.1
v 0.6 0.8 0.1
v 0.6 0.8 -0.1
v 0.6 0.8 -0.3
v 0.6 0.8 -0.4
v 0.6 0.9 0.1
v 0.6 0.9 -0.4
v -0.6 0 0.3
v -0.6 0.1 0.3
v -0.5 0.1 0.3
v -0.5 0.2 0.3
v -0.2 0.1 0.3
v -0.2 0.2 0.3
v -0.1 0 0.3
v -0.1 0.1 0.3
v 0.1 0 0.3
v 0.1 0.1 0.3
v 0.2 0.1 0.3
v 0.2 0.2 0.3
v 0.5 0.1 0.3
v 0.5 0.2 0.3
v 0.6 0 0.3
v 0.6 0.1 0.3
v -0.6 0.1 0.2
v -0.6 0.2 0.2
v -0.5 0.1 0.2
v -0.5 0.2 0.2
v -0.2 0.1 0.2
v -0.2 0.2 0.2
v -0.1 0.1 0.2
v -0.1 0.2 0.2
v 0.1 0.1 0.2
v 0.1 0.2 0.2
v 0.2 0.1 0.2
v 0.2 0.2 0.2
v 0.5 0.1 0.2
v 0.5 0.2 0.2
v 0.6 0.1 0.2
v 0.6 0.2 0.2
v -0.6 0.8 0.1
v -0.6 0.9 0.1
v -0.5 0.2 0.1
v -0.5 0.8 0.1
v -0.1 0.2 0.1
v -0.1 0.8 0.1
v 0.1 0.2 0.1
v 0.1 0.8 0.1
v 0.5 0.2 0.1
v 0.5 0.8 0.1
v 0.6 0.8 0.1
v 0.6 0.9 0.1
v -0.6 0.2 0
v -0.6 0.6 0
v -0.5 0.2 0
v -0.5 0.6 0
v 0.5 0.2 0
v 0.5 0.6 0
v 0.6 0.2 0
v 0.6 0.6 0
v -0.6 0.6 -0.1
v -0.6 0.8 -0.1
v -0.5 0.6 -0.1
v -0.5 0.8 -0.1
v -0.1 0.6 -0.1
v -0.1 0.8 -0.1
v 0.1 0.6 -0.1
v 0.1 0.8 -0.1
v 0.5 0.6 -0.1
v 0.5 0.8 -0.1
v 0.6 0.6 -0.1
v 0.6 0.8 -0.1
v -0.6 0 -0.3
v -0.6 0.2 -0.3
v -0.6 0.8 -0.3
v -0.5 0 -0.3
v -0.5 0.2 -0.3
v -0.5 0.8 -0.3
v -0.1 0.6 -0.3
v -0.1 0.8 -0.3
v 0.1 0.6 -0.3
v 0.1 0.8 -0.3
v 0.5 0 -0.3
v 0.5 0.2 -0.3
v 0.5 0.8 -0.3
v 0.6 0 -0.3
v 0.6 0.2 -0.3
v 0.6 0.8 -0.3
v -0.6 0.8 -0.4
v -0.6 0.9 -0.4
v -0.5 0 -0.4
v -0.5 0.2 -0.4
v -0.5 0.8 -0.4
v -0.1 0 -0.4
v -0.1 0.2 -0.4
v -0.1 0.8 -0.4
v 0.1 0 -0.4
v 0.1 0.2 -0.4
v 0.1 0.8 -0.4
v 0.5 0 -0.4
v 0.5 0.2 -0.4
v 0.5 0.8 -0.4
v 0.6 0.8 -0.4
v 0.6 0.9 -0.4
v -0.6 0 0.3
v -0.1 0 0.3
v 0.1 0 0.3
v 0.6 0 0.3
v -0.6 0 -0.3
v -0.5 0 -0.3
v 0.5 0 -0.3
v 0.6 0 -0.3
v -0.5 0 -0.4
v -0.1 0 -0.4
v 0.1 0 -0.4
v 0.5 0 -0.4
v -0.1 0.6 -0.1
v 0.1 0.6 -0.1
v -0.1 0.6 -0.3
v 0.1 0.6 -0.3
v -0.6 0.8 0.1
v -0.5 0.8 0.1
v -0.1 0.8 0.1
v 0.1 0.8 0.1
v 0.5 0.8 0.1
v 0.6 0.8 0.1
v -0.6 0.8 -0.1
v -0.5 0.8 -0.1
v -0.1 0.8 -0.1
v 0.1 0.8 -0.1
v 0.5 0.8 -0.1
v 0.6 0.8 -0.1
v -0.6 0.8 -0.3
v -0.5 0.8 -0.3
v -0.1 0.8 -0.3
v 0.1 0.8 -0.3
v 0.5 0.8 -0.3
v 0.6 0.8 -0.3
v -0.6 0.8 -0.4
v -0.5 0.8 -0.4
v -0.1 0.8 -0.4
v 0.1 0.8 -0.4
v 0.5 0.8 -0.4
v 0.6 0.8 -0.4
v -0.6 0.1 0.3
v -0.5 0.1 0.3
v -0.2 0.1 0.3
v -0.1 0.1 0.3
v 0.1 0.1 0.3
v 0.2 0.1 0.3
v 0.5 0.1 0.3
v 0.6 0.1 0.3
v -0.6 0.1 0.2
v -0.5 0.1 0.2
v -0.2 0.1 0.2
v -0.1 0.1 0.2
v 0.1 0.1 0.2
v 0.2 0.1 0.2
v 0.5 0.1 0.2
v 0.6 0.1 0.2
v -0.5 0.2 0.3
v -0.2 0.2 0.3
v 0.2 0.2 0.3
v 0.5 0.2 0.3
v -0.6 0.2 0.2
v -0.5 0.2 0.2
v -0.2 0.2 0.2
v -0.1 0.2 0.2
v 0.1 0.2 0.2
v 0.2 0.2 0.2
v 0.5 0.2 0.2
v 0.6 0.2 0.2
v -0.5 0.2 0.1
v -0.1 0.2 0.1
v 0.1 0.2 0.1
v 0.5 0.2 0.1
v -0.6 0.2 0
v -0.5 0.2 0
v 0.5 0.2 0
v 0.6 0.2 0
v -0.6 0.6 0
v -0.5 0.6 0
v 0.5 0.6 0
v 0.6 0.6 0
v -0.6 0.6 -0.1
v -0.5 0.6 -0.1
v 0.5 0.6 -0.1
v 0.6 0.6 -0.1
v -0.6 0.9 0.1
v 0.6 0.9 0.1
v -0.5 0.9 0
v -0.1 0.9 0
v 0.1 0.9 0
v 0.5 0.9 0
v -0.1 0.9 -0.1
v 0.1 0.9 -0.1
v -0.5 0.9 -0.3
v 0.5 0.9 -0.3
v -0.6 0.9 -0.4
v 0.6 0.9 -0.4

# faces
f 3/3/1 2/3/1 1/3/1
f 4/3/1 2/3/1 3/3/1
f 5/3/1 2/3/1 4/3/1
f 6/3/1 2/3/1 5/3/1
f 7/3/1 2/3/1 6/3/1
f 8/2/1 7/2/1 6/2/1
f 9/2/1 7/2/1 8/2/1
f 11/2/1 7/2/1 9/2/1
f 12/2/1 7/2/1 11/2/1
f 14/2/1 12/2/1 11/2/1
f 14/2/1 13/2/1 12/2/1
f 14/2/1 11/2/1 10/2/1
f 15/2/1 13/2/1 14/2/1
f 20/3/1 19/3/1 18/3/1
f 21/3/1 19/3/1 20/3/1
f 24/3/1 17/3/1 16/3/1
f 25/3/1 17/3/1 24/3/1
f 26/2/1 23/2/1 22/2/1
f 28/2/1 26/2/1 22/2/1
f 28/2/1 27/2/1 26/2/1
f 29/2/1 27/2/1 28/2/1
f 30/2/1 25/2/1 24/2/1
f 31/2/1 25/2/1 30/2/1
f 34/3/1 33/3/1 32/3/1
f 35/3/1 33/3/1 34/3/1
f 36/3/1 33/3/1 35/3/1
f 37/3/1 33/3/1 36/3/1
f 38/3/1 33/3/1 37/3/1
f 39/2/1 38/2/1 37/2/1
f 40/2/1 38/2/1 39/2/1
f 41/2/1 39/2/1 37/2/1
f 42/2/1 39/2/1 41/2/1
f 43/2/1 38/2/1 40/2/1
f 44/2/1 38/2/1 43/2/1
f 47/3/1 46/3/1 45/3/1
f 48/3/1 46/3/1 47/3/1
f 49/3/2 50/3/2 51/3/2
f 51/3/2 50/3/2 52/3/2
f 53/3/2 54/3/2 55/3/2
f 55/3/2 54/3/2 56/3/2
f 56/3/2 54/3/2 57/3/2
f 57/3/2 54/3/2 58/3/2
f 58/3/2 54/3/2 59/3/2
f 58/2/2 59/2/2 60/2/2
f 60/2/2 59/2/2 61/2/2
f 58/2/2 60/2/2 62/2/2
f 62/2/2 60/2/2 63/2/2
f 61/2/2 59/2/2 64/2/2
f 64/2/2 59/2/2 65/2/2
f 68/3/2 69/3/2 70/3/2
f 70/3/2 69/3/2 71/3/2
f 66/3/2 67/3/2 74/3/2
f 74/3/2 67/3/2 75/3/2
f 72/2/2 73/2/2 76/2/2
f 72/2/2 76/2/2 78/2/2
f 76/2/2 77/2/2 78/2/2
f 78/2/2 77/2/2 79/2/2
f 74/2/2 75/2/2 80/2/2
f 80/2/2 75/2/2 81/2/2
f 82/3/2 83/3/2 84/3/2
f 84/3/2 83/3/2 85/3/2
f 85/3/2 83/3/2 86/3/2
f 86/3/2 83/3/2 87/3/2
f 87/3/2 83/3/2 88/3/2
f 87/2/2 88/2/2 89/2/2
f 89/2/2 88/2/2 90/2/2
f 90/2/2 88/2/2 92/2/2
f 92/2/2 88/2/2 93/2/2
f 92/2/2 93/2/2 95/2/2
f 93/2/2 94/2/2 95/2/2
f 91/2/2 92/2/2 95/2/2
f 95/2/2 94/2/2 96/2/2
f 99/3/3 98/3/3 97/3/3
f 101/3/3 99/3/3 97/3/3
f 101/3/3 100/3/3 99/3/3
f 102/3/3 100/3/3 101/3/3
f 103/3/3 101/3/3 97/3/3
f 104/3/3 101/3/3 103/3/3
f 107/3/3 106/3/3 105/3/3
f 109/3/3 107/3/3 105/3/3
f 109/3/3 108/3/3 107/3/3
f 110/3/3 108/3/3 109/3/3
f 111/3/3 109/3/3 105/3/3
f 112/3/3 109/3/3 111/3/3
f 115/3/3 114/3/3 113/3/3
f 116/3/3 114/3/3 115/3/3
f 119/3/3 118/3/3 117/3/3
f 120/3/3 118/3/3 119/3/3
f 123/3/3 122/3/3 121/3/3
f 124/3/3 122/3/3 123/3/3
f 127/3/3 126/3/3 125/3/3
f 128/3/3 126/3/3 127/3/3
f 132/2/3 130/2/3 129/2/3
f 133/2/3 132/2/3 131/2/3
f 134/2/3 130/2/3 132/2/3
f 134/2/3 132/2/3 133/2/3
f 136/2/3 130/2/3 134/2/3
f 137/2/3 136/2/3 135/2/3
f 138/2/3 130/2/3 136/2/3
f 138/2/3 136/2/3 137/2/3
f 139/2/3 130/2/3 138/2/3
f 140/2/3 130/2/3 139/2/3
f 143/2/3 142/2/3 141/2/3
f 144/2/3 142/2/3 143/2/3
f 147/2/3 146/2/3 145/2/3
f 148/2/3 146/2/3 147/2/3
f 151/2/3 150/2/3 149/2/3
f 152/2/3 150/2/3 151/2/3
f 155/2/3 154/2/3 153/2/3
f 156/2/3 154/2/3 155/2/3
f 159/2/3 158/2/3 157/2/3
f 160/2/3 158/2/3 159/2/3
f 161/3/4 162/3/4 164/3/4
f 162/2/4 163/2/4 165/2/4
f 164/3/4 162/3/4 165/3/4
f 165/2/4 163/2/4 166/2/4
f 167/2/4 168/2/4 169/2/4
f 169/2/4 168/2/4 170/2/4
f 171/3/4 172/3/4 174/3/4
f 172/2/4 173/2/4 175/2/4
f 174/3/4 172/3/4 175/3/4
f 175/2/4 173/2/4 176/2/4
f 177/2/4 178/2/4 181/2/4
f 179/3/4 180/3/4 182/3/4
f 180/2/4 181/2/4 183/2/4
f 182/3/4 180/3/4 183/3/4
f 181/2/4 178/2/4 184/2/4
f 183/2/4 181/2/4 184/2/4
f 184/2/4 178/2/4 187/2/4
f 185/3/4 186/3/4 188/3/4
f 186/2/4 187/2/4 189/2/4
f 188/3/4 186/3/4 189/3/4
f 187/2/4 178/2/4 190/2/4
f 189/2/4 187/2/4 190/2/4
f 190/2/4 178/2/4 191/2/4
f 191/2/4 178/2/4 192/2/4
f 197/3/5 194/3/5 193/3/5
f 198/3/5 194/3/5 197/3/5
f 199/3/5 196/3/5 195/3/5
f 200/3/5 196/3/5 199/3/5
f 201/3/5 194/3/5 198/3/5
f 202/3/5 194/3/5 201/3/5
f 203/3/5 199/3/5 195/3/5
f 204/3/5 199/3/5 203/3/5
f 207/2/5 206/2/5 205/2/5
f 208/2/5 206/2/5 207/2/5
f 215/2/5 210/2/5 209/2/5
f 216/2/5 210/2/5 215/2/5
f 217/2/5 212/2/5 211/2/5
f 218/2/5 212/2/5 217/2/5
f 219/2/5 214/2/5 213/2/5
f 220/2/5 214/2/5 219/2/5
f 227/2/5 222/2/5 221/2/5
f 228/2/5 222/2/5 227/2/5
f 229/2/5 224/2/5 223/2/5
f 230/2/5 224/2/5 229/2/5
f 231/2/5 226/2/5 225/2/5
f 232/2/5 226/2/5 231/2/5
f 233/3/6 234/3/6 241/3/6
f 241/3/6 234/3/6 242/3/6
f 235/3/6 236/3/6 243/3/6
f 243/3/6 236/3/6 244/3/6
f 237/3/6 238/3/6 245/3/6
f 245/3/6 238/3/6 246/3/6
f 239/3/6 240/3/6 247/3/6
f 247/3/6 240/3/6 248/3/6
f 249/3/6 250/3/6 254/3/6
f 254/3/6 250/3/6 255/3/6
f 251/3/6 252/3/6 258/3/6
f 258/3/6 252/3/6 259/3/6
f 255/3/6 256/3/6 261/3/6
f 253/3/6 254/3/6 261/3/6
f 254/3/6 255/3/6 261/3/6
f 261/3/6 256/3/6 262/3/6
f 259/3/6 260/3/6 263/3/6
f 258/3/6 259/3/6 263/3/6
f 257/3/6 258/3/6 263/3/6
f 263/3/6 260/3/6 264/3/6
f 253/3/6 261/3/6 265/3/6
f 265/3/6 261/3/6 266/3/6
f 264/3/6 260/3/6 267/3/6
f 267/3/6 260/3/6 268/3/6
f 269/2/6 270/2/6 273/2/6
f 273/2/6 270/2/6 274/2/6
f 271/2/6 272/2/6 275/2/6
f 275/2/6 272/2/6 276/2/6
f 277/2/6 278/2/6 279/2/6
f 279/2/6 278/2/6 280/2/6
f 280/2/6 278/2/6 281/2/6
f 281/2/6 278/2/6 282/2/6
f 279/1/6 280/1/6 283/1/6
f 280/2/6 281/2/6 283/2/6
f 281/1/6 282/1/6 284/1/6
f 283/2/6 281/2/6 284/2/6
f 277/2/6 279/2/6 285/2/6
f 279/1/6 283/1/6 285/1/6
f 283/1/6 284/1/6 285/1/6
f 284/1/6 282/1/6 286/1/6
f 285/1/6 284/1/6 286/1/6
f 282/2/6 278/2/6 286/2/6
f 277/2/6 285/2/6 287/2/6
f 285/2/6 286/2/6 287/2/6
f 286/2/6 278/2/6 288/2/6
f 287/2/6 286/2/6 288/2/6
