# MagicaVoxel @ Ephtracy

# group
o 

# material
mtllib viridian-house-2-14.mtl
usemtl palette

# normals
vn 1 0 0
vn -1 0 0
vn 0 0 -1
vn 0 0 1
vn 0 -1 0
vn 0 1 0

# texcoords
vt 0.876953 0.5
vt 0.884766 0.5

# verts
v 2.4 0 -10.8
v 2.4 0 -7.2
v 2.4 4.8 -10.8
v 2.4 4.8 -7.2
v -1.6 0 -11.1
v -1.6 0 -10.8
v -1.6 4.8 -11.1
v -1.6 4.8 -10.8
v -1.9 0 -10.5
v -1.9 0 -7.2
v -1.9 4.8 -10.5
v -1.9 4.8 -7.2
v -2.2 0 -11.1
v -2.2 0 -10.5
v -2.2 4.8 -11.1
v -2.2 4.8 -10.5
v -1.6 0 -11.1
v -1.6 4.8 -11.1
v -2.2 0 -11.1
v -2.2 4.8 -11.1
v 2.4 0 -10.8
v 2.4 4.8 -10.8
v -1.6 0 -10.8
v -1.6 4.8 -10.8
v -1.9 0 -10.5
v -1.9 4.8 -10.5
v -2.2 0 -10.5
v -2.2 4.8 -10.5
v 2.4 0 -7.2
v 2.4 4.8 -7.2
v -1.9 0 -7.2
v -1.9 4.8 -7.2
v -1.6 0 -11.1
v -2.2 0 -11.1
v 2.4 0 -10.8
v -1.6 0 -10.8
v -1.9 0 -10.8
v -1.9 0 -10.5
v -2.2 0 -10.5
v 2.4 0 -7.2
v -1.9 0 -7.2
v -1.6 4.8 -11.1
v -2.2 4.8 -11.1
v 2.4 4.8 -10.8
v -1.6 4.8 -10.8
v -1.9 4.8 -10.8
v -1.9 4.8 -10.5
v -2.2 4.8 -10.5
v 2.4 4.8 -7.2
v -1.9 4.8 -7.2

# faces
f 3/1/1 2/1/1 1/1/1
f 4/1/1 2/1/1 3/1/1
f 7/2/1 6/2/1 5/2/1
f 8/2/1 6/2/1 7/2/1
f 9/1/2 10/1/2 11/1/2
f 11/1/2 10/1/2 12/1/2
f 13/2/2 14/2/2 15/2/2
f 15/2/2 14/2/2 16/2/2
f 19/2/3 18/2/3 17/2/3
f 20/2/3 18/2/3 19/2/3
f 23/1/3 22/1/3 21/1/3
f 24/1/3 22/1/3 23/1/3
f 25/2/4 26/2/4 27/2/4
f 27/2/4 26/2/4 28/2/4
f 29/1/4 30/1/4 31/1/4
f 31/1/4 30/1/4 32/1/4
f 36/2/5 34/2/5 33/2/5
f 37/2/5 34/2/5 36/2/5
f 38/1/5 36/1/5 35/1/5
f 38/2/5 34/2/5 37/2/5
f 38/1/5 37/1/5 36/1/5
f 39/2/5 34/2/5 38/2/5
f 40/1/5 38/1/5 35/1/5
f 41/1/5 38/1/5 40/1/5
f 42/2/6 43/2/6 45/2/6
f 45/2/6 43/2/6 46/2/6
f 44/1/6 45/1/6 47/1/6
f 46/2/6 43/2/6 47/2/6
f 45/1/6 46/1/6 47/1/6
f 47/2/6 43/2/6 48/2/6
f 44/1/6 47/1/6 49/1/6
f 49/1/6 47/1/6 50/1/6
