# MagicaVoxel @ Ephtracy

# group
o 

# material
mtllib viridian-house-2-1.mtl
usemtl palette

# normals
vn 0 0 -1
vn 0 0 1
vn 1 0 0
vn -1 0 0
vn 0 -1 0
vn 0 1 0

# texcoords
vt 0.876953 0.5
vt 0.958984 0.5

# verts
v 16.3 0 -7.2
v 12.7 0 -7.2
v 16.3 4.8 -7.2
v 12.7 4.8 -7.2
v 16.3 2.1 -3.2
v 16 2.1 -3.2
v 16.3 4.5 -3.2
v 16 4.5 -3.2
v 16.3 2.1 -6.4
v 16 2.1 -6.4
v 16.3 4.5 -6.4
v 16 4.5 -6.4
v 16.3 0 -2.4
v 12.7 0 -2.4
v 16.3 4.8 -2.4
v 12.7 4.8 -2.4
v 16.3 0 -7.2
v 16.3 4.8 -7.2
v 16.3 2.1 -6.4
v 16.3 4.5 -6.4
v 16.3 2.1 -3.2
v 16.3 4.5 -3.2
v 16.3 0 -2.4
v 16.3 4.8 -2.4
v 16 2.1 -6.4
v 16 4.5 -6.4
v 16 2.1 -3.2
v 16 4.5 -3.2
v 12.7 0 -7.2
v 12.7 4.8 -7.2
v 12.7 0 -2.4
v 12.7 4.8 -2.4
v 16.3 0 -7.2
v 16.3 0 -2.4
v 12.7 0 -7.2
v 12.7 0 -2.4
v 16.3 4.5 -6.4
v 16.3 4.5 -3.2
v 16 4.5 -6.4
v 16 4.5 -3.2
v 16.3 2.1 -6.4
v 16.3 2.1 -3.2
v 16 2.1 -6.4
v 16 2.1 -3.2
v 16.3 4.8 -7.2
v 16.3 4.8 -2.4
v 12.7 4.8 -7.2
v 12.7 4.8 -2.4

# faces
f 1/1/1 2/1/1 3/1/1
f 3/1/1 2/1/1 4/1/1
f 5/1/1 6/1/1 7/1/1
f 7/1/1 6/1/1 8/1/1
f 11/1/2 10/1/2 9/1/2
f 12/1/2 10/1/2 11/1/2
f 15/1/2 14/1/2 13/1/2
f 16/1/2 14/1/2 15/1/2
f 17/1/3 18/1/3 19/1/3
f 19/1/3 18/1/3 20/1/3
f 17/1/3 19/1/3 21/1/3
f 20/1/3 18/1/3 22/1/3
f 17/1/3 21/1/3 23/1/3
f 21/1/3 22/1/3 23/1/3
f 22/1/3 18/1/3 24/1/3
f 23/1/3 22/1/3 24/1/3
f 25/2/3 26/2/3 27/2/3
f 27/2/3 26/2/3 28/2/3
f 31/1/4 30/1/4 29/1/4
f 32/1/4 30/1/4 31/1/4
f 33/1/5 34/1/5 35/1/5
f 35/1/5 34/1/5 36/1/5
f 37/1/5 38/1/5 39/1/5
f 39/1/5 38/1/5 40/1/5
f 43/1/6 42/1/6 41/1/6
f 44/1/6 42/1/6 43/1/6
f 47/1/6 46/1/6 45/1/6
f 48/1/6 46/1/6 47/1/6
