# MagicaVoxel @ Ephtracy

# group
o 

# material
mtllib police-officer-1.mtl
usemtl palette

# normals
vn 1 0 0
vn -1 0 0
vn 0 0 1
vn 0 0 -1
vn 0 -1 0
vn 0 1 0

# texcoords
vt 0.845703 0.5
vt 0.884766 0.5
vt 0.982422 0.5

# verts
v 0.8 0.8 -0.1
v 0.8 0.8 -0.3
v 0.8 0.9 0
v 0.8 0.9 -0.1
v 0.8 1.1 0
v 0.8 1.1 -0.1
v 0.8 1.2 -0.1
v 0.8 1.2 -0.3
v 0.8 1.3 -0.1
v 0.8 1.3 -0.3
v 0.8 1.6 -0.3
v 0.8 1.6 -0.4
v 0.8 1.8 -0.1
v 0.8 1.8 -0.4
v 0.7 1.5 -0.3
v 0.7 1.5 -0.4
v 0.7 1.6 -0.3
v 0.7 1.6 -0.4
v 0.7 1.8 -0.1
v 0.7 1.8 -0.4
v 0.7 1.9 -0.1
v 0.7 1.9 -0.4
v 0.6 0.8 -0.1
v 0.6 0.8 -0.3
v 0.6 0.9 0
v 0.6 0.9 -0.1
v 0.6 1.1 0
v 0.6 1.1 -0.1
v 0.6 1.2 -0.1
v 0.6 1.2 -0.3
v 0.6 1.3 -0.1
v 0.6 1.3 -0.3
v 0.6 1.5 -0.1
v 0.6 1.5 -0.3
v 0.5 1.5 -0.1
v 0.5 1.5 -0.4
v 0.5 1.9 -0.1
v 0.5 1.9 -0.4
v 0.8 0.9 0
v 0.8 1.1 0
v 0.6 0.9 0
v 0.6 1.1 0
v 0.8 0.8 -0.1
v 0.8 0.9 -0.1
v 0.8 1.1 -0.1
v 0.8 1.2 -0.1
v 0.8 1.3 -0.1
v 0.8 1.8 -0.1
v 0.7 1.8 -0.1
v 0.7 1.9 -0.1
v 0.6 0.8 -0.1
v 0.6 0.9 -0.1
v 0.6 1.1 -0.1
v 0.6 1.2 -0.1
v 0.6 1.3 -0.1
v 0.6 1.5 -0.1
v 0.5 1.5 -0.1
v 0.5 1.9 -0.1
v 0.8 0.8 -0.3
v 0.8 1.2 -0.3
v 0.8 1.3 -0.3
v 0.8 1.6 -0.3
v 0.7 1.5 -0.3
v 0.7 1.6 -0.3
v 0.6 0.8 -0.3
v 0.6 1.2 -0.3
v 0.6 1.3 -0.3
v 0.6 1.5 -0.3
v 0.8 1.6 -0.4
v 0.8 1.8 -0.4
v 0.7 1.5 -0.4
v 0.7 1.6 -0.4
v 0.7 1.8 -0.4
v 0.7 1.9 -0.4
v 0.5 1.5 -0.4
v 0.5 1.9 -0.4
v 0.8 0.8 -0.1
v 0.6 0.8 -0.1
v 0.8 0.8 -0.3
v 0.6 0.8 -0.3
v 0.8 0.9 0
v 0.6 0.9 0
v 0.8 0.9 -0.1
v 0.6 0.9 -0.1
v 0.6 1.5 -0.1
v 0.5 1.5 -0.1
v 0.7 1.5 -0.3
v 0.6 1.5 -0.3
v 0.7 1.5 -0.4
v 0.5 1.5 -0.4
v 0.8 1.6 -0.3
v 0.7 1.6 -0.3
v 0.8 1.6 -0.4
v 0.7 1.6 -0.4
v 0.8 1.1 0
v 0.6 1.1 0
v 0.8 1.1 -0.1
v 0.6 1.1 -0.1
v 0.8 1.8 -0.1
v 0.7 1.8 -0.1
v 0.8 1.8 -0.4
v 0.7 1.8 -0.4
v 0.7 1.9 -0.1
v 0.5 1.9 -0.1
v 0.7 1.9 -0.4
v 0.5 1.9 -0.4

# faces
f 1/3/1 2/3/1 4/3/1
f 3/3/1 4/3/1 5/3/1
f 4/3/1 2/3/1 6/3/1
f 5/3/1 4/3/1 6/3/1
f 6/3/1 2/3/1 7/3/1
f 7/3/1 2/3/1 8/3/1
f 7/1/1 8/1/1 9/1/1
f 9/1/1 8/1/1 10/1/1
f 9/2/1 10/2/1 11/2/1
f 9/2/1 11/2/1 13/2/1
f 11/2/1 12/2/1 13/2/1
f 13/2/1 12/2/1 14/2/1
f 15/2/1 16/2/1 17/2/1
f 17/2/1 16/2/1 18/2/1
f 19/2/1 20/2/1 21/2/1
f 21/2/1 20/2/1 22/2/1
f 26/3/2 24/3/2 23/3/2
f 27/3/2 26/3/2 25/3/2
f 28/3/2 24/3/2 26/3/2
f 28/3/2 26/3/2 27/3/2
f 29/3/2 24/3/2 28/3/2
f 30/3/2 24/3/2 29/3/2
f 31/1/2 30/1/2 29/1/2
f 32/1/2 30/1/2 31/1/2
f 33/2/2 32/2/2 31/2/2
f 34/2/2 32/2/2 33/2/2
f 37/2/2 36/2/2 35/2/2
f 38/2/2 36/2/2 37/2/2
f 39/3/3 40/3/3 41/3/3
f 41/3/3 40/3/3 42/3/3
f 47/2/3 48/2/3 49/2/3
f 43/3/3 44/3/3 51/3/3
f 51/3/3 44/3/3 52/3/3
f 45/3/3 46/3/3 53/3/3
f 46/1/3 47/1/3 54/1/3
f 53/3/3 46/3/3 54/3/3
f 49/2/3 50/2/3 55/2/3
f 54/1/3 47/1/3 55/1/3
f 47/2/3 49/2/3 55/2/3
f 55/2/3 50/2/3 56/2/3
f 56/2/3 50/2/3 57/2/3
f 57/2/3 50/2/3 58/2/3
f 63/2/4 62/2/4 61/2/4
f 64/2/4 62/2/4 63/2/4
f 65/3/4 60/3/4 59/3/4
f 66/1/4 61/1/4 60/1/4
f 66/3/4 60/3/4 65/3/4
f 67/2/4 63/2/4 61/2/4
f 67/1/4 61/1/4 66/1/4
f 68/2/4 63/2/4 67/2/4
f 72/2/4 70/2/4 69/2/4
f 73/2/4 70/2/4 72/2/4
f 75/2/4 72/2/4 71/2/4
f 75/2/4 74/2/4 73/2/4
f 75/2/4 73/2/4 72/2/4
f 76/2/4 74/2/4 75/2/4
f 77/3/5 78/3/5 79/3/5
f 79/3/5 78/3/5 80/3/5
f 81/3/5 82/3/5 83/3/5
f 83/3/5 82/3/5 84/3/5
f 85/2/5 86/2/5 88/2/5
f 87/2/5 88/2/5 89/2/5
f 88/2/5 86/2/5 90/2/5
f 89/2/5 88/2/5 90/2/5
f 91/2/5 92/2/5 93/2/5
f 93/2/5 92/2/5 94/2/5
f 97/3/6 96/3/6 95/3/6
f 98/3/6 96/3/6 97/3/6
f 101/2/6 100/2/6 99/2/6
f 102/2/6 100/2/6 101/2/6
f 105/2/6 104/2/6 103/2/6
f 106/2/6 104/2/6 105/2/6
