# MagicaVoxel @ Ephtracy

# group
o 

# material
mtllib police-officer-3.mtl
usemtl palette

# normals
vn -1 0 0
vn 1 0 0
vn 0 0 1
vn 0 0 -1
vn 0 -1 0
vn 0 1 0

# texcoords
vt 0.845703 0.5
vt 0.884766 0.5
vt 0.982422 0.5

# verts
v 0.5 1.5 -0.1
v 0.5 1.5 -0.3
v 0.5 1.6 -0.3
v 0.5 1.6 -0.5
v 0.5 1.9 -0.1
v 0.5 1.9 -0.5
v 0.8 1.4 -0.1
v 0.8 1.4 -0.3
v 0.8 1.5 -0.1
v 0.8 1.5 -0.3
v 1 1.3 -0.1
v 1 1.3 -0.3
v 1 1.4 -0.1
v 1 1.4 -0.3
v 1.1 1.2 -0.1
v 1.1 1.2 -0.3
v 1.1 1.3 -0.1
v 1.1 1.3 -0.3
v 0.6 1.6 -0.3
v 0.6 1.6 -0.5
v 0.6 1.9 -0.3
v 0.6 1.9 -0.5
v 0.8 1.8 -0.1
v 0.8 1.8 -0.3
v 0.8 1.9 -0.1
v 0.8 1.9 -0.3
v 1 1.7 -0.1
v 1 1.7 -0.3
v 1 1.8 -0.1
v 1 1.8 -0.3
v 1.1 1.6 -0.1
v 1.1 1.6 -0.3
v 1.1 1.7 -0.1
v 1.1 1.7 -0.3
v 1.3 1.5 -0.1
v 1.3 1.5 -0.3
v 1.3 1.6 -0.1
v 1.3 1.6 -0.3
v 1.4 1.2 -0.1
v 1.4 1.2 -0.3
v 1.4 1.5 -0.1
v 1.4 1.5 -0.3
v 0.5 1.5 -0.1
v 0.5 1.9 -0.1
v 0.8 1.4 -0.1
v 0.8 1.5 -0.1
v 0.8 1.6 -0.1
v 0.8 1.8 -0.1
v 0.8 1.9 -0.1
v 0.9 1.4 -0.1
v 0.9 1.6 -0.1
v 0.9 1.7 -0.1
v 1 1.3 -0.1
v 1 1.4 -0.1
v 1 1.6 -0.1
v 1 1.7 -0.1
v 1 1.8 -0.1
v 1.1 1.2 -0.1
v 1.1 1.3 -0.1
v 1.1 1.6 -0.1
v 1.1 1.7 -0.1
v 1.3 1.5 -0.1
v 1.3 1.6 -0.1
v 1.4 1.2 -0.1
v 1.4 1.5 -0.1
v 0.5 1.5 -0.3
v 0.5 1.6 -0.3
v 0.6 1.6 -0.3
v 0.6 1.9 -0.3
v 0.8 1.4 -0.3
v 0.8 1.5 -0.3
v 0.8 1.6 -0.3
v 0.8 1.8 -0.3
v 0.8 1.9 -0.3
v 0.9 1.4 -0.3
v 0.9 1.6 -0.3
v 0.9 1.7 -0.3
v 1 1.3 -0.3
v 1 1.4 -0.3
v 1 1.6 -0.3
v 1 1.7 -0.3
v 1 1.8 -0.3
v 1.1 1.2 -0.3
v 1.1 1.3 -0.3
v 1.1 1.6 -0.3
v 1.1 1.7 -0.3
v 1.3 1.5 -0.3
v 1.3 1.6 -0.3
v 1.4 1.2 -0.3
v 1.4 1.5 -0.3
v 0.5 1.6 -0.5
v 0.5 1.9 -0.5
v 0.6 1.6 -0.5
v 0.6 1.9 -0.5
v 1.1 1.2 -0.1
v 1.4 1.2 -0.1
v 1.1 1.2 -0.3
v 1.4 1.2 -0.3
v 1 1.3 -0.1
v 1.1 1.3 -0.1
v 1 1.3 -0.3
v 1.1 1.3 -0.3
v 0.8 1.4 -0.1
v 0.9 1.4 -0.1
v 1 1.4 -0.1
v 0.8 1.4 -0.3
v 0.9 1.4 -0.3
v 1 1.4 -0.3
v 0.5 1.5 -0.1
v 0.8 1.5 -0.1
v 0.5 1.5 -0.3
v 0.8 1.5 -0.3
v 0.5 1.6 -0.3
v 0.6 1.6 -0.3
v 0.5 1.6 -0.5
v 0.6 1.6 -0.5
v 1.3 1.5 -0.1
v 1.4 1.5 -0.1
v 1.3 1.5 -0.3
v 1.4 1.5 -0.3
v 1.1 1.6 -0.1
v 1.3 1.6 -0.1
v 1.1 1.6 -0.3
v 1.3 1.6 -0.3
v 1 1.7 -0.1
v 1.1 1.7 -0.1
v 1 1.7 -0.3
v 1.1 1.7 -0.3
v 0.8 1.8 -0.1
v 1 1.8 -0.1
v 0.8 1.8 -0.3
v 1 1.8 -0.3
v 0.5 1.9 -0.1
v 0.8 1.9 -0.1
v 0.6 1.9 -0.3
v 0.8 1.9 -0.3
v 0.5 1.9 -0.5
v 0.6 1.9 -0.5

# faces
f 3/2/1 2/2/1 1/2/1
f 5/2/1 3/2/1 1/2/1
f 5/2/1 4/2/1 3/2/1
f 6/2/1 4/2/1 5/2/1
f 9/1/1 8/1/1 7/1/1
f 10/1/1 8/1/1 9/1/1
f 13/3/1 12/3/1 11/3/1
f 14/3/1 12/3/1 13/3/1
f 17/3/1 16/3/1 15/3/1
f 18/3/1 16/3/1 17/3/1
f 19/2/2 20/2/2 21/2/2
f 21/2/2 20/2/2 22/2/2
f 23/2/2 24/2/2 25/2/2
f 25/2/2 24/2/2 26/2/2
f 27/2/2 28/2/2 29/2/2
f 29/2/2 28/2/2 30/2/2
f 31/3/2 32/3/2 33/3/2
f 33/3/2 32/3/2 34/3/2
f 35/3/2 36/3/2 37/3/2
f 37/3/2 36/3/2 38/3/2
f 39/3/2 40/3/2 41/3/2
f 41/3/2 40/3/2 42/3/2
f 46/2/3 44/2/3 43/2/3
f 47/2/3 44/2/3 46/2/3
f 48/2/3 44/2/3 47/2/3
f 49/2/3 44/2/3 48/2/3
f 50/1/3 46/1/3 45/1/3
f 50/1/3 47/1/3 46/1/3
f 51/2/3 48/2/3 47/2/3
f 51/1/3 47/1/3 50/1/3
f 52/2/3 48/2/3 51/2/3
f 54/3/3 51/3/3 50/3/3
f 55/1/3 52/1/3 51/1/3
f 55/3/3 51/3/3 54/3/3
f 56/2/3 48/2/3 52/2/3
f 56/1/3 52/1/3 55/1/3
f 57/2/3 48/2/3 56/2/3
f 59/3/3 55/3/3 54/3/3
f 59/3/3 54/3/3 53/3/3
f 59/3/3 56/3/3 55/3/3
f 60/3/3 56/3/3 59/3/3
f 61/3/3 56/3/3 60/3/3
f 62/3/3 59/3/3 58/3/3
f 62/3/3 60/3/3 59/3/3
f 63/3/3 60/3/3 62/3/3
f 64/3/3 62/3/3 58/3/3
f 65/3/3 62/3/3 64/3/3
f 66/2/4 67/2/4 68/2/4
f 66/2/4 68/2/4 71/2/4
f 68/2/4 69/2/4 71/2/4
f 71/2/4 69/2/4 72/2/4
f 72/2/4 69/2/4 73/2/4
f 73/2/4 69/2/4 74/2/4
f 70/1/4 71/1/4 75/1/4
f 71/1/4 72/1/4 75/1/4
f 72/2/4 73/2/4 76/2/4
f 75/1/4 72/1/4 76/1/4
f 76/2/4 73/2/4 77/2/4
f 75/3/4 76/3/4 79/3/4
f 76/1/4 77/1/4 80/1/4
f 79/3/4 76/3/4 80/3/4
f 77/2/4 73/2/4 81/2/4
f 80/1/4 77/1/4 81/1/4
f 81/2/4 73/2/4 82/2/4
f 79/3/4 80/3/4 84/3/4
f 78/3/4 79/3/4 84/3/4
f 80/3/4 81/3/4 84/3/4
f 84/3/4 81/3/4 85/3/4
f 85/3/4 81/3/4 86/3/4
f 83/3/4 84/3/4 87/3/4
f 84/3/4 85/3/4 87/3/4
f 87/3/4 85/3/4 88/3/4
f 83/3/4 87/3/4 89/3/4
f 89/3/4 87/3/4 90/3/4
f 91/2/4 92/2/4 93/2/4
f 93/2/4 92/2/4 94/2/4
f 97/3/5 96/3/5 95/3/5
f 98/3/5 96/3/5 97/3/5
f 101/3/5 100/3/5 99/3/5
f 102/3/5 100/3/5 101/3/5
f 106/1/5 104/1/5 103/1/5
f 107/3/5 105/3/5 104/3/5
f 107/1/5 104/1/5 106/1/5
f 108/3/5 105/3/5 107/3/5
f 111/2/5 110/2/5 109/2/5
f 112/2/5 110/2/5 111/2/5
f 115/2/5 114/2/5 113/2/5
f 116/2/5 114/2/5 115/2/5
f 117/3/6 118/3/6 119/3/6
f 119/3/6 118/3/6 120/3/6
f 121/3/6 122/3/6 123/3/6
f 123/3/6 122/3/6 124/3/6
f 125/3/6 126/3/6 127/3/6
f 127/3/6 126/3/6 128/3/6
f 129/2/6 130/2/6 131/2/6
f 131/2/6 130/2/6 132/2/6
f 133/2/6 134/2/6 135/2/6
f 135/2/6 134/2/6 136/2/6
f 133/2/6 135/2/6 137/2/6
f 137/2/6 135/2/6 138/2/6
