# MagicaVoxel @ Ephtracy

# group
o 

# material
mtllib league-admin-5.mtl
usemtl palette

# normals
vn -1 0 0
vn 1 0 0
vn 0 0 1
vn 0 0 -1
vn 0 -1 0
vn 0 1 0

# texcoords
vt 0.884766 0.5
vt 0.982422 0.5

# verts
v 0.7 1.5 -0.1
v 0.7 1.5 -0.3
v 0.7 2 -0.1
v 0.7 2 -0.3
v 0.8 1.4 -0.1
v 0.8 1.4 -0.3
v 0.8 1.5 -0.1
v 0.8 1.5 -0.3
v 1 1.3 -0.1
v 1 1.3 -0.3
v 1 1.4 -0.1
v 1 1.4 -0.2
v 1 1.4 -0.3
v 1.1 1.2 -0.1
v 1.1 1.2 -0.3
v 1.1 1.3 -0.1
v 1.1 1.3 -0.3
v 0.8 1.9 -0.1
v 0.8 1.9 -0.3
v 0.8 2 -0.1
v 0.8 2 -0.3
v 0.9 1.8 -0.1
v 0.9 1.8 -0.3
v 0.9 1.9 -0.1
v 0.9 1.9 -0.3
v 1 1.7 -0.1
v 1 1.7 -0.3
v 1 1.8 -0.1
v 1 1.8 -0.3
v 1.1 1.6 -0.1
v 1.1 1.6 -0.3
v 1.1 1.7 -0.1
v 1.1 1.7 -0.3
v 1.3 1.4 -0.1
v 1.3 1.4 -0.3
v 1.3 1.6 -0.1
v 1.3 1.6 -0.3
v 1.4 1.2 -0.1
v 1.4 1.2 -0.3
v 1.4 1.4 -0.1
v 1.4 1.4 -0.3
v 0.7 1.5 -0.1
v 0.7 2 -0.1
v 0.8 1.4 -0.1
v 0.8 1.5 -0.1
v 0.8 1.9 -0.1
v 0.8 2 -0.1
v 0.9 1.8 -0.1
v 0.9 1.9 -0.1
v 1 1.3 -0.1
v 1 1.4 -0.1
v 1 1.5 -0.1
v 1 1.7 -0.1
v 1 1.8 -0.1
v 1.1 1.2 -0.1
v 1.1 1.3 -0.1
v 1.1 1.5 -0.1
v 1.1 1.6 -0.1
v 1.1 1.7 -0.1
v 1.3 1.4 -0.1
v 1.3 1.6 -0.1
v 1.4 1.2 -0.1
v 1.4 1.4 -0.1
v 0.7 1.5 -0.3
v 0.7 2 -0.3
v 0.8 1.4 -0.3
v 0.8 1.5 -0.3
v 0.8 1.9 -0.3
v 0.8 2 -0.3
v 0.9 1.4 -0.3
v 0.9 1.5 -0.3
v 0.9 1.8 -0.3
v 0.9 1.9 -0.3
v 1 1.3 -0.3
v 1 1.4 -0.3
v 1 1.5 -0.3
v 1 1.6 -0.3
v 1 1.7 -0.3
v 1 1.8 -0.3
v 1.1 1.2 -0.3
v 1.1 1.3 -0.3
v 1.1 1.6 -0.3
v 1.1 1.7 -0.3
v 1.3 1.4 -0.3
v 1.3 1.6 -0.3
v 1.4 1.2 -0.3
v 1.4 1.4 -0.3
v 1.1 1.2 -0.1
v 1.4 1.2 -0.1
v 1.1 1.2 -0.3
v 1.4 1.2 -0.3
v 1 1.3 -0.1
v 1.1 1.3 -0.1
v 1 1.3 -0.3
v 1.1 1.3 -0.3
v 0.8 1.4 -0.1
v 1 1.4 -0.1
v 0.9 1.4 -0.2
v 1 1.4 -0.2
v 0.8 1.4 -0.3
v 0.9 1.4 -0.3
v 1 1.4 -0.3
v 0.7 1.5 -0.1
v 0.8 1.5 -0.1
v 0.7 1.5 -0.3
v 0.8 1.5 -0.3
v 1.3 1.4 -0.1
v 1.4 1.4 -0.1
v 1.3 1.4 -0.3
v 1.4 1.4 -0.3
v 1.1 1.6 -0.1
v 1.3 1.6 -0.1
v 1.1 1.6 -0.3
v 1.3 1.6 -0.3
v 1 1.7 -0.1
v 1.1 1.7 -0.1
v 1 1.7 -0.3
v 1.1 1.7 -0.3
v 0.9 1.8 -0.1
v 1 1.8 -0.1
v 0.9 1.8 -0.3
v 1 1.8 -0.3
v 0.8 1.9 -0.1
v 0.9 1.9 -0.1
v 0.8 1.9 -0.3
v 0.9 1.9 -0.3
v 0.7 2 -0.1
v 0.8 2 -0.1
v 0.7 2 -0.3
v 0.8 2 -0.3

# faces
f 3/1/1 2/1/1 1/1/1
f 4/1/1 2/1/1 3/1/1
f 7/1/1 6/1/1 5/1/1
f 8/1/1 6/1/1 7/1/1
f 11/2/1 10/2/1 9/2/1
f 12/2/1 10/2/1 11/2/1
f 13/2/1 10/2/1 12/2/1
f 16/2/1 15/2/1 14/2/1
f 17/2/1 15/2/1 16/2/1
f 18/1/2 19/1/2 20/1/2
f 20/1/2 19/1/2 21/1/2
f 22/1/2 23/1/2 24/1/2
f 24/1/2 23/1/2 25/1/2
f 26/1/2 27/1/2 28/1/2
f 28/1/2 27/1/2 29/1/2
f 30/1/2 31/1/2 32/1/2
f 32/1/2 31/1/2 33/1/2
f 34/2/2 35/2/2 36/2/2
f 36/2/2 35/2/2 37/2/2
f 38/2/2 39/2/2 40/2/2
f 40/2/2 39/2/2 41/2/2
f 45/1/3 43/1/3 42/1/3
f 46/1/3 43/1/3 45/1/3
f 47/1/3 43/1/3 46/1/3
f 48/1/3 45/1/3 44/1/3
f 48/1/3 46/1/3 45/1/3
f 49/1/3 46/1/3 48/1/3
f 51/1/3 48/1/3 44/1/3
f 52/1/3 48/1/3 51/1/3
f 53/1/3 48/1/3 52/1/3
f 54/1/3 48/1/3 53/1/3
f 56/2/3 51/2/3 50/2/3
f 56/2/3 52/2/3 51/2/3
f 57/1/3 53/1/3 52/1/3
f 57/2/3 52/2/3 56/2/3
f 58/1/3 53/1/3 57/1/3
f 59/1/3 53/1/3 58/1/3
f 60/2/3 56/2/3 55/2/3
f 60/2/3 57/2/3 56/2/3
f 60/2/3 58/2/3 57/2/3
f 61/2/3 58/2/3 60/2/3
f 62/2/3 60/2/3 55/2/3
f 63/2/3 60/2/3 62/2/3
f 64/1/4 65/1/4 67/1/4
f 67/1/4 65/1/4 68/1/4
f 68/1/4 65/1/4 69/1/4
f 66/1/4 67/1/4 70/1/4
f 67/1/4 68/1/4 70/1/4
f 70/1/4 68/1/4 71/1/4
f 71/1/4 68/1/4 72/1/4
f 72/1/4 68/1/4 73/1/4
f 70/2/4 71/2/4 75/2/4
f 71/1/4 72/1/4 76/1/4
f 75/2/4 71/2/4 76/2/4
f 76/1/4 72/1/4 77/1/4
f 77/1/4 72/1/4 78/1/4
f 78/1/4 72/1/4 79/1/4
f 74/2/4 75/2/4 81/2/4
f 75/2/4 76/2/4 81/2/4
f 76/2/4 77/2/4 81/2/4
f 77/1/4 78/1/4 82/1/4
f 81/2/4 77/2/4 82/2/4
f 82/1/4 78/1/4 83/1/4
f 80/2/4 81/2/4 84/2/4
f 81/2/4 82/2/4 84/2/4
f 84/2/4 82/2/4 85/2/4
f 80/2/4 84/2/4 86/2/4
f 86/2/4 84/2/4 87/2/4
f 90/2/5 89/2/5 88/2/5
f 91/2/5 89/2/5 90/2/5
f 94/2/5 93/2/5 92/2/5
f 95/2/5 93/2/5 94/2/5
f 98/1/5 97/1/5 96/1/5
f 99/1/5 97/1/5 98/1/5
f 100/1/5 98/1/5 96/1/5
f 101/2/5 99/2/5 98/2/5
f 101/1/5 98/1/5 100/1/5
f 102/2/5 99/2/5 101/2/5
f 105/1/5 104/1/5 103/1/5
f 106/1/5 104/1/5 105/1/5
f 107/2/6 108/2/6 109/2/6
f 109/2/6 108/2/6 110/2/6
f 111/2/6 112/2/6 113/2/6
f 113/2/6 112/2/6 114/2/6
f 115/1/6 116/1/6 117/1/6
f 117/1/6 116/1/6 118/1/6
f 119/1/6 120/1/6 121/1/6
f 121/1/6 120/1/6 122/1/6
f 123/1/6 124/1/6 125/1/6
f 125/1/6 124/1/6 126/1/6
f 127/1/6 128/1/6 129/1/6
f 129/1/6 128/1/6 130/1/6
