# MagicaVoxel @ Ephtracy

# group
o 

# material
mtllib professor-1.mtl
usemtl palette

# normals
vn -1 0 0
vn 1 0 0
vn 0 0 1
vn 0 0 -1
vn 0 -1 0
vn 0 1 0

# texcoords
vt 0.884766 0.5
vt 0.982422 0.5

# verts
v -1.1 1.2 -0.1
v -1.1 1.2 -0.3
v -1.1 1.9 -0.1
v -1.1 1.9 -0.3
v -1 0.8 -0.1
v -1 0.8 -0.3
v -1 1 0
v -1 1 -0.1
v -1 1.1 0
v -1 1.1 -0.1
v -1 1.2 0
v -1 1.2 -0.1
v -1 1.2 -0.3
v -1 1.2 -0.4
v -1 1.9 0
v -1 1.9 -0.1
v -1 1.9 -0.3
v -1 1.9 -0.4
v -1 2 -0.1
v -1 2 -0.3
v -0.9 1.9 0
v -0.9 1.9 -0.1
v -0.9 1.9 -0.3
v -0.9 1.9 -0.4
v -0.9 2 0
v -0.9 2 -0.1
v -0.9 2 -0.3
v -0.9 2 -0.4
v -0.8 0.8 -0.1
v -0.8 0.8 -0.3
v -0.8 1 0
v -0.8 1 -0.1
v -0.8 1.1 0
v -0.8 1.1 -0.1
v -0.8 1.2 -0.1
v -0.8 1.2 -0.3
v -0.7 1.2 0
v -0.7 1.2 -0.4
v -0.7 2 0
v -0.7 2 -0.4
v -1 1 0
v -1 1.1 0
v -1 1.2 0
v -1 1.9 0
v -0.9 1.9 0
v -0.9 2 0
v -0.8 1 0
v -0.8 1.1 0
v -0.7 1.2 0
v -0.7 2 0
v -1.1 1.2 -0.1
v -1.1 1.9 -0.1
v -1 0.8 -0.1
v -1 1 -0.1
v -1 1.1 -0.1
v -1 1.2 -0.1
v -1 1.9 -0.1
v -1 2 -0.1
v -0.9 1.9 -0.1
v -0.9 2 -0.1
v -0.8 0.8 -0.1
v -0.8 1 -0.1
v -0.8 1.1 -0.1
v -0.8 1.2 -0.1
v -1.1 1.2 -0.3
v -1.1 1.9 -0.3
v -1 0.8 -0.3
v -1 1.2 -0.3
v -1 1.9 -0.3
v -1 2 -0.3
v -0.9 1.9 -0.3
v -0.9 2 -0.3
v -0.8 0.8 -0.3
v -0.8 1.2 -0.3
v -1 1.2 -0.4
v -1 1.9 -0.4
v -0.9 1.9 -0.4
v -0.9 2 -0.4
v -0.7 1.2 -0.4
v -0.7 2 -0.4
v -1 0.8 -0.1
v -0.8 0.8 -0.1
v -1 0.8 -0.3
v -0.8 0.8 -0.3
v -1 1 0
v -0.8 1 0
v -1 1 -0.1
v -0.8 1 -0.1
v -1 1.2 0
v -0.7 1.2 0
v -1.1 1.2 -0.1
v -1 1.2 -0.1
v -0.8 1.2 -0.1
v -1.1 1.2 -0.3
v -1 1.2 -0.3
v -0.8 1.2 -0.3
v -1 1.2 -0.4
v -0.7 1.2 -0.4
v -1 1.1 0
v -0.8 1.1 0
v -1 1.1 -0.1
v -0.8 1.1 -0.1
v -1 1.9 0
v -0.9 1.9 0
v -1.1 1.9 -0.1
v -1 1.9 -0.1
v -0.9 1.9 -0.1
v -1.1 1.9 -0.3
v -1 1.9 -0.3
v -0.9 1.9 -0.3
v -1 1.9 -0.4
v -0.9 1.9 -0.4
v -0.9 2 0
v -0.7 2 0
v -1 2 -0.1
v -0.9 2 -0.1
v -1 2 -0.3
v -0.9 2 -0.3
v -0.9 2 -0.4
v -0.7 2 -0.4

# faces
f 3/1/1 2/1/1 1/1/1
f 4/1/1 2/1/1 3/1/1
f 8/2/1 6/2/1 5/2/1
f 9/2/1 8/2/1 7/2/1
f 10/2/1 6/2/1 8/2/1
f 10/2/1 8/2/1 9/2/1
f 12/2/1 6/2/1 10/2/1
f 13/2/1 6/2/1 12/2/1
f 15/1/1 12/1/1 11/1/1
f 16/1/1 12/1/1 15/1/1
f 17/1/1 14/1/1 13/1/1
f 18/1/1 14/1/1 17/1/1
f 19/1/1 17/1/1 16/1/1
f 20/1/1 17/1/1 19/1/1
f 25/1/1 22/1/1 21/1/1
f 26/1/1 22/1/1 25/1/1
f 27/1/1 24/1/1 23/1/1
f 28/1/1 24/1/1 27/1/1
f 29/2/2 30/2/2 32/2/2
f 31/2/2 32/2/2 33/2/2
f 32/2/2 30/2/2 34/2/2
f 33/2/2 32/2/2 34/2/2
f 34/2/2 30/2/2 35/2/2
f 35/2/2 30/2/2 36/2/2
f 37/1/2 38/1/2 39/1/2
f 39/1/2 38/1/2 40/1/2
f 45/1/3 44/1/3 43/1/3
f 47/2/3 42/2/3 41/2/3
f 48/2/3 42/2/3 47/2/3
f 49/1/3 46/1/3 45/1/3
f 49/1/3 45/1/3 43/1/3
f 50/1/3 46/1/3 49/1/3
f 56/1/3 52/1/3 51/1/3
f 57/1/3 52/1/3 56/1/3
f 59/1/3 58/1/3 57/1/3
f 60/1/3 58/1/3 59/1/3
f 61/2/3 54/2/3 53/2/3
f 62/2/3 54/2/3 61/2/3
f 63/2/3 56/2/3 55/2/3
f 64/2/3 56/2/3 63/2/3
f 65/1/4 66/1/4 68/1/4
f 68/1/4 66/1/4 69/1/4
f 69/1/4 70/1/4 71/1/4
f 71/1/4 70/1/4 72/1/4
f 67/2/4 68/2/4 73/2/4
f 73/2/4 68/2/4 74/2/4
f 75/1/4 76/1/4 77/1/4
f 75/1/4 77/1/4 79/1/4
f 77/1/4 78/1/4 79/1/4
f 79/1/4 78/1/4 80/1/4
f 83/2/5 82/2/5 81/2/5
f 84/2/5 82/2/5 83/2/5
f 87/2/5 86/2/5 85/2/5
f 88/2/5 86/2/5 87/2/5
f 92/1/5 90/1/5 89/1/5
f 93/1/5 90/1/5 92/1/5
f 94/1/5 92/1/5 91/1/5
f 95/1/5 92/1/5 94/1/5
f 96/1/5 90/1/5 93/1/5
f 97/1/5 96/1/5 95/1/5
f 98/1/5 90/1/5 96/1/5
f 98/1/5 96/1/5 97/1/5
f 99/2/6 100/2/6 101/2/6
f 101/2/6 100/2/6 102/2/6
f 103/1/6 104/1/6 106/1/6
f 106/1/6 104/1/6 107/1/6
f 105/1/6 106/1/6 108/1/6
f 108/1/6 106/1/6 109/1/6
f 109/1/6 110/1/6 111/1/6
f 111/1/6 110/1/6 112/1/6
f 113/1/6 114/1/6 116/1/6
f 115/1/6 116/1/6 117/1/6
f 116/1/6 114/1/6 118/1/6
f 117/1/6 116/1/6 118/1/6
f 118/1/6 114/1/6 119/1/6
f 119/1/6 114/1/6 120/1/6
