# MagicaVoxel @ Ephtracy

# group
o 

# material
mtllib nidoran-1.mtl
usemtl palette

# normals
vn -1 0 0
vn 1 0 0
vn 0 0 1
vn 0 0 -1
vn 0 -1 0
vn 0 1 0

# texcoords
vt 0.849609 0.5
vt 0.853516 0.5
vt 0.880859 0.5
vt 0.951172 0.5
vt 0.958984 0.5

# verts
v 0.2 1.3 0.6
v 0.2 1.3 0.4
v 0.2 1.3 -0.4
v 0.2 1.3 -0.6
v 0.2 1.8 0.6
v 0.2 1.8 0.4
v 0.2 1.8 -0.4
v 0.2 1.8 -0.6
v 0.3 1.2 0.6
v 0.3 1.2 0.4
v 0.3 1.2 -0.4
v 0.3 1.2 -0.6
v 0.3 1.3 0.6
v 0.3 1.3 0.4
v 0.3 1.3 -0.4
v 0.3 1.3 -0.6
v 0.3 1.8 0.6
v 0.3 1.8 0.4
v 0.3 1.8 -0.4
v 0.3 1.8 -0.6
v 0.3 2.1 0.6
v 0.3 2.1 0.4
v 0.3 2.1 -0.4
v 0.3 2.1 -0.6
v 0.4 1.1 0.6
v 0.4 1.1 0.4
v 0.4 1.1 -0.4
v 0.4 1.1 -0.6
v 0.4 1.2 0.6
v 0.4 1.2 0.4
v 0.4 1.2 -0.4
v 0.4 1.2 -0.6
v 0.4 2.1 0.6
v 0.4 2.1 0.4
v 0.4 2.1 -0.4
v 0.4 2.1 -0.6
v 0.4 2.2 0.6
v 0.4 2.2 0.4
v 0.4 2.2 -0.4
v 0.4 2.2 -0.6
v 0.5 1 0.6
v 0.5 1 0.5
v 0.5 1 0.3
v 0.5 1 -0.3
v 0.5 1 -0.5
v 0.5 1 -0.6
v 0.5 1.1 0.6
v 0.5 1.1 0.5
v 0.5 1.1 0.3
v 0.5 1.1 -0.3
v 0.5 1.1 -0.5
v 0.5 1.1 -0.6
v 0.6 0.6 0.3
v 0.6 0.6 -0.3
v 0.6 0.7 0.4
v 0.6 0.7 0.3
v 0.6 0.7 -0.3
v 0.6 0.7 -0.4
v 0.6 0.9 0.5
v 0.6 0.9 0.4
v 0.6 0.9 -0.4
v 0.6 0.9 -0.5
v 0.6 1 0.5
v 0.6 1 0.3
v 0.6 1 -0.3
v 0.6 1 -0.5
v 0.6 1.1 0.5
v 0.6 1.1 0.4
v 0.6 1.1 0.3
v 0.6 1.1 -0.3
v 0.6 1.1 -0.4
v 0.6 1.1 -0.5
v 0.6 1.2 0.3
v 0.6 1.2 -0.3
v 0.6 2.1 0.4
v 0.6 2.1 0.3
v 0.6 2.1 -0.3
v 0.6 2.1 -0.4
v 0.7 0.5 0.2
v 0.7 0.5 -0.2
v 0.7 0.6 0.4
v 0.7 0.6 0.3
v 0.7 0.6 0.2
v 0.7 0.6 -0.2
v 0.7 0.6 -0.3
v 0.7 0.6 -0.4
v 0.7 0.7 0.4
v 0.7 0.7 0.3
v 0.7 0.7 -0.3
v 0.7 0.7 -0.4
v 0.8 0.5 0.3
v 0.8 0.5 0.2
v 0.8 0.5 -0.2
v 0.8 0.5 -0.3
v 0.8 0.6 0.3
v 0.8 0.6 0.2
v 0.8 0.6 -0.2
v 0.8 0.6 -0.3
v 1.2 1.2 0.0999999
v 1.2 1.2 -0.1
v 1.2 1.3 0.0999999
v 1.2 1.3 -0.1
v 1.3 0.5 0.0999999
v 1.3 0.5 -0.1
v 1.3 0.6 0.0999999
v 1.3 0.6 -0.1
v 1.3 1.3 0.0999999
v 1.3 1.3 -0.1
v 1.3 1.4 0.0999999
v 1.3 1.4 -0.1
v 0.6 1 0.6
v 0.6 1 0.5
v 0.6 1 -0.5
v 0.6 1 -0.6
v 0.6 1.1 0.5
v 0.6 1.1 -0.5
v 0.6 1.2 0.6
v 0.6 1.2 0.5
v 0.6 1.2 -0.5
v 0.6 1.2 -0.6
v 0.6 1.7 -0.5
v 0.6 1.8 0.5
v 0.6 2 0.6
v 0.6 2 0.5
v 0.6 2 -0.5
v 0.6 2 -0.6
v 0.6 2.1 0.5
v 0.6 2.1 0.4
v 0.6 2.1 -0.4
v 0.6 2.1 -0.5
v 0.6 2.2 0.6
v 0.6 2.2 0.4
v 0.6 2.2 -0.4
v 0.6 2.2 -0.6
v 0.7 1.8 0.5
v 0.7 1.8 0.3
v 0.7 1.8 -0.3
v 0.7 1.8 -0.5
v 0.7 2.1 0.5
v 0.7 2.1 0.3
v 0.7 2.1 -0.3
v 0.7 2.1 -0.5
v 0.8 1.6 0.5
v 0.8 1.6 0.3
v 0.8 1.6 -0.3
v 0.8 1.6 -0.5
v 0.8 1.8 0.5
v 0.8 1.8 0.3
v 0.8 1.8 -0.3
v 0.8 1.8 -0.5
v 0.9 1.3 0.5
v 0.9 1.3 0.3
v 0.9 1.3 -0.3
v 0.9 1.3 -0.5
v 0.9 1.6 0.5
v 0.9 1.6 0.3
v 0.9 1.6 -0.3
v 0.9 1.6 -0.5
v 1 0.9 0.5
v 1 0.9 0.4
v 1 0.9 -0.4
v 1 0.9 -0.5
v 1 1.1 0.4
v 1 1.1 0.3
v 1 1.1 -0.3
v 1 1.1 -0.4
v 1 1.2 0.3
v 1 1.2 -0.3
v 1 1.3 0.5
v 1 1.3 0.3
v 1 1.3 -0.3
v 1 1.3 -0.5
v 1.1 0.6 0.4
v 1.1 0.6 0.3
v 1.1 0.6 -0.3
v 1.1 0.6 -0.4
v 1.1 0.8 0.3
v 1.1 0.8 -0.3
v 1.1 1.1 0.4
v 1.1 1.1 0.3
v 1.1 1.1 0.2
v 1.1 1.1 0.0999999
v 1.1 1.1 -0.1
v 1.1 1.1 -0.2
v 1.1 1.1 -0.3
v 1.1 1.1 -0.4
v 1.1 1.2 0.3
v 1.1 1.2 0.0999999
v 1.1 1.2 -0.1
v 1.1 1.2 -0.3
v 1.2 0.5 0.3
v 1.2 0.5 -0.3
v 1.2 0.6 0.3
v 1.2 0.6 -0.3
v 1.2 1 0.3
v 1.2 1 0.2
v 1.2 1 0.0999999
v 1.2 1 -0.1
v 1.2 1 -0.2
v 1.2 1 -0.3
v 1.2 1.1 0.3
v 1.2 1.1 0.2
v 1.2 1.1 0.0999999
v 1.2 1.1 -0.1
v 1.2 1.1 -0.2
v 1.2 1.1 -0.3
v 1.3 0.6 0.3
v 1.3 0.6 0.2
v 1.3 0.6 -0.2
v 1.3 0.6 -0.3
v 1.3 0.8 0.3
v 1.3 0.8 0.2
v 1.3 0.8 -0.2
v 1.3 0.8 -0.3
v 1.3 0.9 0.2
v 1.3 0.9 -0.2
v 1.3 1 0.3
v 1.3 1 0.2
v 1.3 1 -0.2
v 1.3 1 -0.3
v 1.3 1.1 0.0999999
v 1.3 1.1 -0.1
v 1.3 1.2 0.0999999
v 1.3 1.2 -0.1
v 1.4 0.5 0.0999999
v 1.4 0.5 -0.1
v 1.4 0.6 0.2
v 1.4 0.6 0.0999999
v 1.4 0.6 -0.1
v 1.4 0.6 -0.2
v 1.4 0.9 0.2
v 1.4 0.9 -0.2
v 1.4 1.2 0.0999999
v 1.4 1.2 -0.1
v 1.4 1.4 0.0999999
v 1.4 1.4 -0.1
v 0.2 1.3 0.6
v 0.2 1.8 0.6
v 0.3 1.2 0.6
v 0.3 1.3 0.6
v 0.3 1.4 0.6
v 0.3 1.7 0.6
v 0.3 1.8 0.6
v 0.3 2.1 0.6
v 0.4 1.1 0.6
v 0.4 1.2 0.6
v 0.4 1.3 0.6
v 0.4 1.4 0.6
v 0.4 1.7 0.6
v 0.4 2 0.6
v 0.4 2.1 0.6
v 0.4 2.2 0.6
v 0.5 1 0.6
v 0.5 1.1 0.6
v 0.5 1.2 0.6
v 0.5 1.3 0.6
v 0.6 1 0.6
v 0.6 1.2 0.6
v 0.6 2 0.6
v 0.6 2.2 0.6
v 0.6 0.9 0.5
v 0.6 1 0.5
v 0.6 1.1 0.5
v 0.6 1.2 0.5
v 0.6 1.8 0.5
v 0.6 2 0.5
v 0.6 2.1 0.5
v 0.7 1 0.5
v 0.7 1.1 0.5
v 0.7 1.4 0.5
v 0.7 1.8 0.5
v 0.7 2.1 0.5
v 0.8 1.2 0.5
v 0.8 1.4 0.5
v 0.8 1.6 0.5
v 0.8 1.8 0.5
v 0.9 1 0.5
v 0.9 1.2 0.5
v 0.9 1.3 0.5
v 0.9 1.6 0.5
v 1 0.9 0.5
v 1 1.3 0.5
v 0.6 0.7 0.4
v 0.6 0.9 0.4
v 0.7 0.6 0.4
v 0.7 0.7 0.4
v 1 0.9 0.4
v 1 1.1 0.4
v 1.1 0.6 0.4
v 1.1 1.1 0.4
v 0.5 1 0.3
v 0.5 1.1 0.3
v 0.6 0.6 0.3
v 0.6 0.7 0.3
v 0.6 1 0.3
v 0.6 1.1 0.3
v 0.7 0.6 0.3
v 0.7 0.7 0.3
v 0.8 0.5 0.3
v 0.8 0.6 0.3
v 1 1.1 0.3
v 1 1.2 0.3
v 1.1 0.6 0.3
v 1.1 0.8 0.3
v 1.1 1.1 0.3
v 1.1 1.2 0.3
v 1.2 0.5 0.3
v 1.2 0.6 0.3
v 1.2 0.8 0.3
v 1.2 1 0.3
v 1.2 1.1 0.3
v 1.3 0.6 0.3
v 1.3 0.8 0.3
v 1.3 1 0.3
v 0.7 0.5 0.2
v 0.7 0.6 0.2
v 0.8 0.5 0.2
v 0.8 0.6 0.2
v 1.3 0.6 0.2
v 1.3 0.8 0.2
v 1.3 0.9 0.2
v 1.4 0.6 0.2
v 1.4 0.9 0.2
v 1.1 1.1 0.0999999
v 1.1 1.2 0.0999999
v 1.2 1.1 0.0999999
v 1.2 1.2 0.0999999
v 1.2 1.3 0.0999999
v 1.3 0.5 0.0999999
v 1.3 0.6 0.0999999
v 1.3 1.1 0.0999999
v 1.3 1.2 0.0999999
v 1.3 1.3 0.0999999
v 1.3 1.4 0.0999999
v 1.4 0.5 0.0999999
v 1.4 0.6 0.0999999
v 1.4 1.2 0.0999999
v 1.4 1.4 0.0999999
v 0.6 1.2 -0.3
v 0.6 2.1 -0.3
v 0.7 1.8 -0.3
v 0.7 2.1 -0.3
v 0.8 1.6 -0.3
v 0.8 1.8 -0.3
v 0.9 1.3 -0.3
v 0.9 1.6 -0.3
v 1 1.2 -0.3
v 1 1.3 -0.3
v 0.2 1.3 -0.4
v 0.2 1.8 -0.4
v 0.3 1.2 -0.4
v 0.3 1.3 -0.4
v 0.3 1.8 -0.4
v 0.3 2.1 -0.4
v 0.4 1.1 -0.4
v 0.4 1.2 -0.4
v 0.4 2.1 -0.4
v 0.4 2.2 -0.4
v 0.6 1.1 -0.4
v 0.6 2.1 -0.4
v 0.6 2.2 -0.4
v 0.5 1 -0.5
v 0.5 1.1 -0.5
v 0.6 1 -0.5
v 0.6 1.1 -0.5
v 0.5 1 0.5
v 0.5 1.1 0.5
v 0.6 1 0.5
v 0.6 1.1 0.5
v 0.2 1.3 0.4
v 0.2 1.8 0.4
v 0.3 1.2 0.4
v 0.3 1.3 0.4
v 0.3 1.8 0.4
v 0.3 2.1 0.4
v 0.4 1.1 0.4
v 0.4 1.2 0.4
v 0.4 2.1 0.4
v 0.4 2.2 0.4
v 0.6 1.1 0.4
v 0.6 2.1 0.4
v 0.6 2.2 0.4
v 0.6 1.2 0.3
v 0.6 2.1 0.3
v 0.7 1.8 0.3
v 0.7 2.1 0.3
v 0.8 1.6 0.3
v 0.8 1.8 0.3
v 0.9 1.3 0.3
v 0.9 1.6 0.3
v 1 1.2 0.3
v 1 1.3 0.3
v 1.1 1.1 -0.1
v 1.1 1.2 -0.1
v 1.2 1.1 -0.1
v 1.2 1.2 -0.1
v 1.2 1.3 -0.1
v 1.3 0.5 -0.1
v 1.3 0.6 -0.1
v 1.3 1.1 -0.1
v 1.3 1.2 -0.1
v 1.3 1.3 -0.1
v 1.3 1.4 -0.1
v 1.4 0.5 -0.1
v 1.4 0.6 -0.1
v 1.4 1.2 -0.1
v 1.4 1.4 -0.1
v 0.7 0.5 -0.2
v 0.7 0.6 -0.2
v 0.8 0.5 -0.2
v 0.8 0.6 -0.2
v 1.3 0.6 -0.2
v 1.3 0.8 -0.2
v 1.3 0.9 -0.2
v 1.4 0.6 -0.2
v 1.4 0.9 -0.2
v 0.5 1 -0.3
v 0.5 1.1 -0.3
v 0.6 0.6 -0.3
v 0.6 0.7 -0.3
v 0.6 1 -0.3
v 0.6 1.1 -0.3
v 0.7 0.6 -0.3
v 0.7 0.7 -0.3
v 0.8 0.5 -0.3
v 0.8 0.6 -0.3
v 1 1.1 -0.3
v 1 1.2 -0.3
v 1.1 0.6 -0.3
v 1.1 0.8 -0.3
v 1.1 1.1 -0.3
v 1.1 1.2 -0.3
v 1.2 0.5 -0.3
v 1.2 0.6 -0.3
v 1.2 0.8 -0.3
v 1.2 1 -0.3
v 1.2 1.1 -0.3
v 1.3 0.6 -0.3
v 1.3 0.8 -0.3
v 1.3 1 -0.3
v 0.6 0.7 -0.4
v 0.6 0.9 -0.4
v 0.7 0.6 -0.4
v 0.7 0.7 -0.4
v 1 0.9 -0.4
v 1 1.1 -0.4
v 1.1 0.6 -0.4
v 1.1 1.1 -0.4
v 0.6 0.9 -0.5
v 0.6 1 -0.5
v 0.6 1.1 -0.5
v 0.6 1.2 -0.5
v 0.6 1.7 -0.5
v 0.6 2 -0.5
v 0.6 2.1 -0.5
v 0.7 1 -0.5
v 0.7 1.1 -0.5
v 0.7 1.4 -0.5
v 0.7 1.7 -0.5
v 0.7 1.8 -0.5
v 0.7 2.1 -0.5
v 0.8 1.2 -0.5
v 0.8 1.4 -0.5
v 0.8 1.6 -0.5
v 0.8 1.8 -0.5
v 0.9 1 -0.5
v 0.9 1.2 -0.5
v 0.9 1.3 -0.5
v 0.9 1.6 -0.5
v 1 0.9 -0.5
v 1 1.3 -0.5
v 0.2 1.3 -0.6
v 0.2 1.8 -0.6
v 0.3 1.2 -0.6
v 0.3 1.3 -0.6
v 0.3 1.4 -0.6
v 0.3 1.7 -0.6
v 0.3 1.8 -0.6
v 0.3 2.1 -0.6
v 0.4 1.1 -0.6
v 0.4 1.2 -0.6
v 0.4 1.3 -0.6
v 0.4 1.4 -0.6
v 0.4 1.7 -0.6
v 0.4 2 -0.6
v 0.4 2.1 -0.6
v 0.4 2.2 -0.6
v 0.5 1 -0.6
v 0.5 1.1 -0.6
v 0.5 1.2 -0.6
v 0.5 1.3 -0.6
v 0.6 1 -0.6
v 0.6 1.2 -0.6
v 0.6 2 -0.6
v 0.6 2.2 -0.6
v 0.8 0.5 0.3
v 1.2 0.5 0.3
v 0.7 0.5 0.2
v 0.8 0.5 0.2
v 1.3 0.5 0.0999999
v 1.4 0.5 0.0999999
v 1.3 0.5 -0.1
v 1.4 0.5 -0.1
v 0.7 0.5 -0.2
v 0.8 0.5 -0.2
v 0.8 0.5 -0.3
v 1.2 0.5 -0.3
v 0.7 0.6 0.4
v 1.1 0.6 0.4
v 0.6 0.6 0.3
v 0.7 0.6 0.3
v 0.8 0.6 0.3
v 1.1 0.6 0.3
v 1.2 0.6 0.3
v 1.3 0.6 0.3
v 0.7 0.6 0.2
v 0.8 0.6 0.2
v 1.3 0.6 0.2
v 1.4 0.6 0.2
v 1.3 0.6 0.0999999
v 1.4 0.6 0.0999999
v 1.3 0.6 -0.1
v 1.4 0.6 -0.1
v 0.7 0.6 -0.2
v 0.8 0.6 -0.2
v 1.3 0.6 -0.2
v 1.4 0.6 -0.2
v 0.6 0.6 -0.3
v 0.7 0.6 -0.3
v 0.8 0.6 -0.3
v 1.1 0.6 -0.3
v 1.2 0.6 -0.3
v 1.3 0.6 -0.3
v 0.7 0.6 -0.4
v 1.1 0.6 -0.4
v 0.6 0.7 0.4
v 0.7 0.7 0.4
v 0.6 0.7 0.3
v 0.7 0.7 0.3
v 0.6 0.7 -0.3
v 0.7 0.7 -0.3
v 0.6 0.7 -0.4
v 0.7 0.7 -0.4
v 0.6 0.9 0.5
v 1 0.9 0.5
v 0.6 0.9 0.4
v 1 0.9 0.4
v 0.6 0.9 -0.4
v 1 0.9 -0.4
v 0.6 0.9 -0.5
v 1 0.9 -0.5
v 0.5 1 0.6
v 0.6 1 0.6
v 0.5 1 0.5
v 0.6 1 0.5
v 0.5 1 0.3
v 0.6 1 0.3
v 0.5 1 -0.3
v 0.6 1 -0.3
v 0.5 1 -0.5
v 0.6 1 -0.5
v 0.5 1 -0.6
v 0.6 1 -0.6
v 0.4 1.1 0.6
v 0.5 1.1 0.6
v 0.5 1.1 0.5
v 0.6 1.1 0.5
v 0.4 1.1 0.4
v 0.6 1.1 0.4
v 1.2 1.1 0.0999999
v 1.3 1.1 0.0999999
v 1.2 1.1 -0.1
v 1.3 1.1 -0.1
v 0.4 1.1 -0.4
v 0.6 1.1 -0.4
v 0.5 1.1 -0.5
v 0.6 1.1 -0.5
v 0.4 1.1 -0.6
v 0.5 1.1 -0.6
v 0.3 1.2 0.6
v 0.4 1.2 0.6
v 0.3 1.2 0.4
v 0.4 1.2 0.4
v 1.3 1.2 0.0999999
v 1.4 1.2 0.0999999
v 1.3 1.2 -0.1
v 1.4 1.2 -0.1
v 0.3 1.2 -0.4
v 0.4 1.2 -0.4
v 0.3 1.2 -0.6
v 0.4 1.2 -0.6
v 0.2 1.3 0.6
v 0.3 1.3 0.6
v 0.2 1.3 0.4
v 0.3 1.3 0.4
v 0.2 1.3 -0.4
v 0.3 1.3 -0.4
v 0.2 1.3 -0.6
v 0.3 1.3 -0.6
v 1.3 0.9 0.2
v 1.4 0.9 0.2
v 1.3 0.9 -0.2
v 1.4 0.9 -0.2
v 1.2 1 0.3
v 1.3 1 0.3
v 1.2 1 0.2
v 1.3 1 0.2
v 1.2 1 0.0999999
v 1.2 1 -0.1
v 1.2 1 -0.2
v 1.3 1 -0.2
v 1.2 1 -0.3
v 1.3 1 -0.3
v 1 1.1 0.4
v 1.1 1.1 0.4
v 0.5 1.1 0.3
v 0.6 1.1 0.3
v 1 1.1 0.3
v 1.1 1.1 0.3
v 1.2 1.1 0.3
v 1.1 1.1 0.2
v 1.2 1.1 0.2
v 1.1 1.1 0.0999999
v 1.2 1.1 0.0999999
v 1.1 1.1 -0.1
v 1.2 1.1 -0.1
v 1.1 1.1 -0.2
v 1.2 1.1 -0.2
v 0.5 1.1 -0.3
v 0.6 1.1 -0.3
v 1 1.1 -0.3
v 1.1 1.1 -0.3
v 1.2 1.1 -0.3
v 1 1.1 -0.4
v 1.1 1.1 -0.4
v 0.6 1.2 0.3
v 1 1.2 0.3
v 1.1 1.2 0.3
v 1.1 1.2 0.0999999
v 1.2 1.2 0.0999999
v 1.1 1.2 -0.1
v 1.2 1.2 -0.1
v 0.6 1.2 -0.3
v 1 1.2 -0.3
v 1.1 1.2 -0.3
v 0.9 1.3 0.5
v 1 1.3 0.5
v 0.9 1.3 0.3
v 1 1.3 0.3
v 1.2 1.3 0.0999999
v 1.3 1.3 0.0999999
v 1.2 1.3 -0.1
v 1.3 1.3 -0.1
v 0.9 1.3 -0.3
v 1 1.3 -0.3
v 0.9 1.3 -0.5
v 1 1.3 -0.5
v 1.3 1.4 0.0999999
v 1.4 1.4 0.0999999
v 1.3 1.4 -0.1
v 1.4 1.4 -0.1
v 0.8 1.6 0.5
v 0.9 1.6 0.5
v 0.8 1.6 0.3
v 0.9 1.6 0.3
v 0.8 1.6 -0.3
v 0.9 1.6 -0.3
v 0.8 1.6 -0.5
v 0.9 1.6 -0.5
v 0.2 1.8 0.6
v 0.3 1.8 0.6
v 0.7 1.8 0.5
v 0.8 1.8 0.5
v 0.2 1.8 0.4
v 0.3 1.8 0.4
v 0.7 1.8 0.3
v 0.8 1.8 0.3
v 0.7 1.8 -0.3
v 0.8 1.8 -0.3
v 0.2 1.8 -0.4
v 0.3 1.8 -0.4
v 0.7 1.8 -0.5
v 0.8 1.8 -0.5
v 0.2 1.8 -0.6
v 0.3 1.8 -0.6
v 0.3 2.1 0.6
v 0.4 2.1 0.6
v 0.6 2.1 0.5
v 0.7 2.1 0.5
v 0.3 2.1 0.4
v 0.4 2.1 0.4
v 0.6 2.1 0.4
v 0.6 2.1 0.3
v 0.7 2.1 0.3
v 0.6 2.1 -0.3
v 0.7 2.1 -0.3
v 0.3 2.1 -0.4
v 0.4 2.1 -0.4
v 0.6 2.1 -0.4
v 0.6 2.1 -0.5
v 0.7 2.1 -0.5
v 0.3 2.1 -0.6
v 0.4 2.1 -0.6
v 0.4 2.2 0.6
v 0.6 2.2 0.6
v 0.4 2.2 0.4
v 0.6 2.2 0.4
v 0.4 2.2 -0.4
v 0.6 2.2 -0.4
v 0.4 2.2 -0.6
v 0.6 2.2 -0.6

# faces
f 5/3/1 2/3/1 1/3/1
f 6/3/1 2/3/1 5/3/1
f 7/3/1 4/3/1 3/3/1
f 8/3/1 4/3/1 7/3/1
f 13/3/1 10/3/1 9/3/1
f 14/3/1 10/3/1 13/3/1
f 15/3/1 12/3/1 11/3/1
f 16/3/1 12/3/1 15/3/1
f 21/3/1 18/3/1 17/3/1
f 22/3/1 18/3/1 21/3/1
f 23/3/1 20/3/1 19/3/1
f 24/3/1 20/3/1 23/3/1
f 29/3/1 26/3/1 25/3/1
f 30/3/1 26/3/1 29/3/1
f 31/3/1 28/3/1 27/3/1
f 32/3/1 28/3/1 31/3/1
f 37/3/1 34/3/1 33/3/1
f 38/3/1 34/3/1 37/3/1
f 39/3/1 36/3/1 35/3/1
f 40/3/1 36/3/1 39/3/1
f 47/3/1 42/3/1 41/3/1
f 48/3/1 42/3/1 47/3/1
f 49/3/1 44/3/1 43/3/1
f 50/3/1 44/3/1 49/3/1
f 51/3/1 46/3/1 45/3/1
f 52/3/1 46/3/1 51/3/1
f 56/3/1 54/3/1 53/3/1
f 57/3/1 54/3/1 56/3/1
f 60/3/1 56/3/1 55/3/1
f 60/3/1 58/3/1 57/3/1
f 60/3/1 57/3/1 56/3/1
f 61/3/1 58/3/1 60/3/1
f 63/3/1 60/3/1 59/3/1
f 63/3/1 62/3/1 61/3/1
f 63/3/1 61/3/1 60/3/1
f 64/3/1 62/3/1 63/3/1
f 65/3/1 62/3/1 64/3/1
f 66/3/1 62/3/1 65/3/1
f 67/3/1 64/3/1 63/3/1
f 68/3/1 64/3/1 67/3/1
f 69/3/1 64/3/1 68/3/1
f 70/3/1 66/3/1 65/3/1
f 71/3/1 66/3/1 70/3/1
f 72/3/1 66/3/1 71/3/1
f 73/3/1 69/3/1 68/3/1
f 73/3/1 71/3/1 70/3/1
f 73/3/1 70/3/1 69/3/1
f 74/3/1 71/3/1 73/3/1
f 75/3/1 73/3/1 68/3/1
f 76/3/1 73/3/1 75/3/1
f 77/3/1 71/3/1 74/3/1
f 78/3/1 71/3/1 77/3/1
f 83/3/1 80/3/1 79/3/1
f 84/3/1 80/3/1 83/3/1
f 87/3/1 82/3/1 81/3/1
f 88/3/1 82/3/1 87/3/1
f 89/3/1 86/3/1 85/3/1
f 90/3/1 86/3/1 89/3/1
f 95/3/1 92/3/1 91/3/1
f 96/3/1 92/3/1 95/3/1
f 97/3/1 94/3/1 93/3/1
f 98/3/1 94/3/1 97/3/1
f 101/3/1 100/3/1 99/3/1
f 102/3/1 100/3/1 101/3/1
f 105/5/1 104/5/1 103/5/1
f 106/5/1 104/5/1 105/5/1
f 109/3/1 108/3/1 107/3/1
f 110/3/1 108/3/1 109/3/1
f 111/3/2 112/3/2 115/3/2
f 113/3/2 114/3/2 116/3/2
f 111/3/2 115/3/2 117/3/2
f 117/3/2 115/3/2 118/3/2
f 116/3/2 114/3/2 119/3/2
f 119/3/2 114/3/2 120/3/2
f 119/2/2 120/2/2 121/2/2
f 117/2/2 118/2/2 122/2/2
f 117/2/2 122/2/2 123/2/2
f 123/2/2 122/2/2 124/2/2
f 121/2/2 120/2/2 125/2/2
f 125/2/2 120/2/2 126/2/2
f 123/3/2 124/3/2 127/3/2
f 125/3/2 126/3/2 130/3/2
f 127/3/2 128/3/2 131/3/2
f 123/3/2 127/3/2 131/3/2
f 131/3/2 128/3/2 132/3/2
f 129/3/2 130/3/2 133/3/2
f 130/3/2 126/3/2 134/3/2
f 133/3/2 130/3/2 134/3/2
f 135/3/2 136/3/2 139/3/2
f 139/3/2 136/3/2 140/3/2
f 137/3/2 138/3/2 141/3/2
f 141/3/2 138/3/2 142/3/2
f 143/3/2 144/3/2 147/3/2
f 147/3/2 144/3/2 148/3/2
f 145/3/2 146/3/2 149/3/2
f 149/3/2 146/3/2 150/3/2
f 151/3/2 152/3/2 155/3/2
f 155/3/2 152/3/2 156/3/2
f 153/3/2 154/3/2 157/3/2
f 157/3/2 154/3/2 158/3/2
f 159/3/2 160/3/2 163/3/2
f 161/3/2 162/3/2 166/3/2
f 163/3/2 164/3/2 167/3/2
f 165/3/2 166/3/2 168/3/2
f 163/3/2 167/3/2 169/3/2
f 159/3/2 163/3/2 169/3/2
f 169/3/2 167/3/2 170/3/2
f 168/3/2 166/3/2 171/3/2
f 166/3/2 162/3/2 172/3/2
f 171/3/2 166/3/2 172/3/2
f 173/3/2 174/3/2 177/3/2
f 175/3/2 176/3/2 178/3/2
f 173/3/2 177/3/2 179/3/2
f 179/3/2 177/3/2 180/3/2
f 178/3/2 176/3/2 185/3/2
f 185/3/2 176/3/2 186/3/2
f 180/3/2 181/3/2 187/3/2
f 181/3/2 182/3/2 187/3/2
f 187/3/2 182/3/2 188/3/2
f 183/3/2 184/3/2 189/3/2
f 184/3/2 185/3/2 189/3/2
f 189/3/2 185/3/2 190/3/2
f 191/3/2 192/3/2 193/3/2
f 193/3/2 192/3/2 194/3/2
f 195/5/2 196/5/2 201/5/2
f 196/3/2 197/3/2 202/3/2
f 201/5/2 196/5/2 202/5/2
f 197/1/2 198/1/2 203/1/2
f 202/3/2 197/3/2 203/3/2
f 198/3/2 199/3/2 204/3/2
f 203/1/2 198/1/2 204/1/2
f 199/5/2 200/5/2 205/5/2
f 204/3/2 199/3/2 205/3/2
f 205/5/2 200/5/2 206/5/2
f 207/3/2 208/3/2 211/3/2
f 211/3/2 208/3/2 212/3/2
f 209/3/2 210/3/2 213/3/2
f 213/3/2 210/3/2 214/3/2
f 211/4/2 212/4/2 215/4/2
f 213/4/2 214/4/2 216/4/2
f 211/4/2 215/4/2 217/4/2
f 215/3/2 216/3/2 218/3/2
f 217/4/2 215/4/2 218/4/2
f 216/4/2 214/4/2 219/4/2
f 218/3/2 216/3/2 219/3/2
f 219/4/2 214/4/2 220/4/2
f 221/3/2 222/3/2 223/3/2
f 223/3/2 222/3/2 224/3/2
f 225/5/2 226/5/2 228/5/2
f 228/5/2 226/5/2 229/5/2
f 227/3/2 228/3/2 231/3/2
f 229/3/2 230/3/2 231/3/2
f 228/3/2 229/3/2 231/3/2
f 231/3/2 230/3/2 232/3/2
f 233/3/2 234/3/2 235/3/2
f 235/3/2 234/3/2 236/3/2
f 240/3/3 238/3/3 237/3/3
f 241/3/3 238/3/3 240/3/3
f 242/3/3 238/3/3 241/3/3
f 243/3/3 238/3/3 242/3/3
f 246/3/3 240/3/3 239/3/3
f 246/3/3 241/3/3 240/3/3
f 247/3/3 241/3/3 246/3/3
f 248/2/3 242/2/3 241/2/3
f 248/3/3 241/3/3 247/3/3
f 249/3/3 244/3/3 243/3/3
f 249/2/3 242/2/3 248/2/3
f 249/3/3 243/3/3 242/3/3
f 250/3/3 244/3/3 249/3/3
f 251/3/3 244/3/3 250/3/3
f 254/3/3 246/3/3 245/3/3
f 254/3/3 247/3/3 246/3/3
f 255/3/3 247/3/3 254/3/3
f 256/2/3 248/2/3 247/2/3
f 256/3/3 247/3/3 255/3/3
f 256/2/3 249/2/3 248/2/3
f 256/2/3 250/2/3 249/2/3
f 257/3/3 255/3/3 254/3/3
f 257/3/3 254/3/3 253/3/3
f 258/2/3 256/2/3 255/2/3
f 258/3/3 255/3/3 257/3/3
f 259/2/3 250/2/3 256/2/3
f 259/2/3 256/2/3 258/2/3
f 259/3/3 252/3/3 251/3/3
f 259/3/3 251/3/3 250/3/3
f 260/3/3 252/3/3 259/3/3
f 268/3/3 262/3/3 261/3/3
f 268/3/3 263/3/3 262/3/3
f 269/2/3 264/2/3 263/2/3
f 269/3/3 263/3/3 268/3/3
f 269/2/3 265/2/3 264/2/3
f 270/2/3 265/2/3 269/2/3
f 271/3/3 267/3/3 266/3/3
f 271/2/3 265/2/3 270/2/3
f 271/3/3 266/3/3 265/3/3
f 272/3/3 267/3/3 271/3/3
f 273/2/3 270/2/3 269/2/3
f 273/2/3 269/2/3 268/2/3
f 274/3/3 271/3/3 270/3/3
f 274/2/3 270/2/3 273/2/3
f 275/3/3 271/3/3 274/3/3
f 276/3/3 271/3/3 275/3/3
f 277/2/3 273/2/3 268/2/3
f 277/3/3 268/3/3 261/3/3
f 278/3/3 275/3/3 274/3/3
f 278/2/3 273/2/3 277/2/3
f 278/3/3 274/3/3 273/3/3
f 279/3/3 275/3/3 278/3/3
f 280/3/3 275/3/3 279/3/3
f 281/3/3 277/3/3 261/3/3
f 281/3/3 278/3/3 277/3/3
f 281/3/3 279/3/3 278/3/3
f 282/3/3 279/3/3 281/3/3
f 286/3/3 284/3/3 283/3/3
f 287/3/3 284/3/3 286/3/3
f 287/3/3 286/3/3 285/3/3
f 289/3/3 287/3/3 285/3/3
f 289/3/3 288/3/3 287/3/3
f 290/3/3 288/3/3 289/3/3
f 295/3/3 292/3/3 291/3/3
f 296/3/3 292/3/3 295/3/3
f 297/3/3 294/3/3 293/3/3
f 298/3/3 294/3/3 297/3/3
f 303/3/3 300/3/3 299/3/3
f 305/3/3 302/3/3 301/3/3
f 306/3/3 302/3/3 305/3/3
f 307/3/3 304/3/3 303/3/3
f 307/3/3 303/3/3 299/3/3
f 308/3/3 304/3/3 307/3/3
f 309/5/3 305/5/3 304/5/3
f 309/3/3 304/3/3 308/3/3
f 310/5/3 305/5/3 309/5/3
f 311/5/3 305/5/3 310/5/3
f 312/3/3 309/3/3 308/3/3
f 313/4/3 310/4/3 309/4/3
f 313/3/3 309/3/3 312/3/3
f 314/4/3 310/4/3 313/4/3
f 317/3/3 316/3/3 315/3/3
f 318/3/3 316/3/3 317/3/3
f 322/3/3 320/3/3 319/3/3
f 322/3/3 321/3/3 320/3/3
f 323/3/3 321/3/3 322/3/3
f 326/3/3 325/3/3 324/3/3
f 327/3/3 325/3/3 326/3/3
f 331/3/3 327/3/3 326/3/3
f 331/3/3 328/3/3 327/3/3
f 332/3/3 328/3/3 331/3/3
f 333/3/3 328/3/3 332/3/3
f 335/5/3 330/5/3 329/5/3
f 336/5/3 330/5/3 335/5/3
f 337/3/3 334/3/3 333/3/3
f 337/3/3 333/3/3 332/3/3
f 338/3/3 334/3/3 337/3/3
f 341/3/3 340/3/3 339/3/3
f 342/3/3 340/3/3 341/3/3
f 343/3/3 341/3/3 339/3/3
f 344/3/3 341/3/3 343/3/3
f 345/3/3 343/3/3 339/3/3
f 346/3/3 343/3/3 345/3/3
f 347/3/3 345/3/3 339/3/3
f 348/3/3 345/3/3 347/3/3
f 352/3/3 350/3/3 349/3/3
f 353/3/3 350/3/3 352/3/3
f 356/3/3 352/3/3 351/3/3
f 356/3/3 354/3/3 353/3/3
f 356/3/3 353/3/3 352/3/3
f 357/3/3 354/3/3 356/3/3
f 359/3/3 356/3/3 355/3/3
f 359/3/3 358/3/3 357/3/3
f 359/3/3 357/3/3 356/3/3
f 360/3/3 358/3/3 359/3/3
f 361/3/3 358/3/3 360/3/3
f 364/3/3 363/3/3 362/3/3
f 365/3/3 363/3/3 364/3/3
f 366/3/4 367/3/4 368/3/4
f 368/3/4 367/3/4 369/3/4
f 370/3/4 371/3/4 373/3/4
f 373/3/4 371/3/4 374/3/4
f 372/3/4 373/3/4 377/3/4
f 374/3/4 375/3/4 377/3/4
f 373/3/4 374/3/4 377/3/4
f 377/3/4 375/3/4 378/3/4
f 376/3/4 377/3/4 380/3/4
f 378/3/4 379/3/4 380/3/4
f 377/3/4 378/3/4 380/3/4
f 380/3/4 379/3/4 381/3/4
f 381/3/4 379/3/4 382/3/4
f 383/3/4 384/3/4 385/3/4
f 385/3/4 384/3/4 386/3/4
f 383/3/4 385/3/4 387/3/4
f 387/3/4 385/3/4 388/3/4
f 383/3/4 387/3/4 389/3/4
f 389/3/4 387/3/4 390/3/4
f 383/3/4 389/3/4 391/3/4
f 391/3/4 389/3/4 392/3/4
f 393/3/4 394/3/4 395/3/4
f 395/3/4 394/3/4 396/3/4
f 395/3/4 396/3/4 400/3/4
f 396/3/4 397/3/4 400/3/4
f 400/3/4 397/3/4 401/3/4
f 401/3/4 397/3/4 402/3/4
f 398/5/4 399/5/4 404/5/4
f 404/5/4 399/5/4 405/5/4
f 402/3/4 403/3/4 406/3/4
f 401/3/4 402/3/4 406/3/4
f 406/3/4 403/3/4 407/3/4
f 408/3/4 409/3/4 410/3/4
f 410/3/4 409/3/4 411/3/4
f 412/3/4 413/3/4 415/3/4
f 413/3/4 414/3/4 415/3/4
f 415/3/4 414/3/4 416/3/4
f 417/3/4 418/3/4 421/3/4
f 421/3/4 418/3/4 422/3/4
f 419/3/4 420/3/4 423/3/4
f 423/3/4 420/3/4 424/3/4
f 425/3/4 426/3/4 429/3/4
f 427/3/4 428/3/4 431/3/4
f 431/3/4 428/3/4 432/3/4
f 429/3/4 430/3/4 433/3/4
f 425/3/4 429/3/4 433/3/4
f 433/3/4 430/3/4 434/3/4
f 430/5/4 431/5/4 435/5/4
f 434/3/4 430/3/4 435/3/4
f 435/5/4 431/5/4 436/5/4
f 436/5/4 431/5/4 437/5/4
f 434/3/4 435/3/4 438/3/4
f 435/4/4 436/4/4 439/4/4
f 438/3/4 435/3/4 439/3/4
f 439/4/4 436/4/4 440/4/4
f 441/3/4 442/3/4 444/3/4
f 444/3/4 442/3/4 445/3/4
f 443/3/4 444/3/4 445/3/4
f 443/3/4 445/3/4 447/3/4
f 445/3/4 446/3/4 447/3/4
f 447/3/4 446/3/4 448/3/4
f 449/3/4 450/3/4 456/3/4
f 450/3/4 451/3/4 456/3/4
f 451/2/4 452/2/4 457/2/4
f 456/3/4 451/3/4 457/3/4
f 452/2/4 453/2/4 457/2/4
f 457/2/4 453/2/4 458/2/4
f 454/3/4 455/3/4 459/3/4
f 458/2/4 453/2/4 459/2/4
f 453/3/4 454/3/4 459/3/4
f 459/3/4 455/3/4 460/3/4
f 460/3/4 455/3/4 461/3/4
f 457/2/4 458/2/4 462/2/4
f 456/2/4 457/2/4 462/2/4
f 459/3/4 460/3/4 463/3/4
f 462/2/4 458/2/4 463/2/4
f 458/3/4 459/3/4 463/3/4
f 463/3/4 460/3/4 464/3/4
f 464/3/4 460/3/4 465/3/4
f 456/2/4 462/2/4 466/2/4
f 449/3/4 456/3/4 466/3/4
f 463/3/4 464/3/4 467/3/4
f 466/2/4 462/2/4 467/2/4
f 462/3/4 463/3/4 467/3/4
f 467/3/4 464/3/4 468/3/4
f 468/3/4 464/3/4 469/3/4
f 449/3/4 466/3/4 470/3/4
f 466/3/4 467/3/4 470/3/4
f 467/3/4 468/3/4 470/3/4
f 470/3/4 468/3/4 471/3/4
f 472/3/4 473/3/4 475/3/4
f 475/3/4 473/3/4 476/3/4
f 476/3/4 473/3/4 477/3/4
f 477/3/4 473/3/4 478/3/4
f 474/3/4 475/3/4 481/3/4
f 475/3/4 476/3/4 481/3/4
f 481/3/4 476/3/4 482/3/4
f 476/2/4 477/2/4 483/2/4
f 482/3/4 476/3/4 483/3/4
f 478/3/4 479/3/4 484/3/4
f 483/2/4 477/2/4 484/2/4
f 477/3/4 478/3/4 484/3/4
f 484/3/4 479/3/4 485/3/4
f 485/3/4 479/3/4 486/3/4
f 480/3/4 481/3/4 489/3/4
f 481/3/4 482/3/4 489/3/4
f 489/3/4 482/3/4 490/3/4
f 482/2/4 483/2/4 491/2/4
f 490/3/4 482/3/4 491/3/4
f 483/2/4 484/2/4 491/2/4
f 484/2/4 485/2/4 491/2/4
f 489/3/4 490/3/4 492/3/4
f 488/3/4 489/3/4 492/3/4
f 490/2/4 491/2/4 493/2/4
f 492/3/4 490/3/4 493/3/4
f 491/2/4 485/2/4 494/2/4
f 493/2/4 491/2/4 494/2/4
f 486/3/4 487/3/4 494/3/4
f 485/3/4 486/3/4 494/3/4
f 494/3/4 487/3/4 495/3/4
f 499/3/5 497/3/5 496/3/5
f 502/5/5 501/5/5 500/5/5
f 503/5/5 501/5/5 502/5/5
f 504/3/5 499/3/5 498/3/5
f 505/3/5 497/3/5 499/3/5
f 505/3/5 499/3/5 504/3/5
f 506/3/5 497/3/5 505/3/5
f 507/3/5 497/3/5 506/3/5
f 511/3/5 509/3/5 508/3/5
f 512/3/5 509/3/5 511/3/5
f 513/3/5 509/3/5 512/3/5
f 516/3/5 511/3/5 510/3/5
f 516/3/5 512/3/5 511/3/5
f 517/3/5 512/3/5 516/3/5
f 518/3/5 515/3/5 514/3/5
f 520/3/5 519/3/5 518/3/5
f 520/3/5 518/3/5 514/3/5
f 521/3/5 519/3/5 520/3/5
f 522/3/5 520/3/5 514/3/5
f 524/3/5 516/3/5 510/3/5
f 526/3/5 523/3/5 522/3/5
f 526/3/5 522/3/5 514/3/5
f 527/3/5 523/3/5 526/3/5
f 528/3/5 525/3/5 524/3/5
f 528/3/5 524/3/5 510/3/5
f 529/3/5 525/3/5 528/3/5
f 530/3/5 525/3/5 529/3/5
f 532/3/5 526/3/5 514/3/5
f 533/3/5 526/3/5 532/3/5
f 534/3/5 531/3/5 530/3/5
f 534/3/5 530/3/5 529/3/5
f 535/3/5 531/3/5 534/3/5
f 538/3/5 537/3/5 536/3/5
f 539/3/5 537/3/5 538/3/5
f 542/3/5 541/3/5 540/3/5
f 543/3/5 541/3/5 542/3/5
f 546/3/5 545/3/5 544/3/5
f 547/3/5 545/3/5 546/3/5
f 550/3/5 549/3/5 548/3/5
f 551/3/5 549/3/5 550/3/5
f 554/3/5 553/3/5 552/3/5
f 555/3/5 553/3/5 554/3/5
f 558/3/5 557/3/5 556/3/5
f 559/3/5 557/3/5 558/3/5
f 562/3/5 561/3/5 560/3/5
f 563/3/5 561/3/5 562/3/5
f 566/3/5 565/3/5 564/3/5
f 568/3/5 566/3/5 564/3/5
f 568/3/5 567/3/5 566/3/5
f 569/3/5 567/3/5 568/3/5
f 572/3/5 571/3/5 570/3/5
f 573/3/5 571/3/5 572/3/5
f 576/3/5 575/3/5 574/3/5
f 577/3/5 575/3/5 576/3/5
f 578/3/5 576/3/5 574/3/5
f 579/3/5 576/3/5 578/3/5
f 582/3/5 581/3/5 580/3/5
f 583/3/5 581/3/5 582/3/5
f 586/3/5 585/3/5 584/3/5
f 587/3/5 585/3/5 586/3/5
f 590/3/5 589/3/5 588/3/5
f 591/3/5 589/3/5 590/3/5
f 594/3/5 593/3/5 592/3/5
f 595/3/5 593/3/5 594/3/5
f 598/3/5 597/3/5 596/3/5
f 599/3/5 597/3/5 598/3/5
f 600/3/6 601/3/6 602/3/6
f 602/3/6 601/3/6 603/3/6
f 604/4/6 605/4/6 606/4/6
f 606/4/6 605/4/6 607/4/6
f 606/3/6 607/3/6 608/3/6
f 608/3/6 607/3/6 609/3/6
f 609/3/6 607/3/6 610/3/6
f 610/3/6 607/3/6 611/3/6
f 610/4/6 611/4/6 612/4/6
f 612/4/6 611/4/6 613/4/6
f 614/3/6 615/3/6 618/3/6
f 618/3/6 615/3/6 619/3/6
f 619/5/6 620/5/6 621/5/6
f 621/5/6 620/5/6 622/5/6
f 621/3/6 622/3/6 623/3/6
f 623/3/6 622/3/6 624/3/6
f 625/3/6 626/3/6 627/3/6
f 627/3/6 626/3/6 628/3/6
f 616/3/6 617/3/6 629/3/6
f 629/3/6 617/3/6 630/3/6
f 627/5/6 628/5/6 632/5/6
f 632/5/6 628/5/6 633/5/6
f 631/3/6 632/3/6 634/3/6
f 634/3/6 632/3/6 635/3/6
f 636/3/6 637/3/6 639/3/6
f 637/3/6 638/3/6 639/3/6
f 636/3/6 639/3/6 641/3/6
f 639/3/6 640/3/6 641/3/6
f 641/3/6 640/3/6 642/3/6
f 636/3/6 641/3/6 643/3/6
f 643/3/6 641/3/6 644/3/6
f 644/3/6 641/3/6 645/3/6
f 646/3/6 647/3/6 648/3/6
f 648/3/6 647/3/6 649/3/6
f 650/3/6 651/3/6 652/3/6
f 652/3/6 651/3/6 653/3/6
f 654/3/6 655/3/6 656/3/6
f 656/3/6 655/3/6 657/3/6
f 658/3/6 659/3/6 660/3/6
f 660/3/6 659/3/6 661/3/6
f 662/3/6 663/3/6 664/3/6
f 664/3/6 663/3/6 665/3/6
f 666/3/6 667/3/6 668/3/6
f 668/3/6 667/3/6 669/3/6
f 670/3/6 671/3/6 674/3/6
f 674/3/6 671/3/6 675/3/6
f 672/3/6 673/3/6 676/3/6
f 676/3/6 673/3/6 677/3/6
f 678/3/6 679/3/6 682/3/6
f 682/3/6 679/3/6 683/3/6
f 680/3/6 681/3/6 684/3/6
f 684/3/6 681/3/6 685/3/6
f 686/3/6 687/3/6 690/3/6
f 690/3/6 687/3/6 691/3/6
f 688/3/6 689/3/6 692/3/6
f 692/3/6 689/3/6 693/3/6
f 693/3/6 689/3/6 694/3/6
f 695/3/6 696/3/6 699/3/6
f 699/3/6 696/3/6 700/3/6
f 700/3/6 696/3/6 701/3/6
f 697/3/6 698/3/6 702/3/6
f 702/3/6 698/3/6 703/3/6
f 704/3/6 705/3/6 706/3/6
f 706/3/6 705/3/6 707/3/6
f 708/3/6 709/3/6 710/3/6
f 710/3/6 709/3/6 711/3/6
