# MagicaVoxel @ Ephtracy

# group
o 

# material
mtllib graveler-v4-0.mtl
usemtl palette

# normals
vn 0 0 1
vn 0 0 -1
vn -1 0 0
vn 1 0 0
vn 0 -1 0
vn 0 1 0

# texcoords
vt 0.849609 0.5

# verts
v -0.5 -2.23517e-08 1.5
v -0.3 -2.23517e-08 1.5
v -0.2 -2.23517e-08 1.5
v 0.0999999 -2.23517e-08 1.5
v -0.5 0.3 1.5
v -0.3 0.3 1.5
v -0.2 0.3 1.5
v 0.0999999 0.3 1.5
v 0.2 -2.23517e-08 1.4
v 0.4 -2.23517e-08 1.4
v 0.2 0.3 1.4
v 0.4 0.3 1.4
v -0.3 -2.23517e-08 1.3
v -0.2 -2.23517e-08 1.3
v -0.4 0.3 1.3
v -0.3 0.3 1.3
v -0.2 0.3 1.3
v 0.0999999 0.3 1.3
v -0.4 0.5 1.3
v -0.3 0.5 1.3
v 0.0999999 0.7 1.3
v 0.2 0.7 1.3
v -0.3 0.8 1.3
v 0.2 0.8 1.3
v 0.0999999 -2.23517e-08 1.2
v 0.2 -2.23517e-08 1.2
v 0.2 0.3 1.2
v 0.3 0.3 1.2
v -0.4 0.5 1.2
v -0.3 0.5 1.2
v 0.0999999 0.7 1.2
v 0.2 0.7 1.2
v 0.3 0.7 1.2
v 0.4 0.7 1.2
v -0.4 0.8 1.2
v -0.3 0.8 1.2
v 0.2 0.8 1.2
v 0.4 0.8 1.2
v -0.5 0.3 1.1
v -0.4 0.3 1.1
v -0.5 0.5 1.1
v -0.4 0.5 1.1
v 0.3 0.6 1.1
v 0.4 0.6 1.1
v 0.3 0.7 1.1
v 0.4 0.7 1.1
v 0.3 0.3 1
v 0.4 0.3 1
v 0.3 0.6 1
v 0.4 0.6 1
v 0.3 -2.23517e-08 0.9
v 0.4 -2.23517e-08 0.9
v 0.3 0.8 0.9
v 0.4 0.8 0.9
v -0.5 -2.23517e-08 0.6
v 0.3 -2.23517e-08 0.6
v -0.5 0.5 0.6
v -0.4 0.5 0.6
v -0.4 0.8 0.6
v 0.3 0.8 0.6
v -0.5 -2.23517e-08 1.5
v -0.5 0.3 1.5
v -0.5 0.3 1.1
v -0.5 0.5 1.1
v -0.5 -2.23517e-08 0.6
v -0.5 0.5 0.6
v -0.4 0.3 1.3
v -0.4 0.5 1.3
v -0.4 0.5 1.2
v -0.4 0.8 1.2
v -0.4 0.3 1.1
v -0.4 0.5 1.1
v -0.4 0.5 0.6
v -0.4 0.8 0.6
v -0.3 0.5 1.3
v -0.3 0.8 1.3
v -0.3 0.5 1.2
v -0.3 0.8 1.2
v -0.2 -2.23517e-08 1.5
v -0.2 0.3 1.5
v -0.2 -2.23517e-08 1.3
v -0.2 0.3 1.3
v 0.2 -2.23517e-08 1.4
v 0.2 0.3 1.4
v 0.2 -2.23517e-08 1.2
v 0.2 0.3 1.2
v -0.3 -2.23517e-08 1.5
v -0.3 0.3 1.5
v -0.3 -2.23517e-08 1.3
v -0.3 0.3 1.3
v 0.0999999 -2.23517e-08 1.5
v 0.0999999 0.3 1.5
v 0.0999999 0.3 1.3
v 0.0999999 0.7 1.3
v 0.0999999 -2.23517e-08 1.2
v 0.0999999 0.7 1.2
v 0.2 0.7 1.3
v 0.2 0.8 1.3
v 0.2 0.7 1.2
v 0.2 0.8 1.2
v 0.3 0.3 1.2
v 0.3 0.7 1.2
v 0.3 0.6 1.1
v 0.3 0.7 1.1
v 0.3 0.3 1
v 0.3 0.6 1
v 0.3 -2.23517e-08 0.9
v 0.3 0.8 0.9
v 0.3 -2.23517e-08 0.6
v 0.3 0.8 0.6
v 0.4 -2.23517e-08 1.4
v 0.4 0.3 1.4
v 0.4 0.7 1.2
v 0.4 0.8 1.2
v 0.4 0.6 1.1
v 0.4 0.7 1.1
v 0.4 0.3 1
v 0.4 0.6 1
v 0.4 -2.23517e-08 0.9
v 0.4 0.8 0.9
v -0.5 -2.23517e-08 1.5
v -0.5 -2.23517e-08 0.6
v -0.3 -2.23517e-08 1.5
v -0.3 -2.23517e-08 1.3
v -0.2 -2.23517e-08 1.5
v -0.2 -2.23517e-08 1.3
v 0.0999999 -2.23517e-08 1.5
v 0.0999999 -2.23517e-08 1.2
v 0.2 -2.23517e-08 1.4
v 0.2 -2.23517e-08 1.2
v 0.3 -2.23517e-08 0.9
v 0.3 -2.23517e-08 0.6
v 0.4 -2.23517e-08 1.4
v 0.4 -2.23517e-08 0.9
v 0.3 0.6 1.1
v 0.3 0.6 1
v 0.4 0.6 1.1
v 0.4 0.6 1
v 0.0999999 0.7 1.3
v 0.0999999 0.7 1.2
v 0.2 0.7 1.3
v 0.2 0.7 1.2
v 0.3 0.7 1.2
v 0.3 0.7 1.1
v 0.4 0.7 1.2
v 0.4 0.7 1.1
v -0.5 0.3 1.5
v -0.5 0.3 1.1
v -0.4 0.3 1.3
v -0.4 0.3 1.1
v -0.3 0.3 1.5
v -0.3 0.3 1.3
v -0.2 0.3 1.5
v -0.2 0.3 1.3
v 0.0999999 0.3 1.5
v 0.0999999 0.3 1.3
v 0.2 0.3 1.4
v 0.2 0.3 1.2
v 0.3 0.3 1.2
v 0.3 0.3 1
v 0.4 0.3 1.4
v 0.4 0.3 1
v -0.5 0.5 1.1
v -0.5 0.5 0.6
v -0.4 0.5 1.3
v -0.4 0.5 1.2
v -0.4 0.5 1.1
v -0.4 0.5 0.6
v -0.3 0.5 1.3
v -0.3 0.5 1.2
v -0.4 0.8 1.2
v -0.4 0.8 0.6
v -0.3 0.8 1.3
v -0.3 0.8 1.2
v 0.2 0.8 1.3
v 0.2 0.8 1.2
v 0.3 0.8 0.9
v 0.3 0.8 0.6
v 0.4 0.8 1.2
v 0.4 0.8 0.9

# faces
f 1/1/1 2/1/1 5/1/1
f 5/1/1 2/1/1 6/1/1
f 3/1/1 4/1/1 7/1/1
f 7/1/1 4/1/1 8/1/1
f 9/1/1 10/1/1 11/1/1
f 11/1/1 10/1/1 12/1/1
f 13/1/1 14/1/1 16/1/1
f 16/1/1 14/1/1 17/1/1
f 15/1/1 16/1/1 19/1/1
f 17/1/1 18/1/1 19/1/1
f 16/1/1 17/1/1 19/1/1
f 19/1/1 18/1/1 20/1/1
f 20/1/1 18/1/1 21/1/1
f 20/1/1 21/1/1 23/1/1
f 21/1/1 22/1/1 23/1/1
f 23/1/1 22/1/1 24/1/1
f 25/1/1 26/1/1 27/1/1
f 25/1/1 27/1/1 31/1/1
f 27/1/1 28/1/1 31/1/1
f 31/1/1 28/1/1 32/1/1
f 32/1/1 28/1/1 33/1/1
f 29/1/1 30/1/1 35/1/1
f 35/1/1 30/1/1 36/1/1
f 33/1/1 34/1/1 37/1/1
f 32/1/1 33/1/1 37/1/1
f 37/1/1 34/1/1 38/1/1
f 39/1/1 40/1/1 41/1/1
f 41/1/1 40/1/1 42/1/1
f 43/1/1 44/1/1 45/1/1
f 45/1/1 44/1/1 46/1/1
f 47/1/1 48/1/1 49/1/1
f 49/1/1 48/1/1 50/1/1
f 53/1/2 52/1/2 51/1/2
f 54/1/2 52/1/2 53/1/2
f 57/1/2 56/1/2 55/1/2
f 58/1/2 56/1/2 57/1/2
f 59/1/2 56/1/2 58/1/2
f 60/1/2 56/1/2 59/1/2
f 61/1/3 62/1/3 63/1/3
f 61/1/3 63/1/3 65/1/3
f 63/1/3 64/1/3 65/1/3
f 65/1/3 64/1/3 66/1/3
f 67/1/3 68/1/3 69/1/3
f 67/1/3 69/1/3 71/1/3
f 69/1/3 70/1/3 71/1/3
f 71/1/3 70/1/3 72/1/3
f 72/1/3 70/1/3 73/1/3
f 73/1/3 70/1/3 74/1/3
f 75/1/3 76/1/3 77/1/3
f 77/1/3 76/1/3 78/1/3
f 79/1/3 80/1/3 81/1/3
f 81/1/3 80/1/3 82/1/3
f 83/1/3 84/1/3 85/1/3
f 85/1/3 84/1/3 86/1/3
f 89/1/4 88/1/4 87/1/4
f 90/1/4 88/1/4 89/1/4
f 93/1/4 92/1/4 91/1/4
f 95/1/4 93/1/4 91/1/4
f 95/1/4 94/1/4 93/1/4
f 96/1/4 94/1/4 95/1/4
f 99/1/4 98/1/4 97/1/4
f 100/1/4 98/1/4 99/1/4
f 103/1/4 102/1/4 101/1/4
f 104/1/4 102/1/4 103/1/4
f 105/1/4 103/1/4 101/1/4
f 106/1/4 103/1/4 105/1/4
f 109/1/4 108/1/4 107/1/4
f 110/1/4 108/1/4 109/1/4
f 116/1/4 114/1/4 113/1/4
f 117/1/4 112/1/4 111/1/4
f 118/1/4 116/1/4 115/1/4
f 119/1/4 117/1/4 111/1/4
f 119/1/4 118/1/4 117/1/4
f 120/1/4 116/1/4 118/1/4
f 120/1/4 118/1/4 119/1/4
f 120/1/4 114/1/4 116/1/4
f 121/1/5 122/1/5 123/1/5
f 123/1/5 122/1/5 124/1/5
f 124/1/5 122/1/5 126/1/5
f 125/1/5 126/1/5 127/1/5
f 126/1/5 122/1/5 128/1/5
f 127/1/5 126/1/5 128/1/5
f 128/1/5 122/1/5 130/1/5
f 130/1/5 122/1/5 131/1/5
f 129/1/5 130/1/5 131/1/5
f 131/1/5 122/1/5 132/1/5
f 129/1/5 131/1/5 133/1/5
f 133/1/5 131/1/5 134/1/5
f 135/1/5 136/1/5 137/1/5
f 137/1/5 136/1/5 138/1/5
f 139/1/5 140/1/5 141/1/5
f 141/1/5 140/1/5 142/1/5
f 143/1/5 144/1/5 145/1/5
f 145/1/5 144/1/5 146/1/5
f 149/1/6 148/1/6 147/1/6
f 150/1/6 148/1/6 149/1/6
f 151/1/6 149/1/6 147/1/6
f 152/1/6 149/1/6 151/1/6
f 155/1/6 154/1/6 153/1/6
f 156/1/6 154/1/6 155/1/6
f 159/1/6 158/1/6 157/1/6
f 161/1/6 159/1/6 157/1/6
f 161/1/6 160/1/6 159/1/6
f 162/1/6 160/1/6 161/1/6
f 167/1/6 164/1/6 163/1/6
f 168/1/6 164/1/6 167/1/6
f 169/1/6 166/1/6 165/1/6
f 170/1/6 166/1/6 169/1/6
f 174/1/6 172/1/6 171/1/6
f 175/1/6 174/1/6 173/1/6
f 176/1/6 172/1/6 174/1/6
f 176/1/6 174/1/6 175/1/6
f 177/1/6 172/1/6 176/1/6
f 178/1/6 172/1/6 177/1/6
f 179/1/6 177/1/6 176/1/6
f 180/1/6 177/1/6 179/1/6
