# MagicaVoxel @ Ephtracy

# group
o 

# material
mtllib graveler-v4-2.mtl
usemtl palette

# normals
vn 1 0 0
vn -1 0 0
vn 0 0 1
vn 0 0 -1
vn 0 -1 0
vn 0 1 0

# texcoords
vt 0.822266 0.5
vt 0.849609 0.5

# verts
v 0.7 1.1 2.3
v 0.7 1.1 2.1
v 0.7 1.3 2.3
v 0.7 1.3 2.1
v 0.7 1.4 2.3
v 0.7 1.4 2.1
v 0.7 1.5 2.3
v 0.7 1.5 2.1
v 0.6 1.3 2.2
v 0.6 1.3 2.1
v 0.6 1.4 2.2
v 0.6 1.4 2.1
v 0.5 1.1 2.1
v 0.5 1.1 2
v 0.5 1.2 2
v 0.5 1.2 1.9
v 0.5 1.3 2.3
v 0.5 1.3 2.2
v 0.5 1.4 2.3
v 0.5 1.4 2.2
v 0.5 1.4 2
v 0.5 1.4 1.9
v 0.5 1.5 2.1
v 0.5 1.5 2
v 0.4 1.1 2
v 0.4 1.1 1.9
v 0.4 1.2 2
v 0.4 1.2 1.9
v 0.4 1.4 2
v 0.4 1.4 1.9
v 0.4 1.5 2
v 0.4 1.5 1.9
v 0.1 1.2 1.9
v 0.1 1.2 1.8
v 0.1 1.5 2.2
v 0.1 1.5 2.1
v 0.1 1.5 1.9
v 0.1 1.5 1.8
v 0.1 1.6 2.2
v 0.1 1.6 2.1
v 0.1 1.6 1.9
v 0 1.5 1.9
v 0 1.5 1.8
v 0 1.6 1.9
v 0 1.6 1.8
v -0.3 1.4 1.8
v -0.3 1.4 1.7
v -0.3 1.6 2.1
v -0.3 1.6 1.8
v -0.3 1.7 1.8
v -0.3 1.7 1.7
v -0.3 1.8 2.1
v -0.3 1.8 1.8
v -0.4 1.3 2.1
v -0.4 1.3 1.9
v -0.4 1.4 2.1
v -0.4 1.4 1.9
v -0.4 1.6 1.7
v -0.4 1.6 1.6
v -0.4 1.7 1.8
v -0.4 1.7 1.7
v -0.4 1.8 1.8
v -0.4 1.8 1.6
v -0.5 1.8 1.8
v -0.5 1.8 1.6
v -0.5 1.9 1.8
v -0.5 1.9 1.6
v 0.2 1.1 2.3
v 0.2 1.1 2.2
v 0.2 1.2 2.3
v 0.2 1.2 2.2
v 0.2 1.4 2.3
v 0.2 1.4 2.2
v 0.2 1.5 2.3
v 0.2 1.5 2.2
v 0.1 1.1 2.2
v 0.1 1.1 1.9
v 0.1 1.2 2.3
v 0.1 1.2 2.2
v 0.1 1.2 1.9
v 0.1 1.4 2.3
v 0.1 1.4 2.2
v -0.2 1.2 2.2
v -0.2 1.2 2.1
v -0.2 1.3 2.2
v -0.2 1.3 2.1
v -0.2 1.5 2.2
v -0.2 1.5 2.1
v -0.2 1.6 2.2
v -0.2 1.6 2.1
v -0.3 1.2 2.1
v -0.3 1.2 1.8
v -0.3 1.3 2.2
v -0.3 1.3 2.1
v -0.3 1.4 2.1
v -0.3 1.4 1.8
v -0.3 1.5 2.2
v -0.3 1.5 2.1
v -0.6 1.3 2.1
v -0.6 1.3 1.9
v -0.6 1.4 2
v -0.6 1.4 1.9
v -0.6 1.5 2.1
v -0.6 1.5 2
v -0.6 1.7 2.1
v -0.6 1.7 2
v -0.6 1.8 2.1
v -0.6 1.8 2
v -0.7 1.4 2
v -0.7 1.4 1.7
v -0.7 1.5 2.1
v -0.7 1.5 2
v -0.7 1.6 1.7
v -0.7 1.6 1.6
v -0.7 1.7 2.1
v -0.7 1.7 2
v -0.7 1.8 2
v -0.7 1.8 1.8
v -0.7 1.8 1.6
v -0.7 1.9 1.8
v -0.7 1.9 1.6
v 0.7 1.1 2.3
v 0.7 1.3 2.3
v 0.7 1.4 2.3
v 0.7 1.5 2.3
v 0.5 1.3 2.3
v 0.5 1.4 2.3
v 0.2 1.1 2.3
v 0.2 1.2 2.3
v 0.2 1.4 2.3
v 0.2 1.5 2.3
v 0.1 1.2 2.3
v 0.1 1.4 2.3
v 0.6 1.3 2.2
v 0.6 1.4 2.2
v 0.5 1.3 2.2
v 0.5 1.4 2.2
v 0.2 1.1 2.2
v 0.2 1.2 2.2
v 0.2 1.4 2.2
v 0.2 1.5 2.2
v 0.1 1.1 2.2
v 0.1 1.2 2.2
v 0.1 1.4 2.2
v 0.1 1.5 2.2
v 0.1 1.6 2.2
v 0 1.4 2.2
v 0 1.6 2.2
v -0.2 1.2 2.2
v -0.2 1.3 2.2
v -0.2 1.5 2.2
v -0.2 1.6 2.2
v -0.3 1.3 2.2
v -0.3 1.5 2.2
v -0.2 1.2 2.1
v -0.2 1.3 2.1
v -0.2 1.5 2.1
v -0.2 1.6 2.1
v -0.3 1.2 2.1
v -0.3 1.3 2.1
v -0.3 1.4 2.1
v -0.3 1.5 2.1
v -0.3 1.6 2.1
v -0.3 1.8 2.1
v -0.4 1.3 2.1
v -0.4 1.4 2.1
v -0.4 1.5 2.1
v -0.6 1.3 2.1
v -0.6 1.5 2.1
v -0.6 1.7 2.1
v -0.6 1.8 2.1
v -0.7 1.5 2.1
v -0.7 1.7 2.1
v -0.6 1.4 2
v -0.6 1.5 2
v -0.6 1.7 2
v -0.6 1.8 2
v -0.7 1.4 2
v -0.7 1.5 2
v -0.7 1.7 2
v -0.7 1.8 2
v -0.5 1.8 1.8
v -0.5 1.9 1.8
v -0.7 1.8 1.8
v -0.7 1.9 1.8
v 0.7 1.1 2.1
v 0.7 1.3 2.1
v 0.7 1.4 2.1
v 0.7 1.5 2.1
v 0.6 1.3 2.1
v 0.6 1.4 2.1
v 0.5 1.1 2.1
v 0.5 1.5 2.1
v 0.5 1.1 2
v 0.5 1.2 2
v 0.5 1.4 2
v 0.5 1.5 2
v 0.4 1.1 2
v 0.4 1.2 2
v 0.4 1.4 2
v 0.4 1.5 2
v 0.5 1.2 1.9
v 0.5 1.4 1.9
v 0.4 1.1 1.9
v 0.4 1.2 1.9
v 0.4 1.4 1.9
v 0.4 1.5 1.9
v 0.1 1.1 1.9
v 0.1 1.2 1.9
v 0.1 1.5 1.9
v 0.1 1.6 1.9
v 0 1.5 1.9
v 0 1.6 1.9
v -0.4 1.3 1.9
v -0.4 1.4 1.9
v -0.6 1.3 1.9
v -0.6 1.4 1.9
v 0.1 1.2 1.8
v 0.1 1.5 1.8
v 0 1.5 1.8
v 0 1.6 1.8
v -0.3 1.2 1.8
v -0.3 1.4 1.8
v -0.3 1.6 1.8
v -0.3 1.7 1.8
v -0.3 1.8 1.8
v -0.4 1.7 1.8
v -0.4 1.8 1.8
v -0.3 1.4 1.7
v -0.3 1.7 1.7
v -0.4 1.6 1.7
v -0.4 1.7 1.7
v -0.7 1.4 1.7
v -0.7 1.6 1.7
v -0.4 1.6 1.6
v -0.4 1.8 1.6
v -0.5 1.8 1.6
v -0.5 1.9 1.6
v -0.7 1.6 1.6
v -0.7 1.8 1.6
v -0.7 1.9 1.6
v 0.7 1.1 2.3
v 0.2 1.1 2.3
v 0.2 1.1 2.2
v 0.1 1.1 2.2
v 0.7 1.1 2.1
v 0.5 1.1 2.1
v 0.5 1.1 2
v 0.4 1.1 2
v 0.4 1.1 1.9
v 0.1 1.1 1.9
v 0.2 1.2 2.3
v 0.1 1.2 2.3
v 0.2 1.2 2.2
v 0.1 1.2 2.2
v -0.2 1.2 2.2
v -0.2 1.2 2.1
v -0.3 1.2 2.1
v 0.5 1.2 2
v 0.4 1.2 2
v 0.5 1.2 1.9
v 0.4 1.2 1.9
v 0.1 1.2 1.9
v 0.1 1.2 1.8
v -0.3 1.2 1.8
v -0.2 1.3 2.2
v -0.3 1.3 2.2
v -0.2 1.3 2.1
v -0.3 1.3 2.1
v -0.4 1.3 2.1
v -0.6 1.3 2.1
v -0.4 1.3 1.9
v -0.6 1.3 1.9
v 0.7 1.4 2.3
v 0.5 1.4 2.3
v 0.6 1.4 2.2
v 0.5 1.4 2.2
v 0.7 1.4 2.1
v 0.6 1.4 2.1
v -0.3 1.4 2.1
v -0.4 1.4 2.1
v -0.6 1.4 2
v -0.7 1.4 2
v -0.4 1.4 1.9
v -0.6 1.4 1.9
v -0.3 1.4 1.8
v -0.3 1.4 1.7
v -0.7 1.4 1.7
v -0.6 1.5 2.1
v -0.7 1.5 2.1
v -0.6 1.5 2
v -0.7 1.5 2
v -0.4 1.6 1.7
v -0.7 1.6 1.7
v -0.4 1.6 1.6
v -0.7 1.6 1.6
v 0.7 1.3 2.3
v 0.5 1.3 2.3
v 0.6 1.3 2.2
v 0.5 1.3 2.2
v 0.7 1.3 2.1
v 0.6 1.3 2.1
v 0.2 1.4 2.3
v 0.1 1.4 2.3
v 0.2 1.4 2.2
v 0.1 1.4 2.2
v 0.5 1.4 2
v 0.4 1.4 2
v 0.5 1.4 1.9
v 0.4 1.4 1.9
v 0.7 1.5 2.3
v 0.2 1.5 2.3
v 0.2 1.5 2.2
v 0.1 1.5 2.2
v -0.2 1.5 2.2
v -0.3 1.5 2.2
v 0.7 1.5 2.1
v 0.5 1.5 2.1
v 0.1 1.5 2.1
v -0.2 1.5 2.1
v -0.3 1.5 2.1
v 0.5 1.5 2
v 0.4 1.5 2
v 0.4 1.5 1.9
v 0.1 1.5 1.9
v 0 1.5 1.9
v 0.1 1.5 1.8
v 0 1.5 1.8
v 0.1 1.6 2.2
v 0 1.6 2.2
v -0.2 1.6 2.2
v 0.1 1.6 2.1
v 0 1.6 2.1
v -0.2 1.6 2.1
v -0.3 1.6 2.1
v 0.1 1.6 1.9
v 0 1.6 1.9
v 0 1.6 1.8
v -0.3 1.6 1.8
v -0.6 1.7 2.1
v -0.7 1.7 2.1
v -0.6 1.7 2
v -0.7 1.7 2
v -0.3 1.7 1.8
v -0.4 1.7 1.8
v -0.3 1.7 1.7
v -0.4 1.7 1.7
v -0.3 1.8 2.1
v -0.6 1.8 2.1
v -0.6 1.8 2
v -0.7 1.8 2
v -0.3 1.8 1.8
v -0.4 1.8 1.8
v -0.5 1.8 1.8
v -0.7 1.8 1.8
v -0.4 1.8 1.6
v -0.5 1.8 1.6
v -0.5 1.9 1.8
v -0.7 1.9 1.8
v -0.5 1.9 1.6
v -0.7 1.9 1.6

# faces
f 1/2/1 2/2/1 3/2/1
f 3/2/1 2/2/1 4/2/1
f 5/2/1 6/2/1 7/2/1
f 7/2/1 6/2/1 8/2/1
f 9/2/1 10/2/1 11/2/1
f 11/2/1 10/2/1 12/2/1
f 13/2/1 14/2/1 15/2/1
f 17/2/1 18/2/1 19/2/1
f 19/2/1 18/2/1 20/2/1
f 13/2/1 15/2/1 21/2/1
f 15/2/1 16/2/1 21/2/1
f 21/2/1 16/2/1 22/2/1
f 13/2/1 21/2/1 23/2/1
f 23/2/1 21/2/1 24/2/1
f 25/2/1 26/2/1 27/2/1
f 27/2/1 26/2/1 28/2/1
f 29/2/1 30/2/1 31/2/1
f 31/2/1 30/2/1 32/2/1
f 33/2/1 34/2/1 37/2/1
f 37/2/1 34/2/1 38/2/1
f 35/1/1 36/1/1 39/1/1
f 36/2/1 37/2/1 40/2/1
f 39/1/1 36/1/1 40/1/1
f 40/2/1 37/2/1 41/2/1
f 42/2/1 43/2/1 44/2/1
f 44/2/1 43/2/1 45/2/1
f 46/2/1 47/2/1 49/2/1
f 49/2/1 47/2/1 50/2/1
f 48/2/1 49/2/1 50/2/1
f 50/2/1 47/2/1 51/2/1
f 48/2/1 50/2/1 52/2/1
f 52/2/1 50/2/1 53/2/1
f 54/1/1 55/1/1 56/1/1
f 56/1/1 55/1/1 57/1/1
f 58/2/1 59/2/1 61/2/1
f 60/2/1 61/2/1 62/2/1
f 61/2/1 59/2/1 63/2/1
f 62/2/1 61/2/1 63/2/1
f 64/1/1 65/1/1 66/1/1
f 66/1/1 65/1/1 67/1/1
f 70/2/2 69/2/2 68/2/2
f 71/2/2 69/2/2 70/2/2
f 74/2/2 73/2/2 72/2/2
f 75/2/2 73/2/2 74/2/2
f 79/2/2 77/2/2 76/2/2
f 80/2/2 77/2/2 79/2/2
f 81/2/2 79/2/2 78/2/2
f 82/2/2 79/2/2 81/2/2
f 85/2/2 84/2/2 83/2/2
f 86/2/2 84/2/2 85/2/2
f 89/2/2 88/2/2 87/2/2
f 90/2/2 88/2/2 89/2/2
f 94/2/2 92/2/2 91/2/2
f 95/2/2 92/2/2 94/2/2
f 95/2/2 94/2/2 93/2/2
f 96/2/2 92/2/2 95/2/2
f 97/2/2 95/2/2 93/2/2
f 98/2/2 95/2/2 97/2/2
f 101/1/2 100/1/2 99/1/2
f 102/1/2 100/1/2 101/1/2
f 103/1/2 101/1/2 99/1/2
f 104/1/2 101/1/2 103/1/2
f 107/2/2 106/2/2 105/2/2
f 108/2/2 106/2/2 107/2/2
f 112/2/2 110/2/2 109/2/2
f 113/2/2 110/2/2 112/2/2
f 113/2/2 112/2/2 111/2/2
f 115/2/2 113/2/2 111/2/2
f 115/2/2 114/2/2 113/2/2
f 116/2/2 114/2/2 115/2/2
f 117/2/2 114/2/2 116/2/2
f 118/2/2 114/2/2 117/2/2
f 119/2/2 114/2/2 118/2/2
f 120/1/2 119/1/2 118/1/2
f 121/1/2 119/1/2 120/1/2
f 122/2/3 123/2/3 126/2/3
f 124/2/3 125/2/3 127/2/3
f 122/2/3 126/2/3 128/2/3
f 126/2/3 127/2/3 128/2/3
f 128/2/3 127/2/3 129/2/3
f 127/2/3 125/2/3 130/2/3
f 129/2/3 127/2/3 130/2/3
f 130/2/3 125/2/3 131/2/3
f 129/2/3 130/2/3 132/2/3
f 132/2/3 130/2/3 133/2/3
f 134/2/3 135/2/3 136/2/3
f 136/2/3 135/2/3 137/2/3
f 138/2/3 139/2/3 142/2/3
f 142/2/3 139/2/3 143/2/3
f 140/2/3 141/2/3 144/2/3
f 144/2/3 141/2/3 145/2/3
f 145/1/3 146/1/3 147/1/3
f 144/1/3 145/1/3 147/1/3
f 143/2/3 144/2/3 147/2/3
f 147/1/3 146/1/3 148/1/3
f 143/2/3 147/2/3 149/2/3
f 147/2/3 148/2/3 149/2/3
f 149/2/3 148/2/3 150/2/3
f 150/2/3 148/2/3 151/2/3
f 151/2/3 148/2/3 152/2/3
f 150/2/3 151/2/3 153/2/3
f 153/2/3 151/2/3 154/2/3
f 155/2/3 156/2/3 159/2/3
f 159/2/3 156/2/3 160/2/3
f 157/2/3 158/2/3 162/2/3
f 162/2/3 158/2/3 163/2/3
f 163/2/3 164/2/3 166/2/3
f 162/2/3 163/2/3 166/2/3
f 161/2/3 162/2/3 166/2/3
f 166/2/3 164/2/3 167/2/3
f 165/1/3 166/1/3 168/1/3
f 166/1/3 167/1/3 168/1/3
f 167/2/3 164/2/3 169/2/3
f 168/1/3 167/1/3 169/1/3
f 169/2/3 164/2/3 170/2/3
f 170/2/3 164/2/3 171/2/3
f 169/2/3 170/2/3 172/2/3
f 172/2/3 170/2/3 173/2/3
f 174/2/3 175/2/3 178/2/3
f 178/2/3 175/2/3 179/2/3
f 176/2/3 177/2/3 180/2/3
f 180/2/3 177/2/3 181/2/3
f 182/1/3 183/1/3 184/1/3
f 184/1/3 183/1/3 185/1/3
f 190/2/4 187/2/4 186/2/4
f 191/2/4 189/2/4 188/2/4
f 192/2/4 190/2/4 186/2/4
f 192/2/4 191/2/4 190/2/4
f 193/2/4 189/2/4 191/2/4
f 193/2/4 191/2/4 192/2/4
f 198/2/4 195/2/4 194/2/4
f 199/2/4 195/2/4 198/2/4
f 200/2/4 197/2/4 196/2/4
f 201/2/4 197/2/4 200/2/4
f 205/2/4 203/2/4 202/2/4
f 206/2/4 203/2/4 205/2/4
f 208/2/4 205/2/4 204/2/4
f 208/2/4 207/2/4 206/2/4
f 208/2/4 206/2/4 205/2/4
f 209/2/4 207/2/4 208/2/4
f 210/2/4 207/2/4 209/2/4
f 212/2/4 211/2/4 210/2/4
f 213/2/4 211/2/4 212/2/4
f 216/1/4 215/1/4 214/1/4
f 217/1/4 215/1/4 216/1/4
f 220/2/4 219/2/4 218/2/4
f 222/2/4 220/2/4 218/2/4
f 222/2/4 221/2/4 220/2/4
f 223/2/4 221/2/4 222/2/4
f 224/2/4 221/2/4 223/2/4
f 227/2/4 226/2/4 225/2/4
f 228/2/4 226/2/4 227/2/4
f 231/2/4 230/2/4 229/2/4
f 232/2/4 230/2/4 231/2/4
f 233/2/4 231/2/4 229/2/4
f 234/2/4 231/2/4 233/2/4
f 237/2/4 236/2/4 235/2/4
f 239/2/4 237/2/4 235/2/4
f 240/1/4 238/1/4 237/1/4
f 240/2/4 237/2/4 239/2/4
f 241/1/4 238/1/4 240/1/4
f 242/2/5 243/2/5 244/2/5
f 242/2/5 244/2/5 246/2/5
f 244/2/5 245/2/5 246/2/5
f 246/2/5 245/2/5 247/2/5
f 247/2/5 245/2/5 248/2/5
f 248/2/5 245/2/5 249/2/5
f 249/2/5 245/2/5 250/2/5
f 250/2/5 245/2/5 251/2/5
f 252/2/5 253/2/5 254/2/5
f 254/2/5 253/2/5 255/2/5
f 255/2/5 256/2/5 257/2/5
f 259/2/5 260/2/5 261/2/5
f 261/2/5 260/2/5 262/2/5
f 255/2/5 257/2/5 263/2/5
f 257/2/5 258/2/5 263/2/5
f 263/2/5 258/2/5 264/2/5
f 264/2/5 258/2/5 265/2/5
f 266/2/5 267/2/5 268/2/5
f 268/2/5 267/2/5 269/2/5
f 270/1/5 271/1/5 272/1/5
f 272/1/5 271/1/5 273/1/5
f 274/2/5 275/2/5 276/2/5
f 276/2/5 275/2/5 277/2/5
f 274/2/5 276/2/5 278/2/5
f 278/2/5 276/2/5 279/2/5
f 280/2/5 281/2/5 284/2/5
f 282/2/5 283/2/5 285/2/5
f 280/2/5 284/2/5 286/2/5
f 284/2/5 285/2/5 286/2/5
f 286/2/5 285/2/5 287/2/5
f 285/2/5 283/2/5 288/2/5
f 287/2/5 285/2/5 288/2/5
f 289/2/5 290/2/5 291/2/5
f 291/2/5 290/2/5 292/2/5
f 293/2/5 294/2/5 295/2/5
f 295/2/5 294/2/5 296/2/5
f 299/2/6 298/2/6 297/2/6
f 300/2/6 298/2/6 299/2/6
f 301/2/6 299/2/6 297/2/6
f 302/2/6 299/2/6 301/2/6
f 305/2/6 304/2/6 303/2/6
f 306/2/6 304/2/6 305/2/6
f 309/2/6 308/2/6 307/2/6
f 310/2/6 308/2/6 309/2/6
f 313/2/6 312/2/6 311/2/6
f 317/2/6 313/2/6 311/2/6
f 317/2/6 314/2/6 313/2/6
f 318/2/6 314/2/6 317/2/6
f 319/2/6 314/2/6 318/2/6
f 320/2/6 316/2/6 315/2/6
f 321/2/6 316/2/6 320/2/6
f 322/2/6 319/2/6 318/2/6
f 323/2/6 319/2/6 322/2/6
f 324/2/6 319/2/6 323/2/6
f 325/2/6 319/2/6 324/2/6
f 327/2/6 326/2/6 325/2/6
f 328/2/6 326/2/6 327/2/6
f 332/1/6 330/1/6 329/1/6
f 333/2/6 331/2/6 330/2/6
f 333/1/6 330/1/6 332/1/6
f 334/2/6 331/2/6 333/2/6
f 336/2/6 333/2/6 332/2/6
f 336/2/6 335/2/6 334/2/6
f 336/2/6 334/2/6 333/2/6
f 337/2/6 335/2/6 336/2/6
f 338/2/6 335/2/6 337/2/6
f 339/2/6 335/2/6 338/2/6
f 342/2/6 341/2/6 340/2/6
f 343/2/6 341/2/6 342/2/6
f 346/2/6 345/2/6 344/2/6
f 347/2/6 345/2/6 346/2/6
f 350/2/6 349/2/6 348/2/6
f 352/2/6 350/2/6 348/2/6
f 352/2/6 351/2/6 350/2/6
f 353/2/6 351/2/6 352/2/6
f 354/2/6 351/2/6 353/2/6
f 355/2/6 351/2/6 354/2/6
f 356/2/6 354/2/6 353/2/6
f 357/2/6 354/2/6 356/2/6
f 360/1/6 359/1/6 358/1/6
f 361/1/6 359/1/6 360/1/6
