# MagicaVoxel @ Ephtracy

# group
o 

# material
mtllib graveler-v4-4.mtl
usemtl palette

# normals
vn 0 0 1
vn 0 0 -1
vn 1 0 0
vn -1 0 0
vn 0 -1 0
vn 0 1 0

# texcoords
vt 0.822266 0.5
vt 0.849609 0.5

# verts
v 3.6 1.7 2.9
v 3.4 1.7 2.9
v 3.5 1.9 2.9
v 3.4 1.9 2.9
v 3.6 2 2.9
v 3.5 2 2.9
v 3.6 2.1 2.9
v 3.5 2.1 2.9
v 3.5 2.2 2.9
v 3.4 2.2 2.9
v 3.6 2.3 2.9
v 3.4 2.3 2.9
v 3.1 1.8 2.8
v 2.9 1.8 2.8
v 3.5 1.9 2.8
v 3.4 1.9 2.8
v 3.1 1.9 2.8
v 3 1.9 2.8
v 3.5 2 2.8
v 3.4 2 2.8
v 3 2 2.8
v 2.9 2 2.8
v 3.5 2.1 2.8
v 3.3 2.1 2.8
v 3.5 2.2 2.8
v 3.4 2.2 2.8
v 3.4 2.3 2.8
v 3.3 2.3 2.8
v 3.1 1.9 2.7
v 3 1.9 2.7
v 3.5 2 2.7
v 3.4 2 2.7
v 3 2 2.7
v 2.9 2 2.7
v 3.5 2.1 2.7
v 3.4 2.1 2.7
v 3.1 2.1 2.7
v 2.9 2.1 2.7
v 3.4 1.7 2.6
v 3.2 1.7 2.6
v 3.2 1.8 2.6
v 3.1 1.8 2.6
v 3.6 2 2.6
v 3.5 2 2.6
v 3.6 2.1 2.6
v 3.5 2.1 2.6
v 3.4 2.1 2.6
v 3.3 2.1 2.6
v 3.2 2.1 2.6
v 3.1 2.1 2.6
v 3.3 2.3 2.6
v 3.2 2.3 2.6
v 3.2 1.7 2.5
v 3 1.7 2.5
v 3.2 1.8 2.5
v 3 1.8 2.5
v 3.2 2.1 2.5
v 3 2.1 2.5
v 3.2 2.3 2.5
v 3 2.3 2.5
v 3 2.1 2.2
v 2.9 2.1 2.2
v 3 2.3 2.2
v 2.9 2.3 2.2
v 3 1.9 2.1
v 2.9 1.9 2.1
v 3 2.1 2.1
v 2.9 2.1 2.1
v 3.5 2.3 2.1
v 3.1 2.3 2.1
v 2.9 2.3 2.1
v 3 2.4 2.1
v 2.9 2.4 2.1
v 3.5 2.5 2.1
v 3 2.5 2.1
v 3 2.4 2
v 2.9 2.4 2
v 3 2.5 2
v 2.9 2.5 2
v 3.6 2.1 1.8
v 3.5 2.1 1.8
v 2.9 2.1 1.8
v 2.8 2.1 1.8
v 3.6 2.3 1.8
v 3.5 2.3 1.8
v 2.9 2.3 1.8
v 2.8 2.3 1.8
v 3.3 2.5 1.6
v 3.1 2.5 1.6
v 3.3 2.6 1.6
v 3.1 2.6 1.6
v 2.9 2.2 1.5
v 2.7 2.2 1.5
v 3.1 2.5 1.5
v 2.9 2.5 1.5
v 3.3 2.6 1.5
v 3.1 2.6 1.5
v 2.9 2.7 1.5
v 2.7 2.7 1.5
v 3.3 2.8 1.5
v 2.9 2.8 1.5
v 2.7 2.5 1.4
v 2.6 2.5 1.4
v 2.9 2.7 1.4
v 2.7 2.7 1.4
v 2.9 2.8 1.4
v 2.6 2.8 1.4
v 3 2.8 1.2
v 2.8 2.8 1.2
v 3 2.9 1.2
v 2.8 2.9 1.2
v 2.7 2.3 1
v 2.3 2.3 1
v 2.7 2.5 1
v 2.6 2.5 1
v 3.1 2.8 1
v 3 2.8 1
v 2.8 2.8 1
v 2.6 2.8 1
v 3 2.9 1
v 2.8 2.9 1
v 2.6 2.9 1
v 2.3 2.9 1
v 3.1 3.1 1
v 2.6 3.1 1
v 2.3 2.7 0.9
v 2.2 2.7 0.9
v 2.6 2.9 0.9
v 2.3 2.9 0.9
v 2.6 3.1 0.9
v 2.2 3.1 0.9
v 2.6 3.1 0.8
v 2.3 3.1 0.8
v 2.6 3.2 0.8
v 2.3 3.2 0.8
v 2.3 3.1 0.7
v 2.2 3.1 0.7
v 2.3 3.2 0.7
v 2.2 3.2 0.7
v 3 1.8 2.4
v 2.9 1.8 2.4
v 3 2.1 2.4
v 2.9 2.1 2.4
v 3.6 1.7 2.2
v 3.5 1.7 2.2
v 3.6 1.8 2.2
v 3.5 1.8 2.2
v 3.6 2.1 2.2
v 3.5 2.1 2.2
v 3.6 2.2 2.2
v 3.5 2.2 2.2
v 3.6 2.3 2.2
v 3.5 2.3 2.2
v 3.5 1.7 2
v 3 1.7 2
v 3.6 1.8 2
v 3.5 1.8 2
v 3.5 1.9 2
v 3 1.9 2
v 3.6 2.1 2
v 3.5 2.1 2
v 3.5 1.9 1.7
v 3.3 1.9 1.7
v 3.5 2.1 1.7
v 3.3 2.1 1.7
v 3.5 2.4 1.7
v 3.3 2.4 1.7
v 3.5 2.5 1.7
v 3.3 2.5 1.7
v 3.6 2.1 1.6
v 3.5 2.1 1.6
v 2.9 2.1 1.6
v 2.8 2.1 1.6
v 3.6 2.3 1.6
v 3.5 2.3 1.6
v 2.9 2.3 1.6
v 2.8 2.3 1.6
v 3.3 1.9 1.5
v 2.9 1.9 1.5
v 3.5 2.1 1.5
v 3.3 2.1 1.5
v 3.3 2.2 1.5
v 2.9 2.2 1.5
v 3.5 2.4 1.5
v 3.3 2.4 1.5
v 3.3 2.2 1.1
v 3.2 2.2 1.1
v 3.3 2.4 1.1
v 3.2 2.4 1.1
v 3.3 2.7 1.1
v 3.2 2.7 1.1
v 3.3 2.8 1.1
v 3.2 2.8 1.1
v 3.2 2.2 0.9
v 2.7 2.2 0.9
v 3.1 2.3 0.9
v 2.7 2.3 0.9
v 3.3 2.4 0.9
v 3.2 2.4 0.9
v 3.2 2.5 0.9
v 3.1 2.5 0.9
v 3.3 2.7 0.9
v 3.2 2.7 0.9
v 3.1 2.7 0.9
v 3.2 2.8 0.9
v 3.1 2.8 0.9
v 3.2 2.5 0.7
v 3.1 2.5 0.7
v 3.2 2.7 0.7
v 3.1 2.7 0.7
v 3.1 2.3 0.5
v 3 2.3 0.5
v 3.1 2.6 0.5
v 3 2.6 0.5
v 3.1 2.9 0.5
v 3 2.9 0.5
v 3.1 3.1 0.5
v 3 3.1 0.5
v 2.6 3.1 0.5
v 2.2 3.1 0.5
v 2.6 3.2 0.5
v 2.2 3.2 0.5
v 3 2.3 0.2
v 2.3 2.3 0.2
v 3.1 2.6 0.2
v 3 2.6 0.2
v 2.3 2.7 0.2
v 2.2 2.7 0.2
v 3.1 2.9 0.2
v 3 2.9 0.2
v 3 3.1 0.2
v 2.2 3.1 0.2
v 3.6 1.7 2.9
v 3.6 2 2.9
v 3.6 2.1 2.9
v 3.6 2.3 2.9
v 3.6 2 2.6
v 3.6 2.1 2.6
v 3.6 2.2 2.4
v 3.6 2.3 2.4
v 3.6 1.7 2.2
v 3.6 1.8 2.2
v 3.6 2.1 2.2
v 3.6 2.2 2.2
v 3.6 2.3 2.2
v 3.6 1.8 2
v 3.6 2.1 2
v 3.6 2.1 1.8
v 3.6 2.3 1.8
v 3.6 2.1 1.6
v 3.6 2.3 1.6
v 3.5 2 2.7
v 3.5 2.1 2.7
v 3.5 2 2.6
v 3.5 2.1 2.6
v 3.5 1.7 2.2
v 3.5 1.8 2.2
v 3.5 2.1 2.2
v 3.5 2.2 2.2
v 3.5 2.3 2.2
v 3.5 2.3 2.1
v 3.5 2.5 2.1
v 3.5 1.7 2
v 3.5 1.8 2
v 3.5 1.9 2
v 3.5 2.1 2
v 3.5 2.1 1.8
v 3.5 2.3 1.8
v 3.5 1.9 1.7
v 3.5 2.1 1.7
v 3.5 2.4 1.7
v 3.5 2.5 1.7
v 3.5 2.1 1.6
v 3.5 2.3 1.6
v 3.5 2.1 1.5
v 3.5 2.4 1.5
v 3.3 1.9 1.7
v 3.3 2.1 1.7
v 3.3 2.4 1.7
v 3.3 2.5 1.7
v 3.3 2.5 1.6
v 3.3 2.6 1.6
v 3.3 1.9 1.5
v 3.3 2.1 1.5
v 3.3 2.2 1.5
v 3.3 2.4 1.5
v 3.3 2.5 1.5
v 3.3 2.6 1.5
v 3.3 2.8 1.5
v 3.3 2.2 1.1
v 3.3 2.4 1.1
v 3.3 2.7 1.1
v 3.3 2.8 1.1
v 3.3 2.4 0.9
v 3.3 2.7 0.9
v 3.2 2.2 1.1
v 3.2 2.4 1.1
v 3.2 2.7 1.1
v 3.2 2.8 1.1
v 3.2 2.2 0.9
v 3.2 2.4 0.9
v 3.2 2.5 0.9
v 3.2 2.7 0.9
v 3.2 2.8 0.9
v 3.2 2.5 0.7
v 3.2 2.7 0.7
v 3.1 1.8 2.8
v 3.1 1.9 2.8
v 3.1 1.9 2.7
v 3.1 2.1 2.7
v 3.1 1.8 2.6
v 3.1 2.1 2.6
v 3.1 2.8 1
v 3.1 3.1 1
v 3.1 2.3 0.9
v 3.1 2.5 0.9
v 3.1 2.7 0.9
v 3.1 2.8 0.9
v 3.1 2.5 0.7
v 3.1 2.7 0.7
v 3.1 2.3 0.5
v 3.1 2.6 0.5
v 3.1 2.9 0.5
v 3.1 3.1 0.5
v 3.1 2.6 0.2
v 3.1 2.9 0.2
v 3 1.9 2.8
v 3 2 2.8
v 3 1.9 2.7
v 3 2 2.7
v 3 2.8 1.2
v 3 2.9 1.2
v 3 2.8 1
v 3 2.9 1
v 3 2.3 0.5
v 3 2.6 0.5
v 3 2.9 0.5
v 3 3.1 0.5
v 3 2.3 0.2
v 3 2.6 0.2
v 3 2.9 0.2
v 3 3.1 0.2
v 2.6 3.1 0.8
v 2.6 3.2 0.8
v 2.6 3.1 0.5
v 2.6 3.2 0.5
v 3.5 1.9 2.9
v 3.5 2 2.9
v 3.5 2.1 2.9
v 3.5 2.2 2.9
v 3.5 1.9 2.8
v 3.5 2 2.8
v 3.5 2.1 2.8
v 3.5 2.2 2.8
v 3.4 1.7 2.9
v 3.4 1.9 2.9
v 3.4 2.2 2.9
v 3.4 2.3 2.9
v 3.4 1.9 2.8
v 3.4 2 2.8
v 3.4 2.2 2.8
v 3.4 2.3 2.8
v 3.4 2 2.7
v 3.4 2.1 2.7
v 3.4 1.7 2.6
v 3.4 2.1 2.6
v 3.3 2.1 2.8
v 3.3 2.3 2.8
v 3.3 2.1 2.6
v 3.3 2.3 2.6
v 3.2 1.7 2.6
v 3.2 1.8 2.6
v 3.2 2.1 2.6
v 3.2 2.3 2.6
v 3.2 1.7 2.5
v 3.2 1.8 2.5
v 3.2 2.1 2.5
v 3.2 2.3 2.5
v 3.1 2.5 1.6
v 3.1 2.6 1.6
v 3.1 2.5 1.5
v 3.1 2.6 1.5
v 3 1.7 2.5
v 3 1.8 2.5
v 3 2.1 2.5
v 3 2.3 2.5
v 3 1.8 2.4
v 3 2.1 2.4
v 3 2.1 2.2
v 3 2.3 2.2
v 3 1.9 2.1
v 3 2.1 2.1
v 3 2.4 2.1
v 3 2.5 2.1
v 3 1.7 2
v 3 1.9 2
v 3 2.4 2
v 3 2.5 2
v 2.9 1.8 2.8
v 2.9 2 2.8
v 2.9 2 2.7
v 2.9 2.1 2.7
v 2.9 1.8 2.4
v 2.9 2.1 2.4
v 2.9 2.1 2.2
v 2.9 2.3 2.2
v 2.9 1.9 2.1
v 2.9 2.1 2.1
v 2.9 2.3 2.1
v 2.9 2.4 2.1
v 2.9 2.4 2
v 2.9 2.5 2
v 2.9 2.1 1.8
v 2.9 2.3 1.8
v 2.9 2.1 1.6
v 2.9 2.3 1.6
v 2.9 1.9 1.5
v 2.9 2.2 1.5
v 2.9 2.5 1.5
v 2.9 2.7 1.5
v 2.9 2.8 1.5
v 2.9 2.7 1.4
v 2.9 2.8 1.4
v 2.8 2.1 1.8
v 2.8 2.3 1.8
v 2.8 2.1 1.6
v 2.8 2.3 1.6
v 2.8 2.8 1.2
v 2.8 2.9 1.2
v 2.8 2.8 1
v 2.8 2.9 1
v 2.7 2.2 1.5
v 2.7 2.7 1.5
v 2.7 2.5 1.4
v 2.7 2.7 1.4
v 2.7 2.3 1
v 2.7 2.5 1
v 2.7 2.2 0.9
v 2.7 2.3 0.9
v 2.6 2.5 1.4
v 2.6 2.8 1.4
v 2.6 2.5 1
v 2.6 2.8 1
v 2.6 2.9 1
v 2.6 3.1 1
v 2.6 2.9 0.9
v 2.6 3.1 0.9
v 2.3 2.3 1
v 2.3 2.9 1
v 2.3 2.7 0.9
v 2.3 2.9 0.9
v 2.3 3.1 0.8
v 2.3 3.2 0.8
v 2.3 3.1 0.7
v 2.3 3.2 0.7
v 2.3 2.3 0.2
v 2.3 2.7 0.2
v 2.2 2.7 0.9
v 2.2 3.1 0.9
v 2.2 3.1 0.7
v 2.2 3.2 0.7
v 2.2 3.1 0.5
v 2.2 3.2 0.5
v 2.2 2.7 0.2
v 2.2 3.1 0.2
v 3.6 1.7 2.9
v 3.6 1.7 2.2
v 3.5 1.7 2.2
v 3.5 1.7 2
v 3.4 1.7 2.9
v 3.4 1.7 2.6
v 3.2 1.7 2.6
v 3.2 1.7 2.5
v 3 1.7 2.5
v 3 1.7 2
v 3.6 1.8 2.2
v 3.6 1.8 2
v 3.5 1.8 2.2
v 3.5 1.8 2
v 3.2 1.8 2.6
v 3.2 1.8 2.5
v 3.1 1.8 2.8
v 3.1 1.8 2.6
v 3 1.8 2.5
v 3 1.8 2.4
v 2.9 1.8 2.8
v 2.9 1.8 2.4
v 3.5 1.9 2
v 3.5 1.9 1.7
v 3.3 1.9 1.7
v 3.3 1.9 1.5
v 3 1.9 2.1
v 3 1.9 2
v 2.9 1.9 2.1
v 2.9 1.9 1.5
v 3.6 2.1 2.9
v 3.6 2.1 2.6
v 3.6 2.1 1.8
v 3.6 2.1 1.6
v 3.5 2.1 2.9
v 3.5 2.1 2.8
v 3.5 2.1 2.7
v 3.5 2.1 2.6
v 3.5 2.1 1.8
v 3.5 2.1 1.7
v 3.5 2.1 1.6
v 3.5 2.1 1.5
v 3.4 2.1 2.7
v 3.4 2.1 2.6
v 3.3 2.1 2.8
v 3.3 2.1 2.6
v 3.3 2.1 1.7
v 3.3 2.1 1.5
v 3 2.1 2.2
v 3 2.1 2.1
v 2.9 2.1 2.2
v 2.9 2.1 2.1
v 2.9 2.1 1.8
v 2.9 2.1 1.6
v 2.8 2.1 1.8
v 2.8 2.1 1.6
v 3.5 2.2 2.9
v 3.5 2.2 2.8
v 3.4 2.2 2.9
v 3.4 2.2 2.8
v 3.3 2.2 1.5
v 3.3 2.2 1.1
v 3.2 2.2 1.1
v 3.2 2.2 0.9
v 2.9 2.2 1.5
v 2.7 2.2 1.5
v 2.7 2.2 0.9
v 3.1 2.3 0.9
v 3.1 2.3 0.5
v 3 2.3 0.5
v 3 2.3 0.2
v 2.7 2.3 1
v 2.7 2.3 0.9
v 2.3 2.3 1
v 2.3 2.3 0.2
v 3.3 2.4 1.1
v 3.3 2.4 0.9
v 3.2 2.4 1.1
v 3.2 2.4 0.9
v 3.2 2.5 0.9
v 3.2 2.5 0.7
v 3.1 2.5 0.9
v 3.1 2.5 0.7
v 2.7 2.5 1.4
v 2.7 2.5 1
v 2.6 2.5 1.4
v 2.6 2.5 1
v 3.1 2.6 0.5
v 3.1 2.6 0.2
v 3 2.6 0.5
v 3 2.6 0.2
v 2.3 2.7 0.9
v 2.3 2.7 0.2
v 2.2 2.7 0.9
v 2.2 2.7 0.2
v 3.5 1.9 2.9
v 3.5 1.9 2.8
v 3.4 1.9 2.9
v 3.4 1.9 2.8
v 3.1 1.9 2.8
v 3.1 1.9 2.7
v 3 1.9 2.8
v 3 1.9 2.7
v 3.6 2 2.9
v 3.6 2 2.6
v 3.5 2 2.9
v 3.5 2 2.8
v 3.5 2 2.7
v 3.5 2 2.6
v 3.4 2 2.8
v 3.4 2 2.7
v 3 2 2.8
v 3 2 2.7
v 2.9 2 2.8
v 2.9 2 2.7
v 3.6 2.1 2.2
v 3.6 2.1 2
v 3.5 2.1 2.2
v 3.5 2.1 2
v 3.2 2.1 2.6
v 3.2 2.1 2.5
v 3.1 2.1 2.7
v 3.1 2.1 2.6
v 3 2.1 2.5
v 3 2.1 2.4
v 2.9 2.1 2.7
v 2.9 2.1 2.4
v 3.6 2.3 2.9
v 3.6 2.3 2.4
v 3.6 2.3 2.2
v 3.6 2.3 1.8
v 3.6 2.3 1.6
v 3.5 2.3 2.2
v 3.5 2.3 2.1
v 3.5 2.3 1.8
v 3.5 2.3 1.6
v 3.4 2.3 2.9
v 3.4 2.3 2.8
v 3.4 2.3 2.4
v 3.4 2.3 2.2
v 3.3 2.3 2.8
v 3.3 2.3 2.6
v 3.2 2.3 2.6
v 3.2 2.3 2.5
v 3.1 2.3 2.2
v 3.1 2.3 2.1
v 3 2.3 2.5
v 3 2.3 2.2
v 2.9 2.3 2.2
v 2.9 2.3 2.1
v 2.9 2.3 1.8
v 2.9 2.3 1.6
v 2.8 2.3 1.8
v 2.8 2.3 1.6
v 3.5 2.4 1.7
v 3.5 2.4 1.5
v 3.3 2.4 1.7
v 3.3 2.4 1.5
v 3 2.4 2.1
v 3 2.4 2
v 2.9 2.4 2.1
v 2.9 2.4 2
v 3.5 2.5 2.1
v 3.5 2.5 1.7
v 3.3 2.5 1.7
v 3.3 2.5 1.6
v 3.1 2.5 1.6
v 3.1 2.5 1.5
v 3 2.5 2.1
v 3 2.5 2
v 2.9 2.5 2
v 2.9 2.5 1.5
v 3.3 2.6 1.6
v 3.3 2.6 1.5
v 3.1 2.6 1.6
v 3.1 2.6 1.5
v 3.3 2.7 1.1
v 3.3 2.7 0.9
v 3.2 2.7 1.1
v 3.2 2.7 0.9
v 3.2 2.7 0.7
v 3.1 2.7 0.9
v 3.1 2.7 0.7
v 2.9 2.7 1.5
v 2.9 2.7 1.4
v 2.7 2.7 1.5
v 2.7 2.7 1.4
v 3.3 2.8 1.5
v 3.3 2.8 1.1
v 3.2 2.8 1.1
v 3.2 2.8 0.9
v 3.1 2.8 1
v 3.1 2.8 0.9
v 3 2.8 1.2
v 3 2.8 1
v 2.9 2.8 1.5
v 2.9 2.8 1.4
v 2.8 2.8 1.2
v 2.8 2.8 1
v 2.6 2.8 1.4
v 2.6 2.8 1
v 3.1 2.9 0.5
v 3.1 2.9 0.2
v 3 2.9 1.2
v 3 2.9 1
v 3 2.9 0.5
v 3 2.9 0.2
v 2.8 2.9 1.2
v 2.8 2.9 1
v 2.6 2.9 1
v 2.6 2.9 0.9
v 2.3 2.9 1
v 2.3 2.9 0.9
v 3.1 3.1 1
v 3.1 3.1 0.5
v 3 3.1 0.5
v 3 3.1 0.2
v 2.6 3.1 1
v 2.6 3.1 0.9
v 2.6 3.1 0.8
v 2.6 3.1 0.5
v 2.3 3.1 0.8
v 2.3 3.1 0.7
v 2.2 3.1 0.9
v 2.2 3.1 0.7
v 2.2 3.1 0.5
v 2.2 3.1 0.2
v 2.6 3.2 0.8
v 2.6 3.2 0.5
v 2.3 3.2 0.8
v 2.3 3.2 0.7
v 2.2 3.2 0.7
v 2.2 3.2 0.5

# faces
f 3/2/1 2/2/1 1/2/1
f 4/2/1 2/2/1 3/2/1
f 5/2/1 3/2/1 1/2/1
f 6/2/1 3/2/1 5/2/1
f 9/2/1 8/2/1 7/2/1
f 11/2/1 9/2/1 7/2/1
f 11/2/1 10/2/1 9/2/1
f 12/2/1 10/2/1 11/2/1
f 17/2/1 14/2/1 13/2/1
f 18/2/1 14/2/1 17/2/1
f 19/2/1 16/2/1 15/2/1
f 20/2/1 16/2/1 19/2/1
f 21/2/1 14/2/1 18/2/1
f 22/2/1 14/2/1 21/2/1
f 25/2/1 24/2/1 23/2/1
f 26/2/1 24/2/1 25/2/1
f 27/2/1 24/2/1 26/2/1
f 28/2/1 24/2/1 27/2/1
f 33/2/1 30/2/1 29/2/1
f 35/2/1 32/2/1 31/2/1
f 36/2/1 32/2/1 35/2/1
f 37/2/1 34/2/1 33/2/1
f 37/2/1 33/2/1 29/2/1
f 38/2/1 34/2/1 37/2/1
f 41/2/1 40/2/1 39/2/1
f 45/2/1 44/2/1 43/2/1
f 46/2/1 44/2/1 45/2/1
f 47/2/1 41/2/1 39/2/1
f 47/2/1 42/2/1 41/2/1
f 48/2/1 42/2/1 47/2/1
f 49/2/1 42/2/1 48/2/1
f 50/2/1 42/2/1 49/2/1
f 51/2/1 49/2/1 48/2/1
f 52/2/1 49/2/1 51/2/1
f 55/2/1 54/2/1 53/2/1
f 56/2/1 54/2/1 55/2/1
f 59/2/1 58/2/1 57/2/1
f 60/2/1 58/2/1 59/2/1
f 63/1/1 62/1/1 61/1/1
f 64/1/1 62/1/1 63/1/1
f 67/2/1 66/2/1 65/2/1
f 68/2/1 66/2/1 67/2/1
f 72/2/1 70/2/1 69/2/1
f 72/2/1 71/2/1 70/2/1
f 73/2/1 71/2/1 72/2/1
f 74/2/1 72/2/1 69/2/1
f 75/2/1 72/2/1 74/2/1
f 78/2/1 77/2/1 76/2/1
f 79/2/1 77/2/1 78/2/1
f 84/1/1 81/1/1 80/1/1
f 85/1/1 81/1/1 84/1/1
f 86/1/1 83/1/1 82/1/1
f 87/1/1 83/1/1 86/1/1
f 90/1/1 89/1/1 88/1/1
f 91/1/1 89/1/1 90/1/1
f 95/2/1 93/2/1 92/2/1
f 97/2/1 95/2/1 94/2/1
f 98/2/1 93/2/1 95/2/1
f 98/2/1 97/2/1 96/2/1
f 98/2/1 95/2/1 97/2/1
f 99/2/1 93/2/1 98/2/1
f 100/2/1 98/2/1 96/2/1
f 101/2/1 98/2/1 100/2/1
f 105/2/1 103/2/1 102/2/1
f 106/2/1 105/2/1 104/2/1
f 107/2/1 103/2/1 105/2/1
f 107/2/1 105/2/1 106/2/1
f 110/1/1 109/1/1 108/1/1
f 111/1/1 109/1/1 110/1/1
f 114/2/1 113/2/1 112/2/1
f 115/2/1 113/2/1 114/2/1
f 119/2/1 113/2/1 115/2/1
f 120/2/1 117/2/1 116/2/1
f 121/2/1 119/2/1 118/2/1
f 122/2/1 113/2/1 119/2/1
f 122/2/1 119/2/1 121/2/1
f 123/2/1 113/2/1 122/2/1
f 124/2/1 120/2/1 116/2/1
f 124/2/1 121/2/1 120/2/1
f 124/2/1 122/2/1 121/2/1
f 125/2/1 122/2/1 124/2/1
f 129/2/1 127/2/1 126/2/1
f 130/2/1 129/2/1 128/2/1
f 131/2/1 127/2/1 129/2/1
f 131/2/1 129/2/1 130/2/1
f 134/1/1 133/1/1 132/1/1
f 135/1/1 133/1/1 134/1/1
f 138/1/1 137/1/1 136/1/1
f 139/1/1 137/1/1 138/1/1
f 140/2/2 141/2/2 142/2/2
f 142/2/2 141/2/2 143/2/2
f 144/2/2 145/2/2 146/2/2
f 146/2/2 145/2/2 147/2/2
f 148/2/2 149/2/2 150/2/2
f 150/2/2 149/2/2 151/2/2
f 150/1/2 151/1/2 152/1/2
f 152/1/2 151/1/2 153/1/2
f 154/2/2 155/2/2 157/2/2
f 157/2/2 155/2/2 158/2/2
f 156/2/2 157/2/2 158/2/2
f 158/2/2 155/2/2 159/2/2
f 156/2/2 158/2/2 160/2/2
f 160/2/2 158/2/2 161/2/2
f 162/2/2 163/2/2 164/2/2
f 164/2/2 163/2/2 165/2/2
f 166/2/2 167/2/2 168/2/2
f 168/2/2 167/2/2 169/2/2
f 170/1/2 171/1/2 174/1/2
f 174/1/2 171/1/2 175/1/2
f 172/1/2 173/1/2 176/1/2
f 176/1/2 173/1/2 177/1/2
f 178/2/2 179/2/2 181/2/2
f 181/2/2 179/2/2 182/2/2
f 180/2/2 181/2/2 182/2/2
f 182/2/2 179/2/2 183/2/2
f 180/2/2 182/2/2 184/2/2
f 184/2/2 182/2/2 185/2/2
f 186/2/2 187/2/2 188/2/2
f 188/2/2 187/2/2 189/2/2
f 190/2/2 191/2/2 192/2/2
f 192/2/2 191/2/2 193/2/2
f 194/2/2 195/2/2 196/2/2
f 196/2/2 195/2/2 197/2/2
f 194/2/2 196/2/2 199/2/2
f 199/2/2 196/2/2 200/2/2
f 198/2/2 199/2/2 200/2/2
f 200/2/2 196/2/2 201/2/2
f 198/2/2 200/2/2 202/2/2
f 202/2/2 200/2/2 203/2/2
f 203/2/2 204/2/2 205/2/2
f 205/2/2 204/2/2 206/2/2
f 207/1/2 208/1/2 209/1/2
f 209/1/2 208/1/2 210/1/2
f 211/2/2 212/2/2 213/2/2
f 213/2/2 212/2/2 214/2/2
f 215/2/2 216/2/2 217/2/2
f 217/2/2 216/2/2 218/2/2
f 219/1/2 220/1/2 221/1/2
f 221/1/2 220/1/2 222/1/2
f 223/2/2 224/2/2 226/2/2
f 226/2/2 224/2/2 227/2/2
f 225/2/2 226/2/2 227/2/2
f 225/2/2 227/2/2 229/2/2
f 227/2/2 228/2/2 229/2/2
f 229/2/2 228/2/2 230/2/2
f 230/2/2 228/2/2 231/2/2
f 231/2/2 228/2/2 232/2/2
f 237/2/3 234/2/3 233/2/3
f 238/2/3 236/2/3 235/2/3
f 239/2/3 236/2/3 238/2/3
f 239/2/3 238/2/3 237/2/3
f 240/2/3 236/2/3 239/2/3
f 241/2/3 237/2/3 233/2/3
f 241/2/3 239/2/3 237/2/3
f 242/2/3 239/2/3 241/2/3
f 243/2/3 239/2/3 242/2/3
f 244/1/3 240/1/3 239/1/3
f 244/2/3 239/2/3 243/2/3
f 245/1/3 240/1/3 244/1/3
f 246/2/3 243/2/3 242/2/3
f 247/2/3 243/2/3 246/2/3
f 250/1/3 249/1/3 248/1/3
f 251/1/3 249/1/3 250/1/3
f 254/2/3 253/2/3 252/2/3
f 255/2/3 253/2/3 254/2/3
f 261/2/3 259/2/3 258/2/3
f 261/2/3 260/2/3 259/2/3
f 263/2/3 257/2/3 256/2/3
f 264/2/3 257/2/3 263/2/3
f 266/2/3 262/2/3 261/2/3
f 266/2/3 261/2/3 258/2/3
f 267/2/3 266/2/3 265/2/3
f 267/2/3 262/2/3 266/2/3
f 268/2/3 262/2/3 267/2/3
f 269/2/3 267/2/3 265/2/3
f 270/2/3 267/2/3 269/2/3
f 271/2/3 262/2/3 268/2/3
f 272/2/3 262/2/3 271/2/3
f 274/2/3 271/2/3 268/2/3
f 275/2/3 274/2/3 273/2/3
f 276/2/3 271/2/3 274/2/3
f 276/2/3 274/2/3 275/2/3
f 281/2/3 280/2/3 279/2/3
f 283/2/3 278/2/3 277/2/3
f 284/2/3 278/2/3 283/2/3
f 286/2/3 281/2/3 279/2/3
f 287/1/3 282/1/3 281/1/3
f 287/2/3 281/2/3 286/2/3
f 288/1/3 282/1/3 287/1/3
f 290/2/3 286/2/3 285/2/3
f 290/2/3 289/2/3 288/2/3
f 290/2/3 288/2/3 287/2/3
f 290/2/3 287/2/3 286/2/3
f 291/2/3 289/2/3 290/2/3
f 292/2/3 289/2/3 291/2/3
f 293/2/3 289/2/3 292/2/3
f 294/2/3 292/2/3 291/2/3
f 295/2/3 292/2/3 294/2/3
f 300/2/3 297/2/3 296/2/3
f 301/2/3 297/2/3 300/2/3
f 303/2/3 299/2/3 298/2/3
f 304/2/3 299/2/3 303/2/3
f 305/1/3 303/1/3 302/1/3
f 306/1/3 303/1/3 305/1/3
f 309/2/3 308/2/3 307/2/3
f 311/2/3 309/2/3 307/2/3
f 311/2/3 310/2/3 309/2/3
f 312/2/3 310/2/3 311/2/3
f 318/2/3 314/2/3 313/2/3
f 319/2/3 316/2/3 315/2/3
f 320/2/3 318/2/3 317/2/3
f 321/2/3 319/2/3 315/2/3
f 321/2/3 320/2/3 319/2/3
f 322/2/3 320/2/3 321/2/3
f 323/2/3 318/2/3 320/2/3
f 323/2/3 320/2/3 322/2/3
f 323/2/3 314/2/3 318/2/3
f 324/2/3 314/2/3 323/2/3
f 325/2/3 323/2/3 322/2/3
f 326/2/3 323/2/3 325/2/3
f 329/2/3 328/2/3 327/2/3
f 330/2/3 328/2/3 329/2/3
f 333/1/3 332/1/3 331/1/3
f 334/1/3 332/1/3 333/1/3
f 339/2/3 336/2/3 335/2/3
f 340/2/3 336/2/3 339/2/3
f 341/2/3 338/2/3 337/2/3
f 342/2/3 338/2/3 341/2/3
f 345/1/3 344/1/3 343/1/3
f 346/1/3 344/1/3 345/1/3
f 347/2/4 348/2/4 351/2/4
f 351/2/4 348/2/4 352/2/4
f 349/2/4 350/2/4 353/2/4
f 353/2/4 350/2/4 354/2/4
f 355/2/4 356/2/4 359/2/4
f 357/2/4 358/2/4 361/2/4
f 361/2/4 358/2/4 362/2/4
f 359/2/4 360/2/4 363/2/4
f 355/2/4 359/2/4 365/2/4
f 363/2/4 364/2/4 365/2/4
f 359/2/4 363/2/4 365/2/4
f 365/2/4 364/2/4 366/2/4
f 367/2/4 368/2/4 369/2/4
f 369/2/4 368/2/4 370/2/4
f 371/2/4 372/2/4 375/2/4
f 375/2/4 372/2/4 376/2/4
f 373/2/4 374/2/4 377/2/4
f 377/2/4 374/2/4 378/2/4
f 379/1/4 380/1/4 381/1/4
f 381/1/4 380/1/4 382/1/4
f 383/2/4 384/2/4 387/2/4
f 385/2/4 386/2/4 388/2/4
f 388/2/4 386/2/4 389/2/4
f 387/2/4 388/2/4 389/2/4
f 389/2/4 386/2/4 390/2/4
f 387/2/4 389/2/4 391/2/4
f 391/2/4 389/2/4 392/2/4
f 383/2/4 387/2/4 395/2/4
f 387/2/4 391/2/4 395/2/4
f 395/2/4 391/2/4 396/2/4
f 393/2/4 394/2/4 397/2/4
f 397/2/4 394/2/4 398/2/4
f 399/2/4 400/2/4 401/2/4
f 399/2/4 401/2/4 403/2/4
f 401/2/4 402/2/4 403/2/4
f 403/2/4 402/2/4 404/2/4
f 405/1/4 406/1/4 408/1/4
f 408/1/4 406/1/4 409/1/4
f 407/2/4 408/2/4 411/2/4
f 409/2/4 410/2/4 411/2/4
f 408/2/4 409/2/4 411/2/4
f 407/2/4 411/2/4 413/2/4
f 411/2/4 412/2/4 413/2/4
f 413/2/4 412/2/4 414/2/4
f 407/2/4 413/2/4 415/2/4
f 414/2/4 412/2/4 416/2/4
f 407/2/4 415/2/4 417/2/4
f 415/2/4 416/2/4 417/2/4
f 417/2/4 416/2/4 418/2/4
f 416/2/4 412/2/4 419/2/4
f 418/2/4 416/2/4 419/2/4
f 420/2/4 421/2/4 422/2/4
f 422/2/4 421/2/4 423/2/4
f 424/1/4 425/1/4 426/1/4
f 426/1/4 425/1/4 427/1/4
f 428/1/4 429/1/4 430/1/4
f 430/1/4 429/1/4 431/1/4
f 432/2/4 433/2/4 434/2/4
f 434/2/4 433/2/4 435/2/4
f 432/2/4 434/2/4 436/2/4
f 436/2/4 434/2/4 437/2/4
f 432/2/4 436/2/4 438/2/4
f 438/2/4 436/2/4 439/2/4
f 440/2/4 441/2/4 442/2/4
f 442/2/4 441/2/4 443/2/4
f 444/2/4 445/2/4 446/2/4
f 446/2/4 445/2/4 447/2/4
f 448/2/4 449/2/4 450/2/4
f 450/2/4 449/2/4 451/2/4
f 452/1/4 453/1/4 454/1/4
f 454/1/4 453/1/4 455/1/4
f 448/2/4 450/2/4 456/2/4
f 456/2/4 450/2/4 457/2/4
f 458/2/4 459/2/4 460/2/4
f 458/2/4 460/2/4 462/2/4
f 460/1/4 461/1/4 462/1/4
f 462/1/4 461/1/4 463/1/4
f 458/2/4 462/2/4 464/2/4
f 464/2/4 462/2/4 465/2/4
f 468/2/5 467/2/5 466/2/5
f 470/2/5 468/2/5 466/2/5
f 470/2/5 469/2/5 468/2/5
f 471/2/5 469/2/5 470/2/5
f 472/2/5 469/2/5 471/2/5
f 473/2/5 469/2/5 472/2/5
f 474/2/5 469/2/5 473/2/5
f 475/2/5 469/2/5 474/2/5
f 478/2/5 477/2/5 476/2/5
f 479/2/5 477/2/5 478/2/5
f 483/2/5 481/2/5 480/2/5
f 484/2/5 481/2/5 483/2/5
f 484/2/5 483/2/5 482/2/5
f 486/2/5 484/2/5 482/2/5
f 486/2/5 485/2/5 484/2/5
f 487/2/5 485/2/5 486/2/5
f 490/2/5 489/2/5 488/2/5
f 493/2/5 490/2/5 488/2/5
f 493/2/5 491/2/5 490/2/5
f 494/2/5 493/2/5 492/2/5
f 495/2/5 491/2/5 493/2/5
f 495/2/5 493/2/5 494/2/5
f 500/2/5 497/2/5 496/2/5
f 501/2/5 497/2/5 500/2/5
f 502/2/5 497/2/5 501/2/5
f 503/2/5 497/2/5 502/2/5
f 504/1/5 499/1/5 498/1/5
f 505/1/5 499/1/5 504/1/5
f 506/1/5 499/1/5 505/1/5
f 508/2/5 502/2/5 501/2/5
f 510/2/5 508/2/5 501/2/5
f 510/2/5 509/2/5 508/2/5
f 511/2/5 509/2/5 510/2/5
f 512/2/5 507/2/5 506/2/5
f 512/2/5 506/2/5 505/2/5
f 513/2/5 507/2/5 512/2/5
f 516/1/5 515/1/5 514/1/5
f 517/1/5 515/1/5 516/1/5
f 520/1/5 519/1/5 518/1/5
f 521/1/5 519/1/5 520/1/5
f 524/2/5 523/2/5 522/2/5
f 525/2/5 523/2/5 524/2/5
f 528/2/5 527/2/5 526/2/5
f 530/2/5 528/2/5 526/2/5
f 530/2/5 529/2/5 528/2/5
f 531/2/5 529/2/5 530/2/5
f 532/2/5 529/2/5 531/2/5
f 535/2/5 534/2/5 533/2/5
f 538/2/5 535/2/5 533/2/5
f 538/2/5 536/2/5 535/2/5
f 539/2/5 538/2/5 537/2/5
f 540/2/5 536/2/5 538/2/5
f 540/2/5 538/2/5 539/2/5
f 543/2/5 542/2/5 541/2/5
f 544/2/5 542/2/5 543/2/5
f 547/1/5 546/1/5 545/1/5
f 548/1/5 546/1/5 547/1/5
f 551/2/5 550/2/5 549/2/5
f 552/2/5 550/2/5 551/2/5
f 555/2/5 554/2/5 553/2/5
f 556/2/5 554/2/5 555/2/5
f 559/2/5 558/2/5 557/2/5
f 560/2/5 558/2/5 559/2/5
f 561/2/6 562/2/6 563/2/6
f 563/2/6 562/2/6 564/2/6
f 565/2/6 566/2/6 567/2/6
f 567/2/6 566/2/6 568/2/6
f 569/2/6 570/2/6 571/2/6
f 571/2/6 570/2/6 572/2/6
f 572/2/6 570/2/6 573/2/6
f 573/2/6 570/2/6 574/2/6
f 572/2/6 573/2/6 575/2/6
f 575/2/6 573/2/6 576/2/6
f 577/2/6 578/2/6 579/2/6
f 579/2/6 578/2/6 580/2/6
f 581/2/6 582/2/6 583/2/6
f 583/2/6 582/2/6 584/2/6
f 585/2/6 586/2/6 588/2/6
f 588/2/6 586/2/6 589/2/6
f 587/2/6 588/2/6 589/2/6
f 587/2/6 589/2/6 591/2/6
f 589/2/6 590/2/6 591/2/6
f 591/2/6 590/2/6 592/2/6
f 594/1/6 595/1/6 598/1/6
f 596/1/6 597/1/6 600/1/6
f 600/1/6 597/1/6 601/1/6
f 593/2/6 594/2/6 602/2/6
f 602/2/6 594/2/6 603/2/6
f 594/1/6 598/1/6 604/1/6
f 603/2/6 594/2/6 604/2/6
f 598/2/6 599/2/6 605/2/6
f 604/1/6 598/1/6 605/1/6
f 603/2/6 604/2/6 606/2/6
f 604/2/6 605/2/6 606/2/6
f 606/2/6 605/2/6 607/2/6
f 607/2/6 605/2/6 608/2/6
f 608/2/6 605/2/6 609/2/6
f 605/2/6 599/2/6 610/2/6
f 609/2/6 605/2/6 610/2/6
f 610/2/6 599/2/6 611/2/6
f 609/2/6 610/2/6 612/2/6
f 610/1/6 611/1/6 613/1/6
f 612/2/6 610/2/6 613/2/6
f 613/1/6 611/1/6 614/1/6
f 614/1/6 611/1/6 615/1/6
f 616/1/6 617/1/6 618/1/6
f 618/1/6 617/1/6 619/1/6
f 620/2/6 621/2/6 622/2/6
f 622/2/6 621/2/6 623/2/6
f 624/2/6 625/2/6 626/2/6
f 626/2/6 625/2/6 627/2/6
f 628/2/6 629/2/6 630/2/6
f 630/2/6 631/2/6 632/2/6
f 628/2/6 630/2/6 634/2/6
f 632/2/6 633/2/6 634/2/6
f 630/2/6 632/2/6 634/2/6
f 634/2/6 633/2/6 635/2/6
f 635/2/6 633/2/6 636/2/6
f 636/2/6 633/2/6 637/2/6
f 638/1/6 639/1/6 640/1/6
f 640/1/6 639/1/6 641/1/6
f 642/2/6 643/2/6 644/2/6
f 644/2/6 643/2/6 645/2/6
f 645/1/6 646/1/6 647/1/6
f 647/1/6 646/1/6 648/1/6
f 649/2/6 650/2/6 651/2/6
f 651/2/6 650/2/6 652/2/6
f 653/2/6 654/2/6 655/2/6
f 655/2/6 656/2/6 657/2/6
f 657/2/6 656/2/6 658/2/6
f 653/2/6 655/2/6 659/2/6
f 655/2/6 657/2/6 659/2/6
f 659/2/6 657/2/6 660/2/6
f 653/2/6 659/2/6 661/2/6
f 661/2/6 659/2/6 662/2/6
f 662/2/6 659/2/6 663/2/6
f 662/2/6 663/2/6 665/2/6
f 663/2/6 664/2/6 665/2/6
f 665/2/6 664/2/6 666/2/6
f 667/2/6 668/2/6 671/2/6
f 671/2/6 668/2/6 672/2/6
f 669/1/6 670/1/6 673/1/6
f 673/1/6 670/1/6 674/1/6
f 675/2/6 676/2/6 677/2/6
f 677/2/6 676/2/6 678/2/6
f 679/2/6 680/2/6 681/2/6
f 679/2/6 681/2/6 683/2/6
f 681/2/6 682/2/6 683/2/6
f 683/2/6 682/2/6 684/2/6
f 684/2/6 682/2/6 685/2/6
f 685/2/6 682/2/6 686/2/6
f 684/2/6 685/2/6 687/2/6
f 684/2/6 687/2/6 689/2/6
f 687/2/6 688/2/6 689/2/6
f 689/2/6 688/2/6 690/2/6
f 686/2/6 682/2/6 691/2/6
f 691/2/6 682/2/6 692/2/6
f 693/1/6 694/1/6 695/1/6
f 695/1/6 694/1/6 696/1/6
f 696/1/6 694/1/6 697/1/6
f 697/1/6 694/1/6 698/1/6
