# MagicaVoxel @ Ephtracy

# group
o 

# material
mtllib pokemon-overlay-1.mtl
usemtl palette

# normals
vn -1 0 0
vn 1 0 0
vn 0 0 1
vn 0 0 -1
vn 0 -1 0
vn 0 1 0

# texcoords
vt 0.845703 0.5
vt 0.853516 0.5
vt 0.896484 0.5

# verts
v -1.3 5.6 -1.9
v -1.3 5.6 -2
v -1.3 5.8 -1.9
v -1.3 5.8 -2
v -1.2 5.4 -1.9
v -1.2 5.4 -2
v -1.2 5.6 -1.9
v -1.2 5.6 -2
v -1.2 5.8 -1.9
v -1.2 5.8 -2
v -1.2 6 -1.9
v -1.2 6 -2
v -1.1 5.2 -1.9
v -1.1 5.2 -2
v -1.1 5.4 -1.9
v -1.1 5.4 -2
v -1.1 6 -1.9
v -1.1 6 -2
v -1.1 6.2 -1.9
v -1.1 6.2 -2
v -1 5.6 -1.7
v -1 5.6 -1.8
v -1 5.6 -1.9
v -1 5.8 -1.7
v -1 5.8 -1.8
v -1 5.8 -1.9
v -0.9 5.1 -1.9
v -0.9 5.1 -2
v -0.9 5.2 -1.9
v -0.9 5.2 -2
v -0.9 5.5 -1.7
v -0.9 5.5 -1.8
v -0.9 5.5 -1.9
v -0.9 5.6 -1.7
v -0.9 5.6 -1.8
v -0.9 5.6 -1.9
v -0.9 5.8 -1.7
v -0.9 5.8 -1.8
v -0.9 5.8 -1.9
v -0.9 5.9 -1.7
v -0.9 5.9 -1.8
v -0.9 5.9 -1.9
v -0.9 6.2 -1.9
v -0.9 6.2 -2
v -0.9 6.3 -1.9
v -0.9 6.3 -2
v -0.8 5.4 -1.7
v -0.8 5.4 -1.8
v -0.8 5.4 -1.9
v -0.8 5.5 -1.7
v -0.8 5.5 -1.8
v -0.8 5.5 -1.9
v -0.8 5.9 -1.7
v -0.8 5.9 -1.8
v -0.8 5.9 -1.9
v -0.8 6 -1.7
v -0.8 6 -1.8
v -0.8 6 -1.9
v -0.7 5 -1.9
v -0.7 5 -2
v -0.7 5.1 -1.9
v -0.7 5.1 -2
v -0.7 5.3 -1.7
v -0.7 5.3 -1.8
v -0.7 5.3 -1.9
v -0.7 5.4 -1.7
v -0.7 5.4 -1.8
v -0.7 5.4 -1.9
v -0.7 6 -1.7
v -0.7 6 -1.8
v -0.7 6 -1.9
v -0.7 6.1 -1.7
v -0.7 6.1 -1.8
v -0.7 6.1 -1.9
v -0.7 6.3 -1.9
v -0.7 6.3 -2
v -0.7 6.4 -1.9
v -0.7 6.4 -2
v 3.5 5 -1.9
v 3.5 5 -2
v 3.5 5.3 -1.7
v 3.5 5.3 -1.8
v 3.5 5.3 -1.9
v 3.5 6.1 -1.7
v 3.5 6.1 -1.8
v 3.5 6.1 -1.9
v 3.5 6.4 -1.9
v 3.5 6.4 -2
v -1 5.6 -1.7
v -1 5.8 -1.7
v -0.9 5.5 -1.7
v -0.9 5.6 -1.7
v -0.9 5.8 -1.7
v -0.9 5.9 -1.7
v -0.8 5.4 -1.7
v -0.8 5.5 -1.7
v -0.8 5.9 -1.7
v -0.8 6 -1.7
v -0.7 5.3 -1.7
v -0.7 5.4 -1.7
v -0.7 6 -1.7
v -0.7 6.1 -1.7
v 3.5 5.3 -1.7
v 3.5 6.1 -1.7
v -1.3 5.6 -1.9
v -1.3 5.8 -1.9
v -1.2 5.4 -1.9
v -1.2 5.6 -1.9
v -1.2 5.8 -1.9
v -1.2 6 -1.9
v -1.1 5.2 -1.9
v -1.1 5.4 -1.9
v -1.1 6 -1.9
v -1.1 6.2 -1.9
v -1 5.6 -1.9
v -1 5.8 -1.9
v -0.9 5.1 -1.9
v -0.9 5.2 -1.9
v -0.9 5.5 -1.9
v -0.9 5.6 -1.9
v -0.9 5.8 -1.9
v -0.9 5.9 -1.9
v -0.9 6.2 -1.9
v -0.9 6.3 -1.9
v -0.8 5.4 -1.9
v -0.8 5.5 -1.9
v -0.8 5.9 -1.9
v -0.8 6 -1.9
v -0.7 5 -1.9
v -0.7 5.1 -1.9
v -0.7 5.3 -1.9
v -0.7 5.4 -1.9
v -0.7 6 -1.9
v -0.7 6.1 -1.9
v -0.7 6.3 -1.9
v -0.7 6.4 -1.9
v 3.5 5 -1.9
v 3.5 5.3 -1.9
v 3.5 6.1 -1.9
v 3.5 6.4 -1.9
v -1.3 5.6 -2
v -1.3 5.8 -2
v -1.2 5.4 -2
v -1.2 5.6 -2
v -1.2 5.8 -2
v -1.2 6 -2
v -1.1 5.2 -2
v -1.1 5.4 -2
v -1.1 6 -2
v -1.1 6.2 -2
v -0.9 5.1 -2
v -0.9 5.2 -2
v -0.9 6.2 -2
v -0.9 6.3 -2
v -0.7 5 -2
v -0.7 5.1 -2
v -0.7 6.3 -2
v -0.7 6.4 -2
v 3.5 5 -2
v 3.5 6.4 -2
v -0.7 5 -1.9
v 3.5 5 -1.9
v -0.7 5 -2
v 3.5 5 -2
v -0.9 5.1 -1.9
v -0.7 5.1 -1.9
v -0.9 5.1 -2
v -0.7 5.1 -2
v -1.1 5.2 -1.9
v -0.9 5.2 -1.9
v -1.1 5.2 -2
v -0.9 5.2 -2
v -0.7 5.3 -1.7
v 3.5 5.3 -1.7
v -0.7 5.3 -1.8
v 3.5 5.3 -1.8
v -0.7 5.3 -1.9
v 3.5 5.3 -1.9
v -0.8 5.4 -1.7
v -0.7 5.4 -1.7
v -0.8 5.4 -1.8
v -0.7 5.4 -1.8
v -1.2 5.4 -1.9
v -1.1 5.4 -1.9
v -0.8 5.4 -1.9
v -0.7 5.4 -1.9
v -1.2 5.4 -2
v -1.1 5.4 -2
v -0.9 5.5 -1.7
v -0.8 5.5 -1.7
v -0.9 5.5 -1.8
v -0.8 5.5 -1.8
v -0.9 5.5 -1.9
v -0.8 5.5 -1.9
v -1 5.6 -1.7
v -0.9 5.6 -1.7
v -1 5.6 -1.8
v -0.9 5.6 -1.8
v -1.3 5.6 -1.9
v -1.2 5.6 -1.9
v -1 5.6 -1.9
v -0.9 5.6 -1.9
v -1.3 5.6 -2
v -1.2 5.6 -2
v -1 5.8 -1.7
v -0.9 5.8 -1.7
v -1 5.8 -1.8
v -0.9 5.8 -1.8
v -1.3 5.8 -1.9
v -1.2 5.8 -1.9
v -1 5.8 -1.9
v -0.9 5.8 -1.9
v -1.3 5.8 -2
v -1.2 5.8 -2
v -0.9 5.9 -1.7
v -0.8 5.9 -1.7
v -0.9 5.9 -1.8
v -0.8 5.9 -1.8
v -0.9 5.9 -1.9
v -0.8 5.9 -1.9
v -0.8 6 -1.7
v -0.7 6 -1.7
v -0.8 6 -1.8
v -0.7 6 -1.8
v -1.2 6 -1.9
v -1.1 6 -1.9
v -0.8 6 -1.9
v -0.7 6 -1.9
v -1.2 6 -2
v -1.1 6 -2
v -0.7 6.1 -1.7
v 3.5 6.1 -1.7
v -0.7 6.1 -1.8
v 3.5 6.1 -1.8
v -0.7 6.1 -1.9
v 3.5 6.1 -1.9
v -1.1 6.2 -1.9
v -0.9 6.2 -1.9
v -1.1 6.2 -2
v -0.9 6.2 -2
v -0.9 6.3 -1.9
v -0.7 6.3 -1.9
v -0.9 6.3 -2
v -0.7 6.3 -2
v -0.7 6.4 -1.9
v 3.5 6.4 -1.9
v -0.7 6.4 -2
v 3.5 6.4 -2

# faces
f 3/1/1 2/1/1 1/1/1
f 4/1/1 2/1/1 3/1/1
f 7/1/1 6/1/1 5/1/1
f 8/1/1 6/1/1 7/1/1
f 11/1/1 10/1/1 9/1/1
f 12/1/1 10/1/1 11/1/1
f 15/1/1 14/1/1 13/1/1
f 16/1/1 14/1/1 15/1/1
f 19/1/1 18/1/1 17/1/1
f 20/1/1 18/1/1 19/1/1
f 24/3/1 22/3/1 21/3/1
f 25/2/1 23/2/1 22/2/1
f 25/3/1 22/3/1 24/3/1
f 26/2/1 23/2/1 25/2/1
f 29/1/1 28/1/1 27/1/1
f 30/1/1 28/1/1 29/1/1
f 34/3/1 32/3/1 31/3/1
f 35/2/1 33/2/1 32/2/1
f 35/3/1 32/3/1 34/3/1
f 36/2/1 33/2/1 35/2/1
f 40/3/1 38/3/1 37/3/1
f 41/2/1 39/2/1 38/2/1
f 41/3/1 38/3/1 40/3/1
f 42/2/1 39/2/1 41/2/1
f 45/1/1 44/1/1 43/1/1
f 46/1/1 44/1/1 45/1/1
f 50/3/1 48/3/1 47/3/1
f 51/2/1 49/2/1 48/2/1
f 51/3/1 48/3/1 50/3/1
f 52/2/1 49/2/1 51/2/1
f 56/3/1 54/3/1 53/3/1
f 57/2/1 55/2/1 54/2/1
f 57/3/1 54/3/1 56/3/1
f 58/2/1 55/2/1 57/2/1
f 61/1/1 60/1/1 59/1/1
f 62/1/1 60/1/1 61/1/1
f 66/3/1 64/3/1 63/3/1
f 67/2/1 65/2/1 64/2/1
f 67/3/1 64/3/1 66/3/1
f 68/2/1 65/2/1 67/2/1
f 72/3/1 70/3/1 69/3/1
f 73/2/1 71/2/1 70/2/1
f 73/3/1 70/3/1 72/3/1
f 74/2/1 71/2/1 73/2/1
f 77/1/1 76/1/1 75/1/1
f 78/1/1 76/1/1 77/1/1
f 79/1/2 80/1/2 83/1/2
f 81/3/2 82/3/2 84/3/2
f 82/2/2 83/2/2 85/2/2
f 84/3/2 82/3/2 85/3/2
f 83/1/2 80/1/2 86/1/2
f 85/2/2 83/2/2 86/2/2
f 86/1/2 80/1/2 87/1/2
f 87/1/2 80/1/2 88/1/2
f 92/3/3 90/3/3 89/3/3
f 93/3/3 90/3/3 92/3/3
f 96/3/3 92/3/3 91/3/3
f 96/3/3 94/3/3 93/3/3
f 96/3/3 93/3/3 92/3/3
f 97/3/3 94/3/3 96/3/3
f 100/3/3 96/3/3 95/3/3
f 100/3/3 98/3/3 97/3/3
f 100/3/3 97/3/3 96/3/3
f 101/3/3 98/3/3 100/3/3
f 103/3/3 100/3/3 99/3/3
f 103/3/3 102/3/3 101/3/3
f 103/3/3 101/3/3 100/3/3
f 104/3/3 102/3/3 103/3/3
f 108/1/3 106/1/3 105/1/3
f 109/1/3 106/1/3 108/1/3
f 112/1/3 108/1/3 107/1/3
f 112/1/3 110/1/3 109/1/3
f 112/1/3 109/1/3 108/1/3
f 113/1/3 110/1/3 112/1/3
f 115/1/3 112/1/3 111/1/3
f 115/1/3 114/1/3 113/1/3
f 115/1/3 113/1/3 112/1/3
f 116/1/3 114/1/3 115/1/3
f 118/1/3 115/1/3 111/1/3
f 119/1/3 115/1/3 118/1/3
f 120/1/3 115/1/3 119/1/3
f 121/1/3 114/1/3 116/1/3
f 122/1/3 114/1/3 121/1/3
f 123/1/3 114/1/3 122/1/3
f 125/1/3 118/1/3 117/1/3
f 125/1/3 119/1/3 118/1/3
f 126/1/3 119/1/3 125/1/3
f 127/1/3 124/1/3 123/1/3
f 127/1/3 123/1/3 122/1/3
f 128/1/3 124/1/3 127/1/3
f 130/1/3 125/1/3 117/1/3
f 131/1/3 125/1/3 130/1/3
f 132/1/3 125/1/3 131/1/3
f 133/1/3 124/1/3 128/1/3
f 134/1/3 124/1/3 133/1/3
f 135/1/3 124/1/3 134/1/3
f 137/1/3 130/1/3 129/1/3
f 137/1/3 131/1/3 130/1/3
f 138/1/3 131/1/3 137/1/3
f 139/1/3 136/1/3 135/1/3
f 139/1/3 135/1/3 134/1/3
f 140/1/3 136/1/3 139/1/3
f 141/1/4 142/1/4 144/1/4
f 144/1/4 142/1/4 145/1/4
f 143/1/4 144/1/4 148/1/4
f 145/1/4 146/1/4 148/1/4
f 144/1/4 145/1/4 148/1/4
f 148/1/4 146/1/4 149/1/4
f 147/1/4 148/1/4 152/1/4
f 149/1/4 150/1/4 152/1/4
f 148/1/4 149/1/4 152/1/4
f 152/1/4 150/1/4 153/1/4
f 151/1/4 152/1/4 156/1/4
f 153/1/4 154/1/4 156/1/4
f 152/1/4 153/1/4 156/1/4
f 156/1/4 154/1/4 157/1/4
f 155/1/4 156/1/4 159/1/4
f 157/1/4 158/1/4 159/1/4
f 156/1/4 157/1/4 159/1/4
f 159/1/4 158/1/4 160/1/4
f 163/1/5 162/1/5 161/1/5
f 164/1/5 162/1/5 163/1/5
f 167/1/5 166/1/5 165/1/5
f 168/1/5 166/1/5 167/1/5
f 171/1/5 170/1/5 169/1/5
f 172/1/5 170/1/5 171/1/5
f 175/3/5 174/3/5 173/3/5
f 176/3/5 174/3/5 175/3/5
f 177/2/5 176/2/5 175/2/5
f 178/2/5 176/2/5 177/2/5
f 181/3/5 180/3/5 179/3/5
f 182/3/5 180/3/5 181/3/5
f 185/2/5 182/2/5 181/2/5
f 186/2/5 182/2/5 185/2/5
f 187/1/5 184/1/5 183/1/5
f 188/1/5 184/1/5 187/1/5
f 191/3/5 190/3/5 189/3/5
f 192/3/5 190/3/5 191/3/5
f 193/2/5 192/2/5 191/2/5
f 194/2/5 192/2/5 193/2/5
f 197/3/5 196/3/5 195/3/5
f 198/3/5 196/3/5 197/3/5
f 201/2/5 198/2/5 197/2/5
f 202/2/5 198/2/5 201/2/5
f 203/1/5 200/1/5 199/1/5
f 204/1/5 200/1/5 203/1/5
f 205/3/6 206/3/6 207/3/6
f 207/3/6 206/3/6 208/3/6
f 207/2/6 208/2/6 211/2/6
f 211/2/6 208/2/6 212/2/6
f 209/1/6 210/1/6 213/1/6
f 213/1/6 210/1/6 214/1/6
f 215/3/6 216/3/6 217/3/6
f 217/3/6 216/3/6 218/3/6
f 217/2/6 218/2/6 219/2/6
f 219/2/6 218/2/6 220/2/6
f 221/3/6 222/3/6 223/3/6
f 223/3/6 222/3/6 224/3/6
f 223/2/6 224/2/6 227/2/6
f 227/2/6 224/2/6 228/2/6
f 225/1/6 226/1/6 229/1/6
f 229/1/6 226/1/6 230/1/6
f 231/3/6 232/3/6 233/3/6
f 233/3/6 232/3/6 234/3/6
f 233/2/6 234/2/6 235/2/6
f 235/2/6 234/2/6 236/2/6
f 237/1/6 238/1/6 239/1/6
f 239/1/6 238/1/6 240/1/6
f 241/1/6 242/1/6 243/1/6
f 243/1/6 242/1/6 244/1/6
f 245/1/6 246/1/6 247/1/6
f 247/1/6 246/1/6 248/1/6
