# MagicaVoxel @ Ephtracy

# group
o 

# material
mtllib pokemon-overlay-8.mtl
usemtl palette

# normals
vn 1 0 0
vn -1 0 0
vn 0 0 1
vn 0 0 -1
vn 0 -1 0
vn 0 1 0

# texcoords
vt 0.845703 0.5

# verts
v 10.6 5.6 -1.9
v 10.6 5.6 -2
v 10.6 5.8 -1.9
v 10.6 5.8 -2
v 10.5 5.4 -1.9
v 10.5 5.4 -2
v 10.5 5.6 -1.9
v 10.5 5.6 -2
v 10.5 5.8 -1.9
v 10.5 5.8 -2
v 10.5 6 -1.9
v 10.5 6 -2
v 10.4 5.2 -1.9
v 10.4 5.2 -2
v 10.4 5.4 -1.9
v 10.4 5.4 -2
v 10.4 6 -1.9
v 10.4 6 -2
v 10.4 6.2 -1.9
v 10.4 6.2 -2
v 10.2 5.1 -1.9
v 10.2 5.1 -2
v 10.2 5.2 -1.9
v 10.2 5.2 -2
v 10.2 6.2 -1.9
v 10.2 6.2 -2
v 10.2 6.3 -1.9
v 10.2 6.3 -2
v 10 5.1 -1.9
v 10 5.1 -2
v 10 6.3 -1.9
v 10 6.3 -2
v 10.6 5.6 -1.9
v 10.6 5.8 -1.9
v 10.5 5.4 -1.9
v 10.5 5.6 -1.9
v 10.5 5.8 -1.9
v 10.5 6 -1.9
v 10.4 5.2 -1.9
v 10.4 5.4 -1.9
v 10.4 6 -1.9
v 10.4 6.2 -1.9
v 10.2 5.1 -1.9
v 10.2 5.2 -1.9
v 10.2 6.2 -1.9
v 10.2 6.3 -1.9
v 10 5.1 -1.9
v 10 6.3 -1.9
v 10.6 5.6 -2
v 10.6 5.8 -2
v 10.5 5.4 -2
v 10.5 5.6 -2
v 10.5 5.8 -2
v 10.5 6 -2
v 10.4 5.2 -2
v 10.4 5.4 -2
v 10.4 6 -2
v 10.4 6.2 -2
v 10.2 5.1 -2
v 10.2 5.2 -2
v 10.2 6.2 -2
v 10.2 6.3 -2
v 10 5.1 -2
v 10 6.3 -2
v 10.2 5.1 -1.9
v 10 5.1 -1.9
v 10.2 5.1 -2
v 10 5.1 -2
v 10.4 5.2 -1.9
v 10.2 5.2 -1.9
v 10.4 5.2 -2
v 10.2 5.2 -2
v 10.5 5.4 -1.9
v 10.4 5.4 -1.9
v 10.5 5.4 -2
v 10.4 5.4 -2
v 10.6 5.6 -1.9
v 10.5 5.6 -1.9
v 10.6 5.6 -2
v 10.5 5.6 -2
v 10.6 5.8 -1.9
v 10.5 5.8 -1.9
v 10.6 5.8 -2
v 10.5 5.8 -2
v 10.5 6 -1.9
v 10.4 6 -1.9
v 10.5 6 -2
v 10.4 6 -2
v 10.4 6.2 -1.9
v 10.2 6.2 -1.9
v 10.4 6.2 -2
v 10.2 6.2 -2
v 10.2 6.3 -1.9
v 10 6.3 -1.9
v 10.2 6.3 -2
v 10 6.3 -2

# faces
f 1/1/1 2/1/1 3/1/1
f 3/1/1 2/1/1 4/1/1
f 5/1/1 6/1/1 7/1/1
f 7/1/1 6/1/1 8/1/1
f 9/1/1 10/1/1 11/1/1
f 11/1/1 10/1/1 12/1/1
f 13/1/1 14/1/1 15/1/1
f 15/1/1 14/1/1 16/1/1
f 17/1/1 18/1/1 19/1/1
f 19/1/1 18/1/1 20/1/1
f 21/1/1 22/1/1 23/1/1
f 23/1/1 22/1/1 24/1/1
f 25/1/1 26/1/1 27/1/1
f 27/1/1 26/1/1 28/1/1
f 31/1/2 30/1/2 29/1/2
f 32/1/2 30/1/2 31/1/2
f 33/1/3 34/1/3 36/1/3
f 36/1/3 34/1/3 37/1/3
f 35/1/3 36/1/3 40/1/3
f 37/1/3 38/1/3 40/1/3
f 36/1/3 37/1/3 40/1/3
f 40/1/3 38/1/3 41/1/3
f 39/1/3 40/1/3 44/1/3
f 41/1/3 42/1/3 44/1/3
f 40/1/3 41/1/3 44/1/3
f 44/1/3 42/1/3 45/1/3
f 43/1/3 44/1/3 47/1/3
f 45/1/3 46/1/3 47/1/3
f 44/1/3 45/1/3 47/1/3
f 47/1/3 46/1/3 48/1/3
f 52/1/4 50/1/4 49/1/4
f 53/1/4 50/1/4 52/1/4
f 56/1/4 52/1/4 51/1/4
f 56/1/4 54/1/4 53/1/4
f 56/1/4 53/1/4 52/1/4
f 57/1/4 54/1/4 56/1/4
f 60/1/4 56/1/4 55/1/4
f 60/1/4 58/1/4 57/1/4
f 60/1/4 57/1/4 56/1/4
f 61/1/4 58/1/4 60/1/4
f 63/1/4 60/1/4 59/1/4
f 63/1/4 62/1/4 61/1/4
f 63/1/4 61/1/4 60/1/4
f 64/1/4 62/1/4 63/1/4
f 65/1/5 66/1/5 67/1/5
f 67/1/5 66/1/5 68/1/5
f 69/1/5 70/1/5 71/1/5
f 71/1/5 70/1/5 72/1/5
f 73/1/5 74/1/5 75/1/5
f 75/1/5 74/1/5 76/1/5
f 77/1/5 78/1/5 79/1/5
f 79/1/5 78/1/5 80/1/5
f 83/1/6 82/1/6 81/1/6
f 84/1/6 82/1/6 83/1/6
f 87/1/6 86/1/6 85/1/6
f 88/1/6 86/1/6 87/1/6
f 91/1/6 90/1/6 89/1/6
f 92/1/6 90/1/6 91/1/6
f 95/1/6 94/1/6 93/1/6
f 96/1/6 94/1/6 95/1/6
