# MagicaVoxel @ Ephtracy

# group
o 

# material
mtllib pokemon-overlay-11.mtl
usemtl palette

# normals
vn 0 -1 0
vn 0 1 0
vn 0 0 1
vn 0 0 -1
vn 1 0 0
vn -1 0 0

# texcoords
vt 0.845703 0.5
vt 0.849609 0.5
vt 0.853516 0.5

# verts
v 2.4 0.2 -2.3
v 2.4 0.2 -2.4
v -1.8 0.2 -2.3
v -1.8 0.2 -2.4
v -1.8 0.3 -2.3
v -1.8 0.3 -2.4
v -2 0.3 -2.3
v -2 0.3 -2.4
v -2 0.4 -2.3
v -2 0.4 -2.4
v -2.2 0.4 -2.3
v -2.2 0.4 -2.4
v 2.4 0.5 -2.1
v 2.4 0.5 -2.2
v 2.4 0.5 -2.3
v -1.8 0.5 -2.1
v -1.8 0.5 -2.2
v -1.8 0.5 -2.3
v -1.8 0.6 -2.1
v -1.8 0.6 -2.2
v -1.8 0.6 -2.3
v -1.9 0.6 -2.1
v -1.9 0.6 -2.2
v -1.9 0.6 -2.3
v -2.2 0.6 -2.3
v -2.2 0.6 -2.4
v -2.3 0.6 -2.3
v -2.3 0.6 -2.4
v -1.9 0.7 -2.1
v -1.9 0.7 -2.2
v -1.9 0.7 -2.3
v -2 0.7 -2.1
v -2 0.7 -2.2
v -2 0.7 -2.3
v -2 0.8 -2.1
v -2 0.8 -2.2
v -2 0.8 -2.3
v -2.1 0.8 -2.1
v -2.1 0.8 -2.2
v -2.1 0.8 -2.3
v -2.3 0.8 -2.3
v -2.3 0.8 -2.4
v -2.4 0.8 -2.3
v -2.4 0.8 -2.4
v 2.4 5 -2.1
v 2.4 5 -2.2
v 2.4 5 -2.3
v 2.4 5 -2.4
v -2.1 5 -2.1
v -2.1 5 -2.2
v -2.1 5 -2.3
v -2.4 5 -2.3
v -2.4 5 -2.4
v 2.4 0.5 -2.1
v -1.8 0.5 -2.1
v -1.8 0.6 -2.1
v -1.9 0.6 -2.1
v -1.9 0.7 -2.1
v -2 0.7 -2.1
v -2 0.8 -2.1
v -2.1 0.8 -2.1
v 2.4 5 -2.1
v -2.1 5 -2.1
v 2.4 0.2 -2.3
v -1.8 0.2 -2.3
v -1.8 0.3 -2.3
v -2 0.3 -2.3
v -2 0.4 -2.3
v -2.2 0.4 -2.3
v 2.4 0.5 -2.3
v -1.8 0.5 -2.3
v -1.8 0.6 -2.3
v -1.9 0.6 -2.3
v -2.2 0.6 -2.3
v -2.3 0.6 -2.3
v -1.9 0.7 -2.3
v -2 0.7 -2.3
v -2 0.8 -2.3
v -2.1 0.8 -2.3
v -2.3 0.8 -2.3
v -2.4 0.8 -2.3
v -2.1 5 -2.3
v -2.4 5 -2.3
v 2.4 0.2 -2.4
v -1.8 0.2 -2.4
v -1.8 0.3 -2.4
v -2 0.3 -2.4
v -2 0.4 -2.4
v -2.2 0.4 -2.4
v -2.2 0.6 -2.4
v -2.3 0.6 -2.4
v -2.3 0.8 -2.4
v -2.4 0.8 -2.4
v 2.4 5 -2.4
v -2.4 5 -2.4
v 2.4 0.5 -2.1
v 2.4 5 -2.1
v 2.4 0.5 -2.2
v 2.4 5 -2.2
v 2.4 0.2 -2.3
v 2.4 0.5 -2.3
v 2.4 5 -2.3
v 2.4 0.2 -2.4
v 2.4 5 -2.4
v -1.8 0.5 -2.1
v -1.8 0.6 -2.1
v -1.8 0.5 -2.2
v -1.8 0.6 -2.2
v -1.8 0.2 -2.3
v -1.8 0.3 -2.3
v -1.8 0.5 -2.3
v -1.8 0.6 -2.3
v -1.8 0.2 -2.4
v -1.8 0.3 -2.4
v -1.9 0.6 -2.1
v -1.9 0.7 -2.1
v -1.9 0.6 -2.2
v -1.9 0.7 -2.2
v -1.9 0.6 -2.3
v -1.9 0.7 -2.3
v -2 0.7 -2.1
v -2 0.8 -2.1
v -2 0.7 -2.2
v -2 0.8 -2.2
v -2 0.3 -2.3
v -2 0.4 -2.3
v -2 0.7 -2.3
v -2 0.8 -2.3
v -2 0.3 -2.4
v -2 0.4 -2.4
v -2.1 0.8 -2.1
v -2.1 5 -2.1
v -2.1 0.8 -2.2
v -2.1 5 -2.2
v -2.1 0.8 -2.3
v -2.1 5 -2.3
v -2.2 0.4 -2.3
v -2.2 0.6 -2.3
v -2.2 0.4 -2.4
v -2.2 0.6 -2.4
v -2.3 0.6 -2.3
v -2.3 0.8 -2.3
v -2.3 0.6 -2.4
v -2.3 0.8 -2.4
v -2.4 0.8 -2.3
v -2.4 5 -2.3
v -2.4 0.8 -2.4
v -2.4 5 -2.4

# faces
f 3/1/1 2/1/1 1/1/1
f 4/1/1 2/1/1 3/1/1
f 7/1/1 6/1/1 5/1/1
f 8/1/1 6/1/1 7/1/1
f 11/1/1 10/1/1 9/1/1
f 12/1/1 10/1/1 11/1/1
f 16/2/1 14/2/1 13/2/1
f 17/3/1 15/3/1 14/3/1
f 17/2/1 14/2/1 16/2/1
f 18/3/1 15/3/1 17/3/1
f 22/2/1 20/2/1 19/2/1
f 23/3/1 21/3/1 20/3/1
f 23/2/1 20/2/1 22/2/1
f 24/3/1 21/3/1 23/3/1
f 27/1/1 26/1/1 25/1/1
f 28/1/1 26/1/1 27/1/1
f 32/2/1 30/2/1 29/2/1
f 33/3/1 31/3/1 30/3/1
f 33/2/1 30/2/1 32/2/1
f 34/3/1 31/3/1 33/3/1
f 38/2/1 36/2/1 35/2/1
f 39/3/1 37/3/1 36/3/1
f 39/2/1 36/2/1 38/2/1
f 40/3/1 37/3/1 39/3/1
f 43/1/1 42/1/1 41/1/1
f 44/1/1 42/1/1 43/1/1
f 45/2/2 46/2/2 49/2/2
f 46/3/2 47/3/2 50/3/2
f 49/2/2 46/2/2 50/2/2
f 47/1/2 48/1/2 51/1/2
f 50/3/2 47/3/2 51/3/2
f 51/1/2 48/1/2 52/1/2
f 52/1/2 48/1/2 53/1/2
f 56/2/3 55/2/3 54/2/3
f 58/2/3 57/2/3 56/2/3
f 60/2/3 59/2/3 58/2/3
f 62/2/3 56/2/3 54/2/3
f 62/2/3 61/2/3 60/2/3
f 62/2/3 60/2/3 58/2/3
f 62/2/3 58/2/3 56/2/3
f 63/2/3 61/2/3 62/2/3
f 66/1/3 65/1/3 64/1/3
f 68/1/3 67/1/3 66/1/3
f 70/1/3 66/1/3 64/1/3
f 70/1/3 69/1/3 68/1/3
f 70/1/3 68/1/3 66/1/3
f 71/1/3 69/1/3 70/1/3
f 72/1/3 69/1/3 71/1/3
f 73/1/3 69/1/3 72/1/3
f 74/1/3 69/1/3 73/1/3
f 76/1/3 75/1/3 74/1/3
f 76/1/3 74/1/3 73/1/3
f 77/1/3 75/1/3 76/1/3
f 78/1/3 75/1/3 77/1/3
f 79/1/3 75/1/3 78/1/3
f 80/1/3 75/1/3 79/1/3
f 82/1/3 81/1/3 80/1/3
f 82/1/3 80/1/3 79/1/3
f 83/1/3 81/1/3 82/1/3
f 84/1/4 85/1/4 86/1/4
f 86/1/4 87/1/4 88/1/4
f 88/1/4 89/1/4 90/1/4
f 90/1/4 91/1/4 92/1/4
f 84/1/4 86/1/4 94/1/4
f 92/1/4 93/1/4 94/1/4
f 90/1/4 92/1/4 94/1/4
f 88/1/4 90/1/4 94/1/4
f 86/1/4 88/1/4 94/1/4
f 94/1/4 93/1/4 95/1/4
f 98/2/5 97/2/5 96/2/5
f 99/2/5 97/2/5 98/2/5
f 101/3/5 99/3/5 98/3/5
f 102/3/5 99/3/5 101/3/5
f 103/1/5 101/1/5 100/1/5
f 103/1/5 102/1/5 101/1/5
f 104/1/5 102/1/5 103/1/5
f 105/2/6 106/2/6 107/2/6
f 107/2/6 106/2/6 108/2/6
f 107/3/6 108/3/6 111/3/6
f 111/3/6 108/3/6 112/3/6
f 109/1/6 110/1/6 113/1/6
f 113/1/6 110/1/6 114/1/6
f 115/2/6 116/2/6 117/2/6
f 117/2/6 116/2/6 118/2/6
f 117/3/6 118/3/6 119/3/6
f 119/3/6 118/3/6 120/3/6
f 121/2/6 122/2/6 123/2/6
f 123/2/6 122/2/6 124/2/6
f 123/3/6 124/3/6 127/3/6
f 127/3/6 124/3/6 128/3/6
f 125/1/6 126/1/6 129/1/6
f 129/1/6 126/1/6 130/1/6
f 131/2/6 132/2/6 133/2/6
f 133/2/6 132/2/6 134/2/6
f 133/3/6 134/3/6 135/3/6
f 135/3/6 134/3/6 136/3/6
f 137/1/6 138/1/6 139/1/6
f 139/1/6 138/1/6 140/1/6
f 141/1/6 142/1/6 143/1/6
f 143/1/6 142/1/6 144/1/6
f 145/1/6 146/1/6 147/1/6
f 147/1/6 146/1/6 148/1/6
