# MagicaVoxel @ Ephtracy

# group
o 

# material
mtllib rail-straight-vertical.mtl
usemtl palette

# normals
vn -1 0 0
vn 1 0 0
vn 0 0 1
vn 0 0 -1
vn 0 -1 0
vn 0 1 0

# texcoords
vt 0.962891 0.5
vt 0.978516 0.5

# verts
v -0.3 0 0.2
v -0.3 0 0.0999999
v -0.3 0 -0.2
v -0.3 1 0.2
v -0.3 1 0.0999999
v -0.3 1.8 2.4
v -0.3 1.8 0.2
v -0.3 1.8 -0.2
v -0.3 1.8 -2.4
v -0.3 2.1 2.4
v -0.3 2.1 0.2
v -0.3 2.1 -0.2
v -0.3 2.1 -2.4
v -0.3 2.2 2.4
v -0.3 2.2 0.2
v -0.3 2.2 0.0999999
v -0.3 2.2 -0.2
v -0.3 2.2 -2.4
v -0.3 3.1 0.2
v -0.3 3.1 0.0999999
v -0.3 3.3 2.4
v -0.3 3.3 0.2
v -0.3 3.3 -0.2
v -0.3 3.3 -2.4
v -0.3 3.6 2.4
v -0.3 3.6 -2.4
v -0.3 3.7 2.4
v -0.3 3.7 -2.4
v -0.2 0 0.3
v -0.2 0 0.2
v -0.2 0 -0.2
v -0.2 0 -0.3
v -0.2 0.7 0.3
v -0.2 0.7 0.2
v -0.2 1 0.2
v -0.2 1.7 2.4
v -0.2 1.7 0.3
v -0.2 1.7 -0.3
v -0.2 1.7 -2.4
v -0.2 1.8 2.4
v -0.2 1.8 0.2
v -0.2 1.8 -0.2
v -0.2 1.8 -2.4
v -0.2 2.2 2.4
v -0.2 2.2 0.2
v -0.2 2.2 -0.2
v -0.2 2.2 -0.3
v -0.2 2.2 -2.4
v -0.2 2.3 2.4
v -0.2 2.3 0.3
v -0.2 2.3 -0.3
v -0.2 2.3 -2.4
v -0.2 2.6 0.3
v -0.2 2.6 0.2
v -0.2 3.1 0.2
v -0.2 3.2 2.4
v -0.2 3.2 0.3
v -0.2 3.2 -0.3
v -0.2 3.2 -2.4
v -0.2 3.3 2.4
v -0.2 3.3 0.2
v -0.2 3.3 -0.2
v -0.2 3.3 -2.4
v -0.2 3.7 2.4
v -0.2 3.7 -2.4
v -0.2 3.8 2.4
v -0.2 3.8 -2.4
v 0.2 0 0.3
v 0.2 0 0.2
v 0.2 0 -0.2
v 0.2 0 -0.3
v 0.2 1.7 2.4
v 0.2 1.7 0.3
v 0.2 1.7 -0.3
v 0.2 1.7 -2.4
v 0.2 1.8 2.4
v 0.2 1.8 0.2
v 0.2 1.8 -0.2
v 0.2 1.8 -2.4
v 0.2 2.2 2.4
v 0.2 2.2 0.2
v 0.2 2.2 -0.2
v 0.2 2.2 -2.4
v 0.2 2.3 2.4
v 0.2 2.3 0.3
v 0.2 2.3 -0.3
v 0.2 2.3 -2.4
v 0.2 3.2 2.4
v 0.2 3.2 0.3
v 0.2 3.2 -0.3
v 0.2 3.2 -2.4
v 0.2 3.3 2.4
v 0.2 3.3 0.2
v 0.2 3.3 -0.2
v 0.2 3.3 -2.4
v 0.2 3.7 2.4
v 0.2 3.7 -2.4
v 0.2 3.8 2.4
v 0.2 3.8 -2.4
v 0.3 0 0.2
v 0.3 0 -0.2
v 0.3 1.8 2.4
v 0.3 1.8 0.2
v 0.3 1.8 -0.2
v 0.3 1.8 -2.4
v 0.3 2.2 2.4
v 0.3 2.2 0.2
v 0.3 2.2 -0.2
v 0.3 2.2 -2.4
v 0.3 3.3 2.4
v 0.3 3.3 0.2
v 0.3 3.3 -0.2
v 0.3 3.3 -2.4
v 0.3 3.7 2.4
v 0.3 3.7 -2.4
v -0.3 1.8 2.4
v -0.3 2.1 2.4
v -0.3 2.2 2.4
v -0.3 3.3 2.4
v -0.3 3.6 2.4
v -0.3 3.7 2.4
v -0.2 1.7 2.4
v -0.2 1.8 2.4
v -0.2 2.1 2.4
v -0.2 2.2 2.4
v -0.2 2.3 2.4
v -0.2 3.2 2.4
v -0.2 3.3 2.4
v -0.2 3.6 2.4
v -0.2 3.7 2.4
v -0.2 3.8 2.4
v -0.1 2.2 2.4
v -0.1 2.3 2.4
v -0.1 3.7 2.4
v -0.1 3.8 2.4
v 0.2 1.7 2.4
v 0.2 1.8 2.4
v 0.2 2.2 2.4
v 0.2 2.3 2.4
v 0.2 3.2 2.4
v 0.2 3.3 2.4
v 0.2 3.7 2.4
v 0.2 3.8 2.4
v 0.3 1.8 2.4
v 0.3 2.2 2.4
v 0.3 3.3 2.4
v 0.3 3.7 2.4
v -0.2 0 0.3
v -0.2 0.7 0.3
v -0.2 1.7 0.3
v -0.2 2.3 0.3
v -0.2 2.6 0.3
v -0.2 3.2 0.3
v -0.1 0 0.3
v -0.1 0.7 0.3
v -0.1 2.3 0.3
v -0.1 2.6 0.3
v 0.2 0 0.3
v 0.2 1.7 0.3
v 0.2 2.3 0.3
v 0.2 3.2 0.3
v -0.3 0 0.2
v -0.3 1 0.2
v -0.3 1.8 0.2
v -0.3 2.2 0.2
v -0.3 3.1 0.2
v -0.3 3.3 0.2
v -0.2 0 0.2
v -0.2 0.7 0.2
v -0.2 1 0.2
v -0.2 1.8 0.2
v -0.2 2.2 0.2
v -0.2 2.6 0.2
v -0.2 3.1 0.2
v -0.2 3.3 0.2
v 0.2 0 0.2
v 0.2 1.8 0.2
v 0.2 2.2 0.2
v 0.2 3.3 0.2
v 0.3 0 0.2
v 0.3 1.8 0.2
v 0.3 2.2 0.2
v 0.3 3.3 0.2
v -0.3 0 -0.2
v -0.3 1.8 -0.2
v -0.3 2.2 -0.2
v -0.3 3.3 -0.2
v -0.2 0 -0.2
v -0.2 1.8 -0.2
v -0.2 2.2 -0.2
v -0.2 3.3 -0.2
v 0.2 0 -0.2
v 0.2 1.8 -0.2
v 0.2 2.2 -0.2
v 0.2 3.3 -0.2
v 0.3 0 -0.2
v 0.3 1.8 -0.2
v 0.3 2.2 -0.2
v 0.3 3.3 -0.2
v -0.2 0 -0.3
v -0.2 1.7 -0.3
v -0.2 2.3 -0.3
v -0.2 3.2 -0.3
v -0.1 2.3 -0.3
v 0.2 0 -0.3
v 0.2 1.7 -0.3
v 0.2 2.3 -0.3
v 0.2 3.2 -0.3
v -0.3 1.8 -2.4
v -0.3 2.1 -2.4
v -0.3 2.2 -2.4
v -0.3 3.3 -2.4
v -0.3 3.6 -2.4
v -0.3 3.7 -2.4
v -0.2 1.7 -2.4
v -0.2 1.8 -2.4
v -0.2 2.1 -2.4
v -0.2 2.2 -2.4
v -0.2 2.3 -2.4
v -0.2 3.2 -2.4
v -0.2 3.3 -2.4
v -0.2 3.6 -2.4
v -0.2 3.7 -2.4
v -0.2 3.8 -2.4
v -0.1 2.2 -2.4
v -0.1 2.3 -2.4
v -0.1 3.7 -2.4
v -0.1 3.8 -2.4
v 0.2 1.7 -2.4
v 0.2 1.8 -2.4
v 0.2 2.2 -2.4
v 0.2 2.3 -2.4
v 0.2 3.2 -2.4
v 0.2 3.3 -2.4
v 0.2 3.7 -2.4
v 0.2 3.8 -2.4
v 0.3 1.8 -2.4
v 0.3 2.2 -2.4
v 0.3 3.3 -2.4
v 0.3 3.7 -2.4
v -0.2 0 0.3
v -0.1 0 0.3
v 0.2 0 0.3
v -0.3 0 0.2
v -0.2 0 0.2
v -0.1 0 0.2
v 0.2 0 0.2
v 0.3 0 0.2
v -0.3 0 0.0999999
v -0.2 0 0.0999999
v -0.3 0 -0.2
v -0.2 0 -0.2
v 0.2 0 -0.2
v 0.3 0 -0.2
v -0.2 0 -0.3
v 0.2 0 -0.3
v -0.2 1.7 2.4
v 0.2 1.7 2.4
v -0.2 1.7 0.3
v 0.2 1.7 0.3
v -0.2 1.7 -0.3
v 0.2 1.7 -0.3
v -0.2 1.7 -2.4
v 0.2 1.7 -2.4
v -0.3 1.8 2.4
v -0.2 1.8 2.4
v 0.2 1.8 2.4
v 0.3 1.8 2.4
v -0.3 1.8 0.2
v -0.2 1.8 0.2
v 0.2 1.8 0.2
v 0.3 1.8 0.2
v -0.3 1.8 -0.2
v -0.2 1.8 -0.2
v 0.2 1.8 -0.2
v 0.3 1.8 -0.2
v -0.3 1.8 -2.4
v -0.2 1.8 -2.4
v 0.2 1.8 -2.4
v 0.3 1.8 -2.4
v -0.2 3.2 2.4
v 0.2 3.2 2.4
v -0.2 3.2 0.3
v 0.2 3.2 0.3
v -0.2 3.2 -0.3
v 0.2 3.2 -0.3
v -0.2 3.2 -2.4
v 0.2 3.2 -2.4
v -0.3 3.3 2.4
v -0.2 3.3 2.4
v 0.2 3.3 2.4
v 0.3 3.3 2.4
v -0.3 3.3 0.2
v -0.2 3.3 0.2
v 0.2 3.3 0.2
v 0.3 3.3 0.2
v -0.3 3.3 -0.2
v -0.2 3.3 -0.2
v 0.2 3.3 -0.2
v 0.3 3.3 -0.2
v -0.3 3.3 -2.4
v -0.2 3.3 -2.4
v 0.2 3.3 -2.4
v 0.3 3.3 -2.4
v -0.3 2.2 2.4
v -0.2 2.2 2.4
v 0.2 2.2 2.4
v 0.3 2.2 2.4
v -0.3 2.2 0.2
v -0.2 2.2 0.2
v 0.2 2.2 0.2
v 0.3 2.2 0.2
v -0.3 2.2 -0.2
v -0.2 2.2 -0.2
v 0.2 2.2 -0.2
v 0.3 2.2 -0.2
v -0.2 2.2 -0.3
v -0.3 2.2 -2.4
v -0.2 2.2 -2.4
v 0.2 2.2 -2.4
v 0.3 2.2 -2.4
v -0.2 2.3 2.4
v -0.1 2.3 2.4
v 0.2 2.3 2.4
v -0.2 2.3 0.3
v -0.1 2.3 0.3
v 0.2 2.3 0.3
v -0.2 2.3 -0.3
v -0.1 2.3 -0.3
v 0.2 2.3 -0.3
v -0.2 2.3 -2.4
v -0.1 2.3 -2.4
v 0.2 2.3 -2.4
v -0.3 3.7 2.4
v -0.2 3.7 2.4
v 0.2 3.7 2.4
v 0.3 3.7 2.4
v -0.3 3.7 -2.4
v -0.2 3.7 -2.4
v 0.2 3.7 -2.4
v 0.3 3.7 -2.4
v -0.2 3.8 2.4
v -0.1 3.8 2.4
v 0.2 3.8 2.4
v -0.2 3.8 -2.4
v -0.1 3.8 -2.4
v 0.2 3.8 -2.4

# faces
f 4/1/1 2/1/1 1/1/1
f 5/2/1 3/2/1 2/2/1
f 5/1/1 2/1/1 4/1/1
f 7/2/1 5/2/1 4/2/1
f 8/2/1 3/2/1 5/2/1
f 8/2/1 5/2/1 7/2/1
f 10/2/1 7/2/1 6/2/1
f 10/2/1 9/2/1 8/2/1
f 10/2/1 8/2/1 7/2/1
f 11/2/1 9/2/1 10/2/1
f 12/2/1 9/2/1 11/2/1
f 13/2/1 9/2/1 12/2/1
f 14/1/1 11/1/1 10/1/1
f 15/2/1 12/2/1 11/2/1
f 15/1/1 11/1/1 14/1/1
f 16/2/1 12/2/1 15/2/1
f 17/1/1 13/1/1 12/1/1
f 17/2/1 12/2/1 16/2/1
f 18/1/1 13/1/1 17/1/1
f 19/1/1 16/1/1 15/1/1
f 20/2/1 17/2/1 16/2/1
f 20/1/1 16/1/1 19/1/1
f 22/2/1 20/2/1 19/2/1
f 23/2/1 17/2/1 20/2/1
f 23/2/1 20/2/1 22/2/1
f 25/2/1 22/2/1 21/2/1
f 25/2/1 24/2/1 23/2/1
f 25/2/1 23/2/1 22/2/1
f 26/2/1 24/2/1 25/2/1
f 27/1/1 26/1/1 25/1/1
f 28/1/1 26/1/1 27/1/1
f 33/1/1 30/1/1 29/1/1
f 34/1/1 30/1/1 33/1/1
f 35/2/1 34/2/1 33/2/1
f 37/2/1 35/2/1 33/2/1
f 38/2/1 32/2/1 31/2/1
f 40/2/1 37/2/1 36/2/1
f 41/2/1 35/2/1 37/2/1
f 41/2/1 37/2/1 40/2/1
f 42/2/1 39/2/1 38/2/1
f 42/2/1 38/2/1 31/2/1
f 43/2/1 39/2/1 42/2/1
f 49/1/1 45/1/1 44/1/1
f 50/1/1 45/1/1 49/1/1
f 51/1/1 48/1/1 47/1/1
f 51/2/1 47/2/1 46/2/1
f 52/1/1 48/1/1 51/1/1
f 53/1/1 45/1/1 50/1/1
f 54/1/1 45/1/1 53/1/1
f 55/2/1 54/2/1 53/2/1
f 57/2/1 55/2/1 53/2/1
f 58/2/1 51/2/1 46/2/1
f 60/2/1 57/2/1 56/2/1
f 61/2/1 55/2/1 57/2/1
f 61/2/1 57/2/1 60/2/1
f 62/2/1 59/2/1 58/2/1
f 62/2/1 58/2/1 46/2/1
f 63/2/1 59/2/1 62/2/1
f 66/1/1 65/1/1 64/1/1
f 67/1/1 65/1/1 66/1/1
f 68/2/2 69/2/2 73/2/2
f 70/2/2 71/2/2 74/2/2
f 72/2/2 73/2/2 76/2/2
f 73/2/2 69/2/2 77/2/2
f 76/2/2 73/2/2 77/2/2
f 74/2/2 75/2/2 78/2/2
f 70/2/2 74/2/2 78/2/2
f 78/2/2 75/2/2 79/2/2
f 80/2/2 81/2/2 84/2/2
f 84/2/2 81/2/2 85/2/2
f 82/2/2 83/2/2 86/2/2
f 86/2/2 83/2/2 87/2/2
f 85/2/2 81/2/2 89/2/2
f 82/2/2 86/2/2 90/2/2
f 88/2/2 89/2/2 92/2/2
f 89/2/2 81/2/2 93/2/2
f 92/2/2 89/2/2 93/2/2
f 90/2/2 91/2/2 94/2/2
f 82/2/2 90/2/2 94/2/2
f 94/2/2 91/2/2 95/2/2
f 96/2/2 97/2/2 98/2/2
f 98/2/2 97/2/2 99/2/2
f 100/2/2 101/2/2 103/2/2
f 103/2/2 101/2/2 104/2/2
f 102/2/2 103/2/2 106/2/2
f 104/2/2 105/2/2 106/2/2
f 103/2/2 104/2/2 106/2/2
f 106/2/2 105/2/2 107/2/2
f 107/2/2 105/2/2 108/2/2
f 108/2/2 105/2/2 109/2/2
f 107/2/2 108/2/2 111/2/2
f 111/2/2 108/2/2 112/2/2
f 110/2/2 111/2/2 114/2/2
f 112/2/2 113/2/2 114/2/2
f 111/2/2 112/2/2 114/2/2
f 114/2/2 113/2/2 115/2/2
f 123/2/3 117/2/3 116/2/3
f 124/1/3 118/1/3 117/1/3
f 124/2/3 117/2/3 123/2/3
f 125/1/3 118/1/3 124/1/3
f 128/2/3 120/2/3 119/2/3
f 129/1/3 121/1/3 120/1/3
f 129/2/3 120/2/3 128/2/3
f 130/1/3 121/1/3 129/1/3
f 132/2/3 123/2/3 122/2/3
f 132/1/3 126/1/3 125/1/3
f 132/2/3 124/2/3 123/2/3
f 132/2/3 125/2/3 124/2/3
f 133/1/3 126/1/3 132/1/3
f 134/2/3 128/2/3 127/2/3
f 134/1/3 131/1/3 130/1/3
f 134/2/3 130/2/3 129/2/3
f 134/2/3 129/2/3 128/2/3
f 135/1/3 131/1/3 134/1/3
f 136/2/3 133/2/3 132/2/3
f 136/2/3 132/2/3 122/2/3
f 137/2/3 133/2/3 136/2/3
f 138/2/3 133/2/3 137/2/3
f 139/2/3 133/2/3 138/2/3
f 140/2/3 135/2/3 134/2/3
f 140/2/3 134/2/3 127/2/3
f 141/2/3 135/2/3 140/2/3
f 142/2/3 135/2/3 141/2/3
f 143/2/3 135/2/3 142/2/3
f 144/2/3 138/2/3 137/2/3
f 145/2/3 138/2/3 144/2/3
f 146/2/3 142/2/3 141/2/3
f 147/2/3 142/2/3 146/2/3
f 154/1/3 149/1/3 148/1/3
f 155/2/3 150/2/3 149/2/3
f 155/1/3 149/1/3 154/1/3
f 156/1/3 152/1/3 151/1/3
f 157/2/3 153/2/3 152/2/3
f 157/1/3 152/1/3 156/1/3
f 158/2/3 155/2/3 154/2/3
f 159/2/3 150/2/3 155/2/3
f 159/2/3 155/2/3 158/2/3
f 160/2/3 157/2/3 156/2/3
f 161/2/3 153/2/3 157/2/3
f 161/2/3 157/2/3 160/2/3
f 168/1/3 163/1/3 162/1/3
f 169/1/3 163/1/3 168/1/3
f 170/2/3 164/2/3 163/2/3
f 170/1/3 163/1/3 169/1/3
f 171/2/3 164/2/3 170/2/3
f 172/1/3 166/1/3 165/1/3
f 173/1/3 166/1/3 172/1/3
f 174/2/3 167/2/3 166/2/3
f 174/1/3 166/1/3 173/1/3
f 175/2/3 167/2/3 174/2/3
f 180/2/3 177/2/3 176/2/3
f 181/2/3 177/2/3 180/2/3
f 182/2/3 179/2/3 178/2/3
f 183/2/3 179/2/3 182/2/3
f 184/2/4 185/2/4 188/2/4
f 188/2/4 185/2/4 189/2/4
f 186/2/4 187/2/4 190/2/4
f 190/2/4 187/2/4 191/2/4
f 192/2/4 193/2/4 196/2/4
f 196/2/4 193/2/4 197/2/4
f 194/2/4 195/2/4 198/2/4
f 198/2/4 195/2/4 199/2/4
f 202/2/4 203/2/4 204/2/4
f 200/2/4 201/2/4 205/2/4
f 205/2/4 201/2/4 206/2/4
f 204/2/4 203/2/4 207/2/4
f 207/2/4 203/2/4 208/2/4
f 209/2/4 210/2/4 216/2/4
f 210/1/4 211/1/4 217/1/4
f 216/2/4 210/2/4 217/2/4
f 217/1/4 211/1/4 218/1/4
f 212/2/4 213/2/4 221/2/4
f 213/1/4 214/1/4 222/1/4
f 221/2/4 213/2/4 222/2/4
f 222/1/4 214/1/4 223/1/4
f 215/2/4 216/2/4 225/2/4
f 218/1/4 219/1/4 225/1/4
f 216/2/4 217/2/4 225/2/4
f 217/2/4 218/2/4 225/2/4
f 225/1/4 219/1/4 226/1/4
f 220/2/4 221/2/4 227/2/4
f 223/1/4 224/1/4 227/1/4
f 222/2/4 223/2/4 227/2/4
f 221/2/4 222/2/4 227/2/4
f 227/1/4 224/1/4 228/1/4
f 225/2/4 226/2/4 229/2/4
f 215/2/4 225/2/4 229/2/4
f 229/2/4 226/2/4 230/2/4
f 230/2/4 226/2/4 231/2/4
f 231/2/4 226/2/4 232/2/4
f 227/2/4 228/2/4 233/2/4
f 220/2/4 227/2/4 233/2/4
f 233/2/4 228/2/4 234/2/4
f 234/2/4 228/2/4 235/2/4
f 235/2/4 228/2/4 236/2/4
f 230/2/4 231/2/4 237/2/4
f 237/2/4 231/2/4 238/2/4
f 234/2/4 235/2/4 239/2/4
f 239/2/4 235/2/4 240/2/4
f 245/1/5 242/1/5 241/1/5
f 246/2/5 243/2/5 242/2/5
f 246/1/5 242/1/5 245/1/5
f 247/2/5 243/2/5 246/2/5
f 249/1/5 245/1/5 244/1/5
f 250/2/5 248/2/5 247/2/5
f 250/1/5 245/1/5 249/1/5
f 250/2/5 246/2/5 245/2/5
f 250/2/5 247/2/5 246/2/5
f 251/2/5 250/2/5 249/2/5
f 252/2/5 248/2/5 250/2/5
f 252/2/5 250/2/5 251/2/5
f 253/2/5 248/2/5 252/2/5
f 254/2/5 248/2/5 253/2/5
f 255/2/5 253/2/5 252/2/5
f 256/2/5 253/2/5 255/2/5
f 259/2/5 258/2/5 257/2/5
f 260/2/5 258/2/5 259/2/5
f 263/2/5 262/2/5 261/2/5
f 264/2/5 262/2/5 263/2/5
f 269/2/5 266/2/5 265/2/5
f 270/2/5 266/2/5 269/2/5
f 271/2/5 268/2/5 267/2/5
f 272/2/5 268/2/5 271/2/5
f 277/2/5 274/2/5 273/2/5
f 278/2/5 274/2/5 277/2/5
f 279/2/5 276/2/5 275/2/5
f 280/2/5 276/2/5 279/2/5
f 283/2/5 282/2/5 281/2/5
f 284/2/5 282/2/5 283/2/5
f 287/2/5 286/2/5 285/2/5
f 288/2/5 286/2/5 287/2/5
f 293/2/5 290/2/5 289/2/5
f 294/2/5 290/2/5 293/2/5
f 295/2/5 292/2/5 291/2/5
f 296/2/5 292/2/5 295/2/5
f 301/2/5 298/2/5 297/2/5
f 302/2/5 298/2/5 301/2/5
f 303/2/5 300/2/5 299/2/5
f 304/2/5 300/2/5 303/2/5
f 305/1/6 306/1/6 309/1/6
f 309/1/6 306/1/6 310/1/6
f 307/2/6 308/2/6 311/2/6
f 311/2/6 308/2/6 312/2/6
f 313/1/6 314/1/6 317/1/6
f 313/1/6 317/1/6 318/1/6
f 318/1/6 317/1/6 319/1/6
f 315/2/6 316/2/6 320/2/6
f 320/2/6 316/2/6 321/2/6
f 322/1/6 323/1/6 325/1/6
f 323/2/6 324/2/6 326/2/6
f 325/1/6 323/1/6 326/1/6
f 326/2/6 324/2/6 327/2/6
f 328/1/6 329/1/6 331/1/6
f 329/2/6 330/2/6 332/2/6
f 331/1/6 329/1/6 332/1/6
f 332/2/6 330/2/6 333/2/6
f 334/1/6 335/1/6 338/1/6
f 338/1/6 335/1/6 339/1/6
f 336/2/6 337/2/6 340/2/6
f 340/2/6 337/2/6 341/2/6
f 342/1/6 343/1/6 345/1/6
f 343/2/6 344/2/6 346/2/6
f 345/1/6 343/1/6 346/1/6
f 346/2/6 344/2/6 347/2/6
