# MagicaVoxel @ Ephtracy

# group
o 

# material
mtllib icon-ratatta-4.mtl
usemtl palette

# normals
vn -1 0 0
vn 1 0 0
vn 0 0 1
vn 0 0 -1
vn 0 -1 0
vn 0 1 0

# texcoords
vt 0.884766 0.5
vt 0.888672 0.5

# verts
v 0 2 -1.2
v 0 2 -1.3
v 0 2.2 -1.2
v 0 2.2 -1.3
v 0.3 2.3 -1.4
v 0.3 2.3 -1.5
v 0.3 2.5 -1.4
v 0.3 2.5 -1.5
v 0.4 2.3 -1.5
v 0.4 2.3 -1.6
v 0.4 2.5 -1.5
v 0.4 2.6 -1.5
v 0.4 2.6 -1.6
v 0.2 2 -1.2
v 0.2 2 -1.3
v 0.2 2.2 -1.2
v 0.2 2.2 -1.3
v 0.4 2.3 -1.4
v 0.4 2.3 -1.5
v 0.4 2.5 -1.4
v 0.4 2.5 -1.5
v 0.5 2.3 -1.5
v 0.5 2.3 -1.6
v 0.5 2.6 -1.5
v 0.5 2.6 -1.6
v 0 2 -1.2
v 0 2.2 -1.2
v 0.2 2 -1.2
v 0.2 2.2 -1.2
v 0.3 2.3 -1.4
v 0.3 2.5 -1.4
v 0.4 2.3 -1.4
v 0.4 2.5 -1.4
v 0.4 2.3 -1.5
v 0.4 2.5 -1.5
v 0.4 2.6 -1.5
v 0.5 2.3 -1.5
v 0.5 2.6 -1.5
v 0 2 -1.3
v 0 2.2 -1.3
v 0.2 2 -1.3
v 0.2 2.2 -1.3
v 0.3 2.3 -1.5
v 0.3 2.5 -1.5
v 0.4 2.3 -1.5
v 0.4 2.5 -1.5
v 0.4 2.3 -1.6
v 0.4 2.6 -1.6
v 0.5 2.3 -1.6
v 0.5 2.6 -1.6
v 0 2 -1.2
v 0.2 2 -1.2
v 0 2 -1.3
v 0.2 2 -1.3
v 0.3 2.3 -1.4
v 0.4 2.3 -1.4
v 0.3 2.3 -1.5
v 0.4 2.3 -1.5
v 0.5 2.3 -1.5
v 0.4 2.3 -1.6
v 0.5 2.3 -1.6
v 0 2.2 -1.2
v 0.2 2.2 -1.2
v 0 2.2 -1.3
v 0.2 2.2 -1.3
v 0.3 2.5 -1.4
v 0.4 2.5 -1.4
v 0.3 2.5 -1.5
v 0.4 2.5 -1.5
v 0.4 2.6 -1.5
v 0.5 2.6 -1.5
v 0.4 2.6 -1.6
v 0.5 2.6 -1.6

# faces
f 3/2/1 2/2/1 1/2/1
f 4/2/1 2/2/1 3/2/1
f 7/1/1 6/1/1 5/1/1
f 8/1/1 6/1/1 7/1/1
f 11/2/1 10/2/1 9/2/1
f 12/2/1 10/2/1 11/2/1
f 13/2/1 10/2/1 12/2/1
f 14/2/2 15/2/2 16/2/2
f 16/2/2 15/2/2 17/2/2
f 18/1/2 19/1/2 20/1/2
f 20/1/2 19/1/2 21/1/2
f 22/2/2 23/2/2 24/2/2
f 24/2/2 23/2/2 25/2/2
f 28/2/3 27/2/3 26/2/3
f 29/2/3 27/2/3 28/2/3
f 32/1/3 31/1/3 30/1/3
f 33/1/3 31/1/3 32/1/3
f 37/2/3 35/2/3 34/2/3
f 37/2/3 36/2/3 35/2/3
f 38/2/3 36/2/3 37/2/3
f 39/2/4 40/2/4 41/2/4
f 41/2/4 40/2/4 42/2/4
f 43/1/4 44/1/4 45/1/4
f 45/1/4 44/1/4 46/1/4
f 47/2/4 48/2/4 49/2/4
f 49/2/4 48/2/4 50/2/4
f 53/2/5 52/2/5 51/2/5
f 54/2/5 52/2/5 53/2/5
f 57/1/5 56/1/5 55/1/5
f 58/1/5 56/1/5 57/1/5
f 60/2/5 59/2/5 58/2/5
f 61/2/5 59/2/5 60/2/5
f 62/2/6 63/2/6 64/2/6
f 64/2/6 63/2/6 65/2/6
f 66/1/6 67/1/6 68/1/6
f 68/1/6 67/1/6 69/1/6
f 70/2/6 71/2/6 72/2/6
f 72/2/6 71/2/6 73/2/6
