# MagicaVoxel @ Ephtracy

# group
o 

# material
mtllib icon-ratatta-5.mtl
usemtl palette

# normals
vn -1 0 0
vn 1 0 0
vn 0 0 1
vn 0 0 -1
vn 0 -1 0
vn 0 1 0

# texcoords
vt 0.822266 0.5
vt 0.853516 0.5
vt 0.876953 0.5
vt 0.880859 0.5

# verts
v 0 1.6 -1.6
v 0 1.6 -1.8
v 0 1.6 -2.2
v 0 1.7 -1.4
v 0 1.7 -1.6
v 0 1.7 -1.8
v 0 1.8 -1.4
v 0 1.8 -1.6
v 0 1.8 -1.9
v 0 1.8 -2.2
v 0 1.8 -2.3
v 0 1.9 -1.6
v 0 1.9 -1.8
v 0 2 -2.3
v 0 2 -2.4
v 0 2.1 -1.8
v 0 2.1 -1.9
v 0 2.2 -1.2
v 0 2.2 -1.3
v 0 2.2 -1.8
v 0 2.2 -1.9
v 0 2.3 -1.2
v 0 2.3 -1.3
v 0 2.5 -1.2
v 0 2.5 -1.4
v 0 2.6 -1.4
v 0 2.6 -1.5
v 0 2.6 -2.2
v 0 2.6 -2.4
v 0 2.7 -1.5
v 0 2.7 -1.6
v 0 2.8 -1.6
v 0 2.8 -2.2
v 0.3 2 -1.7
v 0.3 2 -1.8
v 0.3 2.1 -1.8
v 0.3 2.2 -1.7
v 0.3 2.2 -1.8
v 0.4 2.2 -1.5
v 0.4 2.2 -1.6
v 0.4 2.2 -2.3
v 0.4 2.2 -2.4
v 0.4 2.3 -1.5
v 0.4 2.3 -1.6
v 0.4 2.3 -2.3
v 0.4 2.3 -2.4
v 0.4 2.4 -2.3
v 0.4 2.4 -2.4
v 0.4 2.5 -2.3
v 0.4 2.5 -2.4
v 0.4 2.6 -1.5
v 0.4 2.6 -1.6
v 0.4 2.7 -1.5
v 0.4 2.7 -1.6
v 0.7 2.3 -1.5
v 0.7 2.3 -1.6
v 0.7 2.4 -1.5
v 0.7 2.4 -1.6
v 0.1 1.6 -1.6
v 0.1 1.6 -1.7
v 0.1 1.7 -1.6
v 0.1 1.7 -1.7
v 0.2 1.6 -1.7
v 0.2 1.6 -2
v 0.2 1.6 -2.2
v 0.2 1.7 -1.4
v 0.2 1.7 -1.7
v 0.2 1.7 -1.9
v 0.2 1.7 -2
v 0.2 1.8 -1.4
v 0.2 1.8 -1.6
v 0.2 1.8 -1.8
v 0.2 1.8 -1.9
v 0.2 1.8 -2
v 0.2 1.8 -2.1
v 0.2 1.8 -2.2
v 0.2 1.8 -2.3
v 0.2 1.9 -1.6
v 0.2 1.9 -1.8
v 0.2 1.9 -2.1
v 0.2 1.9 -2.2
v 0.2 2 -2.3
v 0.2 2 -2.4
v 0.2 2.1 -2.2
v 0.2 2.1 -2.3
v 0.2 2.2 -1.2
v 0.2 2.2 -1.3
v 0.2 2.2 -2.3
v 0.2 2.2 -2.4
v 0.2 2.3 -1.2
v 0.2 2.3 -1.3
v 0.2 2.4 -1.2
v 0.2 2.4 -1.3
v 0.2 2.4 -2.3
v 0.2 2.4 -2.4
v 0.2 2.5 -1.2
v 0.2 2.5 -1.3
v 0.2 2.6 -1.5
v 0.2 2.6 -1.6
v 0.2 2.6 -2.3
v 0.2 2.6 -2.4
v 0.2 2.7 -1.5
v 0.2 2.7 -1.6
v 0.2 2.7 -1.7
v 0.2 2.8 -1.6
v 0.2 2.8 -1.7
v 0.3 1.7 -1.9
v 0.3 1.7 -2
v 0.3 1.8 -1.8
v 0.3 1.8 -1.9
v 0.3 1.8 -2
v 0.3 1.9 -1.8
v 0.3 1.9 -1.9
v 0.3 1.9 -2.1
v 0.3 1.9 -2.2
v 0.3 2 -2.1
v 0.3 2 -2.2
v 0.3 2.2 -1.3
v 0.3 2.2 -1.6
v 0.3 2.2 -2.3
v 0.3 2.2 -2.4
v 0.3 2.3 -1.2
v 0.3 2.3 -1.3
v 0.3 2.3 -1.5
v 0.3 2.3 -1.6
v 0.3 2.3 -2.3
v 0.3 2.3 -2.4
v 0.3 2.4 -1.2
v 0.3 2.4 -1.3
v 0.3 2.4 -1.5
v 0.3 2.5 -1.3
v 0.3 2.5 -1.4
v 0.3 2.5 -1.5
v 0.3 2.7 -2.1
v 0.3 2.7 -2.2
v 0.3 2.8 -2.1
v 0.3 2.8 -2.2
v 0.4 1.8 -1.9
v 0.4 1.8 -2
v 0.4 1.8 -2.1
v 0.4 1.9 -1.9
v 0.4 1.9 -2
v 0.4 2 -1.7
v 0.4 2 -1.8
v 0.4 2 -2
v 0.4 2 -2.1
v 0.4 2.1 -1.7
v 0.4 2.1 -1.8
v 0.4 2.3 -1.5
v 0.4 2.3 -1.6
v 0.4 2.4 -1.5
v 0.4 2.4 -1.6
v 0.4 2.5 -1.4
v 0.4 2.5 -1.5
v 0.4 2.6 -1.4
v 0.4 2.6 -1.5
v 0.4 2.6 -1.6
v 0.4 2.7 -1.7
v 0.4 2.7 -2.1
v 0.4 2.8 -1.7
v 0.4 2.8 -2.1
v 0.5 1.9 -1.8
v 0.5 1.9 -2
v 0.5 2 -2
v 0.5 2 -2.2
v 0.5 2.1 -1.7
v 0.5 2.1 -1.8
v 0.5 2.1 -2
v 0.5 2.1 -2.1
v 0.5 2.1 -2.2
v 0.5 2.1 -2.3
v 0.5 2.2 -1.6
v 0.5 2.2 -1.7
v 0.5 2.2 -1.8
v 0.5 2.2 -2.1
v 0.5 2.2 -2.3
v 0.5 2.2 -2.4
v 0.5 2.3 -1.6
v 0.5 2.3 -1.7
v 0.5 2.3 -1.8
v 0.5 2.3 -2.3
v 0.5 2.3 -2.4
v 0.5 2.4 -1.7
v 0.5 2.4 -1.8
v 0.5 2.4 -2.3
v 0.5 2.4 -2.4
v 0.5 2.5 -1.7
v 0.5 2.5 -1.8
v 0.5 2.5 -2.2
v 0.5 2.5 -2.3
v 0.5 2.5 -2.4
v 0.5 2.6 -1.5
v 0.5 2.6 -1.6
v 0.5 2.6 -1.8
v 0.5 2.6 -2.2
v 0.5 2.6 -2.3
v 0.5 2.7 -1.5
v 0.5 2.7 -2.2
v 0.6 2.1 -1.8
v 0.6 2.1 -2.1
v 0.6 2.2 -1.7
v 0.6 2.2 -1.8
v 0.6 2.2 -2.1
v 0.6 2.2 -2.3
v 0.6 2.3 -1.7
v 0.6 2.3 -1.8
v 0.6 2.3 -2.3
v 0.6 2.3 -2.4
v 0.6 2.4 -1.7
v 0.6 2.4 -1.8
v 0.6 2.4 -2.3
v 0.6 2.4 -2.4
v 0.6 2.5 -1.7
v 0.6 2.5 -1.8
v 0.6 2.5 -2.2
v 0.6 2.5 -2.3
v 0.6 2.6 -1.8
v 0.6 2.6 -2.2
v 0.7 2.2 -1.5
v 0.7 2.2 -1.6
v 0.7 2.3 -1.5
v 0.7 2.3 -1.6
v 0.9 2.3 -1.5
v 0.9 2.3 -1.6
v 0.9 2.4 -1.5
v 0.9 2.4 -1.6
v 0 2.2 -1.2
v 0 2.3 -1.2
v 0 2.5 -1.2
v 0.2 2.2 -1.2
v 0.2 2.3 -1.2
v 0.2 2.4 -1.2
v 0.2 2.5 -1.2
v 0.3 2.3 -1.2
v 0.3 2.4 -1.2
v 0.2 2.2 -1.3
v 0.2 2.3 -1.3
v 0.2 2.4 -1.3
v 0.2 2.5 -1.3
v 0.3 2.2 -1.3
v 0.3 2.3 -1.3
v 0.3 2.4 -1.3
v 0.3 2.5 -1.3
v 0 1.7 -1.4
v 0 1.8 -1.4
v 0 2.5 -1.4
v 0 2.6 -1.4
v 0.2 1.7 -1.4
v 0.2 1.8 -1.4
v 0.3 2.5 -1.4
v 0.4 2.5 -1.4
v 0.4 2.6 -1.4
v 0 2.6 -1.5
v 0 2.7 -1.5
v 0.2 2.6 -1.5
v 0.2 2.7 -1.5
v 0.3 2.3 -1.5
v 0.3 2.4 -1.5
v 0.3 2.5 -1.5
v 0.4 2.2 -1.5
v 0.4 2.3 -1.5
v 0.4 2.4 -1.5
v 0.4 2.5 -1.5
v 0.4 2.6 -1.5
v 0.4 2.7 -1.5
v 0.5 2.6 -1.5
v 0.5 2.7 -1.5
v 0.7 2.2 -1.5
v 0.7 2.3 -1.5
v 0.7 2.4 -1.5
v 0.9 2.3 -1.5
v 0.9 2.4 -1.5
v 0 1.6 -1.6
v 0 1.7 -1.6
v 0 1.8 -1.6
v 0 1.9 -1.6
v 0 2.7 -1.6
v 0 2.8 -1.6
v 0.1 1.6 -1.6
v 0.1 1.7 -1.6
v 0.2 1.8 -1.6
v 0.2 1.9 -1.6
v 0.2 2.6 -1.6
v 0.2 2.7 -1.6
v 0.2 2.8 -1.6
v 0.3 2.2 -1.6
v 0.3 2.3 -1.6
v 0.4 2.2 -1.6
v 0.4 2.3 -1.6
v 0.4 2.4 -1.6
v 0.4 2.6 -1.6
v 0.4 2.7 -1.6
v 0.5 2.3 -1.6
v 0.5 2.6 -1.6
v 0.1 1.6 -1.7
v 0.1 1.7 -1.7
v 0.2 1.6 -1.7
v 0.2 1.7 -1.7
v 0.2 2.7 -1.7
v 0.2 2.8 -1.7
v 0.3 2 -1.7
v 0.3 2.2 -1.7
v 0.4 2 -1.7
v 0.4 2.1 -1.7
v 0.4 2.7 -1.7
v 0.4 2.8 -1.7
v 0.5 2.1 -1.7
v 0.5 2.2 -1.7
v 0.5 2.3 -1.7
v 0.5 2.4 -1.7
v 0.5 2.5 -1.7
v 0.6 2.2 -1.7
v 0.6 2.3 -1.7
v 0.6 2.4 -1.7
v 0.6 2.5 -1.7
v 0 1.9 -1.8
v 0 2.1 -1.8
v 0 2.2 -1.8
v 0.2 1.8 -1.8
v 0.2 1.9 -1.8
v 0.3 1.8 -1.8
v 0.3 1.9 -1.8
v 0.3 2 -1.8
v 0.3 2.1 -1.8
v 0.3 2.2 -1.8
v 0.4 2 -1.8
v 0.4 2.1 -1.8
v 0.5 1.9 -1.8
v 0.5 2.1 -1.8
v 0.5 2.2 -1.8
v 0.5 2.3 -1.8
v 0.5 2.4 -1.8
v 0.5 2.5 -1.8
v 0.5 2.6 -1.8
v 0.6 2.1 -1.8
v 0.6 2.2 -1.8
v 0.6 2.3 -1.8
v 0.6 2.4 -1.8
v 0.6 2.5 -1.8
v 0.6 2.6 -1.8
v 0.2 1.7 -1.9
v 0.2 1.8 -1.9
v 0.3 1.7 -1.9
v 0.3 1.8 -1.9
v 0.3 1.9 -1.9
v 0.4 1.8 -1.9
v 0.4 1.9 -1.9
v 0.5 2.2 -1.6
v 0.5 2.3 -1.6
v 0.7 2.2 -1.6
v 0.7 2.3 -1.6
v 0.7 2.4 -1.6
v 0.9 2.3 -1.6
v 0.9 2.4 -1.6
v 0.2 1.7 -2
v 0.2 1.8 -2
v 0.3 1.7 -2
v 0.3 1.8 -2
v 0.4 1.9 -2
v 0.4 2 -2
v 0.5 1.9 -2
v 0.5 2 -2
v 0.2 1.8 -2.1
v 0.2 1.9 -2.1
v 0.3 1.9 -2.1
v 0.3 2 -2.1
v 0.3 2.7 -2.1
v 0.3 2.8 -2.1
v 0.4 1.8 -2.1
v 0.4 2 -2.1
v 0.4 2.7 -2.1
v 0.4 2.8 -2.1
v 0.5 2.1 -2.1
v 0.5 2.2 -2.1
v 0.6 2.1 -2.1
v 0.6 2.2 -2.1
v 0 1.6 -2.2
v 0 1.8 -2.2
v 0 2.6 -2.2
v 0 2.8 -2.2
v 0.2 1.6 -2.2
v 0.2 1.8 -2.2
v 0.2 1.9 -2.2
v 0.2 2.1 -2.2
v 0.3 1.9 -2.2
v 0.3 2 -2.2
v 0.3 2.7 -2.2
v 0.3 2.8 -2.2
v 0.5 2 -2.2
v 0.5 2.1 -2.2
v 0.5 2.5 -2.2
v 0.5 2.6 -2.2
v 0.5 2.7 -2.2
v 0.6 2.5 -2.2
v 0.6 2.6 -2.2
v 0 1.8 -2.3
v 0 2 -2.3
v 0.2 1.8 -2.3
v 0.2 2 -2.3
v 0.2 2.1 -2.3
v 0.2 2.2 -2.3
v 0.2 2.4 -2.3
v 0.2 2.6 -2.3
v 0.3 2.2 -2.3
v 0.3 2.3 -2.3
v 0.4 2.2 -2.3
v 0.4 2.3 -2.3
v 0.4 2.4 -2.3
v 0.4 2.5 -2.3
v 0.5 2.1 -2.3
v 0.5 2.2 -2.3
v 0.5 2.3 -2.3
v 0.5 2.4 -2.3
v 0.5 2.5 -2.3
v 0.5 2.6 -2.3
v 0.6 2.2 -2.3
v 0.6 2.3 -2.3
v 0.6 2.4 -2.3
v 0.6 2.5 -2.3
v 0 2 -2.4
v 0 2.6 -2.4
v 0.2 2 -2.4
v 0.2 2.2 -2.4
v 0.2 2.4 -2.4
v 0.2 2.6 -2.4
v 0.3 2.2 -2.4
v 0.3 2.3 -2.4
v 0.4 2.2 -2.4
v 0.4 2.3 -2.4
v 0.4 2.4 -2.4
v 0.4 2.5 -2.4
v 0.5 2.2 -2.4
v 0.5 2.3 -2.4
v 0.5 2.4 -2.4
v 0.5 2.5 -2.4
v 0.6 2.3 -2.4
v 0.6 2.4 -2.4
v 0 1.6 -1.6
v 0.1 1.6 -1.6
v 0.1 1.6 -1.7
v 0.2 1.6 -1.7
v 0 1.6 -1.8
v 0.1 1.6 -1.8
v 0.1 1.6 -2
v 0.2 1.6 -2
v 0 1.6 -2.2
v 0.2 1.6 -2.2
v 0 1.7 -1.4
v 0.2 1.7 -1.4
v 0 1.7 -1.6
v 0.1 1.7 -1.6
v 0.1 1.7 -1.7
v 0.2 1.7 -1.7
v 0.2 1.7 -1.9
v 0.3 1.7 -1.9
v 0.2 1.7 -2
v 0.3 1.7 -2
v 0.2 1.8 -1.8
v 0.3 1.8 -1.8
v 0.2 1.8 -1.9
v 0.3 1.8 -1.9
v 0.4 1.8 -1.9
v 0.2 1.8 -2
v 0.3 1.8 -2
v 0.4 1.8 -2
v 0.2 1.8 -2.1
v 0.4 1.8 -2.1
v 0 1.8 -2.2
v 0.2 1.8 -2.2
v 0 1.8 -2.3
v 0.2 1.8 -2.3
v 0.3 1.9 -1.8
v 0.5 1.9 -1.8
v 0.3 1.9 -1.9
v 0.4 1.9 -1.9
v 0.4 1.9 -2
v 0.5 1.9 -2
v 0.2 1.9 -2.1
v 0.3 1.9 -2.1
v 0.2 1.9 -2.2
v 0.3 1.9 -2.2
v 0.3 2 -1.7
v 0.4 2 -1.7
v 0.3 2 -1.8
v 0.4 2 -1.8
v 0.4 2 -2
v 0.5 2 -2
v 0.3 2 -2.1
v 0.4 2 -2.1
v 0.3 2 -2.2
v 0.5 2 -2.2
v 0 2 -2.3
v 0.2 2 -2.3
v 0 2 -2.4
v 0.2 2 -2.4
v 0.4 2.1 -1.7
v 0.5 2.1 -1.7
v 0.4 2.1 -1.8
v 0.5 2.1 -1.8
v 0.6 2.1 -1.8
v 0.5 2.1 -2
v 0.5 2.1 -2.1
v 0.6 2.1 -2.1
v 0.2 2.1 -2.2
v 0.5 2.1 -2.2
v 0.2 2.1 -2.3
v 0.5 2.1 -2.3
v 0 2.2 -1.2
v 0.2 2.2 -1.2
v 0 2.2 -1.3
v 0.2 2.2 -1.3
v 0.3 2.2 -1.3
v 0.4 2.2 -1.5
v 0.7 2.2 -1.5
v 0.2 2.2 -1.6
v 0.3 2.2 -1.6
v 0.4 2.2 -1.6
v 0.5 2.2 -1.6
v 0.7 2.2 -1.6
v 0.3 2.2 -1.7
v 0.5 2.2 -1.7
v 0.6 2.2 -1.7
v 0 2.2 -1.8
v 0.3 2.2 -1.8
v 0.5 2.2 -1.8
v 0.6 2.2 -1.8
v 0.5 2.2 -2.1
v 0.6 2.2 -2.1
v 0.2 2.2 -2.3
v 0.3 2.2 -2.3
v 0.4 2.2 -2.3
v 0.5 2.2 -2.3
v 0.6 2.2 -2.3
v 0.2 2.2 -2.4
v 0.3 2.2 -2.4
v 0.4 2.2 -2.4
v 0.5 2.2 -2.4
v 0.2 2.3 -1.2
v 0.3 2.3 -1.2
v 0.2 2.3 -1.3
v 0.3 2.3 -1.3
v 0.3 2.3 -1.5
v 0.4 2.3 -1.5
v 0.7 2.3 -1.5
v 0.9 2.3 -1.5
v 0.3 2.3 -1.6
v 0.4 2.3 -1.6
v 0.7 2.3 -1.6
v 0.9 2.3 -1.6
v 0.3 2.3 -2.3
v 0.4 2.3 -2.3
v 0.5 2.3 -2.3
v 0.6 2.3 -2.3
v 0.3 2.3 -2.4
v 0.4 2.3 -2.4
v 0.5 2.3 -2.4
v 0.6 2.3 -2.4
v 0.5 2.4 -1.7
v 0.6 2.4 -1.7
v 0.5 2.4 -1.8
v 0.6 2.4 -1.8
v 0.3 2.5 -1.4
v 0.4 2.5 -1.4
v 0.3 2.5 -1.5
v 0.4 2.5 -1.5
v 0.4 2.6 -1.5
v 0.5 2.6 -1.5
v 0.4 2.6 -1.6
v 0.5 2.6 -1.6
v 0 1.8 -1.4
v 0.2 1.8 -1.4
v 0 1.8 -1.6
v 0.2 1.8 -1.6
v 0 1.9 -1.6
v 0.2 1.9 -1.6
v 0 1.9 -1.8
v 0.2 1.9 -1.8
v 0.4 2.3 -1.5
v 0.7 2.3 -1.5
v 0.4 2.3 -1.6
v 0.5 2.3 -1.6
v 0.7 2.3 -1.6
v 0.5 2.3 -1.7
v 0.6 2.3 -1.7
v 0.5 2.3 -1.8
v 0.6 2.3 -1.8
v 0.2 2.4 -1.2
v 0.3 2.4 -1.2
v 0.2 2.4 -1.3
v 0.3 2.4 -1.3
v 0.7 2.4 -1.5
v 0.9 2.4 -1.5
v 0.7 2.4 -1.6
v 0.9 2.4 -1.6
v 0.2 2.4 -2.3
v 0.4 2.4 -2.3
v 0.5 2.4 -2.3
v 0.6 2.4 -2.3
v 0.2 2.4 -2.4
v 0.4 2.4 -2.4
v 0.5 2.4 -2.4
v 0.6 2.4 -2.4
v 0 2.5 -1.2
v 0.2 2.5 -1.2
v 0.2 2.5 -1.3
v 0.3 2.5 -1.3
v 0 2.5 -1.4
v 0.3 2.5 -1.4
v 0.5 2.5 -1.7
v 0.6 2.5 -1.7
v 0.5 2.5 -1.8
v 0.6 2.5 -1.8
v 0.5 2.5 -2.2
v 0.6 2.5 -2.2
v 0.4 2.5 -2.3
v 0.5 2.5 -2.3
v 0.6 2.5 -2.3
v 0.4 2.5 -2.4
v 0.5 2.5 -2.4
v 0 2.6 -1.4
v 0.4 2.6 -1.4
v 0 2.6 -1.5
v 0.2 2.6 -1.5
v 0.4 2.6 -1.5
v 0.2 2.6 -1.6
v 0.4 2.6 -1.6
v 0.5 2.6 -1.8
v 0.6 2.6 -1.8
v 0 2.6 -2.2
v 0.5 2.6 -2.2
v 0.6 2.6 -2.2
v 0.2 2.6 -2.3
v 0.5 2.6 -2.3
v 0 2.6 -2.4
v 0.2 2.6 -2.4
v 0 2.7 -1.5
v 0.2 2.7 -1.5
v 0.4 2.7 -1.5
v 0.5 2.7 -1.5
v 0 2.7 -1.6
v 0.2 2.7 -1.6
v 0.4 2.7 -1.6
v 0.2 2.7 -1.7
v 0.4 2.7 -1.7
v 0.3 2.7 -2.1
v 0.4 2.7 -2.1
v 0.3 2.7 -2.2
v 0.5 2.7 -2.2
v 0 2.8 -1.6
v 0.2 2.8 -1.6
v 0.2 2.8 -1.7
v 0.4 2.8 -1.7
v 0.3 2.8 -2.1
v 0.4 2.8 -2.1
v 0 2.8 -2.2
v 0.3 2.8 -2.2

# faces
f 5/3/1 2/3/1 1/3/1
f 6/4/1 3/4/1 2/4/1
f 6/3/1 2/3/1 5/3/1
f 7/3/1 5/3/1 4/3/1
f 8/4/1 6/4/1 5/4/1
f 8/3/1 5/3/1 7/3/1
f 9/4/1 3/4/1 6/4/1
f 9/4/1 6/4/1 8/4/1
f 10/4/1 3/4/1 9/4/1
f 12/2/1 9/2/1 8/2/1
f 13/2/1 9/2/1 12/2/1
f 14/4/1 11/4/1 10/4/1
f 14/4/1 10/4/1 9/4/1
f 16/2/1 9/2/1 13/2/1
f 17/4/1 15/4/1 14/4/1
f 17/2/1 9/2/1 16/2/1
f 17/4/1 14/4/1 9/4/1
f 20/1/1 17/1/1 16/1/1
f 21/4/1 15/4/1 17/4/1
f 21/1/1 17/1/1 20/1/1
f 22/3/1 19/3/1 18/3/1
f 23/4/1 20/4/1 19/4/1
f 23/3/1 19/3/1 22/3/1
f 23/4/1 21/4/1 20/4/1
f 24/4/1 23/4/1 22/4/1
f 25/4/1 21/4/1 23/4/1
f 25/4/1 23/4/1 24/4/1
f 26/4/1 21/4/1 25/4/1
f 27/4/1 21/4/1 26/4/1
f 28/4/1 15/4/1 21/4/1
f 28/4/1 21/4/1 27/4/1
f 29/4/1 15/4/1 28/4/1
f 30/4/1 28/4/1 27/4/1
f 31/4/1 28/4/1 30/4/1
f 32/4/1 28/4/1 31/4/1
f 33/4/1 28/4/1 32/4/1
f 36/3/1 35/3/1 34/3/1
f 37/3/1 36/3/1 34/3/1
f 38/3/1 36/3/1 37/3/1
f 43/3/1 40/3/1 39/3/1
f 44/3/1 40/3/1 43/3/1
f 45/4/1 42/4/1 41/4/1
f 46/4/1 42/4/1 45/4/1
f 49/4/1 48/4/1 47/4/1
f 50/4/1 48/4/1 49/4/1
f 53/4/1 52/4/1 51/4/1
f 54/4/1 52/4/1 53/4/1
f 57/3/1 56/3/1 55/3/1
f 58/3/1 56/3/1 57/3/1
f 59/3/2 60/3/2 61/3/2
f 61/3/2 60/3/2 62/3/2
f 63/3/2 64/3/2 67/3/2
f 67/3/2 64/3/2 68/3/2
f 64/4/2 65/4/2 69/4/2
f 68/3/2 64/3/2 69/3/2
f 67/3/2 68/3/2 70/3/2
f 66/3/2 67/3/2 70/3/2
f 70/3/2 68/3/2 71/3/2
f 71/3/2 68/3/2 72/3/2
f 72/3/2 68/3/2 73/3/2
f 69/4/2 65/4/2 74/4/2
f 74/4/2 65/4/2 75/4/2
f 75/4/2 65/4/2 76/4/2
f 71/2/2 72/2/2 78/2/2
f 78/2/2 72/2/2 79/2/2
f 76/4/2 77/4/2 80/4/2
f 75/4/2 76/4/2 80/4/2
f 80/4/2 77/4/2 81/4/2
f 81/4/2 77/4/2 82/4/2
f 81/4/2 82/4/2 84/4/2
f 82/4/2 83/4/2 84/4/2
f 84/4/2 83/4/2 85/4/2
f 85/4/2 83/4/2 88/4/2
f 88/4/2 83/4/2 89/4/2
f 86/3/2 87/3/2 90/3/2
f 90/3/2 87/3/2 91/3/2
f 92/4/2 93/4/2 96/4/2
f 96/4/2 93/4/2 97/4/2
f 94/4/2 95/4/2 100/4/2
f 100/4/2 95/4/2 101/4/2
f 98/4/2 99/4/2 102/4/2
f 102/4/2 99/4/2 103/4/2
f 103/4/2 104/4/2 105/4/2
f 105/4/2 104/4/2 106/4/2
f 107/3/2 108/3/2 110/3/2
f 110/3/2 108/3/2 111/3/2
f 109/3/2 110/3/2 112/3/2
f 112/3/2 110/3/2 113/3/2
f 114/4/2 115/4/2 116/4/2
f 116/4/2 115/4/2 117/4/2
f 118/3/2 119/3/2 123/3/2
f 123/3/2 119/3/2 124/3/2
f 124/3/2 119/3/2 125/3/2
f 120/4/2 121/4/2 126/4/2
f 126/4/2 121/4/2 127/4/2
f 122/4/2 123/4/2 128/4/2
f 123/4/2 124/4/2 128/4/2
f 128/4/2 124/4/2 129/4/2
f 129/4/2 124/4/2 130/4/2
f 129/4/2 130/4/2 131/4/2
f 131/4/2 130/4/2 132/4/2
f 132/4/2 130/4/2 133/4/2
f 134/4/2 135/4/2 136/4/2
f 136/4/2 135/4/2 137/4/2
f 138/3/2 139/3/2 141/3/2
f 139/4/2 140/4/2 142/4/2
f 141/3/2 139/3/2 142/3/2
f 142/4/2 140/4/2 145/4/2
f 145/4/2 140/4/2 146/4/2
f 143/3/2 144/3/2 147/3/2
f 147/3/2 144/3/2 148/3/2
f 149/3/2 150/3/2 151/3/2
f 151/3/2 150/3/2 152/3/2
f 151/4/2 152/4/2 154/4/2
f 153/4/2 154/4/2 155/4/2
f 154/4/2 152/4/2 156/4/2
f 155/4/2 154/4/2 156/4/2
f 156/4/2 152/4/2 157/4/2
f 158/4/2 159/4/2 160/4/2
f 160/4/2 159/4/2 161/4/2
f 162/3/2 163/3/2 164/3/2
f 162/3/2 164/3/2 167/3/2
f 164/4/2 165/4/2 168/4/2
f 167/3/2 164/3/2 168/3/2
f 168/4/2 165/4/2 169/4/2
f 169/4/2 165/4/2 170/4/2
f 166/3/2 167/3/2 173/3/2
f 173/3/2 167/3/2 174/3/2
f 169/4/2 170/4/2 175/4/2
f 170/4/2 171/4/2 175/4/2
f 175/4/2 171/4/2 176/4/2
f 172/3/2 173/3/2 178/3/2
f 178/3/2 173/3/2 179/3/2
f 176/4/2 177/4/2 181/4/2
f 181/4/2 177/4/2 182/4/2
f 179/4/2 180/4/2 183/4/2
f 178/4/2 179/4/2 183/4/2
f 183/4/2 180/4/2 184/4/2
f 178/4/2 183/4/2 187/4/2
f 185/4/2 186/4/2 190/4/2
f 190/4/2 186/4/2 191/4/2
f 187/4/2 188/4/2 193/4/2
f 178/4/2 187/4/2 193/4/2
f 193/4/2 188/4/2 194/4/2
f 189/4/2 190/4/2 195/4/2
f 195/4/2 190/4/2 196/4/2
f 193/4/2 194/4/2 197/4/2
f 192/4/2 193/4/2 197/4/2
f 194/4/2 195/4/2 197/4/2
f 197/4/2 195/4/2 198/4/2
f 199/4/2 200/4/2 202/4/2
f 202/4/2 200/4/2 203/4/2
f 201/4/2 202/4/2 205/4/2
f 203/4/2 204/4/2 205/4/2
f 202/4/2 203/4/2 205/4/2
f 205/4/2 204/4/2 206/4/2
f 206/4/2 204/4/2 207/4/2
f 207/4/2 208/4/2 210/4/2
f 206/4/2 207/4/2 210/4/2
f 210/4/2 208/4/2 211/4/2
f 211/4/2 208/4/2 212/4/2
f 209/4/2 210/4/2 213/4/2
f 210/4/2 211/4/2 213/4/2
f 213/4/2 211/4/2 214/4/2
f 214/4/2 211/4/2 215/4/2
f 215/4/2 211/4/2 216/4/2
f 214/4/2 215/4/2 217/4/2
f 217/4/2 215/4/2 218/4/2
f 219/3/2 220/3/2 221/3/2
f 221/3/2 220/3/2 222/3/2
f 223/3/2 224/3/2 225/3/2
f 225/3/2 224/3/2 226/3/2
f 230/3/3 228/3/3 227/3/3
f 231/4/3 229/4/3 228/4/3
f 231/3/3 228/3/3 230/3/3
f 232/4/3 229/4/3 231/4/3
f 233/4/3 229/4/3 232/4/3
f 234/4/3 232/4/3 231/4/3
f 235/4/3 232/4/3 234/4/3
f 240/3/3 237/3/3 236/3/3
f 241/3/3 237/3/3 240/3/3
f 242/4/3 239/4/3 238/4/3
f 243/4/3 239/4/3 242/4/3
f 248/3/3 245/3/3 244/3/3
f 249/3/3 245/3/3 248/3/3
f 250/4/3 247/4/3 246/4/3
f 251/4/3 247/4/3 250/4/3
f 252/4/3 247/4/3 251/4/3
f 255/4/3 254/4/3 253/4/3
f 256/4/3 254/4/3 255/4/3
f 261/3/3 258/3/3 257/3/3
f 262/4/3 259/4/3 258/4/3
f 262/3/3 258/3/3 261/3/3
f 263/4/3 259/4/3 262/4/3
f 266/4/3 265/4/3 264/4/3
f 267/4/3 265/4/3 266/4/3
f 268/3/3 261/3/3 260/3/3
f 269/3/3 261/3/3 268/3/3
f 271/3/3 270/3/3 269/3/3
f 272/3/3 270/3/3 271/3/3
f 279/3/3 274/3/3 273/3/3
f 280/3/3 274/3/3 279/3/3
f 281/2/3 276/2/3 275/2/3
f 282/2/3 276/2/3 281/2/3
f 284/4/3 278/4/3 277/4/3
f 285/4/3 278/4/3 284/4/3
f 288/3/3 287/3/3 286/3/3
f 289/3/3 287/3/3 288/3/3
f 291/4/3 284/4/3 283/4/3
f 292/4/3 284/4/3 291/4/3
f 293/4/3 290/4/3 289/4/3
f 293/4/3 291/4/3 290/4/3
f 294/4/3 291/4/3 293/4/3
f 297/3/3 296/3/3 295/3/3
f 298/3/3 296/3/3 297/3/3
f 303/3/3 302/3/3 301/3/3
f 304/3/3 302/3/3 303/3/3
f 305/4/3 300/4/3 299/4/3
f 306/4/3 300/4/3 305/4/3
f 307/3/3 302/3/3 304/3/3
f 308/3/3 302/3/3 307/3/3
f 312/4/3 309/4/3 308/4/3
f 313/4/3 309/4/3 312/4/3
f 314/4/3 311/4/3 310/4/3
f 315/4/3 311/4/3 314/4/3
f 320/2/3 317/2/3 316/2/3
f 321/3/3 320/3/3 319/3/3
f 322/2/3 317/2/3 320/2/3
f 322/3/3 320/3/3 321/3/3
f 323/2/3 317/2/3 322/2/3
f 324/1/3 318/1/3 317/1/3
f 324/2/3 317/2/3 323/2/3
f 325/1/3 318/1/3 324/1/3
f 326/3/3 323/3/3 322/3/3
f 328/3/3 326/3/3 322/3/3
f 328/3/3 327/3/3 326/3/3
f 329/3/3 327/3/3 328/3/3
f 335/4/3 330/4/3 329/4/3
f 336/4/3 330/4/3 335/4/3
f 337/4/3 332/4/3 331/4/3
f 338/4/3 332/4/3 337/4/3
f 339/4/3 334/4/3 333/4/3
f 340/4/3 334/4/3 339/4/3
f 343/3/3 342/3/3 341/3/3
f 344/3/3 342/3/3 343/3/3
f 346/3/3 345/3/3 344/3/3
f 347/3/3 345/3/3 346/3/3
f 348/3/4 349/3/4 350/3/4
f 350/3/4 349/3/4 351/3/4
f 351/3/4 352/3/4 353/3/4
f 353/3/4 352/3/4 354/3/4
f 355/3/4 356/3/4 357/3/4
f 357/3/4 356/3/4 358/3/4
f 359/3/4 360/3/4 361/3/4
f 361/3/4 360/3/4 362/3/4
f 363/4/4 364/4/4 365/4/4
f 363/4/4 365/4/4 369/4/4
f 365/4/4 366/4/4 369/4/4
f 369/4/4 366/4/4 370/4/4
f 367/4/4 368/4/4 371/4/4
f 371/4/4 368/4/4 372/4/4
f 373/4/4 374/4/4 375/4/4
f 375/4/4 374/4/4 376/4/4
f 377/4/4 378/4/4 381/4/4
f 381/4/4 378/4/4 382/4/4
f 383/4/4 384/4/4 385/4/4
f 385/4/4 384/4/4 386/4/4
f 379/4/4 380/4/4 387/4/4
f 387/4/4 380/4/4 388/4/4
f 386/4/4 384/4/4 389/4/4
f 389/4/4 384/4/4 390/4/4
f 379/4/4 387/4/4 392/4/4
f 392/4/4 387/4/4 393/4/4
f 391/4/4 392/4/4 394/4/4
f 394/4/4 392/4/4 395/4/4
f 396/4/4 397/4/4 398/4/4
f 398/4/4 397/4/4 399/4/4
f 400/4/4 401/4/4 404/4/4
f 400/4/4 404/4/4 406/4/4
f 404/4/4 405/4/4 406/4/4
f 406/4/4 405/4/4 407/4/4
f 402/4/4 403/4/4 408/4/4
f 408/4/4 403/4/4 409/4/4
f 400/4/4 406/4/4 410/4/4
f 410/4/4 406/4/4 411/4/4
f 409/4/4 403/4/4 414/4/4
f 414/4/4 403/4/4 415/4/4
f 411/4/4 412/4/4 416/4/4
f 416/4/4 412/4/4 417/4/4
f 413/4/4 414/4/4 418/4/4
f 418/4/4 414/4/4 419/4/4
f 420/4/4 421/4/4 422/4/4
f 422/4/4 421/4/4 423/4/4
f 423/4/4 421/4/4 424/4/4
f 424/4/4 421/4/4 425/4/4
f 423/4/4 424/4/4 426/4/4
f 426/4/4 424/4/4 427/4/4
f 427/4/4 424/4/4 429/4/4
f 429/4/4 424/4/4 430/4/4
f 428/4/4 429/4/4 432/4/4
f 430/4/4 431/4/4 432/4/4
f 429/4/4 430/4/4 432/4/4
f 432/4/4 431/4/4 433/4/4
f 433/4/4 431/4/4 434/4/4
f 434/4/4 431/4/4 435/4/4
f 433/4/4 434/4/4 436/4/4
f 436/4/4 434/4/4 437/4/4
f 440/3/5 439/3/5 438/3/5
f 442/3/5 440/3/5 438/3/5
f 442/3/5 441/3/5 440/3/5
f 443/3/5 441/3/5 442/3/5
f 444/4/5 443/4/5 442/4/5
f 444/3/5 441/3/5 443/3/5
f 445/3/5 441/3/5 444/3/5
f 446/4/5 444/4/5 442/4/5
f 446/4/5 445/4/5 444/4/5
f 447/4/5 445/4/5 446/4/5
f 450/3/5 449/3/5 448/3/5
f 451/3/5 449/3/5 450/3/5
f 452/3/5 449/3/5 451/3/5
f 453/3/5 449/3/5 452/3/5
f 456/3/5 455/3/5 454/3/5
f 457/3/5 455/3/5 456/3/5
f 460/3/5 459/3/5 458/3/5
f 461/3/5 459/3/5 460/3/5
f 464/3/5 462/3/5 461/3/5
f 465/3/5 462/3/5 464/3/5
f 466/4/5 464/4/5 463/4/5
f 466/4/5 465/4/5 464/4/5
f 467/4/5 465/4/5 466/4/5
f 470/4/5 469/4/5 468/4/5
f 471/4/5 469/4/5 470/4/5
f 474/3/5 473/3/5 472/3/5
f 475/3/5 473/3/5 474/3/5
f 476/3/5 473/3/5 475/3/5
f 477/3/5 473/3/5 476/3/5
f 480/4/5 479/4/5 478/4/5
f 481/4/5 479/4/5 480/4/5
f 484/3/5 483/3/5 482/3/5
f 485/3/5 483/3/5 484/3/5
f 489/4/5 487/4/5 486/4/5
f 490/4/5 489/4/5 488/4/5
f 491/4/5 487/4/5 489/4/5
f 491/4/5 489/4/5 490/4/5
f 494/4/5 493/4/5 492/4/5
f 495/4/5 493/4/5 494/4/5
f 498/3/5 497/3/5 496/3/5
f 499/3/5 497/3/5 498/3/5
f 501/4/5 500/4/5 499/4/5
f 502/4/5 500/4/5 501/4/5
f 503/4/5 500/4/5 502/4/5
f 506/4/5 505/4/5 504/4/5
f 507/4/5 505/4/5 506/4/5
f 510/3/5 509/3/5 508/3/5
f 511/3/5 509/3/5 510/3/5
f 515/4/5 511/4/5 510/4/5
f 515/3/5 512/3/5 511/3/5
f 516/3/5 512/3/5 515/3/5
f 517/3/5 514/3/5 513/3/5
f 518/3/5 514/3/5 517/3/5
f 519/3/5 514/3/5 518/3/5
f 520/4/5 516/4/5 515/4/5
f 520/3/5 517/3/5 516/3/5
f 520/3/5 518/3/5 517/3/5
f 521/3/5 518/3/5 520/3/5
f 523/4/5 515/4/5 510/4/5
f 523/4/5 520/4/5 515/4/5
f 524/4/5 520/4/5 523/4/5
f 525/4/5 522/4/5 521/4/5
f 526/4/5 522/4/5 525/4/5
f 532/4/5 528/4/5 527/4/5
f 533/4/5 528/4/5 532/4/5
f 534/4/5 530/4/5 529/4/5
f 535/4/5 530/4/5 534/4/5
f 536/4/5 532/4/5 531/4/5
f 537/4/5 532/4/5 536/4/5
f 540/4/5 539/4/5 538/4/5
f 541/4/5 539/4/5 540/4/5
f 546/3/5 543/3/5 542/3/5
f 547/3/5 543/3/5 546/3/5
f 548/3/5 545/3/5 544/3/5
f 549/3/5 545/3/5 548/3/5
f 554/4/5 551/4/5 550/4/5
f 555/4/5 551/4/5 554/4/5
f 556/4/5 553/4/5 552/4/5
f 557/4/5 553/4/5 556/4/5
f 560/4/5 559/4/5 558/4/5
f 561/4/5 559/4/5 560/4/5
f 564/4/5 563/4/5 562/4/5
f 565/4/5 563/4/5 564/4/5
f 568/4/5 567/4/5 566/4/5
f 569/4/5 567/4/5 568/4/5
f 570/3/6 571/3/6 572/3/6
f 572/3/6 571/3/6 573/3/6
f 574/2/6 575/2/6 576/2/6
f 576/2/6 575/2/6 577/2/6
f 578/3/6 579/3/6 580/3/6
f 580/3/6 579/3/6 581/3/6
f 581/3/6 579/3/6 582/3/6
f 583/4/6 584/4/6 585/4/6
f 585/4/6 584/4/6 586/4/6
f 587/4/6 588/4/6 589/4/6
f 589/4/6 588/4/6 590/4/6
f 591/3/6 592/3/6 593/3/6
f 593/3/6 592/3/6 594/3/6
f 595/4/6 596/4/6 599/4/6
f 599/4/6 596/4/6 600/4/6
f 597/4/6 598/4/6 601/4/6
f 601/4/6 598/4/6 602/4/6
f 603/4/6 604/4/6 605/4/6
f 603/4/6 605/4/6 607/4/6
f 605/4/6 606/4/6 607/4/6
f 607/4/6 606/4/6 608/4/6
f 609/4/6 610/4/6 611/4/6
f 611/4/6 610/4/6 612/4/6
f 613/4/6 614/4/6 616/4/6
f 616/4/6 614/4/6 617/4/6
f 615/4/6 616/4/6 618/4/6
f 618/4/6 616/4/6 619/4/6
f 620/4/6 621/4/6 622/4/6
f 622/4/6 621/4/6 623/4/6
f 623/4/6 621/4/6 624/4/6
f 623/4/6 624/4/6 625/4/6
f 625/4/6 624/4/6 626/4/6
f 627/4/6 628/4/6 630/4/6
f 630/4/6 628/4/6 631/4/6
f 629/4/6 630/4/6 632/4/6
f 632/4/6 630/4/6 633/4/6
f 629/4/6 632/4/6 634/4/6
f 634/4/6 632/4/6 635/4/6
f 636/4/6 637/4/6 640/4/6
f 640/4/6 637/4/6 641/4/6
f 638/4/6 639/4/6 642/4/6
f 641/4/6 642/4/6 643/4/6
f 642/4/6 639/4/6 644/4/6
f 643/4/6 642/4/6 644/4/6
f 644/4/6 639/4/6 646/4/6
f 645/4/6 646/4/6 647/4/6
f 646/4/6 639/4/6 648/4/6
f 647/4/6 646/4/6 648/4/6
f 649/4/6 650/4/6 651/4/6
f 651/4/6 652/4/6 653/4/6
f 653/4/6 652/4/6 654/4/6
f 649/4/6 651/4/6 655/4/6
f 651/4/6 653/4/6 655/4/6
f 655/4/6 653/4/6 656/4/6
