# MagicaVoxel @ Ephtracy

# group
o tail

# material
mtllib poliwag-0-tail.mtl
usemtl palette

# normals
vn -1 0 0
vn 1 0 0
vn 0 0 1
vn 0 0 -1
vn 0 -1 0
vn 0 1 0

# texcoords
vt 0.876953 0.5
vt 0.888672 0.5

# verts
v -0.8 1.6 -2
v -0.8 1.6 -2.2
v -0.8 1.8 -2.2
v -0.8 1.8 -2.3
v -0.8 1.9 -2
v -0.8 1.9 -2.2
v -0.8 2.1 -2.2
v -0.8 2.1 -2.3
v -0.8 2.1 -2.4
v -0.8 2.5 -2.3
v -0.8 2.5 -2.4
v -0.8 2.5 -2.5
v -0.8 2.8 -2.4
v -0.8 2.8 -2.5
v -0.8 2.8 -2.6
v -0.8 3.1 -2.6
v -0.8 3.1 -2.8
v -0.8 3.2 -2.5
v -0.8 3.2 -2.6
v -0.8 3.4 -2.6
v -0.8 3.4 -2.8
v -0.7 1.5 -2
v -0.7 1.5 -2.2
v -0.7 1.6 -2
v -0.7 1.6 -2.2
v -0.7 3.4 -2.8
v -0.7 3.4 -2.9
v -0.7 3.8 -2.8
v -0.7 3.8 -2.9
v -0.6 1 -1.2
v -0.6 1 -1.4
v -0.6 1.2 -1.2
v -0.6 1.2 -1.4
v -0.6 1.4 -1.9
v -0.6 1.4 -2
v -0.6 1.5 -1.9
v -0.6 1.5 -2
v -0.6 3.8 -2.9
v -0.6 3.8 -3
v -0.6 4 -2.9
v -0.6 4 -3
v -0.4 0.9 -1.2
v -0.4 0.9 -1.4
v -0.4 1 -1.2
v -0.4 1 -1.4
v -0.4 1.2 -1.9
v -0.4 1.2 -2
v -0.4 1.4 -1.9
v -0.4 1.4 -2
v -0.4 4 -2.9
v -0.4 4 -3
v -0.4 4.2 -2.9
v -0.4 4.2 -3
v -0.3 0.8 -1.2
v -0.3 0.8 -1.6
v -0.3 0.9 -1.2
v -0.3 0.9 -1.4
v -0.3 1.2 -1.4
v -0.3 1.2 -1.6
v -0.2 0.9 -1.6
v -0.2 0.9 -1.8
v -0.2 1 -1.8
v -0.2 1 -1.9
v -0.2 1.2 -1.6
v -0.2 1.2 -1.9
v -0.1 1.2 -1.7
v -0.1 1.2 -1.9
v -0.1 1.3 -1.7
v -0.1 1.3 -1.8
v -0.1 1.5 -1.8
v -0.1 1.5 -1.9
v -0.1 1.5 -2
v -0.1 1.9 -1.9
v -0.1 1.9 -2
v -0.1 1.9 -2.2
v -0.1 2.1 -2.2
v -0.1 2.1 -2.3
v -0.1 2.2 -2
v -0.1 2.2 -2.2
v -0.1 2.5 -2.2
v -0.1 2.5 -2.3
v -0.1 2.5 -2.4
v -0.1 2.7 -2.3
v -0.1 2.7 -2.4
v 0 2.7 -2.3
v 0 2.7 -2.4
v 0 2.8 -2.3
v 0 2.8 -2.4
v 0 2.8 -2.5
v 0 3.2 -2.4
v 0 3.2 -2.5
v 0 3.2 -2.6
v 0 3.4 -2.6
v 0 3.4 -2.8
v 0 3.6 -2.5
v 0 3.6 -2.6
v 0 3.7 -2.6
v 0 3.7 -2.8
v 0.2 1.5 -1.9
v 0.2 1.5 -2
v 0.2 1.9 -1.9
v 0.2 1.9 -2
v 0.2 1.9 -2.2
v 0.2 2.1 -2.2
v 0.2 2.1 -2.3
v 0.2 2.2 -2
v 0.2 2.2 -2.2
v 0.2 2.5 -2.2
v 0.2 2.5 -2.3
v 0.2 2.5 -2.4
v 0.2 2.8 -2.3
v 0.2 2.8 -2.4
v 0.2 2.8 -2.5
v 0.2 3.2 -2.4
v 0.2 3.2 -2.5
v 0.2 3.2 -2.6
v 0.2 3.4 -2.6
v 0.2 3.4 -2.8
v 0.2 3.6 -2.5
v 0.2 3.6 -2.6
v 0.2 3.7 -2.6
v 0.2 3.7 -2.8
v 0.3 1.2 -1.7
v 0.3 1.2 -1.9
v 0.3 1.3 -1.7
v 0.3 1.3 -1.8
v 0.3 1.5 -1.8
v 0.3 1.5 -1.9
v 0.4 0.9 -1.6
v 0.4 0.9 -1.8
v 0.4 1 -1.8
v 0.4 1 -1.9
v 0.4 1.2 -1.6
v 0.4 1.2 -1.9
v 0.5 0.8 -1.2
v 0.5 0.8 -1.6
v 0.5 0.9 -1.2
v 0.5 0.9 -1.4
v 0.5 1.2 -1.4
v 0.5 1.2 -1.6
v 0.6 0.9 -1.2
v 0.6 0.9 -1.4
v 0.6 1 -1.2
v 0.6 1 -1.4
v 0.6 1.2 -1.9
v 0.6 1.2 -2
v 0.6 1.4 -1.9
v 0.6 1.4 -2
v 0.6 4 -2.9
v 0.6 4 -3
v 0.6 4.2 -2.9
v 0.6 4.2 -3
v 0.8 1 -1.2
v 0.8 1 -1.4
v 0.8 1.2 -1.2
v 0.8 1.2 -1.4
v 0.8 1.4 -1.9
v 0.8 1.4 -2
v 0.8 1.5 -1.9
v 0.8 1.5 -2
v 0.8 3.8 -2.9
v 0.8 3.8 -3
v 0.8 4 -2.9
v 0.8 4 -3
v 0.9 1.5 -2
v 0.9 1.5 -2.2
v 0.9 1.6 -2
v 0.9 1.6 -2.2
v 0.9 3.4 -2.8
v 0.9 3.4 -2.9
v 0.9 3.8 -2.8
v 0.9 3.8 -2.9
v 1 1.6 -2
v 1 1.6 -2.2
v 1 1.8 -2.2
v 1 1.8 -2.3
v 1 1.9 -2
v 1 1.9 -2.2
v 1 2.1 -2.2
v 1 2.1 -2.3
v 1 2.1 -2.4
v 1 2.5 -2.3
v 1 2.5 -2.4
v 1 2.5 -2.5
v 1 2.8 -2.4
v 1 2.8 -2.5
v 1 2.8 -2.6
v 1 3.1 -2.6
v 1 3.1 -2.8
v 1 3.2 -2.5
v 1 3.2 -2.6
v 1 3.4 -2.6
v 1 3.4 -2.8
v -0.6 1 -1.2
v -0.6 1.2 -1.2
v -0.4 0.9 -1.2
v -0.4 1 -1.2
v -0.3 0.8 -1.2
v -0.3 0.9 -1.2
v 0.5 0.8 -1.2
v 0.5 0.9 -1.2
v 0.6 0.9 -1.2
v 0.6 1 -1.2
v 0.8 1 -1.2
v 0.8 1.2 -1.2
v -0.1 1.2 -1.7
v -0.1 1.3 -1.7
v 0.3 1.2 -1.7
v 0.3 1.3 -1.7
v -0.1 1.3 -1.8
v -0.1 1.5 -1.8
v 0.3 1.3 -1.8
v 0.3 1.5 -1.8
v -0.6 1.4 -1.9
v -0.6 1.5 -1.9
v -0.4 1.2 -1.9
v -0.4 1.4 -1.9
v -0.2 1.2 -1.9
v -0.1 1.2 -1.9
v -0.1 1.5 -1.9
v -0.1 1.9 -1.9
v 0.2 1.5 -1.9
v 0.2 1.9 -1.9
v 0.3 1.2 -1.9
v 0.3 1.5 -1.9
v 0.4 1.2 -1.9
v 0.6 1.2 -1.9
v 0.6 1.4 -1.9
v 0.8 1.4 -1.9
v 0.8 1.5 -1.9
v -0.8 1.6 -2
v -0.8 1.9 -2
v -0.7 1.5 -2
v -0.7 1.6 -2
v -0.6 1.5 -2
v -0.1 1.5 -2
v -0.1 1.9 -2
v -0.1 2.2 -2
v 0.2 1.5 -2
v 0.2 1.9 -2
v 0.2 2.2 -2
v 0.8 1.5 -2
v 0.9 1.5 -2
v 0.9 1.6 -2
v 1 1.6 -2
v 1 1.9 -2
v -0.8 1.9 -2.2
v -0.8 2.1 -2.2
v -0.1 1.9 -2.2
v -0.1 2.1 -2.2
v -0.1 2.2 -2.2
v -0.1 2.5 -2.2
v 0.2 1.9 -2.2
v 0.2 2.1 -2.2
v 0.2 2.2 -2.2
v 0.2 2.5 -2.2
v 1 1.9 -2.2
v 1 2.1 -2.2
v -0.8 2.1 -2.3
v -0.8 2.5 -2.3
v -0.1 2.1 -2.3
v -0.1 2.5 -2.3
v -0.1 2.7 -2.3
v 0 2.7 -2.3
v 0 2.8 -2.3
v 0.2 2.1 -2.3
v 0.2 2.5 -2.3
v 0.2 2.8 -2.3
v 1 2.1 -2.3
v 1 2.5 -2.3
v -0.8 2.5 -2.4
v -0.8 2.8 -2.4
v -0.1 2.5 -2.4
v -0.1 2.7 -2.4
v 0 2.7 -2.4
v 0 2.8 -2.4
v 0 3.2 -2.4
v 0.2 2.5 -2.4
v 0.2 2.8 -2.4
v 0.2 3.2 -2.4
v 1 2.5 -2.4
v 1 2.8 -2.4
v -0.8 2.8 -2.5
v -0.8 3.2 -2.5
v 0 2.8 -2.5
v 0 3.2 -2.5
v 0 3.6 -2.5
v 0.2 2.8 -2.5
v 0.2 3.2 -2.5
v 0.2 3.6 -2.5
v 1 2.8 -2.5
v 1 3.2 -2.5
v -0.8 3.2 -2.6
v -0.8 3.4 -2.6
v 0 3.2 -2.6
v 0 3.4 -2.6
v 0 3.6 -2.6
v 0 3.7 -2.6
v 0.2 3.2 -2.6
v 0.2 3.4 -2.6
v 0.2 3.6 -2.6
v 0.2 3.7 -2.6
v 1 3.2 -2.6
v 1 3.4 -2.6
v -0.7 3.4 -2.8
v -0.7 3.8 -2.8
v 0 3.4 -2.8
v 0 3.7 -2.8
v 0.2 3.4 -2.8
v 0.2 3.7 -2.8
v 0.9 3.4 -2.8
v 0.9 3.8 -2.8
v -0.6 3.8 -2.9
v -0.6 4 -2.9
v -0.4 4 -2.9
v -0.4 4.2 -2.9
v 0.6 4 -2.9
v 0.6 4.2 -2.9
v 0.8 3.8 -2.9
v 0.8 4 -2.9
v -0.6 1 -1.4
v -0.6 1.2 -1.4
v -0.4 0.9 -1.4
v -0.4 1 -1.4
v -0.3 0.9 -1.4
v -0.3 1.2 -1.4
v 0.5 0.9 -1.4
v 0.5 1.2 -1.4
v 0.6 0.9 -1.4
v 0.6 1 -1.4
v 0.8 1 -1.4
v 0.8 1.2 -1.4
v -0.3 0.8 -1.6
v -0.3 1.2 -1.6
v -0.2 0.9 -1.6
v -0.2 1.2 -1.6
v 0.4 0.9 -1.6
v 0.4 1.2 -1.6
v 0.5 0.8 -1.6
v 0.5 1.2 -1.6
v -0.2 0.9 -1.8
v -0.2 1 -1.8
v 0.4 0.9 -1.8
v 0.4 1 -1.8
v -0.2 1 -1.9
v -0.2 1.2 -1.9
v 0.4 1 -1.9
v 0.4 1.2 -1.9
v -0.6 1.4 -2
v -0.6 1.5 -2
v -0.4 1.2 -2
v -0.4 1.4 -2
v 0.6 1.2 -2
v 0.6 1.4 -2
v 0.8 1.4 -2
v 0.8 1.5 -2
v -0.8 1.6 -2.2
v -0.8 1.8 -2.2
v -0.7 1.5 -2.2
v -0.7 1.6 -2.2
v 0.9 1.5 -2.2
v 0.9 1.6 -2.2
v 1 1.6 -2.2
v 1 1.8 -2.2
v -0.8 1.8 -2.3
v -0.8 2.1 -2.3
v 1 1.8 -2.3
v 1 2.1 -2.3
v -0.8 2.1 -2.4
v -0.8 2.5 -2.4
v 1 2.1 -2.4
v 1 2.5 -2.4
v -0.8 2.5 -2.5
v -0.8 2.8 -2.5
v 1 2.5 -2.5
v 1 2.8 -2.5
v -0.8 2.8 -2.6
v -0.8 3.1 -2.6
v 1 2.8 -2.6
v 1 3.1 -2.6
v -0.8 3.1 -2.8
v -0.8 3.4 -2.8
v -0.7 3.4 -2.8
v 0.9 3.4 -2.8
v 1 3.1 -2.8
v 1 3.4 -2.8
v -0.7 3.4 -2.9
v -0.7 3.8 -2.9
v -0.6 3.8 -2.9
v 0.8 3.8 -2.9
v 0.9 3.4 -2.9
v 0.9 3.8 -2.9
v -0.6 3.8 -3
v -0.6 4 -3
v -0.4 4 -3
v -0.4 4.2 -3
v 0.6 4 -3
v 0.6 4.2 -3
v 0.8 3.8 -3
v 0.8 4 -3
v -0.3 0.8 -1.2
v 0.5 0.8 -1.2
v -0.3 0.8 -1.6
v 0.5 0.8 -1.6
v -0.4 0.9 -1.2
v -0.3 0.9 -1.2
v 0.5 0.9 -1.2
v 0.6 0.9 -1.2
v -0.4 0.9 -1.4
v -0.3 0.9 -1.4
v 0.5 0.9 -1.4
v 0.6 0.9 -1.4
v -0.2 0.9 -1.6
v 0.4 0.9 -1.6
v -0.2 0.9 -1.8
v 0.4 0.9 -1.8
v -0.6 1 -1.2
v -0.4 1 -1.2
v 0.6 1 -1.2
v 0.8 1 -1.2
v -0.6 1 -1.4
v -0.4 1 -1.4
v 0.6 1 -1.4
v 0.8 1 -1.4
v -0.2 1 -1.8
v 0.4 1 -1.8
v -0.2 1 -1.9
v 0.4 1 -1.9
v -0.4 1.2 -1.9
v -0.2 1.2 -1.9
v 0.4 1.2 -1.9
v 0.6 1.2 -1.9
v -0.4 1.2 -2
v 0.6 1.2 -2
v -0.6 1.4 -1.9
v -0.4 1.4 -1.9
v 0.6 1.4 -1.9
v 0.8 1.4 -1.9
v -0.6 1.4 -2
v -0.4 1.4 -2
v 0.6 1.4 -2
v 0.8 1.4 -2
v -0.7 1.5 -2
v -0.6 1.5 -2
v 0.8 1.5 -2
v 0.9 1.5 -2
v -0.7 1.5 -2.2
v 0.9 1.5 -2.2
v -0.8 1.6 -2
v -0.7 1.6 -2
v 0.9 1.6 -2
v 1 1.6 -2
v -0.8 1.6 -2.2
v -0.7 1.6 -2.2
v 0.9 1.6 -2.2
v 1 1.6 -2.2
v -0.8 1.8 -2.2
v 1 1.8 -2.2
v -0.8 1.8 -2.3
v 1 1.8 -2.3
v -0.8 2.1 -2.3
v 1 2.1 -2.3
v -0.8 2.1 -2.4
v 1 2.1 -2.4
v -0.8 2.5 -2.4
v 1 2.5 -2.4
v -0.8 2.5 -2.5
v 1 2.5 -2.5
v -0.8 2.8 -2.5
v 1 2.8 -2.5
v -0.8 2.8 -2.6
v 1 2.8 -2.6
v -0.8 3.1 -2.6
v 1 3.1 -2.6
v -0.8 3.1 -2.8
v 1 3.1 -2.8
v -0.7 3.4 -2.8
v 0.9 3.4 -2.8
v -0.7 3.4 -2.9
v 0.9 3.4 -2.9
v -0.6 3.8 -2.9
v 0.8 3.8 -2.9
v -0.6 3.8 -3
v 0.8 3.8 -3
v -0.6 1.2 -1.2
v 0.8 1.2 -1.2
v -0.6 1.2 -1.4
v -0.3 1.2 -1.4
v 0.5 1.2 -1.4
v 0.8 1.2 -1.4
v -0.3 1.2 -1.6
v -0.2 1.2 -1.6
v 0.4 1.2 -1.6
v 0.5 1.2 -1.6
v -0.1 1.2 -1.7
v 0.3 1.2 -1.7
v -0.2 1.2 -1.9
v -0.1 1.2 -1.9
v 0.3 1.2 -1.9
v 0.4 1.2 -1.9
v -0.1 1.3 -1.7
v 0.3 1.3 -1.7
v -0.1 1.3 -1.8
v 0.3 1.3 -1.8
v -0.1 1.5 -1.8
v 0.3 1.5 -1.8
v -0.6 1.5 -1.9
v -0.1 1.5 -1.9
v 0.2 1.5 -1.9
v 0.3 1.5 -1.9
v 0.8 1.5 -1.9
v -0.6 1.5 -2
v -0.1 1.5 -2
v 0.2 1.5 -2
v 0.8 1.5 -2
v -0.1 1.9 -1.9
v 0.2 1.9 -1.9
v -0.8 1.9 -2
v -0.1 1.9 -2
v 0.2 1.9 -2
v 1 1.9 -2
v -0.8 1.9 -2.2
v -0.1 1.9 -2.2
v 0.2 1.9 -2.2
v 1 1.9 -2.2
v -0.8 2.1 -2.2
v -0.1 2.1 -2.2
v 0.2 2.1 -2.2
v 1 2.1 -2.2
v -0.8 2.1 -2.3
v -0.1 2.1 -2.3
v 0.2 2.1 -2.3
v 1 2.1 -2.3
v -0.1 2.2 -2
v 0.2 2.2 -2
v -0.1 2.2 -2.2
v 0.2 2.2 -2.2
v -0.1 2.5 -2.2
v 0.2 2.5 -2.2
v -0.8 2.5 -2.3
v -0.1 2.5 -2.3
v 0.2 2.5 -2.3
v 1 2.5 -2.3
v -0.8 2.5 -2.4
v -0.1 2.5 -2.4
v 0.2 2.5 -2.4
v 1 2.5 -2.4
v -0.1 2.7 -2.3
v 0 2.7 -2.3
v -0.1 2.7 -2.4
v 0 2.7 -2.4
v 0 2.8 -2.3
v 0.2 2.8 -2.3
v -0.8 2.8 -2.4
v 0 2.8 -2.4
v 0.2 2.8 -2.4
v 1 2.8 -2.4
v -0.8 2.8 -2.5
v 0 2.8 -2.5
v 0.2 2.8 -2.5
v 1 2.8 -2.5
v 0 3.2 -2.4
v 0.2 3.2 -2.4
v -0.8 3.2 -2.5
v 0 3.2 -2.5
v 0.2 3.2 -2.5
v 1 3.2 -2.5
v -0.8 3.2 -2.6
v 0 3.2 -2.6
v 0.2 3.2 -2.6
v 1 3.2 -2.6
v -0.8 3.4 -2.6
v 0 3.4 -2.6
v 0.2 3.4 -2.6
v 1 3.4 -2.6
v -0.8 3.4 -2.8
v -0.7 3.4 -2.8
v 0 3.4 -2.8
v 0.2 3.4 -2.8
v 0.9 3.4 -2.8
v 1 3.4 -2.8
v 0 3.6 -2.5
v 0.2 3.6 -2.5
v 0 3.6 -2.6
v 0.2 3.6 -2.6
v 0 3.7 -2.6
v 0.2 3.7 -2.6
v 0 3.7 -2.8
v 0.2 3.7 -2.8
v -0.7 3.8 -2.8
v 0.9 3.8 -2.8
v -0.7 3.8 -2.9
v -0.6 3.8 -2.9
v 0.8 3.8 -2.9
v 0.9 3.8 -2.9
v -0.6 4 -2.9
v -0.4 4 -2.9
v 0.6 4 -2.9
v 0.8 4 -2.9
v -0.6 4 -3
v -0.4 4 -3
v 0.6 4 -3
v 0.8 4 -3
v -0.4 4.2 -2.9
v 0.6 4.2 -2.9
v -0.4 4.2 -3
v 0.6 4.2 -3

# faces
f 3/2/1 2/2/1 1/2/1
f 5/2/1 3/2/1 1/2/1
f 5/2/1 4/2/1 3/2/1
f 6/2/1 4/2/1 5/2/1
f 7/2/1 4/2/1 6/2/1
f 8/2/1 4/2/1 7/2/1
f 10/2/1 9/2/1 8/2/1
f 11/2/1 9/2/1 10/2/1
f 13/2/1 12/2/1 11/2/1
f 14/2/1 12/2/1 13/2/1
f 16/2/1 15/2/1 14/2/1
f 18/2/1 16/2/1 14/2/1
f 18/2/1 17/2/1 16/2/1
f 19/2/1 17/2/1 18/2/1
f 20/2/1 17/2/1 19/2/1
f 21/2/1 17/2/1 20/2/1
f 24/2/1 23/2/1 22/2/1
f 25/2/1 23/2/1 24/2/1
f 28/2/1 27/2/1 26/2/1
f 29/2/1 27/2/1 28/2/1
f 32/1/1 31/1/1 30/1/1
f 33/1/1 31/1/1 32/1/1
f 36/2/1 35/2/1 34/2/1
f 37/2/1 35/2/1 36/2/1
f 40/2/1 39/2/1 38/2/1
f 41/2/1 39/2/1 40/2/1
f 44/1/1 43/1/1 42/1/1
f 45/1/1 43/1/1 44/1/1
f 48/2/1 47/2/1 46/2/1
f 49/2/1 47/2/1 48/2/1
f 52/2/1 51/2/1 50/2/1
f 53/2/1 51/2/1 52/2/1
f 56/1/1 55/1/1 54/1/1
f 57/1/1 55/1/1 56/1/1
f 58/1/1 55/1/1 57/1/1
f 59/1/1 55/1/1 58/1/1
f 62/1/1 61/1/1 60/1/1
f 64/1/1 62/1/1 60/1/1
f 64/1/1 63/1/1 62/1/1
f 65/1/1 63/1/1 64/1/1
f 68/1/1 67/1/1 66/1/1
f 69/1/1 67/1/1 68/1/1
f 70/1/1 67/1/1 69/1/1
f 71/1/1 67/1/1 70/1/1
f 73/1/1 72/1/1 71/1/1
f 74/1/1 72/1/1 73/1/1
f 76/1/1 75/1/1 74/1/1
f 78/1/1 76/1/1 74/1/1
f 78/1/1 77/1/1 76/1/1
f 79/1/1 77/1/1 78/1/1
f 80/1/1 77/1/1 79/1/1
f 81/1/1 77/1/1 80/1/1
f 83/1/1 82/1/1 81/1/1
f 84/1/1 82/1/1 83/1/1
f 87/1/1 86/1/1 85/1/1
f 88/1/1 86/1/1 87/1/1
f 90/1/1 89/1/1 88/1/1
f 91/1/1 89/1/1 90/1/1
f 93/1/1 92/1/1 91/1/1
f 95/1/1 93/1/1 91/1/1
f 95/1/1 94/1/1 93/1/1
f 96/1/1 94/1/1 95/1/1
f 97/1/1 94/1/1 96/1/1
f 98/1/1 94/1/1 97/1/1
f 99/1/2 100/1/2 101/1/2
f 101/1/2 100/1/2 102/1/2
f 102/1/2 103/1/2 104/1/2
f 102/1/2 104/1/2 106/1/2
f 104/1/2 105/1/2 106/1/2
f 106/1/2 105/1/2 107/1/2
f 107/1/2 105/1/2 108/1/2
f 108/1/2 105/1/2 109/1/2
f 109/1/2 110/1/2 111/1/2
f 111/1/2 110/1/2 112/1/2
f 112/1/2 113/1/2 114/1/2
f 114/1/2 113/1/2 115/1/2
f 115/1/2 116/1/2 117/1/2
f 115/1/2 117/1/2 119/1/2
f 117/1/2 118/1/2 119/1/2
f 119/1/2 118/1/2 120/1/2
f 120/1/2 118/1/2 121/1/2
f 121/1/2 118/1/2 122/1/2
f 123/1/2 124/1/2 125/1/2
f 125/1/2 124/1/2 126/1/2
f 126/1/2 124/1/2 127/1/2
f 127/1/2 124/1/2 128/1/2
f 129/1/2 130/1/2 131/1/2
f 129/1/2 131/1/2 133/1/2
f 131/1/2 132/1/2 133/1/2
f 133/1/2 132/1/2 134/1/2
f 135/1/2 136/1/2 137/1/2
f 137/1/2 136/1/2 138/1/2
f 138/1/2 136/1/2 139/1/2
f 139/1/2 136/1/2 140/1/2
f 141/1/2 142/1/2 143/1/2
f 143/1/2 142/1/2 144/1/2
f 145/2/2 146/2/2 147/2/2
f 147/2/2 146/2/2 148/2/2
f 149/2/2 150/2/2 151/2/2
f 151/2/2 150/2/2 152/2/2
f 153/1/2 154/1/2 155/1/2
f 155/1/2 154/1/2 156/1/2
f 157/2/2 158/2/2 159/2/2
f 159/2/2 158/2/2 160/2/2
f 161/2/2 162/2/2 163/2/2
f 163/2/2 162/2/2 164/2/2
f 165/2/2 166/2/2 167/2/2
f 167/2/2 166/2/2 168/2/2
f 169/2/2 170/2/2 171/2/2
f 171/2/2 170/2/2 172/2/2
f 173/2/2 174/2/2 175/2/2
f 173/2/2 175/2/2 177/2/2
f 175/2/2 176/2/2 177/2/2
f 177/2/2 176/2/2 178/2/2
f 178/2/2 176/2/2 179/2/2
f 179/2/2 176/2/2 180/2/2
f 180/2/2 181/2/2 182/2/2
f 182/2/2 181/2/2 183/2/2
f 183/2/2 184/2/2 185/2/2
f 185/2/2 184/2/2 186/2/2
f 186/2/2 187/2/2 188/2/2
f 186/2/2 188/2/2 190/2/2
f 188/2/2 189/2/2 190/2/2
f 190/2/2 189/2/2 191/2/2
f 191/2/2 189/2/2 192/2/2
f 192/2/2 189/2/2 193/2/2
f 197/1/3 195/1/3 194/1/3
f 199/1/3 197/1/3 196/1/3
f 200/1/3 199/1/3 198/1/3
f 201/1/3 197/1/3 199/1/3
f 201/1/3 199/1/3 200/1/3
f 202/1/3 197/1/3 201/1/3
f 203/1/3 195/1/3 197/1/3
f 203/1/3 197/1/3 202/1/3
f 204/1/3 195/1/3 203/1/3
f 205/1/3 195/1/3 204/1/3
f 208/1/3 207/1/3 206/1/3
f 209/1/3 207/1/3 208/1/3
f 212/1/3 211/1/3 210/1/3
f 213/1/3 211/1/3 212/1/3
f 217/2/3 215/2/3 214/2/3
f 218/2/3 217/2/3 216/2/3
f 219/2/3 217/2/3 218/2/3
f 220/2/3 215/2/3 217/2/3
f 220/2/3 217/2/3 219/2/3
f 222/1/3 221/1/3 220/1/3
f 223/1/3 221/1/3 222/1/3
f 226/2/3 225/2/3 224/2/3
f 227/2/3 225/2/3 226/2/3
f 228/2/3 225/2/3 227/2/3
f 229/2/3 225/2/3 228/2/3
f 230/2/3 225/2/3 229/2/3
f 234/2/3 232/2/3 231/2/3
f 235/2/3 234/2/3 233/2/3
f 236/2/3 234/2/3 235/2/3
f 237/2/3 232/2/3 234/2/3
f 237/2/3 234/2/3 236/2/3
f 240/1/3 238/1/3 237/1/3
f 241/1/3 238/1/3 240/1/3
f 242/2/3 240/2/3 239/2/3
f 243/2/3 240/2/3 242/2/3
f 244/2/3 240/2/3 243/2/3
f 245/2/3 240/2/3 244/2/3
f 246/2/3 240/2/3 245/2/3
f 249/2/3 248/2/3 247/2/3
f 250/2/3 248/2/3 249/2/3
f 255/1/3 252/1/3 251/1/3
f 256/1/3 252/1/3 255/1/3
f 257/2/3 254/2/3 253/2/3
f 258/2/3 254/2/3 257/2/3
f 261/2/3 260/2/3 259/2/3
f 262/2/3 260/2/3 261/2/3
f 264/1/3 263/1/3 262/1/3
f 267/1/3 264/1/3 262/1/3
f 267/1/3 265/1/3 264/1/3
f 268/1/3 265/1/3 267/1/3
f 269/2/3 267/2/3 266/2/3
f 270/2/3 267/2/3 269/2/3
f 273/2/3 272/2/3 271/2/3
f 274/2/3 272/2/3 273/2/3
f 275/2/3 272/2/3 274/2/3
f 276/2/3 272/2/3 275/2/3
f 279/1/3 277/1/3 276/1/3
f 280/1/3 277/1/3 279/1/3
f 281/2/3 279/2/3 278/2/3
f 282/2/3 279/2/3 281/2/3
f 285/2/3 284/2/3 283/2/3
f 286/2/3 284/2/3 285/2/3
f 289/1/3 287/1/3 286/1/3
f 290/1/3 287/1/3 289/1/3
f 291/2/3 289/2/3 288/2/3
f 292/2/3 289/2/3 291/2/3
f 295/2/3 294/2/3 293/2/3
f 296/2/3 294/2/3 295/2/3
f 301/1/3 298/1/3 297/1/3
f 302/1/3 298/1/3 301/1/3
f 303/2/3 300/2/3 299/2/3
f 304/2/3 300/2/3 303/2/3
f 307/2/3 306/2/3 305/2/3
f 308/2/3 306/2/3 307/2/3
f 310/2/3 306/2/3 308/2/3
f 311/2/3 310/2/3 309/2/3
f 312/2/3 306/2/3 310/2/3
f 312/2/3 310/2/3 311/2/3
f 315/2/3 314/2/3 313/2/3
f 317/2/3 315/2/3 313/2/3
f 317/2/3 316/2/3 315/2/3
f 318/2/3 316/2/3 317/2/3
f 319/2/3 317/2/3 313/2/3
f 320/2/3 317/2/3 319/2/3
f 321/1/4 322/1/4 324/1/4
f 323/1/4 324/1/4 325/1/4
f 324/1/4 322/1/4 326/1/4
f 325/1/4 324/1/4 326/1/4
f 327/1/4 328/1/4 329/1/4
f 329/1/4 328/1/4 330/1/4
f 330/1/4 328/1/4 331/1/4
f 331/1/4 328/1/4 332/1/4
f 333/1/4 334/1/4 335/1/4
f 335/1/4 334/1/4 336/1/4
f 333/1/4 335/1/4 337/1/4
f 333/1/4 337/1/4 339/1/4
f 337/1/4 338/1/4 339/1/4
f 339/1/4 338/1/4 340/1/4
f 341/1/4 342/1/4 343/1/4
f 343/1/4 342/1/4 344/1/4
f 345/1/4 346/1/4 347/1/4
f 347/1/4 346/1/4 348/1/4
f 349/2/4 350/2/4 352/2/4
f 351/2/4 352/2/4 353/2/4
f 352/2/4 350/2/4 354/2/4
f 353/2/4 352/2/4 354/2/4
f 354/2/4 350/2/4 355/2/4
f 355/2/4 350/2/4 356/2/4
f 357/2/4 358/2/4 360/2/4
f 359/2/4 360/2/4 361/2/4
f 360/2/4 358/2/4 362/2/4
f 361/2/4 360/2/4 362/2/4
f 362/2/4 358/2/4 363/2/4
f 363/2/4 358/2/4 364/2/4
f 365/2/4 366/2/4 367/2/4
f 367/2/4 366/2/4 368/2/4
f 369/2/4 370/2/4 371/2/4
f 371/2/4 370/2/4 372/2/4
f 373/2/4 374/2/4 375/2/4
f 375/2/4 374/2/4 376/2/4
f 377/2/4 378/2/4 379/2/4
f 379/2/4 378/2/4 380/2/4
f 381/2/4 382/2/4 383/2/4
f 381/2/4 383/2/4 384/2/4
f 381/2/4 384/2/4 385/2/4
f 385/2/4 384/2/4 386/2/4
f 387/2/4 388/2/4 389/2/4
f 387/2/4 389/2/4 390/2/4
f 387/2/4 390/2/4 391/2/4
f 391/2/4 390/2/4 392/2/4
f 393/2/4 394/2/4 395/2/4
f 393/2/4 395/2/4 397/2/4
f 395/2/4 396/2/4 397/2/4
f 397/2/4 396/2/4 398/2/4
f 393/2/4 397/2/4 399/2/4
f 399/2/4 397/2/4 400/2/4
f 403/1/5 402/1/5 401/1/5
f 404/1/5 402/1/5 403/1/5
f 409/1/5 406/1/5 405/1/5
f 410/1/5 406/1/5 409/1/5
f 411/1/5 408/1/5 407/1/5
f 412/1/5 408/1/5 411/1/5
f 415/1/5 414/1/5 413/1/5
f 416/1/5 414/1/5 415/1/5
f 421/1/5 418/1/5 417/1/5
f 422/1/5 418/1/5 421/1/5
f 423/1/5 420/1/5 419/1/5
f 424/1/5 420/1/5 423/1/5
f 427/1/5 426/1/5 425/1/5
f 428/1/5 426/1/5 427/1/5
f 433/2/5 430/2/5 429/2/5
f 433/2/5 432/2/5 431/2/5
f 433/2/5 431/2/5 430/2/5
f 434/2/5 432/2/5 433/2/5
f 439/2/5 436/2/5 435/2/5
f 440/2/5 436/2/5 439/2/5
f 441/2/5 438/2/5 437/2/5
f 442/2/5 438/2/5 441/2/5
f 447/2/5 444/2/5 443/2/5
f 447/2/5 446/2/5 445/2/5
f 447/2/5 445/2/5 444/2/5
f 448/2/5 446/2/5 447/2/5
f 453/2/5 450/2/5 449/2/5
f 454/2/5 450/2/5 453/2/5
f 455/2/5 452/2/5 451/2/5
f 456/2/5 452/2/5 455/2/5
f 459/2/5 458/2/5 457/2/5
f 460/2/5 458/2/5 459/2/5
f 463/2/5 462/2/5 461/2/5
f 464/2/5 462/2/5 463/2/5
f 467/2/5 466/2/5 465/2/5
f 468/2/5 466/2/5 467/2/5
f 471/2/5 470/2/5 469/2/5
f 472/2/5 470/2/5 471/2/5
f 475/2/5 474/2/5 473/2/5
f 476/2/5 474/2/5 475/2/5
f 479/2/5 478/2/5 477/2/5
f 480/2/5 478/2/5 479/2/5
f 483/2/5 482/2/5 481/2/5
f 484/2/5 482/2/5 483/2/5
f 485/1/6 486/1/6 487/1/6
f 487/1/6 486/1/6 488/1/6
f 488/1/6 486/1/6 489/1/6
f 489/1/6 486/1/6 490/1/6
f 488/1/6 489/1/6 491/1/6
f 491/1/6 489/1/6 492/1/6
f 492/1/6 489/1/6 493/1/6
f 493/1/6 489/1/6 494/1/6
f 492/1/6 493/1/6 495/1/6
f 495/1/6 493/1/6 496/1/6
f 492/1/6 495/1/6 497/1/6
f 497/1/6 495/1/6 498/1/6
f 496/1/6 493/1/6 499/1/6
f 499/1/6 493/1/6 500/1/6
f 501/1/6 502/1/6 503/1/6
f 503/1/6 502/1/6 504/1/6
f 505/1/6 506/1/6 508/1/6
f 508/1/6 506/1/6 509/1/6
f 509/1/6 506/1/6 510/1/6
f 507/2/6 508/2/6 512/2/6
f 512/2/6 508/2/6 513/2/6
f 510/2/6 511/2/6 514/2/6
f 509/2/6 510/2/6 514/2/6
f 514/2/6 511/2/6 515/2/6
f 516/1/6 517/1/6 519/1/6
f 519/1/6 517/1/6 520/1/6
f 518/2/6 519/2/6 522/2/6
f 522/2/6 519/2/6 523/2/6
f 520/2/6 521/2/6 524/2/6
f 524/2/6 521/2/6 525/2/6
f 526/2/6 527/2/6 530/2/6
f 530/2/6 527/2/6 531/2/6
f 528/2/6 529/2/6 532/2/6
f 532/2/6 529/2/6 533/2/6
f 534/1/6 535/1/6 536/1/6
f 536/1/6 535/1/6 537/1/6
f 538/1/6 539/1/6 541/1/6
f 541/1/6 539/1/6 542/1/6
f 540/2/6 541/2/6 544/2/6
f 544/2/6 541/2/6 545/2/6
f 542/2/6 543/2/6 546/2/6
f 546/2/6 543/2/6 547/2/6
f 548/1/6 549/1/6 550/1/6
f 550/1/6 549/1/6 551/1/6
f 552/1/6 553/1/6 555/1/6
f 555/1/6 553/1/6 556/1/6
f 554/2/6 555/2/6 558/2/6
f 558/2/6 555/2/6 559/2/6
f 556/2/6 557/2/6 560/2/6
f 560/2/6 557/2/6 561/2/6
f 562/1/6 563/1/6 565/1/6
f 565/1/6 563/1/6 566/1/6
f 564/2/6 565/2/6 568/2/6
f 568/2/6 565/2/6 569/2/6
f 566/2/6 567/2/6 570/2/6
f 570/2/6 567/2/6 571/2/6
f 572/2/6 573/2/6 576/2/6
f 576/2/6 573/2/6 577/2/6
f 577/2/6 573/2/6 578/2/6
f 574/2/6 575/2/6 579/2/6
f 579/2/6 575/2/6 580/2/6
f 580/2/6 575/2/6 581/2/6
f 582/1/6 583/1/6 584/1/6
f 584/1/6 583/1/6 585/1/6
f 586/1/6 587/1/6 588/1/6
f 588/1/6 587/1/6 589/1/6
f 590/2/6 591/2/6 592/2/6
f 592/2/6 591/2/6 593/2/6
f 593/2/6 591/2/6 594/2/6
f 594/2/6 591/2/6 595/2/6
f 596/2/6 597/2/6 600/2/6
f 600/2/6 597/2/6 601/2/6
f 598/2/6 599/2/6 602/2/6
f 602/2/6 599/2/6 603/2/6
f 604/2/6 605/2/6 606/2/6
f 606/2/6 605/2/6 607/2/6
