# MagicaVoxel @ Ephtracy

# group
o ref

# material
mtllib pikachu-icon-1-ref.mtl
usemtl palette

# normals
vn -1 0 0
vn 1 0 0
vn 0 0 1
vn 0 0 -1
vn 0 -1 0
vn 0 1 0

# texcoords
vt 0.849609 0.5
vt 0.853516 0.5
vt 0.880859 0.5
vt 0.951172 0.5
vt 0.958984 0.5
vt 0.994141 0.5

# verts
v -2.4 1.2 0.4
v -2.4 1.2 -0.2
v -2.4 1.3 0.5
v -2.4 1.3 0.4
v -2.4 1.3 -0.2
v -2.4 1.3 -0.3
v -2.4 1.5 0.6
v -2.4 1.5 0.5
v -2.4 1.5 -0.3
v -2.4 1.5 -0.4
v -2.4 1.6 0.7
v -2.4 1.6 0.6
v -2.4 1.6 0.4
v -2.4 1.6 -0.2
v -2.4 1.6 -0.4
v -2.4 1.6 -0.5
v -2.4 1.7 0.6
v -2.4 1.7 0.5
v -2.4 1.7 0.4
v -2.4 1.7 -0.2
v -2.4 1.7 -0.3
v -2.4 1.7 -0.4
v -2.4 1.8 0.7
v -2.4 1.8 0.6
v -2.4 1.8 0.5
v -2.4 1.8 0.4
v -2.4 1.8 -0.2
v -2.4 1.8 -0.3
v -2.4 1.8 -0.4
v -2.4 1.8 -0.5
v -2.4 1.9 0.4
v -2.4 1.9 -0.2
v -2.4 2.2 0.7
v -2.4 2.2 0.6
v -2.4 2.2 -0.4
v -2.4 2.2 -0.5
v -2.4 2.4 0.7
v -2.4 2.4 0.5
v -2.4 2.4 -0.3
v -2.4 2.4 -0.5
v -2.3 1 0.4
v -2.3 1 -0.2
v -2.3 1.1 0.5
v -2.3 1.1 0.4
v -2.3 1.1 -0.2
v -2.3 1.1 -0.3
v -2.3 1.2 0.6
v -2.3 1.2 0.5
v -2.3 1.2 0.4
v -2.3 1.2 -0.2
v -2.3 1.2 -0.3
v -2.3 1.2 -0.4
v -2.3 1.3 0.5
v -2.3 1.3 0.4
v -2.3 1.3 -0.2
v -2.3 1.3 -0.3
v -2.3 1.5 0.6
v -2.3 1.5 0.5
v -2.3 1.5 -0.3
v -2.3 1.5 -0.4
v -2.3 1.8 0.5
v -2.3 1.8 0.4
v -2.3 1.8 -0.2
v -2.3 1.8 -0.3
v -2.3 1.9 0.4
v -2.3 1.9 -0.2
v -2.3 2.3 0.5
v -2.3 2.3 0.4
v -2.3 2.3 -0.2
v -2.3 2.3 -0.3
v -1.7 1.8 0.2
v -1.7 1.8 5.96046e-08
v -1.7 1.9 0.2
v -1.7 1.9 5.96046e-08
v -1.6 1.1 0.2
v -1.6 1.1 5.96046e-08
v -1.6 1.2 0.2
v -1.6 1.2 5.96046e-08
v -1.6 1.9 0.2
v -1.6 1.9 5.96046e-08
v -1.6 2 0.2
v -1.6 2 5.96046e-08
v -2.3 1.6 0.7
v -2.3 1.6 0.6
v -2.3 1.6 -0.4
v -2.3 1.6 -0.5
v -2.3 1.7 0.6
v -2.3 1.7 -0.4
v -2.3 1.8 0.7
v -2.3 1.8 0.6
v -2.3 1.8 -0.4
v -2.3 1.8 -0.5
v -2.3 2 0.6
v -2.3 2 -0.4
v -2.3 2.2 0.7
v -2.3 2.2 0.6
v -2.3 2.2 -0.4
v -2.3 2.2 -0.5
v -2.3 2.3 0.6
v -2.3 2.3 0.5
v -2.3 2.3 -0.3
v -2.3 2.3 -0.4
v -2.3 2.4 0.7
v -2.3 2.4 0.5
v -2.3 2.4 -0.3
v -2.3 2.4 -0.5
v -2.2 2.1 0.6
v -2.2 2.1 0.4
v -2.2 2.1 -0.2
v -2.2 2.1 -0.4
v -2.2 2.3 0.6
v -2.2 2.3 0.4
v -2.2 2.3 -0.2
v -2.2 2.3 -0.4
v -2.1 1 0.4
v -2.1 1 -0.2
v -2.1 1.1 0.5
v -2.1 1.1 0.4
v -2.1 1.1 -0.2
v -2.1 1.1 -0.3
v -2.1 1.2 0.6
v -2.1 1.2 0.5
v -2.1 1.2 0.4
v -2.1 1.2 -0.2
v -2.1 1.2 -0.3
v -2.1 1.2 -0.4
v -2.1 1.5 0.6
v -2.1 1.5 0.5
v -2.1 1.5 -0.3
v -2.1 1.5 -0.4
v -2.1 1.8 0.4
v -2.1 1.8 -0.2
v -2.1 1.9 0.4
v -2.1 1.9 -0.2
v -2.1 2 0.6
v -2.1 2 0.4
v -2.1 2 -0.2
v -2.1 2 -0.4
v -2.1 2.1 0.6
v -2.1 2.1 0.4
v -2.1 2.1 -0.2
v -2.1 2.1 -0.4
v -2 1.9 0.6
v -2 1.9 0.4
v -2 1.9 -0.2
v -2 1.9 -0.4
v -2 2 0.6
v -2 2 0.4
v -2 2 -0.2
v -2 2 -0.4
v -1.9 1.5 0.6
v -1.9 1.5 0.5
v -1.9 1.5 -0.3
v -1.9 1.5 -0.4
v -1.9 1.7 0.5
v -1.9 1.7 0.4
v -1.9 1.7 -0.2
v -1.9 1.7 -0.3
v -1.9 1.8 0.4
v -1.9 1.8 -0.2
v -1.9 1.9 0.6
v -1.9 1.9 0.4
v -1.9 1.9 -0.2
v -1.9 1.9 -0.4
v -1.8 1.2 0.5
v -1.8 1.2 0.4
v -1.8 1.2 -0.2
v -1.8 1.2 -0.3
v -1.8 1.4 0.4
v -1.8 1.4 -0.2
v -1.8 1.7 0.5
v -1.8 1.7 0.4
v -1.8 1.7 0.3
v -1.8 1.7 0.2
v -1.8 1.7 5.96046e-08
v -1.8 1.7 -0.1
v -1.8 1.7 -0.2
v -1.8 1.7 -0.3
v -1.8 1.8 0.4
v -1.8 1.8 0.2
v -1.8 1.8 5.96046e-08
v -1.8 1.8 -0.2
v -1.7 1.1 0.4
v -1.7 1.1 -0.2
v -1.7 1.2 0.4
v -1.7 1.2 -0.2
v -1.7 1.6 0.4
v -1.7 1.6 0.3
v -1.7 1.6 0.2
v -1.7 1.6 5.96046e-08
v -1.7 1.6 -0.1
v -1.7 1.6 -0.2
v -1.7 1.7 0.4
v -1.7 1.7 0.3
v -1.7 1.7 0.2
v -1.7 1.7 5.96046e-08
v -1.7 1.7 -0.1
v -1.7 1.7 -0.2
v -1.6 1.2 0.4
v -1.6 1.2 0.3
v -1.6 1.2 -0.1
v -1.6 1.2 -0.2
v -1.6 1.4 0.4
v -1.6 1.4 0.3
v -1.6 1.4 -0.1
v -1.6 1.4 -0.2
v -1.6 1.5 0.3
v -1.6 1.5 -0.1
v -1.6 1.6 0.4
v -1.6 1.6 0.3
v -1.6 1.6 -0.1
v -1.6 1.6 -0.2
v -1.6 1.7 0.2
v -1.6 1.7 5.96046e-08
v -1.6 1.8 0.2
v -1.6 1.8 5.96046e-08
v -1.5 1.1 0.2
v -1.5 1.1 5.96046e-08
v -1.5 1.2 0.3
v -1.5 1.2 0.2
v -1.5 1.2 5.96046e-08
v -1.5 1.2 -0.1
v -1.5 1.5 0.3
v -1.5 1.5 -0.1
v -1.5 1.8 0.2
v -1.5 1.8 5.96046e-08
v -1.5 2 0.2
v -1.5 2 5.96046e-08
v -2.4 1.6 0.7
v -2.4 1.8 0.7
v -2.4 2.2 0.7
v -2.4 2.4 0.7
v -2.3 1.6 0.7
v -2.3 1.8 0.7
v -2.3 2.2 0.7
v -2.3 2.4 0.7
v -2.4 1.5 0.6
v -2.4 1.6 0.6
v -2.3 1.2 0.6
v -2.3 1.5 0.6
v -2.3 1.6 0.6
v -2.3 1.7 0.6
v -2.3 1.8 0.6
v -2.3 2 0.6
v -2.3 2.2 0.6
v -2.3 2.3 0.6
v -2.2 1.6 0.6
v -2.2 1.7 0.6
v -2.2 1.8 0.6
v -2.2 2 0.6
v -2.2 2.1 0.6
v -2.2 2.3 0.6
v -2.1 1.2 0.6
v -2.1 1.5 0.6
v -2.1 2 0.6
v -2.1 2.1 0.6
v -2 1.6 0.6
v -2 1.8 0.6
v -2 1.9 0.6
v -2 2 0.6
v -1.9 1.5 0.6
v -1.9 1.9 0.6
v -2.4 1.3 0.5
v -2.4 1.5 0.5
v -2.3 1.1 0.5
v -2.3 1.2 0.5
v -2.3 1.3 0.5
v -2.3 1.5 0.5
v -2.1 1.1 0.5
v -2.1 1.2 0.5
v -2.1 1.5 0.5
v -1.9 1.5 0.5
v -1.9 1.7 0.5
v -1.8 1.2 0.5
v -1.8 1.7 0.5
v -2.4 1.2 0.4
v -2.4 1.3 0.4
v -2.4 1.8 0.4
v -2.4 1.9 0.4
v -2.3 1 0.4
v -2.3 1.1 0.4
v -2.3 1.2 0.4
v -2.3 1.3 0.4
v -2.3 1.8 0.4
v -2.3 1.9 0.4
v -2.1 1 0.4
v -2.1 1.1 0.4
v -2.1 1.2 0.4
v -1.9 1.7 0.4
v -1.9 1.8 0.4
v -1.8 1.2 0.4
v -1.8 1.4 0.4
v -1.8 1.7 0.4
v -1.8 1.8 0.4
v -1.7 1.1 0.4
v -1.7 1.2 0.4
v -1.7 1.4 0.4
v -1.7 1.6 0.4
v -1.7 1.7 0.4
v -1.6 1.2 0.4
v -1.6 1.4 0.4
v -1.6 1.6 0.4
v -1.6 1.2 0.3
v -1.6 1.4 0.3
v -1.6 1.5 0.3
v -1.5 1.2 0.3
v -1.5 1.5 0.3
v -1.8 1.7 0.2
v -1.8 1.8 0.2
v -1.7 1.7 0.2
v -1.7 1.8 0.2
v -1.7 1.9 0.2
v -1.6 1.1 0.2
v -1.6 1.2 0.2
v -1.6 1.7 0.2
v -1.6 1.8 0.2
v -1.6 1.9 0.2
v -1.6 2 0.2
v -1.5 1.1 0.2
v -1.5 1.2 0.2
v -1.5 1.8 0.2
v -1.5 2 0.2
v -2.3 1.9 -0.2
v -2.3 2.3 -0.2
v -2.2 2.1 -0.2
v -2.2 2.3 -0.2
v -2.1 1.8 -0.2
v -2.1 1.9 -0.2
v -2.1 2 -0.2
v -2.1 2.1 -0.2
v -2 1.9 -0.2
v -2 2 -0.2
v -1.9 1.8 -0.2
v -1.9 1.9 -0.2
v -2.4 1.8 -0.3
v -2.4 2.4 -0.3
v -2.3 1.8 -0.3
v -2.3 2.3 -0.3
v -2.3 2.4 -0.3
v -2.4 1.8 0.5
v -2.4 2.4 0.5
v -2.3 1.8 0.5
v -2.3 2.3 0.5
v -2.3 2.4 0.5
v -2.3 1.9 0.4
v -2.3 2.3 0.4
v -2.2 2.1 0.4
v -2.2 2.3 0.4
v -2.1 1.8 0.4
v -2.1 1.9 0.4
v -2.1 2 0.4
v -2.1 2.1 0.4
v -2 1.9 0.4
v -2 2 0.4
v -1.9 1.8 0.4
v -1.9 1.9 0.4
v -1.8 1.7 5.96046e-08
v -1.8 1.8 5.96046e-08
v -1.7 1.7 5.96046e-08
v -1.7 1.8 5.96046e-08
v -1.7 1.9 5.96046e-08
v -1.6 1.1 5.96046e-08
v -1.6 1.2 5.96046e-08
v -1.6 1.7 5.96046e-08
v -1.6 1.8 5.96046e-08
v -1.6 1.9 5.96046e-08
v -1.6 2 5.96046e-08
v -1.5 1.1 5.96046e-08
v -1.5 1.2 5.96046e-08
v -1.5 1.8 5.96046e-08
v -1.5 2 5.96046e-08
v -1.6 1.2 -0.1
v -1.6 1.4 -0.1
v -1.6 1.5 -0.1
v -1.5 1.2 -0.1
v -1.5 1.5 -0.1
v -2.4 1.2 -0.2
v -2.4 1.3 -0.2
v -2.4 1.8 -0.2
v -2.4 1.9 -0.2
v -2.3 1 -0.2
v -2.3 1.1 -0.2
v -2.3 1.2 -0.2
v -2.3 1.3 -0.2
v -2.3 1.8 -0.2
v -2.3 1.9 -0.2
v -2.1 1 -0.2
v -2.1 1.1 -0.2
v -2.1 1.2 -0.2
v -1.9 1.7 -0.2
v -1.9 1.8 -0.2
v -1.8 1.2 -0.2
v -1.8 1.4 -0.2
v -1.8 1.7 -0.2
v -1.8 1.8 -0.2
v -1.7 1.1 -0.2
v -1.7 1.2 -0.2
v -1.7 1.4 -0.2
v -1.7 1.6 -0.2
v -1.7 1.7 -0.2
v -1.6 1.2 -0.2
v -1.6 1.4 -0.2
v -1.6 1.6 -0.2
v -2.4 1.3 -0.3
v -2.4 1.5 -0.3
v -2.3 1.1 -0.3
v -2.3 1.2 -0.3
v -2.3 1.3 -0.3
v -2.3 1.5 -0.3
v -2.1 1.1 -0.3
v -2.1 1.2 -0.3
v -2.1 1.5 -0.3
v -1.9 1.5 -0.3
v -1.9 1.7 -0.3
v -1.8 1.2 -0.3
v -1.8 1.7 -0.3
v -2.4 1.5 -0.4
v -2.4 1.6 -0.4
v -2.3 1.2 -0.4
v -2.3 1.5 -0.4
v -2.3 1.6 -0.4
v -2.3 1.7 -0.4
v -2.3 1.8 -0.4
v -2.3 2 -0.4
v -2.3 2.2 -0.4
v -2.3 2.3 -0.4
v -2.2 1.6 -0.4
v -2.2 1.7 -0.4
v -2.2 1.8 -0.4
v -2.2 2 -0.4
v -2.2 2.1 -0.4
v -2.2 2.3 -0.4
v -2.1 1.2 -0.4
v -2.1 1.5 -0.4
v -2.1 2 -0.4
v -2.1 2.1 -0.4
v -2 1.6 -0.4
v -2 1.8 -0.4
v -2 1.9 -0.4
v -2 2 -0.4
v -1.9 1.5 -0.4
v -1.9 1.9 -0.4
v -2.4 1.6 -0.5
v -2.4 1.8 -0.5
v -2.4 2.2 -0.5
v -2.4 2.4 -0.5
v -2.3 1.6 -0.5
v -2.3 1.8 -0.5
v -2.3 2.2 -0.5
v -2.3 2.4 -0.5
v -2.3 1 0.4
v -2.1 1 0.4
v -2.3 1 -0.2
v -2.1 1 -0.2
v -2.3 1.1 0.5
v -2.1 1.1 0.5
v -2.3 1.1 0.4
v -2.1 1.1 0.4
v -1.7 1.1 0.4
v -1.6 1.1 0.2
v -1.5 1.1 0.2
v -1.6 1.1 5.96046e-08
v -1.5 1.1 5.96046e-08
v -2.3 1.1 -0.2
v -2.1 1.1 -0.2
v -1.7 1.1 -0.2
v -2.3 1.1 -0.3
v -2.1 1.1 -0.3
v -2.3 1.2 0.6
v -2.1 1.2 0.6
v -2.3 1.2 0.5
v -2.1 1.2 0.5
v -1.8 1.2 0.5
v -2.4 1.2 0.4
v -2.3 1.2 0.4
v -2.1 1.2 0.4
v -1.8 1.2 0.4
v -1.7 1.2 0.4
v -1.6 1.2 0.4
v -1.6 1.2 0.3
v -1.5 1.2 0.3
v -1.6 1.2 0.2
v -1.5 1.2 0.2
v -1.6 1.2 5.96046e-08
v -1.5 1.2 5.96046e-08
v -1.6 1.2 -0.1
v -1.5 1.2 -0.1
v -2.4 1.2 -0.2
v -2.3 1.2 -0.2
v -2.1 1.2 -0.2
v -1.8 1.2 -0.2
v -1.7 1.2 -0.2
v -1.6 1.2 -0.2
v -2.3 1.2 -0.3
v -2.1 1.2 -0.3
v -1.8 1.2 -0.3
v -2.3 1.2 -0.4
v -2.1 1.2 -0.4
v -2.4 1.3 0.5
v -2.3 1.3 0.5
v -2.4 1.3 0.4
v -2.3 1.3 0.4
v -2.4 1.3 -0.2
v -2.3 1.3 -0.2
v -2.4 1.3 -0.3
v -2.3 1.3 -0.3
v -2.4 1.5 0.6
v -2.3 1.5 0.6
v -2.1 1.5 0.6
v -1.9 1.5 0.6
v -2.4 1.5 0.5
v -2.3 1.5 0.5
v -2.1 1.5 0.5
v -1.9 1.5 0.5
v -2.4 1.5 -0.3
v -2.3 1.5 -0.3
v -2.1 1.5 -0.3
v -1.9 1.5 -0.3
v -2.4 1.5 -0.4
v -2.3 1.5 -0.4
v -2.1 1.5 -0.4
v -1.9 1.5 -0.4
v -2.4 1.6 0.7
v -2.3 1.6 0.7
v -2.4 1.6 0.6
v -2.3 1.6 0.6
v -2.4 1.6 -0.4
v -2.3 1.6 -0.4
v -2.4 1.6 -0.5
v -2.3 1.6 -0.5
v -1.7 1.7 0.2
v -1.6 1.7 0.2
v -1.7 1.7 5.96046e-08
v -1.6 1.7 5.96046e-08
v -1.6 1.8 0.2
v -1.5 1.8 0.2
v -1.6 1.8 5.96046e-08
v -1.5 1.8 5.96046e-08
v -1.6 1.5 0.3
v -1.5 1.5 0.3
v -1.6 1.5 -0.1
v -1.5 1.5 -0.1
v -1.7 1.6 0.4
v -1.6 1.6 0.4
v -1.7 1.6 0.3
v -1.6 1.6 0.3
v -1.7 1.6 0.2
v -1.7 1.6 5.96046e-08
v -1.7 1.6 -0.1
v -1.6 1.6 -0.1
v -1.7 1.6 -0.2
v -1.6 1.6 -0.2
v -1.9 1.7 0.5
v -1.8 1.7 0.5
v -1.9 1.7 0.4
v -1.8 1.7 0.4
v -1.7 1.7 0.4
v -1.8 1.7 0.3
v -1.7 1.7 0.3
v -1.8 1.7 0.2
v -1.7 1.7 0.2
v -1.8 1.7 5.96046e-08
v -1.7 1.7 5.96046e-08
v -1.8 1.7 -0.1
v -1.7 1.7 -0.1
v -1.9 1.7 -0.2
v -1.8 1.7 -0.2
v -1.7 1.7 -0.2
v -1.9 1.7 -0.3
v -1.8 1.7 -0.3
v -2.4 1.8 0.5
v -2.3 1.8 0.5
v -2.4 1.8 0.4
v -2.3 1.8 0.4
v -2.1 1.8 0.4
v -1.9 1.8 0.4
v -1.8 1.8 0.4
v -1.8 1.8 0.2
v -1.7 1.8 0.2
v -1.8 1.8 5.96046e-08
v -1.7 1.8 5.96046e-08
v -2.4 1.8 -0.2
v -2.3 1.8 -0.2
v -2.1 1.8 -0.2
v -1.9 1.8 -0.2
v -1.8 1.8 -0.2
v -2.4 1.8 -0.3
v -2.3 1.8 -0.3
v -2 1.9 0.6
v -1.9 1.9 0.6
v -2.4 1.9 0.4
v -2.3 1.9 0.4
v -2.1 1.9 0.4
v -2 1.9 0.4
v -1.9 1.9 0.4
v -1.7 1.9 0.2
v -1.6 1.9 0.2
v -1.7 1.9 5.96046e-08
v -1.6 1.9 5.96046e-08
v -2.4 1.9 -0.2
v -2.3 1.9 -0.2
v -2.1 1.9 -0.2
v -2 1.9 -0.2
v -1.9 1.9 -0.2
v -2 1.9 -0.4
v -1.9 1.9 -0.4
v -2.1 2 0.6
v -2 2 0.6
v -2.1 2 0.4
v -2 2 0.4
v -1.6 2 0.2
v -1.5 2 0.2
v -1.6 2 5.96046e-08
v -1.5 2 5.96046e-08
v -2.1 2 -0.2
v -2 2 -0.2
v -2.1 2 -0.4
v -2 2 -0.4
v -2.2 2.1 0.6
v -2.1 2.1 0.6
v -2.2 2.1 0.4
v -2.1 2.1 0.4
v -2.2 2.1 -0.2
v -2.1 2.1 -0.2
v -2.2 2.1 -0.4
v -2.1 2.1 -0.4
v -2.3 2.3 0.6
v -2.2 2.3 0.6
v -2.3 2.3 0.5
v -2.3 2.3 0.4
v -2.2 2.3 0.4
v -2.3 2.3 -0.2
v -2.2 2.3 -0.2
v -2.3 2.3 -0.3
v -2.3 2.3 -0.4
v -2.2 2.3 -0.4
v -2.4 2.4 0.7
v -2.3 2.4 0.7
v -2.4 2.4 0.5
v -2.3 2.4 0.5
v -2.4 2.4 -0.3
v -2.3 2.4 -0.3
v -2.4 2.4 -0.5
v -2.3 2.4 -0.5

# faces
f 4/6/1 2/6/1 1/6/1
f 5/6/1 2/6/1 4/6/1
f 8/6/1 4/6/1 3/6/1
f 8/6/1 6/6/1 5/6/1
f 8/6/1 5/6/1 4/6/1
f 9/6/1 6/6/1 8/6/1
f 12/6/1 8/6/1 7/6/1
f 12/6/1 10/6/1 9/6/1
f 12/6/1 9/6/1 8/6/1
f 13/6/1 10/6/1 12/6/1
f 14/6/1 10/6/1 13/6/1
f 15/6/1 10/6/1 14/6/1
f 17/3/1 12/3/1 11/3/1
f 17/6/1 13/6/1 12/6/1
f 18/6/1 13/6/1 17/6/1
f 19/3/1 14/3/1 13/3/1
f 19/6/1 13/6/1 18/6/1
f 20/6/1 15/6/1 14/6/1
f 20/3/1 14/3/1 19/3/1
f 21/6/1 15/6/1 20/6/1
f 22/3/1 16/3/1 15/3/1
f 22/6/1 15/6/1 21/6/1
f 23/3/1 18/3/1 17/3/1
f 23/3/1 17/3/1 11/3/1
f 24/3/1 18/3/1 23/3/1
f 25/6/1 21/6/1 20/6/1
f 25/3/1 18/3/1 24/3/1
f 25/6/1 19/6/1 18/6/1
f 25/6/1 20/6/1 19/6/1
f 26/6/1 21/6/1 25/6/1
f 27/6/1 21/6/1 26/6/1
f 28/3/1 22/3/1 21/3/1
f 28/6/1 21/6/1 27/6/1
f 29/3/1 16/3/1 22/3/1
f 29/3/1 22/3/1 28/3/1
f 30/3/1 16/3/1 29/3/1
f 31/6/1 27/6/1 26/6/1
f 32/6/1 27/6/1 31/6/1
f 33/2/1 24/2/1 23/2/1
f 34/3/1 25/3/1 24/3/1
f 34/2/1 24/2/1 33/2/1
f 35/2/1 30/2/1 29/2/1
f 35/3/1 29/3/1 28/3/1
f 36/2/1 30/2/1 35/2/1
f 37/3/1 34/3/1 33/3/1
f 38/3/1 25/3/1 34/3/1
f 38/3/1 34/3/1 37/3/1
f 39/3/1 35/3/1 28/3/1
f 39/3/1 36/3/1 35/3/1
f 40/3/1 36/3/1 39/3/1
f 44/6/1 42/6/1 41/6/1
f 45/6/1 42/6/1 44/6/1
f 48/6/1 44/6/1 43/6/1
f 48/6/1 46/6/1 45/6/1
f 48/6/1 45/6/1 44/6/1
f 49/6/1 46/6/1 48/6/1
f 50/6/1 46/6/1 49/6/1
f 51/6/1 46/6/1 50/6/1
f 53/6/1 48/6/1 47/6/1
f 53/6/1 49/6/1 48/6/1
f 54/6/1 49/6/1 53/6/1
f 55/6/1 52/6/1 51/6/1
f 55/6/1 51/6/1 50/6/1
f 56/6/1 52/6/1 55/6/1
f 57/6/1 53/6/1 47/6/1
f 58/6/1 53/6/1 57/6/1
f 59/6/1 52/6/1 56/6/1
f 60/6/1 52/6/1 59/6/1
f 65/3/1 62/3/1 61/3/1
f 66/3/1 64/3/1 63/3/1
f 67/3/1 65/3/1 61/3/1
f 68/3/1 65/3/1 67/3/1
f 69/3/1 64/3/1 66/3/1
f 70/3/1 64/3/1 69/3/1
f 73/3/1 72/3/1 71/3/1
f 74/3/1 72/3/1 73/3/1
f 77/5/1 76/5/1 75/5/1
f 78/5/1 76/5/1 77/5/1
f 81/3/1 80/3/1 79/3/1
f 82/3/1 80/3/1 81/3/1
f 83/3/2 84/3/2 87/3/2
f 85/3/2 86/3/2 88/3/2
f 83/3/2 87/3/2 89/3/2
f 89/3/2 87/3/2 90/3/2
f 88/3/2 86/3/2 91/3/2
f 91/3/2 86/3/2 92/3/2
f 89/2/2 90/2/2 93/2/2
f 91/2/2 92/2/2 94/2/2
f 89/2/2 93/2/2 95/2/2
f 95/2/2 93/2/2 96/2/2
f 94/2/2 92/2/2 97/2/2
f 97/2/2 92/2/2 98/2/2
f 95/3/2 96/3/2 99/3/2
f 97/3/2 98/3/2 102/3/2
f 99/3/2 100/3/2 103/3/2
f 95/3/2 99/3/2 103/3/2
f 103/3/2 100/3/2 104/3/2
f 101/3/2 102/3/2 105/3/2
f 102/3/2 98/3/2 106/3/2
f 105/3/2 102/3/2 106/3/2
f 107/3/2 108/3/2 111/3/2
f 111/3/2 108/3/2 112/3/2
f 109/3/2 110/3/2 113/3/2
f 113/3/2 110/3/2 114/3/2
f 115/6/2 116/6/2 118/6/2
f 118/6/2 116/6/2 119/6/2
f 117/6/2 118/6/2 122/6/2
f 122/6/2 118/6/2 123/6/2
f 119/6/2 120/6/2 124/6/2
f 124/6/2 120/6/2 125/6/2
f 121/6/2 122/6/2 127/6/2
f 127/6/2 122/6/2 128/6/2
f 125/6/2 126/6/2 129/6/2
f 129/6/2 126/6/2 130/6/2
f 131/6/2 132/6/2 133/6/2
f 133/6/2 132/6/2 134/6/2
f 135/3/2 136/3/2 139/3/2
f 139/3/2 136/3/2 140/3/2
f 137/3/2 138/3/2 141/3/2
f 141/3/2 138/3/2 142/3/2
f 143/3/2 144/3/2 147/3/2
f 147/3/2 144/3/2 148/3/2
f 145/3/2 146/3/2 149/3/2
f 149/3/2 146/3/2 150/3/2
f 151/3/2 152/3/2 155/3/2
f 153/3/2 154/3/2 158/3/2
f 155/3/2 156/3/2 159/3/2
f 157/3/2 158/3/2 160/3/2
f 155/3/2 159/3/2 161/3/2
f 151/3/2 155/3/2 161/3/2
f 161/3/2 159/3/2 162/3/2
f 160/3/2 158/3/2 163/3/2
f 158/3/2 154/3/2 164/3/2
f 163/3/2 158/3/2 164/3/2
f 165/3/2 166/3/2 169/3/2
f 167/3/2 168/3/2 170/3/2
f 165/3/2 169/3/2 171/3/2
f 171/3/2 169/3/2 172/3/2
f 170/3/2 168/3/2 177/3/2
f 177/3/2 168/3/2 178/3/2
f 172/3/2 173/3/2 179/3/2
f 173/3/2 174/3/2 179/3/2
f 179/3/2 174/3/2 180/3/2
f 175/3/2 176/3/2 181/3/2
f 176/3/2 177/3/2 181/3/2
f 181/3/2 177/3/2 182/3/2
f 183/3/2 184/3/2 185/3/2
f 185/3/2 184/3/2 186/3/2
f 187/5/2 188/5/2 193/5/2
f 188/3/2 189/3/2 194/3/2
f 193/5/2 188/5/2 194/5/2
f 189/1/2 190/1/2 195/1/2
f 194/3/2 189/3/2 195/3/2
f 190/3/2 191/3/2 196/3/2
f 195/1/2 190/1/2 196/1/2
f 191/5/2 192/5/2 197/5/2
f 196/3/2 191/3/2 197/3/2
f 197/5/2 192/5/2 198/5/2
f 199/3/2 200/3/2 203/3/2
f 203/3/2 200/3/2 204/3/2
f 201/3/2 202/3/2 205/3/2
f 205/3/2 202/3/2 206/3/2
f 203/4/2 204/4/2 207/4/2
f 205/4/2 206/4/2 208/4/2
f 203/4/2 207/4/2 209/4/2
f 207/3/2 208/3/2 210/3/2
f 209/4/2 207/4/2 210/4/2
f 208/4/2 206/4/2 211/4/2
f 210/3/2 208/3/2 211/3/2
f 211/4/2 206/4/2 212/4/2
f 213/3/2 214/3/2 215/3/2
f 215/3/2 214/3/2 216/3/2
f 217/5/2 218/5/2 220/5/2
f 220/5/2 218/5/2 221/5/2
f 219/3/2 220/3/2 223/3/2
f 221/3/2 222/3/2 223/3/2
f 220/3/2 221/3/2 223/3/2
f 223/3/2 222/3/2 224/3/2
f 225/3/2 226/3/2 227/3/2
f 227/3/2 226/3/2 228/3/2
f 233/3/3 230/3/3 229/3/3
f 234/2/3 231/2/3 230/2/3
f 234/3/3 230/3/3 233/3/3
f 235/3/3 232/3/3 231/3/3
f 235/2/3 231/2/3 234/2/3
f 236/3/3 232/3/3 235/3/3
f 240/6/3 238/6/3 237/6/3
f 241/6/3 238/6/3 240/6/3
f 247/3/3 241/3/3 240/3/3
f 247/3/3 242/3/3 241/3/3
f 248/2/3 243/2/3 242/2/3
f 248/3/3 242/3/3 247/3/3
f 248/2/3 244/2/3 243/2/3
f 249/2/3 244/2/3 248/2/3
f 250/3/3 246/3/3 245/3/3
f 250/2/3 244/2/3 249/2/3
f 250/3/3 245/3/3 244/3/3
f 251/3/3 246/3/3 250/3/3
f 252/3/3 246/3/3 251/3/3
f 253/6/3 240/6/3 239/6/3
f 254/3/3 247/3/3 240/3/3
f 254/6/3 240/6/3 253/6/3
f 255/3/3 250/3/3 249/3/3
f 255/3/3 251/3/3 250/3/3
f 256/3/3 251/3/3 255/3/3
f 257/2/3 249/2/3 248/2/3
f 257/2/3 248/2/3 247/2/3
f 257/3/3 247/3/3 254/3/3
f 258/3/3 255/3/3 249/3/3
f 258/2/3 249/2/3 257/2/3
f 259/3/3 255/3/3 258/3/3
f 260/3/3 255/3/3 259/3/3
f 261/3/3 257/3/3 254/3/3
f 261/3/3 258/3/3 257/3/3
f 261/3/3 259/3/3 258/3/3
f 262/3/3 259/3/3 261/3/3
f 267/6/3 264/6/3 263/6/3
f 268/6/3 264/6/3 267/6/3
f 269/6/3 266/6/3 265/6/3
f 270/6/3 266/6/3 269/6/3
f 272/3/3 271/3/3 270/3/3
f 274/3/3 272/3/3 270/3/3
f 274/3/3 273/3/3 272/3/3
f 275/3/3 273/3/3 274/3/3
f 282/6/3 277/6/3 276/6/3
f 283/6/3 277/6/3 282/6/3
f 284/6/3 279/6/3 278/6/3
f 285/6/3 279/6/3 284/6/3
f 286/6/3 281/6/3 280/6/3
f 287/6/3 281/6/3 286/6/3
f 291/3/3 288/3/3 287/3/3
f 293/3/3 290/3/3 289/3/3
f 294/3/3 290/3/3 293/3/3
f 295/3/3 292/3/3 291/3/3
f 295/3/3 291/3/3 287/3/3
f 296/3/3 292/3/3 295/3/3
f 297/5/3 293/5/3 292/5/3
f 297/3/3 292/3/3 296/3/3
f 298/5/3 293/5/3 297/5/3
f 299/5/3 293/5/3 298/5/3
f 300/3/3 297/3/3 296/3/3
f 301/4/3 298/4/3 297/4/3
f 301/3/3 297/3/3 300/3/3
f 302/4/3 298/4/3 301/4/3
f 306/3/3 304/3/3 303/3/3
f 306/3/3 305/3/3 304/3/3
f 307/3/3 305/3/3 306/3/3
f 310/3/3 309/3/3 308/3/3
f 311/3/3 309/3/3 310/3/3
f 315/3/3 311/3/3 310/3/3
f 315/3/3 312/3/3 311/3/3
f 316/3/3 312/3/3 315/3/3
f 317/3/3 312/3/3 316/3/3
f 319/5/3 314/5/3 313/5/3
f 320/5/3 314/5/3 319/5/3
f 321/3/3 318/3/3 317/3/3
f 321/3/3 317/3/3 316/3/3
f 322/3/3 318/3/3 321/3/3
f 325/3/3 324/3/3 323/3/3
f 326/3/3 324/3/3 325/3/3
f 328/3/3 325/3/3 323/3/3
f 329/3/3 325/3/3 328/3/3
f 330/3/3 325/3/3 329/3/3
f 331/3/3 328/3/3 327/3/3
f 331/3/3 329/3/3 328/3/3
f 332/3/3 329/3/3 331/3/3
f 333/3/3 331/3/3 327/3/3
f 334/3/3 331/3/3 333/3/3
f 337/3/3 336/3/3 335/3/3
f 338/3/3 336/3/3 337/3/3
f 339/3/3 336/3/3 338/3/3
f 340/3/4 341/3/4 342/3/4
f 342/3/4 341/3/4 343/3/4
f 343/3/4 341/3/4 344/3/4
f 345/3/4 346/3/4 347/3/4
f 347/3/4 346/3/4 348/3/4
f 345/3/4 347/3/4 350/3/4
f 350/3/4 347/3/4 351/3/4
f 351/3/4 347/3/4 352/3/4
f 349/3/4 350/3/4 353/3/4
f 350/3/4 351/3/4 353/3/4
f 353/3/4 351/3/4 354/3/4
f 349/3/4 353/3/4 355/3/4
f 355/3/4 353/3/4 356/3/4
f 357/3/4 358/3/4 359/3/4
f 359/3/4 358/3/4 360/3/4
f 359/3/4 360/3/4 364/3/4
f 360/3/4 361/3/4 364/3/4
f 364/3/4 361/3/4 365/3/4
f 365/3/4 361/3/4 366/3/4
f 362/5/4 363/5/4 368/5/4
f 368/5/4 363/5/4 369/5/4
f 366/3/4 367/3/4 370/3/4
f 365/3/4 366/3/4 370/3/4
f 370/3/4 367/3/4 371/3/4
f 372/3/4 373/3/4 375/3/4
f 373/3/4 374/3/4 375/3/4
f 375/3/4 374/3/4 376/3/4
f 377/6/4 378/6/4 383/6/4
f 383/6/4 378/6/4 384/6/4
f 379/6/4 380/6/4 385/6/4
f 385/6/4 380/6/4 386/6/4
f 381/6/4 382/6/4 387/6/4
f 387/6/4 382/6/4 388/6/4
f 388/3/4 389/3/4 392/3/4
f 390/3/4 391/3/4 394/3/4
f 394/3/4 391/3/4 395/3/4
f 392/3/4 393/3/4 396/3/4
f 388/3/4 392/3/4 396/3/4
f 396/3/4 393/3/4 397/3/4
f 393/5/4 394/5/4 398/5/4
f 397/3/4 393/3/4 398/3/4
f 398/5/4 394/5/4 399/5/4
f 399/5/4 394/5/4 400/5/4
f 397/3/4 398/3/4 401/3/4
f 398/4/4 399/4/4 402/4/4
f 401/3/4 398/3/4 402/3/4
f 402/4/4 399/4/4 403/4/4
f 404/6/4 405/6/4 408/6/4
f 408/6/4 405/6/4 409/6/4
f 406/6/4 407/6/4 410/6/4
f 410/6/4 407/6/4 411/6/4
f 411/3/4 412/3/4 413/3/4
f 411/3/4 413/3/4 415/3/4
f 413/3/4 414/3/4 415/3/4
f 415/3/4 414/3/4 416/3/4
f 417/6/4 418/6/4 420/6/4
f 420/6/4 418/6/4 421/6/4
f 420/3/4 421/3/4 427/3/4
f 421/3/4 422/3/4 427/3/4
f 422/2/4 423/2/4 428/2/4
f 427/3/4 422/3/4 428/3/4
f 423/2/4 424/2/4 428/2/4
f 428/2/4 424/2/4 429/2/4
f 425/3/4 426/3/4 430/3/4
f 429/2/4 424/2/4 430/2/4
f 424/3/4 425/3/4 430/3/4
f 430/3/4 426/3/4 431/3/4
f 431/3/4 426/3/4 432/3/4
f 419/6/4 420/6/4 433/6/4
f 420/3/4 427/3/4 434/3/4
f 433/6/4 420/6/4 434/6/4
f 429/3/4 430/3/4 435/3/4
f 430/3/4 431/3/4 435/3/4
f 435/3/4 431/3/4 436/3/4
f 428/2/4 429/2/4 437/2/4
f 427/2/4 428/2/4 437/2/4
f 434/3/4 427/3/4 437/3/4
f 429/3/4 435/3/4 438/3/4
f 437/2/4 429/2/4 438/2/4
f 438/3/4 435/3/4 439/3/4
f 439/3/4 435/3/4 440/3/4
f 434/3/4 437/3/4 441/3/4
f 437/3/4 438/3/4 441/3/4
f 438/3/4 439/3/4 441/3/4
f 441/3/4 439/3/4 442/3/4
f 443/3/4 444/3/4 447/3/4
f 444/2/4 445/2/4 448/2/4
f 447/3/4 444/3/4 448/3/4
f 445/3/4 446/3/4 449/3/4
f 448/2/4 445/2/4 449/2/4
f 449/3/4 446/3/4 450/3/4
f 453/6/5 452/6/5 451/6/5
f 454/6/5 452/6/5 453/6/5
f 457/6/5 456/6/5 455/6/5
f 458/6/5 456/6/5 457/6/5
f 462/5/5 461/5/5 460/5/5
f 463/5/5 461/5/5 462/5/5
f 465/3/5 459/3/5 458/3/5
f 466/3/5 459/3/5 465/3/5
f 467/6/5 465/6/5 464/6/5
f 468/6/5 465/6/5 467/6/5
f 471/6/5 470/6/5 469/6/5
f 472/6/5 470/6/5 471/6/5
f 476/3/5 473/3/5 472/3/5
f 477/3/5 473/3/5 476/3/5
f 480/3/5 479/3/5 478/3/5
f 482/3/5 480/3/5 478/3/5
f 482/3/5 481/3/5 480/3/5
f 483/3/5 481/3/5 482/3/5
f 484/3/5 482/3/5 478/3/5
f 486/3/5 484/3/5 478/3/5
f 486/3/5 485/3/5 484/3/5
f 487/3/5 485/3/5 486/3/5
f 488/6/5 475/6/5 474/6/5
f 489/6/5 475/6/5 488/6/5
f 492/3/5 486/3/5 478/3/5
f 493/3/5 486/3/5 492/3/5
f 495/3/5 491/3/5 490/3/5
f 496/3/5 491/3/5 495/3/5
f 497/6/5 495/6/5 494/6/5
f 498/6/5 495/6/5 497/6/5
f 501/6/5 500/6/5 499/6/5
f 502/6/5 500/6/5 501/6/5
f 505/6/5 504/6/5 503/6/5
f 506/6/5 504/6/5 505/6/5
f 511/6/5 508/6/5 507/6/5
f 512/6/5 508/6/5 511/6/5
f 513/3/5 510/3/5 509/3/5
f 514/3/5 510/3/5 513/3/5
f 519/6/5 516/6/5 515/6/5
f 520/6/5 516/6/5 519/6/5
f 521/3/5 518/3/5 517/3/5
f 522/3/5 518/3/5 521/3/5
f 525/3/5 524/3/5 523/3/5
f 526/3/5 524/3/5 525/3/5
f 529/3/5 528/3/5 527/3/5
f 530/3/5 528/3/5 529/3/5
f 533/3/5 532/3/5 531/3/5
f 534/3/5 532/3/5 533/3/5
f 537/3/5 536/3/5 535/3/5
f 538/3/5 536/3/5 537/3/5
f 539/3/6 540/3/6 541/3/6
f 541/3/6 540/3/6 542/3/6
f 543/4/6 544/4/6 545/4/6
f 545/4/6 544/4/6 546/4/6
f 545/3/6 546/3/6 547/3/6
f 547/3/6 546/3/6 548/3/6
f 548/3/6 546/3/6 549/3/6
f 549/3/6 546/3/6 550/3/6
f 549/4/6 550/4/6 551/4/6
f 551/4/6 550/4/6 552/4/6
f 553/3/6 554/3/6 555/3/6
f 555/3/6 554/3/6 556/3/6
f 556/5/6 557/5/6 558/5/6
f 558/5/6 557/5/6 559/5/6
f 558/3/6 559/3/6 560/3/6
f 560/3/6 559/3/6 561/3/6
f 562/3/6 563/3/6 564/3/6
f 564/3/6 563/3/6 565/3/6
f 564/5/6 565/5/6 567/5/6
f 567/5/6 565/5/6 568/5/6
f 566/3/6 567/3/6 569/3/6
f 569/3/6 567/3/6 570/3/6
f 571/6/6 572/6/6 573/6/6
f 573/6/6 572/6/6 574/6/6
f 576/3/6 577/3/6 578/3/6
f 575/3/6 576/3/6 578/3/6
f 575/3/6 578/3/6 580/3/6
f 578/3/6 579/3/6 580/3/6
f 580/3/6 579/3/6 581/3/6
f 575/3/6 580/3/6 584/3/6
f 584/3/6 580/3/6 585/3/6
f 585/3/6 580/3/6 586/3/6
f 582/6/6 583/6/6 587/6/6
f 587/6/6 583/6/6 588/6/6
f 589/3/6 590/3/6 594/3/6
f 594/3/6 590/3/6 595/3/6
f 596/3/6 597/3/6 598/3/6
f 598/3/6 597/3/6 599/3/6
f 592/6/6 593/6/6 600/6/6
f 591/6/6 592/6/6 600/6/6
f 600/6/6 593/6/6 601/6/6
f 601/6/6 593/6/6 602/6/6
f 603/3/6 604/3/6 605/3/6
f 605/3/6 604/3/6 606/3/6
f 607/3/6 608/3/6 609/3/6
f 609/3/6 608/3/6 610/3/6
f 611/3/6 612/3/6 613/3/6
f 613/3/6 612/3/6 614/3/6
f 615/3/6 616/3/6 617/3/6
f 617/3/6 616/3/6 618/3/6
f 619/3/6 620/3/6 621/3/6
f 621/3/6 620/3/6 622/3/6
f 623/3/6 624/3/6 625/3/6
f 625/3/6 624/3/6 626/3/6
f 627/3/6 628/3/6 629/3/6
f 629/3/6 628/3/6 630/3/6
f 630/3/6 628/3/6 631/3/6
f 632/3/6 633/3/6 634/3/6
f 634/3/6 633/3/6 635/3/6
f 635/3/6 633/3/6 636/3/6
f 637/3/6 638/3/6 639/3/6
f 639/3/6 638/3/6 640/3/6
f 641/3/6 642/3/6 643/3/6
f 643/3/6 642/3/6 644/3/6
