# MagicaVoxel @ Ephtracy

# group
o flat-icon

# material
mtllib pikachu-icon-0-flat-icon.mtl
usemtl palette

# normals
vn -1 0 0
vn 1 0 0
vn 0 0 1
vn 0 0 -1
vn 0 -1 0
vn 0 1 0

# texcoords
vt 0.865234 0.5
vt 0.884766 0.5
vt 0.888672 0.5
vt 0.962891 0.5
vt 0.994141 0.5

# verts
v -2.4 2.9 0.4
v -2.4 2.9 -0.0999999
v -2.4 3 0.5
v -2.4 3 0.4
v -2.4 3 0.2
v -2.4 3 0.1
v -2.4 3 -0.0999999
v -2.4 3 -0.2
v -2.4 3.1 0.6
v -2.4 3.1 0.5
v -2.4 3.1 0.3
v -2.4 3.1 0.2
v -2.4 3.1 0.1
v -2.4 3.1 5.96046e-08
v -2.4 3.1 -0.2
v -2.4 3.1 -0.3
v -2.4 3.2 0.6
v -2.4 3.2 0.4
v -2.4 3.2 0.3
v -2.4 3.2 5.96046e-08
v -2.4 3.2 -0.0999999
v -2.4 3.2 -0.3
v -2.4 3.3 0.4
v -2.4 3.3 0.2
v -2.4 3.3 0.1
v -2.4 3.3 -0.0999999
v -2.4 3.4 0.4
v -2.4 3.4 0.3
v -2.4 3.4 0.1
v -2.4 3.4 5.96046e-08
v -2.4 3.5 0.6
v -2.4 3.5 0.5
v -2.4 3.5 0.4
v -2.4 3.5 0.3
v -2.4 3.5 0.2
v -2.4 3.5 0.1
v -2.4 3.5 5.96046e-08
v -2.4 3.5 -0.0999999
v -2.4 3.5 -0.2
v -2.4 3.5 -0.3
v -2.4 3.6 0.6
v -2.4 3.6 0.5
v -2.4 3.6 -0.2
v -2.4 3.6 -0.3
v -2.4 3.7 0.7
v -2.4 3.7 0.6
v -2.4 3.7 0.4
v -2.4 3.7 -0.0999999
v -2.4 3.7 -0.3
v -2.4 3.7 -0.4
v -2.4 3.8 0.8
v -2.4 3.8 0.7
v -2.4 3.8 0.6
v -2.4 3.8 0.5
v -2.4 3.8 0.4
v -2.4 3.8 -0.0999999
v -2.4 3.8 -0.2
v -2.4 3.8 -0.3
v -2.4 3.8 -0.4
v -2.4 3.8 -0.5
v -2.4 3.9 0.6
v -2.4 3.9 0.5
v -2.4 3.9 -0.2
v -2.4 3.9 -0.3
v -2.4 4 0.8
v -2.4 4 0.6
v -2.4 4 -0.3
v -2.4 4 -0.5
v -2.3 2.9 0.4
v -2.3 2.9 -0.0999999
v -2.3 3 0.5
v -2.3 3 0.4
v -2.3 3 0.2
v -2.3 3 0.1
v -2.3 3 -0.0999999
v -2.3 3 -0.2
v -2.3 3.1 0.6
v -2.3 3.1 0.5
v -2.3 3.1 0.3
v -2.3 3.1 0.2
v -2.3 3.1 0.1
v -2.3 3.1 5.96046e-08
v -2.3 3.1 -0.2
v -2.3 3.1 -0.3
v -2.3 3.2 0.6
v -2.3 3.2 0.4
v -2.3 3.2 0.3
v -2.3 3.2 5.96046e-08
v -2.3 3.2 -0.0999999
v -2.3 3.2 -0.3
v -2.3 3.3 0.4
v -2.3 3.3 0.2
v -2.3 3.3 0.1
v -2.3 3.3 -0.0999999
v -2.3 3.4 0.4
v -2.3 3.4 0.3
v -2.3 3.4 0.1
v -2.3 3.4 5.96046e-08
v -2.3 3.5 0.6
v -2.3 3.5 0.5
v -2.3 3.5 0.4
v -2.3 3.5 0.3
v -2.3 3.5 0.2
v -2.3 3.5 0.1
v -2.3 3.5 5.96046e-08
v -2.3 3.5 -0.0999999
v -2.3 3.5 -0.2
v -2.3 3.5 -0.3
v -2.3 3.6 0.6
v -2.3 3.6 0.5
v -2.3 3.6 -0.2
v -2.3 3.6 -0.3
v -2.3 3.7 0.7
v -2.3 3.7 0.6
v -2.3 3.7 0.4
v -2.3 3.7 -0.0999999
v -2.3 3.7 -0.3
v -2.3 3.7 -0.4
v -2.3 3.8 0.8
v -2.3 3.8 0.7
v -2.3 3.8 0.6
v -2.3 3.8 0.5
v -2.3 3.8 0.4
v -2.3 3.8 -0.0999999
v -2.3 3.8 -0.2
v -2.3 3.8 -0.3
v -2.3 3.8 -0.4
v -2.3 3.8 -0.5
v -2.3 3.9 0.6
v -2.3 3.9 0.5
v -2.3 3.9 -0.2
v -2.3 3.9 -0.3
v -2.3 4 0.8
v -2.3 4 0.6
v -2.3 4 -0.3
v -2.3 4 -0.5
v -2.4 3.8 0.8
v -2.4 4 0.8
v -2.3 3.8 0.8
v -2.3 4 0.8
v -2.4 3.7 0.7
v -2.4 3.8 0.7
v -2.3 3.7 0.7
v -2.3 3.8 0.7
v -2.4 3.1 0.6
v -2.4 3.2 0.6
v -2.4 3.5 0.6
v -2.4 3.6 0.6
v -2.4 3.7 0.6
v -2.3 3.1 0.6
v -2.3 3.2 0.6
v -2.3 3.5 0.6
v -2.3 3.6 0.6
v -2.3 3.7 0.6
v -2.4 3 0.5
v -2.4 3.1 0.5
v -2.4 3.5 0.5
v -2.4 3.6 0.5
v -2.3 3 0.5
v -2.3 3.1 0.5
v -2.3 3.5 0.5
v -2.3 3.6 0.5
v -2.4 2.9 0.4
v -2.4 3 0.4
v -2.3 2.9 0.4
v -2.3 3 0.4
v -2.4 3.7 -0.0999999
v -2.4 3.8 -0.0999999
v -2.3 3.7 -0.0999999
v -2.3 3.8 -0.0999999
v -2.4 3.8 -0.2
v -2.4 3.9 -0.2
v -2.3 3.8 -0.2
v -2.3 3.9 -0.2
v -2.4 3.9 -0.3
v -2.4 4 -0.3
v -2.3 3.9 -0.3
v -2.3 4 -0.3
v -2.4 3.9 0.6
v -2.4 4 0.6
v -2.3 3.9 0.6
v -2.3 4 0.6
v -2.4 3.8 0.5
v -2.4 3.9 0.5
v -2.3 3.8 0.5
v -2.3 3.9 0.5
v -2.4 3.7 0.4
v -2.4 3.8 0.4
v -2.3 3.7 0.4
v -2.3 3.8 0.4
v -2.4 2.9 -0.0999999
v -2.4 3 -0.0999999
v -2.3 2.9 -0.0999999
v -2.3 3 -0.0999999
v -2.4 3 -0.2
v -2.4 3.1 -0.2
v -2.4 3.5 -0.2
v -2.4 3.6 -0.2
v -2.3 3 -0.2
v -2.3 3.1 -0.2
v -2.3 3.5 -0.2
v -2.3 3.6 -0.2
v -2.4 3.1 -0.3
v -2.4 3.2 -0.3
v -2.4 3.5 -0.3
v -2.4 3.6 -0.3
v -2.4 3.7 -0.3
v -2.3 3.1 -0.3
v -2.3 3.2 -0.3
v -2.3 3.5 -0.3
v -2.3 3.6 -0.3
v -2.3 3.7 -0.3
v -2.4 3.7 -0.4
v -2.4 3.8 -0.4
v -2.3 3.7 -0.4
v -2.3 3.8 -0.4
v -2.4 3.8 -0.5
v -2.4 4 -0.5
v -2.3 3.8 -0.5
v -2.3 4 -0.5
v -2.4 2.9 0.4
v -2.3 2.9 0.4
v -2.4 2.9 -0.0999999
v -2.3 2.9 -0.0999999
v -2.4 3 0.5
v -2.3 3 0.5
v -2.4 3 0.4
v -2.3 3 0.4
v -2.4 3 -0.0999999
v -2.3 3 -0.0999999
v -2.4 3 -0.2
v -2.3 3 -0.2
v -2.4 3.1 0.6
v -2.3 3.1 0.6
v -2.4 3.1 0.5
v -2.3 3.1 0.5
v -2.4 3.1 -0.2
v -2.3 3.1 -0.2
v -2.4 3.1 -0.3
v -2.3 3.1 -0.3
v -2.4 3.6 0.6
v -2.3 3.6 0.6
v -2.4 3.6 0.5
v -2.3 3.6 0.5
v -2.4 3.6 -0.2
v -2.3 3.6 -0.2
v -2.4 3.6 -0.3
v -2.3 3.6 -0.3
v -2.4 3.7 0.7
v -2.3 3.7 0.7
v -2.4 3.7 0.6
v -2.3 3.7 0.6
v -2.4 3.7 -0.3
v -2.3 3.7 -0.3
v -2.4 3.7 -0.4
v -2.3 3.7 -0.4
v -2.4 3.8 0.8
v -2.3 3.8 0.8
v -2.4 3.8 0.7
v -2.3 3.8 0.7
v -2.4 3.8 -0.4
v -2.3 3.8 -0.4
v -2.4 3.8 -0.5
v -2.3 3.8 -0.5
v -2.4 3.5 0.6
v -2.3 3.5 0.6
v -2.4 3.5 0.5
v -2.3 3.5 0.5
v -2.4 3.5 -0.2
v -2.3 3.5 -0.2
v -2.4 3.5 -0.3
v -2.3 3.5 -0.3
v -2.4 3.7 0.4
v -2.3 3.7 0.4
v -2.4 3.7 -0.0999999
v -2.3 3.7 -0.0999999
v -2.4 3.8 0.5
v -2.3 3.8 0.5
v -2.4 3.8 0.4
v -2.3 3.8 0.4
v -2.4 3.8 -0.0999999
v -2.3 3.8 -0.0999999
v -2.4 3.8 -0.2
v -2.3 3.8 -0.2
v -2.4 3.9 0.6
v -2.3 3.9 0.6
v -2.4 3.9 0.5
v -2.3 3.9 0.5
v -2.4 3.9 -0.2
v -2.3 3.9 -0.2
v -2.4 3.9 -0.3
v -2.3 3.9 -0.3
v -2.4 4 0.8
v -2.3 4 0.8
v -2.4 4 0.6
v -2.3 4 0.6
v -2.4 4 -0.3
v -2.3 4 -0.3
v -2.4 4 -0.5
v -2.3 4 -0.5

# faces
f 4/2/1 2/2/1 1/2/1
f 5/2/1 2/2/1 4/2/1
f 6/2/1 2/2/1 5/2/1
f 7/2/1 2/2/1 6/2/1
f 10/3/1 4/3/1 3/3/1
f 11/2/1 5/2/1 4/2/1
f 12/3/1 6/3/1 5/3/1
f 12/2/1 5/2/1 11/2/1
f 13/2/1 7/2/1 6/2/1
f 13/3/1 6/3/1 12/3/1
f 14/2/1 7/2/1 13/2/1
f 15/3/1 8/3/1 7/3/1
f 17/3/1 10/3/1 9/3/1
f 18/2/1 11/2/1 4/2/1
f 18/3/1 10/3/1 17/3/1
f 18/3/1 4/3/1 10/3/1
f 19/1/1 12/1/1 11/1/1
f 19/2/1 11/2/1 18/2/1
f 19/1/1 13/1/1 12/1/1
f 19/1/1 14/1/1 13/1/1
f 20/2/1 7/2/1 14/2/1
f 20/1/1 14/1/1 19/1/1
f 21/3/1 16/3/1 15/3/1
f 21/2/1 7/2/1 20/2/1
f 21/3/1 15/3/1 7/3/1
f 22/3/1 16/3/1 21/3/1
f 23/2/1 19/2/1 18/2/1
f 23/2/1 20/2/1 19/2/1
f 23/2/1 22/2/1 21/2/1
f 23/2/1 21/2/1 20/2/1
f 23/2/1 18/2/1 17/2/1
f 24/2/1 22/2/1 23/2/1
f 25/2/1 22/2/1 24/2/1
f 26/2/1 22/2/1 25/2/1
f 27/2/1 23/2/1 17/2/1
f 27/5/1 24/5/1 23/5/1
f 28/5/1 24/5/1 27/5/1
f 29/5/1 26/5/1 25/5/1
f 29/2/1 25/2/1 24/2/1
f 30/5/1 26/5/1 29/5/1
f 31/2/1 27/2/1 17/2/1
f 32/2/1 27/2/1 31/2/1
f 33/4/1 28/4/1 27/4/1
f 33/2/1 27/2/1 32/2/1
f 34/5/1 24/5/1 28/5/1
f 34/4/1 28/4/1 33/4/1
f 35/2/1 29/2/1 24/2/1
f 35/5/1 24/5/1 34/5/1
f 36/4/1 30/4/1 29/4/1
f 36/2/1 29/2/1 35/2/1
f 37/5/1 26/5/1 30/5/1
f 37/4/1 30/4/1 36/4/1
f 38/2/1 22/2/1 26/2/1
f 38/5/1 26/5/1 37/5/1
f 39/2/1 22/2/1 38/2/1
f 40/2/1 22/2/1 39/2/1
f 42/2/1 37/2/1 36/2/1
f 42/2/1 39/2/1 38/2/1
f 42/2/1 38/2/1 37/2/1
f 42/2/1 33/2/1 32/2/1
f 42/2/1 35/2/1 34/2/1
f 42/2/1 34/2/1 33/2/1
f 42/2/1 36/2/1 35/2/1
f 43/2/1 39/2/1 42/2/1
f 46/2/1 42/2/1 41/2/1
f 46/2/1 44/2/1 43/2/1
f 46/2/1 43/2/1 42/2/1
f 47/2/1 44/2/1 46/2/1
f 48/2/1 44/2/1 47/2/1
f 49/2/1 44/2/1 48/2/1
f 52/2/1 46/2/1 45/2/1
f 52/2/1 47/2/1 46/2/1
f 53/2/1 47/2/1 52/2/1
f 54/2/1 47/2/1 53/2/1
f 55/2/1 47/2/1 54/2/1
f 56/2/1 49/2/1 48/2/1
f 56/2/1 50/2/1 49/2/1
f 57/2/1 50/2/1 56/2/1
f 58/2/1 50/2/1 57/2/1
f 59/2/1 50/2/1 58/2/1
f 61/2/1 54/2/1 53/2/1
f 61/5/1 52/5/1 51/5/1
f 61/5/1 53/5/1 52/5/1
f 62/2/1 54/2/1 61/2/1
f 63/2/1 58/2/1 57/2/1
f 64/5/1 60/5/1 59/5/1
f 64/2/1 58/2/1 63/2/1
f 64/5/1 59/5/1 58/5/1
f 65/5/1 61/5/1 51/5/1
f 66/5/1 61/5/1 65/5/1
f 67/5/1 60/5/1 64/5/1
f 68/5/1 60/5/1 67/5/1
f 69/2/2 70/2/2 72/2/2
f 72/2/2 70/2/2 73/2/2
f 73/2/2 70/2/2 74/2/2
f 74/2/2 70/2/2 75/2/2
f 71/3/2 72/3/2 78/3/2
f 72/2/2 73/2/2 79/2/2
f 73/3/2 74/3/2 80/3/2
f 79/2/2 73/2/2 80/2/2
f 74/2/2 75/2/2 81/2/2
f 80/3/2 74/3/2 81/3/2
f 81/2/2 75/2/2 82/2/2
f 75/3/2 76/3/2 83/3/2
f 77/3/2 78/3/2 85/3/2
f 72/2/2 79/2/2 86/2/2
f 85/3/2 78/3/2 86/3/2
f 78/3/2 72/3/2 86/3/2
f 79/1/2 80/1/2 87/1/2
f 86/2/2 79/2/2 87/2/2
f 80/1/2 81/1/2 87/1/2
f 81/1/2 82/1/2 87/1/2
f 82/2/2 75/2/2 88/2/2
f 87/1/2 82/1/2 88/1/2
f 83/3/2 84/3/2 89/3/2
f 88/2/2 75/2/2 89/2/2
f 75/3/2 83/3/2 89/3/2
f 89/3/2 84/3/2 90/3/2
f 86/2/2 87/2/2 91/2/2
f 87/2/2 88/2/2 91/2/2
f 89/2/2 90/2/2 91/2/2
f 88/2/2 89/2/2 91/2/2
f 85/2/2 86/2/2 91/2/2
f 91/2/2 90/2/2 92/2/2
f 92/2/2 90/2/2 93/2/2
f 93/2/2 90/2/2 94/2/2
f 85/2/2 91/2/2 95/2/2
f 91/5/2 92/5/2 95/5/2
f 95/5/2 92/5/2 96/5/2
f 93/5/2 94/5/2 97/5/2
f 92/2/2 93/2/2 97/2/2
f 97/5/2 94/5/2 98/5/2
f 85/2/2 95/2/2 99/2/2
f 99/2/2 95/2/2 100/2/2
f 95/4/2 96/4/2 101/4/2
f 100/2/2 95/2/2 101/2/2
f 96/5/2 92/5/2 102/5/2
f 101/4/2 96/4/2 102/4/2
f 92/2/2 97/2/2 103/2/2
f 102/5/2 92/5/2 103/5/2
f 97/4/2 98/4/2 104/4/2
f 103/2/2 97/2/2 104/2/2
f 98/5/2 94/5/2 105/5/2
f 104/4/2 98/4/2 105/4/2
f 94/2/2 90/2/2 106/2/2
f 105/5/2 94/5/2 106/5/2
f 106/2/2 90/2/2 107/2/2
f 107/2/2 90/2/2 108/2/2
f 104/2/2 105/2/2 110/2/2
f 106/2/2 107/2/2 110/2/2
f 105/2/2 106/2/2 110/2/2
f 100/2/2 101/2/2 110/2/2
f 102/2/2 103/2/2 110/2/2
f 101/2/2 102/2/2 110/2/2
f 103/2/2 104/2/2 110/2/2
f 110/2/2 107/2/2 111/2/2
f 109/2/2 110/2/2 114/2/2
f 111/2/2 112/2/2 114/2/2
f 110/2/2 111/2/2 114/2/2
f 114/2/2 112/2/2 115/2/2
f 115/2/2 112/2/2 116/2/2
f 116/2/2 112/2/2 117/2/2
f 113/2/2 114/2/2 120/2/2
f 114/2/2 115/2/2 120/2/2
f 120/2/2 115/2/2 121/2/2
f 121/2/2 115/2/2 122/2/2
f 122/2/2 115/2/2 123/2/2
f 116/2/2 117/2/2 124/2/2
f 117/2/2 118/2/2 124/2/2
f 124/2/2 118/2/2 125/2/2
f 125/2/2 118/2/2 126/2/2
f 126/2/2 118/2/2 127/2/2
f 121/2/2 122/2/2 129/2/2
f 119/5/2 120/5/2 129/5/2
f 120/5/2 121/5/2 129/5/2
f 129/2/2 122/2/2 130/2/2
f 125/2/2 126/2/2 131/2/2
f 127/5/2 128/5/2 132/5/2
f 131/2/2 126/2/2 132/2/2
f 126/5/2 127/5/2 132/5/2
f 119/5/2 129/5/2 133/5/2
f 133/5/2 129/5/2 134/5/2
f 132/5/2 128/5/2 135/5/2
f 135/5/2 128/5/2 136/5/2
f 139/5/3 138/5/3 137/5/3
f 140/5/3 138/5/3 139/5/3
f 143/2/3 142/2/3 141/2/3
f 144/2/3 142/2/3 143/2/3
f 150/3/3 146/3/3 145/3/3
f 151/2/3 147/2/3 146/2/3
f 151/3/3 146/3/3 150/3/3
f 152/2/3 147/2/3 151/2/3
f 153/2/3 149/2/3 148/2/3
f 154/2/3 149/2/3 153/2/3
f 159/3/3 156/3/3 155/3/3
f 160/3/3 156/3/3 159/3/3
f 161/2/3 158/2/3 157/2/3
f 162/2/3 158/2/3 161/2/3
f 165/2/3 164/2/3 163/2/3
f 166/2/3 164/2/3 165/2/3
f 169/2/3 168/2/3 167/2/3
f 170/2/3 168/2/3 169/2/3
f 173/2/3 172/2/3 171/2/3
f 174/2/3 172/2/3 173/2/3
f 177/5/3 176/5/3 175/5/3
f 178/5/3 176/5/3 177/5/3
f 179/5/4 180/5/4 181/5/4
f 181/5/4 180/5/4 182/5/4
f 183/2/4 184/2/4 185/2/4
f 185/2/4 184/2/4 186/2/4
f 187/2/4 188/2/4 189/2/4
f 189/2/4 188/2/4 190/2/4
f 191/2/4 192/2/4 193/2/4
f 193/2/4 192/2/4 194/2/4
f 195/3/4 196/3/4 199/3/4
f 199/3/4 196/3/4 200/3/4
f 197/2/4 198/2/4 201/2/4
f 201/2/4 198/2/4 202/2/4
f 203/3/4 204/3/4 208/3/4
f 204/2/4 205/2/4 209/2/4
f 208/3/4 204/3/4 209/3/4
f 209/2/4 205/2/4 210/2/4
f 206/2/4 207/2/4 211/2/4
f 211/2/4 207/2/4 212/2/4
f 213/2/4 214/2/4 215/2/4
f 215/2/4 214/2/4 216/2/4
f 217/5/4 218/5/4 219/5/4
f 219/5/4 218/5/4 220/5/4
f 223/2/5 222/2/5 221/2/5
f 224/2/5 222/2/5 223/2/5
f 227/3/5 226/3/5 225/3/5
f 228/3/5 226/3/5 227/3/5
f 231/3/5 230/3/5 229/3/5
f 232/3/5 230/3/5 231/3/5
f 235/3/5 234/3/5 233/3/5
f 236/3/5 234/3/5 235/3/5
f 239/3/5 238/3/5 237/3/5
f 240/3/5 238/3/5 239/3/5
f 243/2/5 242/2/5 241/2/5
f 244/2/5 242/2/5 243/2/5
f 247/2/5 246/2/5 245/2/5
f 248/2/5 246/2/5 247/2/5
f 251/2/5 250/2/5 249/2/5
f 252/2/5 250/2/5 251/2/5
f 255/2/5 254/2/5 253/2/5
f 256/2/5 254/2/5 255/2/5
f 259/5/5 258/5/5 257/5/5
f 260/5/5 258/5/5 259/5/5
f 263/5/5 262/5/5 261/5/5
f 264/5/5 262/5/5 263/5/5
f 265/2/6 266/2/6 267/2/6
f 267/2/6 266/2/6 268/2/6
f 269/2/6 270/2/6 271/2/6
f 271/2/6 270/2/6 272/2/6
f 273/2/6 274/2/6 275/2/6
f 275/2/6 274/2/6 276/2/6
f 277/2/6 278/2/6 279/2/6
f 279/2/6 278/2/6 280/2/6
f 281/2/6 282/2/6 283/2/6
f 283/2/6 282/2/6 284/2/6
f 285/2/6 286/2/6 287/2/6
f 287/2/6 286/2/6 288/2/6
f 289/2/6 290/2/6 291/2/6
f 291/2/6 290/2/6 292/2/6
f 293/5/6 294/5/6 295/5/6
f 295/5/6 294/5/6 296/5/6
f 297/5/6 298/5/6 299/5/6
f 299/5/6 298/5/6 300/5/6
