# MagicaVoxel @ Ephtracy

# group
o 

# material
mtllib ratatta-7.mtl
usemtl palette

# normals
vn -1 0 0
vn 1 0 0
vn 0 0 1
vn 0 0 -1
vn 0 -1 0
vn 0 1 0

# texcoords
vt 0.876953 0.5
vt 0.880859 0.5

# verts
v 0.8 2 0.4
v 0.8 2 0.3
v 0.8 2.4 0.4
v 0.8 2.4 0.3
v 0.9 1.9 0.3
v 0.9 1.9 0.2
v 0.9 2 0.3
v 0.9 2.1 0.3
v 0.9 2.1 0.2
v 0.9 2.3 0.3
v 0.9 2.3 0.2
v 0.9 2.4 0.3
v 0.9 2.5 0.3
v 0.9 2.5 0.2
v 1 1.9 0.2
v 1 1.9 0.1
v 1 2 0.2
v 1 2 0.1
v 1 2.1 0.2
v 1 2.3 0.2
v 1 2.4 0.2
v 1 2.4 0.1
v 1 2.5 0.2
v 1 2.6 0.2
v 1 2.6 0.1
v 1.1 1.9 0.1
v 1.1 1.9 0
v 1.1 2 0.1
v 1.1 2 0
v 1.1 2.4 0.1
v 1.1 2.5 0.1
v 1.1 2.5 0
v 1.1 2.6 0.1
v 1.1 2.6 0
v 1.2 1.9 0
v 1.2 1.9 -0.1
v 1.2 2 0
v 1.2 2 -0.1
v 1.2 2.5 0
v 1.2 2.5 -0.1
v 1.2 2.6 0
v 1.2 2.7 0
v 1.2 2.7 -0.1
v 1.3 2 -0.1
v 1.3 2 -0.2
v 1.3 2.5 -0.1
v 1.3 2.5 -0.2
v 1.3 2.7 -0.1
v 1.3 2.7 -0.2
v 1.4 2.1 -0.2
v 1.4 2.1 -0.3
v 1.4 2.5 -0.2
v 1.4 2.6 -0.2
v 1.4 2.6 -0.3
v 0.9 2.1 0.4
v 0.9 2.1 0.3
v 0.9 2.3 0.4
v 0.9 2.3 0.3
v 1 2 0.4
v 1 2 0.3
v 1 2 0.2
v 1 2.1 0.4
v 1 2.1 0.3
v 1 2.1 0.2
v 1 2.3 0.4
v 1 2.3 0.3
v 1 2.3 0.2
v 1 2.4 0.4
v 1 2.4 0.3
v 1.1 1.9 0.3
v 1.1 1.9 0.2
v 1.1 2 0.3
v 1.1 2 0.2
v 1.1 2 0.1
v 1.1 2.3 0.3
v 1.1 2.3 0.2
v 1.1 2.4 0.2
v 1.1 2.4 0.1
v 1.1 2.5 0.3
v 1.1 2.5 0.2
v 1.2 1.9 0.2
v 1.2 1.9 0.1
v 1.2 2 0.2
v 1.2 2 0.1
v 1.2 2 0
v 1.2 2.4 0.2
v 1.2 2.4 0.1
v 1.2 2.5 0.1
v 1.2 2.5 0
v 1.2 2.6 0.2
v 1.2 2.6 0.1
v 1.3 1.9 0.1
v 1.3 1.9 0
v 1.3 2 0.1
v 1.3 2 0
v 1.3 2 -0.1
v 1.3 2.5 0.1
v 1.3 2.5 0
v 1.3 2.5 -0.1
v 1.3 2.6 0.1
v 1.3 2.6 0
v 1.3 2.6 -0.1
v 1.3 2.7 0
v 1.3 2.7 -0.1
v 1.4 1.9 0
v 1.4 1.9 -0.1
v 1.4 2 0
v 1.4 2 -0.1
v 1.4 2.1 -0.1
v 1.4 2.1 -0.2
v 1.4 2.5 0
v 1.4 2.5 -0.1
v 1.4 2.5 -0.2
v 1.4 2.6 0
v 1.4 2.6 -0.1
v 1.4 2.6 -0.2
v 1.4 2.7 -0.1
v 1.4 2.7 -0.2
v 1.5 2 -0.1
v 1.5 2 -0.2
v 1.5 2.1 -0.1
v 1.5 2.1 -0.2
v 1.5 2.1 -0.3
v 1.5 2.5 -0.1
v 1.5 2.5 -0.2
v 1.5 2.6 -0.1
v 1.5 2.6 -0.3
v 0.8 2 0.4
v 0.8 2.4 0.4
v 0.9 2.1 0.4
v 0.9 2.3 0.4
v 1 2 0.4
v 1 2.1 0.4
v 1 2.3 0.4
v 1 2.4 0.4
v 0.9 1.9 0.3
v 0.9 2 0.3
v 0.9 2.1 0.3
v 0.9 2.3 0.3
v 0.9 2.4 0.3
v 0.9 2.5 0.3
v 1 2 0.3
v 1 2.1 0.3
v 1 2.3 0.3
v 1 2.4 0.3
v 1.1 1.9 0.3
v 1.1 2 0.3
v 1.1 2.3 0.3
v 1.1 2.5 0.3
v 1 2 0.2
v 1 2.1 0.2
v 1 2.3 0.2
v 1 2.5 0.2
v 1 2.6 0.2
v 1.1 1.9 0.2
v 1.1 2 0.2
v 1.1 2.3 0.2
v 1.1 2.4 0.2
v 1.1 2.5 0.2
v 1.2 1.9 0.2
v 1.2 2 0.2
v 1.2 2.4 0.2
v 1.2 2.6 0.2
v 1.1 2 0.1
v 1.1 2.4 0.1
v 1.2 1.9 0.1
v 1.2 2 0.1
v 1.2 2.4 0.1
v 1.2 2.5 0.1
v 1.2 2.6 0.1
v 1.3 1.9 0.1
v 1.3 2 0.1
v 1.3 2.5 0.1
v 1.3 2.6 0.1
v 1.2 2 0
v 1.2 2.5 0
v 1.2 2.6 0
v 1.2 2.7 0
v 1.3 1.9 0
v 1.3 2 0
v 1.3 2.5 0
v 1.3 2.6 0
v 1.3 2.7 0
v 1.4 1.9 0
v 1.4 2 0
v 1.4 2.5 0
v 1.4 2.6 0
v 1.3 2 -0.1
v 1.3 2.5 -0.1
v 1.3 2.6 -0.1
v 1.3 2.7 -0.1
v 1.4 2 -0.1
v 1.4 2.1 -0.1
v 1.4 2.5 -0.1
v 1.4 2.6 -0.1
v 1.4 2.7 -0.1
v 1.5 2 -0.1
v 1.5 2.1 -0.1
v 1.5 2.5 -0.1
v 1.5 2.6 -0.1
v 1.4 2.1 -0.2
v 1.4 2.5 -0.2
v 1.5 2.1 -0.2
v 1.5 2.5 -0.2
v 0.8 2 0.3
v 0.8 2.4 0.3
v 0.9 2 0.3
v 0.9 2.1 0.3
v 0.9 2.3 0.3
v 0.9 2.4 0.3
v 0.9 1.9 0.2
v 0.9 2.1 0.2
v 0.9 2.3 0.2
v 0.9 2.5 0.2
v 1 1.9 0.2
v 1 2 0.2
v 1 2.1 0.2
v 1 2.3 0.2
v 1 2.4 0.2
v 1 2.5 0.2
v 1 1.9 0.1
v 1 2 0.1
v 1 2.4 0.1
v 1 2.6 0.1
v 1.1 1.9 0.1
v 1.1 2 0.1
v 1.1 2.4 0.1
v 1.1 2.5 0.1
v 1.1 2.6 0.1
v 1.1 1.9 0
v 1.1 2 0
v 1.1 2.5 0
v 1.1 2.6 0
v 1.2 1.9 0
v 1.2 2 0
v 1.2 2.5 0
v 1.2 2.6 0
v 1.2 1.9 -0.1
v 1.2 2 -0.1
v 1.2 2.5 -0.1
v 1.2 2.7 -0.1
v 1.3 2 -0.1
v 1.3 2.5 -0.1
v 1.3 2.7 -0.1
v 1.4 1.9 -0.1
v 1.4 2 -0.1
v 1.3 2 -0.2
v 1.3 2.5 -0.2
v 1.3 2.7 -0.2
v 1.4 2 -0.2
v 1.4 2.1 -0.2
v 1.4 2.5 -0.2
v 1.4 2.6 -0.2
v 1.4 2.7 -0.2
v 1.5 2 -0.2
v 1.5 2.1 -0.2
v 1.4 2.1 -0.3
v 1.4 2.6 -0.3
v 1.5 2.1 -0.3
v 1.5 2.6 -0.3
v 0.9 1.9 0.3
v 1.1 1.9 0.3
v 0.9 1.9 0.2
v 1 1.9 0.2
v 1.1 1.9 0.2
v 1.2 1.9 0.2
v 1 1.9 0.1
v 1.1 1.9 0.1
v 1.2 1.9 0.1
v 1.3 1.9 0.1
v 1.1 1.9 0
v 1.2 1.9 0
v 1.3 1.9 0
v 1.4 1.9 0
v 1.2 1.9 -0.1
v 1.4 1.9 -0.1
v 0.8 2 0.4
v 1 2 0.4
v 0.8 2 0.3
v 0.9 2 0.3
v 1 2 0.3
v 1.3 2 -0.1
v 1.4 2 -0.1
v 1.5 2 -0.1
v 1.3 2 -0.2
v 1.4 2 -0.2
v 1.5 2 -0.2
v 1.4 2.1 -0.2
v 1.5 2.1 -0.2
v 1.4 2.1 -0.3
v 1.5 2.1 -0.3
v 0.9 2.3 0.4
v 1 2.3 0.4
v 0.9 2.3 0.3
v 1 2.3 0.3
v 1.1 2.3 0.3
v 1 2.3 0.2
v 1.1 2.3 0.2
v 1.1 2.4 0.2
v 1.2 2.4 0.2
v 1.1 2.4 0.1
v 1.2 2.4 0.1
v 1.2 2.5 0.1
v 1.3 2.5 0.1
v 1.2 2.5 0
v 1.3 2.5 0
v 1.4 2.5 0
v 1.3 2.5 -0.1
v 1.4 2.5 -0.1
v 1.5 2.5 -0.1
v 1.4 2.5 -0.2
v 1.5 2.5 -0.2
v 1 2 0.3
v 1.1 2 0.3
v 1 2 0.2
v 1.1 2 0.2
v 1.2 2 0.2
v 1.1 2 0.1
v 1.2 2 0.1
v 1.3 2 0.1
v 1.2 2 0
v 1.3 2 0
v 1.4 2 0
v 1.3 2 -0.1
v 1.4 2 -0.1
v 0.9 2.1 0.4
v 1 2.1 0.4
v 0.9 2.1 0.3
v 1 2.1 0.3
v 1.4 2.1 -0.1
v 1.5 2.1 -0.1
v 1.4 2.1 -0.2
v 1.5 2.1 -0.2
v 0.8 2.4 0.4
v 1 2.4 0.4
v 0.8 2.4 0.3
v 0.9 2.4 0.3
v 1 2.4 0.3
v 0.9 2.5 0.3
v 1.1 2.5 0.3
v 0.9 2.5 0.2
v 1 2.5 0.2
v 1.1 2.5 0.2
v 1 2.6 0.2
v 1.2 2.6 0.2
v 1 2.6 0.1
v 1.1 2.6 0.1
v 1.2 2.6 0.1
v 1.3 2.6 0.1
v 1.1 2.6 0
v 1.2 2.6 0
v 1.3 2.6 0
v 1.4 2.6 0
v 1.3 2.6 -0.1
v 1.4 2.6 -0.1
v 1.5 2.6 -0.1
v 1.4 2.6 -0.2
v 1.4 2.6 -0.3
v 1.5 2.6 -0.3
v 1.2 2.7 0
v 1.3 2.7 0
v 1.2 2.7 -0.1
v 1.3 2.7 -0.1
v 1.4 2.7 -0.1
v 1.3 2.7 -0.2
v 1.4 2.7 -0.2

# faces
f 3/2/1 2/2/1 1/2/1
f 4/2/1 2/2/1 3/2/1
f 7/2/1 6/2/1 5/2/1
f 8/2/1 6/2/1 7/2/1
f 9/2/1 6/2/1 8/2/1
f 10/1/1 9/1/1 8/1/1
f 11/1/1 9/1/1 10/1/1
f 12/2/1 11/2/1 10/2/1
f 13/2/1 11/2/1 12/2/1
f 14/2/1 11/2/1 13/2/1
f 17/2/1 16/2/1 15/2/1
f 18/2/1 16/2/1 17/2/1
f 19/1/1 18/1/1 17/1/1
f 20/1/1 18/1/1 19/1/1
f 21/1/1 18/1/1 20/1/1
f 22/1/1 18/1/1 21/1/1
f 23/2/1 22/2/1 21/2/1
f 24/2/1 22/2/1 23/2/1
f 25/2/1 22/2/1 24/2/1
f 28/2/1 27/2/1 26/2/1
f 29/2/1 27/2/1 28/2/1
f 30/1/1 29/1/1 28/1/1
f 31/1/1 29/1/1 30/1/1
f 32/1/1 29/1/1 31/1/1
f 33/2/1 32/2/1 31/2/1
f 34/2/1 32/2/1 33/2/1
f 37/2/1 36/2/1 35/2/1
f 38/2/1 36/2/1 37/2/1
f 39/1/1 38/1/1 37/1/1
f 40/1/1 38/1/1 39/1/1
f 41/2/1 40/2/1 39/2/1
f 42/2/1 40/2/1 41/2/1
f 43/2/1 40/2/1 42/2/1
f 46/1/1 45/1/1 44/1/1
f 47/1/1 45/1/1 46/1/1
f 48/2/1 47/2/1 46/2/1
f 49/2/1 47/2/1 48/2/1
f 52/2/1 51/2/1 50/2/1
f 53/2/1 51/2/1 52/2/1
f 54/2/1 51/2/1 53/2/1
f 55/2/2 56/2/2 57/2/2
f 57/2/2 56/2/2 58/2/2
f 59/2/2 60/2/2 62/2/2
f 60/2/2 61/2/2 62/2/2
f 62/2/2 61/2/2 63/2/2
f 63/2/2 61/2/2 64/2/2
f 63/1/2 64/1/2 66/1/2
f 66/1/2 64/1/2 67/1/2
f 65/2/2 66/2/2 68/2/2
f 68/2/2 66/2/2 69/2/2
f 70/2/2 71/2/2 72/2/2
f 72/2/2 71/2/2 73/2/2
f 73/1/2 74/1/2 76/1/2
f 76/1/2 74/1/2 77/1/2
f 75/2/2 76/2/2 77/2/2
f 77/1/2 74/1/2 78/1/2
f 75/2/2 77/2/2 79/2/2
f 79/2/2 77/2/2 80/2/2
f 81/2/2 82/2/2 83/2/2
f 83/2/2 82/2/2 84/2/2
f 84/1/2 85/1/2 87/1/2
f 87/1/2 85/1/2 88/1/2
f 86/2/2 87/2/2 88/2/2
f 88/1/2 85/1/2 89/1/2
f 86/2/2 88/2/2 90/2/2
f 90/2/2 88/2/2 91/2/2
f 92/2/2 93/2/2 94/2/2
f 94/2/2 93/2/2 95/2/2
f 95/1/2 96/1/2 98/1/2
f 98/1/2 96/1/2 99/1/2
f 97/2/2 98/2/2 100/2/2
f 100/2/2 98/2/2 101/2/2
f 101/2/2 102/2/2 103/2/2
f 103/2/2 102/2/2 104/2/2
f 105/2/2 106/2/2 107/2/2
f 107/2/2 106/2/2 108/2/2
f 109/1/2 110/1/2 112/1/2
f 112/1/2 110/1/2 113/1/2
f 111/2/2 112/2/2 114/2/2
f 114/2/2 112/2/2 115/2/2
f 115/2/2 116/2/2 117/2/2
f 117/2/2 116/2/2 118/2/2
f 119/2/2 120/2/2 121/2/2
f 121/2/2 120/2/2 122/2/2
f 122/2/2 123/2/2 125/2/2
f 124/2/2 125/2/2 126/2/2
f 125/2/2 123/2/2 127/2/2
f 126/2/2 125/2/2 127/2/2
f 130/2/3 129/2/3 128/2/3
f 131/2/3 129/2/3 130/2/3
f 132/2/3 130/2/3 128/2/3
f 133/2/3 130/2/3 132/2/3
f 134/2/3 129/2/3 131/2/3
f 135/2/3 129/2/3 134/2/3
f 142/2/3 137/2/3 136/2/3
f 143/1/3 139/1/3 138/1/3
f 144/1/3 139/1/3 143/1/3
f 145/2/3 141/2/3 140/2/3
f 146/2/3 142/2/3 136/2/3
f 147/2/3 142/2/3 146/2/3
f 148/2/3 145/2/3 144/2/3
f 149/2/3 141/2/3 145/2/3
f 149/2/3 145/2/3 148/2/3
f 156/1/3 151/1/3 150/1/3
f 156/1/3 152/1/3 151/1/3
f 157/1/3 152/1/3 156/1/3
f 159/2/3 154/2/3 153/2/3
f 160/2/3 156/2/3 155/2/3
f 161/2/3 156/2/3 160/2/3
f 162/2/3 159/2/3 158/2/3
f 163/2/3 154/2/3 159/2/3
f 163/2/3 159/2/3 162/2/3
f 167/1/3 165/1/3 164/1/3
f 168/1/3 165/1/3 167/1/3
f 171/2/3 167/2/3 166/2/3
f 172/2/3 167/2/3 171/2/3
f 173/2/3 170/2/3 169/2/3
f 174/2/3 170/2/3 173/2/3
f 180/1/3 176/1/3 175/1/3
f 181/1/3 176/1/3 180/1/3
f 182/2/3 178/2/3 177/2/3
f 183/2/3 178/2/3 182/2/3
f 184/2/3 180/2/3 179/2/3
f 185/2/3 180/2/3 184/2/3
f 186/2/3 182/2/3 181/2/3
f 187/2/3 182/2/3 186/2/3
f 192/1/3 189/1/3 188/1/3
f 193/1/3 189/1/3 192/1/3
f 194/1/3 189/1/3 193/1/3
f 195/2/3 191/2/3 190/2/3
f 196/2/3 191/2/3 195/2/3
f 197/2/3 193/2/3 192/2/3
f 198/2/3 193/2/3 197/2/3
f 199/2/3 195/2/3 194/2/3
f 200/2/3 195/2/3 199/2/3
f 203/2/3 202/2/3 201/2/3
f 204/2/3 202/2/3 203/2/3
f 205/2/4 206/2/4 207/2/4
f 207/2/4 206/2/4 208/2/4
f 208/2/4 206/2/4 209/2/4
f 209/2/4 206/2/4 210/2/4
f 211/2/4 212/2/4 215/2/4
f 215/2/4 212/2/4 216/2/4
f 212/1/4 213/1/4 217/1/4
f 216/2/4 212/2/4 217/2/4
f 213/2/4 214/2/4 218/2/4
f 217/1/4 213/1/4 218/1/4
f 218/2/4 214/2/4 219/2/4
f 219/2/4 214/2/4 220/2/4
f 221/2/4 222/2/4 225/2/4
f 222/1/4 223/1/4 226/1/4
f 225/2/4 222/2/4 226/2/4
f 223/2/4 224/2/4 227/2/4
f 226/1/4 223/1/4 227/1/4
f 227/2/4 224/2/4 228/2/4
f 228/2/4 224/2/4 229/2/4
f 230/2/4 231/2/4 234/2/4
f 231/1/4 232/1/4 235/1/4
f 234/2/4 231/2/4 235/2/4
f 232/2/4 233/2/4 236/2/4
f 235/1/4 232/1/4 236/1/4
f 236/2/4 233/2/4 237/2/4
f 238/2/4 239/2/4 242/2/4
f 239/1/4 240/1/4 242/1/4
f 240/2/4 241/2/4 243/2/4
f 242/1/4 240/1/4 243/1/4
f 243/2/4 241/2/4 244/2/4
f 238/2/4 242/2/4 245/2/4
f 245/2/4 242/2/4 246/2/4
f 247/1/4 248/1/4 250/1/4
f 250/1/4 248/1/4 251/1/4
f 248/2/4 249/2/4 252/2/4
f 251/1/4 248/1/4 252/1/4
f 252/2/4 249/2/4 253/2/4
f 253/2/4 249/2/4 254/2/4
f 250/2/4 251/2/4 255/2/4
f 255/2/4 251/2/4 256/2/4
f 257/2/4 258/2/4 259/2/4
f 259/2/4 258/2/4 260/2/4
f 263/2/5 262/2/5 261/2/5
f 264/2/5 262/2/5 263/2/5
f 265/2/5 262/2/5 264/2/5
f 267/2/5 266/2/5 265/2/5
f 267/2/5 265/2/5 264/2/5
f 268/2/5 266/2/5 267/2/5
f 269/2/5 266/2/5 268/2/5
f 271/2/5 270/2/5 269/2/5
f 271/2/5 269/2/5 268/2/5
f 272/2/5 270/2/5 271/2/5
f 273/2/5 270/2/5 272/2/5
f 275/2/5 274/2/5 273/2/5
f 275/2/5 273/2/5 272/2/5
f 276/2/5 274/2/5 275/2/5
f 279/2/5 278/2/5 277/2/5
f 280/2/5 278/2/5 279/2/5
f 281/2/5 278/2/5 280/2/5
f 285/1/5 283/1/5 282/1/5
f 286/2/5 284/2/5 283/2/5
f 286/1/5 283/1/5 285/1/5
f 287/2/5 284/2/5 286/2/5
f 290/2/5 289/2/5 288/2/5
f 291/2/5 289/2/5 290/2/5
f 294/2/5 293/2/5 292/2/5
f 295/2/5 293/2/5 294/2/5
f 297/2/5 296/2/5 295/2/5
f 298/2/5 296/2/5 297/2/5
f 301/2/5 300/2/5 299/2/5
f 302/2/5 300/2/5 301/2/5
f 305/2/5 304/2/5 303/2/5
f 306/2/5 304/2/5 305/2/5
f 308/2/5 307/2/5 306/2/5
f 309/2/5 307/2/5 308/2/5
f 311/2/5 310/2/5 309/2/5
f 312/2/5 310/2/5 311/2/5
f 313/2/6 314/2/6 315/2/6
f 315/2/6 314/2/6 316/2/6
f 316/2/6 317/2/6 318/2/6
f 318/2/6 317/2/6 319/2/6
f 319/2/6 320/2/6 321/2/6
f 321/2/6 320/2/6 322/2/6
f 322/2/6 323/2/6 324/2/6
f 324/2/6 323/2/6 325/2/6
f 326/2/6 327/2/6 328/2/6
f 328/2/6 327/2/6 329/2/6
f 330/2/6 331/2/6 332/2/6
f 332/2/6 331/2/6 333/2/6
f 334/2/6 335/2/6 336/2/6
f 336/2/6 335/2/6 337/2/6
f 337/2/6 335/2/6 338/2/6
f 339/2/6 340/2/6 341/2/6
f 341/2/6 340/2/6 342/2/6
f 342/2/6 340/2/6 343/2/6
f 344/2/6 345/2/6 346/2/6
f 346/2/6 345/2/6 347/2/6
f 347/2/6 345/2/6 348/2/6
f 348/2/6 349/2/6 350/2/6
f 347/2/6 348/2/6 350/2/6
f 350/2/6 349/2/6 351/2/6
f 351/2/6 349/2/6 352/2/6
f 352/2/6 353/2/6 354/2/6
f 354/2/6 353/2/6 355/2/6
f 355/2/6 356/2/6 357/2/6
f 357/2/6 356/2/6 358/2/6
f 358/2/6 356/2/6 359/2/6
f 360/2/6 361/2/6 362/2/6
f 362/2/6 361/2/6 363/2/6
f 363/2/6 364/2/6 365/2/6
f 365/2/6 364/2/6 366/2/6
