# MagicaVoxel @ Ephtracy

# group
o 

# material
mtllib ratatta-3.mtl
usemtl palette

# normals
vn 1 0 0
vn -1 0 0
vn 0 0 1
vn 0 0 -1
vn 0 -1 0
vn 0 1 0

# texcoords
vt 0.876953 0.5
vt 0.880859 0.5

# verts
v -0.1 0 0.5
v -0.1 0 0.2
v -0.1 0.1 0.5
v -0.1 0.1 0.4
v -0.1 0.1 0.2
v -0.1 0.1 0.1
v -0.1 0.2 0.4
v -0.1 0.2 0.3
v -0.1 0.2 0.1
v -0.1 0.7 0.1
v -0.1 0.7 5.96046e-08
v -0.1 0.8 0.3
v -0.1 0.8 0.2
v -0.1 0.9 0.2
v -0.1 0.9 5.96046e-08
v -0.2 0 0.6
v -0.2 0 0.5
v -0.2 0 0.2
v -0.2 0 0.1
v -0.2 0 -1.1
v -0.2 0 -1.3
v -0.2 0.1 0.6
v -0.2 0.1 0.5
v -0.2 0.1 0.4
v -0.2 0.1 0.2
v -0.2 0.1 0.1
v -0.2 0.1 -1.1
v -0.2 0.1 -1.2
v -0.2 0.1 -1.3
v -0.2 0.1 -1.4
v -0.2 0.2 0.5
v -0.2 0.2 0.4
v -0.2 0.2 0.3
v -0.2 0.2 -1.2
v -0.2 0.2 -1.4
v -0.2 0.3 0.1
v -0.2 0.3 5.96046e-08
v -0.2 0.3 -1.1
v -0.2 0.3 -1.2
v -0.2 0.3 -1.3
v -0.2 0.3 -1.4
v -0.2 0.6 -0.9
v -0.2 0.6 -1.1
v -0.2 0.7 0.1
v -0.2 0.7 5.96046e-08
v -0.2 0.7 -0.1
v -0.2 0.8 0.4
v -0.2 0.8 0.3
v -0.2 0.8 0.2
v -0.2 0.9 0.3
v -0.2 0.9 0.2
v -0.2 0.9 5.96046e-08
v -0.2 0.9 -0.1
v -0.2 1 0.2
v -0.2 1 5.96046e-08
v -0.2 1.1 -0.9
v -0.2 1.1 -1.3
v -0.3 0 -1
v -0.3 0 -1.1
v -0.3 0 -1.3
v -0.3 0 -1.4
v -0.3 0.1 -1
v -0.3 0.1 -1.1
v -0.3 0.1 -1.2
v -0.3 0.1 -1.3
v -0.3 0.1 -1.4
v -0.3 0.1 -1.5
v -0.3 0.2 -1.1
v -0.3 0.2 -1.2
v -0.3 0.2 -1.4
v -0.3 0.2 -1.5
v -0.3 0.3 -1
v -0.3 0.3 -1.1
v -0.3 0.3 -1.2
v -0.3 0.3 -1.3
v -0.3 0.3 -1.4
v -0.3 0.3 -1.5
v -0.3 0.5 -0.9
v -0.3 0.5 -1
v -0.3 0.6 -0.8
v -0.3 0.6 -0.9
v -0.3 0.6 -1.1
v -0.3 1.1 -0.8
v -0.3 1.1 -0.9
v -0.3 1.1 -1.3
v -0.3 1.1 -1.4
v -0.3 1.2 -0.9
v -0.3 1.2 -1.3
v -0.4 0 0.6
v -0.4 0 0.5
v -0.4 0 0.2
v -0.4 0 0.1
v -0.4 0.1 0.6
v -0.4 0.1 0.5
v -0.4 0.1 0.4
v -0.4 0.1 0.2
v -0.4 0.1 0.1
v -0.4 0.2 0.5
v -0.4 0.2 0.4
v -0.4 0.2 0.3
v -0.4 0.3 0.1
v -0.4 0.3 5.96046e-08
v -0.4 0.7 0.1
v -0.4 0.7 5.96046e-08
v -0.4 0.7 -0.1
v -0.4 0.8 0.4
v -0.4 0.8 0.3
v -0.4 0.8 0.2
v -0.4 0.9 0.3
v -0.4 0.9 0.2
v -0.4 0.9 5.96046e-08
v -0.4 0.9 -0.1
v -0.4 1 0.2
v -0.4 1 5.96046e-08
v -0.5 0 0.5
v -0.5 0 0.2
v -0.5 0 -1
v -0.5 0 -1.1
v -0.5 0 -1.3
v -0.5 0 -1.4
v -0.5 0.1 0.5
v -0.5 0.1 0.4
v -0.5 0.1 0.2
v -0.5 0.1 0.1
v -0.5 0.1 -1
v -0.5 0.1 -1.1
v -0.5 0.1 -1.2
v -0.5 0.1 -1.3
v -0.5 0.1 -1.4
v -0.5 0.1 -1.5
v -0.5 0.2 0.4
v -0.5 0.2 0.3
v -0.5 0.2 0.1
v -0.5 0.2 -1.1
v -0.5 0.2 -1.2
v -0.5 0.2 -1.4
v -0.5 0.2 -1.5
v -0.5 0.3 -1
v -0.5 0.3 -1.1
v -0.5 0.3 -1.2
v -0.5 0.3 -1.3
v -0.5 0.3 -1.4
v -0.5 0.3 -1.5
v -0.5 0.5 -0.9
v -0.5 0.5 -1
v -0.5 0.6 -0.8
v -0.5 0.6 -0.9
v -0.5 0.6 -1.1
v -0.5 0.7 0.1
v -0.5 0.7 5.96046e-08
v -0.5 0.8 0.3
v -0.5 0.8 0.2
v -0.5 0.9 0.2
v -0.5 0.9 5.96046e-08
v -0.5 1.1 -0.8
v -0.5 1.1 -0.9
v -0.5 1.1 -1.3
v -0.5 1.1 -1.4
v -0.5 1.2 -0.9
v -0.5 1.2 -1.3
v -0.6 0 -1.1
v -0.6 0 -1.3
v -0.6 0.1 -1.1
v -0.6 0.1 -1.2
v -0.6 0.1 -1.3
v -0.6 0.1 -1.4
v -0.6 0.2 -1.2
v -0.6 0.2 -1.4
v -0.6 0.3 -1.1
v -0.6 0.3 -1.2
v -0.6 0.3 -1.3
v -0.6 0.3 -1.4
v -0.6 0.6 -0.9
v -0.6 0.6 -1.1
v -0.6 1.1 -0.9
v -0.6 1.1 -1.3
v -0.2 0 0.6
v -0.2 0.1 0.6
v -0.4 0 0.6
v -0.4 0.1 0.6
v -0.1 0 0.5
v -0.1 0.1 0.5
v -0.2 0 0.5
v -0.2 0.1 0.5
v -0.2 0.2 0.5
v -0.4 0 0.5
v -0.4 0.1 0.5
v -0.4 0.2 0.5
v -0.5 0 0.5
v -0.5 0.1 0.5
v -0.1 0.1 0.4
v -0.1 0.2 0.4
v -0.2 0.1 0.4
v -0.2 0.2 0.4
v -0.2 0.8 0.4
v -0.4 0.1 0.4
v -0.4 0.2 0.4
v -0.4 0.8 0.4
v -0.5 0.1 0.4
v -0.5 0.2 0.4
v -0.1 0.2 0.3
v -0.1 0.8 0.3
v -0.2 0.2 0.3
v -0.2 0.8 0.3
v -0.2 0.9 0.3
v -0.4 0.2 0.3
v -0.4 0.8 0.3
v -0.4 0.9 0.3
v -0.5 0.2 0.3
v -0.5 0.8 0.3
v -0.1 0.8 0.2
v -0.1 0.9 0.2
v -0.2 0.8 0.2
v -0.2 0.9 0.2
v -0.2 1 0.2
v -0.4 0.8 0.2
v -0.4 0.9 0.2
v -0.4 1 0.2
v -0.5 0.8 0.2
v -0.5 0.9 0.2
v -0.3 0.6 -0.8
v -0.3 1.1 -0.8
v -0.5 0.6 -0.8
v -0.5 1.1 -0.8
v -0.2 0.6 -0.9
v -0.2 1.1 -0.9
v -0.3 0.5 -0.9
v -0.3 0.6 -0.9
v -0.3 1.1 -0.9
v -0.3 1.2 -0.9
v -0.5 0.5 -0.9
v -0.5 0.6 -0.9
v -0.5 1.1 -0.9
v -0.5 1.2 -0.9
v -0.6 0.6 -0.9
v -0.6 1.1 -0.9
v -0.3 0 -1
v -0.3 0.1 -1
v -0.3 0.3 -1
v -0.3 0.5 -1
v -0.5 0 -1
v -0.5 0.1 -1
v -0.5 0.3 -1
v -0.5 0.5 -1
v -0.2 0 -1.1
v -0.2 0.1 -1.1
v -0.2 0.3 -1.1
v -0.2 0.6 -1.1
v -0.3 0 -1.1
v -0.3 0.1 -1.1
v -0.3 0.2 -1.1
v -0.3 0.3 -1.1
v -0.3 0.6 -1.1
v -0.5 0 -1.1
v -0.5 0.1 -1.1
v -0.5 0.2 -1.1
v -0.5 0.3 -1.1
v -0.5 0.6 -1.1
v -0.6 0 -1.1
v -0.6 0.1 -1.1
v -0.6 0.3 -1.1
v -0.6 0.6 -1.1
v -0.2 0.1 -1.2
v -0.2 0.2 -1.2
v -0.2 0.3 -1.2
v -0.3 0.1 -1.2
v -0.3 0.2 -1.2
v -0.3 0.3 -1.2
v -0.5 0.1 -1.2
v -0.5 0.2 -1.2
v -0.5 0.3 -1.2
v -0.6 0.1 -1.2
v -0.6 0.2 -1.2
v -0.6 0.3 -1.2
v -0.1 0 0.2
v -0.1 0.1 0.2
v -0.2 0 0.2
v -0.2 0.1 0.2
v -0.4 0 0.2
v -0.4 0.1 0.2
v -0.5 0 0.2
v -0.5 0.1 0.2
v -0.1 0.1 0.1
v -0.1 0.2 0.1
v -0.1 0.7 0.1
v -0.2 0 0.1
v -0.2 0.1 0.1
v -0.2 0.2 0.1
v -0.2 0.3 0.1
v -0.2 0.7 0.1
v -0.4 0 0.1
v -0.4 0.1 0.1
v -0.4 0.2 0.1
v -0.4 0.3 0.1
v -0.4 0.7 0.1
v -0.5 0.1 0.1
v -0.5 0.2 0.1
v -0.5 0.7 0.1
v -0.1 0.7 5.96046e-08
v -0.1 0.9 5.96046e-08
v -0.2 0.3 5.96046e-08
v -0.2 0.7 5.96046e-08
v -0.2 0.9 5.96046e-08
v -0.2 1 5.96046e-08
v -0.4 0.3 5.96046e-08
v -0.4 0.7 5.96046e-08
v -0.4 0.9 5.96046e-08
v -0.4 1 5.96046e-08
v -0.5 0.7 5.96046e-08
v -0.5 0.9 5.96046e-08
v -0.2 0.7 -0.1
v -0.2 0.9 -0.1
v -0.4 0.7 -0.1
v -0.4 0.9 -0.1
v -0.2 0 -1.3
v -0.2 0.1 -1.3
v -0.2 0.3 -1.3
v -0.2 1.1 -1.3
v -0.3 0 -1.3
v -0.3 0.1 -1.3
v -0.3 0.3 -1.3
v -0.3 1.1 -1.3
v -0.3 1.2 -1.3
v -0.5 0 -1.3
v -0.5 0.1 -1.3
v -0.5 0.3 -1.3
v -0.5 1.1 -1.3
v -0.5 1.2 -1.3
v -0.6 0 -1.3
v -0.6 0.1 -1.3
v -0.6 0.3 -1.3
v -0.6 1.1 -1.3
v -0.2 0.1 -1.4
v -0.2 0.2 -1.4
v -0.2 0.3 -1.4
v -0.3 0 -1.4
v -0.3 0.1 -1.4
v -0.3 0.2 -1.4
v -0.3 0.3 -1.4
v -0.3 1.1 -1.4
v -0.5 0 -1.4
v -0.5 0.1 -1.4
v -0.5 0.2 -1.4
v -0.5 0.3 -1.4
v -0.5 1.1 -1.4
v -0.6 0.1 -1.4
v -0.6 0.2 -1.4
v -0.6 0.3 -1.4
v -0.3 0.1 -1.5
v -0.3 0.2 -1.5
v -0.3 0.3 -1.5
v -0.5 0.1 -1.5
v -0.5 0.2 -1.5
v -0.5 0.3 -1.5
v -0.2 0 0.6
v -0.4 0 0.6
v -0.1 0 0.5
v -0.2 0 0.5
v -0.4 0 0.5
v -0.5 0 0.5
v -0.1 0 0.2
v -0.2 0 0.2
v -0.4 0 0.2
v -0.5 0 0.2
v -0.2 0 0.1
v -0.4 0 0.1
v -0.3 0 -1
v -0.5 0 -1
v -0.2 0 -1.1
v -0.3 0 -1.1
v -0.5 0 -1.1
v -0.6 0 -1.1
v -0.2 0 -1.3
v -0.3 0 -1.3
v -0.5 0 -1.3
v -0.6 0 -1.3
v -0.3 0 -1.4
v -0.5 0 -1.4
v -0.1 0.1 0.2
v -0.2 0.1 0.2
v -0.4 0.1 0.2
v -0.5 0.1 0.2
v -0.1 0.1 0.1
v -0.2 0.1 0.1
v -0.4 0.1 0.1
v -0.5 0.1 0.1
v -0.2 0.1 -1.3
v -0.3 0.1 -1.3
v -0.5 0.1 -1.3
v -0.6 0.1 -1.3
v -0.2 0.1 -1.4
v -0.3 0.1 -1.4
v -0.5 0.1 -1.4
v -0.6 0.1 -1.4
v -0.3 0.1 -1.5
v -0.5 0.1 -1.5
v -0.2 0.3 0.1
v -0.4 0.3 0.1
v -0.2 0.3 5.96046e-08
v -0.4 0.3 5.96046e-08
v -0.3 0.3 -1
v -0.5 0.3 -1
v -0.2 0.3 -1.1
v -0.3 0.3 -1.1
v -0.5 0.3 -1.1
v -0.6 0.3 -1.1
v -0.2 0.3 -1.2
v -0.3 0.3 -1.2
v -0.5 0.3 -1.2
v -0.6 0.3 -1.2
v -0.3 0.5 -0.9
v -0.5 0.5 -0.9
v -0.3 0.5 -1
v -0.5 0.5 -1
v -0.3 0.6 -0.8
v -0.5 0.6 -0.8
v -0.2 0.6 -0.9
v -0.3 0.6 -0.9
v -0.5 0.6 -0.9
v -0.6 0.6 -0.9
v -0.2 0.6 -1.1
v -0.3 0.6 -1.1
v -0.5 0.6 -1.1
v -0.6 0.6 -1.1
v -0.1 0.7 0.1
v -0.2 0.7 0.1
v -0.4 0.7 0.1
v -0.5 0.7 0.1
v -0.1 0.7 5.96046e-08
v -0.2 0.7 5.96046e-08
v -0.4 0.7 5.96046e-08
v -0.5 0.7 5.96046e-08
v -0.2 0.7 -0.1
v -0.4 0.7 -0.1
v -0.2 0.1 0.6
v -0.4 0.1 0.6
v -0.1 0.1 0.5
v -0.2 0.1 0.5
v -0.4 0.1 0.5
v -0.5 0.1 0.5
v -0.1 0.1 0.4
v -0.2 0.1 0.4
v -0.4 0.1 0.4
v -0.5 0.1 0.4
v -0.3 0.1 -1
v -0.5 0.1 -1
v -0.2 0.1 -1.1
v -0.3 0.1 -1.1
v -0.5 0.1 -1.1
v -0.6 0.1 -1.1
v -0.2 0.1 -1.2
v -0.3 0.1 -1.2
v -0.5 0.1 -1.2
v -0.6 0.1 -1.2
v -0.2 0.2 0.5
v -0.4 0.2 0.5
v -0.1 0.2 0.4
v -0.2 0.2 0.4
v -0.4 0.2 0.4
v -0.5 0.2 0.4
v -0.1 0.2 0.3
v -0.2 0.2 0.3
v -0.4 0.2 0.3
v -0.5 0.2 0.3
v -0.2 0.3 -1.3
v -0.3 0.3 -1.3
v -0.5 0.3 -1.3
v -0.6 0.3 -1.3
v -0.2 0.3 -1.4
v -0.3 0.3 -1.4
v -0.5 0.3 -1.4
v -0.6 0.3 -1.4
v -0.3 0.3 -1.5
v -0.5 0.3 -1.5
v -0.2 0.8 0.4
v -0.4 0.8 0.4
v -0.1 0.8 0.3
v -0.2 0.8 0.3
v -0.4 0.8 0.3
v -0.5 0.8 0.3
v -0.1 0.8 0.2
v -0.2 0.8 0.2
v -0.4 0.8 0.2
v -0.5 0.8 0.2
v -0.2 0.9 0.3
v -0.4 0.9 0.3
v -0.1 0.9 0.2
v -0.2 0.9 0.2
v -0.4 0.9 0.2
v -0.5 0.9 0.2
v -0.1 0.9 5.96046e-08
v -0.2 0.9 5.96046e-08
v -0.4 0.9 5.96046e-08
v -0.5 0.9 5.96046e-08
v -0.2 0.9 -0.1
v -0.4 0.9 -0.1
v -0.2 1 0.2
v -0.4 1 0.2
v -0.2 1 5.96046e-08
v -0.4 1 5.96046e-08
v -0.3 1.1 -0.8
v -0.5 1.1 -0.8
v -0.2 1.1 -0.9
v -0.3 1.1 -0.9
v -0.5 1.1 -0.9
v -0.6 1.1 -0.9
v -0.2 1.1 -1.3
v -0.3 1.1 -1.3
v -0.5 1.1 -1.3
v -0.6 1.1 -1.3
v -0.3 1.1 -1.4
v -0.5 1.1 -1.4
v -0.3 1.2 -0.9
v -0.5 1.2 -0.9
v -0.3 1.2 -1.3
v -0.5 1.2 -1.3

# faces
f 1/1/1 2/1/1 3/1/1
f 3/1/1 2/1/1 4/1/1
f 4/1/1 2/1/1 5/1/1
f 5/1/1 6/1/1 7/1/1
f 4/1/1 5/1/1 7/1/1
f 7/1/1 6/1/1 8/1/1
f 8/1/1 6/1/1 9/1/1
f 8/2/1 9/2/1 10/2/1
f 8/2/1 10/2/1 12/2/1
f 10/2/1 11/2/1 12/2/1
f 12/2/1 11/2/1 13/2/1
f 13/2/1 11/2/1 14/2/1
f 14/2/1 11/2/1 15/2/1
f 16/1/1 17/1/1 22/1/1
f 22/1/1 17/1/1 23/1/1
f 18/1/1 19/1/1 25/1/1
f 25/1/1 19/1/1 26/1/1
f 20/1/1 21/1/1 27/1/1
f 27/1/1 21/1/1 28/1/1
f 28/1/1 21/1/1 29/1/1
f 23/1/1 24/1/1 31/1/1
f 31/1/1 24/1/1 32/1/1
f 29/1/1 30/1/1 34/1/1
f 28/1/1 29/1/1 34/1/1
f 34/1/1 30/1/1 35/1/1
f 34/2/1 35/2/1 39/2/1
f 39/2/1 35/2/1 40/2/1
f 40/2/1 35/2/1 41/2/1
f 38/2/1 39/2/1 43/2/1
f 39/2/1 40/2/1 43/2/1
f 36/2/1 37/2/1 44/2/1
f 44/2/1 37/2/1 45/2/1
f 32/2/1 33/2/1 47/2/1
f 47/2/1 33/2/1 48/2/1
f 48/2/1 49/2/1 50/2/1
f 50/2/1 49/2/1 51/2/1
f 45/2/1 46/2/1 52/2/1
f 52/2/1 46/2/1 53/2/1
f 51/2/1 52/2/1 54/2/1
f 54/2/1 52/2/1 55/2/1
f 42/2/1 43/2/1 56/2/1
f 43/2/1 40/2/1 57/2/1
f 56/2/1 43/2/1 57/2/1
f 58/1/1 59/1/1 62/1/1
f 62/1/1 59/1/1 63/1/1
f 60/1/1 61/1/1 65/1/1
f 65/1/1 61/1/1 66/1/1
f 63/1/1 64/1/1 68/1/1
f 68/1/1 64/1/1 69/1/1
f 66/1/1 67/1/1 70/1/1
f 70/1/1 67/1/1 71/1/1
f 68/2/1 69/2/1 73/2/1
f 73/2/1 69/2/1 74/2/1
f 70/2/1 71/2/1 76/2/1
f 76/2/1 71/2/1 77/2/1
f 72/2/1 73/2/1 79/2/1
f 78/2/1 79/2/1 81/2/1
f 79/2/1 73/2/1 82/2/1
f 81/2/1 79/2/1 82/2/1
f 80/2/1 81/2/1 83/2/1
f 83/2/1 81/2/1 84/2/1
f 75/2/1 76/2/1 85/2/1
f 85/2/1 76/2/1 86/2/1
f 84/2/1 85/2/1 87/2/1
f 87/2/1 85/2/1 88/2/1
f 93/1/2 90/1/2 89/1/2
f 94/1/2 90/1/2 93/1/2
f 96/1/2 92/1/2 91/1/2
f 97/1/2 92/1/2 96/1/2
f 98/1/2 95/1/2 94/1/2
f 99/1/2 95/1/2 98/1/2
f 103/2/2 102/2/2 101/2/2
f 104/2/2 102/2/2 103/2/2
f 106/2/2 100/2/2 99/2/2
f 107/2/2 100/2/2 106/2/2
f 109/2/2 108/2/2 107/2/2
f 110/2/2 108/2/2 109/2/2
f 111/2/2 105/2/2 104/2/2
f 112/2/2 105/2/2 111/2/2
f 113/2/2 111/2/2 110/2/2
f 114/2/2 111/2/2 113/2/2
f 121/1/2 116/1/2 115/1/2
f 122/1/2 116/1/2 121/1/2
f 123/1/2 116/1/2 122/1/2
f 125/1/2 118/1/2 117/1/2
f 126/1/2 118/1/2 125/1/2
f 128/1/2 120/1/2 119/1/2
f 129/1/2 120/1/2 128/1/2
f 131/1/2 124/1/2 123/1/2
f 131/1/2 123/1/2 122/1/2
f 132/1/2 124/1/2 131/1/2
f 133/1/2 124/1/2 132/1/2
f 134/1/2 127/1/2 126/1/2
f 135/1/2 127/1/2 134/1/2
f 136/1/2 130/1/2 129/1/2
f 137/1/2 130/1/2 136/1/2
f 139/2/2 135/2/2 134/2/2
f 140/2/2 135/2/2 139/2/2
f 142/2/2 137/2/2 136/2/2
f 143/2/2 137/2/2 142/2/2
f 145/2/2 139/2/2 138/2/2
f 147/2/2 145/2/2 144/2/2
f 148/2/2 139/2/2 145/2/2
f 148/2/2 145/2/2 147/2/2
f 149/2/2 133/2/2 132/2/2
f 151/2/2 149/2/2 132/2/2
f 151/2/2 150/2/2 149/2/2
f 152/2/2 150/2/2 151/2/2
f 153/2/2 150/2/2 152/2/2
f 154/2/2 150/2/2 153/2/2
f 155/2/2 147/2/2 146/2/2
f 156/2/2 147/2/2 155/2/2
f 157/2/2 142/2/2 141/2/2
f 158/2/2 142/2/2 157/2/2
f 159/2/2 157/2/2 156/2/2
f 160/2/2 157/2/2 159/2/2
f 163/1/2 162/1/2 161/1/2
f 164/1/2 162/1/2 163/1/2
f 165/1/2 162/1/2 164/1/2
f 167/1/2 166/1/2 165/1/2
f 167/1/2 165/1/2 164/1/2
f 168/1/2 166/1/2 167/1/2
f 170/2/2 168/2/2 167/2/2
f 171/2/2 168/2/2 170/2/2
f 172/2/2 168/2/2 171/2/2
f 174/2/2 170/2/2 169/2/2
f 174/2/2 171/2/2 170/2/2
f 175/2/2 174/2/2 173/2/2
f 176/2/2 171/2/2 174/2/2
f 176/2/2 174/2/2 175/2/2
f 177/1/3 178/1/3 179/1/3
f 179/1/3 178/1/3 180/1/3
f 181/1/3 182/1/3 183/1/3
f 183/1/3 182/1/3 184/1/3
f 184/1/3 185/1/3 187/1/3
f 187/1/3 185/1/3 188/1/3
f 186/1/3 187/1/3 189/1/3
f 189/1/3 187/1/3 190/1/3
f 191/1/3 192/1/3 193/1/3
f 193/1/3 192/1/3 194/1/3
f 194/2/3 195/2/3 197/2/3
f 197/2/3 195/2/3 198/2/3
f 196/1/3 197/1/3 199/1/3
f 199/1/3 197/1/3 200/1/3
f 201/2/3 202/2/3 203/2/3
f 203/2/3 202/2/3 204/2/3
f 204/2/3 205/2/3 207/2/3
f 207/2/3 205/2/3 208/2/3
f 206/2/3 207/2/3 209/2/3
f 209/2/3 207/2/3 210/2/3
f 211/2/3 212/2/3 213/2/3
f 213/2/3 212/2/3 214/2/3
f 214/2/3 215/2/3 217/2/3
f 217/2/3 215/2/3 218/2/3
f 216/2/3 217/2/3 219/2/3
f 219/2/3 217/2/3 220/2/3
f 221/2/3 222/2/3 223/2/3
f 223/2/3 222/2/3 224/2/3
f 225/2/3 226/2/3 228/2/3
f 228/2/3 226/2/3 229/2/3
f 227/2/3 228/2/3 231/2/3
f 231/2/3 228/2/3 232/2/3
f 229/2/3 230/2/3 233/2/3
f 233/2/3 230/2/3 234/2/3
f 232/2/3 233/2/3 235/2/3
f 235/2/3 233/2/3 236/2/3
f 237/1/3 238/1/3 241/1/3
f 241/1/3 238/1/3 242/1/3
f 239/2/3 240/2/3 243/2/3
f 243/2/3 240/2/3 244/2/3
f 245/1/3 246/1/3 249/1/3
f 249/1/3 246/1/3 250/1/3
f 247/2/3 248/2/3 252/2/3
f 252/2/3 248/2/3 253/2/3
f 250/1/3 251/1/3 255/1/3
f 251/2/3 252/2/3 256/2/3
f 255/1/3 251/1/3 256/1/3
f 256/2/3 252/2/3 257/2/3
f 254/1/3 255/1/3 259/1/3
f 259/1/3 255/1/3 260/1/3
f 257/2/3 258/2/3 261/2/3
f 261/2/3 258/2/3 262/2/3
f 263/1/3 264/1/3 266/1/3
f 264/2/3 265/2/3 267/2/3
f 266/1/3 264/1/3 267/1/3
f 267/2/3 265/2/3 268/2/3
f 269/1/3 270/1/3 272/1/3
f 270/2/3 271/2/3 273/2/3
f 272/1/3 270/1/3 273/1/3
f 273/2/3 271/2/3 274/2/3
f 277/1/4 276/1/4 275/1/4
f 278/1/4 276/1/4 277/1/4
f 281/1/4 280/1/4 279/1/4
f 282/1/4 280/1/4 281/1/4
f 287/1/4 284/1/4 283/1/4
f 288/2/4 285/2/4 284/2/4
f 288/1/4 284/1/4 287/1/4
f 289/2/4 285/2/4 288/2/4
f 290/2/4 285/2/4 289/2/4
f 291/1/4 287/1/4 286/1/4
f 292/2/4 288/2/4 287/2/4
f 292/1/4 287/1/4 291/1/4
f 292/2/4 289/2/4 288/2/4
f 293/2/4 289/2/4 292/2/4
f 294/2/4 289/2/4 293/2/4
f 296/1/4 293/1/4 292/1/4
f 297/2/4 295/2/4 294/2/4
f 297/1/4 293/1/4 296/1/4
f 297/2/4 294/2/4 293/2/4
f 298/2/4 295/2/4 297/2/4
f 302/2/4 300/2/4 299/2/4
f 303/2/4 300/2/4 302/2/4
f 305/2/4 302/2/4 301/2/4
f 306/2/4 302/2/4 305/2/4
f 307/2/4 304/2/4 303/2/4
f 308/2/4 304/2/4 307/2/4
f 309/2/4 307/2/4 306/2/4
f 310/2/4 307/2/4 309/2/4
f 313/2/4 312/2/4 311/2/4
f 314/2/4 312/2/4 313/2/4
f 319/1/4 316/1/4 315/1/4
f 320/1/4 316/1/4 319/1/4
f 321/2/4 318/2/4 317/2/4
f 322/2/4 318/2/4 321/2/4
f 327/2/4 323/2/4 322/2/4
f 328/2/4 323/2/4 327/2/4
f 329/1/4 325/1/4 324/1/4
f 330/1/4 325/1/4 329/1/4
f 331/2/4 327/2/4 326/2/4
f 332/2/4 327/2/4 331/2/4
f 337/1/4 334/1/4 333/1/4
f 338/2/4 335/2/4 334/2/4
f 338/1/4 334/1/4 337/1/4
f 339/2/4 335/2/4 338/2/4
f 341/1/4 337/1/4 336/1/4
f 342/1/4 337/1/4 341/1/4
f 344/2/4 340/2/4 339/2/4
f 345/2/4 340/2/4 344/2/4
f 346/1/4 343/1/4 342/1/4
f 347/2/4 344/2/4 343/2/4
f 347/1/4 343/1/4 346/1/4
f 348/2/4 344/2/4 347/2/4
f 352/1/4 350/1/4 349/1/4
f 353/2/4 351/2/4 350/2/4
f 353/1/4 350/1/4 352/1/4
f 354/2/4 351/2/4 353/2/4
f 355/1/5 356/1/5 358/1/5
f 358/1/5 356/1/5 359/1/5
f 357/1/5 358/1/5 361/1/5
f 359/1/5 360/1/5 361/1/5
f 358/1/5 359/1/5 361/1/5
f 361/1/5 360/1/5 362/1/5
f 362/1/5 360/1/5 363/1/5
f 363/1/5 360/1/5 364/1/5
f 362/1/5 363/1/5 365/1/5
f 365/1/5 363/1/5 366/1/5
f 367/1/5 368/1/5 370/1/5
f 370/1/5 368/1/5 371/1/5
f 370/1/5 371/1/5 373/1/5
f 371/1/5 372/1/5 373/1/5
f 369/1/5 370/1/5 373/1/5
f 373/1/5 372/1/5 374/1/5
f 374/1/5 372/1/5 375/1/5
f 375/1/5 372/1/5 376/1/5
f 374/1/5 375/1/5 377/1/5
f 377/1/5 375/1/5 378/1/5
f 379/1/5 380/1/5 383/1/5
f 383/1/5 380/1/5 384/1/5
f 381/1/5 382/1/5 385/1/5
f 385/1/5 382/1/5 386/1/5
f 387/1/5 388/1/5 391/1/5
f 391/1/5 388/1/5 392/1/5
f 389/1/5 390/1/5 393/1/5
f 393/1/5 390/1/5 394/1/5
f 392/1/5 393/1/5 395/1/5
f 395/1/5 393/1/5 396/1/5
f 397/2/5 398/2/5 399/2/5
f 399/2/5 398/2/5 400/2/5
f 401/2/5 402/2/5 404/2/5
f 404/2/5 402/2/5 405/2/5
f 403/2/5 404/2/5 407/2/5
f 407/2/5 404/2/5 408/2/5
f 405/2/5 406/2/5 409/2/5
f 409/2/5 406/2/5 410/2/5
f 411/2/5 412/2/5 413/2/5
f 413/2/5 412/2/5 414/2/5
f 415/2/5 416/2/5 418/2/5
f 418/2/5 416/2/5 419/2/5
f 417/2/5 418/2/5 421/2/5
f 421/2/5 418/2/5 422/2/5
f 419/2/5 420/2/5 423/2/5
f 423/2/5 420/2/5 424/2/5
f 425/2/5 426/2/5 429/2/5
f 429/2/5 426/2/5 430/2/5
f 427/2/5 428/2/5 431/2/5
f 431/2/5 428/2/5 432/2/5
f 430/2/5 431/2/5 433/2/5
f 433/2/5 431/2/5 434/2/5
f 438/1/6 436/1/6 435/1/6
f 439/1/6 436/1/6 438/1/6
f 441/1/6 438/1/6 437/1/6
f 442/1/6 438/1/6 441/1/6
f 443/1/6 440/1/6 439/1/6
f 444/1/6 440/1/6 443/1/6
f 448/1/6 446/1/6 445/1/6
f 449/1/6 446/1/6 448/1/6
f 451/1/6 448/1/6 447/1/6
f 452/1/6 448/1/6 451/1/6
f 453/1/6 450/1/6 449/1/6
f 454/1/6 450/1/6 453/1/6
f 458/1/6 456/1/6 455/1/6
f 459/1/6 456/1/6 458/1/6
f 461/1/6 458/1/6 457/1/6
f 462/1/6 458/1/6 461/1/6
f 463/1/6 460/1/6 459/1/6
f 464/1/6 460/1/6 463/1/6
f 469/2/6 466/2/6 465/2/6
f 470/2/6 466/2/6 469/2/6
f 471/2/6 468/2/6 467/2/6
f 472/2/6 468/2/6 471/2/6
f 473/2/6 471/2/6 470/2/6
f 474/2/6 471/2/6 473/2/6
f 478/2/6 476/2/6 475/2/6
f 479/2/6 476/2/6 478/2/6
f 481/2/6 478/2/6 477/2/6
f 482/2/6 478/2/6 481/2/6
f 483/2/6 480/2/6 479/2/6
f 484/2/6 480/2/6 483/2/6
f 488/2/6 486/2/6 485/2/6
f 489/2/6 486/2/6 488/2/6
f 491/2/6 488/2/6 487/2/6
f 492/2/6 488/2/6 491/2/6
f 493/2/6 490/2/6 489/2/6
f 494/2/6 490/2/6 493/2/6
f 495/2/6 493/2/6 492/2/6
f 496/2/6 493/2/6 495/2/6
f 499/2/6 498/2/6 497/2/6
f 500/2/6 498/2/6 499/2/6
f 504/2/6 502/2/6 501/2/6
f 505/2/6 502/2/6 504/2/6
f 507/2/6 504/2/6 503/2/6
f 508/2/6 504/2/6 507/2/6
f 509/2/6 506/2/6 505/2/6
f 510/2/6 506/2/6 509/2/6
f 511/2/6 509/2/6 508/2/6
f 512/2/6 509/2/6 511/2/6
f 515/2/6 514/2/6 513/2/6
f 516/2/6 514/2/6 515/2/6
