# MagicaVoxel @ Ephtracy

# group
o 

# material
mtllib ivysaur-1.mtl
usemtl palette

# normals
vn -1 0 0
vn 1 0 0
vn 0 0 1
vn 0 0 -1
vn 0 -1 0
vn 0 1 0

# texcoords
vt 0.853516 0.5
vt 0.884766 0.5
vt 0.888672 0.5

# verts
v -0.8 0 -1.49012e-08
v -0.8 0 -0.1
v -0.8 0 -0.4
v -0.8 0.1 -1.49012e-08
v -0.8 0.1 -0.1
v -0.8 0.2 -0.1
v -0.8 0.2 -0.3
v -0.8 0.3 -0.1
v -0.8 0.3 -0.2
v -0.8 0.3 -0.3
v -0.8 0.3 -0.4
v -0.8 0.3 -0.5
v -0.8 0.5 -0.2
v -0.8 0.5 -0.5
v -0.7 0 -0.4
v -0.7 0 -0.5
v -0.7 0.1 -1.49012e-08
v -0.7 0.1 -0.1
v -0.7 0.2 -0.1
v -0.7 0.3 -1.49012e-08
v -0.7 0.3 -0.1
v -0.7 0.3 -0.2
v -0.7 0.3 -0.4
v -0.7 0.3 -0.5
v -0.7 0.3 -0.6
v -0.7 0.5 -0.1
v -0.7 0.5 -0.2
v -0.7 0.5 -0.5
v -0.7 0.5 -0.6
v -0.7 0.7 -0.2
v -0.7 0.7 -0.5
v -0.6 0 0.1
v -0.6 0 -1.49012e-08
v -0.6 0.1 0.1
v -0.6 0.1 -1.49012e-08
v -0.6 0.5 -0.1
v -0.6 0.5 -0.2
v -0.6 0.5 -0.5
v -0.6 0.5 -0.6
v -0.6 0.6 -0.5
v -0.6 0.6 -0.6
v -0.6 0.7 -0.1
v -0.6 0.7 -0.2
v -0.6 0.7 -0.5
v -0.6 0.7 -0.6
v -0.5 0 0.1
v -0.5 0 -1.49012e-08
v -0.5 0.1 0.1
v -0.5 0.1 -1.49012e-08
v -0.4 0 -0.4
v -0.4 0 -0.5
v -0.4 0.1 -1.49012e-08
v -0.4 0.1 -0.1
v -0.4 0.3 -1.49012e-08
v -0.4 0.3 -0.1
v -0.4 0.3 -0.2
v -0.4 0.3 -0.4
v -0.4 0.3 -0.5
v -0.4 0.3 -0.6
v -0.4 0.5 -0.1
v -0.4 0.5 -0.2
v -0.4 0.5 -0.5
v -0.4 0.5 -0.6
v -0.3 0 -1.49012e-08
v -0.3 0 -0.1
v -0.3 0 -0.4
v -0.3 0.1 -1.49012e-08
v -0.3 0.1 -0.1
v -0.3 0.3 -0.1
v -0.3 0.3 -0.2
v -0.3 0.3 -0.4
v -0.3 0.3 -0.5
v -0.3 0.5 -0.1
v -0.3 0.5 -0.2
v -0.3 0.5 -0.5
v -0.3 0.5 -0.6
v -0.3 0.7 -0.1
v -0.3 0.7 -0.2
v -0.3 0.7 -0.5
v -0.3 0.7 -0.6
v -0.2 0.5 -0.2
v -0.2 0.5 -0.5
v -0.2 0.7 -0.2
v -0.2 0.7 -0.5
v -0.6 0 0.1
v -0.6 0.1 0.1
v -0.5 0 0.1
v -0.5 0.1 0.1
v -0.8 0 -1.49012e-08
v -0.8 0.1 -1.49012e-08
v -0.7 0 -1.49012e-08
v -0.7 0.1 -1.49012e-08
v -0.7 0.3 -1.49012e-08
v -0.6 0 -1.49012e-08
v -0.6 0.1 -1.49012e-08
v -0.5 0 -1.49012e-08
v -0.5 0.1 -1.49012e-08
v -0.4 0 -1.49012e-08
v -0.4 0.1 -1.49012e-08
v -0.4 0.3 -1.49012e-08
v -0.3 0 -1.49012e-08
v -0.3 0.1 -1.49012e-08
v -0.8 0.1 -0.1
v -0.8 0.2 -0.1
v -0.8 0.3 -0.1
v -0.7 0.1 -0.1
v -0.7 0.2 -0.1
v -0.7 0.3 -0.1
v -0.7 0.5 -0.1
v -0.6 0.5 -0.1
v -0.6 0.7 -0.1
v -0.4 0.1 -0.1
v -0.4 0.3 -0.1
v -0.4 0.5 -0.1
v -0.3 0.1 -0.1
v -0.3 0.3 -0.1
v -0.3 0.5 -0.1
v -0.3 0.7 -0.1
v -0.8 0.3 -0.2
v -0.8 0.5 -0.2
v -0.7 0.3 -0.2
v -0.7 0.5 -0.2
v -0.7 0.7 -0.2
v -0.6 0.5 -0.2
v -0.6 0.7 -0.2
v -0.4 0.3 -0.2
v -0.4 0.5 -0.2
v -0.3 0.3 -0.2
v -0.3 0.5 -0.2
v -0.3 0.7 -0.2
v -0.2 0.5 -0.2
v -0.2 0.7 -0.2
v -0.8 0 -0.4
v -0.8 0.3 -0.4
v -0.7 0 -0.4
v -0.7 0.3 -0.4
v -0.4 0 -0.4
v -0.4 0.3 -0.4
v -0.3 0 -0.4
v -0.3 0.3 -0.4
v -0.8 0.3 -0.5
v -0.8 0.5 -0.5
v -0.7 0 -0.5
v -0.7 0.3 -0.5
v -0.7 0.5 -0.5
v -0.7 0.7 -0.5
v -0.6 0.5 -0.5
v -0.6 0.6 -0.5
v -0.6 0.7 -0.5
v -0.5 0.3 -0.5
v -0.4 0 -0.5
v -0.4 0.3 -0.5
v -0.4 0.5 -0.5
v -0.3 0.3 -0.5
v -0.3 0.5 -0.5
v -0.3 0.7 -0.5
v -0.2 0.5 -0.5
v -0.2 0.7 -0.5
v -0.7 0.3 -0.6
v -0.7 0.5 -0.6
v -0.6 0.5 -0.6
v -0.6 0.6 -0.6
v -0.6 0.7 -0.6
v -0.5 0.3 -0.6
v -0.5 0.6 -0.6
v -0.4 0.3 -0.6
v -0.4 0.5 -0.6
v -0.3 0.5 -0.6
v -0.3 0.7 -0.6
v -0.6 0 0.1
v -0.5 0 0.1
v -0.8 0 -1.49012e-08
v -0.7 0 -1.49012e-08
v -0.6 0 -1.49012e-08
v -0.5 0 -1.49012e-08
v -0.4 0 -1.49012e-08
v -0.3 0 -1.49012e-08
v -0.8 0 -0.1
v -0.7 0 -0.1
v -0.4 0 -0.1
v -0.3 0 -0.1
v -0.8 0 -0.4
v -0.7 0 -0.4
v -0.4 0 -0.4
v -0.3 0 -0.4
v -0.7 0 -0.5
v -0.4 0 -0.5
v -0.8 0.3 -0.4
v -0.7 0.3 -0.4
v -0.4 0.3 -0.4
v -0.3 0.3 -0.4
v -0.8 0.3 -0.5
v -0.7 0.3 -0.5
v -0.5 0.3 -0.5
v -0.4 0.3 -0.5
v -0.3 0.3 -0.5
v -0.7 0.3 -0.6
v -0.5 0.3 -0.6
v -0.4 0.3 -0.6
v -0.4 0.5 -0.1
v -0.3 0.5 -0.1
v -0.4 0.5 -0.2
v -0.3 0.5 -0.2
v -0.2 0.5 -0.2
v -0.4 0.5 -0.5
v -0.3 0.5 -0.5
v -0.2 0.5 -0.5
v -0.4 0.5 -0.6
v -0.3 0.5 -0.6
v -0.6 0.1 0.1
v -0.5 0.1 0.1
v -0.8 0.1 -1.49012e-08
v -0.7 0.1 -1.49012e-08
v -0.6 0.1 -1.49012e-08
v -0.5 0.1 -1.49012e-08
v -0.4 0.1 -1.49012e-08
v -0.3 0.1 -1.49012e-08
v -0.8 0.1 -0.1
v -0.7 0.1 -0.1
v -0.4 0.1 -0.1
v -0.3 0.1 -0.1
v -0.7 0.3 -1.49012e-08
v -0.4 0.3 -1.49012e-08
v -0.8 0.3 -0.1
v -0.7 0.3 -0.1
v -0.4 0.3 -0.1
v -0.3 0.3 -0.1
v -0.8 0.3 -0.2
v -0.7 0.3 -0.2
v -0.4 0.3 -0.2
v -0.3 0.3 -0.2
v -0.7 0.5 -0.1
v -0.6 0.5 -0.1
v -0.8 0.5 -0.2
v -0.7 0.5 -0.2
v -0.6 0.5 -0.2
v -0.8 0.5 -0.5
v -0.7 0.5 -0.5
v -0.6 0.5 -0.5
v -0.7 0.5 -0.6
v -0.6 0.5 -0.6
v -0.6 0.7 -0.1
v -0.3 0.7 -0.1
v -0.7 0.7 -0.2
v -0.6 0.7 -0.2
v -0.3 0.7 -0.2
v -0.2 0.7 -0.2
v -0.7 0.7 -0.5
v -0.6 0.7 -0.5
v -0.3 0.7 -0.5
v -0.2 0.7 -0.5
v -0.6 0.7 -0.6
v -0.3 0.7 -0.6

# faces
f 4/3/1 2/3/1 1/3/1
f 5/1/1 3/1/1 2/1/1
f 5/3/1 2/3/1 4/3/1
f 6/1/1 3/1/1 5/1/1
f 7/1/1 3/1/1 6/1/1
f 8/2/1 7/2/1 6/2/1
f 9/2/1 7/2/1 8/2/1
f 10/1/1 3/1/1 7/1/1
f 10/2/1 7/2/1 9/2/1
f 11/1/1 3/1/1 10/1/1
f 13/1/1 12/1/1 11/1/1
f 13/1/1 11/1/1 10/1/1
f 13/1/1 10/1/1 9/1/1
f 14/1/1 12/1/1 13/1/1
f 19/1/1 18/1/1 17/1/1
f 20/1/1 19/1/1 17/1/1
f 21/1/1 19/1/1 20/1/1
f 23/1/1 16/1/1 15/1/1
f 24/1/1 16/1/1 23/1/1
f 26/1/1 22/1/1 21/1/1
f 27/1/1 22/1/1 26/1/1
f 28/2/1 25/2/1 24/2/1
f 29/2/1 25/2/1 28/2/1
f 30/1/1 28/1/1 27/1/1
f 31/1/1 28/1/1 30/1/1
f 34/3/1 33/3/1 32/3/1
f 35/3/1 33/3/1 34/3/1
f 40/2/1 39/2/1 38/2/1
f 41/2/1 39/2/1 40/2/1
f 42/1/1 37/1/1 36/1/1
f 43/1/1 37/1/1 42/1/1
f 44/1/1 41/1/1 40/1/1
f 45/1/1 41/1/1 44/1/1
f 46/3/2 47/3/2 48/3/2
f 48/3/2 47/3/2 49/3/2
f 52/1/2 53/1/2 54/1/2
f 54/1/2 53/1/2 55/1/2
f 50/1/2 51/1/2 57/1/2
f 57/1/2 51/1/2 58/1/2
f 55/1/2 56/1/2 60/1/2
f 60/1/2 56/1/2 61/1/2
f 58/1/2 59/1/2 62/1/2
f 62/1/2 59/1/2 63/1/2
f 64/3/2 65/3/2 67/3/2
f 65/1/2 66/1/2 68/1/2
f 67/3/2 65/3/2 68/3/2
f 68/1/2 66/1/2 69/1/2
f 69/1/2 66/1/2 70/1/2
f 70/1/2 66/1/2 71/1/2
f 71/1/2 72/1/2 74/1/2
f 70/1/2 71/1/2 74/1/2
f 74/1/2 72/1/2 75/1/2
f 73/1/2 74/1/2 77/1/2
f 77/1/2 74/1/2 78/1/2
f 75/1/2 76/1/2 79/1/2
f 79/1/2 76/1/2 80/1/2
f 81/1/2 82/1/2 83/1/2
f 83/1/2 82/1/2 84/1/2
f 87/3/3 86/3/3 85/3/3
f 88/3/3 86/3/3 87/3/3
f 91/3/3 90/3/3 89/3/3
f 92/3/3 90/3/3 91/3/3
f 94/1/3 92/1/3 91/1/3
f 94/1/3 93/1/3 92/1/3
f 95/1/3 93/1/3 94/1/3
f 97/1/3 93/1/3 95/1/3
f 98/1/3 97/1/3 96/1/3
f 99/1/3 93/1/3 97/1/3
f 99/1/3 97/1/3 98/1/3
f 100/1/3 93/1/3 99/1/3
f 101/3/3 99/3/3 98/3/3
f 102/3/3 99/3/3 101/3/3
f 106/1/3 104/1/3 103/1/3
f 107/2/3 105/2/3 104/2/3
f 107/1/3 104/1/3 106/1/3
f 108/2/3 105/2/3 107/2/3
f 110/1/3 109/1/3 108/1/3
f 113/1/3 110/1/3 108/1/3
f 113/1/3 111/1/3 110/1/3
f 114/1/3 111/1/3 113/1/3
f 115/1/3 113/1/3 112/1/3
f 116/1/3 113/1/3 115/1/3
f 117/1/3 111/1/3 114/1/3
f 118/1/3 111/1/3 117/1/3
f 121/1/3 120/1/3 119/1/3
f 122/1/3 120/1/3 121/1/3
f 124/1/3 123/1/3 122/1/3
f 125/1/3 123/1/3 124/1/3
f 128/1/3 127/1/3 126/1/3
f 129/1/3 127/1/3 128/1/3
f 131/1/3 130/1/3 129/1/3
f 132/1/3 130/1/3 131/1/3
f 133/1/4 134/1/4 135/1/4
f 135/1/4 134/1/4 136/1/4
f 137/1/4 138/1/4 139/1/4
f 139/1/4 138/1/4 140/1/4
f 141/1/4 142/1/4 144/1/4
f 144/1/4 142/1/4 145/1/4
f 145/1/4 146/1/4 147/1/4
f 147/1/4 146/1/4 148/1/4
f 148/1/4 146/1/4 149/1/4
f 143/1/4 144/1/4 150/1/4
f 143/1/4 150/1/4 151/1/4
f 151/1/4 150/1/4 152/1/4
f 152/1/4 153/1/4 154/1/4
f 154/1/4 153/1/4 155/1/4
f 155/1/4 156/1/4 157/1/4
f 157/1/4 156/1/4 158/1/4
f 159/2/4 160/2/4 161/2/4
f 159/2/4 161/2/4 164/2/4
f 161/2/4 162/2/4 164/2/4
f 162/1/4 163/1/4 165/1/4
f 164/2/4 162/2/4 165/2/4
f 164/1/4 165/1/4 166/1/4
f 166/1/4 165/1/4 167/1/4
f 167/1/4 165/1/4 168/1/4
f 165/1/4 163/1/4 169/1/4
f 168/1/4 165/1/4 169/1/4
f 174/3/5 171/3/5 170/3/5
f 175/3/5 171/3/5 174/3/5
f 178/3/5 173/3/5 172/3/5
f 179/1/5 174/1/5 173/1/5
f 179/3/5 173/3/5 178/3/5
f 179/1/5 175/1/5 174/1/5
f 179/1/5 176/1/5 175/1/5
f 180/3/5 177/3/5 176/3/5
f 180/1/5 176/1/5 179/1/5
f 181/3/5 177/3/5 180/3/5
f 182/1/5 179/1/5 178/1/5
f 182/1/5 180/1/5 179/1/5
f 182/1/5 181/1/5 180/1/5
f 183/1/5 181/1/5 182/1/5
f 184/1/5 181/1/5 183/1/5
f 185/1/5 181/1/5 184/1/5
f 186/1/5 184/1/5 183/1/5
f 187/1/5 184/1/5 186/1/5
f 192/1/5 189/1/5 188/1/5
f 193/1/5 189/1/5 192/1/5
f 195/1/5 191/1/5 190/1/5
f 196/1/5 191/1/5 195/1/5
f 197/2/5 194/2/5 193/2/5
f 198/1/5 195/1/5 194/1/5
f 198/2/5 194/2/5 197/2/5
f 199/1/5 195/1/5 198/1/5
f 202/1/5 201/1/5 200/1/5
f 203/1/5 201/1/5 202/1/5
f 206/1/5 204/1/5 203/1/5
f 207/1/5 204/1/5 206/1/5
f 208/1/5 206/1/5 205/1/5
f 209/1/5 206/1/5 208/1/5
f 210/3/6 211/3/6 214/3/6
f 214/3/6 211/3/6 215/3/6
f 212/3/6 213/3/6 218/3/6
f 218/3/6 213/3/6 219/3/6
f 216/3/6 217/3/6 220/3/6
f 220/3/6 217/3/6 221/3/6
f 222/1/6 223/1/6 225/1/6
f 225/1/6 223/1/6 226/1/6
f 224/2/6 225/2/6 228/2/6
f 228/2/6 225/2/6 229/2/6
f 226/1/6 227/1/6 230/1/6
f 230/1/6 227/1/6 231/1/6
f 232/1/6 233/1/6 235/1/6
f 235/1/6 233/1/6 236/1/6
f 234/1/6 235/1/6 237/1/6
f 237/1/6 235/1/6 238/1/6
f 238/2/6 239/2/6 240/2/6
f 240/2/6 239/2/6 241/2/6
f 242/1/6 243/1/6 245/1/6
f 245/1/6 243/1/6 246/1/6
f 244/1/6 245/1/6 248/1/6
f 246/1/6 247/1/6 248/1/6
f 245/1/6 246/1/6 248/1/6
f 248/1/6 247/1/6 249/1/6
f 249/1/6 247/1/6 250/1/6
f 250/1/6 247/1/6 251/1/6
f 249/1/6 250/1/6 252/1/6
f 252/1/6 250/1/6 253/1/6
