# MagicaVoxel @ Ephtracy

# group
o 

# material
mtllib ivysaur-2.mtl
usemtl palette

# normals
vn -1 0 0
vn 1 0 0
vn 0 0 1
vn 0 0 -1
vn 0 -1 0
vn 0 1 0

# texcoords
vt 0.853516 0.5
vt 0.884766 0.5
vt 0.888672 0.5

# verts
v 0.2 0.5 -0.2
v 0.2 0.5 -0.5
v 0.2 0.7 -0.2
v 0.2 0.7 -0.5
v 0.3 0 -1.49012e-08
v 0.3 0 -0.1
v 0.3 0 -0.4
v 0.3 0.1 -1.49012e-08
v 0.3 0.1 -0.1
v 0.3 0.3 -0.1
v 0.3 0.3 -0.2
v 0.3 0.3 -0.4
v 0.3 0.3 -0.5
v 0.3 0.5 -0.1
v 0.3 0.5 -0.2
v 0.3 0.5 -0.5
v 0.3 0.5 -0.6
v 0.3 0.7 -0.1
v 0.3 0.7 -0.2
v 0.3 0.7 -0.5
v 0.3 0.7 -0.6
v 0.4 0 -0.4
v 0.4 0 -0.5
v 0.4 0.1 -1.49012e-08
v 0.4 0.1 -0.1
v 0.4 0.1 -0.4
v 0.4 0.1 -0.5
v 0.4 0.2 -0.4
v 0.4 0.2 -0.5
v 0.4 0.3 -1.49012e-08
v 0.4 0.3 -0.1
v 0.4 0.3 -0.2
v 0.4 0.3 -0.4
v 0.4 0.3 -0.5
v 0.4 0.3 -0.6
v 0.4 0.5 -0.1
v 0.4 0.5 -0.2
v 0.4 0.5 -0.5
v 0.4 0.5 -0.6
v 0.5 0 0.1
v 0.5 0 -1.49012e-08
v 0.5 0.1 0.1
v 0.5 0.1 -1.49012e-08
v 0.6 0 0.1
v 0.6 0 -1.49012e-08
v 0.6 0.1 0.1
v 0.6 0.1 -1.49012e-08
v 0.6 0.5 -0.1
v 0.6 0.5 -0.2
v 0.6 0.5 -0.5
v 0.6 0.5 -0.6
v 0.6 0.7 -0.1
v 0.6 0.7 -0.2
v 0.6 0.7 -0.5
v 0.6 0.7 -0.6
v 0.7 0 -0.4
v 0.7 0 -0.5
v 0.7 0.1 -1.49012e-08
v 0.7 0.1 -0.1
v 0.7 0.3 -1.49012e-08
v 0.7 0.3 -0.1
v 0.7 0.3 -0.2
v 0.7 0.3 -0.4
v 0.7 0.3 -0.5
v 0.7 0.3 -0.6
v 0.7 0.4 -0.5
v 0.7 0.5 -0.1
v 0.7 0.5 -0.2
v 0.7 0.5 -0.3
v 0.7 0.5 -0.4
v 0.7 0.5 -0.5
v 0.7 0.5 -0.6
v 0.7 0.6 -0.3
v 0.7 0.6 -0.4
v 0.7 0.7 -0.2
v 0.7 0.7 -0.5
v 0.8 0 -1.49012e-08
v 0.8 0 -0.1
v 0.8 0 -0.4
v 0.8 0.1 -1.49012e-08
v 0.8 0.1 -0.1
v 0.8 0.3 -0.1
v 0.8 0.3 -0.2
v 0.8 0.3 -0.4
v 0.8 0.3 -0.5
v 0.8 0.4 -0.3
v 0.8 0.4 -0.5
v 0.8 0.5 -0.2
v 0.8 0.5 -0.3
v 0.8 0.5 -0.5
v 0.5 0 0.1
v 0.5 0.1 0.1
v 0.6 0 0.1
v 0.6 0.1 0.1
v 0.3 0 -1.49012e-08
v 0.3 0.1 -1.49012e-08
v 0.4 0 -1.49012e-08
v 0.4 0.1 -1.49012e-08
v 0.4 0.3 -1.49012e-08
v 0.5 0 -1.49012e-08
v 0.5 0.1 -1.49012e-08
v 0.6 0 -1.49012e-08
v 0.6 0.1 -1.49012e-08
v 0.7 0 -1.49012e-08
v 0.7 0.1 -1.49012e-08
v 0.7 0.3 -1.49012e-08
v 0.8 0 -1.49012e-08
v 0.8 0.1 -1.49012e-08
v 0.3 0.1 -0.1
v 0.3 0.3 -0.1
v 0.3 0.5 -0.1
v 0.3 0.7 -0.1
v 0.4 0.1 -0.1
v 0.4 0.3 -0.1
v 0.4 0.5 -0.1
v 0.6 0.5 -0.1
v 0.6 0.7 -0.1
v 0.7 0.1 -0.1
v 0.7 0.3 -0.1
v 0.7 0.5 -0.1
v 0.8 0.1 -0.1
v 0.8 0.3 -0.1
v 0.2 0.5 -0.2
v 0.2 0.7 -0.2
v 0.3 0.3 -0.2
v 0.3 0.5 -0.2
v 0.3 0.7 -0.2
v 0.4 0.3 -0.2
v 0.4 0.5 -0.2
v 0.6 0.5 -0.2
v 0.6 0.7 -0.2
v 0.7 0.3 -0.2
v 0.7 0.5 -0.2
v 0.7 0.7 -0.2
v 0.8 0.3 -0.2
v 0.8 0.5 -0.2
v 0.3 0 -0.4
v 0.3 0.3 -0.4
v 0.4 0 -0.4
v 0.4 0.1 -0.4
v 0.4 0.2 -0.4
v 0.4 0.3 -0.4
v 0.7 0 -0.4
v 0.7 0.3 -0.4
v 0.8 0 -0.4
v 0.8 0.3 -0.4
v 0.2 0.5 -0.5
v 0.2 0.7 -0.5
v 0.3 0.3 -0.5
v 0.3 0.5 -0.5
v 0.3 0.7 -0.5
v 0.4 0 -0.5
v 0.4 0.1 -0.5
v 0.4 0.2 -0.5
v 0.4 0.3 -0.5
v 0.4 0.5 -0.5
v 0.6 0.1 -0.5
v 0.6 0.2 -0.5
v 0.6 0.5 -0.5
v 0.6 0.7 -0.5
v 0.7 0 -0.5
v 0.7 0.3 -0.5
v 0.7 0.4 -0.5
v 0.7 0.5 -0.5
v 0.7 0.7 -0.5
v 0.8 0.3 -0.5
v 0.8 0.4 -0.5
v 0.8 0.5 -0.5
v 0.3 0.5 -0.6
v 0.3 0.7 -0.6
v 0.4 0.3 -0.6
v 0.4 0.5 -0.6
v 0.6 0.5 -0.6
v 0.6 0.7 -0.6
v 0.7 0.3 -0.6
v 0.7 0.5 -0.6
v 0.5 0 0.1
v 0.6 0 0.1
v 0.3 0 -1.49012e-08
v 0.4 0 -1.49012e-08
v 0.5 0 -1.49012e-08
v 0.6 0 -1.49012e-08
v 0.7 0 -1.49012e-08
v 0.8 0 -1.49012e-08
v 0.3 0 -0.1
v 0.4 0 -0.1
v 0.7 0 -0.1
v 0.8 0 -0.1
v 0.3 0 -0.4
v 0.4 0 -0.4
v 0.7 0 -0.4
v 0.8 0 -0.4
v 0.4 0 -0.5
v 0.7 0 -0.5
v 0.3 0.3 -0.4
v 0.4 0.3 -0.4
v 0.7 0.3 -0.4
v 0.8 0.3 -0.4
v 0.3 0.3 -0.5
v 0.4 0.3 -0.5
v 0.7 0.3 -0.5
v 0.8 0.3 -0.5
v 0.4 0.3 -0.6
v 0.7 0.3 -0.6
v 0.3 0.5 -0.1
v 0.4 0.5 -0.1
v 0.2 0.5 -0.2
v 0.3 0.5 -0.2
v 0.4 0.5 -0.2
v 0.2 0.5 -0.5
v 0.3 0.5 -0.5
v 0.4 0.5 -0.5
v 0.3 0.5 -0.6
v 0.4 0.5 -0.6
v 0.5 0.1 0.1
v 0.6 0.1 0.1
v 0.3 0.1 -1.49012e-08
v 0.4 0.1 -1.49012e-08
v 0.5 0.1 -1.49012e-08
v 0.6 0.1 -1.49012e-08
v 0.7 0.1 -1.49012e-08
v 0.8 0.1 -1.49012e-08
v 0.3 0.1 -0.1
v 0.4 0.1 -0.1
v 0.7 0.1 -0.1
v 0.8 0.1 -0.1
v 0.4 0.3 -1.49012e-08
v 0.7 0.3 -1.49012e-08
v 0.3 0.3 -0.1
v 0.4 0.3 -0.1
v 0.7 0.3 -0.1
v 0.8 0.3 -0.1
v 0.3 0.3 -0.2
v 0.4 0.3 -0.2
v 0.7 0.3 -0.2
v 0.8 0.3 -0.2
v 0.6 0.5 -0.1
v 0.7 0.5 -0.1
v 0.6 0.5 -0.2
v 0.7 0.5 -0.2
v 0.8 0.5 -0.2
v 0.7 0.5 -0.3
v 0.8 0.5 -0.3
v 0.7 0.5 -0.4
v 0.6 0.5 -0.5
v 0.7 0.5 -0.5
v 0.8 0.5 -0.5
v 0.6 0.5 -0.6
v 0.7 0.5 -0.6
v 0.3 0.7 -0.1
v 0.6 0.7 -0.1
v 0.2 0.7 -0.2
v 0.3 0.7 -0.2
v 0.6 0.7 -0.2
v 0.7 0.7 -0.2
v 0.2 0.7 -0.5
v 0.3 0.7 -0.5
v 0.6 0.7 -0.5
v 0.7 0.7 -0.5
v 0.3 0.7 -0.6
v 0.6 0.7 -0.6

# faces
f 3/1/1 2/1/1 1/1/1
f 4/1/1 2/1/1 3/1/1
f 8/3/1 6/3/1 5/3/1
f 9/1/1 7/1/1 6/1/1
f 9/3/1 6/3/1 8/3/1
f 10/1/1 7/1/1 9/1/1
f 11/1/1 7/1/1 10/1/1
f 12/1/1 7/1/1 11/1/1
f 15/1/1 13/1/1 12/1/1
f 15/1/1 12/1/1 11/1/1
f 16/1/1 13/1/1 15/1/1
f 18/1/1 15/1/1 14/1/1
f 19/1/1 15/1/1 18/1/1
f 20/1/1 17/1/1 16/1/1
f 21/1/1 17/1/1 20/1/1
f 26/1/1 23/1/1 22/1/1
f 27/1/1 23/1/1 26/1/1
f 28/2/1 27/2/1 26/2/1
f 29/2/1 27/2/1 28/2/1
f 30/1/1 25/1/1 24/1/1
f 31/1/1 25/1/1 30/1/1
f 33/1/1 29/1/1 28/1/1
f 34/1/1 29/1/1 33/1/1
f 36/1/1 32/1/1 31/1/1
f 37/1/1 32/1/1 36/1/1
f 38/1/1 35/1/1 34/1/1
f 39/1/1 35/1/1 38/1/1
f 42/3/1 41/3/1 40/3/1
f 43/3/1 41/3/1 42/3/1
f 44/3/2 45/3/2 46/3/2
f 46/3/2 45/3/2 47/3/2
f 48/1/2 49/1/2 52/1/2
f 52/1/2 49/1/2 53/1/2
f 50/1/2 51/1/2 54/1/2
f 54/1/2 51/1/2 55/1/2
f 58/1/2 59/1/2 60/1/2
f 60/1/2 59/1/2 61/1/2
f 56/1/2 57/1/2 63/1/2
f 63/1/2 57/1/2 64/1/2
f 64/1/2 65/1/2 66/1/2
f 61/1/2 62/1/2 67/1/2
f 67/1/2 62/1/2 68/1/2
f 66/1/2 65/1/2 71/1/2
f 71/1/2 65/1/2 72/1/2
f 69/2/2 70/2/2 73/2/2
f 68/1/2 69/1/2 73/1/2
f 70/1/2 71/1/2 74/1/2
f 73/2/2 70/2/2 74/2/2
f 68/1/2 73/1/2 75/1/2
f 73/1/2 74/1/2 75/1/2
f 74/1/2 71/1/2 76/1/2
f 75/1/2 74/1/2 76/1/2
f 77/3/2 78/3/2 80/3/2
f 78/1/2 79/1/2 81/1/2
f 80/3/2 78/3/2 81/3/2
f 81/1/2 79/1/2 82/1/2
f 82/1/2 79/1/2 83/1/2
f 83/1/2 79/1/2 84/1/2
f 84/1/2 85/1/2 86/1/2
f 83/1/2 84/1/2 86/1/2
f 86/1/2 85/1/2 87/1/2
f 83/1/2 86/1/2 88/1/2
f 86/2/2 87/2/2 89/2/2
f 88/1/2 86/1/2 89/1/2
f 89/2/2 87/2/2 90/2/2
f 93/3/3 92/3/3 91/3/3
f 94/3/3 92/3/3 93/3/3
f 97/3/3 96/3/3 95/3/3
f 98/3/3 96/3/3 97/3/3
f 100/1/3 98/1/3 97/1/3
f 100/1/3 99/1/3 98/1/3
f 101/1/3 99/1/3 100/1/3
f 103/1/3 99/1/3 101/1/3
f 104/1/3 103/1/3 102/1/3
f 105/1/3 99/1/3 103/1/3
f 105/1/3 103/1/3 104/1/3
f 106/1/3 99/1/3 105/1/3
f 107/3/3 105/3/3 104/3/3
f 108/3/3 105/3/3 107/3/3
f 113/1/3 110/1/3 109/1/3
f 114/1/3 110/1/3 113/1/3
f 115/1/3 112/1/3 111/1/3
f 116/1/3 115/1/3 114/1/3
f 116/1/3 112/1/3 115/1/3
f 117/1/3 112/1/3 116/1/3
f 119/1/3 116/1/3 114/1/3
f 120/1/3 116/1/3 119/1/3
f 121/1/3 119/1/3 118/1/3
f 122/1/3 119/1/3 121/1/3
f 126/1/3 124/1/3 123/1/3
f 127/1/3 124/1/3 126/1/3
f 128/1/3 126/1/3 125/1/3
f 129/1/3 126/1/3 128/1/3
f 133/1/3 131/1/3 130/1/3
f 134/1/3 131/1/3 133/1/3
f 135/1/3 133/1/3 132/1/3
f 136/1/3 133/1/3 135/1/3
f 137/1/4 138/1/4 139/1/4
f 139/1/4 138/1/4 140/1/4
f 140/1/4 138/1/4 141/1/4
f 141/1/4 138/1/4 142/1/4
f 143/1/4 144/1/4 145/1/4
f 145/1/4 144/1/4 146/1/4
f 147/1/4 148/1/4 150/1/4
f 150/1/4 148/1/4 151/1/4
f 149/1/4 150/1/4 155/1/4
f 155/1/4 150/1/4 156/1/4
f 153/2/4 154/2/4 157/2/4
f 152/1/4 153/1/4 157/1/4
f 154/1/4 155/1/4 158/1/4
f 157/2/4 154/2/4 158/2/4
f 152/1/4 157/1/4 161/1/4
f 157/1/4 158/1/4 161/1/4
f 158/1/4 155/1/4 162/1/4
f 161/1/4 158/1/4 162/1/4
f 159/1/4 160/1/4 164/1/4
f 164/1/4 160/1/4 165/1/4
f 162/1/4 163/1/4 166/1/4
f 163/2/4 164/2/4 167/2/4
f 166/1/4 163/1/4 167/1/4
f 167/2/4 164/2/4 168/2/4
f 169/1/4 170/1/4 172/1/4
f 172/1/4 170/1/4 173/1/4
f 171/1/4 172/1/4 173/1/4
f 173/1/4 170/1/4 174/1/4
f 171/1/4 173/1/4 175/1/4
f 175/1/4 173/1/4 176/1/4
f 181/3/5 178/3/5 177/3/5
f 182/3/5 178/3/5 181/3/5
f 185/3/5 180/3/5 179/3/5
f 186/1/5 181/1/5 180/1/5
f 186/3/5 180/3/5 185/3/5
f 186/1/5 182/1/5 181/1/5
f 186/1/5 183/1/5 182/1/5
f 187/3/5 184/3/5 183/3/5
f 187/1/5 183/1/5 186/1/5
f 188/3/5 184/3/5 187/3/5
f 189/1/5 186/1/5 185/1/5
f 189/1/5 187/1/5 186/1/5
f 189/1/5 188/1/5 187/1/5
f 190/1/5 188/1/5 189/1/5
f 191/1/5 188/1/5 190/1/5
f 192/1/5 188/1/5 191/1/5
f 193/1/5 191/1/5 190/1/5
f 194/1/5 191/1/5 193/1/5
f 199/1/5 196/1/5 195/1/5
f 200/1/5 196/1/5 199/1/5
f 201/1/5 198/1/5 197/1/5
f 202/1/5 198/1/5 201/1/5
f 203/1/5 201/1/5 200/1/5
f 204/1/5 201/1/5 203/1/5
f 208/1/5 206/1/5 205/1/5
f 209/1/5 206/1/5 208/1/5
f 210/1/5 208/1/5 207/1/5
f 211/1/5 208/1/5 210/1/5
f 213/1/5 212/1/5 211/1/5
f 214/1/5 212/1/5 213/1/5
f 215/3/6 216/3/6 219/3/6
f 219/3/6 216/3/6 220/3/6
f 217/3/6 218/3/6 223/3/6
f 223/3/6 218/3/6 224/3/6
f 221/3/6 222/3/6 225/3/6
f 225/3/6 222/3/6 226/3/6
f 227/1/6 228/1/6 230/1/6
f 230/1/6 228/1/6 231/1/6
f 229/1/6 230/1/6 233/1/6
f 233/1/6 230/1/6 234/1/6
f 231/1/6 232/1/6 235/1/6
f 235/1/6 232/1/6 236/1/6
f 237/1/6 238/1/6 239/1/6
f 239/1/6 238/1/6 240/1/6
f 240/1/6 241/1/6 242/1/6
f 242/1/6 241/1/6 243/1/6
f 242/2/6 243/2/6 244/2/6
f 244/2/6 243/2/6 246/2/6
f 246/2/6 243/2/6 247/2/6
f 245/1/6 246/1/6 248/1/6
f 248/1/6 246/1/6 249/1/6
f 250/1/6 251/1/6 253/1/6
f 253/1/6 251/1/6 254/1/6
f 252/1/6 253/1/6 256/1/6
f 254/1/6 255/1/6 256/1/6
f 253/1/6 254/1/6 256/1/6
f 256/1/6 255/1/6 257/1/6
f 257/1/6 255/1/6 258/1/6
f 258/1/6 255/1/6 259/1/6
f 257/1/6 258/1/6 260/1/6
f 260/1/6 258/1/6 261/1/6
