# MagicaVoxel @ Ephtracy

# group
o 

# material
mtllib ivysaur-4.mtl
usemtl palette

# normals
vn -1 0 0
vn 1 0 0
vn 0 0 1
vn 0 0 -1
vn 0 -1 0
vn 0 1 0

# texcoords
vt 0.853516 0.5
vt 0.884766 0.5
vt 0.888672 0.5

# verts
v -0.7 0 1.1
v -0.7 0 1
v -0.7 0 0.7
v -0.7 0.1 1.1
v -0.7 0.1 1
v -0.7 0.2 1
v -0.7 0.2 0.9
v -0.7 0.3 1
v -0.7 0.3 0.9
v -0.7 0.3 0.8
v -0.7 0.3 0.7
v -0.7 0.3 0.6
v -0.7 0.4 0.9
v -0.7 0.4 0.8
v -0.7 0.5 0.9
v -0.7 0.5 0.6
v -0.6 0 0.7
v -0.6 0 0.6
v -0.6 0.1 1.1
v -0.6 0.1 1
v -0.6 0.2 1
v -0.6 0.3 1.1
v -0.6 0.3 1
v -0.6 0.3 0.9
v -0.6 0.3 0.7
v -0.6 0.3 0.6
v -0.6 0.3 0.5
v -0.6 0.4 0.9
v -0.6 0.5 1
v -0.6 0.5 0.9
v -0.6 0.5 0.6
v -0.6 0.5 0.5
v -0.6 0.7 0.9
v -0.6 0.7 0.6
v -0.5 0 1.2
v -0.5 0 1.1
v -0.5 0.1 1.2
v -0.5 0.1 1.1
v -0.5 0.5 1
v -0.5 0.5 0.9
v -0.5 0.5 0.6
v -0.5 0.5 0.5
v -0.5 0.7 1
v -0.5 0.7 0.9
v -0.5 0.7 0.6
v -0.5 0.7 0.5
v -0.4 0 1.2
v -0.4 0 1.1
v -0.4 0.1 1.2
v -0.4 0.1 1.1
v -0.3 0 0.7
v -0.3 0 0.6
v -0.3 0.1 1.1
v -0.3 0.1 1
v -0.3 0.3 1.1
v -0.3 0.3 1
v -0.3 0.3 0.9
v -0.3 0.3 0.7
v -0.3 0.3 0.6
v -0.3 0.3 0.5
v -0.3 0.5 1
v -0.3 0.5 0.9
v -0.3 0.5 0.6
v -0.3 0.5 0.5
v -0.2 0 1.1
v -0.2 0 1
v -0.2 0 0.7
v -0.2 0.1 1.1
v -0.2 0.1 1
v -0.2 0.3 1
v -0.2 0.3 0.9
v -0.2 0.3 0.7
v -0.2 0.3 0.6
v -0.2 0.5 1
v -0.2 0.5 0.9
v -0.2 0.5 0.6
v -0.2 0.5 0.5
v -0.2 0.7 1
v -0.2 0.7 0.9
v -0.2 0.7 0.6
v -0.2 0.7 0.5
v -0.1 0.5 0.9
v -0.1 0.5 0.6
v -0.1 0.7 0.9
v -0.1 0.7 0.6
v -0.5 0 1.2
v -0.5 0.1 1.2
v -0.4 0 1.2
v -0.4 0.1 1.2
v -0.7 0 1.1
v -0.7 0.1 1.1
v -0.6 0 1.1
v -0.6 0.1 1.1
v -0.6 0.3 1.1
v -0.5 0 1.1
v -0.5 0.1 1.1
v -0.4 0 1.1
v -0.4 0.1 1.1
v -0.3 0 1.1
v -0.3 0.1 1.1
v -0.3 0.3 1.1
v -0.2 0 1.1
v -0.2 0.1 1.1
v -0.7 0.1 1
v -0.7 0.2 1
v -0.7 0.3 1
v -0.6 0.1 1
v -0.6 0.2 1
v -0.6 0.3 1
v -0.6 0.5 1
v -0.5 0.5 1
v -0.5 0.7 1
v -0.3 0.1 1
v -0.3 0.3 1
v -0.3 0.5 1
v -0.2 0.1 1
v -0.2 0.3 1
v -0.2 0.5 1
v -0.2 0.7 1
v -0.7 0.3 0.9
v -0.7 0.4 0.9
v -0.7 0.5 0.9
v -0.6 0.3 0.9
v -0.6 0.4 0.9
v -0.6 0.5 0.9
v -0.6 0.7 0.9
v -0.5 0.5 0.9
v -0.5 0.7 0.9
v -0.3 0.3 0.9
v -0.3 0.5 0.9
v -0.2 0.3 0.9
v -0.2 0.5 0.9
v -0.2 0.7 0.9
v -0.1 0.5 0.9
v -0.1 0.7 0.9
v -0.7 0 0.7
v -0.7 0.3 0.7
v -0.6 0 0.7
v -0.6 0.3 0.7
v -0.3 0 0.7
v -0.3 0.3 0.7
v -0.2 0 0.7
v -0.2 0.3 0.7
v -0.7 0.3 0.6
v -0.7 0.5 0.6
v -0.6 0 0.6
v -0.6 0.3 0.6
v -0.6 0.5 0.6
v -0.6 0.7 0.6
v -0.5 0.5 0.6
v -0.5 0.7 0.6
v -0.3 0 0.6
v -0.3 0.3 0.6
v -0.3 0.5 0.6
v -0.2 0.3 0.6
v -0.2 0.5 0.6
v -0.2 0.7 0.6
v -0.1 0.5 0.6
v -0.1 0.7 0.6
v -0.6 0.3 0.5
v -0.6 0.5 0.5
v -0.5 0.5 0.5
v -0.5 0.7 0.5
v -0.3 0.3 0.5
v -0.3 0.5 0.5
v -0.2 0.5 0.5
v -0.2 0.7 0.5
v -0.5 0 1.2
v -0.4 0 1.2
v -0.7 0 1.1
v -0.6 0 1.1
v -0.5 0 1.1
v -0.4 0 1.1
v -0.3 0 1.1
v -0.2 0 1.1
v -0.7 0 1
v -0.6 0 1
v -0.3 0 1
v -0.2 0 1
v -0.7 0 0.7
v -0.6 0 0.7
v -0.3 0 0.7
v -0.2 0 0.7
v -0.6 0 0.6
v -0.3 0 0.6
v -0.7 0.3 0.7
v -0.6 0.3 0.7
v -0.3 0.3 0.7
v -0.2 0.3 0.7
v -0.7 0.3 0.6
v -0.6 0.3 0.6
v -0.3 0.3 0.6
v -0.2 0.3 0.6
v -0.6 0.3 0.5
v -0.3 0.3 0.5
v -0.3 0.5 1
v -0.2 0.5 1
v -0.3 0.5 0.9
v -0.2 0.5 0.9
v -0.1 0.5 0.9
v -0.3 0.5 0.6
v -0.2 0.5 0.6
v -0.1 0.5 0.6
v -0.3 0.5 0.5
v -0.2 0.5 0.5
v -0.5 0.1 1.2
v -0.4 0.1 1.2
v -0.7 0.1 1.1
v -0.6 0.1 1.1
v -0.5 0.1 1.1
v -0.4 0.1 1.1
v -0.3 0.1 1.1
v -0.2 0.1 1.1
v -0.7 0.1 1
v -0.6 0.1 1
v -0.3 0.1 1
v -0.2 0.1 1
v -0.6 0.3 1.1
v -0.3 0.3 1.1
v -0.7 0.3 1
v -0.6 0.3 1
v -0.3 0.3 1
v -0.2 0.3 1
v -0.7 0.3 0.9
v -0.6 0.3 0.9
v -0.3 0.3 0.9
v -0.2 0.3 0.9
v -0.6 0.5 1
v -0.5 0.5 1
v -0.7 0.5 0.9
v -0.6 0.5 0.9
v -0.5 0.5 0.9
v -0.7 0.5 0.6
v -0.6 0.5 0.6
v -0.5 0.5 0.6
v -0.6 0.5 0.5
v -0.5 0.5 0.5
v -0.5 0.7 1
v -0.2 0.7 1
v -0.6 0.7 0.9
v -0.5 0.7 0.9
v -0.2 0.7 0.9
v -0.1 0.7 0.9
v -0.6 0.7 0.6
v -0.5 0.7 0.6
v -0.2 0.7 0.6
v -0.1 0.7 0.6
v -0.5 0.7 0.5
v -0.2 0.7 0.5

# faces
f 4/3/1 2/3/1 1/3/1
f 5/1/1 3/1/1 2/1/1
f 5/3/1 2/3/1 4/3/1
f 6/1/1 3/1/1 5/1/1
f 7/1/1 3/1/1 6/1/1
f 8/2/1 7/2/1 6/2/1
f 9/1/1 3/1/1 7/1/1
f 9/2/1 7/2/1 8/2/1
f 10/1/1 3/1/1 9/1/1
f 11/1/1 3/1/1 10/1/1
f 13/2/1 10/2/1 9/2/1
f 14/1/1 12/1/1 11/1/1
f 14/2/1 10/2/1 13/2/1
f 14/1/1 11/1/1 10/1/1
f 15/1/1 14/1/1 13/1/1
f 16/1/1 12/1/1 14/1/1
f 16/1/1 14/1/1 15/1/1
f 21/1/1 20/1/1 19/1/1
f 22/1/1 21/1/1 19/1/1
f 23/1/1 21/1/1 22/1/1
f 25/1/1 18/1/1 17/1/1
f 26/1/1 18/1/1 25/1/1
f 28/1/1 24/1/1 23/1/1
f 29/1/1 28/1/1 23/1/1
f 30/1/1 28/1/1 29/1/1
f 31/1/1 27/1/1 26/1/1
f 32/1/1 27/1/1 31/1/1
f 33/1/1 31/1/1 30/1/1
f 34/1/1 31/1/1 33/1/1
f 37/3/1 36/3/1 35/3/1
f 38/3/1 36/3/1 37/3/1
f 43/1/1 40/1/1 39/1/1
f 44/1/1 40/1/1 43/1/1
f 45/1/1 42/1/1 41/1/1
f 46/1/1 42/1/1 45/1/1
f 47/3/2 48/3/2 49/3/2
f 49/3/2 48/3/2 50/3/2
f 53/1/2 54/1/2 55/1/2
f 55/1/2 54/1/2 56/1/2
f 51/1/2 52/1/2 58/1/2
f 58/1/2 52/1/2 59/1/2
f 56/1/2 57/1/2 61/1/2
f 61/1/2 57/1/2 62/1/2
f 59/1/2 60/1/2 63/1/2
f 63/1/2 60/1/2 64/1/2
f 65/3/2 66/3/2 68/3/2
f 66/1/2 67/1/2 69/1/2
f 68/3/2 66/3/2 69/3/2
f 69/1/2 67/1/2 70/1/2
f 70/1/2 67/1/2 71/1/2
f 71/1/2 67/1/2 72/1/2
f 72/1/2 73/1/2 75/1/2
f 71/1/2 72/1/2 75/1/2
f 75/1/2 73/1/2 76/1/2
f 74/1/2 75/1/2 78/1/2
f 78/1/2 75/1/2 79/1/2
f 76/1/2 77/1/2 80/1/2
f 80/1/2 77/1/2 81/1/2
f 82/1/2 83/1/2 84/1/2
f 84/1/2 83/1/2 85/1/2
f 88/3/3 87/3/3 86/3/3
f 89/3/3 87/3/3 88/3/3
f 92/3/3 91/3/3 90/3/3
f 93/3/3 91/3/3 92/3/3
f 95/1/3 93/1/3 92/1/3
f 95/1/3 94/1/3 93/1/3
f 96/1/3 94/1/3 95/1/3
f 98/1/3 94/1/3 96/1/3
f 99/1/3 98/1/3 97/1/3
f 100/1/3 94/1/3 98/1/3
f 100/1/3 98/1/3 99/1/3
f 101/1/3 94/1/3 100/1/3
f 102/3/3 100/3/3 99/3/3
f 103/3/3 100/3/3 102/3/3
f 107/1/3 105/1/3 104/1/3
f 108/2/3 106/2/3 105/2/3
f 108/1/3 105/1/3 107/1/3
f 109/2/3 106/2/3 108/2/3
f 111/1/3 110/1/3 109/1/3
f 114/1/3 111/1/3 109/1/3
f 114/1/3 112/1/3 111/1/3
f 115/1/3 112/1/3 114/1/3
f 116/1/3 114/1/3 113/1/3
f 117/1/3 114/1/3 116/1/3
f 118/1/3 112/1/3 115/1/3
f 119/1/3 112/1/3 118/1/3
f 123/2/3 121/2/3 120/2/3
f 124/1/3 122/1/3 121/1/3
f 124/2/3 121/2/3 123/2/3
f 125/1/3 122/1/3 124/1/3
f 127/1/3 126/1/3 125/1/3
f 128/1/3 126/1/3 127/1/3
f 131/1/3 130/1/3 129/1/3
f 132/1/3 130/1/3 131/1/3
f 134/1/3 133/1/3 132/1/3
f 135/1/3 133/1/3 134/1/3
f 136/1/4 137/1/4 138/1/4
f 138/1/4 137/1/4 139/1/4
f 140/1/4 141/1/4 142/1/4
f 142/1/4 141/1/4 143/1/4
f 144/1/4 145/1/4 147/1/4
f 147/1/4 145/1/4 148/1/4
f 148/1/4 149/1/4 150/1/4
f 150/1/4 149/1/4 151/1/4
f 146/1/4 147/1/4 152/1/4
f 152/1/4 147/1/4 153/1/4
f 153/1/4 154/1/4 155/1/4
f 155/1/4 154/1/4 156/1/4
f 156/1/4 157/1/4 158/1/4
f 158/1/4 157/1/4 159/1/4
f 160/1/4 161/1/4 162/1/4
f 160/1/4 162/1/4 164/1/4
f 162/1/4 163/1/4 164/1/4
f 164/1/4 163/1/4 165/1/4
f 165/1/4 163/1/4 166/1/4
f 166/1/4 163/1/4 167/1/4
f 172/3/5 169/3/5 168/3/5
f 173/3/5 169/3/5 172/3/5
f 176/3/5 171/3/5 170/3/5
f 177/1/5 172/1/5 171/1/5
f 177/3/5 171/3/5 176/3/5
f 177/1/5 173/1/5 172/1/5
f 177/1/5 174/1/5 173/1/5
f 178/3/5 175/3/5 174/3/5
f 178/1/5 174/1/5 177/1/5
f 179/3/5 175/3/5 178/3/5
f 180/1/5 177/1/5 176/1/5
f 180/1/5 178/1/5 177/1/5
f 180/1/5 179/1/5 178/1/5
f 181/1/5 179/1/5 180/1/5
f 182/1/5 179/1/5 181/1/5
f 183/1/5 179/1/5 182/1/5
f 184/1/5 182/1/5 181/1/5
f 185/1/5 182/1/5 184/1/5
f 190/1/5 187/1/5 186/1/5
f 191/1/5 187/1/5 190/1/5
f 192/1/5 189/1/5 188/1/5
f 193/1/5 189/1/5 192/1/5
f 194/1/5 192/1/5 191/1/5
f 195/1/5 192/1/5 194/1/5
f 198/1/5 197/1/5 196/1/5
f 199/1/5 197/1/5 198/1/5
f 202/1/5 200/1/5 199/1/5
f 203/1/5 200/1/5 202/1/5
f 204/1/5 202/1/5 201/1/5
f 205/1/5 202/1/5 204/1/5
f 206/3/6 207/3/6 210/3/6
f 210/3/6 207/3/6 211/3/6
f 208/3/6 209/3/6 214/3/6
f 214/3/6 209/3/6 215/3/6
f 212/3/6 213/3/6 216/3/6
f 216/3/6 213/3/6 217/3/6
f 218/1/6 219/1/6 221/1/6
f 221/1/6 219/1/6 222/1/6
f 220/2/6 221/2/6 224/2/6
f 224/2/6 221/2/6 225/2/6
f 222/1/6 223/1/6 226/1/6
f 226/1/6 223/1/6 227/1/6
f 228/1/6 229/1/6 231/1/6
f 231/1/6 229/1/6 232/1/6
f 230/1/6 231/1/6 233/1/6
f 233/1/6 231/1/6 234/1/6
f 234/1/6 235/1/6 236/1/6
f 236/1/6 235/1/6 237/1/6
f 238/1/6 239/1/6 241/1/6
f 241/1/6 239/1/6 242/1/6
f 240/1/6 241/1/6 244/1/6
f 242/1/6 243/1/6 244/1/6
f 241/1/6 242/1/6 244/1/6
f 244/1/6 243/1/6 245/1/6
f 245/1/6 243/1/6 246/1/6
f 246/1/6 243/1/6 247/1/6
f 245/1/6 246/1/6 248/1/6
f 248/1/6 246/1/6 249/1/6
