# MagicaVoxel @ Ephtracy

# group
o 

# material
mtllib rail-end.mtl
usemtl palette

# normals
vn -1 0 0
vn 1 0 0
vn 0 0 1
vn 0 0 -1
vn 0 -1 0
vn 0 1 0

# texcoords
vt 0.962891 0.5
vt 0.978516 0.5

# verts
v -0.2 0 0.0999999
v -0.2 0 -0.3
v -0.2 0.9 0.0999999
v -0.2 0.9 -5.96046e-08
v -0.2 2.1 0.0999999
v -0.2 2.1 -5.96046e-08
v -0.2 2.8 0.0999999
v -0.2 2.8 -0.3
v -0.0999999 0 0.2
v -0.0999999 0 0.0999999
v -0.0999999 0 -0.3
v -0.0999999 0 -0.4
v -0.0999999 0.6 0.2
v -0.0999999 0.6 0.0999999
v -0.0999999 0.9 0.0999999
v -0.0999999 1.7 0.2
v -0.0999999 1.7 0.0999999
v -0.0999999 2.1 0.0999999
v -0.0999999 2.8 0.2
v -0.0999999 2.8 0.0999999
v -0.0999999 2.8 -0.3
v -0.0999999 2.8 -0.4
v -0.0999999 3 0.0999999
v -0.0999999 3 -0.3
v 5.96046e-08 2.8 0.2
v 5.96046e-08 2.8 0.0999999
v 5.96046e-08 2.8 -0.3
v 5.96046e-08 2.8 -0.4
v 5.96046e-08 3 0.2
v 5.96046e-08 3 0.0999999
v 5.96046e-08 3 -5.96046e-08
v 5.96046e-08 3 -0.3
v 5.96046e-08 3 -0.4
v 5.96046e-08 3.2 0.0999999
v 5.96046e-08 3.2 -5.96046e-08
v 5.96046e-08 3.2 -0.3
v 0.1 3 0.2
v 0.1 3 0.0999999
v 0.1 3 -0.3
v 0.1 3 -0.4
v 0.1 3.2 0.2
v 0.1 3.2 0.0999999
v 0.1 3.2 -5.96046e-08
v 0.1 3.2 -0.1
v 0.1 3.2 -0.3
v 0.1 3.2 -0.4
v 0.1 3.3 0.0999999
v 0.1 3.3 -0.1
v 0.1 3.3 -0.3
v 0.2 3.2 0.2
v 0.2 3.2 0.0999999
v 0.2 3.2 -0.3
v 0.2 3.2 -0.4
v 0.2 3.3 0.2
v 0.2 3.3 0.0999999
v 0.2 3.3 -0.1
v 0.2 3.3 -0.3
v 0.2 3.3 -0.4
v 0.2 3.4 0.0999999
v 0.2 3.4 -0.1
v 0.2 3.4 -0.3
v 0.3 3.3 0.2
v 0.3 3.3 0.0999999
v 0.3 3.3 -0.3
v 0.3 3.3 -0.4
v 0.3 3.4 0.2
v 0.3 3.4 0.0999999
v 0.3 3.4 -0.1
v 0.3 3.4 -0.3
v 0.3 3.4 -0.4
v 0.3 3.5 0.0999999
v 0.3 3.5 -0.1
v 0.3 3.5 -0.3
v 0.4 3.4 0.2
v 0.4 3.4 0.0999999
v 0.4 3.4 -0.3
v 0.4 3.4 -0.4
v 0.4 3.5 0.2
v 0.4 3.5 0.0999999
v 0.4 3.5 -5.96046e-08
v 0.4 3.5 -0.1
v 0.4 3.5 -0.3
v 0.4 3.5 -0.4
v 0.4 3.6 0.0999999
v 0.4 3.6 -5.96046e-08
v 0.4 3.6 -0.3
v 0.5 3.5 0.2
v 0.5 3.5 0.0999999
v 0.5 3.5 -0.3
v 0.5 3.5 -0.4
v 0.5 3.6 0.2
v 0.5 3.6 0.0999999
v 0.5 3.6 -5.96046e-08
v 0.5 3.6 -0.3
v 0.5 3.6 -0.4
v 0.5 3.7 0.0999999
v 0.5 3.7 -5.96046e-08
v 0.5 3.7 -0.3
v 0.7 3.6 0.2
v 0.7 3.6 0.0999999
v 0.7 3.6 -0.3
v 0.7 3.6 -0.4
v 0.7 3.7 0.2
v 0.7 3.7 0.0999999
v 0.7 3.7 -5.96046e-08
v 0.7 3.7 -0.3
v 0.7 3.7 -0.4
v 0.7 3.8 0.0999999
v 0.7 3.8 -5.96046e-08
v 0.7 3.8 -0.3
v 0.3 0 0.2
v 0.3 0 0.0999999
v 0.3 0 -0.3
v 0.3 0 -0.4
v 0.3 1.8 0.2
v 0.3 1.8 0.0999999
v 0.3 1.8 -0.3
v 0.3 1.8 -0.4
v 0.3 2.2 0.2
v 0.3 2.2 0.0999999
v 0.3 2.2 -0.3
v 0.3 2.2 -0.4
v 0.3 2.8 0.2
v 0.3 2.8 0.0999999
v 0.3 2.8 -0.3
v 0.3 2.8 -0.4
v 0.4 0 0.0999999
v 0.4 0 -0.3
v 0.4 1.7 0.0999999
v 0.4 1.7 -0.3
v 0.4 2.3 0.0999999
v 0.4 2.3 -0.3
v 0.4 2.8 0.2
v 0.4 2.8 0.0999999
v 0.4 2.8 -0.3
v 0.4 2.8 -0.4
v 0.4 3 0.2
v 0.4 3 0.0999999
v 0.4 3 -0.3
v 0.4 3 -0.4
v 0.5 2.8 0.0999999
v 0.5 2.8 -0.3
v 0.5 3 0.2
v 0.5 3 0.0999999
v 0.5 3 -0.3
v 0.5 3 -0.4
v 0.5 3.1 0.2
v 0.5 3.1 0.0999999
v 0.5 3.1 -0.3
v 0.5 3.1 -0.4
v 0.6 3 0.0999999
v 0.6 3 -0.3
v 0.6 3.1 0.2
v 0.6 3.1 0.0999999
v 0.6 3.1 -0.3
v 0.6 3.1 -0.4
v 0.6 3.2 0.2
v 0.6 3.2 0.0999999
v 0.6 3.2 -0.3
v 0.6 3.2 -0.4
v 0.7 3.1 0.0999999
v 0.7 3.1 -0.3
v 0.7 3.2 0.2
v 0.7 3.2 0.0999999
v 0.7 3.2 -0.3
v 0.7 3.2 -0.4
v 0.7 3.3 0.2
v 0.7 3.3 0.0999999
v 0.7 3.3 -0.3
v 0.7 3.3 -0.4
v 2.4 1.7 0.0999999
v 2.4 1.7 -0.3
v 2.4 1.8 0.2
v 2.4 1.8 0.0999999
v 2.4 1.8 -0.3
v 2.4 1.8 -0.4
v 2.4 2.1 0.2
v 2.4 2.1 0.0999999
v 2.4 2.2 0.2
v 2.4 2.2 0.0999999
v 2.4 2.2 -0.1
v 2.4 2.2 -0.3
v 2.4 2.2 -0.4
v 2.4 2.3 0.0999999
v 2.4 2.3 -0.1
v 2.4 2.3 -0.3
v 2.4 3.2 0.0999999
v 2.4 3.2 -0.3
v 2.4 3.3 0.2
v 2.4 3.3 0.0999999
v 2.4 3.3 -0.3
v 2.4 3.3 -0.4
v 2.4 3.6 0.2
v 2.4 3.6 0.0999999
v 2.4 3.7 0.2
v 2.4 3.7 0.0999999
v 2.4 3.7 -0.1
v 2.4 3.7 -0.3
v 2.4 3.7 -0.4
v 2.4 3.8 0.0999999
v 2.4 3.8 -0.1
v 2.4 3.8 -0.3
v -0.0999999 0 0.2
v -0.0999999 0.6 0.2
v -0.0999999 1.7 0.2
v -0.0999999 2.8 0.2
v 5.96046e-08 0.6 0.2
v 5.96046e-08 1.7 0.2
v 5.96046e-08 2.8 0.2
v 5.96046e-08 3 0.2
v 0.1 3 0.2
v 0.1 3.2 0.2
v 0.2 3.2 0.2
v 0.2 3.3 0.2
v 0.3 0 0.2
v 0.3 1.8 0.2
v 0.3 2.2 0.2
v 0.3 2.8 0.2
v 0.3 3.2 0.2
v 0.3 3.3 0.2
v 0.3 3.4 0.2
v 0.4 2.8 0.2
v 0.4 3 0.2
v 0.4 3.3 0.2
v 0.4 3.4 0.2
v 0.4 3.5 0.2
v 0.5 3 0.2
v 0.5 3.1 0.2
v 0.5 3.4 0.2
v 0.5 3.5 0.2
v 0.5 3.6 0.2
v 0.6 3.1 0.2
v 0.6 3.2 0.2
v 0.7 3.2 0.2
v 0.7 3.3 0.2
v 0.7 3.5 0.2
v 0.7 3.6 0.2
v 0.7 3.7 0.2
v 1 3.6 0.2
v 1 3.7 0.2
v 1.1 2.1 0.2
v 1.1 2.2 0.2
v 2 3.6 0.2
v 2 3.7 0.2
v 2.4 1.8 0.2
v 2.4 2.1 0.2
v 2.4 2.2 0.2
v 2.4 3.3 0.2
v 2.4 3.6 0.2
v 2.4 3.7 0.2
v -0.2 0 0.0999999
v -0.2 0.9 0.0999999
v -0.2 2.1 0.0999999
v -0.2 2.8 0.0999999
v -0.0999999 0 0.0999999
v -0.0999999 0.6 0.0999999
v -0.0999999 0.9 0.0999999
v -0.0999999 1.7 0.0999999
v -0.0999999 2.1 0.0999999
v -0.0999999 2.8 0.0999999
v -0.0999999 3 0.0999999
v 5.96046e-08 2.8 0.0999999
v 5.96046e-08 3 0.0999999
v 5.96046e-08 3.2 0.0999999
v 0.1 3 0.0999999
v 0.1 3.2 0.0999999
v 0.1 3.3 0.0999999
v 0.2 3.2 0.0999999
v 0.2 3.3 0.0999999
v 0.2 3.4 0.0999999
v 0.3 0 0.0999999
v 0.3 1.8 0.0999999
v 0.3 2.2 0.0999999
v 0.3 2.8 0.0999999
v 0.3 3.3 0.0999999
v 0.3 3.4 0.0999999
v 0.3 3.5 0.0999999
v 0.4 0 0.0999999
v 0.4 1.7 0.0999999
v 0.4 2.3 0.0999999
v 0.4 2.8 0.0999999
v 0.4 3 0.0999999
v 0.4 3.4 0.0999999
v 0.4 3.5 0.0999999
v 0.4 3.6 0.0999999
v 0.5 2.8 0.0999999
v 0.5 3 0.0999999
v 0.5 3.1 0.0999999
v 0.5 3.5 0.0999999
v 0.5 3.6 0.0999999
v 0.5 3.7 0.0999999
v 0.6 3 0.0999999
v 0.6 3.1 0.0999999
v 0.6 3.2 0.0999999
v 0.7 3.1 0.0999999
v 0.7 3.2 0.0999999
v 0.7 3.3 0.0999999
v 0.7 3.6 0.0999999
v 0.7 3.7 0.0999999
v 0.7 3.8 0.0999999
v 0.8 2.2 0.0999999
v 0.8 2.3 0.0999999
v 1 3.7 0.0999999
v 1.1 2.2 0.0999999
v 2 3.7 0.0999999
v 2.4 1.7 0.0999999
v 2.4 1.8 0.0999999
v 2.4 2.2 0.0999999
v 2.4 2.3 0.0999999
v 2.4 3.2 0.0999999
v 2.4 3.3 0.0999999
v 2.4 3.7 0.0999999
v 2.4 3.8 0.0999999
v -0.2 0 -0.3
v -0.2 2.8 -0.3
v -0.0999999 0 -0.3
v -0.0999999 2.8 -0.3
v -0.0999999 3 -0.3
v 5.96046e-08 2.8 -0.3
v 5.96046e-08 3 -0.3
v 5.96046e-08 3.2 -0.3
v 0.1 3 -0.3
v 0.1 3.2 -0.3
v 0.1 3.3 -0.3
v 0.2 3.2 -0.3
v 0.2 3.3 -0.3
v 0.2 3.4 -0.3
v 0.3 0 -0.3
v 0.3 1.8 -0.3
v 0.3 2.2 -0.3
v 0.3 2.8 -0.3
v 0.3 3.3 -0.3
v 0.3 3.4 -0.3
v 0.3 3.5 -0.3
v 0.4 0 -0.3
v 0.4 1.7 -0.3
v 0.4 2.3 -0.3
v 0.4 2.8 -0.3
v 0.4 3 -0.3
v 0.4 3.4 -0.3
v 0.4 3.5 -0.3
v 0.4 3.6 -0.3
v 0.5 2.8 -0.3
v 0.5 3 -0.3
v 0.5 3.1 -0.3
v 0.5 3.5 -0.3
v 0.5 3.6 -0.3
v 0.5 3.7 -0.3
v 0.6 3 -0.3
v 0.6 3.1 -0.3
v 0.6 3.2 -0.3
v 0.7 3.1 -0.3
v 0.7 3.2 -0.3
v 0.7 3.3 -0.3
v 0.7 3.6 -0.3
v 0.7 3.7 -0.3
v 0.7 3.8 -0.3
v 2.4 1.7 -0.3
v 2.4 1.8 -0.3
v 2.4 2.2 -0.3
v 2.4 2.3 -0.3
v 2.4 3.2 -0.3
v 2.4 3.3 -0.3
v 2.4 3.7 -0.3
v 2.4 3.8 -0.3
v -0.0999999 0 -0.4
v -0.0999999 2.8 -0.4
v 5.96046e-08 2.8 -0.4
v 5.96046e-08 3 -0.4
v 0.1 3 -0.4
v 0.1 3.2 -0.4
v 0.2 3.2 -0.4
v 0.2 3.3 -0.4
v 0.3 0 -0.4
v 0.3 1.8 -0.4
v 0.3 2.2 -0.4
v 0.3 2.8 -0.4
v 0.3 3.3 -0.4
v 0.3 3.4 -0.4
v 0.4 2.8 -0.4
v 0.4 3 -0.4
v 0.4 3.4 -0.4
v 0.4 3.5 -0.4
v 0.5 3 -0.4
v 0.5 3.1 -0.4
v 0.5 3.5 -0.4
v 0.5 3.6 -0.4
v 0.6 3.1 -0.4
v 0.6 3.2 -0.4
v 0.7 3.2 -0.4
v 0.7 3.3 -0.4
v 0.7 3.6 -0.4
v 0.7 3.7 -0.4
v 2.4 1.8 -0.4
v 2.4 2.2 -0.4
v 2.4 3.3 -0.4
v 2.4 3.7 -0.4
v -0.0999999 0 0.2
v 0.3 0 0.2
v -0.2 0 0.0999999
v -0.0999999 0 0.0999999
v 0.3 0 0.0999999
v 0.4 0 0.0999999
v -0.2 0 -0.3
v -0.0999999 0 -0.3
v 0.3 0 -0.3
v 0.4 0 -0.3
v -0.0999999 0 -0.4
v 0.3 0 -0.4
v 0.4 1.7 0.0999999
v 2.4 1.7 0.0999999
v 0.4 1.7 -0.3
v 2.4 1.7 -0.3
v 0.3 1.8 0.2
v 2.4 1.8 0.2
v 0.3 1.8 0.0999999
v 2.4 1.8 0.0999999
v 0.3 1.8 -0.3
v 2.4 1.8 -0.3
v 0.3 1.8 -0.4
v 2.4 1.8 -0.4
v 0.3 2.8 0.2
v 0.4 2.8 0.2
v 0.3 2.8 0.0999999
v 0.4 2.8 0.0999999
v 0.5 2.8 0.0999999
v 0.3 2.8 -0.3
v 0.4 2.8 -0.3
v 0.5 2.8 -0.3
v 0.3 2.8 -0.4
v 0.4 2.8 -0.4
v 0.4 3 0.2
v 0.5 3 0.2
v 0.4 3 0.0999999
v 0.5 3 0.0999999
v 0.6 3 0.0999999
v 0.4 3 -0.3
v 0.5 3 -0.3
v 0.6 3 -0.3
v 0.4 3 -0.4
v 0.5 3 -0.4
v 0.5 3.1 0.2
v 0.6 3.1 0.2
v 0.5 3.1 0.0999999
v 0.6 3.1 0.0999999
v 0.7 3.1 0.0999999
v 0.5 3.1 -0.3
v 0.6 3.1 -0.3
v 0.7 3.1 -0.3
v 0.5 3.1 -0.4
v 0.6 3.1 -0.4
v 0.6 3.2 0.2
v 0.7 3.2 0.2
v 0.6 3.2 0.0999999
v 0.7 3.2 0.0999999
v 2.4 3.2 0.0999999
v 0.6 3.2 -0.3
v 0.7 3.2 -0.3
v 2.4 3.2 -0.3
v 0.6 3.2 -0.4
v 0.7 3.2 -0.4
v 0.7 3.3 0.2
v 2.4 3.3 0.2
v 0.7 3.3 0.0999999
v 2.4 3.3 0.0999999
v 0.7 3.3 -0.3
v 2.4 3.3 -0.3
v 0.7 3.3 -0.4
v 2.4 3.3 -0.4
v 0.3 2.2 0.2
v 1.1 2.2 0.2
v 2.4 2.2 0.2
v 0.3 2.2 0.0999999
v 0.8 2.2 0.0999999
v 1.1 2.2 0.0999999
v 2.4 2.2 0.0999999
v 0.3 2.2 -0.3
v 2.4 2.2 -0.3
v 0.3 2.2 -0.4
v 2.4 2.2 -0.4
v 0.4 2.3 0.0999999
v 0.8 2.3 0.0999999
v 2.4 2.3 0.0999999
v 0.7 2.3 -5.96046e-08
v 0.8 2.3 -5.96046e-08
v 0.7 2.3 -0.1
v 2.4 2.3 -0.1
v 0.4 2.3 -0.3
v 2.4 2.3 -0.3
v -0.0999999 2.8 0.2
v 5.96046e-08 2.8 0.2
v -0.2 2.8 0.0999999
v -0.0999999 2.8 0.0999999
v 5.96046e-08 2.8 0.0999999
v -0.2 2.8 -0.3
v -0.0999999 2.8 -0.3
v 5.96046e-08 2.8 -0.3
v -0.0999999 2.8 -0.4
v 5.96046e-08 2.8 -0.4
v 5.96046e-08 3 0.2
v 0.1 3 0.2
v -0.0999999 3 0.0999999
v 5.96046e-08 3 0.0999999
v 0.1 3 0.0999999
v 5.96046e-08 3 -5.96046e-08
v -0.0999999 3 -0.3
v 5.96046e-08 3 -0.3
v 0.1 3 -0.3
v 5.96046e-08 3 -0.4
v 0.1 3 -0.4
v 0.1 3.2 0.2
v 0.2 3.2 0.2
v 5.96046e-08 3.2 0.0999999
v 0.1 3.2 0.0999999
v 0.2 3.2 0.0999999
v 5.96046e-08 3.2 -5.96046e-08
v 0.1 3.2 -5.96046e-08
v 0.1 3.2 -0.1
v 5.96046e-08 3.2 -0.3
v 0.1 3.2 -0.3
v 0.2 3.2 -0.3
v 0.1 3.2 -0.4
v 0.2 3.2 -0.4
v 0.2 3.3 0.2
v 0.3 3.3 0.2
v 0.1 3.3 0.0999999
v 0.2 3.3 0.0999999
v 0.3 3.3 0.0999999
v 0.1 3.3 -0.1
v 0.2 3.3 -0.1
v 0.1 3.3 -0.3
v 0.2 3.3 -0.3
v 0.3 3.3 -0.3
v 0.2 3.3 -0.4
v 0.3 3.3 -0.4
v 0.3 3.4 0.2
v 0.4 3.4 0.2
v 0.2 3.4 0.0999999
v 0.3 3.4 0.0999999
v 0.4 3.4 0.0999999
v 0.2 3.4 -0.1
v 0.3 3.4 -0.1
v 0.2 3.4 -0.3
v 0.3 3.4 -0.3
v 0.4 3.4 -0.3
v 0.3 3.4 -0.4
v 0.4 3.4 -0.4
v 0.4 3.5 0.2
v 0.5 3.5 0.2
v 0.3 3.5 0.0999999
v 0.4 3.5 0.0999999
v 0.5 3.5 0.0999999
v 0.4 3.5 -5.96046e-08
v 0.3 3.5 -0.1
v 0.4 3.5 -0.1
v 0.3 3.5 -0.3
v 0.4 3.5 -0.3
v 0.5 3.5 -0.3
v 0.4 3.5 -0.4
v 0.5 3.5 -0.4
v 0.5 3.6 0.2
v 0.7 3.6 0.2
v 0.4 3.6 0.0999999
v 0.5 3.6 0.0999999
v 0.7 3.6 0.0999999
v 0.4 3.6 -5.96046e-08
v 0.5 3.6 -5.96046e-08
v 0.4 3.6 -0.3
v 0.5 3.6 -0.3
v 0.7 3.6 -0.3
v 0.5 3.6 -0.4
v 0.7 3.6 -0.4
v 0.7 3.7 0.2
v 1 3.7 0.2
v 2 3.7 0.2
v 2.4 3.7 0.2
v 0.5 3.7 0.0999999
v 0.7 3.7 0.0999999
v 1 3.7 0.0999999
v 2 3.7 0.0999999
v 2.4 3.7 0.0999999
v 0.5 3.7 -5.96046e-08
v 0.7 3.7 -5.96046e-08
v 0.5 3.7 -0.3
v 0.7 3.7 -0.3
v 2.4 3.7 -0.3
v 0.7 3.7 -0.4
v 2.4 3.7 -0.4
v 0.7 3.8 0.0999999
v 2.4 3.8 0.0999999
v 0.7 3.8 -5.96046e-08
v 0.9 3.8 -5.96046e-08
v 0.9 3.8 -0.1
v 2.4 3.8 -0.1
v 0.7 3.8 -0.3
v 2.4 3.8 -0.3

# faces
f 3/2/1 2/2/1 1/2/1
f 4/2/1 2/2/1 3/2/1
f 5/1/1 4/1/1 3/1/1
f 6/2/1 2/2/1 4/2/1
f 6/1/1 4/1/1 5/1/1
f 7/2/1 6/2/1 5/2/1
f 8/2/1 2/2/1 6/2/1
f 8/2/1 6/2/1 7/2/1
f 13/2/1 10/2/1 9/2/1
f 14/2/1 10/2/1 13/2/1
f 15/1/1 14/1/1 13/1/1
f 16/1/1 15/1/1 13/1/1
f 17/1/1 15/1/1 16/1/1
f 18/2/1 17/2/1 16/2/1
f 19/2/1 18/2/1 16/2/1
f 20/2/1 18/2/1 19/2/1
f 21/2/1 12/2/1 11/2/1
f 22/2/1 12/2/1 21/2/1
f 23/2/1 21/2/1 20/2/1
f 24/2/1 21/2/1 23/2/1
f 29/2/1 26/2/1 25/2/1
f 30/2/1 26/2/1 29/2/1
f 32/2/1 28/2/1 27/2/1
f 33/2/1 28/2/1 32/2/1
f 34/1/1 31/1/1 30/1/1
f 35/2/1 32/2/1 31/2/1
f 35/1/1 31/1/1 34/1/1
f 36/2/1 32/2/1 35/2/1
f 41/2/1 38/2/1 37/2/1
f 42/2/1 38/2/1 41/2/1
f 45/2/1 40/2/1 39/2/1
f 46/2/1 40/2/1 45/2/1
f 47/1/1 44/1/1 43/1/1
f 47/1/1 43/1/1 42/1/1
f 48/2/1 45/2/1 44/2/1
f 48/1/1 44/1/1 47/1/1
f 49/2/1 45/2/1 48/2/1
f 54/1/1 51/1/1 50/1/1
f 55/1/1 51/1/1 54/1/1
f 57/2/1 53/2/1 52/2/1
f 58/2/1 53/2/1 57/2/1
f 59/1/1 56/1/1 55/1/1
f 60/2/1 57/2/1 56/2/1
f 60/1/1 56/1/1 59/1/1
f 61/2/1 57/2/1 60/2/1
f 66/1/1 63/1/1 62/1/1
f 67/1/1 63/1/1 66/1/1
f 69/2/1 65/2/1 64/2/1
f 70/2/1 65/2/1 69/2/1
f 71/1/1 68/1/1 67/1/1
f 72/2/1 69/2/1 68/2/1
f 72/1/1 68/1/1 71/1/1
f 73/2/1 69/2/1 72/2/1
f 78/1/1 75/1/1 74/1/1
f 79/1/1 75/1/1 78/1/1
f 82/2/1 77/2/1 76/2/1
f 83/2/1 77/2/1 82/2/1
f 84/1/1 80/1/1 79/1/1
f 85/2/1 81/2/1 80/2/1
f 85/1/1 80/1/1 84/1/1
f 85/2/1 82/2/1 81/2/1
f 86/2/1 82/2/1 85/2/1
f 91/1/1 88/1/1 87/1/1
f 92/1/1 88/1/1 91/1/1
f 94/2/1 90/2/1 89/2/1
f 95/2/1 90/2/1 94/2/1
f 96/1/1 93/1/1 92/1/1
f 97/2/1 94/2/1 93/2/1
f 97/1/1 93/1/1 96/1/1
f 98/2/1 94/2/1 97/2/1
f 103/1/1 100/1/1 99/1/1
f 104/1/1 100/1/1 103/1/1
f 106/2/1 102/2/1 101/2/1
f 107/2/1 102/2/1 106/2/1
f 108/1/1 105/1/1 104/1/1
f 109/2/1 106/2/1 105/2/1
f 109/1/1 105/1/1 108/1/1
f 110/2/1 106/2/1 109/2/1
f 111/2/2 112/2/2 115/2/2
f 115/2/2 112/2/2 116/2/2
f 113/2/2 114/2/2 117/2/2
f 117/2/2 114/2/2 118/2/2
f 119/2/2 120/2/2 123/2/2
f 123/2/2 120/2/2 124/2/2
f 121/2/2 122/2/2 125/2/2
f 125/2/2 122/2/2 126/2/2
f 127/2/2 128/2/2 129/2/2
f 129/2/2 128/2/2 130/2/2
f 131/2/2 132/2/2 134/2/2
f 134/2/2 132/2/2 135/2/2
f 133/2/2 134/2/2 137/2/2
f 137/2/2 134/2/2 138/2/2
f 135/2/2 136/2/2 139/2/2
f 139/2/2 136/2/2 140/2/2
f 141/2/2 142/2/2 144/2/2
f 144/2/2 142/2/2 145/2/2
f 143/2/2 144/2/2 147/2/2
f 147/2/2 144/2/2 148/2/2
f 145/2/2 146/2/2 149/2/2
f 149/2/2 146/2/2 150/2/2
f 151/2/2 152/2/2 154/2/2
f 154/2/2 152/2/2 155/2/2
f 153/2/2 154/2/2 157/2/2
f 157/2/2 154/2/2 158/2/2
f 155/2/2 156/2/2 159/2/2
f 159/2/2 156/2/2 160/2/2
f 161/2/2 162/2/2 164/2/2
f 164/2/2 162/2/2 165/2/2
f 163/2/2 164/2/2 167/2/2
f 167/2/2 164/2/2 168/2/2
f 165/2/2 166/2/2 169/2/2
f 169/2/2 166/2/2 170/2/2
f 171/2/2 172/2/2 174/2/2
f 174/2/2 172/2/2 175/2/2
f 173/2/2 174/2/2 177/2/2
f 175/2/2 176/2/2 177/2/2
f 174/2/2 175/2/2 177/2/2
f 177/2/2 176/2/2 178/2/2
f 177/1/2 178/1/2 179/1/2
f 178/2/2 176/2/2 180/2/2
f 179/1/2 178/1/2 180/1/2
f 180/2/2 176/2/2 181/2/2
f 181/2/2 176/2/2 182/2/2
f 182/2/2 176/2/2 183/2/2
f 180/1/2 181/1/2 184/1/2
f 181/2/2 182/2/2 185/2/2
f 184/1/2 181/1/2 185/1/2
f 185/2/2 182/2/2 186/2/2
f 187/2/2 188/2/2 190/2/2
f 190/2/2 188/2/2 191/2/2
f 190/2/2 191/2/2 193/2/2
f 191/2/2 192/2/2 193/2/2
f 189/2/2 190/2/2 193/2/2
f 193/2/2 192/2/2 194/2/2
f 193/1/2 194/1/2 195/1/2
f 194/2/2 192/2/2 196/2/2
f 195/1/2 194/1/2 196/1/2
f 196/2/2 192/2/2 197/2/2
f 197/2/2 192/2/2 198/2/2
f 198/2/2 192/2/2 199/2/2
f 196/1/2 197/1/2 200/1/2
f 197/2/2 198/2/2 201/2/2
f 200/1/2 197/1/2 201/1/2
f 201/2/2 198/2/2 202/2/2
f 207/2/3 204/2/3 203/2/3
f 207/1/3 205/1/3 204/1/3
f 208/2/3 206/2/3 205/2/3
f 208/1/3 205/1/3 207/1/3
f 209/2/3 206/2/3 208/2/3
f 211/2/3 208/2/3 207/2/3
f 211/2/3 210/2/3 209/2/3
f 211/2/3 209/2/3 208/2/3
f 213/2/3 212/2/3 211/2/3
f 215/2/3 207/2/3 203/2/3
f 215/2/3 211/2/3 207/2/3
f 215/2/3 213/2/3 211/2/3
f 216/2/3 213/2/3 215/2/3
f 217/2/3 213/2/3 216/2/3
f 218/2/3 213/2/3 217/2/3
f 219/1/3 214/1/3 213/1/3
f 219/2/3 213/2/3 218/2/3
f 220/1/3 214/1/3 219/1/3
f 222/2/3 220/2/3 219/2/3
f 222/2/3 219/2/3 218/2/3
f 223/2/3 220/2/3 222/2/3
f 224/1/3 221/1/3 220/1/3
f 224/2/3 220/2/3 223/2/3
f 225/1/3 221/1/3 224/1/3
f 227/2/3 224/2/3 223/2/3
f 227/2/3 225/2/3 224/2/3
f 228/2/3 225/2/3 227/2/3
f 229/1/3 226/1/3 225/1/3
f 229/2/3 225/2/3 228/2/3
f 230/1/3 226/1/3 229/1/3
f 232/2/3 229/2/3 228/2/3
f 232/2/3 230/2/3 229/2/3
f 233/2/3 230/2/3 232/2/3
f 234/2/3 230/2/3 233/2/3
f 235/2/3 230/2/3 234/2/3
f 236/1/3 231/1/3 230/1/3
f 236/2/3 230/2/3 235/2/3
f 237/1/3 231/1/3 236/1/3
f 239/1/3 238/1/3 237/1/3
f 239/2/3 237/2/3 236/2/3
f 239/2/3 236/2/3 235/2/3
f 240/1/3 238/1/3 239/1/3
f 241/2/3 217/2/3 216/2/3
f 242/2/3 217/2/3 241/2/3
f 243/2/3 239/2/3 235/2/3
f 243/2/3 240/2/3 239/2/3
f 244/2/3 240/2/3 243/2/3
f 245/2/3 241/2/3 216/2/3
f 246/1/3 242/1/3 241/1/3
f 246/2/3 241/2/3 245/2/3
f 247/1/3 242/1/3 246/1/3
f 248/2/3 243/2/3 235/2/3
f 249/1/3 244/1/3 243/1/3
f 249/2/3 243/2/3 248/2/3
f 250/1/3 244/1/3 249/1/3
f 255/2/3 252/2/3 251/2/3
f 256/2/3 252/2/3 255/2/3
f 257/1/3 253/1/3 252/1/3
f 257/2/3 252/2/3 256/2/3
f 258/1/3 253/1/3 257/1/3
f 259/2/3 254/2/3 253/2/3
f 259/1/3 253/1/3 258/1/3
f 260/2/3 254/2/3 259/2/3
f 262/2/3 261/2/3 260/2/3
f 263/2/3 261/2/3 262/2/3
f 265/1/3 264/1/3 263/1/3
f 266/1/3 264/1/3 265/1/3
f 268/1/3 267/1/3 266/1/3
f 269/1/3 267/1/3 268/1/3
f 275/1/3 270/1/3 269/1/3
f 276/1/3 270/1/3 275/1/3
f 278/2/3 272/2/3 271/2/3
f 279/2/3 272/2/3 278/2/3
f 280/2/3 274/2/3 273/2/3
f 281/2/3 274/2/3 280/2/3
f 283/1/3 277/1/3 276/1/3
f 284/1/3 277/1/3 283/1/3
f 286/2/3 282/2/3 281/2/3
f 287/2/3 282/2/3 286/2/3
f 289/1/3 285/1/3 284/1/3
f 290/1/3 285/1/3 289/1/3
f 292/2/3 288/2/3 287/2/3
f 293/2/3 288/2/3 292/2/3
f 295/2/3 294/2/3 293/2/3
f 296/2/3 294/2/3 295/2/3
f 298/1/3 291/1/3 290/1/3
f 299/1/3 291/1/3 298/1/3
f 301/2/3 280/2/3 273/2/3
f 302/2/3 280/2/3 301/2/3
f 303/1/3 300/1/3 299/1/3
f 304/1/3 302/1/3 301/1/3
f 305/1/3 300/1/3 303/1/3
f 306/2/3 272/2/3 279/2/3
f 307/2/3 272/2/3 306/2/3
f 308/1/3 302/1/3 304/1/3
f 309/1/3 302/1/3 308/1/3
f 310/2/3 297/2/3 296/2/3
f 311/2/3 297/2/3 310/2/3
f 312/1/3 300/1/3 305/1/3
f 313/1/3 300/1/3 312/1/3
f 314/2/4 315/2/4 316/2/4
f 316/2/4 315/2/4 317/2/4
f 317/2/4 318/2/4 319/2/4
f 319/2/4 318/2/4 320/2/4
f 320/2/4 321/2/4 322/2/4
f 322/2/4 321/2/4 323/2/4
f 323/2/4 324/2/4 325/2/4
f 325/2/4 324/2/4 326/2/4
f 326/2/4 327/2/4 332/2/4
f 332/2/4 327/2/4 333/2/4
f 328/2/4 329/2/4 335/2/4
f 335/2/4 329/2/4 336/2/4
f 330/2/4 331/2/4 337/2/4
f 337/2/4 331/2/4 338/2/4
f 333/2/4 334/2/4 340/2/4
f 340/2/4 334/2/4 341/2/4
f 338/2/4 339/2/4 343/2/4
f 343/2/4 339/2/4 344/2/4
f 341/2/4 342/2/4 346/2/4
f 346/2/4 342/2/4 347/2/4
f 344/2/4 345/2/4 349/2/4
f 349/2/4 345/2/4 350/2/4
f 350/2/4 351/2/4 352/2/4
f 352/2/4 351/2/4 353/2/4
f 347/2/4 348/2/4 355/2/4
f 355/2/4 348/2/4 356/2/4
f 336/2/4 329/2/4 358/2/4
f 358/2/4 329/2/4 359/2/4
f 330/2/4 337/2/4 360/2/4
f 360/2/4 337/2/4 361/2/4
f 353/2/4 354/2/4 362/2/4
f 362/2/4 354/2/4 363/2/4
f 356/2/4 357/2/4 364/2/4
f 364/2/4 357/2/4 365/2/4
f 366/2/4 367/2/4 368/2/4
f 368/2/4 369/2/4 370/2/4
f 370/2/4 371/2/4 372/2/4
f 366/2/4 368/2/4 374/2/4
f 372/2/4 373/2/4 374/2/4
f 370/2/4 372/2/4 374/2/4
f 368/2/4 370/2/4 374/2/4
f 374/2/4 373/2/4 375/2/4
f 375/2/4 373/2/4 376/2/4
f 376/2/4 373/2/4 377/2/4
f 377/2/4 373/2/4 378/2/4
f 378/2/4 379/2/4 380/2/4
f 377/2/4 378/2/4 380/2/4
f 380/2/4 379/2/4 381/2/4
f 381/2/4 379/2/4 382/2/4
f 382/2/4 383/2/4 384/2/4
f 381/2/4 382/2/4 384/2/4
f 384/2/4 383/2/4 385/2/4
f 385/2/4 383/2/4 386/2/4
f 386/2/4 387/2/4 388/2/4
f 385/2/4 386/2/4 388/2/4
f 388/2/4 387/2/4 389/2/4
f 389/2/4 387/2/4 390/2/4
f 390/2/4 387/2/4 391/2/4
f 391/2/4 387/2/4 392/2/4
f 375/2/4 376/2/4 394/2/4
f 394/2/4 376/2/4 395/2/4
f 392/2/4 393/2/4 396/2/4
f 391/2/4 392/2/4 396/2/4
f 396/2/4 393/2/4 397/2/4
f 401/2/5 399/2/5 398/2/5
f 402/2/5 399/2/5 401/2/5
f 404/2/5 401/2/5 400/2/5
f 404/2/5 403/2/5 402/2/5
f 404/2/5 402/2/5 401/2/5
f 405/2/5 403/2/5 404/2/5
f 406/2/5 403/2/5 405/2/5
f 407/2/5 403/2/5 406/2/5
f 408/2/5 406/2/5 405/2/5
f 409/2/5 406/2/5 408/2/5
f 412/2/5 411/2/5 410/2/5
f 413/2/5 411/2/5 412/2/5
f 416/2/5 415/2/5 414/2/5
f 417/2/5 415/2/5 416/2/5
f 420/2/5 419/2/5 418/2/5
f 421/2/5 419/2/5 420/2/5
f 424/2/5 423/2/5 422/2/5
f 425/2/5 423/2/5 424/2/5
f 428/2/5 426/2/5 425/2/5
f 429/2/5 426/2/5 428/2/5
f 430/2/5 428/2/5 427/2/5
f 431/2/5 428/2/5 430/2/5
f 434/2/5 433/2/5 432/2/5
f 435/2/5 433/2/5 434/2/5
f 438/2/5 436/2/5 435/2/5
f 439/2/5 436/2/5 438/2/5
f 440/2/5 438/2/5 437/2/5
f 441/2/5 438/2/5 440/2/5
f 444/2/5 443/2/5 442/2/5
f 445/2/5 443/2/5 444/2/5
f 448/2/5 446/2/5 445/2/5
f 449/2/5 446/2/5 448/2/5
f 450/2/5 448/2/5 447/2/5
f 451/2/5 448/2/5 450/2/5
f 454/2/5 453/2/5 452/2/5
f 455/2/5 453/2/5 454/2/5
f 458/2/5 456/2/5 455/2/5
f 459/2/5 456/2/5 458/2/5
f 460/2/5 458/2/5 457/2/5
f 461/2/5 458/2/5 460/2/5
f 464/2/5 463/2/5 462/2/5
f 465/2/5 463/2/5 464/2/5
f 468/2/5 467/2/5 466/2/5
f 469/2/5 467/2/5 468/2/5
f 470/2/6 471/2/6 473/2/6
f 473/2/6 471/2/6 474/2/6
f 471/1/6 472/1/6 475/1/6
f 474/2/6 471/2/6 475/2/6
f 475/1/6 472/1/6 476/1/6
f 477/2/6 478/2/6 479/2/6
f 479/2/6 478/2/6 480/2/6
f 481/2/6 482/2/6 484/2/6
f 482/1/6 483/1/6 485/1/6
f 484/2/6 482/2/6 485/2/6
f 481/2/6 484/2/6 486/2/6
f 484/1/6 485/1/6 486/1/6
f 485/1/6 483/1/6 487/1/6
f 486/1/6 485/1/6 487/1/6
f 481/2/6 486/2/6 488/2/6
f 486/2/6 487/2/6 488/2/6
f 488/2/6 487/2/6 489/2/6
f 490/2/6 491/2/6 493/2/6
f 493/2/6 491/2/6 494/2/6
f 492/2/6 493/2/6 495/2/6
f 495/2/6 493/2/6 496/2/6
f 496/2/6 497/2/6 498/2/6
f 498/2/6 497/2/6 499/2/6
f 500/2/6 501/2/6 503/2/6
f 503/2/6 501/2/6 504/2/6
f 502/2/6 503/2/6 505/2/6
f 502/2/6 505/2/6 506/2/6
f 506/2/6 505/2/6 507/2/6
f 507/2/6 508/2/6 509/2/6
f 509/2/6 508/2/6 510/2/6
f 511/2/6 512/2/6 514/2/6
f 514/2/6 512/2/6 515/2/6
f 513/1/6 514/1/6 516/1/6
f 516/1/6 514/1/6 517/1/6
f 516/2/6 517/2/6 518/2/6
f 516/2/6 518/2/6 519/2/6
f 519/2/6 518/2/6 520/2/6
f 520/2/6 521/2/6 522/2/6
f 522/2/6 521/2/6 523/2/6
f 524/1/6 525/1/6 527/1/6
f 527/1/6 525/1/6 528/1/6
f 526/1/6 527/1/6 529/1/6
f 529/1/6 527/1/6 530/1/6
f 529/2/6 530/2/6 531/2/6
f 531/2/6 530/2/6 532/2/6
f 532/2/6 533/2/6 534/2/6
f 534/2/6 533/2/6 535/2/6
f 536/1/6 537/1/6 539/1/6
f 539/1/6 537/1/6 540/1/6
f 538/1/6 539/1/6 541/1/6
f 541/1/6 539/1/6 542/1/6
f 541/2/6 542/2/6 543/2/6
f 543/2/6 542/2/6 544/2/6
f 544/2/6 545/2/6 546/2/6
f 546/2/6 545/2/6 547/2/6
f 548/1/6 549/1/6 551/1/6
f 551/1/6 549/1/6 552/1/6
f 550/1/6 551/1/6 553/1/6
f 550/1/6 553/1/6 554/1/6
f 554/1/6 553/1/6 555/1/6
f 554/2/6 555/2/6 556/2/6
f 556/2/6 555/2/6 557/2/6
f 557/2/6 558/2/6 559/2/6
f 559/2/6 558/2/6 560/2/6
f 561/1/6 562/1/6 564/1/6
f 564/1/6 562/1/6 565/1/6
f 563/1/6 564/1/6 566/1/6
f 566/1/6 564/1/6 567/1/6
f 566/2/6 567/2/6 568/2/6
f 568/2/6 567/2/6 569/2/6
f 569/2/6 570/2/6 571/2/6
f 571/2/6 570/2/6 572/2/6
f 573/1/6 574/1/6 578/1/6
f 574/2/6 575/2/6 579/2/6
f 578/1/6 574/1/6 579/1/6
f 575/1/6 576/1/6 580/1/6
f 579/2/6 575/2/6 580/2/6
f 580/1/6 576/1/6 581/1/6
f 577/1/6 578/1/6 582/1/6
f 582/1/6 578/1/6 583/1/6
f 582/2/6 583/2/6 584/2/6
f 584/2/6 583/2/6 585/2/6
f 585/2/6 586/2/6 587/2/6
f 587/2/6 586/2/6 588/2/6
f 589/1/6 590/1/6 591/1/6
f 591/1/6 590/1/6 592/1/6
f 591/2/6 592/2/6 593/2/6
f 592/1/6 590/1/6 593/1/6
f 593/1/6 590/1/6 594/1/6
f 591/2/6 593/2/6 595/2/6
f 593/2/6 594/2/6 595/2/6
f 595/2/6 594/2/6 596/2/6
