# MagicaVoxel @ Ephtracy

# group
o 

# material
mtllib energy-ground.mtl
usemtl palette

# normals
vn -1 0 0
vn 1 0 0
vn 0 0 1
vn 0 0 -1
vn 0 -1 0
vn 0 1 0

# texcoords
vt 0.947266 0.5
vt 0.962891 0.5
vt 0.982422 0.5

# verts
v -0.8 1.8 -2.3
v -0.8 1.8 -2.4
v -0.8 2.5 -2.3
v -0.8 2.5 -2.4
v -0.7 1.6 -2.3
v -0.7 1.6 -2.4
v -0.7 1.8 -2.2
v -0.7 1.8 -2.3
v -0.7 1.8 -2.4
v -0.7 2.5 -2.2
v -0.7 2.5 -2.3
v -0.7 2.5 -2.4
v -0.7 2.7 -2.3
v -0.7 2.7 -2.4
v -0.6 1.5 -2.3
v -0.6 1.5 -2.4
v -0.6 1.6 -2.2
v -0.6 1.6 -2.3
v -0.6 1.6 -2.4
v -0.6 1.8 -2.2
v -0.6 1.8 -2.3
v -0.6 2.1 -2.1
v -0.6 2.1 -2.2
v -0.6 2.2 -2.1
v -0.6 2.2 -2.2
v -0.6 2.5 -2.2
v -0.6 2.5 -2.3
v -0.6 2.7 -2.2
v -0.6 2.7 -2.3
v -0.6 2.7 -2.4
v -0.6 2.8 -2.3
v -0.6 2.8 -2.4
v -0.5 1.4 -2.3
v -0.5 1.4 -2.4
v -0.5 1.5 -2.2
v -0.5 1.5 -2.3
v -0.5 1.5 -2.4
v -0.5 1.6 -2.2
v -0.5 1.6 -2.3
v -0.5 2.7 -2.2
v -0.5 2.7 -2.3
v -0.5 2.8 -2.2
v -0.5 2.8 -2.3
v -0.5 2.8 -2.4
v -0.5 2.9 -2.3
v -0.5 2.9 -2.4
v -0.3 1.3 -2.3
v -0.3 1.3 -2.4
v -0.3 1.4 -2.2
v -0.3 1.4 -2.3
v -0.3 1.4 -2.4
v -0.3 1.5 -2.2
v -0.3 1.5 -2.3
v -0.3 1.8 -2.2
v -0.3 1.8 -2.3
v -0.3 2.2 -2.2
v -0.3 2.2 -2.3
v -0.3 2.8 -2.2
v -0.3 2.8 -2.3
v -0.3 2.9 -2.2
v -0.3 2.9 -2.3
v -0.3 2.9 -2.4
v -0.3 3 -2.3
v -0.3 3 -2.4
v -0.2 2.2 -2.2
v -0.2 2.2 -2.3
v -0.2 2.2 -2.4
v -0.2 2.3 -2.3
v -0.2 2.3 -2.4
v -0.2 2.4 -2.2
v -0.2 2.4 -2.3
v -0.1 2 -2.3
v -0.1 2 -2.4
v -0.1 2.1 -2.3
v -0.1 2.1 -2.4
v -0.1 2.4 -2.2
v -0.1 2.4 -2.3
v -0.1 2.5 -2.2
v -0.1 2.5 -2.3
v 0.5 2.4 -2.2
v 0.5 2.4 -2.3
v 0.5 2.6 -2.2
v 0.5 2.6 -2.3
v 0.6 2.2 -2.2
v 0.6 2.2 -2.3
v 0.6 2.4 -2.2
v 0.6 2.4 -2.3
v 0.7 1.8 -2.2
v 0.7 1.8 -2.3
v 0.7 2.2 -2.2
v 0.7 2.2 -2.3
v -0.6 1.8 -2.2
v -0.6 1.8 -2.3
v -0.6 2.1 -2.2
v -0.6 2.1 -2.3
v -0.5 2.1 -2.1
v -0.5 2.1 -2.2
v -0.5 2.1 -2.3
v -0.5 2.2 -2.1
v -0.5 2.2 -2.2
v -0.5 2.2 -2.3
v -0.4 2.2 -2.2
v -0.4 2.2 -2.3
v -0.4 2.2 -2.4
v -0.4 2.3 -2.2
v -0.4 2.3 -2.3
v -0.4 2.3 -2.4
v -0.4 2.4 -2.2
v -0.4 2.4 -2.3
v -0.3 2.4 -2.2
v -0.3 2.4 -2.3
v -0.3 2.5 -2.2
v -0.3 2.5 -2.3
v -0.2 1.8 -2.2
v -0.2 1.8 -2.3
v -0.2 2 -2.3
v -0.2 2 -2.4
v -0.2 2.1 -2.3
v -0.2 2.1 -2.4
v -0.2 2.2 -2.2
v -0.2 2.2 -2.3
v -0.1 2.2 -2.2
v -0.1 2.2 -2.3
v -0.1 2.4 -2.2
v -0.1 2.4 -2.3
v -5.96046e-08 2.4 -2.2
v -5.96046e-08 2.4 -2.3
v -5.96046e-08 2.6 -2.2
v -5.96046e-08 2.6 -2.3
v 0.4 1.3 -2.3
v 0.4 1.3 -2.4
v 0.4 1.4 -2.2
v 0.4 1.4 -2.3
v 0.4 1.4 -2.4
v 0.4 1.5 -2.2
v 0.4 1.5 -2.3
v 0.4 2.8 -2.2
v 0.4 2.8 -2.3
v 0.4 2.9 -2.2
v 0.4 2.9 -2.3
v 0.4 2.9 -2.4
v 0.4 3 -2.3
v 0.4 3 -2.4
v 0.5 2.8 -2.3
v 0.5 2.8 -2.4
v 0.5 2.9 -2.3
v 0.5 2.9 -2.4
v 0.6 1.4 -2.3
v 0.6 1.4 -2.4
v 0.6 1.5 -2.2
v 0.6 1.5 -2.3
v 0.6 1.5 -2.4
v 0.6 1.6 -2.2
v 0.6 1.6 -2.3
v 0.6 2.7 -2.2
v 0.6 2.7 -2.3
v 0.6 2.8 -2.2
v 0.6 2.8 -2.3
v 0.7 1.5 -2.3
v 0.7 1.5 -2.4
v 0.7 1.6 -2.2
v 0.7 1.6 -2.3
v 0.7 1.6 -2.4
v 0.7 1.8 -2.2
v 0.7 1.8 -2.3
v 0.7 2.5 -2.2
v 0.7 2.5 -2.3
v 0.7 2.6 -2.3
v 0.7 2.6 -2.4
v 0.7 2.7 -2.2
v 0.7 2.7 -2.3
v 0.7 2.8 -2.3
v 0.7 2.8 -2.4
v 0.8 1.6 -2.3
v 0.8 1.6 -2.4
v 0.8 1.8 -2.2
v 0.8 1.8 -2.3
v 0.8 1.8 -2.4
v 0.8 2.5 -2.2
v 0.8 2.5 -2.3
v 0.8 2.5 -2.4
v 0.8 2.6 -2.3
v 0.8 2.6 -2.4
v 0.9 1.8 -2.3
v 0.9 1.8 -2.4
v 0.9 2.5 -2.3
v 0.9 2.5 -2.4
v -0.6 2.1 -2.1
v -0.6 2.2 -2.1
v -0.5 2.1 -2.1
v -0.5 2.2 -2.1
v -0.7 1.8 -2.2
v -0.7 2.5 -2.2
v -0.6 1.6 -2.2
v -0.6 1.8 -2.2
v -0.6 2.1 -2.2
v -0.6 2.2 -2.2
v -0.6 2.5 -2.2
v -0.6 2.7 -2.2
v -0.5 1.5 -2.2
v -0.5 1.6 -2.2
v -0.5 2.2 -2.2
v -0.5 2.3 -2.2
v -0.5 2.7 -2.2
v -0.5 2.8 -2.2
v -0.4 2.2 -2.2
v -0.4 2.3 -2.2
v -0.4 2.4 -2.2
v -0.3 1.4 -2.2
v -0.3 1.5 -2.2
v -0.3 1.8 -2.2
v -0.3 2.2 -2.2
v -0.3 2.4 -2.2
v -0.3 2.5 -2.2
v -0.3 2.8 -2.2
v -0.3 2.9 -2.2
v -0.2 1.8 -2.2
v -0.2 2.2 -2.2
v -0.2 2.4 -2.2
v -0.1 2.2 -2.2
v -0.1 2.4 -2.2
v -0.1 2.5 -2.2
v -5.96046e-08 2.4 -2.2
v -5.96046e-08 2.6 -2.2
v 0.4 1.4 -2.2
v 0.4 1.5 -2.2
v 0.4 2.8 -2.2
v 0.4 2.9 -2.2
v 0.5 2.4 -2.2
v 0.5 2.6 -2.2
v 0.6 1.5 -2.2
v 0.6 1.6 -2.2
v 0.6 2.2 -2.2
v 0.6 2.4 -2.2
v 0.6 2.7 -2.2
v 0.6 2.8 -2.2
v 0.7 1.6 -2.2
v 0.7 1.8 -2.2
v 0.7 2.2 -2.2
v 0.7 2.5 -2.2
v 0.7 2.7 -2.2
v 0.8 1.8 -2.2
v 0.8 2.5 -2.2
v -0.8 1.8 -2.3
v -0.8 2.5 -2.3
v -0.7 1.6 -2.3
v -0.7 1.8 -2.3
v -0.7 2.5 -2.3
v -0.7 2.7 -2.3
v -0.6 1.5 -2.3
v -0.6 1.6 -2.3
v -0.6 1.8 -2.3
v -0.6 2.1 -2.3
v -0.6 2.5 -2.3
v -0.6 2.7 -2.3
v -0.6 2.8 -2.3
v -0.5 1.4 -2.3
v -0.5 1.5 -2.3
v -0.5 1.6 -2.3
v -0.5 2.1 -2.3
v -0.5 2.2 -2.3
v -0.5 2.7 -2.3
v -0.5 2.8 -2.3
v -0.5 2.9 -2.3
v -0.4 2.2 -2.3
v -0.4 2.3 -2.3
v -0.4 2.4 -2.3
v -0.3 1.3 -2.3
v -0.3 1.4 -2.3
v -0.3 1.5 -2.3
v -0.3 1.8 -2.3
v -0.3 2.2 -2.3
v -0.3 2.4 -2.3
v -0.3 2.5 -2.3
v -0.3 2.8 -2.3
v -0.3 2.9 -2.3
v -0.3 3 -2.3
v -0.2 1.8 -2.3
v -0.2 2 -2.3
v -0.2 2.1 -2.3
v -0.2 2.2 -2.3
v -0.2 2.3 -2.3
v -0.2 2.4 -2.3
v -0.1 2 -2.3
v -0.1 2.1 -2.3
v -0.1 2.2 -2.3
v -0.1 2.4 -2.3
v -0.1 2.5 -2.3
v -5.96046e-08 2.4 -2.3
v -5.96046e-08 2.6 -2.3
v 0.4 1.3 -2.3
v 0.4 1.4 -2.3
v 0.4 1.5 -2.3
v 0.4 2.8 -2.3
v 0.4 2.9 -2.3
v 0.4 3 -2.3
v 0.5 2.4 -2.3
v 0.5 2.6 -2.3
v 0.5 2.8 -2.3
v 0.5 2.9 -2.3
v 0.6 1.4 -2.3
v 0.6 1.5 -2.3
v 0.6 1.6 -2.3
v 0.6 2.2 -2.3
v 0.6 2.4 -2.3
v 0.6 2.7 -2.3
v 0.6 2.8 -2.3
v 0.7 1.5 -2.3
v 0.7 1.6 -2.3
v 0.7 1.8 -2.3
v 0.7 2.2 -2.3
v 0.7 2.5 -2.3
v 0.7 2.6 -2.3
v 0.7 2.7 -2.3
v 0.7 2.8 -2.3
v 0.8 1.6 -2.3
v 0.8 1.8 -2.3
v 0.8 2.5 -2.3
v 0.8 2.6 -2.3
v 0.9 1.8 -2.3
v 0.9 2.5 -2.3
v -0.8 1.8 -2.4
v -0.8 2.5 -2.4
v -0.7 1.6 -2.4
v -0.7 1.8 -2.4
v -0.7 2.5 -2.4
v -0.7 2.7 -2.4
v -0.6 1.5 -2.4
v -0.6 1.6 -2.4
v -0.6 1.8 -2.4
v -0.6 2.4 -2.4
v -0.6 2.7 -2.4
v -0.6 2.8 -2.4
v -0.5 1.4 -2.4
v -0.5 1.5 -2.4
v -0.5 1.7 -2.4
v -0.5 1.8 -2.4
v -0.5 2.4 -2.4
v -0.5 2.5 -2.4
v -0.5 2.8 -2.4
v -0.5 2.9 -2.4
v -0.4 1.6 -2.4
v -0.4 1.7 -2.4
v -0.4 2.2 -2.4
v -0.4 2.3 -2.4
v -0.4 2.4 -2.4
v -0.4 2.5 -2.4
v -0.3 1.3 -2.4
v -0.3 1.4 -2.4
v -0.3 2.4 -2.4
v -0.3 2.7 -2.4
v -0.3 2.9 -2.4
v -0.3 3 -2.4
v -0.2 2 -2.4
v -0.2 2.1 -2.4
v -0.2 2.2 -2.4
v -0.2 2.3 -2.4
v -0.2 2.7 -2.4
v -0.2 2.8 -2.4
v -0.1 1.5 -2.4
v -0.1 1.6 -2.4
v -0.1 2 -2.4
v -0.1 2.1 -2.4
v 0.0999999 2.7 -2.4
v 0.0999999 2.8 -2.4
v 0.2 2.7 -2.4
v 0.2 2.8 -2.4
v 0.3 1.5 -2.4
v 0.3 1.6 -2.4
v 0.3 2.6 -2.4
v 0.3 2.8 -2.4
v 0.4 1.3 -2.4
v 0.4 1.4 -2.4
v 0.4 1.7 -2.4
v 0.4 1.8 -2.4
v 0.4 2.9 -2.4
v 0.4 3 -2.4
v 0.5 1.7 -2.4
v 0.5 1.8 -2.4
v 0.5 2.5 -2.4
v 0.5 2.6 -2.4
v 0.5 2.8 -2.4
v 0.5 2.9 -2.4
v 0.6 1.4 -2.4
v 0.6 1.5 -2.4
v 0.6 1.6 -2.4
v 0.6 1.8 -2.4
v 0.6 2.2 -2.4
v 0.6 2.5 -2.4
v 0.7 1.5 -2.4
v 0.7 1.6 -2.4
v 0.7 1.8 -2.4
v 0.7 2.2 -2.4
v 0.7 2.6 -2.4
v 0.7 2.8 -2.4
v 0.8 1.6 -2.4
v 0.8 1.8 -2.4
v 0.8 2.5 -2.4
v 0.8 2.6 -2.4
v 0.9 1.8 -2.4
v 0.9 2.5 -2.4
v -0.3 1.3 -2.3
v 0.4 1.3 -2.3
v -0.3 1.3 -2.4
v 0.4 1.3 -2.4
v -0.3 1.4 -2.2
v 0.4 1.4 -2.2
v -0.5 1.4 -2.3
v -0.3 1.4 -2.3
v 0.4 1.4 -2.3
v 0.6 1.4 -2.3
v -0.5 1.4 -2.4
v -0.3 1.4 -2.4
v 0.4 1.4 -2.4
v 0.6 1.4 -2.4
v -0.5 1.5 -2.2
v -0.3 1.5 -2.2
v 0.4 1.5 -2.2
v 0.6 1.5 -2.2
v -0.6 1.5 -2.3
v -0.5 1.5 -2.3
v -0.3 1.5 -2.3
v 0.4 1.5 -2.3
v 0.6 1.5 -2.3
v 0.7 1.5 -2.3
v -0.6 1.5 -2.4
v -0.5 1.5 -2.4
v 0.6 1.5 -2.4
v 0.7 1.5 -2.4
v -0.6 1.6 -2.2
v -0.5 1.6 -2.2
v 0.6 1.6 -2.2
v 0.7 1.6 -2.2
v -0.7 1.6 -2.3
v -0.6 1.6 -2.3
v -0.5 1.6 -2.3
v 0.6 1.6 -2.3
v 0.7 1.6 -2.3
v 0.8 1.6 -2.3
v -0.7 1.6 -2.4
v -0.6 1.6 -2.4
v 0.7 1.6 -2.4
v 0.8 1.6 -2.4
v -0.7 1.8 -2.2
v -0.6 1.8 -2.2
v 0.7 1.8 -2.2
v 0.8 1.8 -2.2
v -0.8 1.8 -2.3
v -0.7 1.8 -2.3
v -0.6 1.8 -2.3
v 0.7 1.8 -2.3
v 0.8 1.8 -2.3
v 0.9 1.8 -2.3
v -0.8 1.8 -2.4
v -0.7 1.8 -2.4
v 0.8 1.8 -2.4
v 0.9 1.8 -2.4
v -0.6 2.1 -2.1
v -0.5 2.1 -2.1
v -0.6 2.1 -2.2
v -0.5 2.1 -2.2
v -0.6 2.1 -2.3
v -0.5 2.1 -2.3
v -0.2 2.1 -2.3
v -0.1 2.1 -2.3
v -0.2 2.1 -2.4
v -0.1 2.1 -2.4
v -0.5 2.2 -2.2
v -0.4 2.2 -2.2
v -0.2 2.2 -2.2
v -0.1 2.2 -2.2
v 0.6 2.2 -2.2
v 0.7 2.2 -2.2
v -0.5 2.2 -2.3
v -0.4 2.2 -2.3
v -0.2 2.2 -2.3
v -0.1 2.2 -2.3
v 0.6 2.2 -2.3
v 0.7 2.2 -2.3
v -0.4 2.3 -2.3
v -0.2 2.3 -2.3
v -0.4 2.3 -2.4
v -0.2 2.3 -2.4
v -0.4 2.4 -2.2
v -0.3 2.4 -2.2
v -0.1 2.4 -2.2
v -5.96046e-08 2.4 -2.2
v 0.5 2.4 -2.2
v 0.6 2.4 -2.2
v -0.4 2.4 -2.3
v -0.3 2.4 -2.3
v -0.1 2.4 -2.3
v -5.96046e-08 2.4 -2.3
v 0.5 2.4 -2.3
v 0.6 2.4 -2.3
v -0.3 2.5 -2.2
v -0.1 2.5 -2.2
v -0.3 2.5 -2.3
v -0.1 2.5 -2.3
v -5.96046e-08 2.6 -2.2
v 0.5 2.6 -2.2
v -5.96046e-08 2.6 -2.3
v 0.5 2.6 -2.3
v -0.6 1.8 -2.2
v -0.3 1.8 -2.2
v -0.2 1.8 -2.2
v 0.7 1.8 -2.2
v -0.6 1.8 -2.3
v -0.3 1.8 -2.3
v -0.2 1.8 -2.3
v 0.7 1.8 -2.3
v -0.2 2 -2.3
v -0.1 2 -2.3
v -0.2 2 -2.4
v -0.1 2 -2.4
v -0.6 2.2 -2.1
v -0.5 2.2 -2.1
v -0.6 2.2 -2.2
v -0.5 2.2 -2.2
v -0.3 2.2 -2.2
v -0.2 2.2 -2.2
v -0.4 2.2 -2.3
v -0.3 2.2 -2.3
v -0.2 2.2 -2.3
v -0.4 2.2 -2.4
v -0.2 2.2 -2.4
v -0.2 2.4 -2.2
v -0.1 2.4 -2.2
v -0.2 2.4 -2.3
v -0.1 2.4 -2.3
v -0.7 2.5 -2.2
v -0.6 2.5 -2.2
v 0.7 2.5 -2.2
v 0.8 2.5 -2.2
v -0.8 2.5 -2.3
v -0.7 2.5 -2.3
v -0.6 2.5 -2.3
v 0.7 2.5 -2.3
v 0.8 2.5 -2.3
v 0.9 2.5 -2.3
v -0.8 2.5 -2.4
v -0.7 2.5 -2.4
v 0.8 2.5 -2.4
v 0.9 2.5 -2.4
v 0.7 2.6 -2.3
v 0.8 2.6 -2.3
v 0.7 2.6 -2.4
v 0.8 2.6 -2.4
v -0.6 2.7 -2.2
v -0.5 2.7 -2.2
v 0.6 2.7 -2.2
v 0.7 2.7 -2.2
v -0.7 2.7 -2.3
v -0.6 2.7 -2.3
v -0.5 2.7 -2.3
v 0.6 2.7 -2.3
v 0.7 2.7 -2.3
v -0.7 2.7 -2.4
v -0.6 2.7 -2.4
v -0.5 2.8 -2.2
v -0.3 2.8 -2.2
v 0.4 2.8 -2.2
v 0.6 2.8 -2.2
v -0.6 2.8 -2.3
v -0.5 2.8 -2.3
v -0.3 2.8 -2.3
v 0.4 2.8 -2.3
v 0.5 2.8 -2.3
v 0.6 2.8 -2.3
v 0.7 2.8 -2.3
v -0.6 2.8 -2.4
v -0.5 2.8 -2.4
v 0.5 2.8 -2.4
v 0.7 2.8 -2.4
v -0.3 2.9 -2.2
v 0.4 2.9 -2.2
v -0.5 2.9 -2.3
v -0.3 2.9 -2.3
v 0.4 2.9 -2.3
v 0.5 2.9 -2.3
v -0.5 2.9 -2.4
v -0.3 2.9 -2.4
v 0.4 2.9 -2.4
v 0.5 2.9 -2.4
v -0.3 3 -2.3
v 0.4 3 -2.3
v -0.3 3 -2.4
v 0.4 3 -2.4

# faces
f 3/3/1 2/3/1 1/3/1
f 4/3/1 2/3/1 3/3/1
f 8/3/1 6/3/1 5/3/1
f 9/3/1 6/3/1 8/3/1
f 10/2/1 8/2/1 7/2/1
f 11/2/1 8/2/1 10/2/1
f 13/3/1 12/3/1 11/3/1
f 14/3/1 12/3/1 13/3/1
f 18/3/1 16/3/1 15/3/1
f 19/3/1 16/3/1 18/3/1
f 20/2/1 18/2/1 17/2/1
f 21/2/1 18/2/1 20/2/1
f 24/2/1 23/2/1 22/2/1
f 25/2/1 23/2/1 24/2/1
f 28/2/1 27/2/1 26/2/1
f 29/2/1 27/2/1 28/2/1
f 31/3/1 30/3/1 29/3/1
f 32/3/1 30/3/1 31/3/1
f 36/3/1 34/3/1 33/3/1
f 37/3/1 34/3/1 36/3/1
f 38/2/1 36/2/1 35/2/1
f 39/2/1 36/2/1 38/2/1
f 42/2/1 41/2/1 40/2/1
f 43/2/1 41/2/1 42/2/1
f 45/3/1 44/3/1 43/3/1
f 46/3/1 44/3/1 45/3/1
f 50/3/1 48/3/1 47/3/1
f 51/3/1 48/3/1 50/3/1
f 52/2/1 50/2/1 49/2/1
f 53/2/1 50/2/1 52/2/1
f 56/2/1 55/2/1 54/2/1
f 57/2/1 55/2/1 56/2/1
f 60/2/1 59/2/1 58/2/1
f 61/2/1 59/2/1 60/2/1
f 63/3/1 62/3/1 61/3/1
f 64/3/1 62/3/1 63/3/1
f 68/2/1 66/2/1 65/2/1
f 68/1/1 67/1/1 66/1/1
f 69/1/1 67/1/1 68/1/1
f 70/2/1 68/2/1 65/2/1
f 71/2/1 68/2/1 70/2/1
f 74/1/1 73/1/1 72/1/1
f 75/1/1 73/1/1 74/1/1
f 78/2/1 77/2/1 76/2/1
f 79/2/1 77/2/1 78/2/1
f 82/2/1 81/2/1 80/2/1
f 83/2/1 81/2/1 82/2/1
f 86/2/1 85/2/1 84/2/1
f 87/2/1 85/2/1 86/2/1
f 90/2/1 89/2/1 88/2/1
f 91/2/1 89/2/1 90/2/1
f 92/2/2 93/2/2 94/2/2
f 94/2/2 93/2/2 95/2/2
f 96/2/2 97/2/2 99/2/2
f 97/1/2 98/1/2 100/1/2
f 99/2/2 97/2/2 100/2/2
f 100/1/2 98/1/2 101/1/2
f 102/1/2 103/1/2 105/1/2
f 103/1/2 104/1/2 105/1/2
f 105/1/2 104/1/2 106/1/2
f 106/1/2 104/1/2 107/1/2
f 105/2/2 106/2/2 108/2/2
f 108/2/2 106/2/2 109/2/2
f 110/2/2 111/2/2 112/2/2
f 112/2/2 111/2/2 113/2/2
f 114/2/2 115/2/2 116/2/2
f 114/2/2 116/2/2 118/2/2
f 116/1/2 117/1/2 118/1/2
f 118/1/2 117/1/2 119/1/2
f 114/2/2 118/2/2 120/2/2
f 120/2/2 118/2/2 121/2/2
f 122/2/2 123/2/2 124/2/2
f 124/2/2 123/2/2 125/2/2
f 126/2/2 127/2/2 128/2/2
f 128/2/2 127/2/2 129/2/2
f 130/3/2 131/3/2 133/3/2
f 133/3/2 131/3/2 134/3/2
f 132/2/2 133/2/2 135/2/2
f 135/2/2 133/2/2 136/2/2
f 137/2/2 138/2/2 139/2/2
f 139/2/2 138/2/2 140/2/2
f 140/3/2 141/3/2 142/3/2
f 142/3/2 141/3/2 143/3/2
f 144/3/2 145/3/2 146/3/2
f 146/3/2 145/3/2 147/3/2
f 148/3/2 149/3/2 151/3/2
f 151/3/2 149/3/2 152/3/2
f 150/2/2 151/2/2 153/2/2
f 153/2/2 151/2/2 154/2/2
f 155/2/2 156/2/2 157/2/2
f 157/2/2 156/2/2 158/2/2
f 159/3/2 160/3/2 162/3/2
f 162/3/2 160/3/2 163/3/2
f 161/2/2 162/2/2 164/2/2
f 164/2/2 162/2/2 165/2/2
f 166/2/2 167/2/2 168/2/2
f 166/2/2 168/2/2 170/2/2
f 168/3/2 169/3/2 171/3/2
f 170/2/2 168/2/2 171/2/2
f 171/3/2 169/3/2 172/3/2
f 172/3/2 169/3/2 173/3/2
f 174/3/2 175/3/2 177/3/2
f 177/3/2 175/3/2 178/3/2
f 176/2/2 177/2/2 179/2/2
f 179/2/2 177/2/2 180/2/2
f 180/3/2 181/3/2 182/3/2
f 182/3/2 181/3/2 183/3/2
f 184/3/2 185/3/2 186/3/2
f 186/3/2 185/3/2 187/3/2
f 190/2/3 189/2/3 188/2/3
f 191/2/3 189/2/3 190/2/3
f 195/2/3 193/2/3 192/2/3
f 196/2/3 193/2/3 195/2/3
f 197/2/3 193/2/3 196/2/3
f 198/2/3 193/2/3 197/2/3
f 201/2/3 195/2/3 194/2/3
f 202/2/3 198/2/3 197/2/3
f 202/2/3 199/2/3 198/2/3
f 203/2/3 199/2/3 202/2/3
f 204/2/3 199/2/3 203/2/3
f 206/1/3 203/1/3 202/1/3
f 207/2/3 205/2/3 204/2/3
f 207/1/3 203/1/3 206/1/3
f 207/2/3 204/2/3 203/2/3
f 208/2/3 205/2/3 207/2/3
f 210/2/3 201/2/3 200/2/3
f 211/2/3 195/2/3 201/2/3
f 211/2/3 201/2/3 210/2/3
f 213/2/3 205/2/3 208/2/3
f 214/2/3 205/2/3 213/2/3
f 215/2/3 205/2/3 214/2/3
f 217/2/3 212/2/3 211/2/3
f 217/2/3 210/2/3 209/2/3
f 217/2/3 211/2/3 210/2/3
f 218/2/3 212/2/3 217/2/3
f 220/2/3 219/2/3 218/2/3
f 221/2/3 219/2/3 220/2/3
f 222/2/3 216/2/3 215/2/3
f 222/2/3 215/2/3 214/2/3
f 223/2/3 222/2/3 221/2/3
f 224/2/3 216/2/3 222/2/3
f 224/2/3 222/2/3 223/2/3
f 225/2/3 217/2/3 209/2/3
f 226/2/3 217/2/3 225/2/3
f 227/2/3 216/2/3 224/2/3
f 228/2/3 216/2/3 227/2/3
f 230/2/3 227/2/3 224/2/3
f 231/2/3 217/2/3 226/2/3
f 232/2/3 217/2/3 231/2/3
f 234/2/3 230/2/3 229/2/3
f 235/2/3 227/2/3 230/2/3
f 235/2/3 230/2/3 234/2/3
f 236/2/3 227/2/3 235/2/3
f 237/2/3 217/2/3 232/2/3
f 238/2/3 217/2/3 237/2/3
f 239/2/3 234/2/3 233/2/3
f 239/2/3 235/2/3 234/2/3
f 240/2/3 235/2/3 239/2/3
f 241/2/3 235/2/3 240/2/3
f 242/2/3 239/2/3 238/2/3
f 242/2/3 240/2/3 239/2/3
f 243/2/3 240/2/3 242/2/3
f 247/3/3 245/3/3 244/3/3
f 248/3/3 245/3/3 247/3/3
f 251/3/3 247/3/3 246/3/3
f 252/3/3 247/3/3 251/3/3
f 254/3/3 249/3/3 248/3/3
f 255/3/3 249/3/3 254/3/3
f 258/3/3 251/3/3 250/3/3
f 259/3/3 251/3/3 258/3/3
f 260/1/3 253/1/3 252/1/3
f 262/3/3 256/3/3 255/3/3
f 263/3/3 256/3/3 262/3/3
f 265/1/3 261/1/3 260/1/3
f 269/3/3 258/3/3 257/3/3
f 270/3/3 258/3/3 269/3/3
f 271/1/3 260/1/3 252/1/3
f 271/1/3 265/1/3 260/1/3
f 272/1/3 265/1/3 271/1/3
f 273/1/3 267/1/3 266/1/3
f 275/3/3 264/3/3 263/3/3
f 276/3/3 264/3/3 275/3/3
f 282/1/3 274/1/3 273/1/3
f 282/1/3 273/1/3 266/1/3
f 283/1/3 274/1/3 282/1/3
f 284/1/3 279/1/3 278/1/3
f 285/1/3 281/1/3 280/1/3
f 286/1/3 281/1/3 285/1/3
f 287/1/3 274/1/3 283/1/3
f 288/1/3 274/1/3 287/1/3
f 289/1/3 286/1/3 285/1/3
f 289/1/3 285/1/3 284/1/3
f 289/1/3 287/1/3 286/1/3
f 291/3/3 269/3/3 268/3/3
f 292/3/3 269/3/3 291/3/3
f 295/3/3 277/3/3 276/3/3
f 296/3/3 277/3/3 295/3/3
f 297/1/3 290/1/3 289/1/3
f 297/1/3 289/1/3 284/1/3
f 298/1/3 290/1/3 297/1/3
f 299/3/3 295/3/3 294/3/3
f 300/3/3 295/3/3 299/3/3
f 301/3/3 293/3/3 292/3/3
f 302/3/3 293/3/3 301/3/3
f 304/1/3 297/1/3 284/1/3
f 305/1/3 297/1/3 304/1/3
f 308/3/3 303/3/3 302/3/3
f 309/3/3 303/3/3 308/3/3
f 310/1/3 284/1/3 278/1/3
f 310/1/3 304/1/3 284/1/3
f 311/1/3 304/1/3 310/1/3
f 314/3/3 307/3/3 306/3/3
f 315/3/3 307/3/3 314/3/3
f 316/3/3 310/3/3 309/3/3
f 317/3/3 310/3/3 316/3/3
f 318/3/3 313/3/3 312/3/3
f 319/3/3 313/3/3 318/3/3
f 320/3/3 318/3/3 317/3/3
f 321/3/3 318/3/3 320/3/3
f 322/3/4 323/3/4 325/3/4
f 325/3/4 323/3/4 326/3/4
f 324/3/4 325/3/4 329/3/4
f 326/3/4 327/3/4 329/3/4
f 325/3/4 326/3/4 329/3/4
f 329/3/4 327/3/4 330/3/4
f 330/3/4 327/3/4 331/3/4
f 331/3/4 327/3/4 332/3/4
f 328/3/4 329/3/4 335/3/4
f 329/3/4 330/3/4 335/3/4
f 335/3/4 330/3/4 336/3/4
f 330/1/4 331/1/4 337/1/4
f 336/3/4 330/3/4 337/3/4
f 332/3/4 333/3/4 338/3/4
f 337/1/4 331/1/4 338/1/4
f 331/3/4 332/3/4 338/3/4
f 338/3/4 333/3/4 339/3/4
f 339/3/4 333/3/4 340/3/4
f 334/3/4 335/3/4 342/3/4
f 335/3/4 336/3/4 342/3/4
f 336/1/4 337/1/4 343/1/4
f 342/3/4 336/3/4 343/3/4
f 337/1/4 338/1/4 343/1/4
f 338/1/4 339/1/4 343/1/4
f 343/1/4 339/1/4 344/1/4
f 344/1/4 339/1/4 345/1/4
f 345/1/4 339/1/4 346/1/4
f 340/3/4 341/3/4 347/3/4
f 346/1/4 339/1/4 347/1/4
f 339/3/4 340/3/4 347/3/4
f 334/3/4 342/3/4 349/3/4
f 346/3/4 347/3/4 350/3/4
f 345/1/4 346/1/4 350/1/4
f 347/3/4 341/3/4 351/3/4
f 350/3/4 347/3/4 351/3/4
f 351/3/4 341/3/4 352/3/4
f 342/1/4 343/1/4 354/1/4
f 343/1/4 344/1/4 354/1/4
f 354/1/4 344/1/4 355/1/4
f 355/1/4 344/1/4 356/1/4
f 345/1/4 350/1/4 357/1/4
f 350/1/4 351/1/4 357/1/4
f 352/3/4 353/3/4 358/3/4
f 351/3/4 352/3/4 358/3/4
f 357/1/4 351/1/4 358/1/4
f 358/3/4 353/3/4 359/3/4
f 348/3/4 349/3/4 360/3/4
f 349/3/4 342/3/4 360/3/4
f 342/1/4 354/1/4 361/1/4
f 360/3/4 342/3/4 361/3/4
f 361/1/4 354/1/4 362/1/4
f 358/1/4 359/1/4 363/1/4
f 355/1/4 356/1/4 363/1/4
f 356/1/4 357/1/4 363/1/4
f 357/1/4 358/1/4 363/1/4
f 361/1/4 362/1/4 364/1/4
f 362/1/4 363/1/4 364/1/4
f 363/1/4 359/1/4 364/1/4
f 360/1/4 361/1/4 364/1/4
f 359/3/4 353/3/4 365/3/4
f 364/1/4 359/1/4 365/1/4
f 360/1/4 364/1/4 366/1/4
f 364/3/4 365/3/4 366/3/4
f 365/3/4 353/3/4 367/3/4
f 366/3/4 365/3/4 367/3/4
f 360/1/4 366/1/4 368/1/4
f 348/3/4 360/3/4 368/3/4
f 366/1/4 367/1/4 368/1/4
f 368/1/4 367/1/4 369/1/4
f 369/1/4 367/1/4 370/1/4
f 367/3/4 353/3/4 371/3/4
f 370/1/4 367/1/4 371/1/4
f 348/3/4 368/3/4 372/3/4
f 368/3/4 369/3/4 372/3/4
f 372/3/4 369/3/4 373/3/4
f 369/1/4 370/1/4 374/1/4
f 374/1/4 370/1/4 375/1/4
f 371/3/4 353/3/4 376/3/4
f 370/3/4 371/3/4 376/3/4
f 376/3/4 353/3/4 377/3/4
f 374/2/4 375/2/4 378/2/4
f 369/1/4 374/1/4 378/1/4
f 375/1/4 370/1/4 379/1/4
f 378/2/4 375/2/4 379/2/4
f 379/1/4 370/1/4 380/1/4
f 370/3/4 376/3/4 381/3/4
f 380/1/4 370/1/4 381/1/4
f 381/3/4 376/3/4 382/3/4
f 382/3/4 376/3/4 383/3/4
f 373/3/4 369/3/4 384/3/4
f 384/3/4 369/3/4 385/3/4
f 369/1/4 378/1/4 386/1/4
f 385/3/4 369/3/4 386/3/4
f 379/1/4 380/1/4 386/1/4
f 378/1/4 379/1/4 386/1/4
f 386/1/4 380/1/4 387/1/4
f 387/1/4 380/1/4 388/1/4
f 381/3/4 382/3/4 389/3/4
f 388/1/4 380/1/4 389/1/4
f 380/3/4 381/3/4 389/3/4
f 386/3/4 387/3/4 390/3/4
f 385/3/4 386/3/4 390/3/4
f 390/3/4 387/3/4 391/3/4
f 387/1/4 388/1/4 392/1/4
f 391/3/4 387/3/4 392/3/4
f 388/3/4 389/3/4 393/3/4
f 392/1/4 388/1/4 393/1/4
f 389/3/4 382/3/4 394/3/4
f 393/3/4 389/3/4 394/3/4
f 394/3/4 382/3/4 395/3/4
f 392/3/4 393/3/4 396/3/4
f 393/3/4 394/3/4 396/3/4
f 391/3/4 392/3/4 396/3/4
f 396/3/4 394/3/4 397/3/4
f 397/3/4 394/3/4 398/3/4
f 398/3/4 394/3/4 399/3/4
f 397/3/4 398/3/4 400/3/4
f 400/3/4 398/3/4 401/3/4
f 404/3/5 403/3/5 402/3/5
f 405/3/5 403/3/5 404/3/5
f 409/2/5 407/2/5 406/2/5
f 410/2/5 407/2/5 409/2/5
f 412/3/5 409/3/5 408/3/5
f 413/3/5 409/3/5 412/3/5
f 414/3/5 411/3/5 410/3/5
f 415/3/5 411/3/5 414/3/5
f 421/2/5 417/2/5 416/2/5
f 422/2/5 417/2/5 421/2/5
f 423/2/5 419/2/5 418/2/5
f 424/2/5 419/2/5 423/2/5
f 426/3/5 421/3/5 420/3/5
f 427/3/5 421/3/5 426/3/5
f 428/3/5 425/3/5 424/3/5
f 429/3/5 425/3/5 428/3/5
f 435/2/5 431/2/5 430/2/5
f 436/2/5 431/2/5 435/2/5
f 437/2/5 433/2/5 432/2/5
f 438/2/5 433/2/5 437/2/5
f 440/3/5 435/3/5 434/3/5
f 441/3/5 435/3/5 440/3/5
f 442/3/5 439/3/5 438/3/5
f 443/3/5 439/3/5 442/3/5
f 449/2/5 445/2/5 444/2/5
f 450/2/5 445/2/5 449/2/5
f 451/2/5 447/2/5 446/2/5
f 452/2/5 447/2/5 451/2/5
f 454/3/5 449/3/5 448/3/5
f 455/3/5 449/3/5 454/3/5
f 456/3/5 453/3/5 452/3/5
f 457/3/5 453/3/5 456/3/5
f 460/2/5 459/2/5 458/2/5
f 461/2/5 459/2/5 460/2/5
f 462/1/5 461/1/5 460/1/5
f 463/1/5 461/1/5 462/1/5
f 466/1/5 465/1/5 464/1/5
f 467/1/5 465/1/5 466/1/5
f 474/1/5 469/1/5 468/1/5
f 475/1/5 469/1/5 474/1/5
f 476/2/5 471/2/5 470/2/5
f 477/2/5 471/2/5 476/2/5
f 478/2/5 473/2/5 472/2/5
f 479/2/5 473/2/5 478/2/5
f 482/1/5 481/1/5 480/1/5
f 483/1/5 481/1/5 482/1/5
f 490/2/5 485/2/5 484/2/5
f 491/2/5 485/2/5 490/2/5
f 492/2/5 487/2/5 486/2/5
f 493/2/5 487/2/5 492/2/5
f 494/2/5 489/2/5 488/2/5
f 495/2/5 489/2/5 494/2/5
f 498/2/5 497/2/5 496/2/5
f 499/2/5 497/2/5 498/2/5
f 502/2/5 501/2/5 500/2/5
f 503/2/5 501/2/5 502/2/5
f 504/2/6 505/2/6 508/2/6
f 508/2/6 505/2/6 509/2/6
f 506/2/6 507/2/6 510/2/6
f 510/2/6 507/2/6 511/2/6
f 512/1/6 513/1/6 514/1/6
f 514/1/6 513/1/6 515/1/6
f 516/2/6 517/2/6 518/2/6
f 518/2/6 517/2/6 519/2/6
f 520/2/6 521/2/6 523/2/6
f 523/2/6 521/2/6 524/2/6
f 522/1/6 523/1/6 525/1/6
f 523/1/6 524/1/6 525/1/6
f 525/1/6 524/1/6 526/1/6
f 527/2/6 528/2/6 529/2/6
f 529/2/6 528/2/6 530/2/6
f 531/2/6 532/2/6 536/2/6
f 536/2/6 532/2/6 537/2/6
f 533/2/6 534/2/6 538/2/6
f 538/2/6 534/2/6 539/2/6
f 535/3/6 536/3/6 541/3/6
f 541/3/6 536/3/6 542/3/6
f 539/3/6 540/3/6 543/3/6
f 543/3/6 540/3/6 544/3/6
f 545/3/6 546/3/6 547/3/6
f 547/3/6 546/3/6 548/3/6
f 549/2/6 550/2/6 554/2/6
f 554/2/6 550/2/6 555/2/6
f 551/2/6 552/2/6 556/2/6
f 556/2/6 552/2/6 557/2/6
f 553/3/6 554/3/6 558/3/6
f 558/3/6 554/3/6 559/3/6
f 560/2/6 561/2/6 565/2/6
f 565/2/6 561/2/6 566/2/6
f 562/2/6 563/2/6 567/2/6
f 567/2/6 563/2/6 568/2/6
f 568/2/6 563/2/6 569/2/6
f 564/3/6 565/3/6 571/3/6
f 571/3/6 565/3/6 572/3/6
f 569/3/6 570/3/6 573/3/6
f 568/3/6 569/3/6 573/3/6
f 573/3/6 570/3/6 574/3/6
f 575/2/6 576/2/6 578/2/6
f 578/2/6 576/2/6 579/2/6
f 577/3/6 578/3/6 581/3/6
f 581/3/6 578/3/6 582/3/6
f 579/3/6 580/3/6 583/3/6
f 583/3/6 580/3/6 584/3/6
f 585/3/6 586/3/6 587/3/6
f 587/3/6 586/3/6 588/3/6
