# MagicaVoxel @ Ephtracy

# group
o 

# material
mtllib energy-physical.mtl
usemtl palette

# normals
vn -1 0 0
vn 1 0 0
vn 0 0 1
vn 0 0 -1
vn 0 -1 0
vn 0 1 0

# texcoords
vt 0.947266 0.5
vt 0.962891 0.5
vt 0.982422 0.5

# verts
v -0.8 1.8 -2.3
v -0.8 1.8 -2.4
v -0.8 2.5 -2.3
v -0.8 2.5 -2.4
v -0.7 1.6 -2.3
v -0.7 1.6 -2.4
v -0.7 1.8 -2.2
v -0.7 1.8 -2.3
v -0.7 1.8 -2.4
v -0.7 2.5 -2.2
v -0.7 2.5 -2.3
v -0.7 2.5 -2.4
v -0.7 2.7 -2.3
v -0.7 2.7 -2.4
v -0.6 1.5 -2.3
v -0.6 1.5 -2.4
v -0.6 1.6 -2.2
v -0.6 1.6 -2.3
v -0.6 1.6 -2.4
v -0.6 1.8 -2.2
v -0.6 1.8 -2.3
v -0.6 2.5 -2.2
v -0.6 2.5 -2.3
v -0.6 2.7 -2.2
v -0.6 2.7 -2.3
v -0.6 2.7 -2.4
v -0.6 2.8 -2.3
v -0.6 2.8 -2.4
v -0.5 1.4 -2.3
v -0.5 1.4 -2.4
v -0.5 1.5 -2.2
v -0.5 1.5 -2.3
v -0.5 1.5 -2.4
v -0.5 1.6 -2.2
v -0.5 1.6 -2.3
v -0.5 2.7 -2.2
v -0.5 2.7 -2.3
v -0.5 2.8 -2.2
v -0.5 2.8 -2.3
v -0.5 2.8 -2.4
v -0.5 2.9 -2.3
v -0.5 2.9 -2.4
v -0.3 1.3 -2.3
v -0.3 1.3 -2.4
v -0.3 1.4 -2.2
v -0.3 1.4 -2.3
v -0.3 1.4 -2.4
v -0.3 1.5 -2.2
v -0.3 1.5 -2.3
v -0.3 1.8 -2.2
v -0.3 1.8 -2.3
v -0.3 2.2 -2.2
v -0.3 2.2 -2.3
v -0.3 2.8 -2.2
v -0.3 2.8 -2.3
v -0.3 2.9 -2.2
v -0.3 2.9 -2.3
v -0.3 2.9 -2.4
v -0.3 3 -2.3
v -0.3 3 -2.4
v -0.2 2.2 -2.2
v -0.2 2.2 -2.3
v -0.2 2.4 -2.2
v -0.2 2.4 -2.3
v -0.1 2.4 -2.2
v -0.1 2.4 -2.3
v -0.1 2.5 -2.2
v -0.1 2.5 -2.3
v 0.5 2.4 -2.2
v 0.5 2.4 -2.3
v 0.5 2.6 -2.2
v 0.5 2.6 -2.3
v 0.6 2.2 -2.2
v 0.6 2.2 -2.3
v 0.6 2.4 -2.2
v 0.6 2.4 -2.3
v 0.7 1.8 -2.2
v 0.7 1.8 -2.3
v 0.7 2.2 -2.2
v 0.7 2.2 -2.3
v -0.6 1.8 -2.2
v -0.6 1.8 -2.3
v -0.6 2.1 -2.2
v -0.6 2.1 -2.3
v -0.5 2.1 -2.2
v -0.5 2.1 -2.3
v -0.5 2.3 -2.2
v -0.5 2.3 -2.3
v -0.4 2.3 -2.2
v -0.4 2.3 -2.3
v -0.4 2.4 -2.2
v -0.4 2.4 -2.3
v -0.3 2.4 -2.2
v -0.3 2.4 -2.3
v -0.3 2.5 -2.2
v -0.3 2.5 -2.3
v -0.2 1.8 -2.2
v -0.2 1.8 -2.3
v -0.2 2.2 -2.2
v -0.2 2.2 -2.3
v -0.1 2.2 -2.2
v -0.1 2.2 -2.3
v -0.1 2.4 -2.2
v -0.1 2.4 -2.3
v -5.96046e-08 2.4 -2.2
v -5.96046e-08 2.4 -2.3
v -5.96046e-08 2.6 -2.2
v -5.96046e-08 2.6 -2.3
v 0.4 1.3 -2.3
v 0.4 1.3 -2.4
v 0.4 1.4 -2.2
v 0.4 1.4 -2.3
v 0.4 1.4 -2.4
v 0.4 1.5 -2.2
v 0.4 1.5 -2.3
v 0.4 2.8 -2.2
v 0.4 2.8 -2.3
v 0.4 2.9 -2.2
v 0.4 2.9 -2.3
v 0.4 2.9 -2.4
v 0.4 3 -2.3
v 0.4 3 -2.4
v 0.5 2.8 -2.3
v 0.5 2.8 -2.4
v 0.5 2.9 -2.3
v 0.5 2.9 -2.4
v 0.6 1.4 -2.3
v 0.6 1.4 -2.4
v 0.6 1.5 -2.2
v 0.6 1.5 -2.3
v 0.6 1.5 -2.4
v 0.6 1.6 -2.2
v 0.6 1.6 -2.3
v 0.6 2.7 -2.2
v 0.6 2.7 -2.3
v 0.6 2.8 -2.2
v 0.6 2.8 -2.3
v 0.7 1.5 -2.3
v 0.7 1.5 -2.4
v 0.7 1.6 -2.2
v 0.7 1.6 -2.3
v 0.7 1.6 -2.4
v 0.7 1.8 -2.2
v 0.7 1.8 -2.3
v 0.7 2.5 -2.2
v 0.7 2.5 -2.3
v 0.7 2.7 -2.2
v 0.7 2.7 -2.3
v 0.7 2.7 -2.4
v 0.7 2.8 -2.3
v 0.7 2.8 -2.4
v 0.8 1.6 -2.3
v 0.8 1.6 -2.4
v 0.8 1.8 -2.2
v 0.8 1.8 -2.3
v 0.8 1.8 -2.4
v 0.8 2.5 -2.2
v 0.8 2.5 -2.3
v 0.8 2.5 -2.4
v 0.8 2.7 -2.3
v 0.8 2.7 -2.4
v 0.9 1.8 -2.3
v 0.9 1.8 -2.4
v 0.9 2.5 -2.3
v 0.9 2.5 -2.4
v -0.7 1.8 -2.2
v -0.7 2.5 -2.2
v -0.6 1.6 -2.2
v -0.6 1.8 -2.2
v -0.6 2.1 -2.2
v -0.6 2.5 -2.2
v -0.6 2.7 -2.2
v -0.5 1.5 -2.2
v -0.5 1.6 -2.2
v -0.5 2.1 -2.2
v -0.5 2.3 -2.2
v -0.5 2.7 -2.2
v -0.5 2.8 -2.2
v -0.4 2.3 -2.2
v -0.4 2.4 -2.2
v -0.3 1.4 -2.2
v -0.3 1.5 -2.2
v -0.3 1.8 -2.2
v -0.3 2.2 -2.2
v -0.3 2.4 -2.2
v -0.3 2.5 -2.2
v -0.3 2.8 -2.2
v -0.3 2.9 -2.2
v -0.2 1.8 -2.2
v -0.2 2.2 -2.2
v -0.2 2.4 -2.2
v -0.1 2.2 -2.2
v -0.1 2.4 -2.2
v -0.1 2.5 -2.2
v -5.96046e-08 2.4 -2.2
v -5.96046e-08 2.6 -2.2
v 0.4 1.4 -2.2
v 0.4 1.5 -2.2
v 0.4 2.8 -2.2
v 0.4 2.9 -2.2
v 0.5 2.4 -2.2
v 0.5 2.6 -2.2
v 0.6 1.5 -2.2
v 0.6 1.6 -2.2
v 0.6 2.2 -2.2
v 0.6 2.4 -2.2
v 0.6 2.7 -2.2
v 0.6 2.8 -2.2
v 0.7 1.6 -2.2
v 0.7 1.8 -2.2
v 0.7 2.2 -2.2
v 0.7 2.5 -2.2
v 0.7 2.7 -2.2
v 0.8 1.8 -2.2
v 0.8 2.5 -2.2
v -0.8 1.8 -2.3
v -0.8 2.5 -2.3
v -0.7 1.6 -2.3
v -0.7 1.8 -2.3
v -0.7 2.5 -2.3
v -0.7 2.7 -2.3
v -0.6 1.5 -2.3
v -0.6 1.6 -2.3
v -0.6 1.8 -2.3
v -0.6 2.1 -2.3
v -0.6 2.5 -2.3
v -0.6 2.7 -2.3
v -0.6 2.8 -2.3
v -0.5 1.4 -2.3
v -0.5 1.5 -2.3
v -0.5 1.6 -2.3
v -0.5 2.1 -2.3
v -0.5 2.3 -2.3
v -0.5 2.7 -2.3
v -0.5 2.8 -2.3
v -0.5 2.9 -2.3
v -0.4 2.3 -2.3
v -0.4 2.4 -2.3
v -0.3 1.3 -2.3
v -0.3 1.4 -2.3
v -0.3 1.5 -2.3
v -0.3 1.8 -2.3
v -0.3 2.2 -2.3
v -0.3 2.4 -2.3
v -0.3 2.5 -2.3
v -0.3 2.8 -2.3
v -0.3 2.9 -2.3
v -0.3 3 -2.3
v -0.2 1.8 -2.3
v -0.2 2.2 -2.3
v -0.2 2.4 -2.3
v -0.1 2.2 -2.3
v -0.1 2.4 -2.3
v -0.1 2.5 -2.3
v -5.96046e-08 2.4 -2.3
v -5.96046e-08 2.6 -2.3
v 0.4 1.3 -2.3
v 0.4 1.4 -2.3
v 0.4 1.5 -2.3
v 0.4 2.8 -2.3
v 0.4 2.9 -2.3
v 0.4 3 -2.3
v 0.5 2.4 -2.3
v 0.5 2.6 -2.3
v 0.5 2.8 -2.3
v 0.5 2.9 -2.3
v 0.6 1.4 -2.3
v 0.6 1.5 -2.3
v 0.6 1.6 -2.3
v 0.6 2.2 -2.3
v 0.6 2.4 -2.3
v 0.6 2.7 -2.3
v 0.6 2.8 -2.3
v 0.7 1.5 -2.3
v 0.7 1.6 -2.3
v 0.7 1.8 -2.3
v 0.7 2.2 -2.3
v 0.7 2.5 -2.3
v 0.7 2.7 -2.3
v 0.7 2.8 -2.3
v 0.8 1.6 -2.3
v 0.8 1.8 -2.3
v 0.8 2.5 -2.3
v 0.8 2.7 -2.3
v 0.9 1.8 -2.3
v 0.9 2.5 -2.3
v -0.8 1.8 -2.4
v -0.8 2.5 -2.4
v -0.7 1.6 -2.4
v -0.7 1.8 -2.4
v -0.7 2.5 -2.4
v -0.7 2.7 -2.4
v -0.6 1.5 -2.4
v -0.6 1.6 -2.4
v -0.6 1.8 -2.4
v -0.6 2.4 -2.4
v -0.6 2.7 -2.4
v -0.6 2.8 -2.4
v -0.5 1.4 -2.4
v -0.5 1.5 -2.4
v -0.5 1.7 -2.4
v -0.5 1.8 -2.4
v -0.5 2.4 -2.4
v -0.5 2.5 -2.4
v -0.5 2.8 -2.4
v -0.5 2.9 -2.4
v -0.4 1.6 -2.4
v -0.4 1.7 -2.4
v -0.4 2.4 -2.4
v -0.4 2.5 -2.4
v -0.3 1.3 -2.4
v -0.3 1.4 -2.4
v -0.3 2.4 -2.4
v -0.3 2.7 -2.4
v -0.3 2.9 -2.4
v -0.3 3 -2.4
v -0.2 2.7 -2.4
v -0.2 2.8 -2.4
v -0.1 1.5 -2.4
v -0.1 1.6 -2.4
v 0.0999999 2.7 -2.4
v 0.0999999 2.8 -2.4
v 0.2 2.7 -2.4
v 0.2 2.8 -2.4
v 0.3 1.5 -2.4
v 0.3 1.6 -2.4
v 0.3 2.6 -2.4
v 0.3 2.8 -2.4
v 0.4 1.3 -2.4
v 0.4 1.4 -2.4
v 0.4 1.7 -2.4
v 0.4 1.8 -2.4
v 0.4 2.9 -2.4
v 0.4 3 -2.4
v 0.5 1.7 -2.4
v 0.5 1.8 -2.4
v 0.5 2.5 -2.4
v 0.5 2.6 -2.4
v 0.5 2.8 -2.4
v 0.5 2.9 -2.4
v 0.6 1.4 -2.4
v 0.6 1.5 -2.4
v 0.6 1.6 -2.4
v 0.6 1.8 -2.4
v 0.6 2.2 -2.4
v 0.6 2.5 -2.4
v 0.7 1.5 -2.4
v 0.7 1.6 -2.4
v 0.7 1.8 -2.4
v 0.7 2.2 -2.4
v 0.7 2.7 -2.4
v 0.7 2.8 -2.4
v 0.8 1.6 -2.4
v 0.8 1.8 -2.4
v 0.8 2.5 -2.4
v 0.8 2.7 -2.4
v 0.9 1.8 -2.4
v 0.9 2.5 -2.4
v -0.3 1.3 -2.3
v 0.4 1.3 -2.3
v -0.3 1.3 -2.4
v 0.4 1.3 -2.4
v -0.3 1.4 -2.2
v 0.4 1.4 -2.2
v -0.5 1.4 -2.3
v -0.3 1.4 -2.3
v 0.4 1.4 -2.3
v 0.6 1.4 -2.3
v -0.5 1.4 -2.4
v -0.3 1.4 -2.4
v 0.4 1.4 -2.4
v 0.6 1.4 -2.4
v -0.5 1.5 -2.2
v -0.3 1.5 -2.2
v 0.4 1.5 -2.2
v 0.6 1.5 -2.2
v -0.6 1.5 -2.3
v -0.5 1.5 -2.3
v -0.3 1.5 -2.3
v 0.4 1.5 -2.3
v 0.6 1.5 -2.3
v 0.7 1.5 -2.3
v -0.6 1.5 -2.4
v -0.5 1.5 -2.4
v 0.6 1.5 -2.4
v 0.7 1.5 -2.4
v -0.6 1.6 -2.2
v -0.5 1.6 -2.2
v 0.6 1.6 -2.2
v 0.7 1.6 -2.2
v -0.7 1.6 -2.3
v -0.6 1.6 -2.3
v -0.5 1.6 -2.3
v 0.6 1.6 -2.3
v 0.7 1.6 -2.3
v 0.8 1.6 -2.3
v -0.7 1.6 -2.4
v -0.6 1.6 -2.4
v 0.7 1.6 -2.4
v 0.8 1.6 -2.4
v -0.7 1.8 -2.2
v -0.6 1.8 -2.2
v 0.7 1.8 -2.2
v 0.8 1.8 -2.2
v -0.8 1.8 -2.3
v -0.7 1.8 -2.3
v -0.6 1.8 -2.3
v 0.7 1.8 -2.3
v 0.8 1.8 -2.3
v 0.9 1.8 -2.3
v -0.8 1.8 -2.4
v -0.7 1.8 -2.4
v 0.8 1.8 -2.4
v 0.9 1.8 -2.4
v -0.6 2.1 -2.2
v -0.5 2.1 -2.2
v -0.6 2.1 -2.3
v -0.5 2.1 -2.3
v -0.2 2.2 -2.2
v -0.1 2.2 -2.2
v 0.6 2.2 -2.2
v 0.7 2.2 -2.2
v -0.2 2.2 -2.3
v -0.1 2.2 -2.3
v 0.6 2.2 -2.3
v 0.7 2.2 -2.3
v -0.5 2.3 -2.2
v -0.4 2.3 -2.2
v -0.5 2.3 -2.3
v -0.4 2.3 -2.3
v -0.4 2.4 -2.2
v -0.3 2.4 -2.2
v -0.1 2.4 -2.2
v -5.96046e-08 2.4 -2.2
v 0.5 2.4 -2.2
v 0.6 2.4 -2.2
v -0.4 2.4 -2.3
v -0.3 2.4 -2.3
v -0.1 2.4 -2.3
v -5.96046e-08 2.4 -2.3
v 0.5 2.4 -2.3
v 0.6 2.4 -2.3
v -0.3 2.5 -2.2
v -0.1 2.5 -2.2
v -0.3 2.5 -2.3
v -0.1 2.5 -2.3
v -5.96046e-08 2.6 -2.2
v 0.5 2.6 -2.2
v -5.96046e-08 2.6 -2.3
v 0.5 2.6 -2.3
v -0.6 1.8 -2.2
v -0.3 1.8 -2.2
v -0.2 1.8 -2.2
v 0.7 1.8 -2.2
v -0.6 1.8 -2.3
v -0.3 1.8 -2.3
v -0.2 1.8 -2.3
v 0.7 1.8 -2.3
v -0.3 2.2 -2.2
v -0.2 2.2 -2.2
v -0.3 2.2 -2.3
v -0.2 2.2 -2.3
v -0.2 2.4 -2.2
v -0.1 2.4 -2.2
v -0.2 2.4 -2.3
v -0.1 2.4 -2.3
v -0.7 2.5 -2.2
v -0.6 2.5 -2.2
v 0.7 2.5 -2.2
v 0.8 2.5 -2.2
v -0.8 2.5 -2.3
v -0.7 2.5 -2.3
v -0.6 2.5 -2.3
v 0.7 2.5 -2.3
v 0.8 2.5 -2.3
v 0.9 2.5 -2.3
v -0.8 2.5 -2.4
v -0.7 2.5 -2.4
v 0.8 2.5 -2.4
v 0.9 2.5 -2.4
v -0.6 2.7 -2.2
v -0.5 2.7 -2.2
v 0.6 2.7 -2.2
v 0.7 2.7 -2.2
v -0.7 2.7 -2.3
v -0.6 2.7 -2.3
v -0.5 2.7 -2.3
v 0.6 2.7 -2.3
v 0.7 2.7 -2.3
v 0.8 2.7 -2.3
v -0.7 2.7 -2.4
v -0.6 2.7 -2.4
v 0.7 2.7 -2.4
v 0.8 2.7 -2.4
v -0.5 2.8 -2.2
v -0.3 2.8 -2.2
v 0.4 2.8 -2.2
v 0.6 2.8 -2.2
v -0.6 2.8 -2.3
v -0.5 2.8 -2.3
v -0.3 2.8 -2.3
v 0.4 2.8 -2.3
v 0.5 2.8 -2.3
v 0.6 2.8 -2.3
v 0.7 2.8 -2.3
v -0.6 2.8 -2.4
v -0.5 2.8 -2.4
v 0.5 2.8 -2.4
v 0.7 2.8 -2.4
v -0.3 2.9 -2.2
v 0.4 2.9 -2.2
v -0.5 2.9 -2.3
v -0.3 2.9 -2.3
v 0.4 2.9 -2.3
v 0.5 2.9 -2.3
v -0.5 2.9 -2.4
v -0.3 2.9 -2.4
v 0.4 2.9 -2.4
v 0.5 2.9 -2.4
v -0.3 3 -2.3
v 0.4 3 -2.3
v -0.3 3 -2.4
v 0.4 3 -2.4

# faces
f 3/3/1 2/3/1 1/3/1
f 4/3/1 2/3/1 3/3/1
f 8/3/1 6/3/1 5/3/1
f 9/3/1 6/3/1 8/3/1
f 10/2/1 8/2/1 7/2/1
f 11/2/1 8/2/1 10/2/1
f 13/3/1 12/3/1 11/3/1
f 14/3/1 12/3/1 13/3/1
f 18/3/1 16/3/1 15/3/1
f 19/3/1 16/3/1 18/3/1
f 20/2/1 18/2/1 17/2/1
f 21/2/1 18/2/1 20/2/1
f 24/2/1 23/2/1 22/2/1
f 25/2/1 23/2/1 24/2/1
f 27/3/1 26/3/1 25/3/1
f 28/3/1 26/3/1 27/3/1
f 32/3/1 30/3/1 29/3/1
f 33/3/1 30/3/1 32/3/1
f 34/2/1 32/2/1 31/2/1
f 35/2/1 32/2/1 34/2/1
f 38/2/1 37/2/1 36/2/1
f 39/2/1 37/2/1 38/2/1
f 41/3/1 40/3/1 39/3/1
f 42/3/1 40/3/1 41/3/1
f 46/3/1 44/3/1 43/3/1
f 47/3/1 44/3/1 46/3/1
f 48/2/1 46/2/1 45/2/1
f 49/2/1 46/2/1 48/2/1
f 52/2/1 51/2/1 50/2/1
f 53/2/1 51/2/1 52/2/1
f 56/2/1 55/2/1 54/2/1
f 57/2/1 55/2/1 56/2/1
f 59/3/1 58/3/1 57/3/1
f 60/3/1 58/3/1 59/3/1
f 63/2/1 62/2/1 61/2/1
f 64/2/1 62/2/1 63/2/1
f 67/2/1 66/2/1 65/2/1
f 68/2/1 66/2/1 67/2/1
f 71/2/1 70/2/1 69/2/1
f 72/2/1 70/2/1 71/2/1
f 75/2/1 74/2/1 73/2/1
f 76/2/1 74/2/1 75/2/1
f 79/2/1 78/2/1 77/2/1
f 80/2/1 78/2/1 79/2/1
f 81/2/2 82/2/2 83/2/2
f 83/2/2 82/2/2 84/2/2
f 85/2/2 86/2/2 87/2/2
f 87/2/2 86/2/2 88/2/2
f 89/2/2 90/2/2 91/2/2
f 91/2/2 90/2/2 92/2/2
f 93/2/2 94/2/2 95/2/2
f 95/2/2 94/2/2 96/2/2
f 97/2/2 98/2/2 99/2/2
f 99/2/2 98/2/2 100/2/2
f 101/2/2 102/2/2 103/2/2
f 103/2/2 102/2/2 104/2/2
f 105/2/2 106/2/2 107/2/2
f 107/2/2 106/2/2 108/2/2
f 109/3/2 110/3/2 112/3/2
f 112/3/2 110/3/2 113/3/2
f 111/2/2 112/2/2 114/2/2
f 114/2/2 112/2/2 115/2/2
f 116/2/2 117/2/2 118/2/2
f 118/2/2 117/2/2 119/2/2
f 119/3/2 120/3/2 121/3/2
f 121/3/2 120/3/2 122/3/2
f 123/3/2 124/3/2 125/3/2
f 125/3/2 124/3/2 126/3/2
f 127/3/2 128/3/2 130/3/2
f 130/3/2 128/3/2 131/3/2
f 129/2/2 130/2/2 132/2/2
f 132/2/2 130/2/2 133/2/2
f 134/2/2 135/2/2 136/2/2
f 136/2/2 135/2/2 137/2/2
f 138/3/2 139/3/2 141/3/2
f 141/3/2 139/3/2 142/3/2
f 140/2/2 141/2/2 143/2/2
f 143/2/2 141/2/2 144/2/2
f 145/2/2 146/2/2 147/2/2
f 147/2/2 146/2/2 148/2/2
f 148/3/2 149/3/2 150/3/2
f 150/3/2 149/3/2 151/3/2
f 152/3/2 153/3/2 155/3/2
f 155/3/2 153/3/2 156/3/2
f 154/2/2 155/2/2 157/2/2
f 157/2/2 155/2/2 158/2/2
f 158/3/2 159/3/2 160/3/2
f 160/3/2 159/3/2 161/3/2
f 162/3/2 163/3/2 164/3/2
f 164/3/2 163/3/2 165/3/2
f 169/2/3 167/2/3 166/2/3
f 170/2/3 167/2/3 169/2/3
f 171/2/3 167/2/3 170/2/3
f 174/2/3 169/2/3 168/2/3
f 175/2/3 171/2/3 170/2/3
f 175/2/3 172/2/3 171/2/3
f 176/2/3 172/2/3 175/2/3
f 177/2/3 172/2/3 176/2/3
f 179/2/3 178/2/3 177/2/3
f 179/2/3 177/2/3 176/2/3
f 180/2/3 178/2/3 179/2/3
f 182/2/3 174/2/3 173/2/3
f 183/2/3 169/2/3 174/2/3
f 183/2/3 174/2/3 182/2/3
f 185/2/3 178/2/3 180/2/3
f 186/2/3 178/2/3 185/2/3
f 187/2/3 178/2/3 186/2/3
f 189/2/3 184/2/3 183/2/3
f 189/2/3 182/2/3 181/2/3
f 189/2/3 183/2/3 182/2/3
f 190/2/3 184/2/3 189/2/3
f 192/2/3 191/2/3 190/2/3
f 193/2/3 191/2/3 192/2/3
f 194/2/3 188/2/3 187/2/3
f 194/2/3 187/2/3 186/2/3
f 195/2/3 194/2/3 193/2/3
f 196/2/3 188/2/3 194/2/3
f 196/2/3 194/2/3 195/2/3
f 197/2/3 189/2/3 181/2/3
f 198/2/3 189/2/3 197/2/3
f 199/2/3 188/2/3 196/2/3
f 200/2/3 188/2/3 199/2/3
f 202/2/3 199/2/3 196/2/3
f 203/2/3 189/2/3 198/2/3
f 204/2/3 189/2/3 203/2/3
f 206/2/3 202/2/3 201/2/3
f 207/2/3 199/2/3 202/2/3
f 207/2/3 202/2/3 206/2/3
f 208/2/3 199/2/3 207/2/3
f 209/2/3 189/2/3 204/2/3
f 210/2/3 189/2/3 209/2/3
f 211/2/3 206/2/3 205/2/3
f 211/2/3 207/2/3 206/2/3
f 212/2/3 207/2/3 211/2/3
f 213/2/3 207/2/3 212/2/3
f 214/2/3 211/2/3 210/2/3
f 214/2/3 212/2/3 211/2/3
f 215/2/3 212/2/3 214/2/3
f 219/3/3 217/3/3 216/3/3
f 220/3/3 217/3/3 219/3/3
f 223/3/3 219/3/3 218/3/3
f 224/3/3 219/3/3 223/3/3
f 226/3/3 221/3/3 220/3/3
f 227/3/3 221/3/3 226/3/3
f 230/3/3 223/3/3 222/3/3
f 231/3/3 223/3/3 230/3/3
f 232/1/3 225/1/3 224/1/3
f 234/3/3 228/3/3 227/3/3
f 235/3/3 228/3/3 234/3/3
f 237/1/3 233/1/3 232/1/3
f 240/3/3 230/3/3 229/3/3
f 241/3/3 230/3/3 240/3/3
f 242/1/3 238/1/3 237/1/3
f 242/1/3 232/1/3 224/1/3
f 242/1/3 237/1/3 232/1/3
f 243/1/3 238/1/3 242/1/3
f 244/1/3 238/1/3 243/1/3
f 246/3/3 236/3/3 235/3/3
f 247/3/3 236/3/3 246/3/3
f 250/1/3 245/1/3 244/1/3
f 250/1/3 244/1/3 243/1/3
f 251/1/3 245/1/3 250/1/3
f 252/1/3 250/1/3 249/1/3
f 253/1/3 245/1/3 251/1/3
f 254/1/3 245/1/3 253/1/3
f 255/1/3 253/1/3 252/1/3
f 257/3/3 240/3/3 239/3/3
f 258/3/3 240/3/3 257/3/3
f 261/3/3 248/3/3 247/3/3
f 262/3/3 248/3/3 261/3/3
f 263/1/3 256/1/3 255/1/3
f 263/1/3 255/1/3 252/1/3
f 264/1/3 256/1/3 263/1/3
f 265/3/3 261/3/3 260/3/3
f 266/3/3 261/3/3 265/3/3
f 267/3/3 259/3/3 258/3/3
f 268/3/3 259/3/3 267/3/3
f 270/1/3 252/1/3 249/1/3
f 270/1/3 263/1/3 252/1/3
f 271/1/3 263/1/3 270/1/3
f 274/3/3 269/3/3 268/3/3
f 275/3/3 269/3/3 274/3/3
f 276/1/3 270/1/3 249/1/3
f 277/1/3 270/1/3 276/1/3
f 279/3/3 273/3/3 272/3/3
f 280/3/3 273/3/3 279/3/3
f 281/3/3 276/3/3 275/3/3
f 282/3/3 276/3/3 281/3/3
f 283/3/3 279/3/3 278/3/3
f 284/3/3 279/3/3 283/3/3
f 285/3/3 283/3/3 282/3/3
f 286/3/3 283/3/3 285/3/3
f 287/3/4 288/3/4 290/3/4
f 290/3/4 288/3/4 291/3/4
f 289/3/4 290/3/4 294/3/4
f 291/3/4 292/3/4 294/3/4
f 290/3/4 291/3/4 294/3/4
f 294/3/4 292/3/4 295/3/4
f 295/3/4 292/3/4 296/3/4
f 296/3/4 292/3/4 297/3/4
f 293/3/4 294/3/4 300/3/4
f 294/3/4 295/3/4 300/3/4
f 300/3/4 295/3/4 301/3/4
f 295/1/4 296/1/4 302/1/4
f 301/3/4 295/3/4 302/3/4
f 297/3/4 298/3/4 303/3/4
f 302/1/4 296/1/4 303/1/4
f 296/3/4 297/3/4 303/3/4
f 303/3/4 298/3/4 304/3/4
f 304/3/4 298/3/4 305/3/4
f 299/3/4 300/3/4 307/3/4
f 300/3/4 301/3/4 307/3/4
f 301/1/4 302/1/4 308/1/4
f 307/3/4 301/3/4 308/3/4
f 302/1/4 303/1/4 308/1/4
f 303/1/4 304/1/4 308/1/4
f 308/1/4 304/1/4 309/1/4
f 305/3/4 306/3/4 310/3/4
f 309/1/4 304/1/4 310/1/4
f 304/3/4 305/3/4 310/3/4
f 299/3/4 307/3/4 312/3/4
f 308/1/4 309/1/4 313/1/4
f 307/1/4 308/1/4 313/1/4
f 309/3/4 310/3/4 313/3/4
f 310/3/4 306/3/4 314/3/4
f 313/3/4 310/3/4 314/3/4
f 314/3/4 306/3/4 315/3/4
f 313/1/4 314/1/4 317/1/4
f 315/3/4 316/3/4 317/3/4
f 314/3/4 315/3/4 317/3/4
f 317/3/4 316/3/4 318/3/4
f 311/3/4 312/3/4 319/3/4
f 312/3/4 307/3/4 319/3/4
f 307/1/4 313/1/4 320/1/4
f 319/3/4 307/3/4 320/3/4
f 317/1/4 318/1/4 320/1/4
f 313/1/4 317/1/4 320/1/4
f 319/1/4 320/1/4 321/1/4
f 320/1/4 318/1/4 321/1/4
f 318/3/4 316/3/4 322/3/4
f 321/1/4 318/1/4 322/1/4
f 319/1/4 321/1/4 323/1/4
f 321/3/4 322/3/4 323/3/4
f 322/3/4 316/3/4 324/3/4
f 323/3/4 322/3/4 324/3/4
f 311/3/4 319/3/4 325/3/4
f 319/1/4 323/1/4 325/1/4
f 323/1/4 324/1/4 325/1/4
f 325/1/4 324/1/4 326/1/4
f 326/1/4 324/1/4 327/1/4
f 324/3/4 316/3/4 328/3/4
f 327/1/4 324/1/4 328/1/4
f 311/3/4 325/3/4 329/3/4
f 325/3/4 326/3/4 329/3/4
f 329/3/4 326/3/4 330/3/4
f 326/1/4 327/1/4 331/1/4
f 331/1/4 327/1/4 332/1/4
f 328/3/4 316/3/4 333/3/4
f 327/3/4 328/3/4 333/3/4
f 333/3/4 316/3/4 334/3/4
f 331/2/4 332/2/4 335/2/4
f 326/1/4 331/1/4 335/1/4
f 332/1/4 327/1/4 336/1/4
f 335/2/4 332/2/4 336/2/4
f 336/1/4 327/1/4 337/1/4
f 327/3/4 333/3/4 338/3/4
f 337/1/4 327/1/4 338/1/4
f 338/3/4 333/3/4 339/3/4
f 339/3/4 333/3/4 340/3/4
f 330/3/4 326/3/4 341/3/4
f 341/3/4 326/3/4 342/3/4
f 326/1/4 335/1/4 343/1/4
f 342/3/4 326/3/4 343/3/4
f 336/1/4 337/1/4 343/1/4
f 335/1/4 336/1/4 343/1/4
f 343/1/4 337/1/4 344/1/4
f 344/1/4 337/1/4 345/1/4
f 338/3/4 339/3/4 346/3/4
f 345/1/4 337/1/4 346/1/4
f 337/3/4 338/3/4 346/3/4
f 343/3/4 344/3/4 347/3/4
f 342/3/4 343/3/4 347/3/4
f 347/3/4 344/3/4 348/3/4
f 344/1/4 345/1/4 349/1/4
f 348/3/4 344/3/4 349/3/4
f 345/3/4 346/3/4 350/3/4
f 349/1/4 345/1/4 350/1/4
f 346/3/4 339/3/4 351/3/4
f 350/3/4 346/3/4 351/3/4
f 351/3/4 339/3/4 352/3/4
f 349/3/4 350/3/4 353/3/4
f 350/3/4 351/3/4 353/3/4
f 348/3/4 349/3/4 353/3/4
f 353/3/4 351/3/4 354/3/4
f 354/3/4 351/3/4 355/3/4
f 355/3/4 351/3/4 356/3/4
f 354/3/4 355/3/4 357/3/4
f 357/3/4 355/3/4 358/3/4
f 361/3/5 360/3/5 359/3/5
f 362/3/5 360/3/5 361/3/5
f 366/2/5 364/2/5 363/2/5
f 367/2/5 364/2/5 366/2/5
f 369/3/5 366/3/5 365/3/5
f 370/3/5 366/3/5 369/3/5
f 371/3/5 368/3/5 367/3/5
f 372/3/5 368/3/5 371/3/5
f 378/2/5 374/2/5 373/2/5
f 379/2/5 374/2/5 378/2/5
f 380/2/5 376/2/5 375/2/5
f 381/2/5 376/2/5 380/2/5
f 383/3/5 378/3/5 377/3/5
f 384/3/5 378/3/5 383/3/5
f 385/3/5 382/3/5 381/3/5
f 386/3/5 382/3/5 385/3/5
f 392/2/5 388/2/5 387/2/5
f 393/2/5 388/2/5 392/2/5
f 394/2/5 390/2/5 389/2/5
f 395/2/5 390/2/5 394/2/5
f 397/3/5 392/3/5 391/3/5
f 398/3/5 392/3/5 397/3/5
f 399/3/5 396/3/5 395/3/5
f 400/3/5 396/3/5 399/3/5
f 406/2/5 402/2/5 401/2/5
f 407/2/5 402/2/5 406/2/5
f 408/2/5 404/2/5 403/2/5
f 409/2/5 404/2/5 408/2/5
f 411/3/5 406/3/5 405/3/5
f 412/3/5 406/3/5 411/3/5
f 413/3/5 410/3/5 409/3/5
f 414/3/5 410/3/5 413/3/5
f 417/2/5 416/2/5 415/2/5
f 418/2/5 416/2/5 417/2/5
f 423/2/5 420/2/5 419/2/5
f 424/2/5 420/2/5 423/2/5
f 425/2/5 422/2/5 421/2/5
f 426/2/5 422/2/5 425/2/5
f 429/2/5 428/2/5 427/2/5
f 430/2/5 428/2/5 429/2/5
f 437/2/5 432/2/5 431/2/5
f 438/2/5 432/2/5 437/2/5
f 439/2/5 434/2/5 433/2/5
f 440/2/5 434/2/5 439/2/5
f 441/2/5 436/2/5 435/2/5
f 442/2/5 436/2/5 441/2/5
f 445/2/5 444/2/5 443/2/5
f 446/2/5 444/2/5 445/2/5
f 449/2/5 448/2/5 447/2/5
f 450/2/5 448/2/5 449/2/5
f 451/2/6 452/2/6 455/2/6
f 455/2/6 452/2/6 456/2/6
f 453/2/6 454/2/6 457/2/6
f 457/2/6 454/2/6 458/2/6
f 459/2/6 460/2/6 461/2/6
f 461/2/6 460/2/6 462/2/6
f 463/2/6 464/2/6 465/2/6
f 465/2/6 464/2/6 466/2/6
f 467/2/6 468/2/6 472/2/6
f 472/2/6 468/2/6 473/2/6
f 469/2/6 470/2/6 474/2/6
f 474/2/6 470/2/6 475/2/6
f 471/3/6 472/3/6 477/3/6
f 477/3/6 472/3/6 478/3/6
f 475/3/6 476/3/6 479/3/6
f 479/3/6 476/3/6 480/3/6
f 481/2/6 482/2/6 486/2/6
f 486/2/6 482/2/6 487/2/6
f 483/2/6 484/2/6 488/2/6
f 488/2/6 484/2/6 489/2/6
f 485/3/6 486/3/6 491/3/6
f 491/3/6 486/3/6 492/3/6
f 489/3/6 490/3/6 493/3/6
f 493/3/6 490/3/6 494/3/6
f 495/2/6 496/2/6 500/2/6
f 500/2/6 496/2/6 501/2/6
f 497/2/6 498/2/6 502/2/6
f 502/2/6 498/2/6 503/2/6
f 503/2/6 498/2/6 504/2/6
f 499/3/6 500/3/6 506/3/6
f 506/3/6 500/3/6 507/3/6
f 504/3/6 505/3/6 508/3/6
f 503/3/6 504/3/6 508/3/6
f 508/3/6 505/3/6 509/3/6
f 510/2/6 511/2/6 513/2/6
f 513/2/6 511/2/6 514/2/6
f 512/3/6 513/3/6 516/3/6
f 516/3/6 513/3/6 517/3/6
f 514/3/6 515/3/6 518/3/6
f 518/3/6 515/3/6 519/3/6
f 520/3/6 521/3/6 522/3/6
f 522/3/6 521/3/6 523/3/6
