# MagicaVoxel @ Ephtracy

# group
o 

# material
mtllib energy-water.mtl
usemtl palette

# normals
vn -1 0 0
vn 1 0 0
vn 0 0 1
vn 0 0 -1
vn 0 -1 0
vn 0 1 0

# texcoords
vt 0.939453 0.5
vt 0.943359 0.5
vt 0.947266 0.5

# verts
v -0.8 1.8 -2.3
v -0.8 1.8 -2.4
v -0.8 2.5 -2.3
v -0.8 2.5 -2.4
v -0.7 1.6 -2.3
v -0.7 1.6 -2.4
v -0.7 1.8 -2.2
v -0.7 1.8 -2.3
v -0.7 1.8 -2.4
v -0.7 2.5 -2.2
v -0.7 2.5 -2.3
v -0.7 2.5 -2.4
v -0.7 2.7 -2.3
v -0.7 2.7 -2.4
v -0.6 1.5 -2.3
v -0.6 1.5 -2.4
v -0.6 1.6 -2.2
v -0.6 1.6 -2.3
v -0.6 1.6 -2.4
v -0.6 1.8 -2.2
v -0.6 1.8 -2.3
v -0.6 2.5 -2.2
v -0.6 2.5 -2.3
v -0.6 2.7 -2.2
v -0.6 2.7 -2.3
v -0.6 2.7 -2.4
v -0.6 2.8 -2.3
v -0.6 2.8 -2.4
v -0.5 1.4 -2.3
v -0.5 1.4 -2.4
v -0.5 1.5 -2.2
v -0.5 1.5 -2.3
v -0.5 1.5 -2.4
v -0.5 1.6 -2.2
v -0.5 1.6 -2.3
v -0.5 2.7 -2.2
v -0.5 2.7 -2.3
v -0.5 2.8 -2.2
v -0.5 2.8 -2.3
v -0.5 2.8 -2.4
v -0.5 2.9 -2.3
v -0.5 2.9 -2.4
v -0.3 1.3 -2.3
v -0.3 1.3 -2.4
v -0.3 1.4 -2.2
v -0.3 1.4 -2.3
v -0.3 1.4 -2.4
v -0.3 1.5 -2.2
v -0.3 1.5 -2.3
v -0.3 2.8 -2.2
v -0.3 2.8 -2.3
v -0.3 2.9 -2.2
v -0.3 2.9 -2.3
v -0.3 2.9 -2.4
v -0.3 3 -2.3
v -0.3 3 -2.4
v -0.2 1.7 -2.2
v -0.2 1.7 -2.3
v -0.2 1.9 -2.2
v -0.2 1.9 -2.3
v -0.1 1.6 -2.2
v -0.1 1.6 -2.3
v -0.1 1.7 -2.2
v -0.1 1.7 -2.3
v 0.2 2.5 -2.2
v 0.2 2.5 -2.3
v 0.2 2.7 -2.2
v 0.2 2.7 -2.3
v 0.3 1.5 -2.2
v 0.3 1.5 -2.3
v 0.3 1.6 -2.2
v 0.3 1.6 -2.3
v 0.3 2.3 -2.2
v 0.3 2.3 -2.3
v 0.3 2.5 -2.2
v 0.3 2.5 -2.3
v 0.3 2.7 -2.2
v 0.3 2.7 -2.3
v 0.3 2.8 -2.2
v 0.3 2.8 -2.3
v 0.4 1.6 -2.2
v 0.4 1.6 -2.3
v 0.4 1.7 -2.2
v 0.4 1.7 -2.3
v 0.4 2.2 -2.2
v 0.4 2.2 -2.3
v 0.4 2.3 -2.2
v 0.4 2.3 -2.3
v 0.5 1.7 -2.2
v 0.5 1.7 -2.3
v 0.5 2.2 -2.2
v 0.5 2.2 -2.3
v -0.4 1.8 -2.2
v -0.4 1.8 -2.3
v -0.4 2.2 -2.2
v -0.4 2.2 -2.3
v -0.3 1.7 -2.2
v -0.3 1.7 -2.3
v -0.3 1.8 -2.2
v -0.3 1.8 -2.3
v -0.3 2.2 -2.2
v -0.3 2.2 -2.3
v -0.3 2.4 -2.2
v -0.3 2.4 -2.3
v -0.2 1.6 -2.2
v -0.2 1.6 -2.3
v -0.2 1.7 -2.2
v -0.2 1.7 -2.3
v -0.2 2.4 -2.2
v -0.2 2.4 -2.3
v -0.2 2.5 -2.2
v -0.2 2.5 -2.3
v -0.1 1.5 -2.2
v -0.1 1.5 -2.3
v -0.1 1.6 -2.2
v -0.1 1.6 -2.3
v -0.1 1.8 -2.2
v -0.1 1.8 -2.3
v -0.1 1.9 -2.2
v -0.1 1.9 -2.3
v -0.1 2.5 -2.2
v -0.1 2.5 -2.3
v -0.1 2.6 -2.2
v -0.1 2.6 -2.3
v -5.96046e-08 1.7 -2.2
v -5.96046e-08 1.7 -2.3
v -5.96046e-08 1.8 -2.2
v -5.96046e-08 1.8 -2.3
v -5.96046e-08 2.6 -2.2
v -5.96046e-08 2.6 -2.3
v -5.96046e-08 2.7 -2.2
v -5.96046e-08 2.7 -2.3
v 0.0999999 1.6 -2.2
v 0.0999999 1.6 -2.3
v 0.0999999 1.7 -2.2
v 0.0999999 1.7 -2.3
v 0.2 2.7 -2.2
v 0.2 2.7 -2.3
v 0.2 2.8 -2.2
v 0.2 2.8 -2.3
v 0.4 1.3 -2.3
v 0.4 1.3 -2.4
v 0.4 1.4 -2.2
v 0.4 1.4 -2.3
v 0.4 1.4 -2.4
v 0.4 1.5 -2.2
v 0.4 1.5 -2.3
v 0.4 2.8 -2.2
v 0.4 2.8 -2.3
v 0.4 2.9 -2.2
v 0.4 2.9 -2.3
v 0.4 2.9 -2.4
v 0.4 3 -2.3
v 0.4 3 -2.4
v 0.5 2.8 -2.3
v 0.5 2.8 -2.4
v 0.5 2.9 -2.3
v 0.5 2.9 -2.4
v 0.6 1.4 -2.3
v 0.6 1.4 -2.4
v 0.6 1.5 -2.2
v 0.6 1.5 -2.3
v 0.6 1.5 -2.4
v 0.6 1.6 -2.2
v 0.6 1.6 -2.3
v 0.6 2.7 -2.2
v 0.6 2.7 -2.3
v 0.6 2.8 -2.2
v 0.6 2.8 -2.3
v 0.7 1.5 -2.3
v 0.7 1.5 -2.4
v 0.7 1.6 -2.2
v 0.7 1.6 -2.3
v 0.7 1.6 -2.4
v 0.7 1.8 -2.2
v 0.7 1.8 -2.3
v 0.7 2.5 -2.2
v 0.7 2.5 -2.3
v 0.7 2.7 -2.2
v 0.7 2.7 -2.3
v 0.7 2.7 -2.4
v 0.7 2.8 -2.3
v 0.7 2.8 -2.4
v 0.8 1.6 -2.3
v 0.8 1.6 -2.4
v 0.8 1.8 -2.2
v 0.8 1.8 -2.3
v 0.8 1.8 -2.4
v 0.8 2.5 -2.2
v 0.8 2.5 -2.3
v 0.8 2.5 -2.4
v 0.8 2.7 -2.3
v 0.8 2.7 -2.4
v 0.9 1.8 -2.3
v 0.9 1.8 -2.4
v 0.9 2.5 -2.3
v 0.9 2.5 -2.4
v -0.7 1.8 -2.2
v -0.7 2.5 -2.2
v -0.6 1.6 -2.2
v -0.6 1.8 -2.2
v -0.6 2.5 -2.2
v -0.6 2.7 -2.2
v -0.5 1.5 -2.2
v -0.5 1.6 -2.2
v -0.5 2.7 -2.2
v -0.5 2.8 -2.2
v -0.4 1.8 -2.2
v -0.4 2.2 -2.2
v -0.3 1.4 -2.2
v -0.3 1.5 -2.2
v -0.3 1.7 -2.2
v -0.3 1.8 -2.2
v -0.3 2.2 -2.2
v -0.3 2.4 -2.2
v -0.3 2.8 -2.2
v -0.3 2.9 -2.2
v -0.2 1.6 -2.2
v -0.2 1.7 -2.2
v -0.2 1.9 -2.2
v -0.2 2.4 -2.2
v -0.2 2.5 -2.2
v -0.1 1.5 -2.2
v -0.1 1.6 -2.2
v -0.1 1.7 -2.2
v -0.1 1.8 -2.2
v -0.1 1.9 -2.2
v -0.1 2.5 -2.2
v -0.1 2.6 -2.2
v -5.96046e-08 1.7 -2.2
v -5.96046e-08 1.8 -2.2
v -5.96046e-08 2.6 -2.2
v -5.96046e-08 2.7 -2.2
v 0.0999999 1.6 -2.2
v 0.0999999 1.7 -2.2
v 0.2 2.5 -2.2
v 0.2 2.7 -2.2
v 0.2 2.8 -2.2
v 0.3 1.5 -2.2
v 0.3 1.6 -2.2
v 0.3 2.3 -2.2
v 0.3 2.5 -2.2
v 0.3 2.7 -2.2
v 0.3 2.8 -2.2
v 0.4 1.4 -2.2
v 0.4 1.5 -2.2
v 0.4 1.6 -2.2
v 0.4 1.7 -2.2
v 0.4 2.2 -2.2
v 0.4 2.3 -2.2
v 0.4 2.8 -2.2
v 0.4 2.9 -2.2
v 0.5 1.7 -2.2
v 0.5 2.2 -2.2
v 0.6 1.5 -2.2
v 0.6 1.6 -2.2
v 0.6 2.7 -2.2
v 0.6 2.8 -2.2
v 0.7 1.6 -2.2
v 0.7 1.8 -2.2
v 0.7 2.5 -2.2
v 0.7 2.7 -2.2
v 0.8 1.8 -2.2
v 0.8 2.5 -2.2
v -0.8 1.8 -2.3
v -0.8 2.5 -2.3
v -0.7 1.6 -2.3
v -0.7 1.8 -2.3
v -0.7 2.5 -2.3
v -0.7 2.7 -2.3
v -0.6 1.5 -2.3
v -0.6 1.6 -2.3
v -0.6 1.8 -2.3
v -0.6 2.5 -2.3
v -0.6 2.7 -2.3
v -0.6 2.8 -2.3
v -0.5 1.4 -2.3
v -0.5 1.5 -2.3
v -0.5 1.6 -2.3
v -0.5 2.7 -2.3
v -0.5 2.8 -2.3
v -0.5 2.9 -2.3
v -0.4 1.8 -2.3
v -0.4 2.2 -2.3
v -0.3 1.3 -2.3
v -0.3 1.4 -2.3
v -0.3 1.5 -2.3
v -0.3 1.7 -2.3
v -0.3 1.8 -2.3
v -0.3 2.2 -2.3
v -0.3 2.4 -2.3
v -0.3 2.8 -2.3
v -0.3 2.9 -2.3
v -0.3 3 -2.3
v -0.2 1.6 -2.3
v -0.2 1.7 -2.3
v -0.2 1.9 -2.3
v -0.2 2.4 -2.3
v -0.2 2.5 -2.3
v -0.1 1.5 -2.3
v -0.1 1.6 -2.3
v -0.1 1.7 -2.3
v -0.1 1.8 -2.3
v -0.1 1.9 -2.3
v -0.1 2.5 -2.3
v -0.1 2.6 -2.3
v -5.96046e-08 1.7 -2.3
v -5.96046e-08 1.8 -2.3
v -5.96046e-08 2.6 -2.3
v -5.96046e-08 2.7 -2.3
v 0.0999999 1.6 -2.3
v 0.0999999 1.7 -2.3
v 0.2 2.5 -2.3
v 0.2 2.7 -2.3
v 0.2 2.8 -2.3
v 0.3 1.5 -2.3
v 0.3 1.6 -2.3
v 0.3 2.3 -2.3
v 0.3 2.5 -2.3
v 0.3 2.7 -2.3
v 0.3 2.8 -2.3
v 0.4 1.3 -2.3
v 0.4 1.4 -2.3
v 0.4 1.5 -2.3
v 0.4 1.6 -2.3
v 0.4 1.7 -2.3
v 0.4 2.2 -2.3
v 0.4 2.3 -2.3
v 0.4 2.8 -2.3
v 0.4 2.9 -2.3
v 0.4 3 -2.3
v 0.5 1.7 -2.3
v 0.5 2.2 -2.3
v 0.5 2.8 -2.3
v 0.5 2.9 -2.3
v 0.6 1.4 -2.3
v 0.6 1.5 -2.3
v 0.6 1.6 -2.3
v 0.6 2.7 -2.3
v 0.6 2.8 -2.3
v 0.7 1.5 -2.3
v 0.7 1.6 -2.3
v 0.7 1.8 -2.3
v 0.7 2.5 -2.3
v 0.7 2.7 -2.3
v 0.7 2.8 -2.3
v 0.8 1.6 -2.3
v 0.8 1.8 -2.3
v 0.8 2.5 -2.3
v 0.8 2.7 -2.3
v 0.9 1.8 -2.3
v 0.9 2.5 -2.3
v -0.8 1.8 -2.4
v -0.8 2.5 -2.4
v -0.7 1.6 -2.4
v -0.7 1.8 -2.4
v -0.7 2.5 -2.4
v -0.7 2.7 -2.4
v -0.6 1.5 -2.4
v -0.6 1.6 -2.4
v -0.6 2.7 -2.4
v -0.6 2.8 -2.4
v -0.5 1.4 -2.4
v -0.5 1.5 -2.4
v -0.5 2.8 -2.4
v -0.5 2.9 -2.4
v -0.4 1.8 -2.4
v -0.4 2.2 -2.4
v -0.3 1.3 -2.4
v -0.3 1.4 -2.4
v -0.3 1.7 -2.4
v -0.3 1.8 -2.4
v -0.3 2.2 -2.4
v -0.3 2.4 -2.4
v -0.3 2.9 -2.4
v -0.3 3 -2.4
v -0.2 1.6 -2.4
v -0.2 1.7 -2.4
v -0.2 1.9 -2.4
v -0.2 2.4 -2.4
v -0.2 2.5 -2.4
v -0.1 1.5 -2.4
v -0.1 1.6 -2.4
v -0.1 1.7 -2.4
v -0.1 1.8 -2.4
v -0.1 1.9 -2.4
v -0.1 2.5 -2.4
v -0.1 2.6 -2.4
v -5.96046e-08 1.7 -2.4
v -5.96046e-08 1.8 -2.4
v -5.96046e-08 2.6 -2.4
v -5.96046e-08 2.7 -2.4
v 0.0999999 1.6 -2.4
v 0.0999999 1.7 -2.4
v 0.2 2.5 -2.4
v 0.2 2.7 -2.4
v 0.2 2.8 -2.4
v 0.3 1.5 -2.4
v 0.3 1.6 -2.4
v 0.3 2.3 -2.4
v 0.3 2.5 -2.4
v 0.3 2.7 -2.4
v 0.3 2.8 -2.4
v 0.4 1.3 -2.4
v 0.4 1.4 -2.4
v 0.4 1.6 -2.4
v 0.4 1.7 -2.4
v 0.4 2.2 -2.4
v 0.4 2.3 -2.4
v 0.4 2.9 -2.4
v 0.4 3 -2.4
v 0.5 1.7 -2.4
v 0.5 2.2 -2.4
v 0.5 2.8 -2.4
v 0.5 2.9 -2.4
v 0.6 1.4 -2.4
v 0.6 1.5 -2.4
v 0.7 1.5 -2.4
v 0.7 1.6 -2.4
v 0.7 2.7 -2.4
v 0.7 2.8 -2.4
v 0.8 1.6 -2.4
v 0.8 1.8 -2.4
v 0.8 2.5 -2.4
v 0.8 2.7 -2.4
v 0.9 1.8 -2.4
v 0.9 2.5 -2.4
v -0.3 1.3 -2.3
v 0.4 1.3 -2.3
v -0.3 1.3 -2.4
v 0.4 1.3 -2.4
v -0.3 1.4 -2.2
v 0.4 1.4 -2.2
v -0.5 1.4 -2.3
v -0.3 1.4 -2.3
v 0.4 1.4 -2.3
v 0.6 1.4 -2.3
v -0.5 1.4 -2.4
v -0.3 1.4 -2.4
v 0.4 1.4 -2.4
v 0.6 1.4 -2.4
v -0.5 1.5 -2.2
v -0.3 1.5 -2.2
v 0.4 1.5 -2.2
v 0.6 1.5 -2.2
v -0.6 1.5 -2.3
v -0.5 1.5 -2.3
v -0.3 1.5 -2.3
v 0.4 1.5 -2.3
v 0.6 1.5 -2.3
v 0.7 1.5 -2.3
v -0.6 1.5 -2.4
v -0.5 1.5 -2.4
v 0.6 1.5 -2.4
v 0.7 1.5 -2.4
v -0.6 1.6 -2.2
v -0.5 1.6 -2.2
v -0.1 1.6 -2.2
v 0.0999999 1.6 -2.2
v 0.6 1.6 -2.2
v 0.7 1.6 -2.2
v -0.7 1.6 -2.3
v -0.6 1.6 -2.3
v -0.5 1.6 -2.3
v -0.1 1.6 -2.3
v 0.0999999 1.6 -2.3
v 0.6 1.6 -2.3
v 0.7 1.6 -2.3
v 0.8 1.6 -2.3
v -0.7 1.6 -2.4
v -0.6 1.6 -2.4
v 0.7 1.6 -2.4
v 0.8 1.6 -2.4
v -0.2 1.7 -2.2
v -0.1 1.7 -2.2
v -0.2 1.7 -2.3
v -0.1 1.7 -2.3
v -0.7 1.8 -2.2
v -0.6 1.8 -2.2
v 0.7 1.8 -2.2
v 0.8 1.8 -2.2
v -0.8 1.8 -2.3
v -0.7 1.8 -2.3
v -0.6 1.8 -2.3
v 0.7 1.8 -2.3
v 0.8 1.8 -2.3
v 0.9 1.8 -2.3
v -0.8 1.8 -2.4
v -0.7 1.8 -2.4
v 0.8 1.8 -2.4
v 0.9 1.8 -2.4
v -0.4 2.2 -2.2
v -0.3 2.2 -2.2
v 0.4 2.2 -2.2
v 0.5 2.2 -2.2
v -0.4 2.2 -2.3
v -0.3 2.2 -2.3
v 0.4 2.2 -2.3
v 0.5 2.2 -2.3
v 0.3 2.3 -2.2
v 0.4 2.3 -2.2
v 0.3 2.3 -2.3
v 0.4 2.3 -2.3
v -0.3 2.4 -2.2
v -0.2 2.4 -2.2
v -0.3 2.4 -2.3
v -0.2 2.4 -2.3
v -0.2 2.5 -2.2
v -0.1 2.5 -2.2
v 0.2 2.5 -2.2
v 0.3 2.5 -2.2
v -0.2 2.5 -2.3
v -0.1 2.5 -2.3
v 0.2 2.5 -2.3
v 0.3 2.5 -2.3
v -0.1 2.6 -2.2
v -5.96046e-08 2.6 -2.2
v -0.1 2.6 -2.3
v -5.96046e-08 2.6 -2.3
v -5.96046e-08 2.7 -2.2
v 0.2 2.7 -2.2
v -5.96046e-08 2.7 -2.3
v 0.2 2.7 -2.3
v 0.2 2.8 -2.2
v 0.3 2.8 -2.2
v 0.2 2.8 -2.3
v 0.3 2.8 -2.3
v -0.1 1.5 -2.2
v 0.3 1.5 -2.2
v -0.1 1.5 -2.3
v 0.3 1.5 -2.3
v -0.2 1.6 -2.2
v -0.1 1.6 -2.2
v 0.3 1.6 -2.2
v 0.4 1.6 -2.2
v -0.2 1.6 -2.3
v -0.1 1.6 -2.3
v 0.3 1.6 -2.3
v 0.4 1.6 -2.3
v -0.3 1.7 -2.2
v -0.2 1.7 -2.2
v -5.96046e-08 1.7 -2.2
v 0.0999999 1.7 -2.2
v 0.4 1.7 -2.2
v 0.5 1.7 -2.2
v -0.3 1.7 -2.3
v -0.2 1.7 -2.3
v -5.96046e-08 1.7 -2.3
v 0.0999999 1.7 -2.3
v 0.4 1.7 -2.3
v 0.5 1.7 -2.3
v -0.4 1.8 -2.2
v -0.3 1.8 -2.2
v -0.1 1.8 -2.2
v -5.96046e-08 1.8 -2.2
v -0.4 1.8 -2.3
v -0.3 1.8 -2.3
v -0.1 1.8 -2.3
v -5.96046e-08 1.8 -2.3
v -0.2 1.9 -2.2
v -0.1 1.9 -2.2
v -0.2 1.9 -2.3
v -0.1 1.9 -2.3
v -0.7 2.5 -2.2
v -0.6 2.5 -2.2
v 0.7 2.5 -2.2
v 0.8 2.5 -2.2
v -0.8 2.5 -2.3
v -0.7 2.5 -2.3
v -0.6 2.5 -2.3
v 0.7 2.5 -2.3
v 0.8 2.5 -2.3
v 0.9 2.5 -2.3
v -0.8 2.5 -2.4
v -0.7 2.5 -2.4
v 0.8 2.5 -2.4
v 0.9 2.5 -2.4
v -0.6 2.7 -2.2
v -0.5 2.7 -2.2
v 0.2 2.7 -2.2
v 0.3 2.7 -2.2
v 0.6 2.7 -2.2
v 0.7 2.7 -2.2
v -0.7 2.7 -2.3
v -0.6 2.7 -2.3
v -0.5 2.7 -2.3
v 0.2 2.7 -2.3
v 0.3 2.7 -2.3
v 0.6 2.7 -2.3
v 0.7 2.7 -2.3
v 0.8 2.7 -2.3
v -0.7 2.7 -2.4
v -0.6 2.7 -2.4
v 0.7 2.7 -2.4
v 0.8 2.7 -2.4
v -0.5 2.8 -2.2
v -0.3 2.8 -2.2
v 0.4 2.8 -2.2
v 0.6 2.8 -2.2
v -0.6 2.8 -2.3
v -0.5 2.8 -2.3
v -0.3 2.8 -2.3
v 0.4 2.8 -2.3
v 0.5 2.8 -2.3
v 0.6 2.8 -2.3
v 0.7 2.8 -2.3
v -0.6 2.8 -2.4
v -0.5 2.8 -2.4
v 0.5 2.8 -2.4
v 0.7 2.8 -2.4
v -0.3 2.9 -2.2
v 0.4 2.9 -2.2
v -0.5 2.9 -2.3
v -0.3 2.9 -2.3
v 0.4 2.9 -2.3
v 0.5 2.9 -2.3
v -0.5 2.9 -2.4
v -0.3 2.9 -2.4
v 0.4 2.9 -2.4
v 0.5 2.9 -2.4
v -0.3 3 -2.3
v 0.4 3 -2.3
v -0.3 3 -2.4
v 0.4 3 -2.4

# faces
f 3/1/1 2/1/1 1/1/1
f 4/1/1 2/1/1 3/1/1
f 8/1/1 6/1/1 5/1/1
f 9/1/1 6/1/1 8/1/1
f 10/2/1 8/2/1 7/2/1
f 11/2/1 8/2/1 10/2/1
f 13/1/1 12/1/1 11/1/1
f 14/1/1 12/1/1 13/1/1
f 18/1/1 16/1/1 15/1/1
f 19/1/1 16/1/1 18/1/1
f 20/2/1 18/2/1 17/2/1
f 21/2/1 18/2/1 20/2/1
f 24/2/1 23/2/1 22/2/1
f 25/2/1 23/2/1 24/2/1
f 27/1/1 26/1/1 25/1/1
f 28/1/1 26/1/1 27/1/1
f 32/1/1 30/1/1 29/1/1
f 33/1/1 30/1/1 32/1/1
f 34/2/1 32/2/1 31/2/1
f 35/2/1 32/2/1 34/2/1
f 38/2/1 37/2/1 36/2/1
f 39/2/1 37/2/1 38/2/1
f 41/1/1 40/1/1 39/1/1
f 42/1/1 40/1/1 41/1/1
f 46/1/1 44/1/1 43/1/1
f 47/1/1 44/1/1 46/1/1
f 48/2/1 46/2/1 45/2/1
f 49/2/1 46/2/1 48/2/1
f 52/2/1 51/2/1 50/2/1
f 53/2/1 51/2/1 52/2/1
f 55/1/1 54/1/1 53/1/1
f 56/1/1 54/1/1 55/1/1
f 59/2/1 58/2/1 57/2/1
f 60/2/1 58/2/1 59/2/1
f 63/2/1 62/2/1 61/2/1
f 64/2/1 62/2/1 63/2/1
f 67/2/1 66/2/1 65/2/1
f 68/2/1 66/2/1 67/2/1
f 71/2/1 70/2/1 69/2/1
f 72/2/1 70/2/1 71/2/1
f 75/2/1 74/2/1 73/2/1
f 76/2/1 74/2/1 75/2/1
f 79/2/1 78/2/1 77/2/1
f 80/2/1 78/2/1 79/2/1
f 83/2/1 82/2/1 81/2/1
f 84/2/1 82/2/1 83/2/1
f 87/2/1 86/2/1 85/2/1
f 88/2/1 86/2/1 87/2/1
f 91/2/1 90/2/1 89/2/1
f 92/2/1 90/2/1 91/2/1
f 93/2/2 94/2/2 95/2/2
f 95/2/2 94/2/2 96/2/2
f 97/2/2 98/2/2 99/2/2
f 99/2/2 98/2/2 100/2/2
f 101/2/2 102/2/2 103/2/2
f 103/2/2 102/2/2 104/2/2
f 105/2/2 106/2/2 107/2/2
f 107/2/2 106/2/2 108/2/2
f 109/2/2 110/2/2 111/2/2
f 111/2/2 110/2/2 112/2/2
f 113/2/2 114/2/2 115/2/2
f 115/2/2 114/2/2 116/2/2
f 117/2/2 118/2/2 119/2/2
f 119/2/2 118/2/2 120/2/2
f 121/2/2 122/2/2 123/2/2
f 123/2/2 122/2/2 124/2/2
f 125/2/2 126/2/2 127/2/2
f 127/2/2 126/2/2 128/2/2
f 129/2/2 130/2/2 131/2/2
f 131/2/2 130/2/2 132/2/2
f 133/2/2 134/2/2 135/2/2
f 135/2/2 134/2/2 136/2/2
f 137/2/2 138/2/2 139/2/2
f 139/2/2 138/2/2 140/2/2
f 141/1/2 142/1/2 144/1/2
f 144/1/2 142/1/2 145/1/2
f 143/2/2 144/2/2 146/2/2
f 146/2/2 144/2/2 147/2/2
f 148/2/2 149/2/2 150/2/2
f 150/2/2 149/2/2 151/2/2
f 151/1/2 152/1/2 153/1/2
f 153/1/2 152/1/2 154/1/2
f 155/1/2 156/1/2 157/1/2
f 157/1/2 156/1/2 158/1/2
f 159/1/2 160/1/2 162/1/2
f 162/1/2 160/1/2 163/1/2
f 161/2/2 162/2/2 164/2/2
f 164/2/2 162/2/2 165/2/2
f 166/2/2 167/2/2 168/2/2
f 168/2/2 167/2/2 169/2/2
f 170/1/2 171/1/2 173/1/2
f 173/1/2 171/1/2 174/1/2
f 172/2/2 173/2/2 175/2/2
f 175/2/2 173/2/2 176/2/2
f 177/2/2 178/2/2 179/2/2
f 179/2/2 178/2/2 180/2/2
f 180/1/2 181/1/2 182/1/2
f 182/1/2 181/1/2 183/1/2
f 184/1/2 185/1/2 187/1/2
f 187/1/2 185/1/2 188/1/2
f 186/2/2 187/2/2 189/2/2
f 189/2/2 187/2/2 190/2/2
f 190/1/2 191/1/2 192/1/2
f 192/1/2 191/1/2 193/1/2
f 194/1/2 195/1/2 196/1/2
f 196/1/2 195/1/2 197/1/2
f 201/2/3 199/2/3 198/2/3
f 202/2/3 199/2/3 201/2/3
f 205/2/3 201/2/3 200/2/3
f 205/2/3 203/2/3 202/2/3
f 205/2/3 202/2/3 201/2/3
f 206/2/3 203/2/3 205/2/3
f 208/2/3 205/2/3 204/2/3
f 208/2/3 207/2/3 206/2/3
f 208/2/3 206/2/3 205/2/3
f 209/2/3 207/2/3 208/2/3
f 211/2/3 208/2/3 204/2/3
f 212/2/3 208/2/3 211/2/3
f 213/2/3 208/2/3 212/2/3
f 214/2/3 207/2/3 209/2/3
f 215/2/3 207/2/3 214/2/3
f 216/2/3 207/2/3 215/2/3
f 218/2/3 211/2/3 210/2/3
f 218/2/3 212/2/3 211/2/3
f 219/2/3 212/2/3 218/2/3
f 221/2/3 217/2/3 216/2/3
f 221/2/3 216/2/3 215/2/3
f 222/2/3 217/2/3 221/2/3
f 223/2/3 218/2/3 210/2/3
f 224/2/3 218/2/3 223/2/3
f 225/2/3 220/2/3 219/2/3
f 226/2/3 220/2/3 225/2/3
f 227/2/3 220/2/3 226/2/3
f 228/2/3 217/2/3 222/2/3
f 229/2/3 217/2/3 228/2/3
f 230/2/3 225/2/3 224/2/3
f 230/2/3 226/2/3 225/2/3
f 231/2/3 226/2/3 230/2/3
f 232/2/3 217/2/3 229/2/3
f 233/2/3 217/2/3 232/2/3
f 234/2/3 230/2/3 224/2/3
f 235/2/3 230/2/3 234/2/3
f 237/2/3 217/2/3 233/2/3
f 238/2/3 217/2/3 237/2/3
f 239/2/3 223/2/3 210/2/3
f 242/2/3 237/2/3 236/2/3
f 243/2/3 237/2/3 242/2/3
f 244/2/3 217/2/3 238/2/3
f 245/2/3 240/2/3 239/2/3
f 245/2/3 239/2/3 210/2/3
f 246/2/3 240/2/3 245/2/3
f 247/2/3 240/2/3 246/2/3
f 250/2/3 243/2/3 242/2/3
f 250/2/3 244/2/3 243/2/3
f 250/2/3 242/2/3 241/2/3
f 251/2/3 217/2/3 244/2/3
f 251/2/3 244/2/3 250/2/3
f 252/2/3 217/2/3 251/2/3
f 253/2/3 248/2/3 247/2/3
f 253/2/3 247/2/3 246/2/3
f 254/2/3 251/2/3 250/2/3
f 254/2/3 250/2/3 249/2/3
f 255/2/3 253/2/3 246/2/3
f 255/2/3 254/2/3 253/2/3
f 256/2/3 254/2/3 255/2/3
f 257/2/3 251/2/3 254/2/3
f 257/2/3 254/2/3 256/2/3
f 258/2/3 251/2/3 257/2/3
f 259/2/3 257/2/3 256/2/3
f 260/2/3 257/2/3 259/2/3
f 261/2/3 257/2/3 260/2/3
f 262/2/3 257/2/3 261/2/3
f 263/2/3 261/2/3 260/2/3
f 264/2/3 261/2/3 263/2/3
f 268/1/3 266/1/3 265/1/3
f 269/1/3 266/1/3 268/1/3
f 272/1/3 268/1/3 267/1/3
f 273/1/3 268/1/3 272/1/3
f 274/1/3 270/1/3 269/1/3
f 275/1/3 270/1/3 274/1/3
f 278/1/3 272/1/3 271/1/3
f 279/1/3 272/1/3 278/1/3
f 280/1/3 276/1/3 275/1/3
f 281/1/3 276/1/3 280/1/3
f 286/1/3 278/1/3 277/1/3
f 287/1/3 278/1/3 286/1/3
f 289/3/3 284/3/3 283/3/3
f 290/3/3 284/3/3 289/3/3
f 292/1/3 282/1/3 281/1/3
f 293/1/3 282/1/3 292/1/3
f 296/3/3 291/3/3 290/3/3
f 296/3/3 289/3/3 288/3/3
f 296/3/3 290/3/3 289/3/3
f 297/3/3 291/3/3 296/3/3
f 298/3/3 291/3/3 297/3/3
f 301/3/3 296/3/3 295/3/3
f 302/3/3 296/3/3 301/3/3
f 304/3/3 298/3/3 297/3/3
f 304/3/3 299/3/3 298/3/3
f 305/3/3 299/3/3 304/3/3
f 308/3/3 306/3/3 305/3/3
f 308/3/3 305/3/3 304/3/3
f 308/3/3 304/3/3 303/3/3
f 309/3/3 306/3/3 308/3/3
f 311/3/3 301/3/3 300/3/3
f 312/3/3 310/3/3 309/3/3
f 312/3/3 308/3/3 307/3/3
f 312/3/3 309/3/3 308/3/3
f 313/3/3 310/3/3 312/3/3
f 313/3/3 312/3/3 311/3/3
f 314/3/3 310/3/3 313/3/3
f 316/3/3 311/3/3 300/3/3
f 316/3/3 313/3/3 311/3/3
f 317/3/3 313/3/3 316/3/3
f 318/3/3 313/3/3 317/3/3
f 319/3/3 313/3/3 318/3/3
f 320/3/3 315/3/3 314/3/3
f 321/3/3 315/3/3 320/3/3
f 322/1/3 286/1/3 285/1/3
f 323/1/3 286/1/3 322/1/3
f 325/3/3 318/3/3 317/3/3
f 326/3/3 318/3/3 325/3/3
f 327/3/3 318/3/3 326/3/3
f 328/3/3 318/3/3 327/3/3
f 330/1/3 294/1/3 293/1/3
f 331/1/3 294/1/3 330/1/3
f 332/3/3 327/3/3 326/3/3
f 333/3/3 327/3/3 332/3/3
f 334/1/3 330/1/3 329/1/3
f 335/1/3 330/1/3 334/1/3
f 336/1/3 324/1/3 323/1/3
f 337/1/3 324/1/3 336/1/3
f 341/1/3 338/1/3 337/1/3
f 342/1/3 338/1/3 341/1/3
f 345/1/3 340/1/3 339/1/3
f 346/1/3 340/1/3 345/1/3
f 347/1/3 343/1/3 342/1/3
f 348/1/3 343/1/3 347/1/3
f 349/1/3 345/1/3 344/1/3
f 350/1/3 345/1/3 349/1/3
f 351/1/3 349/1/3 348/1/3
f 352/1/3 349/1/3 351/1/3
f 353/1/4 354/1/4 356/1/4
f 356/1/4 354/1/4 357/1/4
f 355/1/4 356/1/4 360/1/4
f 357/1/4 358/1/4 360/1/4
f 356/1/4 357/1/4 360/1/4
f 360/1/4 358/1/4 361/1/4
f 359/1/4 360/1/4 364/1/4
f 361/1/4 362/1/4 364/1/4
f 360/1/4 361/1/4 364/1/4
f 364/1/4 362/1/4 365/1/4
f 363/1/4 364/1/4 367/1/4
f 365/1/4 366/1/4 367/1/4
f 364/1/4 365/1/4 367/1/4
f 367/1/4 366/1/4 368/1/4
f 363/1/4 367/1/4 370/1/4
f 370/1/4 367/1/4 371/1/4
f 367/3/4 368/3/4 372/3/4
f 371/1/4 367/1/4 372/1/4
f 368/1/4 366/1/4 373/1/4
f 372/3/4 368/3/4 373/3/4
f 373/1/4 366/1/4 374/1/4
f 374/1/4 366/1/4 375/1/4
f 370/1/4 371/1/4 377/1/4
f 369/1/4 370/1/4 377/1/4
f 371/3/4 372/3/4 378/3/4
f 377/1/4 371/1/4 378/1/4
f 372/3/4 373/3/4 378/3/4
f 373/3/4 374/3/4 378/3/4
f 378/3/4 374/3/4 379/3/4
f 375/1/4 376/1/4 380/1/4
f 379/3/4 374/3/4 380/3/4
f 374/1/4 375/1/4 380/1/4
f 380/1/4 376/1/4 381/1/4
f 369/1/4 377/1/4 382/1/4
f 377/3/4 378/3/4 383/3/4
f 382/1/4 377/1/4 383/1/4
f 378/1/4 379/1/4 384/1/4
f 383/3/4 378/3/4 384/3/4
f 384/1/4 379/1/4 385/1/4
f 379/3/4 380/3/4 386/3/4
f 385/1/4 379/1/4 386/1/4
f 380/3/4 381/3/4 386/3/4
f 381/1/4 376/1/4 387/1/4
f 386/3/4 381/3/4 387/3/4
f 387/1/4 376/1/4 388/1/4
f 384/1/4 385/1/4 389/1/4
f 383/1/4 384/1/4 389/1/4
f 385/3/4 386/3/4 390/3/4
f 389/1/4 385/1/4 390/1/4
f 387/3/4 388/3/4 390/3/4
f 386/3/4 387/3/4 390/3/4
f 388/1/4 376/1/4 391/1/4
f 390/3/4 388/3/4 391/3/4
f 391/1/4 376/1/4 392/1/4
f 383/1/4 389/1/4 393/1/4
f 382/3/4 383/3/4 393/3/4
f 391/3/4 392/3/4 394/3/4
f 393/1/4 389/1/4 394/1/4
f 389/3/4 390/3/4 394/3/4
f 390/3/4 391/3/4 394/3/4
f 393/3/4 394/3/4 395/3/4
f 394/3/4 392/3/4 395/3/4
f 392/1/4 376/1/4 396/1/4
f 395/3/4 392/3/4 396/3/4
f 396/1/4 376/1/4 397/1/4
f 393/3/4 395/3/4 398/3/4
f 382/3/4 393/3/4 398/3/4
f 369/1/4 382/1/4 398/1/4
f 398/3/4 395/3/4 399/3/4
f 399/3/4 395/3/4 400/3/4
f 395/1/4 396/1/4 401/1/4
f 400/3/4 395/3/4 401/3/4
f 396/3/4 397/3/4 402/3/4
f 401/1/4 396/1/4 402/1/4
f 397/1/4 376/1/4 403/1/4
f 402/3/4 397/3/4 403/3/4
f 369/1/4 398/1/4 404/1/4
f 398/1/4 399/1/4 404/1/4
f 404/1/4 399/1/4 405/1/4
f 399/3/4 400/3/4 406/3/4
f 405/1/4 399/1/4 406/1/4
f 406/3/4 400/3/4 407/3/4
f 407/3/4 400/3/4 408/3/4
f 401/1/4 402/1/4 409/1/4
f 408/3/4 400/3/4 409/3/4
f 400/1/4 401/1/4 409/1/4
f 402/1/4 403/1/4 409/1/4
f 403/1/4 376/1/4 410/1/4
f 409/1/4 403/1/4 410/1/4
f 410/1/4 376/1/4 411/1/4
f 407/3/4 408/3/4 412/3/4
f 406/1/4 407/1/4 412/1/4
f 405/1/4 406/1/4 412/1/4
f 409/1/4 410/1/4 413/1/4
f 412/3/4 408/3/4 413/3/4
f 408/1/4 409/1/4 413/1/4
f 413/1/4 410/1/4 414/1/4
f 414/1/4 410/1/4 415/1/4
f 405/1/4 412/1/4 416/1/4
f 412/1/4 413/1/4 416/1/4
f 413/1/4 414/1/4 416/1/4
f 416/1/4 414/1/4 417/1/4
f 417/1/4 414/1/4 418/1/4
f 418/1/4 414/1/4 419/1/4
f 419/1/4 414/1/4 420/1/4
f 420/1/4 414/1/4 421/1/4
f 419/1/4 420/1/4 422/1/4
f 422/1/4 420/1/4 423/1/4
f 423/1/4 420/1/4 424/1/4
f 424/1/4 420/1/4 425/1/4
f 423/1/4 424/1/4 426/1/4
f 426/1/4 424/1/4 427/1/4
f 430/1/5 429/1/5 428/1/5
f 431/1/5 429/1/5 430/1/5
f 435/2/5 433/2/5 432/2/5
f 436/2/5 433/2/5 435/2/5
f 438/1/5 435/1/5 434/1/5
f 439/1/5 435/1/5 438/1/5
f 440/1/5 437/1/5 436/1/5
f 441/1/5 437/1/5 440/1/5
f 447/2/5 443/2/5 442/2/5
f 448/2/5 443/2/5 447/2/5
f 449/2/5 445/2/5 444/2/5
f 450/2/5 445/2/5 449/2/5
f 452/1/5 447/1/5 446/1/5
f 453/1/5 447/1/5 452/1/5
f 454/1/5 451/1/5 450/1/5
f 455/1/5 451/1/5 454/1/5
f 463/2/5 457/2/5 456/2/5
f 464/2/5 457/2/5 463/2/5
f 465/2/5 459/2/5 458/2/5
f 466/2/5 459/2/5 465/2/5
f 467/2/5 461/2/5 460/2/5
f 468/2/5 461/2/5 467/2/5
f 470/1/5 463/1/5 462/1/5
f 471/1/5 463/1/5 470/1/5
f 472/1/5 469/1/5 468/1/5
f 473/1/5 469/1/5 472/1/5
f 476/2/5 475/2/5 474/2/5
f 477/2/5 475/2/5 476/2/5
f 483/2/5 479/2/5 478/2/5
f 484/2/5 479/2/5 483/2/5
f 485/2/5 481/2/5 480/2/5
f 486/2/5 481/2/5 485/2/5
f 488/1/5 483/1/5 482/1/5
f 489/1/5 483/1/5 488/1/5
f 490/1/5 487/1/5 486/1/5
f 491/1/5 487/1/5 490/1/5
f 496/2/5 493/2/5 492/2/5
f 497/2/5 493/2/5 496/2/5
f 498/2/5 495/2/5 494/2/5
f 499/2/5 495/2/5 498/2/5
f 502/2/5 501/2/5 500/2/5
f 503/2/5 501/2/5 502/2/5
f 506/2/5 505/2/5 504/2/5
f 507/2/5 505/2/5 506/2/5
f 512/2/5 509/2/5 508/2/5
f 513/2/5 509/2/5 512/2/5
f 514/2/5 511/2/5 510/2/5
f 515/2/5 511/2/5 514/2/5
f 518/2/5 517/2/5 516/2/5
f 519/2/5 517/2/5 518/2/5
f 522/2/5 521/2/5 520/2/5
f 523/2/5 521/2/5 522/2/5
f 526/2/5 525/2/5 524/2/5
f 527/2/5 525/2/5 526/2/5
f 528/2/6 529/2/6 530/2/6
f 530/2/6 529/2/6 531/2/6
f 532/2/6 533/2/6 536/2/6
f 536/2/6 533/2/6 537/2/6
f 534/2/6 535/2/6 538/2/6
f 538/2/6 535/2/6 539/2/6
f 540/2/6 541/2/6 546/2/6
f 546/2/6 541/2/6 547/2/6
f 542/2/6 543/2/6 548/2/6
f 548/2/6 543/2/6 549/2/6
f 544/2/6 545/2/6 550/2/6
f 550/2/6 545/2/6 551/2/6
f 552/2/6 553/2/6 556/2/6
f 556/2/6 553/2/6 557/2/6
f 554/2/6 555/2/6 558/2/6
f 558/2/6 555/2/6 559/2/6
f 560/2/6 561/2/6 562/2/6
f 562/2/6 561/2/6 563/2/6
f 564/2/6 565/2/6 569/2/6
f 569/2/6 565/2/6 570/2/6
f 566/2/6 567/2/6 571/2/6
f 571/2/6 567/2/6 572/2/6
f 568/1/6 569/1/6 574/1/6
f 574/1/6 569/1/6 575/1/6
f 572/1/6 573/1/6 576/1/6
f 576/1/6 573/1/6 577/1/6
f 578/2/6 579/2/6 585/2/6
f 585/2/6 579/2/6 586/2/6
f 580/2/6 581/2/6 587/2/6
f 587/2/6 581/2/6 588/2/6
f 582/2/6 583/2/6 589/2/6
f 589/2/6 583/2/6 590/2/6
f 584/1/6 585/1/6 592/1/6
f 592/1/6 585/1/6 593/1/6
f 590/1/6 591/1/6 594/1/6
f 594/1/6 591/1/6 595/1/6
f 596/2/6 597/2/6 601/2/6
f 601/2/6 597/2/6 602/2/6
f 598/2/6 599/2/6 603/2/6
f 603/2/6 599/2/6 604/2/6
f 604/2/6 599/2/6 605/2/6
f 600/1/6 601/1/6 607/1/6
f 607/1/6 601/1/6 608/1/6
f 605/1/6 606/1/6 609/1/6
f 604/1/6 605/1/6 609/1/6
f 609/1/6 606/1/6 610/1/6
f 611/2/6 612/2/6 614/2/6
f 614/2/6 612/2/6 615/2/6
f 613/1/6 614/1/6 617/1/6
f 617/1/6 614/1/6 618/1/6
f 615/1/6 616/1/6 619/1/6
f 619/1/6 616/1/6 620/1/6
f 621/1/6 622/1/6 623/1/6
f 623/1/6 622/1/6 624/1/6
