# MagicaVoxel @ Ephtracy

# group
o 

# material
mtllib pause-background-3.mtl
usemtl palette

# normals
vn 0 1 0
vn 0 -1 0
vn 0 0 1
vn 0 0 -1
vn -1 0 0
vn 1 0 0

# texcoords
vt 0.845703 0.5
vt 0.849609 0.5
vt 0.962891 0.5

# verts
v -6.8 18.5 -2.3
v -6.8 18.5 -2.4
v 6.7 18.5 -2.3
v 6.7 18.5 -2.4
v -6.9 18.4 -2.3
v -6.9 18.4 -2.4
v -6.8 18.4 -2.3
v -6.8 18.4 -2.4
v 6.7 18.4 -2.3
v 6.7 18.4 -2.4
v 6.8 18.4 -2.3
v 6.8 18.4 -2.4
v -7 18.3 -2.3
v -7 18.3 -2.4
v -6.9 18.3 -2.3
v -6.9 18.3 -2.4
v -6.6 18.3 -2.2
v -6.6 18.3 -2.3
v 6.5 18.3 -2.2
v 6.5 18.3 -2.3
v 6.8 18.3 -2.3
v 6.8 18.3 -2.4
v 6.9 18.3 -2.3
v 6.9 18.3 -2.4
v -6.8 18.2 -2.2
v -6.8 18.2 -2.3
v -6.6 18.2 -2.2
v -6.6 18.2 -2.3
v 6.5 18.2 -2.2
v 6.5 18.2 -2.3
v 6.7 18.2 -2.2
v 6.7 18.2 -2.3
v -7.1 18.1 -2.3
v -7.1 18.1 -2.4
v -7 18.1 -2.3
v -7 18.1 -2.4
v -6.9 18.1 -2.2
v -6.9 18.1 -2.3
v -6.8 18.1 -2.2
v -6.8 18.1 -2.3
v 6.7 18.1 -2.2
v 6.7 18.1 -2.3
v 6.8 18.1 -2.2
v 6.8 18.1 -2.3
v 6.9 18.1 -2.3
v 6.9 18.1 -2.4
v 7 18.1 -2.3
v 7 18.1 -2.4
v -7 18 -2.2
v -7 18 -2.3
v -6.9 18 -2.2
v -6.9 18 -2.3
v -6.6 18 -2.1
v -6.6 18 -2.2
v 6.5 18 -2.1
v 6.5 18 -2.2
v 6.8 18 -2.2
v 6.8 18 -2.3
v 6.9 18 -2.2
v 6.9 18 -2.3
v -6.8 17.9 -2.1
v -6.8 17.9 -2.2
v -6.6 17.9 -2.1
v -6.6 17.9 -2.2
v 6.5 17.9 -2.1
v 6.5 17.9 -2.2
v 6.7 17.9 -2.1
v 6.7 17.9 -2.2
v -7.2 17.8 -2.3
v -7.2 17.8 -2.4
v -7.1 17.8 -2.2
v -7.1 17.8 -2.3
v -7.1 17.8 -2.4
v -7 17.8 -2.2
v -7 17.8 -2.3
v -6.9 17.8 -2.1
v -6.9 17.8 -2.2
v -6.8 17.8 -2.1
v -6.8 17.8 -2.2
v 6.7 17.8 -2.1
v 6.7 17.8 -2.2
v 6.8 17.8 -2.1
v 6.8 17.8 -2.2
v 6.9 17.8 -2.2
v 6.9 17.8 -2.3
v 7 17.8 -2.2
v 7 17.8 -2.3
v 7 17.8 -2.4
v 7.1 17.8 -2.3
v 7.1 17.8 -2.4
v -7 17.7 -2.1
v -7 17.7 -2.2
v -6.9 17.7 -2.1
v -6.9 17.7 -2.2
v 6.8 17.7 -2.1
v 6.8 17.7 -2.2
v 6.9 17.7 -2.1
v 6.9 17.7 -2.2
v -7.2 17.6 -2.2
v -7.2 17.6 -2.3
v -7.1 17.6 -2.2
v -7.1 17.6 -2.3
v 7 17.6 -2.2
v 7 17.6 -2.3
v 7.1 17.6 -2.2
v 7.1 17.6 -2.3
v -7.2 14.4 -2.2
v -7.2 14.4 -2.3
v -7.2 14.4 -2.4
v -7 14.4 -2.1
v -7 14.4 -2.2
v 6.9 14.4 -2.1
v 6.9 14.4 -2.2
v 7.1 14.4 -2.2
v 7.1 14.4 -2.3
v 7.1 14.4 -2.4
v -6.6 18 -2.1
v 6.5 18 -2.1
v -6.8 17.9 -2.1
v -6.6 17.9 -2.1
v 6.5 17.9 -2.1
v 6.7 17.9 -2.1
v -6.9 17.8 -2.1
v -6.8 17.8 -2.1
v 6.7 17.8 -2.1
v 6.8 17.8 -2.1
v -7 17.7 -2.1
v -6.9 17.7 -2.1
v 6.8 17.7 -2.1
v 6.9 17.7 -2.1
v -7 14.4 -2.1
v 6.9 14.4 -2.1
v -6.6 18.3 -2.2
v 6.5 18.3 -2.2
v -6.8 18.2 -2.2
v -6.6 18.2 -2.2
v 6.5 18.2 -2.2
v 6.7 18.2 -2.2
v -6.9 18.1 -2.2
v -6.8 18.1 -2.2
v 6.7 18.1 -2.2
v 6.8 18.1 -2.2
v -7 18 -2.2
v -6.9 18 -2.2
v -6.6 18 -2.2
v 6.5 18 -2.2
v 6.8 18 -2.2
v 6.9 18 -2.2
v -6.8 17.9 -2.2
v -6.6 17.9 -2.2
v 6.5 17.9 -2.2
v 6.7 17.9 -2.2
v -7.1 17.8 -2.2
v -7 17.8 -2.2
v -6.9 17.8 -2.2
v -6.8 17.8 -2.2
v 6.7 17.8 -2.2
v 6.8 17.8 -2.2
v 6.9 17.8 -2.2
v 7 17.8 -2.2
v -7 17.7 -2.2
v -6.9 17.7 -2.2
v 6.8 17.7 -2.2
v 6.9 17.7 -2.2
v -7.2 17.6 -2.2
v -7.1 17.6 -2.2
v 7 17.6 -2.2
v 7.1 17.6 -2.2
v -7.2 14.4 -2.2
v -7 14.4 -2.2
v 6.9 14.4 -2.2
v 7.1 14.4 -2.2
v -6.8 18.5 -2.3
v 6.7 18.5 -2.3
v -6.9 18.4 -2.3
v -6.8 18.4 -2.3
v 6.7 18.4 -2.3
v 6.8 18.4 -2.3
v -7 18.3 -2.3
v -6.9 18.3 -2.3
v -6.6 18.3 -2.3
v 6.5 18.3 -2.3
v 6.8 18.3 -2.3
v 6.9 18.3 -2.3
v -6.8 18.2 -2.3
v -6.6 18.2 -2.3
v 6.5 18.2 -2.3
v 6.7 18.2 -2.3
v -7.1 18.1 -2.3
v -7 18.1 -2.3
v -6.9 18.1 -2.3
v -6.8 18.1 -2.3
v 6.7 18.1 -2.3
v 6.8 18.1 -2.3
v 6.9 18.1 -2.3
v 7 18.1 -2.3
v -7 18 -2.3
v -6.9 18 -2.3
v 6.8 18 -2.3
v 6.9 18 -2.3
v -7.2 17.8 -2.3
v -7.1 17.8 -2.3
v -7 17.8 -2.3
v 6.9 17.8 -2.3
v 7 17.8 -2.3
v 7.1 17.8 -2.3
v -7.2 17.6 -2.3
v -7.1 17.6 -2.3
v 7 17.6 -2.3
v 7.1 17.6 -2.3
v -6.8 18.5 -2.4
v 6.7 18.5 -2.4
v -6.9 18.4 -2.4
v -6.8 18.4 -2.4
v 6.7 18.4 -2.4
v 6.8 18.4 -2.4
v -7 18.3 -2.4
v -6.9 18.3 -2.4
v 6.8 18.3 -2.4
v 6.9 18.3 -2.4
v -7.1 18.1 -2.4
v -7 18.1 -2.4
v 6.9 18.1 -2.4
v 7 18.1 -2.4
v -7.2 17.8 -2.4
v -7.1 17.8 -2.4
v 7 17.8 -2.4
v 7.1 17.8 -2.4
v -5.8 17.5 -2.4
v -5.7 17.5 -2.4
v -5 17.5 -2.4
v -4.9 17.5 -2.4
v -3 17.5 -2.4
v -2.9 17.5 -2.4
v -1.1 17.5 -2.4
v -1 17.5 -2.4
v -0.3 17.5 -2.4
v -0.2 17.5 -2.4
v 1.7 17.5 -2.4
v 1.8 17.5 -2.4
v 2.5 17.5 -2.4
v 2.6 17.5 -2.4
v 3.6 17.5 -2.4
v 3.7 17.5 -2.4
v 5.6 17.5 -2.4
v 5.7 17.5 -2.4
v -5.8 17.4 -2.4
v -5.7 17.4 -2.4
v -5 17.4 -2.4
v -4.9 17.4 -2.4
v -3 17.4 -2.4
v -2.9 17.4 -2.4
v -1.1 17.4 -2.4
v -1 17.4 -2.4
v -0.3 17.4 -2.4
v -0.2 17.4 -2.4
v 1.7 17.4 -2.4
v 1.8 17.4 -2.4
v 2.5 17.4 -2.4
v 2.6 17.4 -2.4
v 3.6 17.4 -2.4
v 3.7 17.4 -2.4
v 5.6 17.4 -2.4
v 5.7 17.4 -2.4
v -7.2 14.4 -2.4
v 7.1 14.4 -2.4
v -7.2 17.6 -2.2
v -7.2 14.4 -2.2
v -7.2 17.8 -2.3
v -7.2 17.6 -2.3
v -7.2 14.4 -2.3
v -7.2 17.8 -2.4
v -7.2 14.4 -2.4
v -7.1 17.8 -2.2
v -7.1 17.6 -2.2
v -7.1 18.1 -2.3
v -7.1 17.8 -2.3
v -7.1 17.6 -2.3
v -7.1 18.1 -2.4
v -7.1 17.8 -2.4
v -7 17.7 -2.1
v -7 14.4 -2.1
v -7 18 -2.2
v -7 17.8 -2.2
v -7 17.7 -2.2
v -7 14.4 -2.2
v -7 18.3 -2.3
v -7 18.1 -2.3
v -7 18 -2.3
v -7 17.8 -2.3
v -7 18.3 -2.4
v -7 18.1 -2.4
v -6.9 17.8 -2.1
v -6.9 17.7 -2.1
v -6.9 18.1 -2.2
v -6.9 18 -2.2
v -6.9 17.8 -2.2
v -6.9 17.7 -2.2
v -6.9 18.4 -2.3
v -6.9 18.3 -2.3
v -6.9 18.1 -2.3
v -6.9 18 -2.3
v -6.9 18.4 -2.4
v -6.9 18.3 -2.4
v -6.8 17.9 -2.1
v -6.8 17.8 -2.1
v -6.8 18.2 -2.2
v -6.8 18.1 -2.2
v -6.8 17.9 -2.2
v -6.8 17.8 -2.2
v -6.8 18.5 -2.3
v -6.8 18.4 -2.3
v -6.8 18.2 -2.3
v -6.8 18.1 -2.3
v -6.8 18.5 -2.4
v -6.8 18.4 -2.4
v -6.6 18 -2.1
v -6.6 17.9 -2.1
v -6.6 18.3 -2.2
v -6.6 18.2 -2.2
v -6.6 18 -2.2
v -6.6 17.9 -2.2
v -6.6 18.3 -2.3
v -6.6 18.2 -2.3
v 6.5 18 -2.1
v 6.5 17.9 -2.1
v 6.5 18.3 -2.2
v 6.5 18.2 -2.2
v 6.5 18 -2.2
v 6.5 17.9 -2.2
v 6.5 18.3 -2.3
v 6.5 18.2 -2.3
v 6.7 17.9 -2.1
v 6.7 17.8 -2.1
v 6.7 18.2 -2.2
v 6.7 18.1 -2.2
v 6.7 17.9 -2.2
v 6.7 17.8 -2.2
v 6.7 18.5 -2.3
v 6.7 18.4 -2.3
v 6.7 18.2 -2.3
v 6.7 18.1 -2.3
v 6.7 18.5 -2.4
v 6.7 18.4 -2.4
v 6.8 17.8 -2.1
v 6.8 17.7 -2.1
v 6.8 18.1 -2.2
v 6.8 18 -2.2
v 6.8 17.8 -2.2
v 6.8 17.7 -2.2
v 6.8 18.4 -2.3
v 6.8 18.3 -2.3
v 6.8 18.1 -2.3
v 6.8 18 -2.3
v 6.8 18.4 -2.4
v 6.8 18.3 -2.4
v 6.9 17.7 -2.1
v 6.9 14.4 -2.1
v 6.9 18 -2.2
v 6.9 17.8 -2.2
v 6.9 17.7 -2.2
v 6.9 14.4 -2.2
v 6.9 18.3 -2.3
v 6.9 18.1 -2.3
v 6.9 18 -2.3
v 6.9 17.8 -2.3
v 6.9 18.3 -2.4
v 6.9 18.1 -2.4
v 7 17.8 -2.2
v 7 17.6 -2.2
v 7 18.1 -2.3
v 7 17.8 -2.3
v 7 17.6 -2.3
v 7 18.1 -2.4
v 7 17.8 -2.4
v 7.1 17.6 -2.2
v 7.1 14.4 -2.2
v 7.1 17.8 -2.3
v 7.1 17.6 -2.3
v 7.1 14.4 -2.3
v 7.1 17.8 -2.4
v 7.1 14.4 -2.4

# faces
f 3/2/1 2/2/1 1/2/1
f 4/2/1 2/2/1 3/2/1
f 7/2/1 6/2/1 5/2/1
f 8/2/1 6/2/1 7/2/1
f 11/2/1 10/2/1 9/2/1
f 12/2/1 10/2/1 11/2/1
f 15/2/1 14/2/1 13/2/1
f 16/2/1 14/2/1 15/2/1
f 19/1/1 18/1/1 17/1/1
f 20/1/1 18/1/1 19/1/1
f 23/2/1 22/2/1 21/2/1
f 24/2/1 22/2/1 23/2/1
f 27/1/1 26/1/1 25/1/1
f 28/1/1 26/1/1 27/1/1
f 31/1/1 30/1/1 29/1/1
f 32/1/1 30/1/1 31/1/1
f 35/2/1 34/2/1 33/2/1
f 36/2/1 34/2/1 35/2/1
f 39/1/1 38/1/1 37/1/1
f 40/1/1 38/1/1 39/1/1
f 43/1/1 42/1/1 41/1/1
f 44/1/1 42/1/1 43/1/1
f 47/2/1 46/2/1 45/2/1
f 48/2/1 46/2/1 47/2/1
f 51/1/1 50/1/1 49/1/1
f 52/1/1 50/1/1 51/1/1
f 55/3/1 54/3/1 53/3/1
f 56/3/1 54/3/1 55/3/1
f 59/1/1 58/1/1 57/1/1
f 60/1/1 58/1/1 59/1/1
f 63/3/1 62/3/1 61/3/1
f 64/3/1 62/3/1 63/3/1
f 67/3/1 66/3/1 65/3/1
f 68/3/1 66/3/1 67/3/1
f 72/2/1 70/2/1 69/2/1
f 73/2/1 70/2/1 72/2/1
f 74/1/1 72/1/1 71/1/1
f 75/1/1 72/1/1 74/1/1
f 78/3/1 77/3/1 76/3/1
f 79/3/1 77/3/1 78/3/1
f 82/3/1 81/3/1 80/3/1
f 83/3/1 81/3/1 82/3/1
f 86/1/1 85/1/1 84/1/1
f 87/1/1 85/1/1 86/1/1
f 89/2/1 88/2/1 87/2/1
f 90/2/1 88/2/1 89/2/1
f 93/3/1 92/3/1 91/3/1
f 94/3/1 92/3/1 93/3/1
f 97/3/1 96/3/1 95/3/1
f 98/3/1 96/3/1 97/3/1
f 101/1/1 100/1/1 99/1/1
f 102/1/1 100/1/1 101/1/1
f 105/1/1 104/1/1 103/1/1
f 106/1/1 104/1/1 105/1/1
f 107/1/2 108/1/2 111/1/2
f 110/3/2 111/3/2 112/3/2
f 111/1/2 108/1/2 113/1/2
f 112/3/2 111/3/2 113/3/2
f 113/1/2 108/1/2 114/1/2
f 108/2/2 109/2/2 115/2/2
f 114/1/2 108/1/2 115/1/2
f 115/2/2 109/2/2 116/2/2
f 120/3/3 118/3/3 117/3/3
f 121/3/3 118/3/3 120/3/3
f 124/3/3 120/3/3 119/3/3
f 124/3/3 122/3/3 121/3/3
f 124/3/3 121/3/3 120/3/3
f 125/3/3 122/3/3 124/3/3
f 128/3/3 124/3/3 123/3/3
f 128/3/3 126/3/3 125/3/3
f 128/3/3 125/3/3 124/3/3
f 129/3/3 126/3/3 128/3/3
f 131/3/3 128/3/3 127/3/3
f 131/3/3 130/3/3 129/3/3
f 131/3/3 129/3/3 128/3/3
f 132/3/3 130/3/3 131/3/3
f 136/1/3 134/1/3 133/1/3
f 137/1/3 134/1/3 136/1/3
f 140/1/3 136/1/3 135/1/3
f 140/1/3 138/1/3 137/1/3
f 140/1/3 137/1/3 136/1/3
f 141/1/3 138/1/3 140/1/3
f 144/1/3 140/1/3 139/1/3
f 144/1/3 142/1/3 141/1/3
f 144/1/3 141/1/3 140/1/3
f 145/1/3 142/1/3 144/1/3
f 146/1/3 142/1/3 145/1/3
f 147/1/3 142/1/3 146/1/3
f 149/1/3 144/1/3 143/1/3
f 149/1/3 145/1/3 144/1/3
f 150/1/3 145/1/3 149/1/3
f 151/1/3 148/1/3 147/1/3
f 151/1/3 147/1/3 146/1/3
f 152/1/3 148/1/3 151/1/3
f 154/1/3 149/1/3 143/1/3
f 155/1/3 149/1/3 154/1/3
f 156/1/3 149/1/3 155/1/3
f 157/1/3 148/1/3 152/1/3
f 158/1/3 148/1/3 157/1/3
f 159/1/3 148/1/3 158/1/3
f 161/1/3 154/1/3 153/1/3
f 161/1/3 155/1/3 154/1/3
f 162/1/3 155/1/3 161/1/3
f 163/1/3 160/1/3 159/1/3
f 163/1/3 159/1/3 158/1/3
f 164/1/3 160/1/3 163/1/3
f 166/1/3 161/1/3 153/1/3
f 167/1/3 160/1/3 164/1/3
f 169/1/3 166/1/3 165/1/3
f 170/1/3 161/1/3 166/1/3
f 170/1/3 166/1/3 169/1/3
f 171/1/3 168/1/3 167/1/3
f 171/1/3 167/1/3 164/1/3
f 172/1/3 168/1/3 171/1/3
f 176/2/3 174/2/3 173/2/3
f 177/2/3 174/2/3 176/2/3
f 180/2/3 176/2/3 175/2/3
f 180/2/3 178/2/3 177/2/3
f 180/2/3 177/2/3 176/2/3
f 181/2/3 178/2/3 180/2/3
f 182/2/3 178/2/3 181/2/3
f 183/2/3 178/2/3 182/2/3
f 185/2/3 180/2/3 179/2/3
f 185/2/3 181/2/3 180/2/3
f 186/2/3 181/2/3 185/2/3
f 187/2/3 184/2/3 183/2/3
f 187/2/3 183/2/3 182/2/3
f 188/2/3 184/2/3 187/2/3
f 190/2/3 185/2/3 179/2/3
f 191/2/3 185/2/3 190/2/3
f 192/2/3 185/2/3 191/2/3
f 193/2/3 184/2/3 188/2/3
f 194/2/3 184/2/3 193/2/3
f 195/2/3 184/2/3 194/2/3
f 197/2/3 190/2/3 189/2/3
f 197/2/3 191/2/3 190/2/3
f 198/2/3 191/2/3 197/2/3
f 199/2/3 196/2/3 195/2/3
f 199/2/3 195/2/3 194/2/3
f 200/2/3 196/2/3 199/2/3
f 202/2/3 197/2/3 189/2/3
f 203/2/3 197/2/3 202/2/3
f 204/2/3 196/2/3 200/2/3
f 205/2/3 196/2/3 204/2/3
f 207/2/3 202/2/3 201/2/3
f 208/2/3 202/2/3 207/2/3
f 209/2/3 206/2/3 205/2/3
f 210/2/3 206/2/3 209/2/3
f 211/2/4 212/2/4 214/2/4
f 214/2/4 212/2/4 215/2/4
f 213/2/4 214/2/4 218/2/4
f 215/2/4 216/2/4 218/2/4
f 214/2/4 215/2/4 218/2/4
f 218/2/4 216/2/4 219/2/4
f 217/2/4 218/2/4 222/2/4
f 219/2/4 220/2/4 222/2/4
f 218/2/4 219/2/4 222/2/4
f 222/2/4 220/2/4 223/2/4
f 221/2/4 222/2/4 226/2/4
f 223/2/4 224/2/4 226/2/4
f 222/2/4 223/2/4 226/2/4
f 226/2/4 224/2/4 227/2/4
f 225/2/4 226/2/4 229/2/4
f 227/2/4 228/2/4 229/2/4
f 226/2/4 227/2/4 229/2/4
f 229/2/4 228/2/4 230/2/4
f 230/2/4 228/2/4 231/2/4
f 231/2/4 228/2/4 232/2/4
f 232/2/4 228/2/4 233/2/4
f 233/2/4 228/2/4 234/2/4
f 234/2/4 228/2/4 235/2/4
f 235/2/4 228/2/4 236/2/4
f 236/2/4 228/2/4 237/2/4
f 237/2/4 228/2/4 238/2/4
f 238/2/4 228/2/4 239/2/4
f 239/2/4 228/2/4 240/2/4
f 240/2/4 228/2/4 241/2/4
f 241/2/4 228/2/4 242/2/4
f 242/2/4 228/2/4 243/2/4
f 243/2/4 228/2/4 244/2/4
f 244/2/4 228/2/4 245/2/4
f 245/2/4 228/2/4 246/2/4
f 225/2/4 229/2/4 247/2/4
f 229/3/4 230/3/4 247/3/4
f 230/2/4 231/2/4 248/2/4
f 247/3/4 230/3/4 248/3/4
f 231/3/4 232/3/4 249/3/4
f 248/2/4 231/2/4 249/2/4
f 232/2/4 233/2/4 250/2/4
f 249/3/4 232/3/4 250/3/4
f 233/3/4 234/3/4 251/3/4
f 250/2/4 233/2/4 251/2/4
f 234/2/4 235/2/4 252/2/4
f 251/3/4 234/3/4 252/3/4
f 235/3/4 236/3/4 253/3/4
f 252/2/4 235/2/4 253/2/4
f 236/2/4 237/2/4 254/2/4
f 253/3/4 236/3/4 254/3/4
f 237/3/4 238/3/4 255/3/4
f 254/2/4 237/2/4 255/2/4
f 238/2/4 239/2/4 256/2/4
f 255/3/4 238/3/4 256/3/4
f 239/3/4 240/3/4 257/3/4
f 256/2/4 239/2/4 257/2/4
f 240/2/4 241/2/4 258/2/4
f 257/3/4 240/3/4 258/3/4
f 241/3/4 242/3/4 259/3/4
f 258/2/4 241/2/4 259/2/4
f 242/2/4 243/2/4 260/2/4
f 259/3/4 242/3/4 260/3/4
f 243/3/4 244/3/4 261/3/4
f 260/2/4 243/2/4 261/2/4
f 244/2/4 245/2/4 262/2/4
f 261/3/4 244/3/4 262/3/4
f 245/3/4 246/3/4 263/3/4
f 262/2/4 245/2/4 263/2/4
f 246/2/4 228/2/4 264/2/4
f 263/3/4 246/3/4 264/3/4
f 262/2/4 263/2/4 265/2/4
f 261/2/4 262/2/4 265/2/4
f 263/2/4 264/2/4 265/2/4
f 260/2/4 261/2/4 265/2/4
f 259/2/4 260/2/4 265/2/4
f 258/2/4 259/2/4 265/2/4
f 257/2/4 258/2/4 265/2/4
f 256/2/4 257/2/4 265/2/4
f 255/2/4 256/2/4 265/2/4
f 254/2/4 255/2/4 265/2/4
f 253/2/4 254/2/4 265/2/4
f 252/2/4 253/2/4 265/2/4
f 251/2/4 252/2/4 265/2/4
f 250/2/4 251/2/4 265/2/4
f 249/2/4 250/2/4 265/2/4
f 248/2/4 249/2/4 265/2/4
f 247/2/4 248/2/4 265/2/4
f 225/2/4 247/2/4 265/2/4
f 264/2/4 228/2/4 266/2/4
f 265/2/4 264/2/4 266/2/4
f 270/1/5 268/1/5 267/1/5
f 271/1/5 268/1/5 270/1/5
f 272/2/5 270/2/5 269/2/5
f 272/2/5 271/2/5 270/2/5
f 273/2/5 271/2/5 272/2/5
f 277/1/5 275/1/5 274/1/5
f 278/1/5 275/1/5 277/1/5
f 279/2/5 277/2/5 276/2/5
f 280/2/5 277/2/5 279/2/5
f 285/3/5 282/3/5 281/3/5
f 286/3/5 282/3/5 285/3/5
f 289/1/5 284/1/5 283/1/5
f 290/1/5 284/1/5 289/1/5
f 291/2/5 288/2/5 287/2/5
f 292/2/5 288/2/5 291/2/5
f 297/3/5 294/3/5 293/3/5
f 298/3/5 294/3/5 297/3/5
f 301/1/5 296/1/5 295/1/5
f 302/1/5 296/1/5 301/1/5
f 303/2/5 300/2/5 299/2/5
f 304/2/5 300/2/5 303/2/5
f 309/3/5 306/3/5 305/3/5
f 310/3/5 306/3/5 309/3/5
f 313/1/5 308/1/5 307/1/5
f 314/1/5 308/1/5 313/1/5
f 315/2/5 312/2/5 311/2/5
f 316/2/5 312/2/5 315/2/5
f 321/3/5 318/3/5 317/3/5
f 322/3/5 318/3/5 321/3/5
f 323/1/5 320/1/5 319/1/5
f 324/1/5 320/1/5 323/1/5
f 325/3/6 326/3/6 329/3/6
f 329/3/6 326/3/6 330/3/6
f 327/1/6 328/1/6 331/1/6
f 331/1/6 328/1/6 332/1/6
f 333/3/6 334/3/6 337/3/6
f 337/3/6 334/3/6 338/3/6
f 335/1/6 336/1/6 341/1/6
f 341/1/6 336/1/6 342/1/6
f 339/2/6 340/2/6 343/2/6
f 343/2/6 340/2/6 344/2/6
f 345/3/6 346/3/6 349/3/6
f 349/3/6 346/3/6 350/3/6
f 347/1/6 348/1/6 353/1/6
f 353/1/6 348/1/6 354/1/6
f 351/2/6 352/2/6 355/2/6
f 355/2/6 352/2/6 356/2/6
f 357/3/6 358/3/6 361/3/6
f 361/3/6 358/3/6 362/3/6
f 359/1/6 360/1/6 365/1/6
f 365/1/6 360/1/6 366/1/6
f 363/2/6 364/2/6 367/2/6
f 367/2/6 364/2/6 368/2/6
f 369/1/6 370/1/6 372/1/6
f 372/1/6 370/1/6 373/1/6
f 371/2/6 372/2/6 374/2/6
f 374/2/6 372/2/6 375/2/6
f 376/1/6 377/1/6 379/1/6
f 379/1/6 377/1/6 380/1/6
f 378/2/6 379/2/6 381/2/6
f 379/2/6 380/2/6 381/2/6
f 381/2/6 380/2/6 382/2/6
