# MagicaVoxel @ Ephtracy

# group
o fence

# material
mtllib fence.mtl
usemtl palette

# normals
vn -1 0 0
vn 1 0 0
vn 0 0 1
vn 0 0 -1
vn 0 -1 0
vn 0 1 0

# texcoords
vt 0.337891 0.5
vt 0.505859 0.5
vt 0.958984 0.5
vt 0.962891 0.5
vt 0.978516 0.5

# verts
v -1.6 1.1 0.2
v -1.6 1.1 -0.1
v -1.6 1.3 0.2
v -1.6 1.3 0.1
v -1.6 1.3 -2.98023e-08
v -1.6 1.3 -0.1
v -1.6 1.5 0.2
v -1.6 1.5 0.1
v -1.6 1.5 -2.98023e-08
v -1.6 1.5 -0.1
v -1.6 1.7 0.2
v -1.6 1.7 -0.1
v -1.4 1.3 0.2
v -1.4 1.3 0.1
v -1.4 1.3 -2.98023e-08
v -1.4 1.3 -0.1
v -1.4 1.5 0.2
v -1.4 1.5 0.1
v -1.4 1.5 -2.98023e-08
v -1.4 1.5 -0.1
v -1.2 0 0.2
v -1.2 0 -0.1
v -1.2 0.2 0.3
v -1.2 0.2 0.2
v -1.2 0.2 -0.1
v -1.2 0.2 -0.2
v -1.2 1.1 0.2
v -1.2 1.1 0.1
v -1.2 1.1 -0.1
v -1.2 1.3 0.2
v -1.2 1.5 0.2
v -1.2 1.7 0.3
v -1.2 1.7 0.2
v -1.2 1.7 0.1
v -1.2 1.7 -0.1
v -1.2 1.7 -0.2
v -1.2 2.1 0.2
v -1.2 2.1 -0.1
v -1.2 2.5 0.2
v -1.2 2.5 -0.1
v -1.1 2.5 0.2
v -1.1 2.5 -0.1
v -1.1 2.6 0.2
v -1.1 2.6 -0.1
v -1 1.7 0.3
v -1 1.7 0.2
v -1 1.7 -0.1
v -1 1.7 -0.2
v -1 2.1 0.3
v -1 2.1 0.2
v -1 2.1 -0.1
v -1 2.1 -0.2
v -1 2.6 0.2
v -1 2.6 -0.1
v -1 2.7 0.2
v -1 2.7 -0.1
v 0.2 1.3 0.2
v 0.2 1.3 0.1
v 0.2 1.3 -2.98023e-08
v 0.2 1.3 -0.1
v 0.2 1.5 0.2
v 0.2 1.5 0.1
v 0.2 1.5 -2.98023e-08
v 0.2 1.5 -0.1
v 0.4 0 0.2
v 0.4 0 -0.1
v 0.4 0.2 0.3
v 0.4 0.2 0.2
v 0.4 0.2 -0.1
v 0.4 0.2 -0.2
v 0.4 1.1 0.2
v 0.4 1.1 -0.1
v 0.4 1.7 0.3
v 0.4 1.7 0.2
v 0.4 1.7 -0.1
v 0.4 1.7 -0.2
v 0.4 2.1 0.2
v 0.4 2.1 -0.1
v 0.4 2.5 0.2
v 0.4 2.5 -0.1
v 0.5 2.5 0.2
v 0.5 2.5 -0.1
v 0.5 2.6 0.2
v 0.5 2.6 -0.1
v 0.6 1.7 0.3
v 0.6 1.7 0.2
v 0.6 1.7 -0.1
v 0.6 1.7 -0.2
v 0.6 2.1 0.3
v 0.6 2.1 0.2
v 0.6 2.1 -0.1
v 0.6 2.1 -0.2
v 0.6 2.6 0.2
v 0.6 2.6 -0.1
v 0.6 2.7 0.2
v 0.6 2.7 -0.1
v -0.6 1.7 0.3
v -0.6 1.7 0.2
v -0.6 1.7 -0.1
v -0.6 1.7 -0.2
v -0.6 2.1 0.3
v -0.6 2.1 0.2
v -0.6 2.1 -0.1
v -0.6 2.1 -0.2
v -0.6 2.6 0.2
v -0.6 2.6 -0.1
v -0.6 2.7 0.2
v -0.6 2.7 -0.1
v -0.5 2.5 0.2
v -0.5 2.5 -0.1
v -0.5 2.6 0.2
v -0.5 2.6 -0.1
v -0.4 0 0.2
v -0.4 0 -0.1
v -0.4 0.2 0.3
v -0.4 0.2 0.2
v -0.4 0.2 -0.1
v -0.4 0.2 -0.2
v -0.4 1.1 0.2
v -0.4 1.1 -0.1
v -0.4 1.7 0.3
v -0.4 1.7 0.2
v -0.4 1.7 -0.1
v -0.4 1.7 -0.2
v -0.4 2.1 0.2
v -0.4 2.1 -0.1
v -0.4 2.5 0.2
v -0.4 2.5 -0.1
v -0.2 1.3 0.2
v -0.2 1.3 0.1
v -0.2 1.3 -2.98023e-08
v -0.2 1.3 -0.1
v -0.2 1.5 0.2
v -0.2 1.5 0.1
v -0.2 1.5 -2.98023e-08
v -0.2 1.5 -0.1
v 1 1.7 0.3
v 1 1.7 0.2
v 1 1.7 -0.1
v 1 1.7 -0.2
v 1 2.1 0.3
v 1 2.1 0.2
v 1 2.1 -0.1
v 1 2.1 -0.2
v 1 2.6 0.2
v 1 2.6 -0.1
v 1 2.7 0.2
v 1 2.7 -0.1
v 1.1 2.5 0.2
v 1.1 2.5 -0.1
v 1.1 2.6 0.2
v 1.1 2.6 -0.1
v 1.2 0 0.2
v 1.2 0 -0.1
v 1.2 0.2 0.3
v 1.2 0.2 0.2
v 1.2 0.2 -0.1
v 1.2 0.2 -0.2
v 1.2 1.1 0.2
v 1.2 1.1 -0.1
v 1.2 1.7 0.3
v 1.2 1.7 0.2
v 1.2 1.7 -0.1
v 1.2 1.7 -0.2
v 1.2 2.1 0.2
v 1.2 2.1 -0.1
v 1.2 2.5 0.2
v 1.2 2.5 -0.1
v 1.4 1.3 0.2
v 1.4 1.3 0.1
v 1.4 1.3 -2.98023e-08
v 1.4 1.3 -0.1
v 1.4 1.5 0.2
v 1.4 1.5 0.1
v 1.4 1.5 -2.98023e-08
v 1.4 1.5 -0.1
v 1.6 1.1 0.2
v 1.6 1.1 -0.1
v 1.6 1.3 0.2
v 1.6 1.3 0.1
v 1.6 1.3 -2.98023e-08
v 1.6 1.3 -0.1
v 1.6 1.5 0.2
v 1.6 1.5 0.1
v 1.6 1.5 -2.98023e-08
v 1.6 1.5 -0.1
v 1.6 1.7 0.2
v 1.6 1.7 -0.1
v -1.2 0.2 0.3
v -1.2 1.7 0.3
v -1 1.7 0.3
v -1 2.1 0.3
v -0.6 1.7 0.3
v -0.6 2.1 0.3
v -0.4 0.2 0.3
v -0.4 1.7 0.3
v 0.4 0.2 0.3
v 0.4 1.7 0.3
v 0.6 1.7 0.3
v 0.6 2.1 0.3
v 1 1.7 0.3
v 1 2.1 0.3
v 1.2 0.2 0.3
v 1.2 1.7 0.3
v -1.6 1.1 0.2
v -1.6 1.3 0.2
v -1.6 1.5 0.2
v -1.6 1.7 0.2
v -1.4 1.3 0.2
v -1.4 1.5 0.2
v -1.2 0 0.2
v -1.2 0.2 0.2
v -1.2 1.1 0.2
v -1.2 1.3 0.2
v -1.2 1.5 0.2
v -1.2 1.7 0.2
v -1.2 2.1 0.2
v -1.2 2.5 0.2
v -1.1 2.5 0.2
v -1.1 2.6 0.2
v -1 1.7 0.2
v -1 2.1 0.2
v -1 2.5 0.2
v -1 2.6 0.2
v -1 2.7 0.2
v -0.6 1.7 0.2
v -0.6 2.1 0.2
v -0.6 2.5 0.2
v -0.6 2.6 0.2
v -0.6 2.7 0.2
v -0.5 2.5 0.2
v -0.5 2.6 0.2
v -0.4 0 0.2
v -0.4 0.2 0.2
v -0.4 1.1 0.2
v -0.4 1.7 0.2
v -0.4 2.1 0.2
v -0.4 2.5 0.2
v -0.2 1.1 0.2
v -0.2 1.3 0.2
v -0.2 1.5 0.2
v -0.2 1.7 0.2
v 0.2 1.1 0.2
v 0.2 1.3 0.2
v 0.2 1.5 0.2
v 0.2 1.7 0.2
v 0.4 0 0.2
v 0.4 0.2 0.2
v 0.4 1.1 0.2
v 0.4 1.7 0.2
v 0.4 2.1 0.2
v 0.4 2.5 0.2
v 0.5 2.5 0.2
v 0.5 2.6 0.2
v 0.6 1.7 0.2
v 0.6 2.1 0.2
v 0.6 2.5 0.2
v 0.6 2.6 0.2
v 0.6 2.7 0.2
v 1 1.7 0.2
v 1 2.1 0.2
v 1 2.5 0.2
v 1 2.6 0.2
v 1 2.7 0.2
v 1.1 2.5 0.2
v 1.1 2.6 0.2
v 1.2 0 0.2
v 1.2 0.2 0.2
v 1.2 1.1 0.2
v 1.2 1.7 0.2
v 1.2 2.1 0.2
v 1.2 2.5 0.2
v 1.4 1.1 0.2
v 1.4 1.3 0.2
v 1.4 1.5 0.2
v 1.4 1.7 0.2
v 1.6 1.1 0.2
v 1.6 1.3 0.2
v 1.6 1.5 0.2
v 1.6 1.7 0.2
v -1.6 1.3 0.1
v -1.6 1.5 0.1
v -1.4 1.3 0.1
v -1.4 1.5 0.1
v -0.2 1.3 0.1
v -0.2 1.5 0.1
v 0.2 1.3 0.1
v 0.2 1.5 0.1
v 1.4 1.3 0.1
v 1.4 1.5 0.1
v 1.6 1.3 0.1
v 1.6 1.5 0.1
v -1.6 1.3 -2.98023e-08
v -1.6 1.5 -2.98023e-08
v -1.4 1.3 -2.98023e-08
v -1.4 1.5 -2.98023e-08
v -0.2 1.3 -2.98023e-08
v -0.2 1.5 -2.98023e-08
v 0.2 1.3 -2.98023e-08
v 0.2 1.5 -2.98023e-08
v 1.4 1.3 -2.98023e-08
v 1.4 1.5 -2.98023e-08
v 1.6 1.3 -2.98023e-08
v 1.6 1.5 -2.98023e-08
v -1.6 1.1 -0.1
v -1.6 1.3 -0.1
v -1.6 1.5 -0.1
v -1.6 1.7 -0.1
v -1.4 1.1 -0.1
v -1.4 1.3 -0.1
v -1.4 1.5 -0.1
v -1.4 1.7 -0.1
v -1.2 0 -0.1
v -1.2 0.2 -0.1
v -1.2 1.1 -0.1
v -1.2 1.7 -0.1
v -1.2 2.1 -0.1
v -1.2 2.5 -0.1
v -1.1 2.5 -0.1
v -1.1 2.6 -0.1
v -1 1.7 -0.1
v -1 2.1 -0.1
v -1 2.5 -0.1
v -1 2.6 -0.1
v -1 2.7 -0.1
v -0.6 1.7 -0.1
v -0.6 2.1 -0.1
v -0.6 2.5 -0.1
v -0.6 2.6 -0.1
v -0.6 2.7 -0.1
v -0.5 2.5 -0.1
v -0.5 2.6 -0.1
v -0.4 0 -0.1
v -0.4 0.2 -0.1
v -0.4 1.1 -0.1
v -0.4 1.7 -0.1
v -0.4 2.1 -0.1
v -0.4 2.5 -0.1
v -0.2 1.1 -0.1
v -0.2 1.3 -0.1
v -0.2 1.5 -0.1
v -0.2 1.7 -0.1
v 0.2 1.1 -0.1
v 0.2 1.3 -0.1
v 0.2 1.5 -0.1
v 0.2 1.7 -0.1
v 0.4 0 -0.1
v 0.4 0.2 -0.1
v 0.4 1.1 -0.1
v 0.4 1.7 -0.1
v 0.4 2.1 -0.1
v 0.4 2.5 -0.1
v 0.5 2.5 -0.1
v 0.5 2.6 -0.1
v 0.6 1.7 -0.1
v 0.6 2.1 -0.1
v 0.6 2.5 -0.1
v 0.6 2.6 -0.1
v 0.6 2.7 -0.1
v 1 1.7 -0.1
v 1 2.1 -0.1
v 1 2.5 -0.1
v 1 2.6 -0.1
v 1 2.7 -0.1
v 1.1 2.5 -0.1
v 1.1 2.6 -0.1
v 1.2 0 -0.1
v 1.2 0.2 -0.1
v 1.2 1.1 -0.1
v 1.2 1.7 -0.1
v 1.2 2.1 -0.1
v 1.2 2.5 -0.1
v 1.4 1.1 -0.1
v 1.4 1.3 -0.1
v 1.4 1.5 -0.1
v 1.4 1.7 -0.1
v 1.6 1.1 -0.1
v 1.6 1.3 -0.1
v 1.6 1.5 -0.1
v 1.6 1.7 -0.1
v -1.2 0.2 -0.2
v -1.2 1.7 -0.2
v -1 1.7 -0.2
v -1 2.1 -0.2
v -0.6 1.7 -0.2
v -0.6 2.1 -0.2
v -0.4 0.2 -0.2
v -0.4 1.7 -0.2
v 0.4 0.2 -0.2
v 0.4 1.7 -0.2
v 0.6 1.7 -0.2
v 0.6 2.1 -0.2
v 1 1.7 -0.2
v 1 2.1 -0.2
v 1.2 0.2 -0.2
v 1.2 1.7 -0.2
v -1.2 0 0.2
v -0.4 0 0.2
v 0.4 0 0.2
v 1.2 0 0.2
v -1.2 0 -0.1
v -0.4 0 -0.1
v 0.4 0 -0.1
v 1.2 0 -0.1
v -1.2 0.2 0.3
v -0.4 0.2 0.3
v 0.4 0.2 0.3
v 1.2 0.2 0.3
v -1.2 0.2 0.2
v -0.4 0.2 0.2
v 0.4 0.2 0.2
v 1.2 0.2 0.2
v -1.2 0.2 -0.1
v -0.4 0.2 -0.1
v 0.4 0.2 -0.1
v 1.2 0.2 -0.1
v -1.2 0.2 -0.2
v -0.4 0.2 -0.2
v 0.4 0.2 -0.2
v 1.2 0.2 -0.2
v -1.6 1.1 0.2
v -1.2 1.1 0.2
v -0.4 1.1 0.2
v -0.2 1.1 0.2
v 0.2 1.1 0.2
v 0.4 1.1 0.2
v 1.2 1.1 0.2
v 1.4 1.1 0.2
v 1.6 1.1 0.2
v -1.4 1.1 0.1
v -1.2 1.1 0.1
v 0.2 1.1 0.1
v 0.3 1.1 0.1
v 0.2 1.1 -2.98023e-08
v 0.3 1.1 -2.98023e-08
v -1.6 1.1 -0.1
v -1.4 1.1 -0.1
v -1.2 1.1 -0.1
v -0.4 1.1 -0.1
v -0.2 1.1 -0.1
v 0.2 1.1 -0.1
v 0.4 1.1 -0.1
v 1.2 1.1 -0.1
v 1.4 1.1 -0.1
v 1.6 1.1 -0.1
v -1.6 1.5 0.2
v -1.4 1.5 0.2
v -0.2 1.5 0.2
v 0.2 1.5 0.2
v 1.4 1.5 0.2
v 1.6 1.5 0.2
v -1.6 1.5 0.1
v -1.4 1.5 0.1
v -0.2 1.5 0.1
v 0.2 1.5 0.1
v 1.4 1.5 0.1
v 1.6 1.5 0.1
v -1.6 1.5 -2.98023e-08
v -1.4 1.5 -2.98023e-08
v -0.2 1.5 -2.98023e-08
v 0.2 1.5 -2.98023e-08
v 1.4 1.5 -2.98023e-08
v 1.6 1.5 -2.98023e-08
v -1.6 1.5 -0.1
v -1.4 1.5 -0.1
v -0.2 1.5 -0.1
v 0.2 1.5 -0.1
v 1.4 1.5 -0.1
v 1.6 1.5 -0.1
v -1.6 1.3 0.2
v -1.4 1.3 0.2
v -0.2 1.3 0.2
v 0.2 1.3 0.2
v 1.4 1.3 0.2
v 1.6 1.3 0.2
v -1.6 1.3 0.1
v -1.4 1.3 0.1
v -0.2 1.3 0.1
v 0.2 1.3 0.1
v 1.4 1.3 0.1
v 1.6 1.3 0.1
v -1.6 1.3 -2.98023e-08
v -1.4 1.3 -2.98023e-08
v -0.2 1.3 -2.98023e-08
v 0.2 1.3 -2.98023e-08
v 1.4 1.3 -2.98023e-08
v 1.6 1.3 -2.98023e-08
v -1.6 1.3 -0.1
v -1.4 1.3 -0.1
v -0.2 1.3 -0.1
v 0.2 1.3 -0.1
v 1.4 1.3 -0.1
v 1.6 1.3 -0.1
v -1.2 1.7 0.3
v -1 1.7 0.3
v -0.6 1.7 0.3
v -0.4 1.7 0.3
v 0.4 1.7 0.3
v 0.6 1.7 0.3
v 1 1.7 0.3
v 1.2 1.7 0.3
v -1.6 1.7 0.2
v -1.2 1.7 0.2
v -1 1.7 0.2
v -0.6 1.7 0.2
v -0.4 1.7 0.2
v -0.2 1.7 0.2
v 0.2 1.7 0.2
v 0.4 1.7 0.2
v 0.6 1.7 0.2
v 1 1.7 0.2
v 1.2 1.7 0.2
v 1.4 1.7 0.2
v 1.6 1.7 0.2
v -1.4 1.7 0.1
v -1.2 1.7 0.1
v -1.6 1.7 -0.1
v -1.4 1.7 -0.1
v -1.2 1.7 -0.1
v -1 1.7 -0.1
v -0.6 1.7 -0.1
v -0.4 1.7 -0.1
v -0.2 1.7 -0.1
v 0.2 1.7 -0.1
v 0.4 1.7 -0.1
v 0.6 1.7 -0.1
v 1 1.7 -0.1
v 1.2 1.7 -0.1
v 1.4 1.7 -0.1
v 1.6 1.7 -0.1
v -1.2 1.7 -0.2
v -1 1.7 -0.2
v -0.6 1.7 -0.2
v -0.4 1.7 -0.2
v 0.4 1.7 -0.2
v 0.6 1.7 -0.2
v 1 1.7 -0.2
v 1.2 1.7 -0.2
v -1 2.1 0.3
v -0.6 2.1 0.3
v 0.6 2.1 0.3
v 1 2.1 0.3
v -1 2.1 0.2
v -0.6 2.1 0.2
v 0.6 2.1 0.2
v 1 2.1 0.2
v -1 2.1 -0.1
v -0.6 2.1 -0.1
v 0.6 2.1 -0.1
v 1 2.1 -0.1
v -1 2.1 -0.2
v -0.6 2.1 -0.2
v 0.6 2.1 -0.2
v 1 2.1 -0.2
v -1.2 2.5 0.2
v -1.1 2.5 0.2
v -0.5 2.5 0.2
v -0.4 2.5 0.2
v 0.4 2.5 0.2
v 0.5 2.5 0.2
v 1.1 2.5 0.2
v 1.2 2.5 0.2
v -1.2 2.5 -0.1
v -1.1 2.5 -0.1
v -0.5 2.5 -0.1
v -0.4 2.5 -0.1
v 0.4 2.5 -0.1
v 0.5 2.5 -0.1
v 1.1 2.5 -0.1
v 1.2 2.5 -0.1
v -1.1 2.6 0.2
v -1 2.6 0.2
v -0.6 2.6 0.2
v -0.5 2.6 0.2
v 0.5 2.6 0.2
v 0.6 2.6 0.2
v 1 2.6 0.2
v 1.1 2.6 0.2
v -1.1 2.6 -0.1
v -1 2.6 -0.1
v -0.6 2.6 -0.1
v -0.5 2.6 -0.1
v 0.5 2.6 -0.1
v 0.6 2.6 -0.1
v 1 2.6 -0.1
v 1.1 2.6 -0.1
v -1 2.7 0.2
v -0.6 2.7 0.2
v 0.6 2.7 0.2
v 1 2.7 0.2
v -1 2.7 -0.1
v -0.6 2.7 -0.1
v 0.6 2.7 -0.1
v 1 2.7 -0.1

# faces
f 3/5/1 2/5/1 1/5/1
f 4/5/1 2/5/1 3/5/1
f 5/5/1 2/5/1 4/5/1
f 6/5/1 2/5/1 5/5/1
f 8/3/1 5/3/1 4/3/1
f 9/3/1 5/3/1 8/3/1
f 11/5/1 8/5/1 7/5/1
f 11/5/1 10/5/1 9/5/1
f 11/5/1 9/5/1 8/5/1
f 12/5/1 10/5/1 11/5/1
f 17/2/1 14/2/1 13/2/1
f 18/2/1 14/2/1 17/2/1
f 19/2/1 16/2/1 15/2/1
f 20/2/1 16/2/1 19/2/1
f 24/2/1 22/2/1 21/2/1
f 25/2/1 22/2/1 24/2/1
f 27/1/1 24/1/1 23/1/1
f 27/1/1 26/1/1 25/1/1
f 27/1/1 25/1/1 24/1/1
f 28/1/1 26/1/1 27/1/1
f 29/1/1 26/1/1 28/1/1
f 30/1/1 27/1/1 23/1/1
f 31/1/1 30/1/1 23/1/1
f 32/1/1 31/1/1 23/1/1
f 33/1/1 31/1/1 32/1/1
f 35/1/1 26/1/1 29/1/1
f 36/1/1 26/1/1 35/1/1
f 37/4/1 34/4/1 33/4/1
f 37/4/1 35/4/1 34/4/1
f 38/4/1 35/4/1 37/4/1
f 39/3/1 38/3/1 37/3/1
f 40/3/1 38/3/1 39/3/1
f 43/4/1 42/4/1 41/4/1
f 44/4/1 42/4/1 43/4/1
f 49/1/1 46/1/1 45/1/1
f 50/1/1 46/1/1 49/1/1
f 51/1/1 48/1/1 47/1/1
f 52/1/1 48/1/1 51/1/1
f 55/3/1 54/3/1 53/3/1
f 56/3/1 54/3/1 55/3/1
f 61/2/1 58/2/1 57/2/1
f 62/2/1 58/2/1 61/2/1
f 63/2/1 60/2/1 59/2/1
f 64/2/1 60/2/1 63/2/1
f 68/2/1 66/2/1 65/2/1
f 69/2/1 66/2/1 68/2/1
f 71/1/1 68/1/1 67/1/1
f 71/1/1 70/1/1 69/1/1
f 71/1/1 69/1/1 68/1/1
f 72/1/1 70/1/1 71/1/1
f 73/1/1 71/1/1 67/1/1
f 74/1/1 71/1/1 73/1/1
f 75/1/1 70/1/1 72/1/1
f 76/1/1 70/1/1 75/1/1
f 77/4/1 75/4/1 74/4/1
f 78/4/1 75/4/1 77/4/1
f 79/3/1 78/3/1 77/3/1
f 80/3/1 78/3/1 79/3/1
f 83/4/1 82/4/1 81/4/1
f 84/4/1 82/4/1 83/4/1
f 89/1/1 86/1/1 85/1/1
f 90/1/1 86/1/1 89/1/1
f 91/1/1 88/1/1 87/1/1
f 92/1/1 88/1/1 91/1/1
f 95/3/1 94/3/1 93/3/1
f 96/3/1 94/3/1 95/3/1
f 97/1/2 98/1/2 101/1/2
f 101/1/2 98/1/2 102/1/2
f 99/1/2 100/1/2 103/1/2
f 103/1/2 100/1/2 104/1/2
f 105/3/2 106/3/2 107/3/2
f 107/3/2 106/3/2 108/3/2
f 109/4/2 110/4/2 111/4/2
f 111/4/2 110/4/2 112/4/2
f 113/2/2 114/2/2 116/2/2
f 116/2/2 114/2/2 117/2/2
f 115/1/2 116/1/2 119/1/2
f 117/1/2 118/1/2 119/1/2
f 116/1/2 117/1/2 119/1/2
f 119/1/2 118/1/2 120/1/2
f 115/1/2 119/1/2 121/1/2
f 121/1/2 119/1/2 122/1/2
f 120/1/2 118/1/2 123/1/2
f 123/1/2 118/1/2 124/1/2
f 122/4/2 123/4/2 125/4/2
f 125/4/2 123/4/2 126/4/2
f 125/3/2 126/3/2 127/3/2
f 127/3/2 126/3/2 128/3/2
f 129/2/2 130/2/2 133/2/2
f 133/2/2 130/2/2 134/2/2
f 131/2/2 132/2/2 135/2/2
f 135/2/2 132/2/2 136/2/2
f 137/1/2 138/1/2 141/1/2
f 141/1/2 138/1/2 142/1/2
f 139/1/2 140/1/2 143/1/2
f 143/1/2 140/1/2 144/1/2
f 145/3/2 146/3/2 147/3/2
f 147/3/2 146/3/2 148/3/2
f 149/4/2 150/4/2 151/4/2
f 151/4/2 150/4/2 152/4/2
f 153/2/2 154/2/2 156/2/2
f 156/2/2 154/2/2 157/2/2
f 155/1/2 156/1/2 159/1/2
f 157/1/2 158/1/2 159/1/2
f 156/1/2 157/1/2 159/1/2
f 159/1/2 158/1/2 160/1/2
f 155/1/2 159/1/2 161/1/2
f 161/1/2 159/1/2 162/1/2
f 160/1/2 158/1/2 163/1/2
f 163/1/2 158/1/2 164/1/2
f 162/4/2 163/4/2 165/4/2
f 165/4/2 163/4/2 166/4/2
f 165/3/2 166/3/2 167/3/2
f 167/3/2 166/3/2 168/3/2
f 169/2/2 170/2/2 173/2/2
f 173/2/2 170/2/2 174/2/2
f 171/2/2 172/2/2 175/2/2
f 175/2/2 172/2/2 176/2/2
f 177/5/2 178/5/2 179/5/2
f 179/5/2 178/5/2 180/5/2
f 180/5/2 178/5/2 181/5/2
f 181/5/2 178/5/2 182/5/2
f 180/3/2 181/3/2 184/3/2
f 184/3/2 181/3/2 185/3/2
f 183/5/2 184/5/2 187/5/2
f 185/5/2 186/5/2 187/5/2
f 184/5/2 185/5/2 187/5/2
f 187/5/2 186/5/2 188/5/2
f 191/1/3 190/1/3 189/1/3
f 193/1/3 191/1/3 189/1/3
f 193/1/3 192/1/3 191/1/3
f 194/1/3 192/1/3 193/1/3
f 195/1/3 193/1/3 189/1/3
f 196/1/3 193/1/3 195/1/3
f 199/1/3 198/1/3 197/1/3
f 201/1/3 199/1/3 197/1/3
f 201/1/3 200/1/3 199/1/3
f 202/1/3 200/1/3 201/1/3
f 203/1/3 201/1/3 197/1/3
f 204/1/3 201/1/3 203/1/3
f 209/5/3 206/5/3 205/5/3
f 210/5/3 208/5/3 207/5/3
f 213/5/3 209/5/3 205/5/3
f 214/2/3 210/2/3 209/2/3
f 214/5/3 209/5/3 213/5/3
f 215/5/3 208/5/3 210/5/3
f 215/2/3 210/2/3 214/2/3
f 216/5/3 208/5/3 215/5/3
f 219/3/3 218/3/3 217/3/3
f 221/4/3 217/4/3 216/4/3
f 222/3/3 219/3/3 217/3/3
f 222/4/3 217/4/3 221/4/3
f 223/4/3 220/4/3 219/4/3
f 223/3/3 219/3/3 222/3/3
f 224/4/3 220/4/3 223/4/3
f 227/3/3 225/3/3 224/3/3
f 227/3/3 224/3/3 223/3/3
f 227/3/3 223/3/3 222/3/3
f 228/3/3 225/3/3 227/3/3
f 229/3/3 225/3/3 228/3/3
f 230/3/3 225/3/3 229/3/3
f 231/3/3 228/3/3 227/3/3
f 231/4/3 229/4/3 228/4/3
f 232/4/3 229/4/3 231/4/3
f 233/2/3 212/2/3 211/2/3
f 234/2/3 212/2/3 233/2/3
f 236/4/3 227/4/3 226/4/3
f 237/3/3 231/3/3 227/3/3
f 237/4/3 227/4/3 236/4/3
f 238/3/3 231/3/3 237/3/3
f 239/2/3 236/2/3 235/2/3
f 240/2/3 236/2/3 239/2/3
f 241/2/3 236/2/3 240/2/3
f 242/2/3 236/2/3 241/2/3
f 243/5/3 240/5/3 239/5/3
f 244/5/3 240/5/3 243/5/3
f 245/5/3 242/5/3 241/5/3
f 246/5/3 242/5/3 245/5/3
f 249/2/3 244/2/3 243/2/3
f 249/2/3 245/2/3 244/2/3
f 249/2/3 246/2/3 245/2/3
f 250/2/3 246/2/3 249/2/3
f 253/3/3 252/3/3 251/3/3
f 255/4/3 251/4/3 250/4/3
f 256/3/3 253/3/3 251/3/3
f 256/4/3 251/4/3 255/4/3
f 257/4/3 254/4/3 253/4/3
f 257/3/3 253/3/3 256/3/3
f 258/4/3 254/4/3 257/4/3
f 261/3/3 258/3/3 257/3/3
f 261/3/3 257/3/3 256/3/3
f 261/3/3 259/3/3 258/3/3
f 262/3/3 259/3/3 261/3/3
f 263/3/3 259/3/3 262/3/3
f 264/3/3 259/3/3 263/3/3
f 265/3/3 262/3/3 261/3/3
f 265/4/3 263/4/3 262/4/3
f 266/4/3 263/4/3 265/4/3
f 267/2/3 248/2/3 247/2/3
f 268/2/3 248/2/3 267/2/3
f 270/4/3 261/4/3 260/4/3
f 271/3/3 265/3/3 261/3/3
f 271/4/3 261/4/3 270/4/3
f 272/3/3 265/3/3 271/3/3
f 273/2/3 270/2/3 269/2/3
f 274/2/3 270/2/3 273/2/3
f 275/2/3 270/2/3 274/2/3
f 276/2/3 270/2/3 275/2/3
f 277/5/3 274/5/3 273/5/3
f 278/5/3 274/5/3 277/5/3
f 279/5/3 276/5/3 275/5/3
f 280/5/3 276/5/3 279/5/3
f 283/3/3 282/3/3 281/3/3
f 284/3/3 282/3/3 283/3/3
f 287/3/3 286/3/3 285/3/3
f 288/3/3 286/3/3 287/3/3
f 291/3/3 290/3/3 289/3/3
f 292/3/3 290/3/3 291/3/3
f 293/3/4 294/3/4 295/3/4
f 295/3/4 294/3/4 296/3/4
f 297/3/4 298/3/4 299/3/4
f 299/3/4 298/3/4 300/3/4
f 301/3/4 302/3/4 303/3/4
f 303/3/4 302/3/4 304/3/4
f 305/5/4 306/5/4 309/5/4
f 309/5/4 306/5/4 310/5/4
f 307/5/4 308/5/4 311/5/4
f 311/5/4 308/5/4 312/5/4
f 309/2/4 310/2/4 315/2/4
f 310/2/4 311/2/4 315/2/4
f 311/2/4 312/2/4 315/2/4
f 315/2/4 312/2/4 316/2/4
f 317/3/4 318/3/4 319/3/4
f 316/4/4 317/4/4 321/4/4
f 317/3/4 319/3/4 322/3/4
f 321/4/4 317/4/4 322/4/4
f 319/4/4 320/4/4 323/4/4
f 322/3/4 319/3/4 323/3/4
f 323/4/4 320/4/4 324/4/4
f 324/3/4 325/3/4 327/3/4
f 323/3/4 324/3/4 327/3/4
f 322/3/4 323/3/4 327/3/4
f 327/3/4 325/3/4 328/3/4
f 328/3/4 325/3/4 329/3/4
f 329/3/4 325/3/4 330/3/4
f 327/3/4 328/3/4 331/3/4
f 328/4/4 329/4/4 331/4/4
f 331/4/4 329/4/4 332/4/4
f 313/2/4 314/2/4 333/2/4
f 333/2/4 314/2/4 334/2/4
f 326/4/4 327/4/4 336/4/4
f 327/3/4 331/3/4 337/3/4
f 336/4/4 327/4/4 337/4/4
f 337/3/4 331/3/4 338/3/4
f 335/2/4 336/2/4 339/2/4
f 339/2/4 336/2/4 340/2/4
f 340/2/4 336/2/4 341/2/4
f 341/2/4 336/2/4 342/2/4
f 339/5/4 340/5/4 343/5/4
f 343/5/4 340/5/4 344/5/4
f 341/5/4 342/5/4 345/5/4
f 345/5/4 342/5/4 346/5/4
f 343/2/4 344/2/4 349/2/4
f 344/2/4 345/2/4 349/2/4
f 345/2/4 346/2/4 349/2/4
f 349/2/4 346/2/4 350/2/4
f 351/3/4 352/3/4 353/3/4
f 350/4/4 351/4/4 355/4/4
f 351/3/4 353/3/4 356/3/4
f 355/4/4 351/4/4 356/4/4
f 353/4/4 354/4/4 357/4/4
f 356/3/4 353/3/4 357/3/4
f 357/4/4 354/4/4 358/4/4
f 357/3/4 358/3/4 361/3/4
f 356/3/4 357/3/4 361/3/4
f 358/3/4 359/3/4 361/3/4
f 361/3/4 359/3/4 362/3/4
f 362/3/4 359/3/4 363/3/4
f 363/3/4 359/3/4 364/3/4
f 361/3/4 362/3/4 365/3/4
f 362/4/4 363/4/4 365/4/4
f 365/4/4 363/4/4 366/4/4
f 347/2/4 348/2/4 367/2/4
f 367/2/4 348/2/4 368/2/4
f 360/4/4 361/4/4 370/4/4
f 361/3/4 365/3/4 371/3/4
f 370/4/4 361/4/4 371/4/4
f 371/3/4 365/3/4 372/3/4
f 369/2/4 370/2/4 373/2/4
f 373/2/4 370/2/4 374/2/4
f 374/2/4 370/2/4 375/2/4
f 375/2/4 370/2/4 376/2/4
f 373/5/4 374/5/4 377/5/4
f 377/5/4 374/5/4 378/5/4
f 375/5/4 376/5/4 379/5/4
f 379/5/4 376/5/4 380/5/4
f 381/1/4 382/1/4 383/1/4
f 381/1/4 383/1/4 385/1/4
f 383/1/4 384/1/4 385/1/4
f 385/1/4 384/1/4 386/1/4
f 381/1/4 385/1/4 387/1/4
f 387/1/4 385/1/4 388/1/4
f 389/1/4 390/1/4 391/1/4
f 389/1/4 391/1/4 393/1/4
f 391/1/4 392/1/4 393/1/4
f 393/1/4 392/1/4 394/1/4
f 389/1/4 393/1/4 395/1/4
f 395/1/4 393/1/4 396/1/4
f 401/2/5 398/2/5 397/2/5
f 402/2/5 398/2/5 401/2/5
f 403/2/5 400/2/5 399/2/5
f 404/2/5 400/2/5 403/2/5
f 409/1/5 406/1/5 405/1/5
f 410/1/5 406/1/5 409/1/5
f 411/1/5 408/1/5 407/1/5
f 412/1/5 408/1/5 411/1/5
f 417/1/5 414/1/5 413/1/5
f 418/1/5 414/1/5 417/1/5
f 419/1/5 416/1/5 415/1/5
f 420/1/5 416/1/5 419/1/5
f 430/5/5 422/5/5 421/5/5
f 431/5/5 422/5/5 430/5/5
f 432/5/5 425/5/5 424/5/5
f 432/2/5 426/2/5 425/2/5
f 433/2/5 426/2/5 432/2/5
f 434/5/5 432/5/5 424/5/5
f 434/5/5 433/5/5 432/5/5
f 435/2/5 426/2/5 433/2/5
f 435/5/5 433/5/5 434/5/5
f 436/5/5 430/5/5 421/5/5
f 437/2/5 431/2/5 430/2/5
f 437/5/5 430/5/5 436/5/5
f 438/2/5 431/2/5 437/2/5
f 439/2/5 424/2/5 423/2/5
f 440/5/5 434/5/5 424/5/5
f 440/2/5 424/2/5 439/2/5
f 441/2/5 435/2/5 434/2/5
f 441/5/5 434/5/5 440/5/5
f 442/2/5 426/2/5 435/2/5
f 442/2/5 435/2/5 441/2/5
f 443/2/5 428/2/5 427/2/5
f 444/5/5 429/5/5 428/5/5
f 444/2/5 428/2/5 443/2/5
f 445/5/5 429/5/5 444/5/5
f 452/5/5 447/5/5 446/5/5
f 453/5/5 447/5/5 452/5/5
f 454/5/5 449/5/5 448/5/5
f 455/5/5 449/5/5 454/5/5
f 456/5/5 451/5/5 450/5/5
f 457/5/5 451/5/5 456/5/5
f 464/5/5 459/5/5 458/5/5
f 465/5/5 459/5/5 464/5/5
f 466/5/5 461/5/5 460/5/5
f 467/5/5 461/5/5 466/5/5
f 468/5/5 463/5/5 462/5/5
f 469/5/5 463/5/5 468/5/5
f 470/5/6 471/5/6 476/5/6
f 476/5/6 471/5/6 477/5/6
f 472/5/6 473/5/6 478/5/6
f 478/5/6 473/5/6 479/5/6
f 474/5/6 475/5/6 480/5/6
f 480/5/6 475/5/6 481/5/6
f 482/5/6 483/5/6 488/5/6
f 488/5/6 483/5/6 489/5/6
f 484/5/6 485/5/6 490/5/6
f 490/5/6 485/5/6 491/5/6
f 486/5/6 487/5/6 492/5/6
f 492/5/6 487/5/6 493/5/6
f 494/1/6 495/1/6 503/1/6
f 503/1/6 495/1/6 504/1/6
f 496/1/6 497/1/6 505/1/6
f 505/1/6 497/1/6 506/1/6
f 498/1/6 499/1/6 509/1/6
f 509/1/6 499/1/6 510/1/6
f 500/1/6 501/1/6 511/1/6
f 511/1/6 501/1/6 512/1/6
f 502/5/6 503/5/6 515/5/6
f 515/5/6 503/5/6 516/5/6
f 502/5/6 515/5/6 517/5/6
f 515/2/6 516/2/6 518/2/6
f 517/5/6 515/5/6 518/5/6
f 518/2/6 516/2/6 519/2/6
f 506/2/6 507/2/6 522/2/6
f 507/5/6 508/5/6 523/5/6
f 522/2/6 507/2/6 523/2/6
f 508/2/6 509/2/6 524/2/6
f 523/5/6 508/5/6 524/5/6
f 524/2/6 509/2/6 525/2/6
f 512/2/6 513/2/6 528/2/6
f 513/5/6 514/5/6 529/5/6
f 528/2/6 513/2/6 529/2/6
f 529/5/6 514/5/6 530/5/6
f 519/1/6 520/1/6 531/1/6
f 531/1/6 520/1/6 532/1/6
f 521/1/6 522/1/6 533/1/6
f 533/1/6 522/1/6 534/1/6
f 525/1/6 526/1/6 535/1/6
f 535/1/6 526/1/6 536/1/6
f 527/1/6 528/1/6 537/1/6
f 537/1/6 528/1/6 538/1/6
f 539/1/6 540/1/6 543/1/6
f 543/1/6 540/1/6 544/1/6
f 541/1/6 542/1/6 545/1/6
f 545/1/6 542/1/6 546/1/6
f 547/1/6 548/1/6 551/1/6
f 551/1/6 548/1/6 552/1/6
f 549/1/6 550/1/6 553/1/6
f 553/1/6 550/1/6 554/1/6
f 555/3/6 556/3/6 563/3/6
f 563/3/6 556/3/6 564/3/6
f 557/3/6 558/3/6 565/3/6
f 565/3/6 558/3/6 566/3/6
f 559/3/6 560/3/6 567/3/6
f 567/3/6 560/3/6 568/3/6
f 561/3/6 562/3/6 569/3/6
f 569/3/6 562/3/6 570/3/6
f 571/4/6 572/4/6 579/4/6
f 579/4/6 572/4/6 580/4/6
f 573/4/6 574/4/6 581/4/6
f 581/4/6 574/4/6 582/4/6
f 575/4/6 576/4/6 583/4/6
f 583/4/6 576/4/6 584/4/6
f 577/4/6 578/4/6 585/4/6
f 585/4/6 578/4/6 586/4/6
f 587/3/6 588/3/6 591/3/6
f 591/3/6 588/3/6 592/3/6
f 589/3/6 590/3/6 593/3/6
f 593/3/6 590/3/6 594/3/6
