# MagicaVoxel @ Ephtracy

# group
o fence

# material
mtllib fence_straight-0-fence.mtl
usemtl palette

# normals
vn -1 0 0
vn 1 0 0
vn 0 0 1
vn 0 0 -1
vn 0 -1 0
vn 0 1 0

# texcoords
vt 0.337891 0.5
vt 0.505859 0.5
vt 0.958984 0.5
vt 0.962891 0.5
vt 0.966797 0.5
vt 0.978516 0.5

# verts
v -1.6 0.9 0.3
v -1.6 0.9 -0.2
v -1.6 1.1 0.3
v -1.6 1.1 -0.2
v -1.6 1.3 0.3
v -1.6 1.3 0.2
v -1.6 1.3 -0.1
v -1.6 1.3 -0.2
v -1.6 1.5 0.3
v -1.6 1.5 0.2
v -1.6 1.5 -0.1
v -1.6 1.5 -0.2
v -1.6 1.7 0.3
v -1.6 1.7 -0.2
v -1.4 0 0.3
v -1.4 0 -0.2
v -1.4 0.9 0.3
v -1.4 0.9 -0.2
v -1.4 1.3 0.3
v -1.4 1.3 0.2
v -1.4 1.3 -0.1
v -1.4 1.3 -0.2
v -1.4 1.5 0.3
v -1.4 1.5 0.2
v -1.4 1.5 -0.1
v -1.4 1.5 -0.2
v -1.4 1.7 0.3
v -1.4 1.7 -0.2
v -1.4 2.7 0.3
v -1.4 2.7 -0.2
v -1.2 0.2 0.4
v -1.2 0.2 0.3
v -1.2 0.2 -0.2
v -1.2 0.2 -0.3
v -1.2 1.7 0.4
v -1.2 1.7 0.3
v -1.2 1.7 -0.2
v -1.2 1.7 -0.3
v -1.2 2.7 0.3
v -1.2 2.7 -0.2
v -1.2 2.9 0.3
v -1.2 2.9 -0.2
v -1 1.7 0.4
v -1 1.7 0.2
v -1 1.7 -0.1
v -1 1.7 -0.3
v -1 2.1 0.4
v -1 2.1 0.2
v -1 2.1 -0.1
v -1 2.1 -0.3
v -0.6 2.5 0.3
v -0.6 2.5 0.2
v -0.6 2.5 -0.1
v -0.6 2.5 -0.2
v -0.6 2.7 0.3
v -0.6 2.7 0.2
v -0.6 2.7 -0.1
v -0.6 2.7 -0.2
v -0.4 1.7 0.3
v -0.4 1.7 0.2
v -0.4 1.7 -0.1
v -0.4 1.7 -0.2
v -0.4 2.1 0.2
v -0.4 2.1 -0.1
v -0.4 2.5 0.3
v -0.4 2.5 0.2
v -0.4 2.5 -0.1
v -0.4 2.5 -0.2
v 0.2 0 0.3
v 0.2 0 -0.2
v 0.2 0.9 0.3
v 0.2 0.9 -0.2
v 0.2 1.3 0.3
v 0.2 1.3 0.2
v 0.2 1.3 -0.1
v 0.2 1.3 -0.2
v 0.2 1.5 0.3
v 0.2 1.5 0.2
v 0.2 1.5 -0.1
v 0.2 1.5 -0.2
v 0.2 1.7 0.3
v 0.2 1.7 -0.2
v 0.2 2.7 0.3
v 0.2 2.7 -0.2
v 0.4 0.2 0.4
v 0.4 0.2 0.3
v 0.4 0.2 -0.2
v 0.4 0.2 -0.3
v 0.4 1.7 0.4
v 0.4 1.7 0.3
v 0.4 1.7 -0.2
v 0.4 1.7 -0.3
v 0.4 2.7 0.3
v 0.4 2.7 -0.2
v 0.4 2.9 0.3
v 0.4 2.9 -0.2
v 0.6 1.7 0.4
v 0.6 1.7 0.2
v 0.6 1.7 -0.1
v 0.6 1.7 -0.3
v 0.6 2.1 0.4
v 0.6 2.1 0.2
v 0.6 2.1 -0.1
v 0.6 2.1 -0.3
v 1 2.5 0.3
v 1 2.5 0.2
v 1 2.5 -0.1
v 1 2.5 -0.2
v 1 2.7 0.3
v 1 2.7 0.2
v 1 2.7 -0.1
v 1 2.7 -0.2
v 1.2 1.7 0.3
v 1.2 1.7 0.2
v 1.2 1.7 -0.1
v 1.2 1.7 -0.2
v 1.2 2.1 0.2
v 1.2 2.1 -0.1
v 1.2 2.5 0.3
v 1.2 2.5 0.2
v 1.2 2.5 -0.1
v 1.2 2.5 -0.2
v -1.2 1.7 0.3
v -1.2 1.7 0.2
v -1.2 1.7 -0.1
v -1.2 1.7 -0.2
v -1.2 2.1 0.2
v -1.2 2.1 -0.1
v -1.2 2.5 0.3
v -1.2 2.5 0.2
v -1.2 2.5 -0.1
v -1.2 2.5 -0.2
v -1 2.5 0.3
v -1 2.5 0.2
v -1 2.5 -0.1
v -1 2.5 -0.2
v -1 2.7 0.3
v -1 2.7 0.2
v -1 2.7 -0.1
v -1 2.7 -0.2
v -0.6 1.7 0.4
v -0.6 1.7 0.2
v -0.6 1.7 -0.1
v -0.6 1.7 -0.3
v -0.6 2.1 0.4
v -0.6 2.1 0.2
v -0.6 2.1 -0.1
v -0.6 2.1 -0.3
v -0.4 0.2 0.4
v -0.4 0.2 0.3
v -0.4 0.2 -0.2
v -0.4 0.2 -0.3
v -0.4 1.7 0.4
v -0.4 1.7 0.3
v -0.4 1.7 -0.2
v -0.4 1.7 -0.3
v -0.4 2.7 0.3
v -0.4 2.7 -0.2
v -0.4 2.9 0.3
v -0.4 2.9 -0.2
v -0.2 0 0.3
v -0.2 0 -0.2
v -0.2 0.9 0.3
v -0.2 0.9 -0.2
v -0.2 1.3 0.3
v -0.2 1.3 0.2
v -0.2 1.3 -0.1
v -0.2 1.3 -0.2
v -0.2 1.5 0.3
v -0.2 1.5 0.2
v -0.2 1.5 -0.1
v -0.2 1.5 -0.2
v -0.2 1.7 0.3
v -0.2 1.7 -0.2
v -0.2 2.7 0.3
v -0.2 2.7 -0.2
v 0.4 1.7 0.3
v 0.4 1.7 0.2
v 0.4 1.7 -0.1
v 0.4 1.7 -0.2
v 0.4 2.1 0.2
v 0.4 2.1 -0.1
v 0.4 2.5 0.3
v 0.4 2.5 0.2
v 0.4 2.5 -0.1
v 0.4 2.5 -0.2
v 0.6 2.5 0.3
v 0.6 2.5 0.2
v 0.6 2.5 -0.1
v 0.6 2.5 -0.2
v 0.6 2.7 0.3
v 0.6 2.7 0.2
v 0.6 2.7 -0.1
v 0.6 2.7 -0.2
v 1 1.7 0.4
v 1 1.7 0.2
v 1 1.7 -0.1
v 1 1.7 -0.3
v 1 2.1 0.4
v 1 2.1 0.2
v 1 2.1 -0.1
v 1 2.1 -0.3
v 1.2 0.2 0.4
v 1.2 0.2 0.3
v 1.2 0.2 -0.2
v 1.2 0.2 -0.3
v 1.2 1.7 0.4
v 1.2 1.7 0.3
v 1.2 1.7 -0.2
v 1.2 1.7 -0.3
v 1.2 2.7 0.3
v 1.2 2.7 -0.2
v 1.2 2.9 0.3
v 1.2 2.9 -0.2
v 1.4 0 0.3
v 1.4 0 -0.2
v 1.4 0.9 0.3
v 1.4 0.9 -0.2
v 1.4 1.3 0.3
v 1.4 1.3 0.2
v 1.4 1.3 -0.1
v 1.4 1.3 -0.2
v 1.4 1.5 0.3
v 1.4 1.5 0.2
v 1.4 1.5 -0.1
v 1.4 1.5 -0.2
v 1.4 1.7 0.3
v 1.4 1.7 -0.2
v 1.4 2.7 0.3
v 1.4 2.7 -0.2
v 1.6 0.9 0.3
v 1.6 0.9 -0.2
v 1.6 1.1 0.3
v 1.6 1.1 -0.2
v 1.6 1.3 0.3
v 1.6 1.3 0.2
v 1.6 1.3 -0.1
v 1.6 1.3 -0.2
v 1.6 1.5 0.3
v 1.6 1.5 0.2
v 1.6 1.5 -0.1
v 1.6 1.5 -0.2
v 1.6 1.7 0.3
v 1.6 1.7 -0.2
v -1.2 0.2 0.4
v -1.2 1.7 0.4
v -1 1.7 0.4
v -1 2.1 0.4
v -0.6 1.7 0.4
v -0.6 2.1 0.4
v -0.4 0.2 0.4
v -0.4 1.7 0.4
v 0.4 0.2 0.4
v 0.4 1.7 0.4
v 0.6 1.7 0.4
v 0.6 2.1 0.4
v 1 1.7 0.4
v 1 2.1 0.4
v 1.2 0.2 0.4
v 1.2 1.7 0.4
v -1.6 0.9 0.3
v -1.6 1.1 0.3
v -1.6 1.3 0.3
v -1.6 1.5 0.3
v -1.6 1.7 0.3
v -1.4 0 0.3
v -1.4 0.9 0.3
v -1.4 1.1 0.3
v -1.4 1.3 0.3
v -1.4 1.5 0.3
v -1.4 1.7 0.3
v -1.4 2.7 0.3
v -1.2 0.2 0.3
v -1.2 1.7 0.3
v -1.2 2.5 0.3
v -1.2 2.7 0.3
v -1.2 2.9 0.3
v -1 2.5 0.3
v -1 2.7 0.3
v -0.6 2.5 0.3
v -0.6 2.7 0.3
v -0.4 0.2 0.3
v -0.4 1.7 0.3
v -0.4 2.5 0.3
v -0.4 2.7 0.3
v -0.4 2.9 0.3
v -0.2 0 0.3
v -0.2 0.9 0.3
v -0.2 1.1 0.3
v -0.2 1.3 0.3
v -0.2 1.5 0.3
v -0.2 1.7 0.3
v -0.2 2.7 0.3
v 0.2 0 0.3
v 0.2 0.9 0.3
v 0.2 1.1 0.3
v 0.2 1.3 0.3
v 0.2 1.5 0.3
v 0.2 1.7 0.3
v 0.2 2.7 0.3
v 0.4 0.2 0.3
v 0.4 1.7 0.3
v 0.4 2.5 0.3
v 0.4 2.7 0.3
v 0.4 2.9 0.3
v 0.6 2.5 0.3
v 0.6 2.7 0.3
v 1 2.5 0.3
v 1 2.7 0.3
v 1.2 0.2 0.3
v 1.2 1.7 0.3
v 1.2 2.5 0.3
v 1.2 2.7 0.3
v 1.2 2.9 0.3
v 1.4 0 0.3
v 1.4 0.9 0.3
v 1.4 1.1 0.3
v 1.4 1.3 0.3
v 1.4 1.5 0.3
v 1.4 1.7 0.3
v 1.4 2.7 0.3
v 1.6 0.9 0.3
v 1.6 1.1 0.3
v 1.6 1.3 0.3
v 1.6 1.5 0.3
v 1.6 1.7 0.3
v -1.6 1.3 0.2
v -1.6 1.5 0.2
v -1.4 1.3 0.2
v -1.4 1.5 0.2
v -1.2 1.7 0.2
v -1.2 2.1 0.2
v -1.2 2.5 0.2
v -1 1.7 0.2
v -1 2.1 0.2
v -1 2.5 0.2
v -1 2.7 0.2
v -0.6 1.7 0.2
v -0.6 2.1 0.2
v -0.6 2.5 0.2
v -0.6 2.7 0.2
v -0.4 1.7 0.2
v -0.4 2.1 0.2
v -0.4 2.5 0.2
v -0.2 1.3 0.2
v -0.2 1.5 0.2
v 0.2 1.3 0.2
v 0.2 1.5 0.2
v 0.4 1.7 0.2
v 0.4 2.1 0.2
v 0.4 2.5 0.2
v 0.6 1.7 0.2
v 0.6 2.1 0.2
v 0.6 2.5 0.2
v 0.6 2.7 0.2
v 1 1.7 0.2
v 1 2.1 0.2
v 1 2.5 0.2
v 1 2.7 0.2
v 1.2 1.7 0.2
v 1.2 2.1 0.2
v 1.2 2.5 0.2
v 1.4 1.3 0.2
v 1.4 1.5 0.2
v 1.6 1.3 0.2
v 1.6 1.5 0.2
v -1.6 1.3 -0.1
v -1.6 1.5 -0.1
v -1.4 1.3 -0.1
v -1.4 1.5 -0.1
v -1.2 1.7 -0.1
v -1.2 2.1 -0.1
v -1.2 2.5 -0.1
v -1 1.7 -0.1
v -1 2.1 -0.1
v -1 2.5 -0.1
v -1 2.7 -0.1
v -0.6 1.7 -0.1
v -0.6 2.1 -0.1
v -0.6 2.5 -0.1
v -0.6 2.7 -0.1
v -0.4 1.7 -0.1
v -0.4 2.1 -0.1
v -0.4 2.5 -0.1
v -0.2 1.3 -0.1
v -0.2 1.5 -0.1
v 0.2 1.3 -0.1
v 0.2 1.5 -0.1
v 0.4 1.7 -0.1
v 0.4 2.1 -0.1
v 0.4 2.5 -0.1
v 0.6 1.7 -0.1
v 0.6 2.1 -0.1
v 0.6 2.5 -0.1
v 0.6 2.7 -0.1
v 1 1.7 -0.1
v 1 2.1 -0.1
v 1 2.5 -0.1
v 1 2.7 -0.1
v 1.2 1.7 -0.1
v 1.2 2.1 -0.1
v 1.2 2.5 -0.1
v 1.4 1.3 -0.1
v 1.4 1.5 -0.1
v 1.6 1.3 -0.1
v 1.6 1.5 -0.1
v -1.6 0.9 -0.2
v -1.6 1.1 -0.2
v -1.6 1.3 -0.2
v -1.6 1.5 -0.2
v -1.6 1.7 -0.2
v -1.4 0 -0.2
v -1.4 0.9 -0.2
v -1.4 1.1 -0.2
v -1.4 1.3 -0.2
v -1.4 1.5 -0.2
v -1.4 1.7 -0.2
v -1.4 2.7 -0.2
v -1.2 0.2 -0.2
v -1.2 1.7 -0.2
v -1.2 2.5 -0.2
v -1.2 2.7 -0.2
v -1.2 2.9 -0.2
v -1 2.5 -0.2
v -1 2.7 -0.2
v -0.6 2.5 -0.2
v -0.6 2.7 -0.2
v -0.4 0.2 -0.2
v -0.4 1.7 -0.2
v -0.4 2.5 -0.2
v -0.4 2.7 -0.2
v -0.4 2.9 -0.2
v -0.2 0 -0.2
v -0.2 0.9 -0.2
v -0.2 1.1 -0.2
v -0.2 1.3 -0.2
v -0.2 1.5 -0.2
v -0.2 1.7 -0.2
v -0.2 2.7 -0.2
v 0.2 0 -0.2
v 0.2 0.9 -0.2
v 0.2 1.1 -0.2
v 0.2 1.3 -0.2
v 0.2 1.5 -0.2
v 0.2 1.7 -0.2
v 0.2 2.7 -0.2
v 0.4 0.2 -0.2
v 0.4 1.7 -0.2
v 0.4 2.5 -0.2
v 0.4 2.7 -0.2
v 0.4 2.9 -0.2
v 0.6 2.5 -0.2
v 0.6 2.7 -0.2
v 1 2.5 -0.2
v 1 2.7 -0.2
v 1.2 0.2 -0.2
v 1.2 1.7 -0.2
v 1.2 2.5 -0.2
v 1.2 2.7 -0.2
v 1.2 2.9 -0.2
v 1.4 0 -0.2
v 1.4 0.9 -0.2
v 1.4 1.1 -0.2
v 1.4 1.3 -0.2
v 1.4 1.5 -0.2
v 1.4 1.7 -0.2
v 1.4 2.7 -0.2
v 1.6 0.9 -0.2
v 1.6 1.1 -0.2
v 1.6 1.3 -0.2
v 1.6 1.5 -0.2
v 1.6 1.7 -0.2
v -1.2 0.2 -0.3
v -1.2 1.7 -0.3
v -1 1.7 -0.3
v -1 2.1 -0.3
v -0.6 1.7 -0.3
v -0.6 2.1 -0.3
v -0.4 0.2 -0.3
v -0.4 1.7 -0.3
v 0.4 0.2 -0.3
v 0.4 1.7 -0.3
v 0.6 1.7 -0.3
v 0.6 2.1 -0.3
v 1 1.7 -0.3
v 1 2.1 -0.3
v 1.2 0.2 -0.3
v 1.2 1.7 -0.3
v -1.4 0 0.3
v -0.2 0 0.3
v 0.2 0 0.3
v 1.4 0 0.3
v -1.4 0 -0.2
v -0.2 0 -0.2
v 0.2 0 -0.2
v 1.4 0 -0.2
v -1.2 0.2 0.4
v -0.4 0.2 0.4
v 0.4 0.2 0.4
v 1.2 0.2 0.4
v -1.2 0.2 0.3
v -0.4 0.2 0.3
v 0.4 0.2 0.3
v 1.2 0.2 0.3
v -1.2 0.2 -0.2
v -0.4 0.2 -0.2
v 0.4 0.2 -0.2
v 1.2 0.2 -0.2
v -1.2 0.2 -0.3
v -0.4 0.2 -0.3
v 0.4 0.2 -0.3
v 1.2 0.2 -0.3
v -1.6 0.9 0.3
v -1.4 0.9 0.3
v -0.2 0.9 0.3
v 0.2 0.9 0.3
v 1.4 0.9 0.3
v 1.6 0.9 0.3
v -1.6 0.9 -0.2
v -1.4 0.9 -0.2
v -0.2 0.9 -0.2
v 0.2 0.9 -0.2
v 1.4 0.9 -0.2
v 1.6 0.9 -0.2
v -1.6 1.5 0.3
v -1.4 1.5 0.3
v -0.2 1.5 0.3
v 0.2 1.5 0.3
v 1.4 1.5 0.3
v 1.6 1.5 0.3
v -1.6 1.5 0.2
v -1.4 1.5 0.2
v -0.2 1.5 0.2
v 0.2 1.5 0.2
v 1.4 1.5 0.2
v 1.6 1.5 0.2
v -1.6 1.5 -0.1
v -1.4 1.5 -0.1
v -0.2 1.5 -0.1
v 0.2 1.5 -0.1
v 1.4 1.5 -0.1
v 1.6 1.5 -0.1
v -1.6 1.5 -0.2
v -1.4 1.5 -0.2
v -0.2 1.5 -0.2
v 0.2 1.5 -0.2
v 1.4 1.5 -0.2
v 1.6 1.5 -0.2
v -1.2 2.5 0.3
v -1 2.5 0.3
v -0.6 2.5 0.3
v -0.4 2.5 0.3
v 0.4 2.5 0.3
v 0.6 2.5 0.3
v 1 2.5 0.3
v 1.2 2.5 0.3
v -1.2 2.5 0.2
v -1 2.5 0.2
v -0.6 2.5 0.2
v -0.4 2.5 0.2
v 0.4 2.5 0.2
v 0.6 2.5 0.2
v 1 2.5 0.2
v 1.2 2.5 0.2
v -1.2 2.5 -0.1
v -1 2.5 -0.1
v -0.6 2.5 -0.1
v -0.4 2.5 -0.1
v 0.4 2.5 -0.1
v 0.6 2.5 -0.1
v 1 2.5 -0.1
v 1.2 2.5 -0.1
v -1.2 2.5 -0.2
v -1 2.5 -0.2
v -0.6 2.5 -0.2
v -0.4 2.5 -0.2
v 0.4 2.5 -0.2
v 0.6 2.5 -0.2
v 1 2.5 -0.2
v 1.2 2.5 -0.2
v -1 2.7 0.3
v -0.6 2.7 0.3
v 0.6 2.7 0.3
v 1 2.7 0.3
v -1 2.7 0.2
v -0.6 2.7 0.2
v 0.6 2.7 0.2
v 1 2.7 0.2
v -1 2.7 -0.1
v -0.6 2.7 -0.1
v 0.6 2.7 -0.1
v 1 2.7 -0.1
v -1 2.7 -0.2
v -0.6 2.7 -0.2
v 0.6 2.7 -0.2
v 1 2.7 -0.2
v -1.6 1.3 0.3
v -1.4 1.3 0.3
v -0.2 1.3 0.3
v 0.2 1.3 0.3
v 1.4 1.3 0.3
v 1.6 1.3 0.3
v -1.6 1.3 0.2
v -1.4 1.3 0.2
v -0.2 1.3 0.2
v 0.2 1.3 0.2
v 1.4 1.3 0.2
v 1.6 1.3 0.2
v -1.6 1.3 -0.1
v -1.4 1.3 -0.1
v -0.2 1.3 -0.1
v 0.2 1.3 -0.1
v 1.4 1.3 -0.1
v 1.6 1.3 -0.1
v -1.6 1.3 -0.2
v -1.4 1.3 -0.2
v -0.2 1.3 -0.2
v 0.2 1.3 -0.2
v 1.4 1.3 -0.2
v 1.6 1.3 -0.2
v -1.2 1.7 0.4
v -1 1.7 0.4
v -0.6 1.7 0.4
v -0.4 1.7 0.4
v 0.4 1.7 0.4
v 0.6 1.7 0.4
v 1 1.7 0.4
v 1.2 1.7 0.4
v -1.6 1.7 0.3
v -1.4 1.7 0.3
v -1.2 1.7 0.3
v -0.4 1.7 0.3
v -0.2 1.7 0.3
v 0.2 1.7 0.3
v 0.4 1.7 0.3
v 1.2 1.7 0.3
v 1.4 1.7 0.3
v 1.6 1.7 0.3
v -1.2 1.7 0.2
v -1 1.7 0.2
v -0.6 1.7 0.2
v -0.4 1.7 0.2
v 0.4 1.7 0.2
v 0.6 1.7 0.2
v 1 1.7 0.2
v 1.2 1.7 0.2
v -1.2 1.7 -0.1
v -1 1.7 -0.1
v -0.6 1.7 -0.1
v -0.4 1.7 -0.1
v 0.4 1.7 -0.1
v 0.6 1.7 -0.1
v 1 1.7 -0.1
v 1.2 1.7 -0.1
v -1.6 1.7 -0.2
v -1.4 1.7 -0.2
v -1.2 1.7 -0.2
v -0.4 1.7 -0.2
v -0.2 1.7 -0.2
v 0.2 1.7 -0.2
v 0.4 1.7 -0.2
v 1.2 1.7 -0.2
v 1.4 1.7 -0.2
v 1.6 1.7 -0.2
v -1.2 1.7 -0.3
v -1 1.7 -0.3
v -0.6 1.7 -0.3
v -0.4 1.7 -0.3
v 0.4 1.7 -0.3
v 0.6 1.7 -0.3
v 1 1.7 -0.3
v 1.2 1.7 -0.3
v -1 2.1 0.4
v -0.6 2.1 0.4
v 0.6 2.1 0.4
v 1 2.1 0.4
v -1 2.1 0.2
v -0.6 2.1 0.2
v 0.6 2.1 0.2
v 1 2.1 0.2
v -1 2.1 -0.1
v -0.6 2.1 -0.1
v 0.6 2.1 -0.1
v 1 2.1 -0.1
v -1 2.1 -0.3
v -0.6 2.1 -0.3
v 0.6 2.1 -0.3
v 1 2.1 -0.3
v -1.4 2.7 0.3
v -1.2 2.7 0.3
v -0.4 2.7 0.3
v -0.2 2.7 0.3
v 0.2 2.7 0.3
v 0.4 2.7 0.3
v 1.2 2.7 0.3
v 1.4 2.7 0.3
v -1.4 2.7 -0.2
v -1.2 2.7 -0.2
v -0.4 2.7 -0.2
v -0.2 2.7 -0.2
v 0.2 2.7 -0.2
v 0.4 2.7 -0.2
v 1.2 2.7 -0.2
v 1.4 2.7 -0.2
v -1.2 2.9 0.3
v -0.4 2.9 0.3
v 0.4 2.9 0.3
v 1.2 2.9 0.3
v -1.2 2.9 -0.2
v -0.4 2.9 -0.2
v 0.4 2.9 -0.2
v 1.2 2.9 -0.2

# faces
f 3/2/1 2/2/1 1/2/1
f 4/2/1 2/2/1 3/2/1
f 5/6/1 4/6/1 3/6/1
f 6/6/1 4/6/1 5/6/1
f 7/6/1 4/6/1 6/6/1
f 8/6/1 4/6/1 7/6/1
f 10/3/1 7/3/1 6/3/1
f 11/3/1 7/3/1 10/3/1
f 13/6/1 10/6/1 9/6/1
f 13/6/1 12/6/1 11/6/1
f 13/6/1 11/6/1 10/6/1
f 14/6/1 12/6/1 13/6/1
f 17/2/1 16/2/1 15/2/1
f 18/2/1 16/2/1 17/2/1
f 23/2/1 20/2/1 19/2/1
f 24/2/1 20/2/1 23/2/1
f 25/2/1 22/2/1 21/2/1
f 26/2/1 22/2/1 25/2/1
f 29/6/1 28/6/1 27/6/1
f 30/6/1 28/6/1 29/6/1
f 35/1/1 32/1/1 31/1/1
f 36/1/1 32/1/1 35/1/1
f 37/1/1 34/1/1 33/1/1
f 38/1/1 34/1/1 37/1/1
f 41/6/1 40/6/1 39/6/1
f 42/6/1 40/6/1 41/6/1
f 47/1/1 44/1/1 43/1/1
f 48/1/1 44/1/1 47/1/1
f 49/1/1 46/1/1 45/1/1
f 50/1/1 46/1/1 49/1/1
f 55/5/1 52/5/1 51/5/1
f 56/5/1 52/5/1 55/5/1
f 57/5/1 54/5/1 53/5/1
f 58/5/1 54/5/1 57/5/1
f 63/6/1 60/6/1 59/6/1
f 64/6/1 62/6/1 61/6/1
f 65/6/1 63/6/1 59/6/1
f 66/6/1 63/6/1 65/6/1
f 67/6/1 62/6/1 64/6/1
f 68/6/1 62/6/1 67/6/1
f 71/2/1 70/2/1 69/2/1
f 72/2/1 70/2/1 71/2/1
f 77/2/1 74/2/1 73/2/1
f 78/2/1 74/2/1 77/2/1
f 79/2/1 76/2/1 75/2/1
f 80/2/1 76/2/1 79/2/1
f 83/6/1 82/6/1 81/6/1
f 84/6/1 82/6/1 83/6/1
f 89/1/1 86/1/1 85/1/1
f 90/1/1 86/1/1 89/1/1
f 91/1/1 88/1/1 87/1/1
f 92/1/1 88/1/1 91/1/1
f 95/6/1 94/6/1 93/6/1
f 96/6/1 94/6/1 95/6/1
f 101/1/1 98/1/1 97/1/1
f 102/1/1 98/1/1 101/1/1
f 103/1/1 100/1/1 99/1/1
f 104/1/1 100/1/1 103/1/1
f 109/5/1 106/5/1 105/5/1
f 110/5/1 106/5/1 109/5/1
f 111/5/1 108/5/1 107/5/1
f 112/5/1 108/5/1 111/5/1
f 117/6/1 114/6/1 113/6/1
f 118/6/1 116/6/1 115/6/1
f 119/6/1 117/6/1 113/6/1
f 120/6/1 117/6/1 119/6/1
f 121/6/1 116/6/1 118/6/1
f 122/6/1 116/6/1 121/6/1
f 123/6/2 124/6/2 127/6/2
f 125/6/2 126/6/2 128/6/2
f 123/6/2 127/6/2 129/6/2
f 129/6/2 127/6/2 130/6/2
f 128/6/2 126/6/2 131/6/2
f 131/6/2 126/6/2 132/6/2
f 133/5/2 134/5/2 137/5/2
f 137/5/2 134/5/2 138/5/2
f 135/5/2 136/5/2 139/5/2
f 139/5/2 136/5/2 140/5/2
f 141/1/2 142/1/2 145/1/2
f 145/1/2 142/1/2 146/1/2
f 143/1/2 144/1/2 147/1/2
f 147/1/2 144/1/2 148/1/2
f 149/1/2 150/1/2 153/1/2
f 153/1/2 150/1/2 154/1/2
f 151/1/2 152/1/2 155/1/2
f 155/1/2 152/1/2 156/1/2
f 157/6/2 158/6/2 159/6/2
f 159/6/2 158/6/2 160/6/2
f 161/2/2 162/2/2 163/2/2
f 163/2/2 162/2/2 164/2/2
f 165/2/2 166/2/2 169/2/2
f 169/2/2 166/2/2 170/2/2
f 167/2/2 168/2/2 171/2/2
f 171/2/2 168/2/2 172/2/2
f 173/6/2 174/6/2 175/6/2
f 175/6/2 174/6/2 176/6/2
f 177/6/2 178/6/2 181/6/2
f 179/6/2 180/6/2 182/6/2
f 177/6/2 181/6/2 183/6/2
f 183/6/2 181/6/2 184/6/2
f 182/6/2 180/6/2 185/6/2
f 185/6/2 180/6/2 186/6/2
f 187/5/2 188/5/2 191/5/2
f 191/5/2 188/5/2 192/5/2
f 189/5/2 190/5/2 193/5/2
f 193/5/2 190/5/2 194/5/2
f 195/1/2 196/1/2 199/1/2
f 199/1/2 196/1/2 200/1/2
f 197/1/2 198/1/2 201/1/2
f 201/1/2 198/1/2 202/1/2
f 203/1/2 204/1/2 207/1/2
f 207/1/2 204/1/2 208/1/2
f 205/1/2 206/1/2 209/1/2
f 209/1/2 206/1/2 210/1/2
f 211/6/2 212/6/2 213/6/2
f 213/6/2 212/6/2 214/6/2
f 215/2/2 216/2/2 217/2/2
f 217/2/2 216/2/2 218/2/2
f 219/2/2 220/2/2 223/2/2
f 223/2/2 220/2/2 224/2/2
f 221/2/2 222/2/2 225/2/2
f 225/2/2 222/2/2 226/2/2
f 227/6/2 228/6/2 229/6/2
f 229/6/2 228/6/2 230/6/2
f 231/2/2 232/2/2 233/2/2
f 233/2/2 232/2/2 234/2/2
f 233/6/2 234/6/2 235/6/2
f 235/6/2 234/6/2 236/6/2
f 236/6/2 234/6/2 237/6/2
f 237/6/2 234/6/2 238/6/2
f 236/3/2 237/3/2 240/3/2
f 240/3/2 237/3/2 241/3/2
f 239/6/2 240/6/2 243/6/2
f 241/6/2 242/6/2 243/6/2
f 240/6/2 241/6/2 243/6/2
f 243/6/2 242/6/2 244/6/2
f 247/1/3 246/1/3 245/1/3
f 249/1/3 247/1/3 245/1/3
f 249/1/3 248/1/3 247/1/3
f 250/1/3 248/1/3 249/1/3
f 251/1/3 249/1/3 245/1/3
f 252/1/3 249/1/3 251/1/3
f 255/1/3 254/1/3 253/1/3
f 257/1/3 255/1/3 253/1/3
f 257/1/3 256/1/3 255/1/3
f 258/1/3 256/1/3 257/1/3
f 259/1/3 257/1/3 253/1/3
f 260/1/3 257/1/3 259/1/3
f 267/2/3 262/2/3 261/2/3
f 268/6/3 263/6/3 262/6/3
f 268/2/3 262/2/3 267/2/3
f 269/6/3 263/6/3 268/6/3
f 270/6/3 265/6/3 264/6/3
f 271/6/3 265/6/3 270/6/3
f 273/2/3 269/2/3 268/2/3
f 273/2/3 267/2/3 266/2/3
f 273/2/3 271/2/3 270/2/3
f 273/2/3 270/2/3 269/2/3
f 273/2/3 268/2/3 267/2/3
f 274/6/3 272/6/3 271/6/3
f 274/2/3 271/2/3 273/2/3
f 275/6/3 272/6/3 274/6/3
f 276/6/3 272/6/3 275/6/3
f 278/5/3 276/5/3 275/5/3
f 279/6/3 277/6/3 276/6/3
f 279/5/3 276/5/3 278/5/3
f 281/6/3 277/6/3 279/6/3
f 282/2/3 273/2/3 266/2/3
f 284/5/3 281/5/3 280/5/3
f 285/6/3 277/6/3 281/6/3
f 285/5/3 281/5/3 284/5/3
f 286/6/3 277/6/3 285/6/3
f 287/2/3 283/2/3 282/2/3
f 287/2/3 282/2/3 266/2/3
f 288/2/3 283/2/3 287/2/3
f 289/2/3 283/2/3 288/2/3
f 290/2/3 283/2/3 289/2/3
f 291/2/3 283/2/3 290/2/3
f 292/6/3 284/6/3 283/6/3
f 292/2/3 283/2/3 291/2/3
f 292/6/3 285/6/3 284/6/3
f 293/6/3 285/6/3 292/6/3
f 295/2/3 289/2/3 288/2/3
f 296/6/3 290/6/3 289/6/3
f 296/2/3 289/2/3 295/2/3
f 297/6/3 290/6/3 296/6/3
f 298/6/3 292/6/3 291/6/3
f 299/6/3 292/6/3 298/6/3
f 301/2/3 295/2/3 294/2/3
f 301/2/3 297/2/3 296/2/3
f 301/2/3 299/2/3 298/2/3
f 301/2/3 298/2/3 297/2/3
f 301/2/3 296/2/3 295/2/3
f 302/6/3 300/6/3 299/6/3
f 302/2/3 299/2/3 301/2/3
f 303/6/3 300/6/3 302/6/3
f 304/6/3 300/6/3 303/6/3
f 306/5/3 304/5/3 303/5/3
f 307/6/3 305/6/3 304/6/3
f 307/5/3 304/5/3 306/5/3
f 309/6/3 305/6/3 307/6/3
f 310/2/3 301/2/3 294/2/3
f 312/5/3 309/5/3 308/5/3
f 313/6/3 305/6/3 309/6/3
f 313/5/3 309/5/3 312/5/3
f 314/6/3 305/6/3 313/6/3
f 315/2/3 311/2/3 310/2/3
f 315/2/3 310/2/3 294/2/3
f 316/2/3 311/2/3 315/2/3
f 317/2/3 311/2/3 316/2/3
f 318/2/3 311/2/3 317/2/3
f 319/2/3 311/2/3 318/2/3
f 320/6/3 312/6/3 311/6/3
f 320/2/3 311/2/3 319/2/3
f 320/6/3 313/6/3 312/6/3
f 321/6/3 313/6/3 320/6/3
f 322/2/3 317/2/3 316/2/3
f 323/6/3 318/6/3 317/6/3
f 323/2/3 317/2/3 322/2/3
f 324/6/3 318/6/3 323/6/3
f 325/6/3 320/6/3 319/6/3
f 326/6/3 320/6/3 325/6/3
f 329/3/3 328/3/3 327/3/3
f 330/3/3 328/3/3 329/3/3
f 334/4/3 332/4/3 331/4/3
f 335/3/3 333/3/3 332/3/3
f 335/4/3 332/4/3 334/4/3
f 336/3/3 333/3/3 335/3/3
f 339/3/3 337/3/3 336/3/3
f 339/3/3 336/3/3 335/3/3
f 340/3/3 337/3/3 339/3/3
f 341/3/3 337/3/3 340/3/3
f 342/4/3 339/4/3 338/4/3
f 343/3/3 340/3/3 339/3/3
f 343/4/3 339/4/3 342/4/3
f 344/3/3 340/3/3 343/3/3
f 347/3/3 346/3/3 345/3/3
f 348/3/3 346/3/3 347/3/3
f 352/4/3 350/4/3 349/4/3
f 353/3/3 351/3/3 350/3/3
f 353/4/3 350/4/3 352/4/3
f 354/3/3 351/3/3 353/3/3
f 357/3/3 354/3/3 353/3/3
f 357/3/3 355/3/3 354/3/3
f 358/3/3 355/3/3 357/3/3
f 359/3/3 355/3/3 358/3/3
f 360/4/3 357/4/3 356/4/3
f 361/3/3 358/3/3 357/3/3
f 361/4/3 357/4/3 360/4/3
f 362/3/3 358/3/3 361/3/3
f 365/3/3 364/3/3 363/3/3
f 366/3/3 364/3/3 365/3/3
f 367/3/4 368/3/4 369/3/4
f 369/3/4 368/3/4 370/3/4
f 371/4/4 372/4/4 374/4/4
f 372/3/4 373/3/4 375/3/4
f 374/4/4 372/4/4 375/4/4
f 375/3/4 373/3/4 376/3/4
f 376/3/4 377/3/4 379/3/4
f 375/3/4 376/3/4 379/3/4
f 379/3/4 377/3/4 380/3/4
f 380/3/4 377/3/4 381/3/4
f 378/4/4 379/4/4 382/4/4
f 379/3/4 380/3/4 383/3/4
f 382/4/4 379/4/4 383/4/4
f 383/3/4 380/3/4 384/3/4
f 385/3/4 386/3/4 387/3/4
f 387/3/4 386/3/4 388/3/4
f 389/4/4 390/4/4 392/4/4
f 390/3/4 391/3/4 393/3/4
f 392/4/4 390/4/4 393/4/4
f 393/3/4 391/3/4 394/3/4
f 393/3/4 394/3/4 397/3/4
f 394/3/4 395/3/4 397/3/4
f 397/3/4 395/3/4 398/3/4
f 398/3/4 395/3/4 399/3/4
f 396/4/4 397/4/4 400/4/4
f 397/3/4 398/3/4 401/3/4
f 400/4/4 397/4/4 401/4/4
f 401/3/4 398/3/4 402/3/4
f 403/3/4 404/3/4 405/3/4
f 405/3/4 404/3/4 406/3/4
f 407/2/4 408/2/4 413/2/4
f 408/6/4 409/6/4 414/6/4
f 413/2/4 408/2/4 414/2/4
f 414/6/4 409/6/4 415/6/4
f 410/6/4 411/6/4 416/6/4
f 416/6/4 411/6/4 417/6/4
f 414/2/4 415/2/4 419/2/4
f 412/2/4 413/2/4 419/2/4
f 416/2/4 417/2/4 419/2/4
f 415/2/4 416/2/4 419/2/4
f 413/2/4 414/2/4 419/2/4
f 417/6/4 418/6/4 420/6/4
f 419/2/4 417/2/4 420/2/4
f 420/6/4 418/6/4 421/6/4
f 421/6/4 418/6/4 422/6/4
f 421/5/4 422/5/4 424/5/4
f 422/6/4 423/6/4 425/6/4
f 424/5/4 422/5/4 425/5/4
f 425/6/4 423/6/4 427/6/4
f 412/2/4 419/2/4 428/2/4
f 426/5/4 427/5/4 430/5/4
f 427/6/4 423/6/4 431/6/4
f 430/5/4 427/5/4 431/5/4
f 431/6/4 423/6/4 432/6/4
f 428/2/4 429/2/4 433/2/4
f 412/2/4 428/2/4 433/2/4
f 433/2/4 429/2/4 434/2/4
f 434/2/4 429/2/4 435/2/4
f 435/2/4 429/2/4 436/2/4
f 436/2/4 429/2/4 437/2/4
f 429/6/4 430/6/4 438/6/4
f 437/2/4 429/2/4 438/2/4
f 430/6/4 431/6/4 438/6/4
f 438/6/4 431/6/4 439/6/4
f 434/2/4 435/2/4 441/2/4
f 435/6/4 436/6/4 442/6/4
f 441/2/4 435/2/4 442/2/4
f 442/6/4 436/6/4 443/6/4
f 437/6/4 438/6/4 444/6/4
f 444/6/4 438/6/4 445/6/4
f 440/2/4 441/2/4 447/2/4
f 442/2/4 443/2/4 447/2/4
f 444/2/4 445/2/4 447/2/4
f 443/2/4 444/2/4 447/2/4
f 441/2/4 442/2/4 447/2/4
f 445/6/4 446/6/4 448/6/4
f 447/2/4 445/2/4 448/2/4
f 448/6/4 446/6/4 449/6/4
f 449/6/4 446/6/4 450/6/4
f 449/5/4 450/5/4 452/5/4
f 450/6/4 451/6/4 453/6/4
f 452/5/4 450/5/4 453/5/4
f 453/6/4 451/6/4 455/6/4
f 440/2/4 447/2/4 456/2/4
f 454/5/4 455/5/4 458/5/4
f 455/6/4 451/6/4 459/6/4
f 458/5/4 455/5/4 459/5/4
f 459/6/4 451/6/4 460/6/4
f 456/2/4 457/2/4 461/2/4
f 440/2/4 456/2/4 461/2/4
f 461/2/4 457/2/4 462/2/4
f 462/2/4 457/2/4 463/2/4
f 463/2/4 457/2/4 464/2/4
f 464/2/4 457/2/4 465/2/4
f 457/6/4 458/6/4 466/6/4
f 465/2/4 457/2/4 466/2/4
f 458/6/4 459/6/4 466/6/4
f 466/6/4 459/6/4 467/6/4
f 462/2/4 463/2/4 468/2/4
f 463/6/4 464/6/4 469/6/4
f 468/2/4 463/2/4 469/2/4
f 469/6/4 464/6/4 470/6/4
f 465/6/4 466/6/4 471/6/4
f 471/6/4 466/6/4 472/6/4
f 473/1/4 474/1/4 475/1/4
f 473/1/4 475/1/4 477/1/4
f 475/1/4 476/1/4 477/1/4
f 477/1/4 476/1/4 478/1/4
f 473/1/4 477/1/4 479/1/4
f 479/1/4 477/1/4 480/1/4
f 481/1/4 482/1/4 483/1/4
f 481/1/4 483/1/4 485/1/4
f 483/1/4 484/1/4 485/1/4
f 485/1/4 484/1/4 486/1/4
f 481/1/4 485/1/4 487/1/4
f 487/1/4 485/1/4 488/1/4
f 493/2/5 490/2/5 489/2/5
f 494/2/5 490/2/5 493/2/5
f 495/2/5 492/2/5 491/2/5
f 496/2/5 492/2/5 495/2/5
f 501/1/5 498/1/5 497/1/5
f 502/1/5 498/1/5 501/1/5
f 503/1/5 500/1/5 499/1/5
f 504/1/5 500/1/5 503/1/5
f 509/1/5 506/1/5 505/1/5
f 510/1/5 506/1/5 509/1/5
f 511/1/5 508/1/5 507/1/5
f 512/1/5 508/1/5 511/1/5
f 519/2/5 514/2/5 513/2/5
f 520/2/5 514/2/5 519/2/5
f 521/2/5 516/2/5 515/2/5
f 522/2/5 516/2/5 521/2/5
f 523/2/5 518/2/5 517/2/5
f 524/2/5 518/2/5 523/2/5
f 531/6/5 526/6/5 525/6/5
f 532/6/5 526/6/5 531/6/5
f 533/6/5 528/6/5 527/6/5
f 534/6/5 528/6/5 533/6/5
f 535/6/5 530/6/5 529/6/5
f 536/6/5 530/6/5 535/6/5
f 543/6/5 538/6/5 537/6/5
f 544/6/5 538/6/5 543/6/5
f 545/6/5 540/6/5 539/6/5
f 546/6/5 540/6/5 545/6/5
f 547/6/5 542/6/5 541/6/5
f 548/6/5 542/6/5 547/6/5
f 557/5/5 550/5/5 549/5/5
f 558/5/5 550/5/5 557/5/5
f 559/5/5 552/5/5 551/5/5
f 560/5/5 552/5/5 559/5/5
f 561/5/5 554/5/5 553/5/5
f 562/5/5 554/5/5 561/5/5
f 563/5/5 556/5/5 555/5/5
f 564/5/5 556/5/5 563/5/5
f 573/5/5 566/5/5 565/5/5
f 574/5/5 566/5/5 573/5/5
f 575/5/5 568/5/5 567/5/5
f 576/5/5 568/5/5 575/5/5
f 577/5/5 570/5/5 569/5/5
f 578/5/5 570/5/5 577/5/5
f 579/5/5 572/5/5 571/5/5
f 580/5/5 572/5/5 579/5/5
f 585/6/5 582/6/5 581/6/5
f 586/6/5 582/6/5 585/6/5
f 587/6/5 584/6/5 583/6/5
f 588/6/5 584/6/5 587/6/5
f 593/6/5 590/6/5 589/6/5
f 594/6/5 590/6/5 593/6/5
f 595/6/5 592/6/5 591/6/5
f 596/6/5 592/6/5 595/6/5
f 597/6/6 598/6/6 603/6/6
f 603/6/6 598/6/6 604/6/6
f 599/6/6 600/6/6 605/6/6
f 605/6/6 600/6/6 606/6/6
f 601/6/6 602/6/6 607/6/6
f 607/6/6 602/6/6 608/6/6
f 609/6/6 610/6/6 615/6/6
f 615/6/6 610/6/6 616/6/6
f 611/6/6 612/6/6 617/6/6
f 617/6/6 612/6/6 618/6/6
f 613/6/6 614/6/6 619/6/6
f 619/6/6 614/6/6 620/6/6
f 621/1/6 622/1/6 631/1/6
f 623/1/6 624/1/6 632/1/6
f 625/1/6 626/1/6 635/1/6
f 627/1/6 628/1/6 636/1/6
f 631/1/6 622/1/6 639/1/6
f 639/1/6 622/1/6 640/1/6
f 623/1/6 632/1/6 641/1/6
f 641/1/6 632/1/6 642/1/6
f 635/1/6 626/1/6 643/1/6
f 643/1/6 626/1/6 644/1/6
f 627/1/6 636/1/6 645/1/6
f 645/1/6 636/1/6 646/1/6
f 629/6/6 630/6/6 655/6/6
f 655/6/6 630/6/6 656/6/6
f 647/1/6 648/1/6 657/1/6
f 649/1/6 650/1/6 658/1/6
f 633/6/6 634/6/6 659/6/6
f 659/6/6 634/6/6 660/6/6
f 651/1/6 652/1/6 661/1/6
f 653/1/6 654/1/6 662/1/6
f 637/6/6 638/6/6 663/6/6
f 663/6/6 638/6/6 664/6/6
f 657/1/6 648/1/6 665/1/6
f 665/1/6 648/1/6 666/1/6
f 649/1/6 658/1/6 667/1/6
f 667/1/6 658/1/6 668/1/6
f 661/1/6 652/1/6 669/1/6
f 669/1/6 652/1/6 670/1/6
f 653/1/6 662/1/6 671/1/6
f 671/1/6 662/1/6 672/1/6
f 673/1/6 674/1/6 677/1/6
f 677/1/6 674/1/6 678/1/6
f 675/1/6 676/1/6 679/1/6
f 679/1/6 676/1/6 680/1/6
f 681/1/6 682/1/6 685/1/6
f 685/1/6 682/1/6 686/1/6
f 683/1/6 684/1/6 687/1/6
f 687/1/6 684/1/6 688/1/6
f 689/6/6 690/6/6 697/6/6
f 697/6/6 690/6/6 698/6/6
f 691/6/6 692/6/6 699/6/6
f 699/6/6 692/6/6 700/6/6
f 693/6/6 694/6/6 701/6/6
f 701/6/6 694/6/6 702/6/6
f 695/6/6 696/6/6 703/6/6
f 703/6/6 696/6/6 704/6/6
f 705/6/6 706/6/6 709/6/6
f 709/6/6 706/6/6 710/6/6
f 707/6/6 708/6/6 711/6/6
f 711/6/6 708/6/6 712/6/6
