# MagicaVoxel @ Ephtracy

# group
o fence

# material
mtllib fence_corner_end.mtl
usemtl palette

# normals
vn -1 0 0
vn 1 0 0
vn 0 0 1
vn 0 0 -1
vn 0 -1 0
vn 0 1 0

# texcoords
vt 0.337891 0.5
vt 0.505859 0.5
vt 0.958984 0.5
vt 0.962891 0.5
vt 0.978516 0.5

# verts
v -1.6 1.1 0.2
v -1.6 1.1 -0.1
v -1.6 1.3 0.2
v -1.6 1.3 0.1
v -1.6 1.3 0
v -1.6 1.3 -0.1
v -1.6 1.5 0.2
v -1.6 1.5 0.1
v -1.6 1.5 0
v -1.6 1.5 -0.1
v -1.6 1.7 0.2
v -1.6 1.7 -0.1
v -1.4 1.3 0.2
v -1.4 1.3 0.1
v -1.4 1.3 0
v -1.4 1.3 -0.1
v -1.4 1.5 0.2
v -1.4 1.5 0.1
v -1.4 1.5 0
v -1.4 1.5 -0.1
v -1.2 0 0.2
v -1.2 0 -0.1
v -1.2 0.2 0.3
v -1.2 0.2 0.2
v -1.2 0.2 -0.1
v -1.2 0.2 -0.2
v -1.2 1.1 0.2
v -1.2 1.1 -0.1
v -1.2 1.7 0.3
v -1.2 1.7 0.2
v -1.2 1.7 -0.1
v -1.2 1.7 -0.2
v -1.2 2.1 0.2
v -1.2 2.1 -0.1
v -1.2 2.5 0.2
v -1.2 2.5 -0.1
v -1.1 2.5 0.2
v -1.1 2.5 -0.1
v -1.1 2.6 0.2
v -1.1 2.6 -0.1
v -1 1.7 0.3
v -1 1.7 0.2
v -1 1.7 -0.1
v -1 1.7 -0.2
v -1 2.1 0.3
v -1 2.1 0.2
v -1 2.1 -0.1
v -1 2.1 -0.2
v -1 2.6 0.2
v -1 2.6 -0.1
v -1 2.7 0.2
v -1 2.7 -0.1
v -0.3 0.2 1.2
v -0.3 0.2 0.4
v -0.3 1.7 1.2
v -0.3 1.7 1
v -0.3 1.7 0.6
v -0.3 1.7 0.4
v -0.3 2.1 1
v -0.3 2.1 0.6
v -0.2 0 1.2
v -0.2 0 0.4
v -0.2 0.2 1.2
v -0.2 0.2 0.4
v -0.2 1.1 1.6
v -0.2 1.1 1.4
v -0.2 1.1 1.2
v -0.2 1.1 0.4
v -0.2 1.1 0.2
v -0.2 1.3 1.6
v -0.2 1.3 1.4
v -0.2 1.5 1.6
v -0.2 1.5 1.4
v -0.2 1.7 1.6
v -0.2 1.7 1.4
v -0.2 1.7 1.2
v -0.2 1.7 1
v -0.2 1.7 0.6
v -0.2 1.7 0.4
v -0.2 1.7 0.2
v -0.2 2.1 1.2
v -0.2 2.1 1
v -0.2 2.1 0.6
v -0.2 2.1 0.4
v -0.2 2.5 1.2
v -0.2 2.5 1.1
v -0.2 2.5 1
v -0.2 2.5 0.6
v -0.2 2.5 0.5
v -0.2 2.5 0.4
v -0.2 2.6 1.1
v -0.2 2.6 1
v -0.2 2.6 0.6
v -0.2 2.6 0.5
v -0.2 2.7 1
v -0.2 2.7 0.6
v -0.1 1.3 1.6
v -0.1 1.3 1.4
v -0.1 1.3 0.2
v -0.1 1.3 0.1
v -0.1 1.5 1.6
v -0.1 1.5 1.4
v -0.1 1.5 0.2
v -0.1 1.5 0.1
v -0.6 1.7 0.3
v -0.6 1.7 0.2
v -0.6 1.7 -0.1
v -0.6 1.7 -0.2
v -0.6 2.1 0.3
v -0.6 2.1 0.2
v -0.6 2.1 -0.1
v -0.6 2.1 -0.2
v -0.6 2.6 0.2
v -0.6 2.6 -0.1
v -0.6 2.7 0.2
v -0.6 2.7 -0.1
v -0.5 2.5 0.2
v -0.5 2.5 -0.1
v -0.5 2.6 0.2
v -0.5 2.6 -0.1
v -0.4 0 0.2
v -0.4 0 -0.1
v -0.4 0.2 0.3
v -0.4 0.2 0.2
v -0.4 0.2 -0.1
v -0.4 0.2 -0.2
v -0.4 1.1 0.2
v -0.4 1.1 -0.1
v -0.4 1.7 0.3
v -0.4 1.7 0.2
v -0.4 1.7 -0.1
v -0.4 1.7 -0.2
v -0.4 2.1 0.2
v -0.4 2.1 -0.1
v -0.4 2.5 0.2
v -0.4 2.5 -0.1
v -0.2 1.3 0.2
v -0.2 1.3 0.1
v -0.2 1.3 0
v -0.2 1.3 -0.1
v -0.2 1.5 0.2
v -0.2 1.5 0.1
v -0.2 1.5 0
v -0.2 1.5 -0.1
v 0 1.3 1.6
v 0 1.3 1.4
v 0 1.5 1.6
v 0 1.5 1.4
v 0.1 0 1.2
v 0.1 0 0.4
v 0.1 0.2 1.2
v 0.1 0.2 0.4
v 0.1 1.1 1.6
v 0.1 1.1 1.4
v 0.1 1.1 1.2
v 0.1 1.1 0.4
v 0.1 1.1 0.2
v 0.1 1.1 -0.1
v 0.1 1.3 1.6
v 0.1 1.3 1.4
v 0.1 1.3 0.2
v 0.1 1.3 0
v 0.1 1.3 -0.1
v 0.1 1.5 1.6
v 0.1 1.5 1.4
v 0.1 1.5 0.2
v 0.1 1.5 0
v 0.1 1.5 -0.1
v 0.1 1.7 1.6
v 0.1 1.7 1.4
v 0.1 1.7 1.2
v 0.1 1.7 1
v 0.1 1.7 0.6
v 0.1 1.7 0.4
v 0.1 1.7 0.2
v 0.1 1.7 -0.1
v 0.1 2.1 1.2
v 0.1 2.1 1
v 0.1 2.1 0.6
v 0.1 2.1 0.4
v 0.1 2.5 1.2
v 0.1 2.5 1.1
v 0.1 2.5 1
v 0.1 2.5 0.6
v 0.1 2.5 0.5
v 0.1 2.5 0.4
v 0.1 2.6 1.1
v 0.1 2.6 1
v 0.1 2.6 0.6
v 0.1 2.6 0.5
v 0.1 2.7 1
v 0.1 2.7 0.6
v 0.2 0.2 1.2
v 0.2 0.2 0.4
v 0.2 1.7 1.2
v 0.2 1.7 1
v 0.2 1.7 0.6
v 0.2 1.7 0.4
v 0.2 2.1 1
v 0.2 2.1 0.6
v -0.2 1.1 1.6
v -0.2 1.3 1.6
v -0.2 1.5 1.6
v -0.2 1.7 1.6
v -0.1 1.3 1.6
v -0.1 1.5 1.6
v 0 1.3 1.6
v 0 1.5 1.6
v 0.1 1.1 1.6
v 0.1 1.3 1.6
v 0.1 1.5 1.6
v 0.1 1.7 1.6
v -0.2 1.3 1.4
v -0.2 1.5 1.4
v -0.1 1.3 1.4
v -0.1 1.5 1.4
v 0 1.3 1.4
v 0 1.5 1.4
v 0.1 1.3 1.4
v 0.1 1.5 1.4
v -0.3 0.2 1.2
v -0.3 1.7 1.2
v -0.2 0 1.2
v -0.2 0.2 1.2
v -0.2 1.1 1.2
v -0.2 1.7 1.2
v -0.2 2.1 1.2
v -0.2 2.5 1.2
v 0.1 0 1.2
v 0.1 0.2 1.2
v 0.1 1.1 1.2
v 0.1 1.7 1.2
v 0.1 2.1 1.2
v 0.1 2.5 1.2
v 0.2 0.2 1.2
v 0.2 1.7 1.2
v -0.2 2.5 1.1
v -0.2 2.6 1.1
v 0.1 2.5 1.1
v 0.1 2.6 1.1
v -0.3 1.7 1
v -0.3 2.1 1
v -0.2 1.7 1
v -0.2 2.1 1
v -0.2 2.6 1
v -0.2 2.7 1
v 0.1 1.7 1
v 0.1 2.1 1
v 0.1 2.6 1
v 0.1 2.7 1
v 0.2 1.7 1
v 0.2 2.1 1
v -1.2 0.2 0.3
v -1.2 1.7 0.3
v -1 1.7 0.3
v -1 2.1 0.3
v -0.6 1.7 0.3
v -0.6 2.1 0.3
v -0.4 0.2 0.3
v -0.4 1.7 0.3
v -1.6 1.1 0.2
v -1.6 1.3 0.2
v -1.6 1.5 0.2
v -1.6 1.7 0.2
v -1.4 1.1 0.2
v -1.4 1.3 0.2
v -1.4 1.5 0.2
v -1.4 1.7 0.2
v -1.2 0 0.2
v -1.2 0.2 0.2
v -1.2 1.1 0.2
v -1.2 1.7 0.2
v -1.2 2.1 0.2
v -1.2 2.5 0.2
v -1.1 2.5 0.2
v -1.1 2.6 0.2
v -1 1.7 0.2
v -1 2.1 0.2
v -1 2.5 0.2
v -1 2.6 0.2
v -1 2.7 0.2
v -0.6 1.7 0.2
v -0.6 2.1 0.2
v -0.6 2.5 0.2
v -0.6 2.6 0.2
v -0.6 2.7 0.2
v -0.5 2.5 0.2
v -0.5 2.6 0.2
v -0.4 0 0.2
v -0.4 0.2 0.2
v -0.4 1.1 0.2
v -0.4 1.7 0.2
v -0.4 2.1 0.2
v -0.4 2.5 0.2
v -0.2 1.1 0.2
v -0.2 1.7 0.2
v -1.6 1.3 0.1
v -1.6 1.5 0.1
v -1.4 1.3 0.1
v -1.4 1.5 0.1
v -0.2 1.3 0.1
v -0.2 1.5 0.1
v -0.1 1.3 0.1
v -0.1 1.5 0.1
v -0.3 1.7 0.6
v -0.3 2.1 0.6
v -0.2 1.7 0.6
v -0.2 2.1 0.6
v -0.2 2.6 0.6
v -0.2 2.7 0.6
v 0.1 1.7 0.6
v 0.1 2.1 0.6
v 0.1 2.6 0.6
v 0.1 2.7 0.6
v 0.2 1.7 0.6
v 0.2 2.1 0.6
v -0.2 2.5 0.5
v -0.2 2.6 0.5
v 0.1 2.5 0.5
v 0.1 2.6 0.5
v -0.3 0.2 0.4
v -0.3 1.7 0.4
v -0.2 0 0.4
v -0.2 0.2 0.4
v -0.2 1.1 0.4
v -0.2 1.7 0.4
v -0.2 2.1 0.4
v -0.2 2.5 0.4
v 0.1 0 0.4
v 0.1 0.2 0.4
v 0.1 1.1 0.4
v 0.1 1.7 0.4
v 0.1 2.1 0.4
v 0.1 2.5 0.4
v 0.2 0.2 0.4
v 0.2 1.7 0.4
v -0.2 1.3 0.2
v -0.2 1.5 0.2
v -0.1 1.3 0.2
v -0.1 1.5 0.2
v -1.6 1.3 0
v -1.6 1.5 0
v -1.4 1.3 0
v -1.4 1.5 0
v -0.2 1.3 0
v -0.2 1.5 0
v 0.1 1.3 0
v 0.1 1.5 0
v -1.6 1.1 -0.1
v -1.6 1.3 -0.1
v -1.6 1.5 -0.1
v -1.6 1.7 -0.1
v -1.4 1.1 -0.1
v -1.4 1.3 -0.1
v -1.4 1.5 -0.1
v -1.4 1.7 -0.1
v -1.2 0 -0.1
v -1.2 0.2 -0.1
v -1.2 1.1 -0.1
v -1.2 1.7 -0.1
v -1.2 2.1 -0.1
v -1.2 2.5 -0.1
v -1.1 2.5 -0.1
v -1.1 2.6 -0.1
v -1 1.7 -0.1
v -1 2.1 -0.1
v -1 2.5 -0.1
v -1 2.6 -0.1
v -1 2.7 -0.1
v -0.6 1.7 -0.1
v -0.6 2.1 -0.1
v -0.6 2.5 -0.1
v -0.6 2.6 -0.1
v -0.6 2.7 -0.1
v -0.5 2.5 -0.1
v -0.5 2.6 -0.1
v -0.4 0 -0.1
v -0.4 0.2 -0.1
v -0.4 1.1 -0.1
v -0.4 1.7 -0.1
v -0.4 2.1 -0.1
v -0.4 2.5 -0.1
v -0.2 1.1 -0.1
v -0.2 1.3 -0.1
v -0.2 1.5 -0.1
v -0.2 1.7 -0.1
v 0.1 1.1 -0.1
v 0.1 1.3 -0.1
v 0.1 1.5 -0.1
v 0.1 1.7 -0.1
v -1.2 0.2 -0.2
v -1.2 1.7 -0.2
v -1 1.7 -0.2
v -1 2.1 -0.2
v -0.6 1.7 -0.2
v -0.6 2.1 -0.2
v -0.4 0.2 -0.2
v -0.4 1.7 -0.2
v -0.2 0 1.2
v 0.1 0 1.2
v -0.2 0 0.4
v 0.1 0 0.4
v -1.2 0 0.2
v -0.4 0 0.2
v -1.2 0 -0.1
v -0.4 0 -0.1
v -0.3 0.2 1.2
v -0.2 0.2 1.2
v 0.1 0.2 1.2
v 0.2 0.2 1.2
v -0.3 0.2 0.4
v -0.2 0.2 0.4
v 0.1 0.2 0.4
v 0.2 0.2 0.4
v -1.2 0.2 0.3
v -0.4 0.2 0.3
v -1.2 0.2 0.2
v -0.4 0.2 0.2
v -1.2 0.2 -0.1
v -0.4 0.2 -0.1
v -1.2 0.2 -0.2
v -0.4 0.2 -0.2
v -0.2 1.1 1.6
v 0.1 1.1 1.6
v -0.2 1.1 1.4
v 0.1 1.1 1.4
v -0.2 1.1 1.2
v 0.1 1.1 1.2
v -0.2 1.1 0.4
v 0.1 1.1 0.4
v -1.6 1.1 0.2
v -1.4 1.1 0.2
v -1.2 1.1 0.2
v -0.4 1.1 0.2
v -0.2 1.1 0.2
v 0.1 1.1 0.2
v -1.6 1.1 -0.1
v -1.4 1.1 -0.1
v -1.2 1.1 -0.1
v -0.4 1.1 -0.1
v -0.2 1.1 -0.1
v 0.1 1.1 -0.1
v -0.2 1.5 1.6
v -0.1 1.5 1.6
v 0 1.5 1.6
v 0.1 1.5 1.6
v -0.2 1.5 1.4
v -0.1 1.5 1.4
v 0 1.5 1.4
v 0.1 1.5 1.4
v -1.6 1.5 0.2
v -1.4 1.5 0.2
v -0.2 1.5 0.2
v -0.1 1.5 0.2
v -1.6 1.5 0.1
v -1.4 1.5 0.1
v -0.2 1.5 0.1
v -0.1 1.5 0.1
v -1.6 1.5 0
v -1.4 1.5 0
v -0.2 1.5 0
v 0.1 1.5 0
v -1.6 1.5 -0.1
v -1.4 1.5 -0.1
v -0.2 1.5 -0.1
v 0.1 1.5 -0.1
v -0.2 1.3 1.6
v -0.1 1.3 1.6
v 0 1.3 1.6
v 0.1 1.3 1.6
v -0.2 1.3 1.4
v -0.1 1.3 1.4
v 0 1.3 1.4
v 0.1 1.3 1.4
v -1.6 1.3 0.2
v -1.4 1.3 0.2
v -0.2 1.3 0.2
v -0.1 1.3 0.2
v -1.6 1.3 0.1
v -1.4 1.3 0.1
v -0.2 1.3 0.1
v -0.1 1.3 0.1
v -1.6 1.3 0
v -1.4 1.3 0
v -0.2 1.3 0
v 0.1 1.3 0
v -1.6 1.3 -0.1
v -1.4 1.3 -0.1
v -0.2 1.3 -0.1
v 0.1 1.3 -0.1
v -0.2 1.7 1.6
v 0.1 1.7 1.6
v -0.2 1.7 1.4
v 0.1 1.7 1.4
v -0.3 1.7 1.2
v -0.2 1.7 1.2
v 0.1 1.7 1.2
v 0.2 1.7 1.2
v -0.3 1.7 1
v -0.2 1.7 1
v 0.1 1.7 1
v 0.2 1.7 1
v -0.3 1.7 0.6
v -0.2 1.7 0.6
v 0.1 1.7 0.6
v 0.2 1.7 0.6
v -0.3 1.7 0.4
v -0.2 1.7 0.4
v 0.1 1.7 0.4
v 0.2 1.7 0.4
v -1.2 1.7 0.3
v -1 1.7 0.3
v -0.6 1.7 0.3
v -0.4 1.7 0.3
v -1.6 1.7 0.2
v -1.4 1.7 0.2
v -1.2 1.7 0.2
v -1 1.7 0.2
v -0.6 1.7 0.2
v -0.4 1.7 0.2
v -0.2 1.7 0.2
v 0.1 1.7 0.2
v -1.6 1.7 -0.1
v -1.4 1.7 -0.1
v -1.2 1.7 -0.1
v -1 1.7 -0.1
v -0.6 1.7 -0.1
v -0.4 1.7 -0.1
v -0.2 1.7 -0.1
v 0.1 1.7 -0.1
v -1.2 1.7 -0.2
v -1 1.7 -0.2
v -0.6 1.7 -0.2
v -0.4 1.7 -0.2
v -0.3 2.1 1
v -0.2 2.1 1
v 0.1 2.1 1
v 0.2 2.1 1
v -0.3 2.1 0.6
v -0.2 2.1 0.6
v 0.1 2.1 0.6
v 0.2 2.1 0.6
v -1 2.1 0.3
v -0.6 2.1 0.3
v -1 2.1 0.2
v -0.6 2.1 0.2
v -1 2.1 -0.1
v -0.6 2.1 -0.1
v -1 2.1 -0.2
v -0.6 2.1 -0.2
v -0.2 2.5 1.2
v 0.1 2.5 1.2
v -0.2 2.5 1.1
v 0.1 2.5 1.1
v -0.2 2.5 0.5
v 0.1 2.5 0.5
v -0.2 2.5 0.4
v 0.1 2.5 0.4
v -1.2 2.5 0.2
v -1.1 2.5 0.2
v -0.5 2.5 0.2
v -0.4 2.5 0.2
v -1.2 2.5 -0.1
v -1.1 2.5 -0.1
v -0.5 2.5 -0.1
v -0.4 2.5 -0.1
v -0.2 2.6 1.1
v 0.1 2.6 1.1
v -0.2 2.6 1
v 0.1 2.6 1
v -0.2 2.6 0.6
v 0.1 2.6 0.6
v -0.2 2.6 0.5
v 0.1 2.6 0.5
v -1.1 2.6 0.2
v -1 2.6 0.2
v -0.6 2.6 0.2
v -0.5 2.6 0.2
v -1.1 2.6 -0.1
v -1 2.6 -0.1
v -0.6 2.6 -0.1
v -0.5 2.6 -0.1
v -0.2 2.7 1
v 0.1 2.7 1
v -0.2 2.7 0.6
v 0.1 2.7 0.6
v -1 2.7 0.2
v -0.6 2.7 0.2
v -1 2.7 -0.1
v -0.6 2.7 -0.1

# faces
f 3/5/1 2/5/1 1/5/1
f 4/5/1 2/5/1 3/5/1
f 5/5/1 2/5/1 4/5/1
f 6/5/1 2/5/1 5/5/1
f 8/3/1 5/3/1 4/3/1
f 9/3/1 5/3/1 8/3/1
f 11/5/1 8/5/1 7/5/1
f 11/5/1 10/5/1 9/5/1
f 11/5/1 9/5/1 8/5/1
f 12/5/1 10/5/1 11/5/1
f 17/2/1 14/2/1 13/2/1
f 18/2/1 14/2/1 17/2/1
f 19/2/1 16/2/1 15/2/1
f 20/2/1 16/2/1 19/2/1
f 24/2/1 22/2/1 21/2/1
f 25/2/1 22/2/1 24/2/1
f 27/1/1 24/1/1 23/1/1
f 27/1/1 26/1/1 25/1/1
f 27/1/1 25/1/1 24/1/1
f 28/1/1 26/1/1 27/1/1
f 29/1/1 27/1/1 23/1/1
f 30/1/1 27/1/1 29/1/1
f 31/1/1 26/1/1 28/1/1
f 32/1/1 26/1/1 31/1/1
f 33/4/1 31/4/1 30/4/1
f 34/4/1 31/4/1 33/4/1
f 35/3/1 34/3/1 33/3/1
f 36/3/1 34/3/1 35/3/1
f 39/4/1 38/4/1 37/4/1
f 40/4/1 38/4/1 39/4/1
f 45/1/1 42/1/1 41/1/1
f 46/1/1 42/1/1 45/1/1
f 47/1/1 44/1/1 43/1/1
f 48/1/1 44/1/1 47/1/1
f 51/3/1 50/3/1 49/3/1
f 52/3/1 50/3/1 51/3/1
f 55/1/1 54/1/1 53/1/1
f 56/1/1 54/1/1 55/1/1
f 57/1/1 54/1/1 56/1/1
f 58/1/1 54/1/1 57/1/1
f 59/1/1 57/1/1 56/1/1
f 60/1/1 57/1/1 59/1/1
f 63/2/1 62/2/1 61/2/1
f 64/2/1 62/2/1 63/2/1
f 70/5/1 66/5/1 65/5/1
f 71/2/1 67/2/1 66/2/1
f 71/5/1 66/5/1 70/5/1
f 73/2/1 67/2/1 71/2/1
f 74/5/1 73/5/1 72/5/1
f 75/2/1 67/2/1 73/2/1
f 75/5/1 73/5/1 74/5/1
f 76/2/1 67/2/1 75/2/1
f 79/2/1 69/2/1 68/2/1
f 80/2/1 69/2/1 79/2/1
f 81/4/1 77/4/1 76/4/1
f 82/4/1 77/4/1 81/4/1
f 83/4/1 79/4/1 78/4/1
f 84/4/1 79/4/1 83/4/1
f 85/3/1 82/3/1 81/3/1
f 85/3/1 83/3/1 82/3/1
f 85/3/1 84/3/1 83/3/1
f 86/3/1 84/3/1 85/3/1
f 87/3/1 84/3/1 86/3/1
f 88/3/1 84/3/1 87/3/1
f 89/3/1 84/3/1 88/3/1
f 90/3/1 84/3/1 89/3/1
f 91/4/1 87/4/1 86/4/1
f 92/3/1 88/3/1 87/3/1
f 92/4/1 87/4/1 91/4/1
f 93/4/1 89/4/1 88/4/1
f 93/3/1 88/3/1 92/3/1
f 94/4/1 89/4/1 93/4/1
f 95/3/1 93/3/1 92/3/1
f 96/3/1 93/3/1 95/3/1
f 101/3/1 98/3/1 97/3/1
f 102/3/1 98/3/1 101/3/1
f 103/3/1 100/3/1 99/3/1
f 104/3/1 100/3/1 103/3/1
f 105/1/2 106/1/2 109/1/2
f 109/1/2 106/1/2 110/1/2
f 107/1/2 108/1/2 111/1/2
f 111/1/2 108/1/2 112/1/2
f 113/3/2 114/3/2 115/3/2
f 115/3/2 114/3/2 116/3/2
f 117/4/2 118/4/2 119/4/2
f 119/4/2 118/4/2 120/4/2
f 121/2/2 122/2/2 124/2/2
f 124/2/2 122/2/2 125/2/2
f 123/1/2 124/1/2 127/1/2
f 125/1/2 126/1/2 127/1/2
f 124/1/2 125/1/2 127/1/2
f 127/1/2 126/1/2 128/1/2
f 123/1/2 127/1/2 129/1/2
f 129/1/2 127/1/2 130/1/2
f 128/1/2 126/1/2 131/1/2
f 131/1/2 126/1/2 132/1/2
f 130/4/2 131/4/2 133/4/2
f 133/4/2 131/4/2 134/4/2
f 133/3/2 134/3/2 135/3/2
f 135/3/2 134/3/2 136/3/2
f 137/2/2 138/2/2 141/2/2
f 141/2/2 138/2/2 142/2/2
f 139/2/2 140/2/2 143/2/2
f 143/2/2 140/2/2 144/2/2
f 145/3/2 146/3/2 147/3/2
f 147/3/2 146/3/2 148/3/2
f 149/2/2 150/2/2 151/2/2
f 151/2/2 150/2/2 152/2/2
f 153/5/2 154/5/2 159/5/2
f 154/2/2 155/2/2 160/2/2
f 159/5/2 154/5/2 160/5/2
f 157/5/2 158/5/2 161/5/2
f 156/2/2 157/2/2 161/2/2
f 161/5/2 158/5/2 162/5/2
f 162/5/2 158/5/2 163/5/2
f 160/2/2 155/2/2 165/2/2
f 161/3/2 162/3/2 166/3/2
f 156/2/2 161/2/2 166/2/2
f 166/3/2 162/3/2 167/3/2
f 164/5/2 165/5/2 169/5/2
f 165/2/2 155/2/2 170/2/2
f 169/5/2 165/5/2 170/5/2
f 170/2/2 155/2/2 171/2/2
f 156/2/2 166/2/2 174/2/2
f 167/5/2 168/5/2 175/5/2
f 166/5/2 167/5/2 175/5/2
f 174/2/2 166/2/2 175/2/2
f 175/5/2 168/5/2 176/5/2
f 171/4/2 172/4/2 177/4/2
f 177/4/2 172/4/2 178/4/2
f 173/4/2 174/4/2 179/4/2
f 179/4/2 174/4/2 180/4/2
f 177/3/2 178/3/2 181/3/2
f 178/3/2 179/3/2 181/3/2
f 179/3/2 180/3/2 181/3/2
f 181/3/2 180/3/2 182/3/2
f 182/3/2 180/3/2 183/3/2
f 183/3/2 180/3/2 184/3/2
f 184/3/2 180/3/2 185/3/2
f 185/3/2 180/3/2 186/3/2
f 182/4/2 183/4/2 187/4/2
f 183/3/2 184/3/2 188/3/2
f 187/4/2 183/4/2 188/4/2
f 184/4/2 185/4/2 189/4/2
f 188/3/2 184/3/2 189/3/2
f 189/4/2 185/4/2 190/4/2
f 188/3/2 189/3/2 191/3/2
f 191/3/2 189/3/2 192/3/2
f 193/1/2 194/1/2 195/1/2
f 195/1/2 194/1/2 196/1/2
f 196/1/2 194/1/2 197/1/2
f 197/1/2 194/1/2 198/1/2
f 196/1/2 197/1/2 199/1/2
f 199/1/2 197/1/2 200/1/2
f 205/5/3 202/5/3 201/5/3
f 206/5/3 204/5/3 203/5/3
f 207/5/3 205/5/3 201/5/3
f 207/3/3 206/3/3 205/3/3
f 208/5/3 204/5/3 206/5/3
f 208/3/3 206/3/3 207/3/3
f 209/5/3 207/5/3 201/5/3
f 210/5/3 207/5/3 209/5/3
f 211/5/3 204/5/3 208/5/3
f 212/5/3 204/5/3 211/5/3
f 215/2/3 214/2/3 213/2/3
f 216/2/3 214/2/3 215/2/3
f 219/2/3 218/2/3 217/2/3
f 220/2/3 218/2/3 219/2/3
f 224/1/3 222/1/3 221/1/3
f 225/1/3 222/1/3 224/1/3
f 226/1/3 222/1/3 225/1/3
f 229/2/3 224/2/3 223/2/3
f 230/1/3 225/1/3 224/1/3
f 230/2/3 224/2/3 229/2/3
f 231/1/3 225/1/3 230/1/3
f 232/4/3 227/4/3 226/4/3
f 233/3/3 228/3/3 227/3/3
f 233/4/3 227/4/3 232/4/3
f 234/3/3 228/3/3 233/3/3
f 235/1/3 232/1/3 231/1/3
f 235/1/3 231/1/3 230/1/3
f 236/1/3 232/1/3 235/1/3
f 239/4/3 238/4/3 237/4/3
f 240/4/3 238/4/3 239/4/3
f 243/1/3 242/1/3 241/1/3
f 244/1/3 242/1/3 243/1/3
f 249/3/3 246/3/3 245/3/3
f 250/3/3 246/3/3 249/3/3
f 251/1/3 248/1/3 247/1/3
f 252/1/3 248/1/3 251/1/3
f 255/1/3 254/1/3 253/1/3
f 257/1/3 255/1/3 253/1/3
f 257/1/3 256/1/3 255/1/3
f 258/1/3 256/1/3 257/1/3
f 259/1/3 257/1/3 253/1/3
f 260/1/3 257/1/3 259/1/3
f 265/5/3 262/5/3 261/5/3
f 266/5/3 262/5/3 265/5/3
f 267/5/3 264/5/3 263/5/3
f 268/5/3 264/5/3 267/5/3
f 271/2/3 266/2/3 265/2/3
f 271/2/3 267/2/3 266/2/3
f 271/2/3 268/2/3 267/2/3
f 272/2/3 268/2/3 271/2/3
f 275/3/3 274/3/3 273/3/3
f 277/4/3 273/4/3 272/4/3
f 278/3/3 275/3/3 273/3/3
f 278/4/3 273/4/3 277/4/3
f 279/4/3 276/4/3 275/4/3
f 279/3/3 275/3/3 278/3/3
f 280/4/3 276/4/3 279/4/3
f 283/3/3 281/3/3 280/3/3
f 283/3/3 280/3/3 279/3/3
f 283/3/3 279/3/3 278/3/3
f 284/3/3 281/3/3 283/3/3
f 285/3/3 281/3/3 284/3/3
f 286/3/3 281/3/3 285/3/3
f 287/3/3 284/3/3 283/3/3
f 287/4/3 285/4/3 284/4/3
f 288/4/3 285/4/3 287/4/3
f 289/2/3 270/2/3 269/2/3
f 290/2/3 270/2/3 289/2/3
f 292/4/3 283/4/3 282/4/3
f 293/3/3 287/3/3 283/3/3
f 293/4/3 283/4/3 292/4/3
f 294/3/3 287/3/3 293/3/3
f 295/2/3 292/2/3 291/2/3
f 296/2/3 292/2/3 295/2/3
f 299/3/3 298/3/3 297/3/3
f 300/3/3 298/3/3 299/3/3
f 303/3/3 302/3/3 301/3/3
f 304/3/3 302/3/3 303/3/3
f 305/1/4 306/1/4 307/1/4
f 307/1/4 306/1/4 308/1/4
f 309/3/4 310/3/4 313/3/4
f 313/3/4 310/3/4 314/3/4
f 311/1/4 312/1/4 315/1/4
f 315/1/4 312/1/4 316/1/4
f 317/4/4 318/4/4 319/4/4
f 319/4/4 318/4/4 320/4/4
f 321/1/4 322/1/4 324/1/4
f 324/1/4 322/1/4 325/1/4
f 325/1/4 322/1/4 326/1/4
f 323/2/4 324/2/4 329/2/4
f 324/1/4 325/1/4 330/1/4
f 329/2/4 324/2/4 330/2/4
f 330/1/4 325/1/4 331/1/4
f 326/4/4 327/4/4 332/4/4
f 327/3/4 328/3/4 333/3/4
f 332/4/4 327/4/4 333/4/4
f 333/3/4 328/3/4 334/3/4
f 331/1/4 332/1/4 335/1/4
f 330/1/4 331/1/4 335/1/4
f 335/1/4 332/1/4 336/1/4
f 337/2/4 338/2/4 339/2/4
f 339/2/4 338/2/4 340/2/4
f 341/3/4 342/3/4 343/3/4
f 343/3/4 342/3/4 344/3/4
f 345/3/4 346/3/4 347/3/4
f 347/3/4 346/3/4 348/3/4
f 349/5/4 350/5/4 353/5/4
f 353/5/4 350/5/4 354/5/4
f 351/5/4 352/5/4 355/5/4
f 355/5/4 352/5/4 356/5/4
f 353/2/4 354/2/4 359/2/4
f 354/2/4 355/2/4 359/2/4
f 355/2/4 356/2/4 359/2/4
f 359/2/4 356/2/4 360/2/4
f 361/3/4 362/3/4 363/3/4
f 360/4/4 361/4/4 365/4/4
f 361/3/4 363/3/4 366/3/4
f 365/4/4 361/4/4 366/4/4
f 363/4/4 364/4/4 367/4/4
f 366/3/4 363/3/4 367/3/4
f 367/4/4 364/4/4 368/4/4
f 368/3/4 369/3/4 371/3/4
f 367/3/4 368/3/4 371/3/4
f 366/3/4 367/3/4 371/3/4
f 371/3/4 369/3/4 372/3/4
f 372/3/4 369/3/4 373/3/4
f 373/3/4 369/3/4 374/3/4
f 371/3/4 372/3/4 375/3/4
f 372/4/4 373/4/4 375/4/4
f 375/4/4 373/4/4 376/4/4
f 357/2/4 358/2/4 377/2/4
f 377/2/4 358/2/4 378/2/4
f 370/4/4 371/4/4 380/4/4
f 371/3/4 375/3/4 381/3/4
f 380/4/4 371/4/4 381/4/4
f 381/3/4 375/3/4 382/3/4
f 379/2/4 380/2/4 383/2/4
f 383/2/4 380/2/4 384/2/4
f 384/2/4 380/2/4 385/2/4
f 385/2/4 380/2/4 386/2/4
f 383/5/4 384/5/4 387/5/4
f 387/5/4 384/5/4 388/5/4
f 385/5/4 386/5/4 389/5/4
f 389/5/4 386/5/4 390/5/4
f 391/1/4 392/1/4 393/1/4
f 391/1/4 393/1/4 395/1/4
f 393/1/4 394/1/4 395/1/4
f 395/1/4 394/1/4 396/1/4
f 391/1/4 395/1/4 397/1/4
f 397/1/4 395/1/4 398/1/4
f 401/2/5 400/2/5 399/2/5
f 402/2/5 400/2/5 401/2/5
f 405/2/5 404/2/5 403/2/5
f 406/2/5 404/2/5 405/2/5
f 411/1/5 408/1/5 407/1/5
f 412/1/5 408/1/5 411/1/5
f 413/1/5 410/1/5 409/1/5
f 414/1/5 410/1/5 413/1/5
f 417/1/5 416/1/5 415/1/5
f 418/1/5 416/1/5 417/1/5
f 421/1/5 420/1/5 419/1/5
f 422/1/5 420/1/5 421/1/5
f 425/5/5 424/5/5 423/5/5
f 426/5/5 424/5/5 425/5/5
f 427/2/5 426/2/5 425/2/5
f 428/2/5 426/2/5 427/2/5
f 435/2/5 430/2/5 429/2/5
f 436/2/5 430/2/5 435/2/5
f 437/5/5 432/5/5 431/5/5
f 438/2/5 433/2/5 432/2/5
f 438/5/5 432/5/5 437/5/5
f 439/2/5 433/2/5 438/2/5
f 440/2/5 435/2/5 434/2/5
f 441/5/5 436/5/5 435/5/5
f 441/2/5 435/2/5 440/2/5
f 442/5/5 436/5/5 441/5/5
f 447/5/5 444/5/5 443/5/5
f 448/5/5 444/5/5 447/5/5
f 449/5/5 446/5/5 445/5/5
f 450/5/5 446/5/5 449/5/5
f 455/5/5 452/5/5 451/5/5
f 456/5/5 452/5/5 455/5/5
f 457/5/5 454/5/5 453/5/5
f 458/5/5 454/5/5 457/5/5
f 463/5/5 460/5/5 459/5/5
f 464/5/5 460/5/5 463/5/5
f 465/5/5 462/5/5 461/5/5
f 466/5/5 462/5/5 465/5/5
f 467/5/6 468/5/6 471/5/6
f 471/5/6 468/5/6 472/5/6
f 469/5/6 470/5/6 473/5/6
f 473/5/6 470/5/6 474/5/6
f 475/5/6 476/5/6 479/5/6
f 479/5/6 476/5/6 480/5/6
f 477/5/6 478/5/6 481/5/6
f 481/5/6 478/5/6 482/5/6
f 483/5/6 484/5/6 487/5/6
f 487/5/6 484/5/6 488/5/6
f 485/5/6 486/5/6 489/5/6
f 489/5/6 486/5/6 490/5/6
f 491/5/6 492/5/6 493/5/6
f 493/5/6 492/5/6 494/5/6
f 493/2/6 494/2/6 496/2/6
f 496/2/6 494/2/6 497/2/6
f 495/1/6 496/1/6 499/1/6
f 499/1/6 496/1/6 500/1/6
f 497/1/6 498/1/6 501/1/6
f 501/1/6 498/1/6 502/1/6
f 503/1/6 504/1/6 507/1/6
f 507/1/6 504/1/6 508/1/6
f 505/1/6 506/1/6 509/1/6
f 509/1/6 506/1/6 510/1/6
f 511/1/6 512/1/6 517/1/6
f 517/1/6 512/1/6 518/1/6
f 513/1/6 514/1/6 519/1/6
f 519/1/6 514/1/6 520/1/6
f 508/2/6 509/2/6 521/2/6
f 521/2/6 509/2/6 522/2/6
f 515/5/6 516/5/6 523/5/6
f 516/2/6 517/2/6 524/2/6
f 523/5/6 516/5/6 524/5/6
f 524/2/6 517/2/6 525/2/6
f 520/2/6 521/2/6 528/2/6
f 521/5/6 522/5/6 529/5/6
f 528/2/6 521/2/6 529/2/6
f 529/5/6 522/5/6 530/5/6
f 525/1/6 526/1/6 531/1/6
f 531/1/6 526/1/6 532/1/6
f 527/1/6 528/1/6 533/1/6
f 533/1/6 528/1/6 534/1/6
f 535/1/6 536/1/6 539/1/6
f 539/1/6 536/1/6 540/1/6
f 537/1/6 538/1/6 541/1/6
f 541/1/6 538/1/6 542/1/6
f 543/1/6 544/1/6 545/1/6
f 545/1/6 544/1/6 546/1/6
f 547/1/6 548/1/6 549/1/6
f 549/1/6 548/1/6 550/1/6
f 551/3/6 552/3/6 553/3/6
f 553/3/6 552/3/6 554/3/6
f 555/3/6 556/3/6 557/3/6
f 557/3/6 556/3/6 558/3/6
f 559/3/6 560/3/6 563/3/6
f 563/3/6 560/3/6 564/3/6
f 561/3/6 562/3/6 565/3/6
f 565/3/6 562/3/6 566/3/6
f 567/4/6 568/4/6 569/4/6
f 569/4/6 568/4/6 570/4/6
f 571/4/6 572/4/6 573/4/6
f 573/4/6 572/4/6 574/4/6
f 575/4/6 576/4/6 579/4/6
f 579/4/6 576/4/6 580/4/6
f 577/4/6 578/4/6 581/4/6
f 581/4/6 578/4/6 582/4/6
f 583/3/6 584/3/6 585/3/6
f 585/3/6 584/3/6 586/3/6
f 587/3/6 588/3/6 589/3/6
f 589/3/6 588/3/6 590/3/6
