# MagicaVoxel @ Ephtracy

# group
o 

# material
mtllib goldeen-6.mtl
usemtl palette

# normals
vn -1 0 0
vn 1 0 0
vn 0 0 1
vn 0 0 -1
vn 0 -1 0
vn 0 1 0

# texcoords
vt 0.876953 0.5
vt 0.880859 0.5
vt 0.888672 0.5

# verts
v -0.1 3.1 1.3
v -0.1 3.1 1.1
v -0.1 3.2 1.3
v -0.1 3.2 1.1
v 0 2.9 1.3
v 0 2.9 1.2
v 0 3 1.4
v 0 3 1.3
v 0 3.1 1.3
v 0 3.1 1.2
v 0 3.2 1.4
v 0 3.2 1.3
v 0.2 3.3 1.1
v 0.2 3.3 1
v 0.2 3.4 1
v 0.2 3.4 0.9
v 0.2 3.5 1.2
v 0.2 3.5 1.1
v 0.2 3.6 1
v 0.2 3.6 0.9
v 0.2 3.8 1.1
v 0.2 3.8 1
v 0.2 3.9 1.2
v 0.2 3.9 1.1
v 0.5 2.9 1.3
v 0.5 2.9 1.2
v 0.5 3 1.4
v 0.5 3 1.3
v 0.5 3.1 1.3
v 0.5 3.1 1.2
v 0.5 3.2 1.4
v 0.5 3.2 1.2
v 0.6 3.1 1.2
v 0.6 3.1 1.1
v 0.6 3.2 1.2
v 0.6 3.2 1.1
v 0 3.1 1.2
v 0 3.1 1.1
v 0 3.2 1.2
v 0 3.2 1.1
v 0.1 2.9 1.3
v 0.1 2.9 1.2
v 0.1 3 1.4
v 0.1 3 1.3
v 0.1 3.1 1.3
v 0.1 3.1 1.2
v 0.1 3.2 1.4
v 0.1 3.2 1.2
v 0.4 3.3 1.1
v 0.4 3.3 1
v 0.4 3.4 1
v 0.4 3.4 0.9
v 0.4 3.5 1.2
v 0.4 3.5 1.1
v 0.4 3.6 1
v 0.4 3.6 0.9
v 0.4 3.8 1.1
v 0.4 3.8 1
v 0.4 3.9 1.2
v 0.4 3.9 1.1
v 0.6 2.9 1.3
v 0.6 2.9 1.2
v 0.6 3 1.4
v 0.6 3 1.3
v 0.6 3.1 1.3
v 0.6 3.1 1.2
v 0.6 3.2 1.4
v 0.6 3.2 1.3
v 0.7 3.1 1.3
v 0.7 3.1 1.1
v 0.7 3.2 1.3
v 0.7 3.2 1.1
v 0 3 1.4
v 0 3.2 1.4
v 0.1 3 1.4
v 0.1 3.2 1.4
v 0.5 3 1.4
v 0.5 3.2 1.4
v 0.6 3 1.4
v 0.6 3.2 1.4
v -0.1 3.1 1.3
v -0.1 3.2 1.3
v 0 2.9 1.3
v 0 3 1.3
v 0 3.1 1.3
v 0 3.2 1.3
v 0.1 2.9 1.3
v 0.1 3 1.3
v 0.5 2.9 1.3
v 0.5 3 1.3
v 0.6 2.9 1.3
v 0.6 3 1.3
v 0.6 3.1 1.3
v 0.6 3.2 1.3
v 0.7 3.1 1.3
v 0.7 3.2 1.3
v 0.2 3.5 1.2
v 0.2 3.9 1.2
v 0.4 3.5 1.2
v 0.4 3.9 1.2
v 0.2 3.3 1.1
v 0.2 3.5 1.1
v 0.4 3.3 1.1
v 0.4 3.5 1.1
v 0 2.9 1.2
v 0 3.1 1.2
v 0 3.2 1.2
v 0.1 2.9 1.2
v 0.1 3.1 1.2
v 0.1 3.2 1.2
v 0.5 2.9 1.2
v 0.5 3.1 1.2
v 0.5 3.2 1.2
v 0.6 2.9 1.2
v 0.6 3.1 1.2
v 0.6 3.2 1.2
v -0.1 3.1 1.1
v -0.1 3.2 1.1
v 0 3.1 1.1
v 0 3.2 1.1
v 0.2 3.8 1.1
v 0.2 3.9 1.1
v 0.4 3.8 1.1
v 0.4 3.9 1.1
v 0.6 3.1 1.1
v 0.6 3.2 1.1
v 0.7 3.1 1.1
v 0.7 3.2 1.1
v 0.2 3.3 1
v 0.2 3.4 1
v 0.2 3.6 1
v 0.2 3.8 1
v 0.4 3.3 1
v 0.4 3.4 1
v 0.4 3.6 1
v 0.4 3.8 1
v 0.2 3.4 0.9
v 0.2 3.6 0.9
v 0.4 3.4 0.9
v 0.4 3.6 0.9
v 0 2.9 1.3
v 0.1 2.9 1.3
v 0.5 2.9 1.3
v 0.6 2.9 1.3
v 0 2.9 1.2
v 0.1 2.9 1.2
v 0.5 2.9 1.2
v 0.6 2.9 1.2
v 0 3 1.4
v 0.1 3 1.4
v 0.5 3 1.4
v 0.6 3 1.4
v 0 3 1.3
v 0.1 3 1.3
v 0.5 3 1.3
v 0.6 3 1.3
v -0.1 3.1 1.3
v 0 3.1 1.3
v 0.6 3.1 1.3
v 0.7 3.1 1.3
v 0 3.1 1.2
v 0.6 3.1 1.2
v -0.1 3.1 1.1
v 0 3.1 1.1
v 0.6 3.1 1.1
v 0.7 3.1 1.1
v 0.2 3.3 1.1
v 0.4 3.3 1.1
v 0.2 3.3 1
v 0.4 3.3 1
v 0.2 3.4 1
v 0.4 3.4 1
v 0.2 3.4 0.9
v 0.4 3.4 0.9
v 0.2 3.5 1.2
v 0.4 3.5 1.2
v 0.2 3.5 1.1
v 0.4 3.5 1.1
v 0 3.2 1.4
v 0.1 3.2 1.4
v 0.5 3.2 1.4
v 0.6 3.2 1.4
v -0.1 3.2 1.3
v 0 3.2 1.3
v 0.6 3.2 1.3
v 0.7 3.2 1.3
v 0 3.2 1.2
v 0.1 3.2 1.2
v 0.5 3.2 1.2
v 0.6 3.2 1.2
v -0.1 3.2 1.1
v 0 3.2 1.1
v 0.6 3.2 1.1
v 0.7 3.2 1.1
v 0.2 3.6 1
v 0.4 3.6 1
v 0.2 3.6 0.9
v 0.4 3.6 0.9
v 0.2 3.8 1.1
v 0.4 3.8 1.1
v 0.2 3.8 1
v 0.4 3.8 1
v 0.2 3.9 1.2
v 0.4 3.9 1.2
v 0.2 3.9 1.1
v 0.4 3.9 1.1

# faces
f 3/2/1 2/2/1 1/2/1
f 4/2/1 2/2/1 3/2/1
f 8/1/1 6/1/1 5/1/1
f 9/1/1 6/1/1 8/1/1
f 9/2/1 8/2/1 7/2/1
f 10/1/1 6/1/1 9/1/1
f 11/2/1 9/2/1 7/2/1
f 12/2/1 9/2/1 11/2/1
f 15/3/1 14/3/1 13/3/1
f 18/3/1 15/3/1 13/3/1
f 18/3/1 16/3/1 15/3/1
f 19/3/1 16/3/1 18/3/1
f 19/3/1 18/3/1 17/3/1
f 20/3/1 16/3/1 19/3/1
f 21/3/1 19/3/1 17/3/1
f 22/3/1 19/3/1 21/3/1
f 23/3/1 21/3/1 17/3/1
f 24/3/1 21/3/1 23/3/1
f 28/1/1 26/1/1 25/1/1
f 29/1/1 26/1/1 28/1/1
f 29/2/1 28/2/1 27/2/1
f 30/1/1 26/1/1 29/1/1
f 31/2/1 29/2/1 27/2/1
f 31/2/1 30/2/1 29/2/1
f 32/2/1 30/2/1 31/2/1
f 35/2/1 34/2/1 33/2/1
f 36/2/1 34/2/1 35/2/1
f 37/2/2 38/2/2 39/2/2
f 39/2/2 38/2/2 40/2/2
f 41/1/2 42/1/2 44/1/2
f 44/1/2 42/1/2 45/1/2
f 43/2/2 44/2/2 45/2/2
f 45/1/2 42/1/2 46/1/2
f 43/2/2 45/2/2 47/2/2
f 45/2/2 46/2/2 47/2/2
f 47/2/2 46/2/2 48/2/2
f 49/3/2 50/3/2 51/3/2
f 49/3/2 51/3/2 54/3/2
f 51/3/2 52/3/2 54/3/2
f 54/3/2 52/3/2 55/3/2
f 53/3/2 54/3/2 55/3/2
f 55/3/2 52/3/2 56/3/2
f 53/3/2 55/3/2 57/3/2
f 57/3/2 55/3/2 58/3/2
f 53/3/2 57/3/2 59/3/2
f 59/3/2 57/3/2 60/3/2
f 61/1/2 62/1/2 64/1/2
f 64/1/2 62/1/2 65/1/2
f 63/2/2 64/2/2 65/2/2
f 65/1/2 62/1/2 66/1/2
f 63/2/2 65/2/2 67/2/2
f 67/2/2 65/2/2 68/2/2
f 69/2/2 70/2/2 71/2/2
f 71/2/2 70/2/2 72/2/2
f 75/2/3 74/2/3 73/2/3
f 76/2/3 74/2/3 75/2/3
f 79/2/3 78/2/3 77/2/3
f 80/2/3 78/2/3 79/2/3
f 85/2/3 82/2/3 81/2/3
f 86/2/3 82/2/3 85/2/3
f 87/1/3 84/1/3 83/1/3
f 88/1/3 84/1/3 87/1/3
f 91/1/3 90/1/3 89/1/3
f 92/1/3 90/1/3 91/1/3
f 95/2/3 94/2/3 93/2/3
f 96/2/3 94/2/3 95/2/3
f 99/3/3 98/3/3 97/3/3
f 100/3/3 98/3/3 99/3/3
f 103/3/3 102/3/3 101/3/3
f 104/3/3 102/3/3 103/3/3
f 105/1/4 106/1/4 108/1/4
f 106/2/4 107/2/4 109/2/4
f 108/1/4 106/1/4 109/1/4
f 109/2/4 107/2/4 110/2/4
f 111/1/4 112/1/4 114/1/4
f 112/2/4 113/2/4 115/2/4
f 114/1/4 112/1/4 115/1/4
f 115/2/4 113/2/4 116/2/4
f 117/2/4 118/2/4 119/2/4
f 119/2/4 118/2/4 120/2/4
f 121/3/4 122/3/4 123/3/4
f 123/3/4 122/3/4 124/3/4
f 125/2/4 126/2/4 127/2/4
f 127/2/4 126/2/4 128/2/4
f 129/3/4 130/3/4 133/3/4
f 133/3/4 130/3/4 134/3/4
f 131/3/4 132/3/4 135/3/4
f 135/3/4 132/3/4 136/3/4
f 137/3/4 138/3/4 139/3/4
f 139/3/4 138/3/4 140/3/4
f 145/1/5 142/1/5 141/1/5
f 146/1/5 142/1/5 145/1/5
f 147/1/5 144/1/5 143/1/5
f 148/1/5 144/1/5 147/1/5
f 153/2/5 150/2/5 149/2/5
f 154/2/5 150/2/5 153/2/5
f 155/2/5 152/2/5 151/2/5
f 156/2/5 152/2/5 155/2/5
f 161/2/5 158/2/5 157/2/5
f 162/2/5 160/2/5 159/2/5
f 163/2/5 161/2/5 157/2/5
f 164/2/5 161/2/5 163/2/5
f 165/2/5 160/2/5 162/2/5
f 166/2/5 160/2/5 165/2/5
f 169/3/5 168/3/5 167/3/5
f 170/3/5 168/3/5 169/3/5
f 173/3/5 172/3/5 171/3/5
f 174/3/5 172/3/5 173/3/5
f 177/3/5 176/3/5 175/3/5
f 178/3/5 176/3/5 177/3/5
f 179/2/6 180/2/6 184/2/6
f 181/2/6 182/2/6 185/2/6
f 183/2/6 184/2/6 187/2/6
f 184/2/6 180/2/6 187/2/6
f 187/2/6 180/2/6 188/2/6
f 185/2/6 186/2/6 189/2/6
f 181/2/6 185/2/6 189/2/6
f 189/2/6 186/2/6 190/2/6
f 183/2/6 187/2/6 191/2/6
f 191/2/6 187/2/6 192/2/6
f 190/2/6 186/2/6 193/2/6
f 193/2/6 186/2/6 194/2/6
f 195/3/6 196/3/6 197/3/6
f 197/3/6 196/3/6 198/3/6
f 199/3/6 200/3/6 201/3/6
f 201/3/6 200/3/6 202/3/6
f 203/3/6 204/3/6 205/3/6
f 205/3/6 204/3/6 206/3/6
