# MagicaVoxel @ Ephtracy

# group
o 

# material
mtllib house-desk.mtl
usemtl palette

# normals
vn 0 1 0
vn 0 -1 0
vn 0 0 1
vn 0 0 -1
vn -1 0 0
vn 1 0 0

# texcoords
vt 0.0292969 0.5
vt 0.0332031 0.5
vt 0.369141 0.5

# verts
v -0.8 3 1.5
v -0.8 3 0.6
v -0.8 3 -2.4
v -0.7 3 1.4
v -0.7 3 0.6
v 0.2 3 -0.7
v 0.2 3 -1.8
v 0.2 3 -1.9
v 0.2 3 -2.1
v 0.4 3 0.6
v 0.4 3 -0.7
v 0.4 3 -1.8
v 0.4 3 -1.9
v 0.4 3 -2.1
v 0.5 3 1.1
v 0.5 3 0.6
v 0.5 3 -0.7
v 0.7 3 1.1
v 0.7 3 0.6
v 1 3 1.5
v 1 3 1.4
v 1.1 3 1.5
v 1.1 3 1.4
v 1.3 3 1.5
v 1.3 3 1.4
v 1.6 3 1.2
v 1.6 3 0.9
v 1.6 3 0.6
v 1.6 3 0.5
v 1.7 3 1.2
v 1.7 3 0.9
v 1.7 3 0.6
v 1.7 3 0.5
v 1.7 3 -1.8
v 1.9 3 0.5
v 1.9 3 -1.8
v 2.8 3 1.1
v 2.8 3 0.5
v 2.9 3 1.1
v 2.9 3 0.5
v 2.9 3 -2.1
v 3.1 3 0.5
v 3.1 3 -2.1
v 4.1 3 0.6
v 4.1 3 -1
v 4.3 3 1.1
v 4.3 3 0.6
v 4.3 3 -1
v 4.3 3 -1.8
v 4.4 3 1.1
v 4.4 3 0.6
v 4.4 3 -1
v 4.4 3 -1.8
v 5.3 3 1.2
v 5.3 3 0.8
v 5.3 3 -1
v 5.3 3 -1.9
v 5.5 3 1.2
v 5.5 3 0.8
v 5.5 3 0.6
v 5.5 3 -1
v 5.5 3 -1.9
v 5.6 3 0.6
v 5.6 3 -1
v 6.4 3 1.5
v 6.4 3 -2.4
v 3.8 1.9 1.1
v 3.8 1.9 1
v 5.8 1.9 1.1
v 5.8 1.9 1
v 5.9 1.9 1
v 5.9 1.9 0.9
v 6 1.9 1
v 6 1.9 0.9
v 3.8 0.8 1.2
v 3.8 0.8 1.1
v 5.8 0.8 1.2
v 5.8 0.8 1.1
v -0.8 2.7 1.5
v -0.8 2.7 1.4
v -0.8 2.7 -2.4
v -0.7 2.7 1.5
v -0.7 2.7 1.4
v -0.4 2.7 1.1
v -0.4 2.7 0.3
v -0.4 2.7 -1.2
v -0.4 2.7 -1.9
v 0.4 2.7 1.1
v 0.4 2.7 0.3
v 0.4 2.7 -1.2
v 0.4 2.7 -1.9
v 3.6 2.7 1.2
v 3.6 2.7 -1.9
v 3.8 2.7 1.2
v 3.8 2.7 1.1
v 5.8 2.7 1.2
v 5.8 2.7 1.1
v 6 2.7 1.2
v 6 2.7 -1.9
v 6.4 2.7 1.5
v 6.4 2.7 -2.4
v 3.8 2 1.1
v 3.8 2 1
v 5.8 2 1.1
v 5.8 2 1
v 5.9 2 1
v 5.9 2 0.9
v 6 2 1
v 6 2 0.9
v 3.6 0.6 1.2
v 3.6 0.6 -1.9
v 5.2 0.6 1.1
v 5.2 0.6 0.3
v 5.2 0.6 -1.2
v 5.2 0.6 -1.9
v 5.9 0.6 1.1
v 5.9 0.6 0.3
v 5.9 0.6 -1.2
v 5.9 0.6 -1.9
v 6 0.6 1.2
v 6 0.6 -1.9
v -0.4 2.38419e-07 1.1
v -0.4 2.38419e-07 0.3
v -0.4 2.38419e-07 -1.2
v -0.4 2.38419e-07 -1.9
v 0.4 2.38419e-07 1.1
v 0.4 2.38419e-07 0.3
v 0.4 2.38419e-07 -1.2
v 0.4 2.38419e-07 -1.9
v 5.2 2.38419e-07 1.1
v 5.2 2.38419e-07 0.3
v 5.2 2.38419e-07 -1.2
v 5.2 2.38419e-07 -1.9
v 5.9 2.38419e-07 1.1
v 5.9 2.38419e-07 0.3
v 5.9 2.38419e-07 -1.2
v 5.9 2.38419e-07 -1.9
v -0.8 3 1.5
v 1 3 1.5
v 1.1 3 1.5
v 1.3 3 1.5
v 6.4 3 1.5
v -0.7 2.9 1.5
v 1 2.9 1.5
v 1.1 2.9 1.5
v 1.3 2.9 1.5
v -0.8 2.7 1.5
v -0.7 2.7 1.5
v 6.4 2.7 1.5
v 3.6 2.7 1.2
v 3.8 2.7 1.2
v 5.8 2.7 1.2
v 6 2.7 1.2
v 3.8 0.8 1.2
v 5.8 0.8 1.2
v 3.6 0.6 1.2
v 6 0.6 1.2
v -0.4 2.7 1.1
v 0.4 2.7 1.1
v 3.8 2.7 1.1
v 5.8 2.7 1.1
v 4.6 2.6 1.1
v 5 2.6 1.1
v 4.6 2.4 1.1
v 5 2.4 1.1
v -0.4 2.3 1.1
v -0.2 2.3 1.1
v -0.4 2.1 1.1
v -0.2 2.1 1.1
v -0.4 2 1.1
v -0.2 2 1.1
v 3.8 2 1.1
v 5.8 2 1.1
v 3.8 1.9 1.1
v 5.8 1.9 1.1
v 4.6 1.8 1.1
v 5 1.8 1.1
v 4.6 1.6 1.1
v 5 1.6 1.1
v 3.8 0.8 1.1
v 5.8 0.8 1.1
v 5.2 0.6 1.1
v 5.9 0.6 1.1
v 5.2 0.4 1.1
v 5.3 0.4 1.1
v -0.4 0.2 1.1
v -0.2 0.2 1.1
v 5.2 0.1 1.1
v 5.3 0.1 1.1
v -0.4 2.38419e-07 1.1
v 0.4 2.38419e-07 1.1
v 5.2 2.38419e-07 1.1
v 5.9 2.38419e-07 1.1
v 3.8 2 1
v 5.8 2 1
v 3.8 1.9 1
v 5.8 1.9 1
v 5.9 2 0.9
v 6 2 0.9
v 5.9 1.9 0.9
v 6 1.9 0.9
v -0.4 2.7 -1.2
v 0.4 2.7 -1.2
v -0.4 2.3 -1.2
v -0.2 2.3 -1.2
v -0.4 2.2 -1.2
v -0.2 2.2 -1.2
v -0.4 2.1 -1.2
v -0.2 2.1 -1.2
v 5.2 0.6 -1.2
v 5.9 0.6 -1.2
v -0.4 0.2 -1.2
v -0.2 0.2 -1.2
v -0.4 2.38419e-07 -1.2
v 0.4 2.38419e-07 -1.2
v 5.2 2.38419e-07 -1.2
v 5.9 2.38419e-07 -1.2
v 5.9 2 1
v 6 2 1
v 5.9 1.9 1
v 6 1.9 1
v -0.4 2.7 0.3
v 0.4 2.7 0.3
v 5.2 0.6 0.3
v 5.9 0.6 0.3
v -0.4 2.38419e-07 0.3
v 0.4 2.38419e-07 0.3
v 5.2 2.38419e-07 0.3
v 5.9 2.38419e-07 0.3
v -0.4 2.7 -1.9
v 0.4 2.7 -1.9
v 3.6 2.7 -1.9
v 6 2.7 -1.9
v 3.6 0.6 -1.9
v 5.2 0.6 -1.9
v 5.9 0.6 -1.9
v 6 0.6 -1.9
v -0.4 2.38419e-07 -1.9
v 0.4 2.38419e-07 -1.9
v 5.2 2.38419e-07 -1.9
v 5.9 2.38419e-07 -1.9
v -0.8 3 -2.4
v 6.4 3 -2.4
v -0.8 2.7 -2.4
v 6.4 2.7 -2.4
v -0.8 3 1.5
v -0.8 2.7 1.5
v -0.8 2.9 1.4
v -0.8 2.7 1.4
v -0.8 3 0.6
v -0.8 2.9 0.6
v -0.8 3 -2.4
v -0.8 2.7 -2.4
v -0.4 2.7 1.1
v -0.4 2.3 1.1
v -0.4 2.1 1.1
v -0.4 2 1.1
v -0.4 0.2 1.1
v -0.4 2.38419e-07 1.1
v -0.4 2.3 0.9
v -0.4 2.1 0.9
v -0.4 2 0.9
v -0.4 0.2 0.9
v -0.4 2.7 0.3
v -0.4 2.38419e-07 0.3
v -0.4 2.7 -1.2
v -0.4 2.3 -1.2
v -0.4 2.2 -1.2
v -0.4 2.1 -1.2
v -0.4 0.2 -1.2
v -0.4 2.38419e-07 -1.2
v -0.4 2.3 -1.3
v -0.4 2.2 -1.3
v -0.4 2.1 -1.3
v -0.4 0.2 -1.3
v -0.4 2.7 -1.9
v -0.4 2.38419e-07 -1.9
v 3.6 2.7 1.2
v 3.6 0.6 1.2
v 3.6 2.7 -1.9
v 3.6 0.6 -1.9
v 5.2 0.6 1.1
v 5.2 0.4 1.1
v 5.2 0.1 1.1
v 5.2 2.38419e-07 1.1
v 5.2 0.4 0.9
v 5.2 0.1 0.9
v 5.2 0.6 0.3
v 5.2 2.38419e-07 0.3
v 5.2 0.6 -1.2
v 5.2 2.38419e-07 -1.2
v 5.2 0.6 -1.9
v 5.2 2.38419e-07 -1.9
v 5.8 2.7 1.2
v 5.8 0.8 1.2
v 5.8 2.7 1.1
v 5.8 2 1.1
v 5.8 1.9 1.1
v 5.8 0.8 1.1
v 5.8 2 1
v 5.8 1.9 1
v 0.4 2.7 1.1
v 0.4 2.38419e-07 1.1
v 0.4 2.7 0.3
v 0.4 2.38419e-07 0.3
v 0.4 2.7 -1.2
v 0.4 2.38419e-07 -1.2
v 0.4 2.7 -1.9
v 0.4 2.38419e-07 -1.9
v 3.8 2.7 1.2
v 3.8 0.8 1.2
v 3.8 2.7 1.1
v 3.8 2 1.1
v 3.8 1.9 1.1
v 3.8 0.8 1.1
v 3.8 2 1
v 3.8 1.9 1
v 5.9 0.6 1.1
v 5.9 2.38419e-07 1.1
v 5.9 2 1
v 5.9 1.9 1
v 5.9 2 0.9
v 5.9 1.9 0.9
v 5.9 0.6 0.3
v 5.9 2.38419e-07 0.3
v 5.9 0.6 -1.2
v 5.9 2.38419e-07 -1.2
v 5.9 0.6 -1.9
v 5.9 2.38419e-07 -1.9
v 6 2.7 1.2
v 6 0.6 1.2
v 6 2 1
v 6 1.9 1
v 6 2 0.9
v 6 1.9 0.9
v 6 2.7 -1.9
v 6 0.6 -1.9
v 6.4 3 1.5
v 6.4 2.7 1.5
v 6.4 3 -2.4
v 6.4 2.7 -2.4

# faces
f 4/2/1 2/2/1 1/2/1
f 5/3/1 3/3/1 2/3/1
f 5/2/1 2/2/1 4/2/1
f 6/3/1 5/3/1 4/3/1
f 6/3/1 3/3/1 5/3/1
f 7/3/1 3/3/1 6/3/1
f 8/3/1 3/3/1 7/3/1
f 9/3/1 3/3/1 8/3/1
f 10/3/1 6/3/1 4/3/1
f 11/1/1 7/1/1 6/1/1
f 11/3/1 6/3/1 10/3/1
f 12/3/1 8/3/1 7/3/1
f 12/1/1 7/1/1 11/1/1
f 13/1/1 9/1/1 8/1/1
f 13/3/1 8/3/1 12/3/1
f 14/3/1 3/3/1 9/3/1
f 14/1/1 9/1/1 13/1/1
f 15/3/1 10/3/1 4/3/1
f 16/1/1 11/1/1 10/1/1
f 16/3/1 10/3/1 15/3/1
f 17/3/1 13/3/1 12/3/1
f 17/1/1 11/1/1 16/1/1
f 17/3/1 12/3/1 11/3/1
f 17/3/1 14/3/1 13/3/1
f 18/1/1 16/1/1 15/1/1
f 18/3/1 15/3/1 4/3/1
f 19/3/1 17/3/1 16/3/1
f 19/1/1 16/1/1 18/1/1
f 20/2/1 4/2/1 1/2/1
f 21/3/1 18/3/1 4/3/1
f 21/2/1 4/2/1 20/2/1
f 21/3/1 19/3/1 18/3/1
f 22/3/1 21/3/1 20/3/1
f 23/3/1 19/3/1 21/3/1
f 23/3/1 21/3/1 22/3/1
f 24/2/1 23/2/1 22/2/1
f 25/3/1 19/3/1 23/3/1
f 25/2/1 23/2/1 24/2/1
f 26/3/1 25/3/1 24/3/1
f 26/3/1 19/3/1 25/3/1
f 27/3/1 19/3/1 26/3/1
f 28/3/1 17/3/1 19/3/1
f 28/3/1 19/3/1 27/3/1
f 29/3/1 17/3/1 28/3/1
f 30/1/1 27/1/1 26/1/1
f 30/3/1 26/3/1 24/3/1
f 31/3/1 28/3/1 27/3/1
f 31/1/1 27/1/1 30/1/1
f 32/1/1 29/1/1 28/1/1
f 32/3/1 28/3/1 31/3/1
f 33/3/1 17/3/1 29/3/1
f 33/1/1 29/1/1 32/1/1
f 34/3/1 14/3/1 17/3/1
f 34/3/1 17/3/1 33/3/1
f 35/3/1 32/3/1 31/3/1
f 35/3/1 33/3/1 32/3/1
f 35/1/1 34/1/1 33/1/1
f 35/3/1 31/3/1 30/3/1
f 36/3/1 14/3/1 34/3/1
f 36/1/1 34/1/1 35/1/1
f 37/3/1 35/3/1 30/3/1
f 37/3/1 36/3/1 35/3/1
f 38/3/1 36/3/1 37/3/1
f 39/3/1 37/3/1 30/3/1
f 39/1/1 38/1/1 37/1/1
f 40/3/1 36/3/1 38/3/1
f 40/1/1 38/1/1 39/1/1
f 41/3/1 14/3/1 36/3/1
f 41/3/1 36/3/1 40/3/1
f 41/3/1 3/3/1 14/3/1
f 42/3/1 40/3/1 39/3/1
f 42/1/1 41/1/1 40/1/1
f 43/3/1 3/3/1 41/3/1
f 43/1/1 41/1/1 42/1/1
f 44/3/1 42/3/1 39/3/1
f 44/3/1 43/3/1 42/3/1
f 45/3/1 43/3/1 44/3/1
f 46/3/1 39/3/1 30/3/1
f 46/3/1 44/3/1 39/3/1
f 47/1/1 45/1/1 44/1/1
f 47/3/1 44/3/1 46/3/1
f 48/3/1 43/3/1 45/3/1
f 48/1/1 45/1/1 47/1/1
f 49/3/1 43/3/1 48/3/1
f 50/1/1 47/1/1 46/1/1
f 50/3/1 46/3/1 30/3/1
f 51/3/1 48/3/1 47/3/1
f 51/1/1 47/1/1 50/1/1
f 52/1/1 49/1/1 48/1/1
f 52/3/1 48/3/1 51/3/1
f 53/3/1 43/3/1 49/3/1
f 53/1/1 49/1/1 52/1/1
f 54/3/1 30/3/1 24/3/1
f 54/3/1 52/3/1 51/3/1
f 54/3/1 53/3/1 52/3/1
f 54/3/1 50/3/1 30/3/1
f 54/3/1 51/3/1 50/3/1
f 55/3/1 53/3/1 54/3/1
f 56/3/1 53/3/1 55/3/1
f 57/3/1 43/3/1 53/3/1
f 57/3/1 53/3/1 56/3/1
f 58/3/1 54/3/1 24/3/1
f 58/1/1 55/1/1 54/1/1
f 59/3/1 56/3/1 55/3/1
f 59/1/1 55/1/1 58/1/1
f 60/3/1 56/3/1 59/3/1
f 61/1/1 57/1/1 56/1/1
f 61/3/1 56/3/1 60/3/1
f 62/3/1 43/3/1 57/3/1
f 62/1/1 57/1/1 61/1/1
f 63/1/1 61/1/1 60/1/1
f 63/3/1 60/3/1 59/3/1
f 63/3/1 59/3/1 58/3/1
f 64/3/1 62/3/1 61/3/1
f 64/1/1 61/1/1 63/1/1
f 65/3/1 58/3/1 24/3/1
f 65/3/1 63/3/1 58/3/1
f 65/3/1 64/3/1 63/3/1
f 66/3/1 3/3/1 43/3/1
f 66/3/1 64/3/1 65/3/1
f 66/3/1 62/3/1 64/3/1
f 66/3/1 43/3/1 62/3/1
f 69/3/1 68/3/1 67/3/1
f 70/3/1 68/3/1 69/3/1
f 73/3/1 72/3/1 71/3/1
f 74/3/1 72/3/1 73/3/1
f 77/3/1 76/3/1 75/3/1
f 78/3/1 76/3/1 77/3/1
f 79/2/2 80/2/2 82/2/2
f 80/3/2 81/3/2 83/3/2
f 82/2/2 80/2/2 83/2/2
f 82/3/2 83/3/2 84/3/2
f 83/3/2 81/3/2 84/3/2
f 84/3/2 81/3/2 85/3/2
f 85/3/2 81/3/2 86/3/2
f 86/3/2 81/3/2 87/3/2
f 82/3/2 84/3/2 88/3/2
f 85/3/2 86/3/2 89/3/2
f 89/3/2 86/3/2 90/3/2
f 87/3/2 81/3/2 91/3/2
f 89/3/2 90/3/2 92/3/2
f 90/3/2 91/3/2 92/3/2
f 82/3/2 88/3/2 92/3/2
f 88/3/2 89/3/2 92/3/2
f 91/3/2 81/3/2 93/3/2
f 92/3/2 91/3/2 93/3/2
f 82/3/2 92/3/2 94/3/2
f 82/3/2 94/3/2 96/3/2
f 94/3/2 95/3/2 96/3/2
f 96/3/2 95/3/2 97/3/2
f 82/3/2 96/3/2 98/3/2
f 93/3/2 81/3/2 99/3/2
f 82/3/2 98/3/2 100/3/2
f 98/3/2 99/3/2 100/3/2
f 99/3/2 81/3/2 101/3/2
f 100/3/2 99/3/2 101/3/2
f 102/3/2 103/3/2 104/3/2
f 104/3/2 103/3/2 105/3/2
f 106/3/2 107/3/2 108/3/2
f 108/3/2 107/3/2 109/3/2
f 110/3/2 111/3/2 112/3/2
f 112/3/2 111/3/2 113/3/2
f 113/3/2 111/3/2 114/3/2
f 114/3/2 111/3/2 115/3/2
f 110/3/2 112/3/2 116/3/2
f 113/3/2 114/3/2 117/3/2
f 117/3/2 114/3/2 118/3/2
f 110/3/2 116/3/2 120/3/2
f 118/3/2 119/3/2 120/3/2
f 117/3/2 118/3/2 120/3/2
f 116/3/2 117/3/2 120/3/2
f 120/3/2 119/3/2 121/3/2
f 122/3/2 123/3/2 126/3/2
f 126/3/2 123/3/2 127/3/2
f 124/3/2 125/3/2 128/3/2
f 128/3/2 125/3/2 129/3/2
f 130/3/2 131/3/2 134/3/2
f 134/3/2 131/3/2 135/3/2
f 132/3/2 133/3/2 136/3/2
f 136/3/2 133/3/2 137/3/2
f 143/2/3 139/2/3 138/2/3
f 144/3/3 140/3/3 139/3/3
f 144/2/3 139/2/3 143/2/3
f 145/2/3 141/2/3 140/2/3
f 145/3/3 140/3/3 144/3/3
f 146/3/3 142/3/3 141/3/3
f 146/2/3 141/2/3 145/2/3
f 147/2/3 143/2/3 138/2/3
f 148/3/3 145/3/3 144/3/3
f 148/2/3 143/2/3 147/2/3
f 148/3/3 144/3/3 143/3/3
f 148/3/3 146/3/3 145/3/3
f 149/3/3 142/3/3 146/3/3
f 149/3/3 146/3/3 148/3/3
f 154/3/3 151/3/3 150/3/3
f 155/3/3 153/3/3 152/3/3
f 156/3/3 154/3/3 150/3/3
f 156/3/3 155/3/3 154/3/3
f 157/3/3 153/3/3 155/3/3
f 157/3/3 155/3/3 156/3/3
f 162/3/3 161/3/3 160/3/3
f 163/3/3 161/3/3 162/3/3
f 164/3/3 162/3/3 160/3/3
f 164/1/3 163/1/3 162/1/3
f 165/3/3 161/3/3 163/3/3
f 165/1/3 163/1/3 164/1/3
f 166/3/3 159/3/3 158/3/3
f 167/3/3 159/3/3 166/3/3
f 168/2/3 167/2/3 166/2/3
f 169/3/3 159/3/3 167/3/3
f 169/2/3 167/2/3 168/2/3
f 170/3/3 169/3/3 168/3/3
f 171/3/3 159/3/3 169/3/3
f 171/3/3 169/3/3 170/3/3
f 172/3/3 164/3/3 160/3/3
f 172/3/3 165/3/3 164/3/3
f 173/3/3 161/3/3 165/3/3
f 173/3/3 165/3/3 172/3/3
f 176/3/3 175/3/3 174/3/3
f 177/3/3 175/3/3 176/3/3
f 178/3/3 176/3/3 174/3/3
f 178/1/3 177/1/3 176/1/3
f 179/3/3 175/3/3 177/3/3
f 179/1/3 177/1/3 178/1/3
f 180/3/3 178/3/3 174/3/3
f 180/3/3 179/3/3 178/3/3
f 181/3/3 175/3/3 179/3/3
f 181/3/3 179/3/3 180/3/3
f 184/3/3 183/3/3 182/3/3
f 185/3/3 183/3/3 184/3/3
f 186/2/3 171/2/3 170/2/3
f 187/3/3 159/3/3 171/3/3
f 187/2/3 171/2/3 186/2/3
f 188/2/3 185/2/3 184/2/3
f 189/3/3 183/3/3 185/3/3
f 189/2/3 185/2/3 188/2/3
f 190/3/3 187/3/3 186/3/3
f 191/3/3 159/3/3 187/3/3
f 191/3/3 187/3/3 190/3/3
f 192/3/3 189/3/3 188/3/3
f 193/3/3 183/3/3 189/3/3
f 193/3/3 189/3/3 192/3/3
f 196/1/3 195/1/3 194/1/3
f 197/1/3 195/1/3 196/1/3
f 200/3/3 199/3/3 198/3/3
f 201/3/3 199/3/3 200/3/3
f 204/3/3 203/3/3 202/3/3
f 205/3/3 203/3/3 204/3/3
f 206/2/3 205/2/3 204/2/3
f 207/3/3 203/3/3 205/3/3
f 207/2/3 205/2/3 206/2/3
f 208/3/3 207/3/3 206/3/3
f 209/3/3 203/3/3 207/3/3
f 209/3/3 207/3/3 208/3/3
f 212/2/3 209/2/3 208/2/3
f 213/3/3 203/3/3 209/3/3
f 213/2/3 209/2/3 212/2/3
f 214/3/3 213/3/3 212/3/3
f 215/3/3 203/3/3 213/3/3
f 215/3/3 213/3/3 214/3/3
f 216/3/3 211/3/3 210/3/3
f 217/3/3 211/3/3 216/3/3
f 218/3/4 219/3/4 220/3/4
f 220/3/4 219/3/4 221/3/4
f 222/3/4 223/3/4 226/3/4
f 226/3/4 223/3/4 227/3/4
f 224/3/4 225/3/4 228/3/4
f 228/3/4 225/3/4 229/3/4
f 232/3/4 233/3/4 234/3/4
f 234/3/4 233/3/4 235/3/4
f 235/3/4 233/3/4 236/3/4
f 236/3/4 233/3/4 237/3/4
f 230/3/4 231/3/4 238/3/4
f 238/3/4 231/3/4 239/3/4
f 235/3/4 236/3/4 240/3/4
f 240/3/4 236/3/4 241/3/4
f 242/3/4 243/3/4 244/3/4
f 244/3/4 243/3/4 245/3/4
f 248/2/5 247/2/5 246/2/5
f 249/2/5 247/2/5 248/2/5
f 250/2/5 248/2/5 246/2/5
f 251/3/5 249/3/5 248/3/5
f 251/2/5 248/2/5 250/2/5
f 252/3/5 251/3/5 250/3/5
f 253/3/5 249/3/5 251/3/5
f 253/3/5 251/3/5 252/3/5
f 260/3/5 255/3/5 254/3/5
f 260/2/5 256/2/5 255/2/5
f 261/3/5 257/3/5 256/3/5
f 261/2/5 256/2/5 260/2/5
f 262/2/5 258/2/5 257/2/5
f 262/3/5 257/3/5 261/3/5
f 263/3/5 259/3/5 258/3/5
f 263/2/5 258/2/5 262/2/5
f 264/3/5 262/3/5 261/3/5
f 264/3/5 261/3/5 260/3/5
f 264/3/5 263/3/5 262/3/5
f 264/3/5 260/3/5 254/3/5
f 265/3/5 259/3/5 263/3/5
f 265/3/5 263/3/5 264/3/5
f 272/3/5 267/3/5 266/3/5
f 272/2/5 268/2/5 267/2/5
f 273/3/5 269/3/5 268/3/5
f 273/2/5 268/2/5 272/2/5
f 274/2/5 270/2/5 269/2/5
f 274/3/5 269/3/5 273/3/5
f 275/3/5 271/3/5 270/3/5
f 275/2/5 270/2/5 274/2/5
f 276/3/5 274/3/5 273/3/5
f 276/3/5 273/3/5 272/3/5
f 276/3/5 275/3/5 274/3/5
f 276/3/5 272/3/5 266/3/5
f 277/3/5 271/3/5 275/3/5
f 277/3/5 275/3/5 276/3/5
f 280/3/5 279/3/5 278/3/5
f 281/3/5 279/3/5 280/3/5
f 286/3/5 283/3/5 282/3/5
f 286/2/5 284/2/5 283/2/5
f 287/3/5 285/3/5 284/3/5
f 287/2/5 284/2/5 286/2/5
f 288/3/5 286/3/5 282/3/5
f 288/3/5 287/3/5 286/3/5
f 289/3/5 285/3/5 287/3/5
f 289/3/5 287/3/5 288/3/5
f 292/3/5 291/3/5 290/3/5
f 293/3/5 291/3/5 292/3/5
f 296/3/5 295/3/5 294/3/5
f 297/3/5 295/3/5 296/3/5
f 298/3/5 295/3/5 297/3/5
f 299/3/5 295/3/5 298/3/5
f 300/3/5 298/3/5 297/3/5
f 301/3/5 298/3/5 300/3/5
f 302/3/6 303/3/6 304/3/6
f 304/3/6 303/3/6 305/3/6
f 306/3/6 307/3/6 308/3/6
f 308/3/6 307/3/6 309/3/6
f 310/3/6 311/3/6 312/3/6
f 312/3/6 311/3/6 313/3/6
f 313/3/6 311/3/6 314/3/6
f 314/3/6 311/3/6 315/3/6
f 313/3/6 314/3/6 316/3/6
f 316/3/6 314/3/6 317/3/6
f 320/1/6 321/1/6 322/1/6
f 322/1/6 321/1/6 323/1/6
f 318/3/6 319/3/6 324/3/6
f 324/3/6 319/3/6 325/3/6
f 326/3/6 327/3/6 328/3/6
f 328/3/6 327/3/6 329/3/6
f 330/3/6 331/3/6 332/3/6
f 332/3/6 331/3/6 333/3/6
f 330/3/6 332/3/6 334/3/6
f 333/3/6 331/3/6 335/3/6
f 330/3/6 334/3/6 336/3/6
f 334/3/6 335/3/6 336/3/6
f 335/3/6 331/3/6 337/3/6
f 336/3/6 335/3/6 337/3/6
f 338/3/6 339/3/6 340/3/6
f 340/3/6 339/3/6 341/3/6
