# MagicaVoxel @ Ephtracy

# group
o body

# material
mtllib weepingbell-2-body.mtl
usemtl palette

# normals
vn 0 0 -1
vn 0 0 1
vn -1 0 0
vn 1 0 0
vn 0 -1 0
vn 0 1 0

# texcoords
vt 0.908203 0.5

# verts
v 9.68575e-08 2.2 -2.4
v 0.1 2.2 -2.4
v 0.1 2.3 -2.4
v 0.3 2.3 -2.4
v 9.68575e-08 2.9 -2.4
v 0.3 2.9 -2.4
v 9.68575e-08 2.9 -2.1
v 0.3 2.9 -2.1
v 9.68575e-08 3.2 -2.1
v 0.3 3.2 -2.1
v 9.68575e-08 3.2 -1.9
v 0.3 3.2 -1.9
v 9.68575e-08 3.5 -1.9
v 0.3 3.5 -1.9
v 9.68575e-08 2.2 -2.1
v 0.1 2.2 -2.1
v 0.1 2.3 -2.1
v 0.3 2.3 -2.1
v 9.68575e-08 2.6 -2.1
v 0.3 2.6 -2.1
v 9.68575e-08 2.6 -1.8
v 0.3 2.6 -1.8
v 9.68575e-08 3.2 -1.8
v 0.3 3.2 -1.8
v 9.68575e-08 3.2 -1.2
v 0.3 3.2 -1.2
v 9.68575e-08 3.5 -1.2
v 0.3 3.5 -1.2
v 9.68575e-08 2.2 -2.4
v 9.68575e-08 2.9 -2.4
v 9.68575e-08 2.2 -2.1
v 9.68575e-08 2.6 -2.1
v 9.68575e-08 2.9 -2.1
v 9.68575e-08 3.2 -2.1
v 9.68575e-08 3.2 -1.9
v 9.68575e-08 3.5 -1.9
v 9.68575e-08 2.6 -1.8
v 9.68575e-08 3.2 -1.8
v 9.68575e-08 3.2 -1.2
v 9.68575e-08 3.5 -1.2
v 0.1 2.2 -2.4
v 0.1 2.3 -2.4
v 0.1 2.2 -2.1
v 0.1 2.3 -2.1
v 0.3 2.3 -2.4
v 0.3 2.9 -2.4
v 0.3 2.3 -2.1
v 0.3 2.6 -2.1
v 0.3 2.9 -2.1
v 0.3 3.2 -2.1
v 0.3 3.2 -1.9
v 0.3 3.5 -1.9
v 0.3 2.6 -1.8
v 0.3 3.2 -1.8
v 0.3 3.2 -1.2
v 0.3 3.5 -1.2
v 9.68575e-08 2.2 -2.4
v 9.68575e-08 2.2 -2.1
v 0.1 2.2 -2.4
v 0.1 2.2 -2.1
v 0.1 2.3 -2.4
v 0.1 2.3 -2.1
v 0.3 2.3 -2.4
v 0.3 2.3 -2.1
v 9.68575e-08 2.6 -2.1
v 9.68575e-08 2.6 -1.8
v 0.3 2.6 -2.1
v 0.3 2.6 -1.8
v 9.68575e-08 3.2 -1.8
v 9.68575e-08 3.2 -1.2
v 0.3 3.2 -1.8
v 0.3 3.2 -1.2
v 9.68575e-08 2.9 -2.4
v 9.68575e-08 2.9 -2.1
v 0.3 2.9 -2.4
v 0.3 2.9 -2.1
v 9.68575e-08 3.2 -2.1
v 9.68575e-08 3.2 -1.9
v 0.3 3.2 -2.1
v 0.3 3.2 -1.9
v 9.68575e-08 3.5 -1.9
v 9.68575e-08 3.5 -1.2
v 0.3 3.5 -1.9
v 0.3 3.5 -1.2

# faces
f 3/1/1 2/1/1 1/1/1
f 5/1/1 3/1/1 1/1/1
f 5/1/1 4/1/1 3/1/1
f 6/1/1 4/1/1 5/1/1
f 9/1/1 8/1/1 7/1/1
f 10/1/1 8/1/1 9/1/1
f 13/1/1 12/1/1 11/1/1
f 14/1/1 12/1/1 13/1/1
f 15/1/2 16/1/2 17/1/2
f 15/1/2 17/1/2 19/1/2
f 17/1/2 18/1/2 19/1/2
f 19/1/2 18/1/2 20/1/2
f 21/1/2 22/1/2 23/1/2
f 23/1/2 22/1/2 24/1/2
f 25/1/2 26/1/2 27/1/2
f 27/1/2 26/1/2 28/1/2
f 31/1/3 30/1/3 29/1/3
f 32/1/3 30/1/3 31/1/3
f 33/1/3 30/1/3 32/1/3
f 35/1/3 34/1/3 33/1/3
f 35/1/3 33/1/3 32/1/3
f 37/1/3 35/1/3 32/1/3
f 37/1/3 36/1/3 35/1/3
f 38/1/3 36/1/3 37/1/3
f 39/1/3 36/1/3 38/1/3
f 40/1/3 36/1/3 39/1/3
f 41/1/4 42/1/4 43/1/4
f 43/1/4 42/1/4 44/1/4
f 45/1/4 46/1/4 47/1/4
f 47/1/4 46/1/4 48/1/4
f 48/1/4 46/1/4 49/1/4
f 49/1/4 50/1/4 51/1/4
f 48/1/4 49/1/4 51/1/4
f 48/1/4 51/1/4 53/1/4
f 51/1/4 52/1/4 53/1/4
f 53/1/4 52/1/4 54/1/4
f 54/1/4 52/1/4 55/1/4
f 55/1/4 52/1/4 56/1/4
f 59/1/5 58/1/5 57/1/5
f 60/1/5 58/1/5 59/1/5
f 63/1/5 62/1/5 61/1/5
f 64/1/5 62/1/5 63/1/5
f 67/1/5 66/1/5 65/1/5
f 68/1/5 66/1/5 67/1/5
f 71/1/5 70/1/5 69/1/5
f 72/1/5 70/1/5 71/1/5
f 73/1/6 74/1/6 75/1/6
f 75/1/6 74/1/6 76/1/6
f 77/1/6 78/1/6 79/1/6
f 79/1/6 78/1/6 80/1/6
f 81/1/6 82/1/6 83/1/6
f 83/1/6 82/1/6 84/1/6
