# MagicaVoxel @ Ephtracy

# group
o 

# material
mtllib cool-trainer-0.mtl
usemtl palette

# normals
vn 1 0 0
vn -1 0 0
vn 0 0 1
vn 0 0 -1
vn 0 -1 0
vn 0 1 0

# texcoords
vt 0.845703 0.5
vt 0.884766 0.5
vt 0.982422 0.5

# verts
v 0.8 0.8 -0.1
v 0.8 0.8 -0.3
v 0.8 0.9 0
v 0.8 0.9 -0.1
v 0.8 1.1 0
v 0.8 1.1 -0.1
v 0.8 1.1 -0.3
v 0.8 1.2 -0.1
v 0.8 1.2 -0.3
v 0.8 1.3 -0.1
v 0.8 1.3 -0.3
v 0.8 1.6 -0.3
v 0.8 1.6 -0.4
v 0.8 1.8 -0.1
v 0.8 1.8 -0.4
v 0.7 1.5 -0.3
v 0.7 1.5 -0.4
v 0.7 1.6 -0.3
v 0.7 1.6 -0.4
v 0.7 1.8 -0.1
v 0.7 1.8 -0.4
v 0.7 1.9 -0.1
v 0.7 1.9 -0.4
v 0.6 0.8 -0.1
v 0.6 0.8 -0.3
v 0.6 0.9 0
v 0.6 0.9 -0.1
v 0.6 1.1 0
v 0.6 1.1 -0.1
v 0.6 1.1 -0.3
v 0.6 1.2 -0.1
v 0.6 1.2 -0.3
v 0.6 1.3 -0.1
v 0.6 1.3 -0.3
v 0.6 1.5 -0.1
v 0.6 1.5 -0.3
v 0.5 1.5 -0.1
v 0.5 1.5 -0.4
v 0.5 1.9 -0.1
v 0.5 1.9 -0.4
v 0.8 0.9 0
v 0.8 1.1 0
v 0.6 0.9 0
v 0.6 1.1 0
v 0.8 0.8 -0.1
v 0.8 0.9 -0.1
v 0.8 1.1 -0.1
v 0.8 1.2 -0.1
v 0.8 1.3 -0.1
v 0.8 1.8 -0.1
v 0.7 1.8 -0.1
v 0.7 1.9 -0.1
v 0.6 0.8 -0.1
v 0.6 0.9 -0.1
v 0.6 1.1 -0.1
v 0.6 1.2 -0.1
v 0.6 1.3 -0.1
v 0.6 1.5 -0.1
v 0.5 1.5 -0.1
v 0.5 1.9 -0.1
v 0.8 0.8 -0.3
v 0.8 1.1 -0.3
v 0.8 1.2 -0.3
v 0.8 1.3 -0.3
v 0.8 1.6 -0.3
v 0.7 1.5 -0.3
v 0.7 1.6 -0.3
v 0.6 0.8 -0.3
v 0.6 1.1 -0.3
v 0.6 1.2 -0.3
v 0.6 1.3 -0.3
v 0.6 1.5 -0.3
v 0.8 1.6 -0.4
v 0.8 1.8 -0.4
v 0.7 1.5 -0.4
v 0.7 1.6 -0.4
v 0.7 1.8 -0.4
v 0.7 1.9 -0.4
v 0.5 1.5 -0.4
v 0.5 1.9 -0.4
v 0.8 0.8 -0.1
v 0.6 0.8 -0.1
v 0.8 0.8 -0.3
v 0.6 0.8 -0.3
v 0.8 0.9 0
v 0.6 0.9 0
v 0.8 0.9 -0.1
v 0.6 0.9 -0.1
v 0.6 1.5 -0.1
v 0.5 1.5 -0.1
v 0.7 1.5 -0.3
v 0.6 1.5 -0.3
v 0.7 1.5 -0.4
v 0.5 1.5 -0.4
v 0.8 1.6 -0.3
v 0.7 1.6 -0.3
v 0.8 1.6 -0.4
v 0.7 1.6 -0.4
v 0.8 1.1 0
v 0.6 1.1 0
v 0.8 1.1 -0.1
v 0.6 1.1 -0.1
v 0.8 1.8 -0.1
v 0.7 1.8 -0.1
v 0.8 1.8 -0.4
v 0.7 1.8 -0.4
v 0.7 1.9 -0.1
v 0.5 1.9 -0.1
v 0.7 1.9 -0.4
v 0.5 1.9 -0.4

# faces
f 1/3/1 2/3/1 4/3/1
f 3/3/1 4/3/1 5/3/1
f 4/3/1 2/3/1 6/3/1
f 5/3/1 4/3/1 6/3/1
f 6/3/1 2/3/1 7/3/1
f 6/2/1 7/2/1 8/2/1
f 8/2/1 7/2/1 9/2/1
f 8/1/1 9/1/1 10/1/1
f 10/1/1 9/1/1 11/1/1
f 10/2/1 11/2/1 12/2/1
f 10/2/1 12/2/1 14/2/1
f 12/2/1 13/2/1 14/2/1
f 14/2/1 13/2/1 15/2/1
f 16/2/1 17/2/1 18/2/1
f 18/2/1 17/2/1 19/2/1
f 20/2/1 21/2/1 22/2/1
f 22/2/1 21/2/1 23/2/1
f 27/3/2 25/3/2 24/3/2
f 28/3/2 27/3/2 26/3/2
f 29/3/2 25/3/2 27/3/2
f 29/3/2 27/3/2 28/3/2
f 30/3/2 25/3/2 29/3/2
f 31/2/2 30/2/2 29/2/2
f 32/2/2 30/2/2 31/2/2
f 33/1/2 32/1/2 31/1/2
f 34/1/2 32/1/2 33/1/2
f 35/2/2 34/2/2 33/2/2
f 36/2/2 34/2/2 35/2/2
f 39/2/2 38/2/2 37/2/2
f 40/2/2 38/2/2 39/2/2
f 41/3/3 42/3/3 43/3/3
f 43/3/3 42/3/3 44/3/3
f 49/2/3 50/2/3 51/2/3
f 45/3/3 46/3/3 53/3/3
f 53/3/3 46/3/3 54/3/3
f 47/2/3 48/2/3 55/2/3
f 48/1/3 49/1/3 56/1/3
f 55/2/3 48/2/3 56/2/3
f 51/2/3 52/2/3 57/2/3
f 56/1/3 49/1/3 57/1/3
f 49/2/3 51/2/3 57/2/3
f 57/2/3 52/2/3 58/2/3
f 58/2/3 52/2/3 59/2/3
f 59/2/3 52/2/3 60/2/3
f 66/2/4 65/2/4 64/2/4
f 67/2/4 65/2/4 66/2/4
f 68/3/4 62/3/4 61/3/4
f 69/2/4 63/2/4 62/2/4
f 69/3/4 62/3/4 68/3/4
f 70/1/4 64/1/4 63/1/4
f 70/2/4 63/2/4 69/2/4
f 71/2/4 66/2/4 64/2/4
f 71/1/4 64/1/4 70/1/4
f 72/2/4 66/2/4 71/2/4
f 76/2/4 74/2/4 73/2/4
f 77/2/4 74/2/4 76/2/4
f 79/2/4 76/2/4 75/2/4
f 79/2/4 78/2/4 77/2/4
f 79/2/4 77/2/4 76/2/4
f 80/2/4 78/2/4 79/2/4
f 81/3/5 82/3/5 83/3/5
f 83/3/5 82/3/5 84/3/5
f 85/3/5 86/3/5 87/3/5
f 87/3/5 86/3/5 88/3/5
f 89/2/5 90/2/5 92/2/5
f 91/2/5 92/2/5 93/2/5
f 92/2/5 90/2/5 94/2/5
f 93/2/5 92/2/5 94/2/5
f 95/2/5 96/2/5 97/2/5
f 97/2/5 96/2/5 98/2/5
f 101/3/6 100/3/6 99/3/6
f 102/3/6 100/3/6 101/3/6
f 105/2/6 104/2/6 103/2/6
f 106/2/6 104/2/6 105/2/6
f 109/2/6 108/2/6 107/2/6
f 110/2/6 108/2/6 109/2/6
