# MagicaVoxel @ Ephtracy

# group
o 

# material
mtllib house-table.mtl
usemtl palette

# normals
vn 0 1 0
vn 0 -1 0
vn 0 0 1
vn 0 0 -1
vn -1 0 0
vn 1 0 0

# texcoords
vt 0.0292969 0.5
vt 0.0332031 0.5
vt 0.369141 0.5

# verts
v -0.8 3 0.8
v -0.8 3 -0.8
v -0.8 3 -1
v -0.8 3 -1.1
v -0.8 3 -6.4
v -0.7 3 0.7
v -0.7 3 -0.8
v -0.7 3 -1
v -0.7 3 -1.1
v 0.2 3 -4.1
v 0.2 3 -5.8
v 0.2 3 -5.9
v 0.2 3 -6.1
v 0.4 3 -1.1
v 0.4 3 -4.1
v 0.4 3 -5.8
v 0.4 3 -5.9
v 0.4 3 -6.1
v 0.5 3 0.4
v 0.5 3 -1.1
v 0.5 3 -4.1
v 0.7 3 0.4
v 0.7 3 -1.1
v 1 3 0.8
v 1 3 0.7
v 1.1 3 0.8
v 1.1 3 0.7
v 1.3 3 0.8
v 1.3 3 0.7
v 1.6 3 0.5
v 1.6 3 0.2
v 1.6 3 -0.1
v 1.6 3 -2.9
v 1.7 3 0.5
v 1.7 3 0.2
v 1.7 3 -0.1
v 1.7 3 -2.9
v 1.7 3 -5.8
v 1.9 3 -2.9
v 1.9 3 -5.8
v 2.8 3 0.4
v 2.8 3 -2.9
v 2.9 3 0.4
v 2.9 3 -2.9
v 2.9 3 -6.1
v 3.1 3 -2.9
v 3.1 3 -6.1
v 4.1 3 -2.2
v 4.1 3 -5
v 4.3 3 0.4
v 4.3 3 -2.2
v 4.3 3 -5
v 4.3 3 -5.8
v 4.4 3 0.4
v 4.4 3 -2.2
v 4.4 3 -5
v 4.4 3 -5.8
v 5.3 3 0.5
v 5.3 3 0.1
v 5.3 3 -0.1
v 5.3 3 -2.2
v 5.3 3 -4.6
v 5.3 3 -5.9
v 5.5 3 0.5
v 5.5 3 0.1
v 5.5 3 -0.1
v 5.5 3 -2.2
v 5.5 3 -4.6
v 5.5 3 -5.9
v 5.6 3 -2.2
v 5.6 3 -4.6
v 6.4 3 0.8
v 6.4 3 -6.4
v -0.8 2.7 0.8
v -0.8 2.7 0.7
v -0.8 2.7 -6.4
v -0.7 2.7 0.8
v -0.7 2.7 0.7
v -0.4 2.7 0.4
v -0.4 2.7 -0.4
v -0.4 2.7 -5.2
v -0.4 2.7 -5.9
v 0.4 2.7 0.4
v 0.4 2.7 -0.4
v 0.4 2.7 -5.2
v 0.4 2.7 -5.9
v 5.2 2.7 0.4
v 5.2 2.7 -0.4
v 5.2 2.7 -5.2
v 5.2 2.7 -5.9
v 5.9 2.7 0.4
v 5.9 2.7 -0.4
v 5.9 2.7 -5.2
v 5.9 2.7 -5.9
v 6.4 2.7 0.8
v 6.4 2.7 -6.4
v -0.4 2.38419e-07 0.4
v -0.4 2.38419e-07 -0.4
v -0.4 2.38419e-07 -5.2
v -0.4 2.38419e-07 -5.9
v 0.4 2.38419e-07 0.4
v 0.4 2.38419e-07 -0.4
v 0.4 2.38419e-07 -5.2
v 0.4 2.38419e-07 -5.9
v 5.2 2.38419e-07 0.4
v 5.2 2.38419e-07 -0.4
v 5.2 2.38419e-07 -5.2
v 5.2 2.38419e-07 -5.9
v 5.9 2.38419e-07 0.4
v 5.9 2.38419e-07 -0.4
v 5.9 2.38419e-07 -5.2
v 5.9 2.38419e-07 -5.9
v -0.8 3 0.8
v 1 3 0.8
v 1.1 3 0.8
v 1.3 3 0.8
v 6.4 3 0.8
v -0.7 2.9 0.8
v 1 2.9 0.8
v 1.1 2.9 0.8
v 1.3 2.9 0.8
v -0.8 2.7 0.8
v -0.7 2.7 0.8
v 6.4 2.7 0.8
v -0.4 2.7 0.4
v 0.4 2.7 0.4
v 5.2 2.7 0.4
v 5.9 2.7 0.4
v -0.4 2.3 0.4
v -0.2 2.3 0.4
v 5.2 2.3 0.4
v 5.3 2.3 0.4
v 5.2 2.2 0.4
v 5.3 2.2 0.4
v -0.4 2.1 0.4
v -0.2 2.1 0.4
v 5.2 2.1 0.4
v 5.3 2.1 0.4
v -0.4 2 0.4
v -0.2 2 0.4
v -0.4 0.2 0.4
v -0.2 0.2 0.4
v 5.2 0.1 0.4
v 5.3 0.1 0.4
v -0.4 2.38419e-07 0.4
v 0.4 2.38419e-07 0.4
v 5.2 2.38419e-07 0.4
v 5.9 2.38419e-07 0.4
v -0.4 2.7 -5.2
v 0.4 2.7 -5.2
v 5.2 2.7 -5.2
v 5.9 2.7 -5.2
v -0.4 2.3 -5.2
v -0.2 2.3 -5.2
v -0.4 2.2 -5.2
v -0.2 2.2 -5.2
v -0.4 2.1 -5.2
v -0.2 2.1 -5.2
v -0.4 0.2 -5.2
v -0.2 0.2 -5.2
v -0.4 2.38419e-07 -5.2
v 0.4 2.38419e-07 -5.2
v 5.2 2.38419e-07 -5.2
v 5.9 2.38419e-07 -5.2
v -0.4 2.7 -0.4
v 0.4 2.7 -0.4
v 5.2 2.7 -0.4
v 5.9 2.7 -0.4
v -0.4 2.38419e-07 -0.4
v 0.4 2.38419e-07 -0.4
v 5.2 2.38419e-07 -0.4
v 5.9 2.38419e-07 -0.4
v -0.4 2.7 -5.9
v 0.4 2.7 -5.9
v 5.2 2.7 -5.9
v 5.9 2.7 -5.9
v -0.4 2.38419e-07 -5.9
v 0.4 2.38419e-07 -5.9
v 5.2 2.38419e-07 -5.9
v 5.9 2.38419e-07 -5.9
v -0.8 3 -6.4
v 6.4 3 -6.4
v -0.8 2.7 -6.4
v 6.4 2.7 -6.4
v -0.8 3 0.8
v -0.8 2.7 0.8
v -0.8 2.9 0.7
v -0.8 2.7 0.7
v -0.8 3 -0.8
v -0.8 2.9 -0.8
v -0.8 3 -1
v -0.8 2.9 -1
v -0.8 3 -1.1
v -0.8 2.9 -1.1
v -0.8 3 -6.4
v -0.8 2.7 -6.4
v -0.4 2.7 0.4
v -0.4 2.3 0.4
v -0.4 2.1 0.4
v -0.4 2 0.4
v -0.4 0.2 0.4
v -0.4 2.38419e-07 0.4
v -0.4 2.3 0.2
v -0.4 2.1 0.2
v -0.4 2 0.2
v -0.4 0.2 0.2
v -0.4 2.7 -0.4
v -0.4 2.38419e-07 -0.4
v -0.4 2.7 -5.2
v -0.4 2.3 -5.2
v -0.4 2.2 -5.2
v -0.4 2.1 -5.2
v -0.4 0.2 -5.2
v -0.4 2.38419e-07 -5.2
v -0.4 2.3 -5.3
v -0.4 2.2 -5.3
v -0.4 2.1 -5.3
v -0.4 0.2 -5.3
v -0.4 2.7 -5.9
v -0.4 2.38419e-07 -5.9
v 5.2 2.7 0.4
v 5.2 2.3 0.4
v 5.2 2.2 0.4
v 5.2 2.1 0.4
v 5.2 0.1 0.4
v 5.2 2.38419e-07 0.4
v 5.2 2.3 0.2
v 5.2 2.2 0.2
v 5.2 2.1 0.2
v 5.2 0.1 0.2
v 5.2 2.7 -0.4
v 5.2 2.38419e-07 -0.4
v 5.2 2.7 -5.2
v 5.2 2.38419e-07 -5.2
v 5.2 2.7 -5.9
v 5.2 2.38419e-07 -5.9
v 0.4 2.7 0.4
v 0.4 2.38419e-07 0.4
v 0.4 2.7 -0.4
v 0.4 2.38419e-07 -0.4
v 0.4 2.7 -5.2
v 0.4 2.38419e-07 -5.2
v 0.4 2.7 -5.9
v 0.4 2.38419e-07 -5.9
v 5.9 2.7 0.4
v 5.9 2.38419e-07 0.4
v 5.9 2.7 -0.4
v 5.9 2.38419e-07 -0.4
v 5.9 2.7 -5.2
v 5.9 2.38419e-07 -5.2
v 5.9 2.7 -5.9
v 5.9 2.38419e-07 -5.9
v 6.4 3 0.8
v 6.4 2.7 0.8
v 6.4 3 -6.4
v 6.4 2.7 -6.4

# faces
f 6/2/1 2/2/1 1/2/1
f 7/3/1 3/3/1 2/3/1
f 7/2/1 2/2/1 6/2/1
f 8/2/1 4/2/1 3/2/1
f 8/3/1 3/3/1 7/3/1
f 9/3/1 5/3/1 4/3/1
f 9/2/1 4/2/1 8/2/1
f 10/3/1 8/3/1 7/3/1
f 10/3/1 5/3/1 9/3/1
f 10/3/1 9/3/1 8/3/1
f 10/3/1 7/3/1 6/3/1
f 11/3/1 5/3/1 10/3/1
f 12/3/1 5/3/1 11/3/1
f 13/3/1 5/3/1 12/3/1
f 14/3/1 10/3/1 6/3/1
f 15/1/1 11/1/1 10/1/1
f 15/3/1 10/3/1 14/3/1
f 16/3/1 12/3/1 11/3/1
f 16/1/1 11/1/1 15/1/1
f 17/1/1 13/1/1 12/1/1
f 17/3/1 12/3/1 16/3/1
f 18/3/1 5/3/1 13/3/1
f 18/1/1 13/1/1 17/1/1
f 19/3/1 14/3/1 6/3/1
f 20/1/1 15/1/1 14/1/1
f 20/3/1 14/3/1 19/3/1
f 21/3/1 17/3/1 16/3/1
f 21/1/1 15/1/1 20/1/1
f 21/3/1 16/3/1 15/3/1
f 21/3/1 18/3/1 17/3/1
f 22/1/1 20/1/1 19/1/1
f 22/3/1 19/3/1 6/3/1
f 23/3/1 21/3/1 20/3/1
f 23/1/1 20/1/1 22/1/1
f 24/2/1 6/2/1 1/2/1
f 25/3/1 22/3/1 6/3/1
f 25/2/1 6/2/1 24/2/1
f 25/3/1 23/3/1 22/3/1
f 26/3/1 25/3/1 24/3/1
f 27/3/1 23/3/1 25/3/1
f 27/3/1 25/3/1 26/3/1
f 28/2/1 27/2/1 26/2/1
f 29/3/1 23/3/1 27/3/1
f 29/2/1 27/2/1 28/2/1
f 30/3/1 29/3/1 28/3/1
f 30/3/1 23/3/1 29/3/1
f 31/3/1 23/3/1 30/3/1
f 32/3/1 23/3/1 31/3/1
f 33/3/1 21/3/1 23/3/1
f 33/3/1 23/3/1 32/3/1
f 34/3/1 30/3/1 28/3/1
f 34/1/1 31/1/1 30/1/1
f 35/3/1 32/3/1 31/3/1
f 35/1/1 31/1/1 34/1/1
f 36/1/1 33/1/1 32/1/1
f 36/3/1 32/3/1 35/3/1
f 37/3/1 21/3/1 33/3/1
f 37/1/1 33/1/1 36/1/1
f 38/3/1 18/3/1 21/3/1
f 38/3/1 21/3/1 37/3/1
f 39/3/1 37/3/1 36/3/1
f 39/3/1 36/3/1 35/3/1
f 39/1/1 38/1/1 37/1/1
f 39/3/1 35/3/1 34/3/1
f 40/3/1 18/3/1 38/3/1
f 40/1/1 38/1/1 39/1/1
f 41/3/1 39/3/1 34/3/1
f 41/3/1 40/3/1 39/3/1
f 42/3/1 40/3/1 41/3/1
f 43/3/1 41/3/1 34/3/1
f 43/1/1 42/1/1 41/1/1
f 44/3/1 40/3/1 42/3/1
f 44/1/1 42/1/1 43/1/1
f 45/3/1 18/3/1 40/3/1
f 45/3/1 40/3/1 44/3/1
f 45/3/1 5/3/1 18/3/1
f 46/3/1 44/3/1 43/3/1
f 46/1/1 45/1/1 44/1/1
f 47/3/1 5/3/1 45/3/1
f 47/1/1 45/1/1 46/1/1
f 48/3/1 46/3/1 43/3/1
f 48/3/1 47/3/1 46/3/1
f 49/3/1 47/3/1 48/3/1
f 50/3/1 43/3/1 34/3/1
f 50/3/1 48/3/1 43/3/1
f 51/1/1 49/1/1 48/1/1
f 51/3/1 48/3/1 50/3/1
f 52/3/1 47/3/1 49/3/1
f 52/1/1 49/1/1 51/1/1
f 53/3/1 47/3/1 52/3/1
f 54/1/1 51/1/1 50/1/1
f 54/3/1 50/3/1 34/3/1
f 55/3/1 52/3/1 51/3/1
f 55/1/1 51/1/1 54/1/1
f 56/1/1 53/1/1 52/1/1
f 56/3/1 52/3/1 55/3/1
f 57/3/1 47/3/1 53/3/1
f 57/1/1 53/1/1 56/1/1
f 58/3/1 34/3/1 28/3/1
f 58/3/1 56/3/1 55/3/1
f 58/3/1 57/3/1 56/3/1
f 58/3/1 54/3/1 34/3/1
f 58/3/1 55/3/1 54/3/1
f 59/3/1 57/3/1 58/3/1
f 60/3/1 57/3/1 59/3/1
f 61/3/1 57/3/1 60/3/1
f 62/3/1 57/3/1 61/3/1
f 63/3/1 47/3/1 57/3/1
f 63/3/1 57/3/1 62/3/1
f 64/3/1 58/3/1 28/3/1
f 64/1/1 59/1/1 58/1/1
f 65/3/1 60/3/1 59/3/1
f 65/1/1 59/1/1 64/1/1
f 66/1/1 61/1/1 60/1/1
f 66/3/1 60/3/1 65/3/1
f 67/3/1 62/3/1 61/3/1
f 67/1/1 61/1/1 66/1/1
f 68/1/1 63/1/1 62/1/1
f 68/3/1 62/3/1 67/3/1
f 69/3/1 47/3/1 63/3/1
f 69/1/1 63/1/1 68/1/1
f 70/3/1 66/3/1 65/3/1
f 70/1/1 68/1/1 67/1/1
f 70/3/1 67/3/1 66/3/1
f 70/3/1 65/3/1 64/3/1
f 71/3/1 69/3/1 68/3/1
f 71/1/1 68/1/1 70/1/1
f 72/3/1 70/3/1 64/3/1
f 72/3/1 64/3/1 28/3/1
f 72/3/1 71/3/1 70/3/1
f 73/3/1 47/3/1 69/3/1
f 73/3/1 71/3/1 72/3/1
f 73/3/1 5/3/1 47/3/1
f 73/3/1 69/3/1 71/3/1
f 74/2/2 75/2/2 77/2/2
f 75/3/2 76/3/2 78/3/2
f 77/2/2 75/2/2 78/2/2
f 77/3/2 78/3/2 79/3/2
f 78/3/2 76/3/2 79/3/2
f 79/3/2 76/3/2 80/3/2
f 80/3/2 76/3/2 81/3/2
f 81/3/2 76/3/2 82/3/2
f 77/3/2 79/3/2 83/3/2
f 80/3/2 81/3/2 84/3/2
f 84/3/2 81/3/2 85/3/2
f 82/3/2 76/3/2 86/3/2
f 84/3/2 85/3/2 87/3/2
f 85/3/2 86/3/2 87/3/2
f 77/3/2 83/3/2 87/3/2
f 83/3/2 84/3/2 87/3/2
f 87/3/2 86/3/2 88/3/2
f 88/3/2 86/3/2 89/3/2
f 86/3/2 76/3/2 90/3/2
f 89/3/2 86/3/2 90/3/2
f 77/3/2 87/3/2 91/3/2
f 88/3/2 89/3/2 92/3/2
f 92/3/2 89/3/2 93/3/2
f 90/3/2 76/3/2 94/3/2
f 77/3/2 91/3/2 95/3/2
f 93/3/2 94/3/2 95/3/2
f 92/3/2 93/3/2 95/3/2
f 91/3/2 92/3/2 95/3/2
f 94/3/2 76/3/2 96/3/2
f 95/3/2 94/3/2 96/3/2
f 97/3/2 98/3/2 101/3/2
f 101/3/2 98/3/2 102/3/2
f 99/3/2 100/3/2 103/3/2
f 103/3/2 100/3/2 104/3/2
f 105/3/2 106/3/2 109/3/2
f 109/3/2 106/3/2 110/3/2
f 107/3/2 108/3/2 111/3/2
f 111/3/2 108/3/2 112/3/2
f 118/2/3 114/2/3 113/2/3
f 119/3/3 115/3/3 114/3/3
f 119/2/3 114/2/3 118/2/3
f 120/2/3 116/2/3 115/2/3
f 120/3/3 115/3/3 119/3/3
f 121/3/3 117/3/3 116/3/3
f 121/2/3 116/2/3 120/2/3
f 122/2/3 118/2/3 113/2/3
f 123/3/3 120/3/3 119/3/3
f 123/2/3 118/2/3 122/2/3
f 123/3/3 119/3/3 118/3/3
f 123/3/3 121/3/3 120/3/3
f 124/3/3 117/3/3 121/3/3
f 124/3/3 121/3/3 123/3/3
f 129/3/3 126/3/3 125/3/3
f 130/3/3 126/3/3 129/3/3
f 131/3/3 128/3/3 127/3/3
f 132/3/3 128/3/3 131/3/3
f 133/2/3 132/2/3 131/2/3
f 134/3/3 128/3/3 132/3/3
f 134/2/3 132/2/3 133/2/3
f 135/2/3 130/2/3 129/2/3
f 136/3/3 126/3/3 130/3/3
f 136/2/3 130/2/3 135/2/3
f 137/3/3 134/3/3 133/3/3
f 138/3/3 128/3/3 134/3/3
f 138/3/3 134/3/3 137/3/3
f 139/3/3 136/3/3 135/3/3
f 140/3/3 126/3/3 136/3/3
f 140/3/3 136/3/3 139/3/3
f 141/2/3 140/2/3 139/2/3
f 142/3/3 126/3/3 140/3/3
f 142/2/3 140/2/3 141/2/3
f 143/2/3 138/2/3 137/2/3
f 144/3/3 128/3/3 138/3/3
f 144/2/3 138/2/3 143/2/3
f 145/3/3 142/3/3 141/3/3
f 146/3/3 126/3/3 142/3/3
f 146/3/3 142/3/3 145/3/3
f 147/3/3 144/3/3 143/3/3
f 148/3/3 128/3/3 144/3/3
f 148/3/3 144/3/3 147/3/3
f 153/3/3 150/3/3 149/3/3
f 154/3/3 150/3/3 153/3/3
f 155/2/3 154/2/3 153/2/3
f 156/3/3 150/3/3 154/3/3
f 156/2/3 154/2/3 155/2/3
f 157/3/3 156/3/3 155/3/3
f 158/3/3 150/3/3 156/3/3
f 158/3/3 156/3/3 157/3/3
f 159/2/3 158/2/3 157/2/3
f 160/3/3 150/3/3 158/3/3
f 160/2/3 158/2/3 159/2/3
f 161/3/3 160/3/3 159/3/3
f 162/3/3 150/3/3 160/3/3
f 162/3/3 160/3/3 161/3/3
f 163/3/3 152/3/3 151/3/3
f 164/3/3 152/3/3 163/3/3
f 165/3/4 166/3/4 169/3/4
f 169/3/4 166/3/4 170/3/4
f 167/3/4 168/3/4 171/3/4
f 171/3/4 168/3/4 172/3/4
f 173/3/4 174/3/4 177/3/4
f 177/3/4 174/3/4 178/3/4
f 175/3/4 176/3/4 179/3/4
f 179/3/4 176/3/4 180/3/4
f 181/3/4 182/3/4 183/3/4
f 183/3/4 182/3/4 184/3/4
f 187/2/5 186/2/5 185/2/5
f 188/2/5 186/2/5 187/2/5
f 189/2/5 187/2/5 185/2/5
f 190/3/5 188/3/5 187/3/5
f 190/2/5 187/2/5 189/2/5
f 191/3/5 190/3/5 189/3/5
f 192/3/5 188/3/5 190/3/5
f 192/3/5 190/3/5 191/3/5
f 193/2/5 192/2/5 191/2/5
f 194/3/5 188/3/5 192/3/5
f 194/2/5 192/2/5 193/2/5
f 195/3/5 194/3/5 193/3/5
f 196/3/5 188/3/5 194/3/5
f 196/3/5 194/3/5 195/3/5
f 203/3/5 198/3/5 197/3/5
f 203/2/5 199/2/5 198/2/5
f 204/3/5 200/3/5 199/3/5
f 204/2/5 199/2/5 203/2/5
f 205/2/5 201/2/5 200/2/5
f 205/3/5 200/3/5 204/3/5
f 206/3/5 202/3/5 201/3/5
f 206/2/5 201/2/5 205/2/5
f 207/3/5 205/3/5 204/3/5
f 207/3/5 204/3/5 203/3/5
f 207/3/5 206/3/5 205/3/5
f 207/3/5 203/3/5 197/3/5
f 208/3/5 202/3/5 206/3/5
f 208/3/5 206/3/5 207/3/5
f 215/3/5 210/3/5 209/3/5
f 215/2/5 211/2/5 210/2/5
f 216/3/5 212/3/5 211/3/5
f 216/2/5 211/2/5 215/2/5
f 217/2/5 213/2/5 212/2/5
f 217/3/5 212/3/5 216/3/5
f 218/3/5 214/3/5 213/3/5
f 218/2/5 213/2/5 217/2/5
f 219/3/5 217/3/5 216/3/5
f 219/3/5 216/3/5 215/3/5
f 219/3/5 218/3/5 217/3/5
f 219/3/5 215/3/5 209/3/5
f 220/3/5 214/3/5 218/3/5
f 220/3/5 218/3/5 219/3/5
f 227/3/5 222/3/5 221/3/5
f 227/2/5 223/2/5 222/2/5
f 228/3/5 224/3/5 223/3/5
f 228/2/5 223/2/5 227/2/5
f 229/2/5 225/2/5 224/2/5
f 229/3/5 224/3/5 228/3/5
f 230/3/5 226/3/5 225/3/5
f 230/2/5 225/2/5 229/2/5
f 231/3/5 229/3/5 228/3/5
f 231/3/5 228/3/5 227/3/5
f 231/3/5 230/3/5 229/3/5
f 231/3/5 227/3/5 221/3/5
f 232/3/5 226/3/5 230/3/5
f 232/3/5 230/3/5 231/3/5
f 235/3/5 234/3/5 233/3/5
f 236/3/5 234/3/5 235/3/5
f 237/3/6 238/3/6 239/3/6
f 239/3/6 238/3/6 240/3/6
f 241/3/6 242/3/6 243/3/6
f 243/3/6 242/3/6 244/3/6
f 245/3/6 246/3/6 247/3/6
f 247/3/6 246/3/6 248/3/6
f 249/3/6 250/3/6 251/3/6
f 251/3/6 250/3/6 252/3/6
f 253/3/6 254/3/6 255/3/6
f 255/3/6 254/3/6 256/3/6
