# MagicaVoxel @ Ephtracy

# group
o 

# material
mtllib pokemon-center-door-0.mtl
usemtl palette

# normals
vn -1 0 0
vn 1 0 0
vn 0 0 1
vn 0 0 -1
vn 0 -1 0
vn 0 1 0

# texcoords
vt 0.00976563 0.5
vt 0.814453 0.5
vt 0.845703 0.5
vt 0.876953 0.5
vt 0.916016 0.5
vt 0.958984 0.5

# verts
v -2.4 0 -2.4
v -2.4 0 -2.5
v -2.4 0.1 -2.4
v -2.4 0.1 -2.5
v -2.4 0.2 1.2
v -2.4 0.2 -2.4
v -2.4 0.2 -2.5
v -2.4 9.3 -2.5
v -2.4 9.3 -3
v -2.4 9.6 -2.4
v -2.4 9.6 -2.5
v -2.4 10.2 1.2
v -2.4 10.2 -3
v -2.3 0.1 1.2
v -2.3 0.1 -2.4
v -2.3 0.2 1.2
v -2.3 0.2 -2.4
v 0.5 9.2 -2.5
v 0.5 9.2 -3
v 0.5 9.3 -2.5
v 0.5 9.3 -3
v 0.6 9.1 -2.5
v 0.6 9.1 -3
v 0.6 9.2 -2.5
v 0.6 9.2 -3
v 0.7 9 -2.5
v 0.7 9 -3
v 0.7 9.1 -2.5
v 0.7 9.1 -3
v 0.8 8.9 -2.5
v 0.8 8.9 -3
v 0.8 9 -2.5
v 0.8 9 -3
v 0.9 8.8 -2.5
v 0.9 8.8 -3
v 0.9 8.9 -2.5
v 0.9 8.9 -3
v 1 8.7 -2.5
v 1 8.7 -3
v 1 8.8 -2.5
v 1 8.8 -3
v 1.1 8.6 -2.5
v 1.1 8.6 -3
v 1.1 8.7 -2.5
v 1.1 8.7 -3
v 1.2 8.5 -2.5
v 1.2 8.5 -3
v 1.2 8.6 -2.5
v 1.2 8.6 -3
v 1.3 8.4 -2.5
v 1.3 8.4 -3
v 1.3 8.5 -2.5
v 1.3 8.5 -3
v 1.4 0 -2.5
v 1.4 0 -3.5
v 1.4 0.1 -2.5
v 1.4 0.1 -3.5
v 1.4 1.4 -2.5
v 1.4 1.4 -3.5
v 1.4 8.3 -2.5
v 1.4 8.3 -3
v 1.4 8.4 -2.5
v 1.4 8.4 -3
v 1.5 8.2 -2.5
v 1.5 8.2 -3
v 1.5 8.3 -2.5
v 1.5 8.3 -3
v 1.6 8.1 -2.5
v 1.6 8.1 -3
v 1.6 8.2 -2.5
v 1.6 8.2 -3
v 1.7 1.4 -2.5
v 1.7 1.4 -3
v 1.7 8.1 -2.5
v 1.7 8.1 -3
v 0.8 10.1 1.2
v 0.8 10.1 -3
v 0.8 10.2 1.2
v 0.8 10.2 -3
v 0.9 10 1.2
v 0.9 10 -3
v 0.9 10.1 1.2
v 0.9 10.1 -3
v 1 9.9 1.2
v 1 9.9 -3
v 1 10 1.2
v 1 10 -3
v 1.1 9.8 1.2
v 1.1 9.8 -3
v 1.1 9.9 1.2
v 1.1 9.9 -3
v 1.2 9.7 1.2
v 1.2 9.7 -3
v 1.2 9.8 1.2
v 1.2 9.8 -3
v 1.3 9.6 1.2
v 1.3 9.6 -3
v 1.3 9.7 1.2
v 1.3 9.7 -3
v 1.4 9.5 1.2
v 1.4 9.5 -3
v 1.4 9.6 1.2
v 1.4 9.6 -3
v 1.5 9.4 1.2
v 1.5 9.4 -3
v 1.5 9.5 1.2
v 1.5 9.5 -3
v 1.6 9.3 1.2
v 1.6 9.3 -3
v 1.6 9.4 1.2
v 1.6 9.4 -3
v 1.7 9.2 1.2
v 1.7 9.2 -3
v 1.7 9.3 1.2
v 1.7 9.3 -3
v 1.8 9.1 1.2
v 1.8 9.1 -3
v 1.8 9.2 1.2
v 1.8 9.2 -3
v 1.9 9 1.2
v 1.9 9 -3
v 1.9 9.1 1.2
v 1.9 9.1 -3
v 2 8.9 1.2
v 2 8.9 -3
v 2 9 1.2
v 2 9 -3
v 2.1 8.8 1.2
v 2.1 8.8 -3
v 2.1 8.9 1.2
v 2.1 8.9 -3
v 2.2 8.7 1.2
v 2.2 8.7 -3
v 2.2 8.8 1.2
v 2.2 8.8 -3
v 2.3 0.1 1.2
v 2.3 0.1 -2.4
v 2.3 0.2 1.2
v 2.3 0.2 -2.4
v 2.3 8.6 1.2
v 2.3 8.6 -3
v 2.3 8.7 1.2
v 2.3 8.7 -3
v 2.4 0 -2.4
v 2.4 0 -3.5
v 2.4 0.1 -2.4
v 2.4 0.1 -3.5
v 2.4 0.2 1.2
v 2.4 0.2 -2.4
v 2.4 0.2 -3
v 2.4 0.2 -3.5
v 2.4 1.4 -3
v 2.4 1.4 -3.5
v 2.4 8.6 1.2
v 2.4 8.6 -3
v -2.4 0.2 1.2
v -2.4 10.2 1.2
v -2.3 0.1 1.2
v -2.3 0.2 1.2
v 0.8 10.1 1.2
v 0.8 10.2 1.2
v 0.9 10 1.2
v 0.9 10.1 1.2
v 1 9.9 1.2
v 1 10 1.2
v 1.1 9.8 1.2
v 1.1 9.9 1.2
v 1.2 9.7 1.2
v 1.2 9.8 1.2
v 1.3 9.6 1.2
v 1.3 9.7 1.2
v 1.4 9.5 1.2
v 1.4 9.6 1.2
v 1.5 9.4 1.2
v 1.5 9.5 1.2
v 1.6 9.3 1.2
v 1.6 9.4 1.2
v 1.7 9.2 1.2
v 1.7 9.3 1.2
v 1.8 9.1 1.2
v 1.8 9.2 1.2
v 1.9 9 1.2
v 1.9 9.1 1.2
v 2 8.9 1.2
v 2 9 1.2
v 2.1 8.8 1.2
v 2.1 8.9 1.2
v 2.2 8.7 1.2
v 2.2 8.8 1.2
v 2.3 0.1 1.2
v 2.3 0.2 1.2
v 2.3 8.6 1.2
v 2.3 8.7 1.2
v 2.4 0.2 1.2
v 2.4 8.6 1.2
v -2.4 0 -2.4
v -2.4 0.1 -2.4
v -2.4 0.2 -2.4
v -2.3 0.1 -2.4
v -2.3 0.2 -2.4
v 2.3 0.1 -2.4
v 2.3 0.2 -2.4
v 2.4 0 -2.4
v 2.4 0.1 -2.4
v 2.4 0.2 -2.4
v -2.4 0 -2.5
v -2.4 0.1 -2.5
v -2.4 0.2 -2.5
v -2.4 9.3 -2.5
v -2.3 0.1 -2.5
v -2.3 0.2 -2.5
v 0.5 9.2 -2.5
v 0.5 9.3 -2.5
v 0.6 9.1 -2.5
v 0.6 9.2 -2.5
v 0.7 9 -2.5
v 0.7 9.1 -2.5
v 0.8 8.9 -2.5
v 0.8 9 -2.5
v 0.9 8.8 -2.5
v 0.9 8.9 -2.5
v 1 8.7 -2.5
v 1 8.8 -2.5
v 1.1 8.6 -2.5
v 1.1 8.7 -2.5
v 1.2 8.5 -2.5
v 1.2 8.6 -2.5
v 1.3 8.4 -2.5
v 1.3 8.5 -2.5
v 1.4 0 -2.5
v 1.4 0.1 -2.5
v 1.4 1.4 -2.5
v 1.4 8.3 -2.5
v 1.4 8.4 -2.5
v 1.5 8.2 -2.5
v 1.5 8.3 -2.5
v 1.6 8.1 -2.5
v 1.6 8.2 -2.5
v 1.7 1.4 -2.5
v 1.7 8.1 -2.5
v -2.4 9.3 -3
v -2.4 10.2 -3
v 0.5 9.2 -3
v 0.5 9.3 -3
v 0.6 9.1 -3
v 0.6 9.2 -3
v 0.7 9 -3
v 0.7 9.1 -3
v 0.8 8.9 -3
v 0.8 9 -3
v 0.8 10.1 -3
v 0.8 10.2 -3
v 0.9 8.8 -3
v 0.9 8.9 -3
v 0.9 10 -3
v 0.9 10.1 -3
v 1 8.7 -3
v 1 8.8 -3
v 1 9.9 -3
v 1 10 -3
v 1.1 8.6 -3
v 1.1 8.7 -3
v 1.1 9.8 -3
v 1.1 9.9 -3
v 1.2 8.5 -3
v 1.2 8.6 -3
v 1.2 9.7 -3
v 1.2 9.8 -3
v 1.3 8.4 -3
v 1.3 8.5 -3
v 1.3 9.6 -3
v 1.3 9.7 -3
v 1.4 8.3 -3
v 1.4 8.4 -3
v 1.4 9.5 -3
v 1.4 9.6 -3
v 1.5 8.2 -3
v 1.5 8.3 -3
v 1.5 9.4 -3
v 1.5 9.5 -3
v 1.6 8.1 -3
v 1.6 8.2 -3
v 1.6 9.3 -3
v 1.6 9.4 -3
v 1.7 1.4 -3
v 1.7 8.1 -3
v 1.7 9.2 -3
v 1.7 9.3 -3
v 1.8 9.1 -3
v 1.8 9.2 -3
v 1.9 9 -3
v 1.9 9.1 -3
v 2 8.9 -3
v 2 9 -3
v 2.1 8.8 -3
v 2.1 8.9 -3
v 2.2 8.7 -3
v 2.2 8.8 -3
v 2.3 8.6 -3
v 2.3 8.7 -3
v 2.4 1.4 -3
v 2.4 8.6 -3
v 1.4 0 -3.5
v 1.4 0.1 -3.5
v 1.4 1.4 -3.5
v 2.3 0 -3.5
v 2.3 0.1 -3.5
v 2.3 0.2 -3.5
v 2.4 0 -3.5
v 2.4 0.1 -3.5
v 2.4 0.2 -3.5
v 2.4 1.4 -3.5
v -2.4 0 -2.4
v 2.4 0 -2.4
v -2.4 0 -2.5
v 1.4 0 -2.5
v 2.3 0 -2.5
v 1.4 0 -3.5
v 2.3 0 -3.5
v 2.4 0 -3.5
v -2.3 0.1 1.2
v 2.3 0.1 1.2
v -2.3 0.1 -2.4
v 2.3 0.1 -2.4
v -2.4 0.2 1.2
v -2.3 0.2 1.2
v 2.3 0.2 1.2
v 2.4 0.2 1.2
v -2.4 0.2 -2.4
v -2.3 0.2 -2.4
v 2.3 0.2 -2.4
v 2.4 0.2 -2.4
v 1.6 8.1 -2.5
v 1.7 8.1 -2.5
v 1.6 8.1 -3
v 1.7 8.1 -3
v 1.5 8.2 -2.5
v 1.6 8.2 -2.5
v 1.5 8.2 -3
v 1.6 8.2 -3
v 1.4 8.3 -2.5
v 1.5 8.3 -2.5
v 1.4 8.3 -3
v 1.5 8.3 -3
v 1.3 8.4 -2.5
v 1.4 8.4 -2.5
v 1.3 8.4 -3
v 1.4 8.4 -3
v 1.2 8.5 -2.5
v 1.3 8.5 -2.5
v 1.2 8.5 -3
v 1.3 8.5 -3
v 1.1 8.6 -2.5
v 1.2 8.6 -2.5
v 1.1 8.6 -3
v 1.2 8.6 -3
v 1 8.7 -2.5
v 1.1 8.7 -2.5
v 1 8.7 -3
v 1.1 8.7 -3
v 0.9 8.8 -2.5
v 1 8.8 -2.5
v 0.9 8.8 -3
v 1 8.8 -3
v 0.8 8.9 -2.5
v 0.9 8.9 -2.5
v 0.8 8.9 -3
v 0.9 8.9 -3
v 0.7 9 -2.5
v 0.8 9 -2.5
v 0.7 9 -3
v 0.8 9 -3
v 0.6 9.1 -2.5
v 0.7 9.1 -2.5
v 0.6 9.1 -3
v 0.7 9.1 -3
v 0.5 9.2 -2.5
v 0.6 9.2 -2.5
v 0.5 9.2 -3
v 0.6 9.2 -3
v -2.4 9.3 -2.5
v 0.5 9.3 -2.5
v -2.4 9.3 -3
v 0.5 9.3 -3
v 1.4 1.4 -2.5
v 1.7 1.4 -2.5
v 1.7 1.4 -3
v 2.4 1.4 -3
v 1.4 1.4 -3.5
v 2.4 1.4 -3.5
v 2.3 8.6 1.2
v 2.4 8.6 1.2
v 2.3 8.6 -3
v 2.4 8.6 -3
v 2.2 8.7 1.2
v 2.3 8.7 1.2
v 2.2 8.7 -3
v 2.3 8.7 -3
v 2.1 8.8 1.2
v 2.2 8.8 1.2
v 2.1 8.8 -3
v 2.2 8.8 -3
v 2 8.9 1.2
v 2.1 8.9 1.2
v 2 8.9 -3
v 2.1 8.9 -3
v 1.9 9 1.2
v 2 9 1.2
v 1.9 9 -3
v 2 9 -3
v 1.8 9.1 1.2
v 1.9 9.1 1.2
v 1.8 9.1 -3
v 1.9 9.1 -3
v 1.7 9.2 1.2
v 1.8 9.2 1.2
v 1.7 9.2 -3
v 1.8 9.2 -3
v 1.6 9.3 1.2
v 1.7 9.3 1.2
v 1.6 9.3 -3
v 1.7 9.3 -3
v 1.5 9.4 1.2
v 1.6 9.4 1.2
v 1.5 9.4 -3
v 1.6 9.4 -3
v 1.4 9.5 1.2
v 1.5 9.5 1.2
v 1.4 9.5 -3
v 1.5 9.5 -3
v 1.3 9.6 1.2
v 1.4 9.6 1.2
v 1.3 9.6 -3
v 1.4 9.6 -3
v 1.2 9.7 1.2
v 1.3 9.7 1.2
v 1.2 9.7 -3
v 1.3 9.7 -3
v 1.1 9.8 1.2
v 1.2 9.8 1.2
v 1.1 9.8 -3
v 1.2 9.8 -3
v 1 9.9 1.2
v 1.1 9.9 1.2
v 1 9.9 -3
v 1.1 9.9 -3
v 0.9 10 1.2
v 1 10 1.2
v 0.9 10 -3
v 1 10 -3
v 0.8 10.1 1.2
v 0.9 10.1 1.2
v 0.8 10.1 -3
v 0.9 10.1 -3
v -2.4 10.2 1.2
v 0.8 10.2 1.2
v -2.4 10.2 -3
v 0.8 10.2 -3

# faces
f 3/3/1 2/3/1 1/3/1
f 4/3/1 2/3/1 3/3/1
f 6/4/1 4/4/1 3/4/1
f 7/4/1 4/4/1 6/4/1
f 8/1/1 7/1/1 6/1/1
f 10/1/1 8/1/1 6/1/1
f 10/2/1 6/2/1 5/2/1
f 11/2/1 9/2/1 8/2/1
f 11/1/1 8/1/1 10/1/1
f 12/2/1 10/2/1 5/2/1
f 12/2/1 11/2/1 10/2/1
f 13/2/1 9/2/1 11/2/1
f 13/2/1 11/2/1 12/2/1
f 16/2/1 15/2/1 14/2/1
f 17/2/1 15/2/1 16/2/1
f 20/2/1 19/2/1 18/2/1
f 21/2/1 19/2/1 20/2/1
f 24/2/1 23/2/1 22/2/1
f 25/2/1 23/2/1 24/2/1
f 28/2/1 27/2/1 26/2/1
f 29/2/1 27/2/1 28/2/1
f 32/2/1 31/2/1 30/2/1
f 33/2/1 31/2/1 32/2/1
f 36/2/1 35/2/1 34/2/1
f 37/2/1 35/2/1 36/2/1
f 40/2/1 39/2/1 38/2/1
f 41/2/1 39/2/1 40/2/1
f 44/2/1 43/2/1 42/2/1
f 45/2/1 43/2/1 44/2/1
f 48/2/1 47/2/1 46/2/1
f 49/2/1 47/2/1 48/2/1
f 52/2/1 51/2/1 50/2/1
f 53/2/1 51/2/1 52/2/1
f 56/5/1 55/5/1 54/5/1
f 57/5/1 55/5/1 56/5/1
f 58/6/1 57/6/1 56/6/1
f 59/6/1 57/6/1 58/6/1
f 62/2/1 61/2/1 60/2/1
f 63/2/1 61/2/1 62/2/1
f 66/2/1 65/2/1 64/2/1
f 67/2/1 65/2/1 66/2/1
f 70/2/1 69/2/1 68/2/1
f 71/2/1 69/2/1 70/2/1
f 74/2/1 73/2/1 72/2/1
f 75/2/1 73/2/1 74/2/1
f 76/2/2 77/2/2 78/2/2
f 78/2/2 77/2/2 79/2/2
f 80/2/2 81/2/2 82/2/2
f 82/2/2 81/2/2 83/2/2
f 84/2/2 85/2/2 86/2/2
f 86/2/2 85/2/2 87/2/2
f 88/2/2 89/2/2 90/2/2
f 90/2/2 89/2/2 91/2/2
f 92/2/2 93/2/2 94/2/2
f 94/2/2 93/2/2 95/2/2
f 96/2/2 97/2/2 98/2/2
f 98/2/2 97/2/2 99/2/2
f 100/2/2 101/2/2 102/2/2
f 102/2/2 101/2/2 103/2/2
f 104/2/2 105/2/2 106/2/2
f 106/2/2 105/2/2 107/2/2
f 108/2/2 109/2/2 110/2/2
f 110/2/2 109/2/2 111/2/2
f 112/2/2 113/2/2 114/2/2
f 114/2/2 113/2/2 115/2/2
f 116/2/2 117/2/2 118/2/2
f 118/2/2 117/2/2 119/2/2
f 120/2/2 121/2/2 122/2/2
f 122/2/2 121/2/2 123/2/2
f 124/2/2 125/2/2 126/2/2
f 126/2/2 125/2/2 127/2/2
f 128/2/2 129/2/2 130/2/2
f 130/2/2 129/2/2 131/2/2
f 132/2/2 133/2/2 134/2/2
f 134/2/2 133/2/2 135/2/2
f 136/2/2 137/2/2 138/2/2
f 138/2/2 137/2/2 139/2/2
f 140/2/2 141/2/2 142/2/2
f 142/2/2 141/2/2 143/2/2
f 144/3/2 145/3/2 146/3/2
f 146/3/2 145/3/2 147/3/2
f 146/4/2 147/4/2 149/4/2
f 149/4/2 147/4/2 150/4/2
f 150/4/2 147/4/2 151/4/2
f 148/2/2 149/2/2 152/2/2
f 149/2/2 150/2/2 152/2/2
f 150/6/2 151/6/2 152/6/2
f 152/6/2 151/6/2 153/6/2
f 148/2/2 152/2/2 154/2/2
f 154/2/2 152/2/2 155/2/2
f 159/2/3 157/2/3 156/2/3
f 160/2/3 157/2/3 159/2/3
f 160/2/3 159/2/3 158/2/3
f 161/2/3 157/2/3 160/2/3
f 162/2/3 160/2/3 158/2/3
f 163/2/3 160/2/3 162/2/3
f 164/2/3 162/2/3 158/2/3
f 165/2/3 162/2/3 164/2/3
f 166/2/3 164/2/3 158/2/3
f 167/2/3 164/2/3 166/2/3
f 168/2/3 166/2/3 158/2/3
f 169/2/3 166/2/3 168/2/3
f 170/2/3 168/2/3 158/2/3
f 171/2/3 168/2/3 170/2/3
f 172/2/3 170/2/3 158/2/3
f 173/2/3 170/2/3 172/2/3
f 174/2/3 172/2/3 158/2/3
f 175/2/3 172/2/3 174/2/3
f 176/2/3 174/2/3 158/2/3
f 177/2/3 174/2/3 176/2/3
f 178/2/3 176/2/3 158/2/3
f 179/2/3 176/2/3 178/2/3
f 180/2/3 178/2/3 158/2/3
f 181/2/3 178/2/3 180/2/3
f 182/2/3 180/2/3 158/2/3
f 183/2/3 180/2/3 182/2/3
f 184/2/3 182/2/3 158/2/3
f 185/2/3 182/2/3 184/2/3
f 186/2/3 184/2/3 158/2/3
f 187/2/3 184/2/3 186/2/3
f 188/2/3 186/2/3 158/2/3
f 189/2/3 186/2/3 188/2/3
f 190/2/3 188/2/3 158/2/3
f 191/2/3 188/2/3 190/2/3
f 192/2/3 188/2/3 191/2/3
f 193/2/3 188/2/3 192/2/3
f 194/2/3 192/2/3 191/2/3
f 195/2/3 192/2/3 194/2/3
f 199/3/3 197/3/3 196/3/3
f 199/4/3 198/4/3 197/4/3
f 200/4/3 198/4/3 199/4/3
f 201/3/3 199/3/3 196/3/3
f 203/3/3 201/3/3 196/3/3
f 204/4/3 202/4/3 201/4/3
f 204/3/3 201/3/3 203/3/3
f 205/4/3 202/4/3 204/4/3
f 206/3/4 207/3/4 210/3/4
f 207/4/4 208/4/4 210/4/4
f 208/1/4 209/1/4 211/1/4
f 210/4/4 208/4/4 211/4/4
f 210/1/4 211/1/4 212/1/4
f 211/1/4 209/1/4 212/1/4
f 212/1/4 209/1/4 213/1/4
f 210/1/4 212/1/4 214/1/4
f 214/1/4 212/1/4 215/1/4
f 210/1/4 214/1/4 216/1/4
f 216/1/4 214/1/4 217/1/4
f 210/1/4 216/1/4 218/1/4
f 218/1/4 216/1/4 219/1/4
f 210/1/4 218/1/4 220/1/4
f 220/1/4 218/1/4 221/1/4
f 210/1/4 220/1/4 222/1/4
f 222/1/4 220/1/4 223/1/4
f 210/1/4 222/1/4 224/1/4
f 224/1/4 222/1/4 225/1/4
f 210/1/4 224/1/4 226/1/4
f 226/1/4 224/1/4 227/1/4
f 210/1/4 226/1/4 228/1/4
f 228/1/4 226/1/4 229/1/4
f 206/3/4 210/3/4 230/3/4
f 210/1/4 228/1/4 231/1/4
f 230/3/4 210/3/4 231/3/4
f 231/1/4 228/1/4 232/1/4
f 232/1/4 228/1/4 233/1/4
f 233/1/4 228/1/4 234/1/4
f 232/1/4 233/1/4 235/1/4
f 235/1/4 233/1/4 236/1/4
f 232/1/4 235/1/4 237/1/4
f 237/1/4 235/1/4 238/1/4
f 232/1/4 237/1/4 239/1/4
f 239/1/4 237/1/4 240/1/4
f 241/2/4 242/2/4 244/2/4
f 243/2/4 244/2/4 246/2/4
f 245/2/4 246/2/4 248/2/4
f 247/2/4 248/2/4 250/2/4
f 244/2/4 242/2/4 251/2/4
f 246/2/4 244/2/4 251/2/4
f 250/2/4 248/2/4 251/2/4
f 248/2/4 246/2/4 251/2/4
f 251/2/4 242/2/4 252/2/4
f 249/2/4 250/2/4 254/2/4
f 250/2/4 251/2/4 254/2/4
f 254/2/4 251/2/4 255/2/4
f 255/2/4 251/2/4 256/2/4
f 253/2/4 254/2/4 258/2/4
f 254/2/4 255/2/4 258/2/4
f 258/2/4 255/2/4 259/2/4
f 259/2/4 255/2/4 260/2/4
f 257/2/4 258/2/4 262/2/4
f 258/2/4 259/2/4 262/2/4
f 262/2/4 259/2/4 263/2/4
f 263/2/4 259/2/4 264/2/4
f 261/2/4 262/2/4 266/2/4
f 262/2/4 263/2/4 266/2/4
f 266/2/4 263/2/4 267/2/4
f 267/2/4 263/2/4 268/2/4
f 265/2/4 266/2/4 270/2/4
f 266/2/4 267/2/4 270/2/4
f 270/2/4 267/2/4 271/2/4
f 271/2/4 267/2/4 272/2/4
f 269/2/4 270/2/4 274/2/4
f 270/2/4 271/2/4 274/2/4
f 274/2/4 271/2/4 275/2/4
f 275/2/4 271/2/4 276/2/4
f 273/2/4 274/2/4 278/2/4
f 274/2/4 275/2/4 278/2/4
f 278/2/4 275/2/4 279/2/4
f 279/2/4 275/2/4 280/2/4
f 277/2/4 278/2/4 282/2/4
f 278/2/4 279/2/4 282/2/4
f 282/2/4 279/2/4 283/2/4
f 283/2/4 279/2/4 284/2/4
f 281/2/4 282/2/4 286/2/4
f 282/2/4 283/2/4 286/2/4
f 286/2/4 283/2/4 287/2/4
f 287/2/4 283/2/4 288/2/4
f 285/2/4 286/2/4 289/2/4
f 286/2/4 287/2/4 289/2/4
f 289/2/4 287/2/4 290/2/4
f 285/2/4 289/2/4 291/2/4
f 291/2/4 289/2/4 292/2/4
f 285/2/4 291/2/4 293/2/4
f 293/2/4 291/2/4 294/2/4
f 285/2/4 293/2/4 295/2/4
f 295/2/4 293/2/4 296/2/4
f 285/2/4 295/2/4 297/2/4
f 297/2/4 295/2/4 298/2/4
f 285/2/4 297/2/4 299/2/4
f 299/2/4 297/2/4 300/2/4
f 285/2/4 299/2/4 301/2/4
f 301/2/4 299/2/4 302/2/4
f 303/5/4 304/5/4 306/5/4
f 304/6/4 305/6/4 307/6/4
f 306/5/4 304/5/4 307/5/4
f 307/6/4 305/6/4 308/6/4
f 306/3/4 307/3/4 309/3/4
f 307/4/4 308/4/4 310/4/4
f 309/3/4 307/3/4 310/3/4
f 308/6/4 305/6/4 311/6/4
f 310/4/4 308/4/4 311/4/4
f 311/6/4 305/6/4 312/6/4
f 315/3/5 314/3/5 313/3/5
f 316/3/5 314/3/5 315/3/5
f 317/3/5 314/3/5 316/3/5
f 318/5/5 317/5/5 316/5/5
f 319/3/5 314/3/5 317/3/5
f 319/5/5 317/5/5 318/5/5
f 320/3/5 314/3/5 319/3/5
f 323/2/5 322/2/5 321/2/5
f 324/2/5 322/2/5 323/2/5
f 329/2/5 326/2/5 325/2/5
f 330/2/5 326/2/5 329/2/5
f 331/2/5 328/2/5 327/2/5
f 332/2/5 328/2/5 331/2/5
f 335/2/5 334/2/5 333/2/5
f 336/2/5 334/2/5 335/2/5
f 339/2/5 338/2/5 337/2/5
f 340/2/5 338/2/5 339/2/5
f 343/2/5 342/2/5 341/2/5
f 344/2/5 342/2/5 343/2/5
f 347/2/5 346/2/5 345/2/5
f 348/2/5 346/2/5 347/2/5
f 351/2/5 350/2/5 349/2/5
f 352/2/5 350/2/5 351/2/5
f 355/2/5 354/2/5 353/2/5
f 356/2/5 354/2/5 355/2/5
f 359/2/5 358/2/5 357/2/5
f 360/2/5 358/2/5 359/2/5
f 363/2/5 362/2/5 361/2/5
f 364/2/5 362/2/5 363/2/5
f 367/2/5 366/2/5 365/2/5
f 368/2/5 366/2/5 367/2/5
f 371/2/5 370/2/5 369/2/5
f 372/2/5 370/2/5 371/2/5
f 375/2/5 374/2/5 373/2/5
f 376/2/5 374/2/5 375/2/5
f 379/2/5 378/2/5 377/2/5
f 380/2/5 378/2/5 379/2/5
f 383/2/5 382/2/5 381/2/5
f 384/2/5 382/2/5 383/2/5
f 385/6/6 386/6/6 387/6/6
f 385/6/6 387/6/6 389/6/6
f 387/6/6 388/6/6 389/6/6
f 389/6/6 388/6/6 390/6/6
f 391/2/6 392/2/6 393/2/6
f 393/2/6 392/2/6 394/2/6
f 395/2/6 396/2/6 397/2/6
f 397/2/6 396/2/6 398/2/6
f 399/2/6 400/2/6 401/2/6
f 401/2/6 400/2/6 402/2/6
f 403/2/6 404/2/6 405/2/6
f 405/2/6 404/2/6 406/2/6
f 407/2/6 408/2/6 409/2/6
f 409/2/6 408/2/6 410/2/6
f 411/2/6 412/2/6 413/2/6
f 413/2/6 412/2/6 414/2/6
f 415/2/6 416/2/6 417/2/6
f 417/2/6 416/2/6 418/2/6
f 419/2/6 420/2/6 421/2/6
f 421/2/6 420/2/6 422/2/6
f 423/2/6 424/2/6 425/2/6
f 425/2/6 424/2/6 426/2/6
f 427/2/6 428/2/6 429/2/6
f 429/2/6 428/2/6 430/2/6
f 431/2/6 432/2/6 433/2/6
f 433/2/6 432/2/6 434/2/6
f 435/2/6 436/2/6 437/2/6
f 437/2/6 436/2/6 438/2/6
f 439/2/6 440/2/6 441/2/6
f 441/2/6 440/2/6 442/2/6
f 443/2/6 444/2/6 445/2/6
f 445/2/6 444/2/6 446/2/6
f 447/2/6 448/2/6 449/2/6
f 449/2/6 448/2/6 450/2/6
f 451/2/6 452/2/6 453/2/6
f 453/2/6 452/2/6 454/2/6
f 455/2/6 456/2/6 457/2/6
f 457/2/6 456/2/6 458/2/6
