# MagicaVoxel @ Ephtracy

# group
o 

# material
mtllib gym-stage-133.mtl
usemtl palette

# normals
vn -1 0 0
vn 1 0 0
vn 0 0 1
vn 0 0 -1
vn 0 -1 0
vn 0 1 0

# texcoords
vt 0.845703 0.5
vt 0.876953 0.5

# verts
v -21.6 0 -36
v -21.6 0 -40.8
v -21.6 0.1 -36
v -21.6 0.1 -40.8
v -21.6 0.2 -36
v -21.6 0.2 -40.8
v -16.9 0.1 -36.1
v -16.9 0.1 -40.7
v -16.9 0.2 -36.1
v -16.9 0.2 -40.7
v -21.5 0.1 -36.1
v -21.5 0.1 -40.7
v -21.5 0.2 -36.1
v -21.5 0.2 -40.7
v -16.8 0 -36
v -16.8 0 -40.8
v -16.8 0.1 -36
v -16.8 0.1 -40.8
v -16.8 0.2 -36
v -16.8 0.2 -40.8
v -21.6 0 -36
v -21.6 0.1 -36
v -21.6 0.2 -36
v -16.8 0 -36
v -16.8 0.1 -36
v -16.8 0.2 -36
v -21.5 0.1 -40.7
v -21.5 0.2 -40.7
v -16.9 0.1 -40.7
v -16.9 0.2 -40.7
v -21.5 0.1 -36.1
v -21.5 0.2 -36.1
v -16.9 0.1 -36.1
v -16.9 0.2 -36.1
v -21.6 0 -40.8
v -21.6 0.1 -40.8
v -21.6 0.2 -40.8
v -16.8 0 -40.8
v -16.8 0.1 -40.8
v -16.8 0.2 -40.8
v -21.6 0 -36
v -16.8 0 -36
v -21.6 0 -40.8
v -16.8 0 -40.8
v -21.5 0.1 -36.1
v -16.9 0.1 -36.1
v -21.5 0.1 -40.7
v -16.9 0.1 -40.7
v -21.6 0.2 -36
v -16.8 0.2 -36
v -21.5 0.2 -36.1
v -16.9 0.2 -36.1
v -21.5 0.2 -40.7
v -16.9 0.2 -40.7
v -21.6 0.2 -40.8
v -16.8 0.2 -40.8

# faces
f 3/1/1 2/1/1 1/1/1
f 4/1/1 2/1/1 3/1/1
f 5/2/1 4/2/1 3/2/1
f 6/2/1 4/2/1 5/2/1
f 9/2/1 8/2/1 7/2/1
f 10/2/1 8/2/1 9/2/1
f 11/2/2 12/2/2 13/2/2
f 13/2/2 12/2/2 14/2/2
f 15/1/2 16/1/2 17/1/2
f 17/1/2 16/1/2 18/1/2
f 17/2/2 18/2/2 19/2/2
f 19/2/2 18/2/2 20/2/2
f 24/1/3 22/1/3 21/1/3
f 25/2/3 23/2/3 22/2/3
f 25/1/3 22/1/3 24/1/3
f 26/2/3 23/2/3 25/2/3
f 29/2/3 28/2/3 27/2/3
f 30/2/3 28/2/3 29/2/3
f 31/2/4 32/2/4 33/2/4
f 33/2/4 32/2/4 34/2/4
f 35/1/4 36/1/4 38/1/4
f 36/2/4 37/2/4 39/2/4
f 38/1/4 36/1/4 39/1/4
f 39/2/4 37/2/4 40/2/4
f 43/1/5 42/1/5 41/1/5
f 44/1/5 42/1/5 43/1/5
f 45/1/6 46/1/6 47/1/6
f 47/1/6 46/1/6 48/1/6
f 49/2/6 50/2/6 51/2/6
f 51/2/6 50/2/6 52/2/6
f 49/2/6 51/2/6 53/2/6
f 52/2/6 50/2/6 54/2/6
f 49/2/6 53/2/6 55/2/6
f 53/2/6 54/2/6 55/2/6
f 54/2/6 50/2/6 56/2/6
f 55/2/6 54/2/6 56/2/6
