<svg id="Layer_1" height="512" viewBox="0 0 32 32" width="512" xmlns="http://www.w3.org/2000/svg"><path d="m15.99 1c-.406.002-.771.252-.924.629-.989 2.47-3.386 5.717-5.566 8.983-2.179 3.266-4.215 6.547-4.215 9.693 0 5.895 4.808 10.695 10.711 10.695 5.904 0 10.719-4.801 10.719-10.695 0-3.146-2.034-6.427-4.215-9.693-2.18-3.266-4.583-6.514-5.571-8.982-.155-.382-.527-.633-.939-.63zm5.487 18.227c-.009-.549.431-1.002.98-1.011.554-.01 1.009.43 1.019.997 0 4.125-3.362 7.478-7.479 7.478-.552.013-1.01-.426-1.021-.978-.014-.553.426-1.01 1-1.022 3.058-.002 5.501-2.438 5.501-5.464z"/></svg>