<svg id="Capa_1" enable-background="new 0 0 512 512" height="512" viewBox="0 0 512 512" width="512" xmlns="http://www.w3.org/2000/svg"><g><path d="m461.231 322.529-115.232-66.529 115.232-66.529c21.523-12.426 28.897-39.947 16.471-61.471-12.426-21.522-39.946-28.899-61.471-16.471l-115.231 66.529v-133.058c0-24.853-20.147-45-45-45s-45 20.147-45 45v133.058l-115.231-66.529c-21.526-12.427-49.046-5.052-61.472 16.471s-5.052 49.045 16.471 61.471l115.233 66.529-115.232 66.529c-21.523 12.426-28.898 39.948-16.472 61.471 8.335 14.438 23.46 22.508 39.013 22.508 7.633 0 15.372-1.945 22.458-6.037l115.232-66.529v133.058c0 24.853 20.147 45 45 45s45-20.147 45-45v-133.058l115.231 66.529c7.087 4.092 14.823 6.037 22.458 6.037 15.552 0 30.679-8.072 39.013-22.508 12.427-21.523 5.052-49.045-16.471-61.471z"/></g></svg>