<svg clip-rule="evenodd" fill-rule="evenodd" height="512" image-rendering="optimizeQuality" shape-rendering="geometricPrecision" text-rendering="geometricPrecision" viewBox="0 0 333.33 333.33" width="512" xmlns="http://www.w3.org/2000/svg"><g id="Layer_x0020_1"><path d="m281.72 28.59 25.2 182.09c-8.85 7.85-65.52 57.06-121.83 80.08v-145.05h55.8l16.32-63.17h-181.09l16.32 63.17h55.8v145.05c-56.31-23.02-112.98-72.22-121.83-80.08l25.2-182.09c51.1-26.64 179.01-26.64 230.11 0zm26.77 193.42 2.83 20.46s-60.88 59.47-126.23 82.24v-23.66c52.54-20.48 105.82-63.96 123.4-79.04zm-160.25 79.04v23.66c-65.35-22.77-126.23-82.24-126.23-82.24l2.83-20.46c17.58 15.08 70.85 58.56 123.4 79.04z"/></g></svg>