<svg height="512" viewBox="0 0 48 48" width="512" xmlns="http://www.w3.org/2000/svg"><g id="Sword"><rect height="18" rx="1" transform="matrix(.707 -.707 .707 .707 -18.425 20.486)" width="6" x="12.516" y="23.484"/><path d="m6.859 35.141h6v6h-6z" transform="matrix(.707 -.707 .707 .707 -24.082 18.143)"/><path d="m4.2021 39.5553-2.1214 2.1213a1 1 0 0 0 0 1.4142l2.8285 2.8285a1 1 0 0 0 1.4142 0l2.1213-2.1214z"/><path d="m18.3442 28.2416 13.435-13.435a1 1 0 1 1 1.4142 1.4142l-13.435 13.435 3.0441 3.0442 20.9237-17.1193a1.0042 1.0042 0 0 0 .3514-.6l2.1214-12.0207a1.0371 1.0371 0 0 0 -1.159-1.159l-12.0206 2.1214a1.0042 1.0042 0 0 0 -.6.3514l-17.1194 20.9237z"/></g></svg>