<svg id="Icons" height="512" viewBox="0 0 60 60" width="512" xmlns="http://www.w3.org/2000/svg"><path d="m2.469 57.535a1.64 1.64 0 0 0 2.2.056l28.037-25.222a4.6 4.6 0 0 1 4.807-.806 16.2 16.2 0 0 0 17.469-3.595l2.505-2.5a1.556 1.556 0 0 0 .275-1.97 1.482 1.482 0 0 0 -2.233-.2l-2.6 2.6a13.3 13.3 0 1 1 -18.819-18.798l2.508-2.507a1.554 1.554 0 0 0 .265-1.97 1.48 1.48 0 0 0 -2.233-.2l-2.6 2.612a16.193 16.193 0 0 0 -3.6 17.463 4.6 4.6 0 0 1 -.8 4.81l-25.25 28.033a1.6 1.6 0 0 0 .069 2.194z"/><path d="m43.5 5.18a11.32 11.32 0 1 0 11.32 11.32 11.322 11.322 0 0 0 -11.32-11.32zm5.95 6.81a1.024 1.024 0 0 1 -.71.29 1.042 1.042 0 0 1 -.71-.29 6.38 6.38 0 0 0 -9.02 0 1 1 0 1 1 -1.42-1.42 8.414 8.414 0 0 1 11.86 0 1.008 1.008 0 0 1 0 1.42z"/></svg>