<?xml version="1.0" encoding="UTF-8"?>
<svg xmlns="http://www.w3.org/2000/svg" id="Icons" viewBox="0 0 60 60" width="512" height="512"><path d="M27.361,2a1,1,0,0,0-.987,1.165l1.334,8a1,1,0,0,0,.986.835h2.612a1,1,0,0,0,.986-.835l1.334-8A1,1,0,0,0,32.639,2Z"/><path d="M24,40V55H36V40a1,1,0,0,1,.594-.914l7.809-3.47A1,1,0,0,0,45,34.7V29.47a1,1,0,0,0-1.209-.973l-9.9,2.12a1,1,0,0,0-.781,1.041l.82,13.18a4,4,0,0,1-.782,2.635L31.99,49.011a2.492,2.492,0,0,1-3.976,0L26.86,47.48a4,4,0,0,1-.787-2.651l.819-13.172a1,1,0,0,0-.786-1.041l-9.9-2.119A1,1,0,0,0,15,29.47V34.7a1,1,0,0,0,.6.916l7.809,3.47A1,1,0,0,1,24,40Z"/><path d="M8,56a2,2,0,0,0,2,2H20a2,2,0,0,0,2-2V40.65l-7.216-3.206A3,3,0,0,1,13,34.7V29.47a3,3,0,0,1,3.631-2.928l9.9,2.12a2.988,2.988,0,0,1,2.359,3.119l-.82,13.182a2,2,0,0,0,.4,1.324l1.143,1.523a.493.493,0,0,0,.786-.005l1.145-1.526a1.986,1.986,0,0,0,.393-1.307l-.821-13.19a2.987,2.987,0,0,1,2.354-3.119l9.905-2.121A2.995,2.995,0,0,1,47,29.47V34.7a3,3,0,0,1-1.784,2.744L38,40.65V56a2,2,0,0,0,2,2H50a2,2,0,0,0,2-2V27.55A22.44,22.44,0,0,0,35.236,5.667l-.971,5.826A2.991,2.991,0,0,1,31.306,14H28.694a2.991,2.991,0,0,1-2.959-2.507l-.974-5.84A22.011,22.011,0,0,0,8,27Z"/></svg>
