<svg id="Layer_1" enable-background="new 0 0 512.026 512.026" height="512" viewBox="0 0 512.026 512.026" width="512" xmlns="http://www.w3.org/2000/svg"><g><path d="m511.836 167.591c-.93-5.782-5.139-10.495-10.779-12.069-75.855-21.421-153.744-.596-205.862 55.05 11.503 38.633 13.781 79.853 5.805 120.126v46.712c158.405-26.635 126.766-137.555 204.378-194.983 4.865-3.26 7.387-9.054 6.458-14.836z"/><path d="m12.802 61.778c-5.793.858-10.558 5.01-12.199 10.631-1.643 5.621.136 11.684 4.555 15.527 83.84 80.144 22.475 211.539 235.842 254.329v96.318c.793 19.902 29.215 19.887 30 0v-110.923c33.288-151.88-103.113-292.471-258.198-265.882z"/></g></svg>