<?xml version="1.0" encoding="iso-8859-1"?>
<!-- Generator: Adobe Illustrator 19.0.0, SVG Export Plug-In . SVG Version: 6.00 Build 0)  -->
<svg version="1.1" id="Layer_1" xmlns="http://www.w3.org/2000/svg" xmlns:xlink="http://www.w3.org/1999/xlink" x="0px" y="0px"
	 viewBox="0 0 469.333 469.333" style="enable-background:new 0 0 469.333 469.333;" xml:space="preserve">
<g>
	<g>
		<path d="M468.523,6.592C466.88,2.603,462.976,0,458.667,0C44.694,0,0,171.563,0,245.333c0,26.539,5.888,51.328,17.515,73.664
			c1.792,3.456,5.333,5.653,9.216,5.739c3.669-0.107,7.531-1.941,9.472-5.333C64.15,271.104,143.296,151.893,274.006,88.555
			c5.355-2.56,11.755-0.363,14.293,4.907c2.56,5.312,0.341,11.712-4.949,14.272c-9.856,4.779-19.328,9.984-28.608,15.381
			c-3.541,2.069-6.976,4.267-10.453,6.421c-5.227,3.243-10.389,6.549-15.424,9.963c-5.013,3.371-9.963,6.827-14.827,10.368
			c-1.515,1.109-2.965,2.24-4.459,3.371C79.488,250.176,0,404.821,0,458.667c0,5.888,4.779,10.667,10.667,10.667
			s10.667-4.779,10.667-10.667c0-17.195,11.712-52.053,33.877-93.632c32.171,26.304,75.456,40.299,126.123,40.299
			c136.981,0,165.675-130.347,181.077-200.384c20.736-94.251,66.368-149.312,103.787-186.752
			C469.27,15.147,470.166,10.581,468.523,6.592z"/>
	</g>
</g>
<g>
</g>
<g>
</g>
<g>
</g>
<g>
</g>
<g>
</g>
<g>
</g>
<g>
</g>
<g>
</g>
<g>
</g>
<g>
</g>
<g>
</g>
<g>
</g>
<g>
</g>
<g>
</g>
<g>
</g>
</svg>
