<svg id="Capa_1" enable-background="new 0 0 511.999 511.999" height="512" viewBox="0 0 511.999 511.999" width="512" xmlns="http://www.w3.org/2000/svg"><g><path d="m389.053 7.603c-2.666-4.703-7.647-7.603-13.052-7.603h-180c-6.885 0-12.876 4.688-14.546 11.367l-60 241c-1.128 4.482-.117 9.229 2.725 12.861 2.842 3.647 7.207 5.771 11.821 5.771h68.35l-82.397 220.727c-2.637 7.031.337 14.927 6.943 18.486 6.636 3.556 14.846 1.653 19.233-4.395l240-331c3.325-4.556 3.794-10.591 1.245-15.63-2.563-5.024-7.734-8.188-13.374-8.188h-63.501l76.362-128.28c2.784-4.643 2.857-10.414.191-15.116z"/></g></svg>