<svg height="512pt" viewBox="-2 0 512 512" width="512pt" xmlns="http://www.w3.org/2000/svg"><path d="m112.917969 357.476562h70.804687l12.96875-99.671874 130.460938 36.871093 19.1875 117.515625h56.90625l22.730468 99.808594h81.15625l-53.289062-250.121094-37.234375-.441406-37.566406-169.425781-27.753907-15.921875-19.433593-76.089844-101.21875 11.875-22.125 100.066406h-57.988281l-11.640626 72.597656-73.398437 32.539063-65.484375 294.921875h72.003906zm0 0"/><path d="m379.304688 442.195312h-58.46875l-20.21875-123.839843-78.65625-22.230469-9.8125 75.40625 32.585937 140.46875h150.46875zm0 0"/><path d="m103.042969 512h110.890625l-28.886719-124.519531h-49.035156zm0 0"/></svg>