<svg height="512" viewBox="0 0 48 48" width="512" xmlns="http://www.w3.org/2000/svg"><g id="Sprint"><path d="m7.98 20.81 2.19 2.19h4.24l-4.31-4.31z"/><path d="m14.55 13a28.32 28.32 0 0 0 -3.07 4.26c.43.43-1.47-1.48 4.25 4.24a7.58 7.58 0 0 0 -1.18-8.5z"/><path d="m42.9 30.63c-1.37-.46-.74-.38-1.2.08-1.99 1.59-2.7 2.38-2.7 6.29h8v-.68a6 6 0 0 0 -4.1-5.69z"/><path d="m26.5 41h-24.5a1 1 0 0 0 0 2h29.2a22.32 22.32 0 0 1 -4.7-2z"/><path d="m18 39a1 1 0 0 0 0-2h-6a1 1 0 0 0 0 2z"/><path d="m12 7h6a1 1 0 0 0 0-2h-6a1 1 0 0 0 0 2z"/><path d="m3 15h8a1 1 0 0 0 0-2h-8a1 1 0 0 0 0 2z"/><path d="m37.92 39c-9.1-.17-13-5.52-19.51-12 1.65 0 2 .11 2.41-.43 5.39 5.43 8.66 9.82 16.18 10.43v-1.39a7.68 7.68 0 0 1 2.85-6l-1.85-.61-1.68-5c-3 1-3.07 1-3.32 1a1 1 0 0 1 -.32-1.95l3-1-1.08-3.25c-.19.15 0 .07-3.28 1.15a1 1 0 0 1 -.64-1.9l3-1c.41-.12.41.21 0-1a2 2 0 0 0 -2.68-1.26l-.52.21a4.1 4.1 0 0 1 -5.14-5.74 2 2 0 0 0 -2.63-2.63c-3.5 1.74-6.93 4.78-6.79 4.92a9.54 9.54 0 0 1 1.28 11.45c0 .1-.52.05 2.8.05a1 1 0 0 1 0 2h-18a1 1 0 0 0 0 2h12.17l4 4h-13.17a1 1 0 0 0 0 2c15.16 0 14.34.17 14.78-.39 3.87 3.82 6.22 6.62 11.71 8.34 3.95 1.28 6.51 1 13.51 1a2 2 0 0 0 2-2v-1c-6 0-8.87 0-9.08 0z"/></g></svg>