<?xml version="1.0" encoding="iso-8859-1"?>
<!-- Generator: Adobe Illustrator 19.0.0, SVG Export Plug-In . SVG Version: 6.00 Build 0)  -->
<svg version="1.1" id="Capa_1" xmlns="http://www.w3.org/2000/svg" xmlns:xlink="http://www.w3.org/1999/xlink" x="0px" y="0px"
	 viewBox="0 0 512 512" style="enable-background:new 0 0 512 512;" xml:space="preserve">
<g>
	<g>
		<rect x="337" y="432.99" width="145" height="30"/>
	</g>
</g>
<g>
	<g>
		<rect x="397" y="372.99" width="115" height="30"/>
	</g>
</g>
<g>
	<g>
		<path d="M355.53,58.023c-12.019-12.019-31.579-12.022-43.604,0.001c-10.25,10.251-11.979,26.442-4.11,38.499
			c11.548,17.693,9.063,41.401-5.906,56.372c-15.565,15.565-40.661,17.51-58.375,4.52c-10.363-7.599-24.472-6.526-33.549,2.551
			l-1.912,1.912l-68.597,150.098l-40.652,9.984C40.638,336.25,0,388.077,0,447.992v15h262.219l248.988-249.294L355.53,58.023z
			 M256,312.992h-84.003l13.71-30H256V312.992z M276,252.992h-76.583l13.71-30H276V252.992z"/>
	</g>
</g>
<g>
</g>
<g>
</g>
<g>
</g>
<g>
</g>
<g>
</g>
<g>
</g>
<g>
</g>
<g>
</g>
<g>
</g>
<g>
</g>
<g>
</g>
<g>
</g>
<g>
</g>
<g>
</g>
<g>
</g>
</svg>
