<svg id="Layer_3" enable-background="new 0 0 60 60" height="512" viewBox="0 0 60 60" width="512" xmlns="http://www.w3.org/2000/svg"><path d="m13.4309692 36.1000366c.6900024.5999756 1.5300293 1.0100098 2.4199829 1.1900024 6.0400391 1.1599731 8.7400513 5.9199829 8.7600098 5.9699707.0200195.0400391.0499878.0800171.0700073.1099854 3.7299805 5.0700073 9.7700195 6.9300537 10.0900269 7.0300293 1.5899658.3599854 3.0700073.5200195 4.4400024.5200195 9.2370605 0 13.7886353-7.1549683 14.7084961-8.7983398-3.6740112 1.355896-8.5647583 1.7392578-12.5541382 1.7767334-.0410156.0004883-.0820313.0004883-.1220703.0004883-3.0146484 0-5.9453125-1.043457-8.2685547-2.9462891l-3.3046875-2.7070313c-1.3896484-1.1376953-2.7822266-2.4848633-4.3828125-4.2387695-2.0771484-2.2768555-5.2529297-4.2739258-7.5517578-5.5483398-2.2929688-1.2719727-4.4199219-2.7451172-6.3222656-4.3789063l-2.1536865-1.8486938-2.1885376 2.0791016c-.8699951.8200073-1.3599854 1.9900512-1.3400269 3.1900024.0200195 1.1900024.5500488 2.3300171 1.4500122 3.1199951z"/><path d="m10.3690796 20.5474854 2.3468628 2.0145264c1.7998047 1.5458984 3.8154297 2.9414063 5.9902344 4.1474609 2.4287109 1.347168 5.7988281 3.4726563 8.0585938 5.949707 1.5332031 1.6806641 2.859375 2.9638672 4.1728516 4.0390625l3.3046875 2.7075195c1.9921875 1.6313477 4.5146484 2.5170898 7.1035156 2.4926758 6.2619629-.0585938 11.007019-.9257202 13.652771-2.461853.0045776-.3460693-.0462036-.6828003-.1676025-1.0065918-.6600342-1.7299805-2.8200073-2.25-3.0599976-2.2999878-.0599976-.0100098-.1199951-.0199585-.1799927-.0199585-10.5900269-.4000244-15.0900269-15.5200195-15.1400147-15.670044-.0700073-.2600098-.25-.4699707-.4800415-.5999756-.2299805-.1300049-.5099487-.1600342-.7599487-.0800171-4.4000244 1.2999878-7.5700073 1.1600342-9.4200439-.4299927-2.3800049-2.039978-1.8800049-5.9299927-1.8800049-5.9699707.0400391-.2800293-.039978-.5700073-.2199707-.7800293-.1799927-.2199707-.4500122-.3499756-.7299805-.3599854-6.2067872-.2098387-10.703064 5.4395753-12.591919 8.3274538zm25.6369018 9.8123779c.4726563-.2875977 1.0869141-.1386719 1.3740234.3334961.2880859.4716797.1386719 1.0869141-.3330078 1.3745117l-1.1425781.6962891c-.1630859.0991211-.3417969.1459961-.5195313.1459961-.3369141 0-.6669922-.1704102-.8544922-.4794922-.2880859-.4716797-.1386719-1.0869141.3330078-1.3745117zm-4.4746093-3.5019531 2.5439453-1.5297852c.4726563-.2866211 1.0869141-.1313477 1.3730469.3417969.2841797.4731445.1308594 1.0874023-.3417969 1.3720703l-2.5439453 1.5297852c-.1611328.097168-.3388672.1430664-.5146484.1430664-.3398438 0-.6699219-.1728516-.8583984-.4848633-.2841798-.4731446-.1308595-1.0874024.3417968-1.3720703z"/><path d="m7.2149658 9.8642578h9.3544922c.5527344 0 1-.4477539 1-1s-.4472656-1-1-1h-9.3544922c-.5527344 0-1 .4477539-1 1s.4472656 1 1 1z"/><path d="m20.4610596 9.8642578h1.2138672c.5527344 0 1-.4477539 1-1s-.4472656-1-1-1h-1.2138672c-.5527344 0-1 .4477539-1 1s.4472656 1 1 1z"/><path d="m6.0010986 47.3515625h9.3544922c.5527344 0 1-.4477539 1-1s-.4472656-1-1-1h-9.3544922c-.5527344 0-1 .4477539-1 1s.4472657 1 1 1z"/><path d="m20.4610596 45.3515625h-1.2138672c-.5527344 0-1 .4477539-1 1s.4472656 1 1 1h1.2138672c.5527344 0 1-.4477539 1-1s-.4472657-1-1-1z"/><path d="m9.6778564 51.1357422c0 .5522461.4472656 1 1 1h9.3544922c.5527344 0 1-.4477539 1-1s-.4472656-1-1-1h-9.3544922c-.5527343 0-1 .4477539-1 1z"/><path d="m25.1378174 52.1357422c.5527344 0 1-.4477539 1-1s-.4472656-1-1-1h-1.2138672c-.5527344 0-1 .4477539-1 1s.4472656 1 1 1z"/></svg>