<svg id="Layer_1" enable-background="new 0 0 60 60" height="512" viewBox="0 0 60 60" width="512" xmlns="http://www.w3.org/2000/svg"><path d="m52.98 25.97c0-2.28-1.86-4.14-4.14-4.14h-13c-.01 0-.02 0-.02 0h-1.62c.06.46.16.92.3 1.35 0 .02.01.03.01.04 1.06 3.34 4.18 5.77 7.86 5.77h2.59c.6 0 1.09.48 1.09 1.08s-.49 1.09-1.09 1.09h-2.59c-4.25 0-7.91-2.56-9.53-6.23-.69.27-1.41.42-2.16.42-2.05 0-3.86-1.03-4.95-2.59-1.09 1.56-2.9 2.59-4.95 2.59-2.04 0-3.85-1.03-4.94-2.59-1.1 1.56-2.9 2.59-4.95 2.59-1.47 0-2.82-.53-3.86-1.4v6.43c0 2.94.8 5.82 2.32 8.33 1.72 2.86 2.63 6.13 2.63 9.46v6.83h32.45v-3.76c0-3.95 1.31-7.86 3.69-11.02l4.03-5.36c.53-.71.83-1.59.83-2.49z"/><path d="m7.03 13.88v5.44c0 2.13 1.73 3.86 3.86 3.86s3.86-1.73 3.86-3.86v-5.44c0-2.13-1.73-3.86-3.86-3.86s-3.86 1.73-3.86 3.86z"/><path d="m20.78 6.27c-2.13 0-3.86 1.73-3.86 3.86v9.19c0 2.13 1.73 3.86 3.86 3.86s3.86-1.73 3.86-3.86v-9.19c0-2.13-1.73-3.86-3.86-3.86z"/><path d="m36.71 8.86v10.46c0 .11.02.22.03.33h7.67c.01-.11.02-.22.02-.33v-10.46c0-2.13-1.73-3.86-3.86-3.86-2.12 0-3.86 1.73-3.86 3.86z"/><path d="m33.04 19.65h1.47c.01-.11.03-.22.03-.33v-10.46c0-2.13-1.73-3.86-3.86-3.86s-3.86 1.73-3.86 3.86v10.46c0 2.13 1.73 3.86 3.86 3.86.52 0 1.02-.11 1.49-.31-.14-.69-.22-1.4-.22-2.13 0-.6.49-1.09 1.09-1.09z"/></svg>