<?xml version="1.0" encoding="UTF-8"?>
<svg xmlns="http://www.w3.org/2000/svg" id="Icons" viewBox="0 0 60 60" width="512" height="512"><path d="M46.5,6A3.5,3.5,0,0,0,43,9.5v6a3.5,3.5,0,0,0,7,0v-6A3.5,3.5,0,0,0,46.5,6Z"/><path d="M16.485,48.071A11.923,11.923,0,0,1,20,56.557,1.444,1.444,0,0,0,21.443,58H43.557A1.444,1.444,0,0,0,45,56.557V55.083a28.688,28.688,0,0,1,2.59-11.955A26.721,26.721,0,0,0,50,32V19.739a5.476,5.476,0,0,1-7.118-.108A5.51,5.51,0,0,1,37.5,24a5.446,5.446,0,0,1-3.162-1.017A5.971,5.971,0,0,1,31,24H20.509A14.828,14.828,0,0,1,26,36a1,1,0,0,1-2,0c0-9.15-7.054-11.95-7.354-12.064A1,1,0,0,1,17,22H31a4,4,0,0,0,0-8H13a5.006,5.006,0,0,0-5,5V35.443a9.936,9.936,0,0,0,2.929,7.072Z"/><path d="M26.032,3.022A3.449,3.449,0,0,0,25,5.5V12h6a6,6,0,0,1,1,.09V5.5A3.5,3.5,0,0,0,28.5,2,3.441,3.441,0,0,0,26.032,3.022Z"/><path d="M37.5,22A3.5,3.5,0,0,0,41,18.5V6.5A3.5,3.5,0,0,0,37.5,3,3.506,3.506,0,0,0,34,6.5v6.312a5.974,5.974,0,0,1,1.822,8.743A3.467,3.467,0,0,0,37.5,22Z"/><path d="M19.5,3A3.5,3.5,0,0,0,16,6.5V12h7V6.5A3.5,3.5,0,0,0,19.5,3Z"/></svg>
