<svg id="Capa_1" enable-background="new 0 0 510 510" height="512" viewBox="0 0 510 510" width="512" xmlns="http://www.w3.org/2000/svg"><path d="m495 204.456h-28.672c-10.934-19.04-31.414-32.279-55.61-32.279h-65.658c-17.729 0-35.576 7.374-47.646 21.291-7.935-7.094-18.396-11.417-29.852-11.417h-25.124c-11.456 0-21.917 4.323-29.852 11.417-12.071-13.917-29.917-21.291-47.646-21.291h-65.658c-24.196 0-44.676 13.24-55.61 32.279h-28.672c-8.284 0-15 6.716-15 15s6.716 15 15 15h20.207c-.219 8.095.435 9.89 6.039 43.51 8.487 50.925 73.604 70.92 122.348 53.926 33.893-11.816 64-50.294 64-104.998 0-8.185 6.659-14.844 14.844-14.844h25.124c8.185 0 14.844 6.659 14.844 14.844 0 54.654 30.073 93.17 64 104.998 48.744 16.994 113.861-3.001 122.348-53.926 5.491-32.947 6.259-35.348 6.039-43.51h20.207c8.284 0 15-6.716 15-15s-6.716-15-15-15z"/></svg>