<svg id="Capa_1" enable-background="new 0 0 512 512" height="512" viewBox="0 0 512 512" width="512" xmlns="http://www.w3.org/2000/svg"><g><path d="m451 398.5v-15c0-37.28-30.222-67.5-67.5-67.5h-67.5v82.5c0 37.278 30.222 67.5 67.5 67.5s67.5-30.222 67.5-67.5z"/><path d="m383.705 211h22.295c16.538 0 30-13.462 30-30v-37.222c-24.185 16.201-42.583 39.8-52.295 67.222z"/><path d="m512 181v-135h-15c-99.412 0-181 80.588-181 180v60h90c57.99 0 106-47.01 106-105zm-46 0c0 33.091-26.909 60-60 60h-60.352l3.677-17.988c10.679-52.471 46.45-96.665 95.654-118.228l21.021-9.199z"/><path d="m196 398.5v-82.5h-67.5c-37.278 0-67.5 30.22-67.5 67.5v15c0 37.278 30.222 67.5 67.5 67.5s67.5-30.222 67.5-67.5z"/><path d="m106 211h22.295c-9.712-27.422-28.11-51.021-52.295-67.222v37.222c0 16.538 13.462 30 30 30z"/><path d="m106 286h90v-60c0-99.412-80.588-180-180-180h-16v135c0 57.99 48.01 105 106 105zm-60-190.415 21.021 9.199c49.204 21.563 84.976 65.757 95.654 118.228l3.677 17.988h-60.352c-33.091 0-60-26.909-60-60z"/><path d="m226 226h60v150h-60z"/></g></svg>