<svg height="512pt" viewBox="-32 0 511 512" width="512pt" xmlns="http://www.w3.org/2000/svg"><path d="m319.699219 159.601562c0-88.003906-71.59375-159.601562-159.597657-159.601562-88.003906 0-159.601562 71.597656-159.601562 159.601562 0 88.003907 71.597656 159.597657 159.601562 159.597657 88.003907 0 159.597657-71.59375 159.597657-159.597657zm-254.917969 0c0-25.472656 9.910156-49.414062 27.90625-67.414062 5.859375-5.855469 15.355469-5.859375 21.214844 0s5.859375 15.355469 0 21.214844c-12.328125 12.332031-19.121094 28.738281-19.121094 46.199218 0 8.28125-6.714844 15-15 15-8.28125 0-15-6.71875-15-15zm38.515625 71.800782c-8.28125 0-15-6.71875-15-15 0-8.277344 6.71875-15 15-15s15 6.722656 15 15c0 8.28125-6.71875 15-15 15zm0 0"/><path d="m264.535156 337.398438c-48.136718 0-87.300781 39.164062-87.300781 87.300781s39.160156 87.300781 87.300781 87.300781c48.136719 0 87.300782-39.164062 87.300782-87.300781s-39.164063-87.300781-87.300782-87.300781zm0 0"/><path d="m393.066406 224.933594c-30.417968 0-55.167968 24.746094-55.167968 55.167968 0 30.417969 24.75 55.164063 55.167968 55.164063 30.417969 0 55.167969-24.746094 55.167969-55.164063 0-30.421874-24.75-55.167968-55.167969-55.167968zm0 0"/></svg>