<svg height="512" viewBox="0 0 48 48" width="512" xmlns="http://www.w3.org/2000/svg"><g id="Layer_2" data-name="Layer 2"><path d="m41.728 13.5439c-1.2553-8.0249-6.698-12.2954-14.5508-11.4287-5.5131.61-9.2 2.3736-11.2709 5.3916-3.3516 4.8848-1.5513 11.71.0371 17.7315.9067 3.4389 1.7636 6.687 1.247 8.4736-.8769 3.0361-2.4736 5.0239-4.0669 5.065-1.645.0459-3.3256-1.9917-4.5161-5.44a1 1 0 0 0 -.935-.6738h-.01a1.0011 1.0011 0 0 0 -.9385.6543c-.0888.2417-2.1411 5.9595 1.0772 9.7109 1.6963 1.9771 4.479 2.9683 8.31 2.9683a32.9059 32.9059 0 0 0 6.4692-.7334c12.9436-2.6265 21.0589-19.5 19.1477-31.7193zm-22.728-.5439c0-2.7568 1.7944-5 4-5s4 2.2432 4 5-1.7944 5-4 5-4-2.2432-4-5zm9 13c-1.6821 0-3-1.7568-3-4s1.3179-4 3-4 3 1.7568 3 4-1.3179 4-3 4zm5-8c-2.2056 0-4-2.2432-4-5s1.7944-5 4-5 4 2.2432 4 5-1.7944 5-4 5z"/></g></svg>