<?xml version="1.0" encoding="iso-8859-1"?>
<!-- Generator: Adobe Illustrator 19.0.0, SVG Export Plug-In . SVG Version: 6.00 Build 0)  -->
<svg version="1.1" id="Capa_1" xmlns="http://www.w3.org/2000/svg" xmlns:xlink="http://www.w3.org/1999/xlink" x="0px" y="0px"
	 viewBox="0 0 512 512" style="enable-background:new 0 0 512 512;" xml:space="preserve">
<g>
	<g>
		<path d="M507.681,209.011c-1.297-6.991-7.324-12.111-14.433-12.262c-7.104-0.122-13.347,4.711-14.936,11.643
			c-15.26,66.497-73.643,112.94-141.978,112.94c-80.321,0-145.667-65.346-145.667-145.666c0-68.335,46.443-126.718,112.942-141.976
			c6.93-1.59,11.791-7.826,11.643-14.934c-0.149-7.108-5.269-13.136-12.259-14.434C287.546,1.454,271.735,0,256,0
			C187.62,0,123.333,26.629,74.98,74.981C26.628,123.333,0,187.62,0,256s26.628,132.667,74.98,181.019
			C123.333,485.371,187.62,512,256,512s132.667-26.629,181.02-74.981C485.372,388.667,512,324.38,512,256
			C512,240.278,510.546,224.469,507.681,209.011z"/>
	</g>
</g>
<g>
</g>
<g>
</g>
<g>
</g>
<g>
</g>
<g>
</g>
<g>
</g>
<g>
</g>
<g>
</g>
<g>
</g>
<g>
</g>
<g>
</g>
<g>
</g>
<g>
</g>
<g>
</g>
<g>
</g>
</svg>
