<svg height="512" viewBox="0 0 64 64" width="512" xmlns="http://www.w3.org/2000/svg"><g id="_x31_4._Crescent_Moon"><g><path d="m20.891 13.664 5.667 3.778 3.778 5.667c.371.557.995.891 1.664.891s1.293-.334 1.664-.891l3.778-5.667 5.667-3.778c.557-.371.891-.995.891-1.664s-.334-1.293-.891-1.664l-5.667-3.778-3.778-5.667c-.371-.557-.995-.891-1.664-.891s-1.293.334-1.664.891l-3.778 5.667-5.667 3.778c-.557.371-.891.995-.891 1.664s.334 1.293.891 1.664z"/><path d="m48.994 13.752c-.75-.575-1.804-.544-2.519.072-.718.617-.904 1.651-.449 2.48 1.291 2.348 1.974 5.009 1.974 7.696 0 8.822-7.178 16-16 16s-16-7.178-16-16c0-2.688.683-5.348 1.974-7.695.455-.829.269-1.863-.449-2.48-.716-.617-1.768-.646-2.519-.072-6.994 5.35-11.006 13.458-11.006 22.247 0 15.439 12.561 28 28 28s28-12.561 28-28c0-8.789-4.012-16.897-11.006-22.248z"/></g></g></svg>