<svg id="Layer_1" enable-background="new 0 0 512 512" height="512" viewBox="0 0 512 512" width="512" xmlns="http://www.w3.org/2000/svg"><g><path d="m256 126.4c-71.462 0-129.6 58.138-129.6 129.6s58.138 129.6 129.6 129.6 129.6-58.138 129.6-129.6-58.138-129.6-129.6-129.6zm0 224.933c-52.567 0-95.333-42.767-95.333-95.333s42.767-95.333 95.333-95.333 95.333 42.767 95.333 95.333-42.766 95.333-95.333 95.333z"/><path d="m509.99 248.5-120.5-208.714c-2.679-4.641-7.631-7.5-12.99-7.5h-241c-5.359 0-10.311 2.859-12.99 7.5l-120.5 208.714c-2.68 4.641-2.68 10.359 0 15l120.5 208.714c2.679 4.641 7.631 7.5 12.99 7.5h241c5.359 0 10.311-2.859 12.99-7.5l120.5-208.714c2.68-4.641 2.68-10.359 0-15zm-253.99 167.1c-88.004 0-159.6-71.596-159.6-159.6s71.596-159.6 159.6-159.6 159.6 71.596 159.6 159.6-71.596 159.6-159.6 159.6z"/></g></svg>