<svg id="Capa_1" enable-background="new 0 0 512 512" height="512" viewBox="0 0 512 512" width="512" xmlns="http://www.w3.org/2000/svg"><g><path d="m77.85 512h30v-131.48c-9.23 5.26-19.34 9.06-30 11.15z"/><path d="m322.67 403.58v108.42h30v-108.43c-9.932 1.037-20.065 1.052-30 .01z"/><path d="m483.31 88.6c0-26.19-21.24-47.43-47.43-47.43h-11.33c-8.45 0-15.32-6.87-15.32-15.31v-25.86h-30v25.86c0 5.37.95 10.52 2.67 15.31h-29.44c-8.44 0-15.31-6.87-15.31-15.31v-25.86h-30v25.86c0 24.611 20.582 45.31 45.31 45.31h29.44v116.44h70.31v-28.69h59.79v-70.32z"/><path d="m293.43 259.51-65.73 31.34c16.302 56.592 74.814 92.595 132.39 81.31l-35.34-70.04c-18.859-5.727-31.201-23.289-31.32-42.61z"/><path d="m57.69 212.13v58.18l69.29 35.58c.69-3.94 1.03-7.96 1.03-12.03v-62.61l-60.94-64.56c-6.17 14.27-9.38 29.72-9.38 45.44z"/><path d="m83.24 140.11 49.45 52.39c7.827-15.175 25.897-24.352 42.46-24.85l27.49-67.64c-42.984-9.313-91.229 5.935-119.4 40.1z"/><path d="m293.43 226.28v-14.15c0-32.16-13.64-63.03-37.42-84.7-7.63-6.95-16.02-12.76-25.08-17.37l-26.73 65.79c11.59 8.09 18.91 21.5 18.91 36.28 0 0 0 47.18.01 47.67z"/><path d="m0 293.27v70.31h58.29c22.654 0 44.38-11.22 57.24-29.84l-78.81-40.47z"/><path d="m381.9 258.97c0 17.62-10.2 33.1-24.9 40.48l31.74 62.88c38.423-19.116 63.47-59.647 63.47-102.53v-27.19h-70.31z"/></g></svg>