<?xml version="1.0" encoding="iso-8859-1"?>
<!-- Generator: Adobe Illustrator 19.0.0, SVG Export Plug-In . SVG Version: 6.00 Build 0)  -->
<svg version="1.1" id="Capa_1" xmlns="http://www.w3.org/2000/svg" xmlns:xlink="http://www.w3.org/1999/xlink" x="0px" y="0px"
	 viewBox="0 0 512 512" style="enable-background:new 0 0 512 512;" xml:space="preserve">
<g>
	<g>
		<path d="M298.138,136.665c-62.065-13.011-110.576-61.522-123.585-123.588C172.955,5.458,166.235,0,158.448,0
			s-14.507,5.458-16.104,13.078c-13.01,62.065-61.521,110.575-123.586,123.584c-7.62,1.597-13.079,8.318-13.079,16.104
			s5.458,14.507,13.079,16.104c62.064,13.011,110.573,61.521,123.583,123.586c1.597,7.62,8.317,13.079,16.104,13.079
			c7.786,0,14.507-5.458,16.104-13.079c13.011-62.065,61.523-110.575,123.588-123.583c7.62-1.597,13.079-8.317,13.079-16.104
			C311.215,144.983,305.757,138.262,298.138,136.665z"/>
	</g>
</g>
<g>
	<g>
		<path d="M270.938,408.484c-29.242-6.129-52.098-28.985-58.229-58.229c-1.597-7.62-8.317-13.079-16.104-13.079
			c-7.786,0-14.507,5.457-16.104,13.078c-6.131,29.243-28.988,52.099-58.23,58.229c-7.62,1.597-13.079,8.318-13.079,16.104
			c0,7.786,5.458,14.507,13.079,16.104c29.241,6.13,52.098,28.987,58.228,58.23c1.597,7.62,8.317,13.079,16.104,13.079
			c7.786,0,14.507-5.457,16.104-13.079c6.131-29.243,28.988-52.099,58.231-58.229c7.62-1.597,13.079-8.318,13.079-16.104
			C284.017,416.802,278.559,410.082,270.938,408.484z"/>
	</g>
</g>
<g>
	<g>
		<path d="M493.243,256.135c-39.526-8.286-70.419-39.18-78.704-78.705c-1.597-7.62-8.317-13.079-16.104-13.079
			c-7.786,0-14.507,5.457-16.104,13.078c-8.286,39.526-39.179,70.419-78.705,78.704c-7.62,1.597-13.079,8.318-13.079,16.104
			c0,7.786,5.458,14.506,13.079,16.104c39.525,8.286,70.418,39.179,78.703,78.705c1.597,7.62,8.317,13.079,16.104,13.079
			c7.786,0,14.507-5.457,16.104-13.079c8.287-39.526,39.18-70.419,78.705-78.703c7.62-1.598,13.079-8.318,13.079-16.104
			S500.863,257.732,493.243,256.135z"/>
	</g>
</g>
<g>
</g>
<g>
</g>
<g>
</g>
<g>
</g>
<g>
</g>
<g>
</g>
<g>
</g>
<g>
</g>
<g>
</g>
<g>
</g>
<g>
</g>
<g>
</g>
<g>
</g>
<g>
</g>
<g>
</g>
</svg>
