<svg id="Capa_1" enable-background="new 0 0 512 512" height="512" viewBox="0 0 512 512" width="512" xmlns="http://www.w3.org/2000/svg"><g><path d="m88.273 401.397c-2.622-2.621-5.014-5.383-7.228-8.239l-70.976 70.978 42.83 42.83 70.978-70.977c-2.856-2.214-5.617-4.607-8.239-7.228z"/><path d="m430.949 393.159c-2.214 2.857-4.606 5.618-7.227 8.239l-27.364 27.364c-2.621 2.621-5.382 5.013-8.238 7.228l70.97 70.97 42.831-42.831z"/><path d="m281.597 415.03 2.974 2.974c22.013 22.012 57.699 22.012 79.712 0l48.721-48.72c22.011-22.012 22.011-57.699 0-79.712l-2.975-2.974-32.191 32.114-36.253-36.253-64.236 64.236 36.253 36.253z"/><path d="m234.582 175.375-90.186-90.185c-38.432-38.434-86.589-65.698-139.32-78.881l-5.076-1.269 1.269 5.077c13.183 52.73 40.448 100.886 78.882 139.319l90.186 90.186z"/><path d="m431.849 149.43c38.434-38.434 65.699-86.589 78.882-139.319l1.269-5.078-5.077 1.269c-52.729 13.183-100.887 40.448-139.319 78.882l-233.525 233.527-32.121-32.121-2.974 2.974c-22.012 22.012-22.012 57.7 0 79.712l48.777 48.777c22.012 22.013 57.699 22.013 79.712 0l2.974-2.974-32.123-32.122z"/></g></svg>