# MagicaVoxel @ Ephtracy

# group
o 

# material
mtllib pokemon-center-93.mtl
usemtl palette

# normals
vn -1 0 0
vn 1 0 0
vn 0 0 -1
vn 0 0 1
vn 0 -1 0
vn 0 1 0

# texcoords
vt 0.845703 0.5
vt 0.876953 0.5

# verts
v 2.4 0 -7.2
v 2.4 0 -2.4
v 2.4 2.1 -7.2
v 2.4 2.1 -2.4
v 2.4 4 -7.2
v 2.4 4 -2.4
v 2.4 4.8 -7.2
v 2.4 4.8 -2.4
v 7.2 0 -7.2
v 7.2 0 -2.4
v 7.2 2.1 -7.2
v 7.2 2.1 -2.4
v 7.2 4 -7.2
v 7.2 4 -2.4
v 7.2 4.8 -7.2
v 7.2 4.8 -2.4
v 2.4 0 -7.2
v 2.4 2.1 -7.2
v 2.4 4 -7.2
v 2.4 4.8 -7.2
v 7.2 0 -7.2
v 7.2 2.1 -7.2
v 7.2 4 -7.2
v 7.2 4.8 -7.2
v 2.4 0 -2.4
v 2.4 2.1 -2.4
v 2.4 4 -2.4
v 2.4 4.8 -2.4
v 7.2 0 -2.4
v 7.2 2.1 -2.4
v 7.2 4 -2.4
v 7.2 4.8 -2.4
v 2.4 0 -7.2
v 7.2 0 -7.2
v 2.4 0 -2.4
v 7.2 0 -2.4
v 2.4 4.8 -7.2
v 7.2 4.8 -7.2
v 2.4 4.8 -2.4
v 7.2 4.8 -2.4

# faces
f 1/1/1 2/1/1 3/1/1
f 3/1/1 2/1/1 4/1/1
f 3/2/1 4/2/1 5/2/1
f 5/2/1 4/2/1 6/2/1
f 5/1/1 6/1/1 7/1/1
f 7/1/1 6/1/1 8/1/1
f 11/1/2 10/1/2 9/1/2
f 12/1/2 10/1/2 11/1/2
f 13/2/2 12/2/2 11/2/2
f 14/2/2 12/2/2 13/2/2
f 15/1/2 14/1/2 13/1/2
f 16/1/2 14/1/2 15/1/2
f 17/1/3 18/1/3 21/1/3
f 18/2/3 19/2/3 22/2/3
f 21/1/3 18/1/3 22/1/3
f 19/1/3 20/1/3 23/1/3
f 22/2/3 19/2/3 23/2/3
f 23/1/3 20/1/3 24/1/3
f 29/1/4 26/1/4 25/1/4
f 30/2/4 27/2/4 26/2/4
f 30/1/4 26/1/4 29/1/4
f 31/1/4 28/1/4 27/1/4
f 31/2/4 27/2/4 30/2/4
f 32/1/4 28/1/4 31/1/4
f 33/1/5 34/1/5 35/1/5
f 35/1/5 34/1/5 36/1/5
f 39/1/6 38/1/6 37/1/6
f 40/1/6 38/1/6 39/1/6
