# MagicaVoxel @ Ephtracy

# group
o 

# material
mtllib pokemon-center-91.mtl
usemtl palette

# normals
vn -1 0 0
vn 1 0 0
vn 0 0 -1
vn 0 0 1
vn 0 -1 0
vn 0 1 0

# texcoords
vt 0.849609 0.5
vt 0.880859 0.5

# verts
v 2.4 9.6 -7.2
v 2.4 9.6 -2.4
v 2.4 11.4 -7.2
v 2.4 11.4 -2.4
v 2.6 11.4 -7
v 2.6 11.4 -6.1
v 2.6 11.4 -5.8
v 2.6 11.4 -4.9
v 2.6 11.4 -4.6
v 2.6 11.4 -3.7
v 2.6 11.4 -3.4
v 2.6 11.4 -2.5
v 2.6 11.5 -7
v 2.6 11.5 -6.1
v 2.6 11.5 -5.8
v 2.6 11.5 -4.9
v 2.6 11.5 -4.6
v 2.6 11.5 -3.7
v 2.6 11.5 -3.4
v 2.6 11.5 -2.5
v 3.8 11.4 -7
v 3.8 11.4 -6.1
v 3.8 11.4 -5.8
v 3.8 11.4 -4.9
v 3.8 11.4 -4.6
v 3.8 11.4 -3.7
v 3.8 11.4 -3.4
v 3.8 11.4 -2.5
v 3.8 11.5 -7
v 3.8 11.5 -6.1
v 3.8 11.5 -5.8
v 3.8 11.5 -4.9
v 3.8 11.5 -4.6
v 3.8 11.5 -3.7
v 3.8 11.5 -3.4
v 3.8 11.5 -2.5
v 5 11.4 -7
v 5 11.4 -6.1
v 5 11.4 -5.8
v 5 11.4 -4.9
v 5 11.4 -4.6
v 5 11.4 -3.7
v 5 11.4 -3.4
v 5 11.4 -2.5
v 5 11.5 -7
v 5 11.5 -6.1
v 5 11.5 -5.8
v 5 11.5 -4.9
v 5 11.5 -4.6
v 5 11.5 -3.7
v 5 11.5 -3.4
v 5 11.5 -2.5
v 6.2 11.4 -7
v 6.2 11.4 -6.1
v 6.2 11.4 -5.8
v 6.2 11.4 -4.9
v 6.2 11.4 -4.6
v 6.2 11.4 -3.7
v 6.2 11.4 -3.4
v 6.2 11.4 -2.5
v 6.2 11.5 -7
v 6.2 11.5 -6.1
v 6.2 11.5 -5.8
v 6.2 11.5 -4.9
v 6.2 11.5 -4.6
v 6.2 11.5 -3.7
v 6.2 11.5 -3.4
v 6.2 11.5 -2.5
v 3.5 11.4 -7
v 3.5 11.4 -6.1
v 3.5 11.4 -5.8
v 3.5 11.4 -4.9
v 3.5 11.4 -4.6
v 3.5 11.4 -3.7
v 3.5 11.4 -3.4
v 3.5 11.4 -2.5
v 3.5 11.5 -7
v 3.5 11.5 -6.1
v 3.5 11.5 -5.8
v 3.5 11.5 -4.9
v 3.5 11.5 -4.6
v 3.5 11.5 -3.7
v 3.5 11.5 -3.4
v 3.5 11.5 -2.5
v 4.7 11.4 -7
v 4.7 11.4 -6.1
v 4.7 11.4 -5.8
v 4.7 11.4 -4.9
v 4.7 11.4 -4.6
v 4.7 11.4 -3.7
v 4.7 11.4 -3.4
v 4.7 11.4 -2.5
v 4.7 11.5 -7
v 4.7 11.5 -6.1
v 4.7 11.5 -5.8
v 4.7 11.5 -4.9
v 4.7 11.5 -4.6
v 4.7 11.5 -3.7
v 4.7 11.5 -3.4
v 4.7 11.5 -2.5
v 5.9 11.4 -7
v 5.9 11.4 -6.1
v 5.9 11.4 -5.8
v 5.9 11.4 -4.9
v 5.9 11.4 -4.6
v 5.9 11.4 -3.7
v 5.9 11.4 -3.4
v 5.9 11.4 -2.5
v 5.9 11.5 -7
v 5.9 11.5 -6.1
v 5.9 11.5 -5.8
v 5.9 11.5 -4.9
v 5.9 11.5 -4.6
v 5.9 11.5 -3.7
v 5.9 11.5 -3.4
v 5.9 11.5 -2.5
v 7.1 11.4 -7
v 7.1 11.4 -6.1
v 7.1 11.4 -5.8
v 7.1 11.4 -4.9
v 7.1 11.4 -4.6
v 7.1 11.4 -3.7
v 7.1 11.4 -3.4
v 7.1 11.4 -2.5
v 7.1 11.5 -7
v 7.1 11.5 -6.1
v 7.1 11.5 -5.8
v 7.1 11.5 -4.9
v 7.1 11.5 -4.6
v 7.1 11.5 -3.7
v 7.1 11.5 -3.4
v 7.1 11.5 -2.5
v 7.2 9.6 -7.2
v 7.2 9.6 -2.4
v 7.2 11.4 -7.2
v 7.2 11.4 -2.4
v 2.4 9.6 -7.2
v 2.4 11.4 -7.2
v 7.2 9.6 -7.2
v 7.2 11.4 -7.2
v 2.6 11.4 -7
v 2.6 11.5 -7
v 3.5 11.4 -7
v 3.5 11.5 -7
v 3.8 11.4 -7
v 3.8 11.5 -7
v 4.7 11.4 -7
v 4.7 11.5 -7
v 5 11.4 -7
v 5 11.5 -7
v 5.9 11.4 -7
v 5.9 11.5 -7
v 6.2 11.4 -7
v 6.2 11.5 -7
v 7.1 11.4 -7
v 7.1 11.5 -7
v 2.6 11.4 -5.8
v 2.6 11.5 -5.8
v 3.5 11.4 -5.8
v 3.5 11.5 -5.8
v 3.8 11.4 -5.8
v 3.8 11.5 -5.8
v 4.7 11.4 -5.8
v 4.7 11.5 -5.8
v 5 11.4 -5.8
v 5 11.5 -5.8
v 5.9 11.4 -5.8
v 5.9 11.5 -5.8
v 6.2 11.4 -5.8
v 6.2 11.5 -5.8
v 7.1 11.4 -5.8
v 7.1 11.5 -5.8
v 2.6 11.4 -4.6
v 2.6 11.5 -4.6
v 3.5 11.4 -4.6
v 3.5 11.5 -4.6
v 3.8 11.4 -4.6
v 3.8 11.5 -4.6
v 4.7 11.4 -4.6
v 4.7 11.5 -4.6
v 5 11.4 -4.6
v 5 11.5 -4.6
v 5.9 11.4 -4.6
v 5.9 11.5 -4.6
v 6.2 11.4 -4.6
v 6.2 11.5 -4.6
v 7.1 11.4 -4.6
v 7.1 11.5 -4.6
v 2.6 11.4 -3.4
v 2.6 11.5 -3.4
v 3.5 11.4 -3.4
v 3.5 11.5 -3.4
v 3.8 11.4 -3.4
v 3.8 11.5 -3.4
v 4.7 11.4 -3.4
v 4.7 11.5 -3.4
v 5 11.4 -3.4
v 5 11.5 -3.4
v 5.9 11.4 -3.4
v 5.9 11.5 -3.4
v 6.2 11.4 -3.4
v 6.2 11.5 -3.4
v 7.1 11.4 -3.4
v 7.1 11.5 -3.4
v 2.6 11.4 -6.1
v 2.6 11.5 -6.1
v 3.5 11.4 -6.1
v 3.5 11.5 -6.1
v 3.8 11.4 -6.1
v 3.8 11.5 -6.1
v 4.7 11.4 -6.1
v 4.7 11.5 -6.1
v 5 11.4 -6.1
v 5 11.5 -6.1
v 5.9 11.4 -6.1
v 5.9 11.5 -6.1
v 6.2 11.4 -6.1
v 6.2 11.5 -6.1
v 7.1 11.4 -6.1
v 7.1 11.5 -6.1
v 2.6 11.4 -4.9
v 2.6 11.5 -4.9
v 3.5 11.4 -4.9
v 3.5 11.5 -4.9
v 3.8 11.4 -4.9
v 3.8 11.5 -4.9
v 4.7 11.4 -4.9
v 4.7 11.5 -4.9
v 5 11.4 -4.9
v 5 11.5 -4.9
v 5.9 11.4 -4.9
v 5.9 11.5 -4.9
v 6.2 11.4 -4.9
v 6.2 11.5 -4.9
v 7.1 11.4 -4.9
v 7.1 11.5 -4.9
v 2.6 11.4 -3.7
v 2.6 11.5 -3.7
v 3.5 11.4 -3.7
v 3.5 11.5 -3.7
v 3.8 11.4 -3.7
v 3.8 11.5 -3.7
v 4.7 11.4 -3.7
v 4.7 11.5 -3.7
v 5 11.4 -3.7
v 5 11.5 -3.7
v 5.9 11.4 -3.7
v 5.9 11.5 -3.7
v 6.2 11.4 -3.7
v 6.2 11.5 -3.7
v 7.1 11.4 -3.7
v 7.1 11.5 -3.7
v 2.6 11.4 -2.5
v 2.6 11.5 -2.5
v 3.5 11.4 -2.5
v 3.5 11.5 -2.5
v 3.8 11.4 -2.5
v 3.8 11.5 -2.5
v 4.7 11.4 -2.5
v 4.7 11.5 -2.5
v 5 11.4 -2.5
v 5 11.5 -2.5
v 5.9 11.4 -2.5
v 5.9 11.5 -2.5
v 6.2 11.4 -2.5
v 6.2 11.5 -2.5
v 7.1 11.4 -2.5
v 7.1 11.5 -2.5
v 2.4 9.6 -2.4
v 2.4 11.4 -2.4
v 7.2 9.6 -2.4
v 7.2 11.4 -2.4
v 2.4 9.6 -7.2
v 7.2 9.6 -7.2
v 2.4 9.6 -2.4
v 7.2 9.6 -2.4
v 2.4 11.4 -7.2
v 7.2 11.4 -7.2
v 2.6 11.4 -7
v 3.5 11.4 -7
v 3.8 11.4 -7
v 4.7 11.4 -7
v 5 11.4 -7
v 5.9 11.4 -7
v 6.2 11.4 -7
v 7.1 11.4 -7
v 2.6 11.4 -6.1
v 3.5 11.4 -6.1
v 3.8 11.4 -6.1
v 4.7 11.4 -6.1
v 5 11.4 -6.1
v 5.9 11.4 -6.1
v 6.2 11.4 -6.1
v 7.1 11.4 -6.1
v 2.6 11.4 -5.8
v 3.5 11.4 -5.8
v 3.8 11.4 -5.8
v 4.7 11.4 -5.8
v 5 11.4 -5.8
v 5.9 11.4 -5.8
v 6.2 11.4 -5.8
v 7.1 11.4 -5.8
v 2.6 11.4 -4.9
v 3.5 11.4 -4.9
v 3.8 11.4 -4.9
v 4.7 11.4 -4.9
v 5 11.4 -4.9
v 5.9 11.4 -4.9
v 6.2 11.4 -4.9
v 7.1 11.4 -4.9
v 2.6 11.4 -4.6
v 3.5 11.4 -4.6
v 3.8 11.4 -4.6
v 4.7 11.4 -4.6
v 5 11.4 -4.6
v 5.9 11.4 -4.6
v 6.2 11.4 -4.6
v 7.1 11.4 -4.6
v 2.6 11.4 -3.7
v 3.5 11.4 -3.7
v 3.8 11.4 -3.7
v 4.7 11.4 -3.7
v 5 11.4 -3.7
v 5.9 11.4 -3.7
v 6.2 11.4 -3.7
v 7.1 11.4 -3.7
v 2.6 11.4 -3.4
v 3.5 11.4 -3.4
v 3.8 11.4 -3.4
v 4.7 11.4 -3.4
v 5 11.4 -3.4
v 5.9 11.4 -3.4
v 6.2 11.4 -3.4
v 7.1 11.4 -3.4
v 2.6 11.4 -2.5
v 3.5 11.4 -2.5
v 3.8 11.4 -2.5
v 4.7 11.4 -2.5
v 5 11.4 -2.5
v 5.9 11.4 -2.5
v 6.2 11.4 -2.5
v 7.1 11.4 -2.5
v 2.4 11.4 -2.4
v 7.2 11.4 -2.4
v 2.6 11.5 -7
v 3.5 11.5 -7
v 3.8 11.5 -7
v 4.7 11.5 -7
v 5 11.5 -7
v 5.9 11.5 -7
v 6.2 11.5 -7
v 7.1 11.5 -7
v 2.6 11.5 -6.1
v 3.5 11.5 -6.1
v 3.8 11.5 -6.1
v 4.7 11.5 -6.1
v 5 11.5 -6.1
v 5.9 11.5 -6.1
v 6.2 11.5 -6.1
v 7.1 11.5 -6.1
v 2.6 11.5 -5.8
v 3.5 11.5 -5.8
v 3.8 11.5 -5.8
v 4.7 11.5 -5.8
v 5 11.5 -5.8
v 5.9 11.5 -5.8
v 6.2 11.5 -5.8
v 7.1 11.5 -5.8
v 2.6 11.5 -4.9
v 3.5 11.5 -4.9
v 3.8 11.5 -4.9
v 4.7 11.5 -4.9
v 5 11.5 -4.9
v 5.9 11.5 -4.9
v 6.2 11.5 -4.9
v 7.1 11.5 -4.9
v 2.6 11.5 -4.6
v 3.5 11.5 -4.6
v 3.8 11.5 -4.6
v 4.7 11.5 -4.6
v 5 11.5 -4.6
v 5.9 11.5 -4.6
v 6.2 11.5 -4.6
v 7.1 11.5 -4.6
v 2.6 11.5 -3.7
v 3.5 11.5 -3.7
v 3.8 11.5 -3.7
v 4.7 11.5 -3.7
v 5 11.5 -3.7
v 5.9 11.5 -3.7
v 6.2 11.5 -3.7
v 7.1 11.5 -3.7
v 2.6 11.5 -3.4
v 3.5 11.5 -3.4
v 3.8 11.5 -3.4
v 4.7 11.5 -3.4
v 5 11.5 -3.4
v 5.9 11.5 -3.4
v 6.2 11.5 -3.4
v 7.1 11.5 -3.4
v 2.6 11.5 -2.5
v 3.5 11.5 -2.5
v 3.8 11.5 -2.5
v 4.7 11.5 -2.5
v 5 11.5 -2.5
v 5.9 11.5 -2.5
v 6.2 11.5 -2.5
v 7.1 11.5 -2.5

# faces
f 1/2/1 2/2/1 3/2/1
f 3/2/1 2/2/1 4/2/1
f 5/1/1 6/1/1 13/1/1
f 13/1/1 6/1/1 14/1/1
f 7/1/1 8/1/1 15/1/1
f 15/1/1 8/1/1 16/1/1
f 9/1/1 10/1/1 17/1/1
f 17/1/1 10/1/1 18/1/1
f 11/1/1 12/1/1 19/1/1
f 19/1/1 12/1/1 20/1/1
f 21/1/1 22/1/1 29/1/1
f 29/1/1 22/1/1 30/1/1
f 23/1/1 24/1/1 31/1/1
f 31/1/1 24/1/1 32/1/1
f 25/1/1 26/1/1 33/1/1
f 33/1/1 26/1/1 34/1/1
f 27/1/1 28/1/1 35/1/1
f 35/1/1 28/1/1 36/1/1
f 37/1/1 38/1/1 45/1/1
f 45/1/1 38/1/1 46/1/1
f 39/1/1 40/1/1 47/1/1
f 47/1/1 40/1/1 48/1/1
f 41/1/1 42/1/1 49/1/1
f 49/1/1 42/1/1 50/1/1
f 43/1/1 44/1/1 51/1/1
f 51/1/1 44/1/1 52/1/1
f 53/1/1 54/1/1 61/1/1
f 61/1/1 54/1/1 62/1/1
f 55/1/1 56/1/1 63/1/1
f 63/1/1 56/1/1 64/1/1
f 57/1/1 58/1/1 65/1/1
f 65/1/1 58/1/1 66/1/1
f 59/1/1 60/1/1 67/1/1
f 67/1/1 60/1/1 68/1/1
f 77/1/2 70/1/2 69/1/2
f 78/1/2 70/1/2 77/1/2
f 79/1/2 72/1/2 71/1/2
f 80/1/2 72/1/2 79/1/2
f 81/1/2 74/1/2 73/1/2
f 82/1/2 74/1/2 81/1/2
f 83/1/2 76/1/2 75/1/2
f 84/1/2 76/1/2 83/1/2
f 93/1/2 86/1/2 85/1/2
f 94/1/2 86/1/2 93/1/2
f 95/1/2 88/1/2 87/1/2
f 96/1/2 88/1/2 95/1/2
f 97/1/2 90/1/2 89/1/2
f 98/1/2 90/1/2 97/1/2
f 99/1/2 92/1/2 91/1/2
f 100/1/2 92/1/2 99/1/2
f 109/1/2 102/1/2 101/1/2
f 110/1/2 102/1/2 109/1/2
f 111/1/2 104/1/2 103/1/2
f 112/1/2 104/1/2 111/1/2
f 113/1/2 106/1/2 105/1/2
f 114/1/2 106/1/2 113/1/2
f 115/1/2 108/1/2 107/1/2
f 116/1/2 108/1/2 115/1/2
f 125/1/2 118/1/2 117/1/2
f 126/1/2 118/1/2 125/1/2
f 127/1/2 120/1/2 119/1/2
f 128/1/2 120/1/2 127/1/2
f 129/1/2 122/1/2 121/1/2
f 130/1/2 122/1/2 129/1/2
f 131/1/2 124/1/2 123/1/2
f 132/1/2 124/1/2 131/1/2
f 135/2/2 134/2/2 133/2/2
f 136/2/2 134/2/2 135/2/2
f 137/2/3 138/2/3 139/2/3
f 139/2/3 138/2/3 140/2/3
f 141/1/3 142/1/3 143/1/3
f 143/1/3 142/1/3 144/1/3
f 145/1/3 146/1/3 147/1/3
f 147/1/3 146/1/3 148/1/3
f 149/1/3 150/1/3 151/1/3
f 151/1/3 150/1/3 152/1/3
f 153/1/3 154/1/3 155/1/3
f 155/1/3 154/1/3 156/1/3
f 157/1/3 158/1/3 159/1/3
f 159/1/3 158/1/3 160/1/3
f 161/1/3 162/1/3 163/1/3
f 163/1/3 162/1/3 164/1/3
f 165/1/3 166/1/3 167/1/3
f 167/1/3 166/1/3 168/1/3
f 169/1/3 170/1/3 171/1/3
f 171/1/3 170/1/3 172/1/3
f 173/1/3 174/1/3 175/1/3
f 175/1/3 174/1/3 176/1/3
f 177/1/3 178/1/3 179/1/3
f 179/1/3 178/1/3 180/1/3
f 181/1/3 182/1/3 183/1/3
f 183/1/3 182/1/3 184/1/3
f 185/1/3 186/1/3 187/1/3
f 187/1/3 186/1/3 188/1/3
f 189/1/3 190/1/3 191/1/3
f 191/1/3 190/1/3 192/1/3
f 193/1/3 194/1/3 195/1/3
f 195/1/3 194/1/3 196/1/3
f 197/1/3 198/1/3 199/1/3
f 199/1/3 198/1/3 200/1/3
f 201/1/3 202/1/3 203/1/3
f 203/1/3 202/1/3 204/1/3
f 207/1/4 206/1/4 205/1/4
f 208/1/4 206/1/4 207/1/4
f 211/1/4 210/1/4 209/1/4
f 212/1/4 210/1/4 211/1/4
f 215/1/4 214/1/4 213/1/4
f 216/1/4 214/1/4 215/1/4
f 219/1/4 218/1/4 217/1/4
f 220/1/4 218/1/4 219/1/4
f 223/1/4 222/1/4 221/1/4
f 224/1/4 222/1/4 223/1/4
f 227/1/4 226/1/4 225/1/4
f 228/1/4 226/1/4 227/1/4
f 231/1/4 230/1/4 229/1/4
f 232/1/4 230/1/4 231/1/4
f 235/1/4 234/1/4 233/1/4
f 236/1/4 234/1/4 235/1/4
f 239/1/4 238/1/4 237/1/4
f 240/1/4 238/1/4 239/1/4
f 243/1/4 242/1/4 241/1/4
f 244/1/4 242/1/4 243/1/4
f 247/1/4 246/1/4 245/1/4
f 248/1/4 246/1/4 247/1/4
f 251/1/4 250/1/4 249/1/4
f 252/1/4 250/1/4 251/1/4
f 255/1/4 254/1/4 253/1/4
f 256/1/4 254/1/4 255/1/4
f 259/1/4 258/1/4 257/1/4
f 260/1/4 258/1/4 259/1/4
f 263/1/4 262/1/4 261/1/4
f 264/1/4 262/1/4 263/1/4
f 267/1/4 266/1/4 265/1/4
f 268/1/4 266/1/4 267/1/4
f 271/2/4 270/2/4 269/2/4
f 272/2/4 270/2/4 271/2/4
f 273/2/5 274/2/5 275/2/5
f 275/2/5 274/2/5 276/2/5
f 279/2/6 278/2/6 277/2/6
f 280/2/6 278/2/6 279/2/6
f 281/2/6 278/2/6 280/2/6
f 282/2/6 278/2/6 281/2/6
f 283/2/6 278/2/6 282/2/6
f 284/2/6 278/2/6 283/2/6
f 285/2/6 278/2/6 284/2/6
f 286/2/6 278/2/6 285/2/6
f 287/2/6 279/2/6 277/2/6
f 288/2/6 281/2/6 280/2/6
f 289/2/6 281/2/6 288/2/6
f 290/2/6 283/2/6 282/2/6
f 291/2/6 283/2/6 290/2/6
f 292/2/6 285/2/6 284/2/6
f 293/2/6 285/2/6 292/2/6
f 294/2/6 278/2/6 286/2/6
f 295/2/6 293/2/6 292/2/6
f 295/2/6 294/2/6 293/2/6
f 295/2/6 291/2/6 290/2/6
f 295/2/6 287/2/6 277/2/6
f 295/2/6 292/2/6 291/2/6
f 295/2/6 289/2/6 288/2/6
f 295/2/6 290/2/6 289/2/6
f 295/2/6 288/2/6 287/2/6
f 296/2/6 294/2/6 295/2/6
f 297/2/6 294/2/6 296/2/6
f 298/2/6 294/2/6 297/2/6
f 299/2/6 294/2/6 298/2/6
f 300/2/6 294/2/6 299/2/6
f 301/2/6 294/2/6 300/2/6
f 302/2/6 278/2/6 294/2/6
f 302/2/6 294/2/6 301/2/6
f 303/2/6 295/2/6 277/2/6
f 304/2/6 297/2/6 296/2/6
f 305/2/6 297/2/6 304/2/6
f 306/2/6 299/2/6 298/2/6
f 307/2/6 299/2/6 306/2/6
f 308/2/6 301/2/6 300/2/6
f 309/2/6 301/2/6 308/2/6
f 310/2/6 278/2/6 302/2/6
f 311/2/6 307/2/6 306/2/6
f 311/2/6 310/2/6 309/2/6
f 311/2/6 309/2/6 308/2/6
f 311/2/6 305/2/6 304/2/6
f 311/2/6 308/2/6 307/2/6
f 311/2/6 303/2/6 277/2/6
f 311/2/6 306/2/6 305/2/6
f 311/2/6 304/2/6 303/2/6
f 312/2/6 310/2/6 311/2/6
f 313/2/6 310/2/6 312/2/6
f 314/2/6 310/2/6 313/2/6
f 315/2/6 310/2/6 314/2/6
f 316/2/6 310/2/6 315/2/6
f 317/2/6 310/2/6 316/2/6
f 318/2/6 278/2/6 310/2/6
f 318/2/6 310/2/6 317/2/6
f 319/2/6 311/2/6 277/2/6
f 320/2/6 313/2/6 312/2/6
f 321/2/6 313/2/6 320/2/6
f 322/2/6 315/2/6 314/2/6
f 323/2/6 315/2/6 322/2/6
f 324/2/6 317/2/6 316/2/6
f 325/2/6 317/2/6 324/2/6
f 326/2/6 278/2/6 318/2/6
f 327/2/6 323/2/6 322/2/6
f 327/2/6 326/2/6 325/2/6
f 327/2/6 325/2/6 324/2/6
f 327/2/6 321/2/6 320/2/6
f 327/2/6 324/2/6 323/2/6
f 327/2/6 319/2/6 277/2/6
f 327/2/6 322/2/6 321/2/6
f 327/2/6 320/2/6 319/2/6
f 328/2/6 326/2/6 327/2/6
f 329/2/6 326/2/6 328/2/6
f 330/2/6 326/2/6 329/2/6
f 331/2/6 326/2/6 330/2/6
f 332/2/6 326/2/6 331/2/6
f 333/2/6 326/2/6 332/2/6
f 334/2/6 278/2/6 326/2/6
f 334/2/6 326/2/6 333/2/6
f 335/2/6 327/2/6 277/2/6
f 336/2/6 329/2/6 328/2/6
f 337/2/6 329/2/6 336/2/6
f 338/2/6 331/2/6 330/2/6
f 339/2/6 331/2/6 338/2/6
f 340/2/6 333/2/6 332/2/6
f 341/2/6 333/2/6 340/2/6
f 342/2/6 278/2/6 334/2/6
f 343/2/6 339/2/6 338/2/6
f 343/2/6 342/2/6 341/2/6
f 343/2/6 341/2/6 340/2/6
f 343/2/6 337/2/6 336/2/6
f 343/2/6 340/2/6 339/2/6
f 343/2/6 335/2/6 277/2/6
f 343/2/6 338/2/6 337/2/6
f 343/2/6 336/2/6 335/2/6
f 344/2/6 278/2/6 342/2/6
f 344/2/6 342/2/6 343/2/6
f 353/1/6 346/1/6 345/1/6
f 354/1/6 346/1/6 353/1/6
f 355/1/6 348/1/6 347/1/6
f 356/1/6 348/1/6 355/1/6
f 357/1/6 350/1/6 349/1/6
f 358/1/6 350/1/6 357/1/6
f 359/1/6 352/1/6 351/1/6
f 360/1/6 352/1/6 359/1/6
f 369/1/6 362/1/6 361/1/6
f 370/1/6 362/1/6 369/1/6
f 371/1/6 364/1/6 363/1/6
f 372/1/6 364/1/6 371/1/6
f 373/1/6 366/1/6 365/1/6
f 374/1/6 366/1/6 373/1/6
f 375/1/6 368/1/6 367/1/6
f 376/1/6 368/1/6 375/1/6
f 385/1/6 378/1/6 377/1/6
f 386/1/6 378/1/6 385/1/6
f 387/1/6 380/1/6 379/1/6
f 388/1/6 380/1/6 387/1/6
f 389/1/6 382/1/6 381/1/6
f 390/1/6 382/1/6 389/1/6
f 391/1/6 384/1/6 383/1/6
f 392/1/6 384/1/6 391/1/6
f 401/1/6 394/1/6 393/1/6
f 402/1/6 394/1/6 401/1/6
f 403/1/6 396/1/6 395/1/6
f 404/1/6 396/1/6 403/1/6
f 405/1/6 398/1/6 397/1/6
f 406/1/6 398/1/6 405/1/6
f 407/1/6 400/1/6 399/1/6
f 408/1/6 400/1/6 407/1/6
