# MagicaVoxel @ Ephtracy

# group
o 

# material
mtllib pokemon-center-66.mtl
usemtl palette

# normals
vn 0 0 1
vn 0 0 -1
vn 1 0 0
vn -1 0 0
vn 0 -1 0
vn 0 1 0

# texcoords
vt 0.845703 0.5
vt 0.876953 0.5
vt 0.880859 0.5
vt 0.958984 0.5

# verts
v 20.7 4.8 -6
v 16.9 4.8 -6
v 19.9 4.9 -6
v 17 4.9 -6
v 20.5 5.6 -6
v 20.1 5.6 -6
v 20.7 5.7 -6
v 20.5 5.7 -6
v 20.1 5.7 -6
v 20 5.7 -6
v 19.9 6.8 -6
v 19.7 6.8 -6
v 20 6.9 -6
v 19.7 6.9 -6
v 17 6.9 -6
v 16.9 6.9 -6
v 20.7 8.8 -6
v 20.5 8.8 -6
v 20.1 8.8 -6
v 20 8.8 -6
v 16.9 8.8 -6
v 20.6 8.9 -6
v 20.5 8.9 -6
v 20.6 9.5 -6
v 16.9 9.5 -6
v 20.7 9.6 -6
v 16.9 9.6 -6
v 20.7 4.8 -7.2
v 16.9 4.8 -7.2
v 20.6 4.9 -7.2
v 17 4.9 -7.2
v 20.6 5.6 -7.2
v 20.5 5.6 -7.2
v 20.7 5.7 -7.2
v 20.5 5.7 -7.2
v 20.1 5.7 -7.2
v 20 5.7 -7.2
v 17 6.9 -7.2
v 16.9 6.9 -7.2
v 20.7 8.8 -7.2
v 20.5 8.8 -7.2
v 20.1 8.8 -7.2
v 20 8.8 -7.2
v 16.9 8.8 -7.2
v 20.6 8.9 -7.2
v 20.5 8.9 -7.2
v 20.6 9.5 -7.2
v 16.9 9.5 -7.2
v 20.7 9.6 -7.2
v 16.9 9.6 -7.2
v 20.7 4.8 -6
v 20.7 5.7 -6
v 20.7 8.8 -6
v 20.7 9.6 -6
v 20.7 4.8 -7.2
v 20.7 5.7 -7.2
v 20.7 8.8 -7.2
v 20.7 9.6 -7.2
v 20.1 5.7 -6
v 20.1 8.8 -6
v 20.1 5.7 -7.2
v 20.1 8.8 -7.2
v 16.9 4.8 -6
v 16.9 6.9 -6
v 16.9 8.8 -6
v 16.9 9.5 -6
v 16.9 9.6 -6
v 16.9 4.8 -7.2
v 16.9 6.9 -7.2
v 16.9 8.8 -7.2
v 16.9 9.5 -7.2
v 16.9 9.6 -7.2
v 20.7 4.8 -6
v 20.7 4.8 -7.2
v 16.9 4.8 -6
v 16.9 4.8 -7.2
v 20.7 8.8 -6
v 20.7 8.8 -7.2
v 20.5 8.8 -6
v 20.5 8.8 -7.2
v 20.1 8.8 -6
v 20.1 8.8 -7.2
v 20.7 5.7 -6
v 20.7 5.7 -7.2
v 20.5 5.7 -6
v 20.5 5.7 -7.2
v 20.1 5.7 -6
v 20.1 5.7 -7.2
v 20.7 9.6 -6
v 20.7 9.6 -7.2
v 16.9 9.6 -6
v 16.9 9.6 -7.2

# faces
f 3/1/1 2/1/1 1/1/1
f 4/1/1 2/1/1 3/1/1
f 5/1/1 3/1/1 1/1/1
f 6/1/1 3/1/1 5/1/1
f 7/1/1 5/1/1 1/1/1
f 8/2/1 6/2/1 5/2/1
f 8/1/1 5/1/1 7/1/1
f 9/1/1 3/1/1 6/1/1
f 9/2/1 6/2/1 8/2/1
f 10/1/1 3/1/1 9/1/1
f 11/2/1 4/2/1 3/2/1
f 11/1/1 3/1/1 10/1/1
f 12/2/1 4/2/1 11/2/1
f 13/4/1 10/4/1 9/4/1
f 13/1/1 11/1/1 10/1/1
f 13/1/1 12/1/1 11/1/1
f 14/2/1 4/2/1 12/2/1
f 14/1/1 12/1/1 13/1/1
f 15/1/1 2/1/1 4/1/1
f 15/2/1 4/2/1 14/2/1
f 16/1/1 2/1/1 15/1/1
f 19/4/1 13/4/1 9/4/1
f 20/2/1 14/2/1 13/2/1
f 20/2/1 15/2/1 14/2/1
f 20/4/1 13/4/1 19/4/1
f 20/2/1 16/2/1 15/2/1
f 21/2/1 16/2/1 20/2/1
f 22/3/1 18/3/1 17/3/1
f 23/1/1 19/1/1 18/1/1
f 23/3/1 18/3/1 22/3/1
f 23/1/1 20/1/1 19/1/1
f 23/1/1 21/1/1 20/1/1
f 24/3/1 22/3/1 17/3/1
f 24/1/1 23/1/1 22/1/1
f 25/1/1 21/1/1 23/1/1
f 25/1/1 23/1/1 24/1/1
f 26/3/1 24/3/1 17/3/1
f 26/3/1 25/3/1 24/3/1
f 27/3/1 25/3/1 26/3/1
f 28/1/2 29/1/2 30/1/2
f 30/1/2 29/1/2 31/1/2
f 28/1/2 30/1/2 32/1/2
f 30/2/2 31/2/2 32/2/2
f 32/2/2 31/2/2 33/2/2
f 28/1/2 32/1/2 34/1/2
f 32/1/2 33/1/2 34/1/2
f 33/2/2 31/2/2 35/2/2
f 34/1/2 33/1/2 35/1/2
f 35/2/2 31/2/2 36/2/2
f 36/2/2 31/2/2 37/2/2
f 31/1/2 29/1/2 38/1/2
f 37/2/2 31/2/2 38/2/2
f 38/1/2 29/1/2 39/1/2
f 36/4/2 37/4/2 42/4/2
f 37/2/2 38/2/2 43/2/2
f 38/2/2 39/2/2 43/2/2
f 42/4/2 37/4/2 43/4/2
f 43/2/2 39/2/2 44/2/2
f 40/3/2 41/3/2 45/3/2
f 41/1/2 42/1/2 46/1/2
f 45/3/2 41/3/2 46/3/2
f 42/1/2 43/1/2 46/1/2
f 43/1/2 44/1/2 46/1/2
f 40/3/2 45/3/2 47/3/2
f 45/1/2 46/1/2 47/1/2
f 46/1/2 44/1/2 48/1/2
f 47/1/2 46/1/2 48/1/2
f 40/3/2 47/3/2 49/3/2
f 47/3/2 48/3/2 49/3/2
f 49/3/2 48/3/2 50/3/2
f 55/1/3 52/1/3 51/1/3
f 56/1/3 52/1/3 55/1/3
f 57/3/3 54/3/3 53/3/3
f 58/3/3 54/3/3 57/3/3
f 61/4/3 60/4/3 59/4/3
f 62/4/3 60/4/3 61/4/3
f 63/1/4 64/1/4 68/1/4
f 64/2/4 65/2/4 69/2/4
f 68/1/4 64/1/4 69/1/4
f 65/1/4 66/1/4 70/1/4
f 69/2/4 65/2/4 70/2/4
f 66/3/4 67/3/4 71/3/4
f 70/1/4 66/1/4 71/1/4
f 71/3/4 67/3/4 72/3/4
f 75/1/5 74/1/5 73/1/5
f 76/1/5 74/1/5 75/1/5
f 79/3/5 78/3/5 77/3/5
f 80/3/5 78/3/5 79/3/5
f 81/1/5 80/1/5 79/1/5
f 82/1/5 80/1/5 81/1/5
f 83/1/6 84/1/6 85/1/6
f 85/1/6 84/1/6 86/1/6
f 85/2/6 86/2/6 87/2/6
f 87/2/6 86/2/6 88/2/6
f 89/3/6 90/3/6 91/3/6
f 91/3/6 90/3/6 92/3/6
