# MagicaVoxel @ Ephtracy

# group
o 

# material
mtllib icon-bellsprout-0.mtl
usemtl palette

# normals
vn 0 0 -1
vn 0 0 1
vn -1 0 0
vn 1 0 0
vn 0 -1 0
vn 0 1 0

# texcoords
vt 0.884766 0.5
vt 0.916016 0.5
vt 0.919922 0.5
vt 0.958984 0.5
vt 0.994141 0.5

# verts
v -0.2 1.1 -2.4
v 0.3 1.1 -2.4
v -0.4 1.3 -2.4
v -0.2 1.3 -2.4
v 0.3 1.3 -2.4
v 0.5 1.3 -2.4
v -0.5 1.5 -2.4
v -0.4 1.5 -2.4
v -1.19209e-07 1.6 -2.4
v 0.2 1.6 -2.4
v -0.7 1.7 -2.4
v -0.5 1.7 -2.4
v 0.5 1.7 -2.4
v 0.7 1.7 -2.4
v -0.2 1.8 -2.4
v -1.19209e-07 1.8 -2.4
v -0.6 2 -2.4
v -0.2 2 -2.4
v 0.2 2 -2.4
v 0.6 2 -2.4
v -0.9 2.1 -2.4
v -0.7 2.1 -2.4
v 0.7 2.1 -2.4
v 0.9 2.1 -2.4
v -0.8 2.4 -2.4
v -0.6 2.4 -2.4
v 0.6 2.4 -2.4
v 0.8 2.4 -2.4
v -0.8 2.8 -2.4
v -0.6 2.8 -2.4
v 0.6 2.8 -2.4
v 0.8 2.8 -2.4
v -0.9 3.1 -2.4
v -0.7 3.1 -2.4
v 0.7 3.1 -2.4
v 0.9 3.1 -2.4
v -0.6 3.2 -2.4
v -0.2 3.2 -2.4
v 0.2 3.2 -2.4
v 0.6 3.2 -2.4
v -0.7 3.3 -2.4
v -0.5 3.3 -2.4
v 0.5 3.3 -2.4
v 0.7 3.3 -2.4
v -0.2 3.4 -2.4
v 0.2 3.4 -2.4
v -0.5 3.5 -2.4
v 0.5 3.5 -2.4
v -0.4 1.4 -1.8
v -0.2 1.4 -1.8
v -0.6 1.6 -1.8
v -0.4 1.6 -1.8
v -0.2 1.6 -1.8
v 0.4 1.6 -1.8
v 0.6 1.6 -1.8
v -0.6 1.8 -1.8
v -0.4 1.8 -1.8
v 0.4 1.8 -1.8
v 0.6 1.8 -1.8
v 0.2 2.4 -1.8
v 0.4 2.4 -1.8
v 0.2 2.6 -1.8
v 0.4 2.6 -1.8
v -0.2 1 -1.6
v 0.2 1 -1.6
v -0.4 1.2 -1.6
v -0.2 1.2 -1.6
v -1.19209e-07 1.2 -1.6
v 0.2 1.2 -1.6
v 0.4 1.2 -1.6
v -0.4 1.4 -1.6
v -0.2 1.4 -1.6
v -1.19209e-07 1.4 -1.6
v 0.2 1.4 -1.6
v 0.4 1.4 -1.6
v -0.2 1.1 -2
v 0.3 1.1 -2
v -1.19209e-07 1.2 -2
v 0.2 1.2 -2
v -0.4 1.3 -2
v -0.2 1.3 -2
v 0.3 1.3 -2
v 0.5 1.3 -2
v -0.2 1.4 -2
v -1.19209e-07 1.4 -2
v 0.2 1.4 -2
v 0.4 1.4 -2
v -0.5 1.5 -2
v -0.4 1.5 -2
v -0.4 1.6 -2
v -0.2 1.6 -2
v -0.7 1.7 -2
v -0.5 1.7 -2
v 0.5 1.7 -2
v 0.7 1.7 -2
v -0.6 1.8 -2
v -0.4 1.8 -2
v 0.4 1.8 -2
v 0.6 1.8 -2
v -0.9 2.1 -2
v -0.7 2.1 -2
v 0.7 2.1 -2
v 0.9 2.1 -2
v -0.8 2.2 -2
v -0.6 2.2 -2
v 0.6 2.2 -2
v 0.8 2.2 -2
v 0.2 2.4 -2
v 0.4 2.4 -2
v 0.2 2.6 -2
v 0.4 2.6 -2
v -0.8 3 -2
v -0.6 3 -2
v 0.6 3 -2
v 0.8 3 -2
v -0.9 3.1 -2
v -0.7 3.1 -2
v 0.7 3.1 -2
v 0.9 3.1 -2
v -0.6 3.2 -2
v -0.4 3.2 -2
v 0.4 3.2 -2
v 0.6 3.2 -2
v -0.7 3.3 -2
v -0.5 3.3 -2
v 0.5 3.3 -2
v 0.7 3.3 -2
v -0.4 3.4 -2
v 0.4 3.4 -2
v -0.5 3.5 -2
v 0.5 3.5 -2
v -0.8 2.2 -1.8
v -0.6 2.2 -1.8
v 0.6 2.2 -1.8
v 0.8 2.2 -1.8
v -0.8 2.4 -1.8
v -0.6 2.4 -1.8
v 0.6 2.4 -1.8
v 0.8 2.4 -1.8
v -0.8 2.8 -1.8
v -0.6 2.8 -1.8
v 0.6 2.8 -1.8
v 0.8 2.8 -1.8
v -0.8 3 -1.8
v -0.6 3 -1.8
v 0.6 3 -1.8
v 0.8 3 -1.8
v -0.4 3.2 -1.8
v -0.2 3.2 -1.8
v 0.2 3.2 -1.8
v 0.4 3.2 -1.8
v -0.4 3.4 -1.8
v -0.2 3.4 -1.8
v 0.2 3.4 -1.8
v 0.4 3.4 -1.8
v -0.8 2.4 -1.6
v -0.6 2.4 -1.6
v 0.6 2.4 -1.6
v 0.8 2.4 -1.6
v -0.8 2.8 -1.6
v -0.6 2.8 -1.6
v 0.6 2.8 -1.6
v 0.8 2.8 -1.6
v -0.6 3 -1.6
v -0.4 3 -1.6
v 0.4 3 -1.6
v 0.6 3 -1.6
v -0.6 3.2 -1.6
v -0.4 3.2 -1.6
v -0.2 3.2 -1.6
v 0.2 3.2 -1.6
v 0.4 3.2 -1.6
v 0.6 3.2 -1.6
v -0.2 3.4 -1.6
v 0.2 3.4 -1.6
v -0.2 1 -1.4
v 0.2 1 -1.4
v -0.4 1.2 -1.4
v -0.2 1.2 -1.4
v 0.2 1.2 -1.4
v 0.4 1.2 -1.4
v -0.4 1.4 -1.4
v -0.2 1.4 -1.4
v 0.2 1.4 -1.4
v 0.4 1.4 -1.4
v -0.6 1.6 -1.4
v -0.4 1.6 -1.4
v -0.2 1.6 -1.4
v 0.2 1.6 -1.4
v 0.4 1.6 -1.4
v 0.6 1.6 -1.4
v -0.4 1.8 -1.4
v 0.4 1.8 -1.4
v -0.4 2.4 -1.4
v 0.4 2.4 -1.4
v -0.4 2.6 -1.4
v 0.4 2.6 -1.4
v -0.4 2.8 -1.4
v -0.2 2.8 -1.4
v 0.2 2.8 -1.4
v 0.4 2.8 -1.4
v -0.6 3 -1.4
v -0.4 3 -1.4
v 0.4 3 -1.4
v 0.6 3 -1.4
v -0.4 3.2 -1.4
v 0.4 3.2 -1.4
v -0.4 1.4 -1.2
v -0.2 1.4 -1.2
v 0.2 1.4 -1.2
v 0.4 1.4 -1.2
v -0.4 1.6 -1.2
v -0.2 1.6 -1.2
v 0.2 1.6 -1.2
v 0.4 1.6 -1.2
v -0.4 1.8 -1.2
v -0.2 1.8 -1.2
v 0.2 1.8 -1.2
v 0.4 1.8 -1.2
v -0.2 2 -1.2
v 0.2 2 -1.2
v -0.4 2.4 -1.2
v -0.2 2.4 -1.2
v 0.2 2.4 -1.2
v 0.4 2.4 -1.2
v -0.4 2.6 -1.2
v -0.2 2.6 -1.2
v 0.2 2.6 -1.2
v 0.4 2.6 -1.2
v -0.4 2.8 -1.2
v -0.2 2.8 -1.2
v 0.2 2.8 -1.2
v 0.4 2.8 -1.2
v -0.4 1.6 -1
v -0.2 1.6 -1
v 0.2 1.6 -1
v 0.4 1.6 -1
v -0.4 1.8 -1
v -0.2 1.8 -1
v 0.2 1.8 -1
v 0.4 1.8 -1
v -0.2 2 -1
v 0.2 2 -1
v -0.2 1.6 -0.8
v 0.2 1.6 -0.8
v -0.2 1.8 -0.8
v 0.2 1.8 -0.8
v -0.9 2.1 -2.4
v -0.9 3.1 -2.4
v -0.9 2.1 -2
v -0.9 3.1 -2
v -0.8 2.2 -2
v -0.8 3 -2
v -0.8 2.2 -1.8
v -0.8 2.4 -1.8
v -0.8 2.8 -1.8
v -0.8 3 -1.8
v -0.8 2.4 -1.6
v -0.8 2.8 -1.6
v -0.7 1.7 -2.4
v -0.7 2.1 -2.4
v -0.7 3.1 -2.4
v -0.7 3.3 -2.4
v -0.7 1.7 -2
v -0.7 2.1 -2
v -0.7 3.1 -2
v -0.7 3.3 -2
v -0.6 1.8 -2
v -0.6 2.2 -2
v -0.6 3 -2
v -0.6 3.2 -2
v -0.6 1.6 -1.8
v -0.6 1.8 -1.8
v -0.6 2.2 -1.8
v -0.6 2.4 -1.8
v -0.6 2.8 -1.8
v -0.6 3 -1.8
v -0.6 2.4 -1.6
v -0.6 2.8 -1.6
v -0.6 3 -1.6
v -0.6 3.2 -1.6
v -0.6 1.6 -1.4
v -0.6 3 -1.4
v -0.5 1.5 -2.4
v -0.5 1.7 -2.4
v -0.5 3.3 -2.4
v -0.5 3.5 -2.4
v -0.5 1.5 -2
v -0.5 1.7 -2
v -0.5 3.3 -2
v -0.5 3.5 -2
v -0.4 1.3 -2.4
v -0.4 1.5 -2.4
v -0.4 1.3 -2
v -0.4 1.5 -2
v -0.4 1.6 -2
v -0.4 1.8 -2
v -0.4 3.2 -2
v -0.4 3.4 -2
v -0.4 1.4 -1.8
v -0.4 1.6 -1.8
v -0.4 1.8 -1.8
v -0.4 3.2 -1.8
v -0.4 3.4 -1.8
v -0.4 1.2 -1.6
v -0.4 1.4 -1.6
v -0.4 1.6 -1.6
v -0.4 3 -1.6
v -0.4 3.2 -1.6
v -0.4 1.2 -1.4
v -0.4 1.4 -1.4
v -0.4 1.6 -1.4
v -0.4 1.8 -1.4
v -0.4 2.4 -1.4
v -0.4 2.6 -1.4
v -0.4 2.8 -1.4
v -0.4 3 -1.4
v -0.4 3.2 -1.4
v -0.4 1.4 -1.2
v -0.4 1.6 -1.2
v -0.4 1.8 -1.2
v -0.4 2.4 -1.2
v -0.4 2.6 -1.2
v -0.4 2.8 -1.2
v -0.4 1.6 -1
v -0.4 1.8 -1
v -0.2 1.1 -2.4
v -0.2 1.3 -2.4
v -0.2 1.1 -2
v -0.2 1.3 -2
v -0.2 1.4 -2
v -0.2 1.6 -2
v -0.2 1.4 -1.8
v -0.2 1.6 -1.8
v -0.2 3.2 -1.8
v -0.2 3.4 -1.8
v -0.2 1 -1.6
v -0.2 1.2 -1.6
v -0.2 3.2 -1.6
v -0.2 3.4 -1.6
v -0.2 1 -1.4
v -0.2 1.2 -1.4
v -0.2 1.8 -1.2
v -0.2 2 -1.2
v -0.2 1.6 -1
v -0.2 1.8 -1
v -0.2 2 -1
v -0.2 1.6 -0.8
v -0.2 1.8 -0.8
v -1.19209e-07 1.2 -2
v -1.19209e-07 1.4 -2
v -1.19209e-07 1.2 -1.6
v -1.19209e-07 1.4 -1.6
v 0.2 1.4 -1.4
v 0.2 1.6 -1.4
v 0.2 1.4 -1.2
v 0.2 1.6 -1.2
v 0.4 2.4 -2
v 0.4 2.6 -2
v 0.4 2.4 -1.8
v 0.4 2.6 -1.8
v -0.2 1.4 -1.4
v -0.2 1.6 -1.4
v -0.2 1.4 -1.2
v -0.2 1.6 -1.2
v 0.2 1.2 -2
v 0.2 1.4 -2
v 0.2 2.4 -2
v 0.2 2.6 -2
v 0.2 2.4 -1.8
v 0.2 2.6 -1.8
v 0.2 3.2 -1.8
v 0.2 3.4 -1.8
v 0.2 1 -1.6
v 0.2 1.2 -1.6
v 0.2 1.4 -1.6
v 0.2 3.2 -1.6
v 0.2 3.4 -1.6
v 0.2 1 -1.4
v 0.2 1.2 -1.4
v 0.2 1.8 -1.2
v 0.2 2 -1.2
v 0.2 1.6 -1
v 0.2 1.8 -1
v 0.2 2 -1
v 0.2 1.6 -0.8
v 0.2 1.8 -0.8
v 0.3 1.1 -2.4
v 0.3 1.3 -2.4
v 0.3 1.1 -2
v 0.3 1.3 -2
v 0.4 1.4 -2
v 0.4 1.8 -2
v 0.4 3.2 -2
v 0.4 3.4 -2
v 0.4 1.6 -1.8
v 0.4 1.8 -1.8
v 0.4 3.2 -1.8
v 0.4 3.4 -1.8
v 0.4 1.2 -1.6
v 0.4 1.4 -1.6
v 0.4 1.6 -1.6
v 0.4 3 -1.6
v 0.4 3.2 -1.6
v 0.4 1.2 -1.4
v 0.4 1.4 -1.4
v 0.4 1.6 -1.4
v 0.4 1.8 -1.4
v 0.4 2.4 -1.4
v 0.4 2.6 -1.4
v 0.4 2.8 -1.4
v 0.4 3 -1.4
v 0.4 3.2 -1.4
v 0.4 1.4 -1.2
v 0.4 1.6 -1.2
v 0.4 1.8 -1.2
v 0.4 2.4 -1.2
v 0.4 2.6 -1.2
v 0.4 2.8 -1.2
v 0.4 1.6 -1
v 0.4 1.8 -1
v 0.5 1.3 -2.4
v 0.5 1.7 -2.4
v 0.5 3.3 -2.4
v 0.5 3.5 -2.4
v 0.5 1.3 -2
v 0.5 1.7 -2
v 0.5 3.3 -2
v 0.5 3.5 -2
v 0.6 1.8 -2
v 0.6 2.2 -2
v 0.6 3 -2
v 0.6 3.2 -2
v 0.6 1.6 -1.8
v 0.6 1.8 -1.8
v 0.6 2.2 -1.8
v 0.6 2.4 -1.8
v 0.6 2.8 -1.8
v 0.6 3 -1.8
v 0.6 1.6 -1.6
v 0.6 1.8 -1.6
v 0.6 2.4 -1.6
v 0.6 2.8 -1.6
v 0.6 3 -1.6
v 0.6 3.2 -1.6
v 0.6 1.6 -1.4
v 0.6 3 -1.4
v 0.7 1.7 -2.4
v 0.7 2.1 -2.4
v 0.7 3.1 -2.4
v 0.7 3.3 -2.4
v 0.7 1.7 -2
v 0.7 2.1 -2
v 0.7 3.1 -2
v 0.7 3.3 -2
v 0.8 2.2 -2
v 0.8 3 -2
v 0.8 2.2 -1.8
v 0.8 2.4 -1.8
v 0.8 2.8 -1.8
v 0.8 3 -1.8
v 0.8 2.4 -1.6
v 0.8 2.8 -1.6
v 0.9 2.1 -2.4
v 0.9 3.1 -2.4
v 0.9 2.1 -2
v 0.9 3.1 -2
v -0.2 1 -1.6
v -0.2 1 -1.4
v 0.2 1 -1.6
v 0.2 1 -1.4
v -0.2 1.1 -2.4
v -0.2 1.1 -2
v 0.3 1.1 -2.4
v 0.3 1.1 -2
v -0.4 1.2 -1.6
v -0.4 1.2 -1.4
v -0.2 1.2 -1.6
v -0.2 1.2 -1.4
v -1.19209e-07 1.2 -2
v -1.19209e-07 1.2 -1.6
v 0.2 1.2 -2
v 0.2 1.2 -1.6
v 0.2 1.2 -1.4
v 0.4 1.2 -1.6
v 0.4 1.2 -1.4
v -0.4 1.3 -2.4
v -0.4 1.3 -2
v -0.2 1.3 -2.4
v -0.2 1.3 -2
v 0.3 1.3 -2.4
v 0.3 1.3 -2
v 0.5 1.3 -2.4
v 0.5 1.3 -2
v -0.4 1.4 -1.8
v -0.4 1.4 -1.6
v -0.4 1.4 -1.4
v -0.4 1.4 -1.2
v -0.2 1.4 -2
v -0.2 1.4 -1.8
v -0.2 1.4 -1.6
v -0.2 1.4 -1.4
v -0.2 1.4 -1.2
v -1.19209e-07 1.4 -2
v -1.19209e-07 1.4 -1.6
v 0.2 1.4 -2
v 0.2 1.4 -1.6
v 0.2 1.4 -1.4
v 0.2 1.4 -1.2
v 0.4 1.4 -2
v 0.4 1.4 -1.6
v 0.4 1.4 -1.4
v 0.4 1.4 -1.2
v -0.5 1.5 -2.4
v -0.5 1.5 -2
v -0.4 1.5 -2.4
v -0.4 1.5 -2
v -0.6 1.6 -1.8
v -0.6 1.6 -1.4
v -0.4 1.6 -2
v -0.4 1.6 -1.8
v -0.4 1.6 -1.6
v -0.4 1.6 -1.4
v -0.4 1.6 -1.2
v -0.4 1.6 -1
v -0.2 1.6 -2
v -0.2 1.6 -1.8
v -0.2 1.6 -1.4
v -0.2 1.6 -1.2
v -0.2 1.6 -1
v -0.2 1.6 -0.8
v 0.2 1.6 -1.4
v 0.2 1.6 -1.2
v 0.2 1.6 -1
v 0.2 1.6 -0.8
v 0.4 1.6 -1.8
v 0.4 1.6 -1.6
v 0.4 1.6 -1.4
v 0.4 1.6 -1.2
v 0.4 1.6 -1
v 0.6 1.6 -1.8
v 0.6 1.6 -1.6
v 0.6 1.6 -1.4
v -0.7 1.7 -2.4
v -0.7 1.7 -2
v -0.5 1.7 -2.4
v -0.5 1.7 -2
v 0.5 1.7 -2.4
v 0.5 1.7 -2
v 0.7 1.7 -2.4
v 0.7 1.7 -2
v -0.6 1.8 -2
v -0.6 1.8 -1.8
v -0.4 1.8 -2
v -0.4 1.8 -1.8
v 0.4 1.8 -2
v 0.4 1.8 -1.8
v 0.6 1.8 -2
v 0.6 1.8 -1.8
v -0.9 2.1 -2.4
v -0.9 2.1 -2
v -0.7 2.1 -2.4
v -0.7 2.1 -2
v 0.7 2.1 -2.4
v 0.7 2.1 -2
v 0.9 2.1 -2.4
v 0.9 2.1 -2
v -0.8 2.2 -2
v -0.8 2.2 -1.8
v -0.6 2.2 -2
v -0.6 2.2 -1.8
v 0.6 2.2 -2
v 0.6 2.2 -1.8
v 0.8 2.2 -2
v 0.8 2.2 -1.8
v -0.8 2.4 -1.8
v -0.8 2.4 -1.6
v -0.6 2.4 -1.8
v -0.6 2.4 -1.6
v 0.6 2.4 -1.8
v 0.6 2.4 -1.6
v 0.8 2.4 -1.8
v 0.8 2.4 -1.6
v 0.2 2.6 -2
v 0.2 2.6 -1.8
v 0.4 2.6 -2
v 0.4 2.6 -1.8
v -0.4 1.8 -1.2
v -0.4 1.8 -1
v -0.2 1.8 -1.2
v -0.2 1.8 -1
v -0.2 1.8 -0.8
v 0.2 1.8 -1.2
v 0.2 1.8 -1
v 0.2 1.8 -0.8
v 0.4 1.8 -1.2
v 0.4 1.8 -1
v -0.2 2 -1.2
v -0.2 2 -1
v 0.2 2 -1.2
v 0.2 2 -1
v 0.2 2.4 -2
v 0.2 2.4 -1.8
v 0.4 2.4 -2
v 0.4 2.4 -1.8
v -0.8 2.8 -1.8
v -0.8 2.8 -1.6
v -0.6 2.8 -1.8
v -0.6 2.8 -1.6
v -0.4 2.8 -1.4
v -0.4 2.8 -1.2
v -0.2 2.8 -1.4
v -0.2 2.8 -1.2
v 0.2 2.8 -1.4
v 0.2 2.8 -1.2
v 0.4 2.8 -1.4
v 0.4 2.8 -1.2
v 0.6 2.8 -1.8
v 0.6 2.8 -1.6
v 0.8 2.8 -1.8
v 0.8 2.8 -1.6
v -0.8 3 -2
v -0.8 3 -1.8
v -0.6 3 -2
v -0.6 3 -1.8
v -0.6 3 -1.6
v -0.6 3 -1.4
v -0.4 3 -1.6
v -0.4 3 -1.4
v 0.4 3 -1.6
v 0.4 3 -1.4
v 0.6 3 -2
v 0.6 3 -1.8
v 0.6 3 -1.6
v 0.6 3 -1.4
v 0.8 3 -2
v 0.8 3 -1.8
v -0.9 3.1 -2.4
v -0.9 3.1 -2
v -0.7 3.1 -2.4
v -0.7 3.1 -2
v 0.7 3.1 -2.4
v 0.7 3.1 -2
v 0.9 3.1 -2.4
v 0.9 3.1 -2
v -0.6 3.2 -2
v -0.6 3.2 -1.6
v -0.4 3.2 -2
v -0.4 3.2 -1.8
v -0.4 3.2 -1.6
v -0.4 3.2 -1.4
v -0.2 3.2 -1.8
v -0.2 3.2 -1.6
v 0.2 3.2 -1.8
v 0.2 3.2 -1.6
v 0.4 3.2 -2
v 0.4 3.2 -1.8
v 0.4 3.2 -1.6
v 0.4 3.2 -1.4
v 0.6 3.2 -2
v 0.6 3.2 -1.6
v -0.7 3.3 -2.4
v -0.7 3.3 -2
v -0.5 3.3 -2.4
v -0.5 3.3 -2
v 0.5 3.3 -2.4
v 0.5 3.3 -2
v 0.7 3.3 -2.4
v 0.7 3.3 -2
v -0.4 3.4 -2
v -0.4 3.4 -1.8
v -0.2 3.4 -1.8
v -0.2 3.4 -1.6
v 0.2 3.4 -1.8
v 0.2 3.4 -1.6
v 0.4 3.4 -2
v 0.4 3.4 -1.8
v -0.5 3.5 -2.4
v -0.5 3.5 -2
v 0.5 3.5 -2.4
v 0.5 3.5 -2

# faces
f 4/5/1 2/5/1 1/5/1
f 5/5/1 2/5/1 4/5/1
f 8/5/1 4/5/1 3/5/1
f 8/5/1 6/5/1 5/5/1
f 8/5/1 5/5/1 4/5/1
f 9/5/1 6/5/1 8/5/1
f 9/5/1 8/5/1 7/5/1
f 10/5/1 6/5/1 9/5/1
f 12/5/1 9/5/1 7/5/1
f 13/5/1 6/5/1 10/5/1
f 15/5/1 12/5/1 11/5/1
f 15/5/1 9/5/1 12/5/1
f 16/1/1 10/1/1 9/1/1
f 16/5/1 9/5/1 15/5/1
f 17/5/1 15/5/1 11/5/1
f 18/1/1 16/1/1 15/1/1
f 18/5/1 15/5/1 17/5/1
f 19/5/1 14/5/1 13/5/1
f 19/1/1 16/1/1 18/1/1
f 19/1/1 10/1/1 16/1/1
f 19/5/1 13/5/1 10/5/1
f 20/5/1 14/5/1 19/5/1
f 22/5/1 17/5/1 11/5/1
f 23/5/1 14/5/1 20/5/1
f 25/5/1 22/5/1 21/5/1
f 26/2/1 18/2/1 17/2/1
f 26/5/1 22/5/1 25/5/1
f 26/2/1 19/2/1 18/2/1
f 26/2/1 20/2/1 19/2/1
f 26/5/1 17/5/1 22/5/1
f 27/5/1 24/5/1 23/5/1
f 27/2/1 20/2/1 26/2/1
f 27/5/1 23/5/1 20/5/1
f 28/5/1 24/5/1 27/5/1
f 29/5/1 25/5/1 21/5/1
f 29/2/1 26/2/1 25/2/1
f 29/2/1 28/2/1 27/2/1
f 29/2/1 27/2/1 26/2/1
f 30/2/1 28/2/1 29/2/1
f 31/2/1 28/2/1 30/2/1
f 32/5/1 24/5/1 28/5/1
f 32/2/1 28/2/1 31/2/1
f 33/5/1 29/5/1 21/5/1
f 33/5/1 30/5/1 29/5/1
f 34/5/1 30/5/1 33/5/1
f 35/5/1 32/5/1 31/5/1
f 36/5/1 24/5/1 32/5/1
f 36/5/1 32/5/1 35/5/1
f 37/2/1 31/2/1 30/2/1
f 37/5/1 30/5/1 34/5/1
f 38/2/1 31/2/1 37/2/1
f 39/2/1 31/2/1 38/2/1
f 40/5/1 35/5/1 31/5/1
f 40/2/1 31/2/1 39/2/1
f 41/5/1 37/5/1 34/5/1
f 41/5/1 38/5/1 37/5/1
f 42/5/1 38/5/1 41/5/1
f 43/5/1 40/5/1 39/5/1
f 44/5/1 35/5/1 40/5/1
f 44/5/1 40/5/1 43/5/1
f 45/2/1 39/2/1 38/2/1
f 45/5/1 38/5/1 42/5/1
f 46/5/1 43/5/1 39/5/1
f 46/2/1 39/2/1 45/2/1
f 47/5/1 45/5/1 42/5/1
f 47/5/1 46/5/1 45/5/1
f 48/5/1 43/5/1 46/5/1
f 48/5/1 46/5/1 47/5/1
f 52/1/1 50/1/1 49/1/1
f 53/1/1 50/1/1 52/1/1
f 56/2/1 52/2/1 51/2/1
f 57/2/1 52/2/1 56/2/1
f 58/1/1 55/1/1 54/1/1
f 59/1/1 55/1/1 58/1/1
f 62/2/1 61/2/1 60/2/1
f 63/2/1 61/2/1 62/2/1
f 67/3/1 65/3/1 64/3/1
f 68/3/1 65/3/1 67/3/1
f 69/3/1 65/3/1 68/3/1
f 71/3/1 67/3/1 66/3/1
f 72/5/1 68/5/1 67/5/1
f 72/3/1 67/3/1 71/3/1
f 73/5/1 68/5/1 72/5/1
f 74/3/1 70/3/1 69/3/1
f 75/3/1 70/3/1 74/3/1
f 76/5/2 77/5/2 78/5/2
f 78/5/2 77/5/2 79/5/2
f 76/5/2 78/5/2 81/5/2
f 79/5/2 77/5/2 82/5/2
f 80/5/2 81/5/2 84/5/2
f 81/5/2 78/5/2 84/5/2
f 84/5/2 78/5/2 85/5/2
f 82/5/2 83/5/2 86/5/2
f 79/5/2 82/5/2 86/5/2
f 86/5/2 83/5/2 87/5/2
f 80/5/2 84/5/2 89/5/2
f 89/5/2 84/5/2 90/5/2
f 88/5/2 89/5/2 90/5/2
f 90/5/2 84/5/2 91/5/2
f 88/5/2 90/5/2 93/5/2
f 87/5/2 83/5/2 94/5/2
f 92/5/2 93/5/2 96/5/2
f 93/5/2 90/5/2 97/5/2
f 96/5/2 93/5/2 97/5/2
f 94/5/2 95/5/2 98/5/2
f 87/5/2 94/5/2 98/5/2
f 98/5/2 95/5/2 99/5/2
f 92/5/2 96/5/2 101/5/2
f 99/5/2 95/5/2 102/5/2
f 100/5/2 101/5/2 104/5/2
f 101/5/2 96/5/2 105/5/2
f 104/5/2 101/5/2 105/5/2
f 102/5/2 103/5/2 106/5/2
f 99/5/2 102/5/2 106/5/2
f 106/5/2 103/5/2 107/5/2
f 108/2/2 109/2/2 110/2/2
f 110/2/2 109/2/2 111/2/2
f 100/5/2 104/5/2 112/5/2
f 107/5/2 103/5/2 115/5/2
f 100/5/2 112/5/2 116/5/2
f 112/5/2 113/5/2 116/5/2
f 116/5/2 113/5/2 117/5/2
f 114/5/2 115/5/2 118/5/2
f 115/5/2 103/5/2 119/5/2
f 118/5/2 115/5/2 119/5/2
f 117/5/2 113/5/2 120/5/2
f 114/5/2 118/5/2 123/5/2
f 120/5/2 121/5/2 124/5/2
f 117/5/2 120/5/2 124/5/2
f 124/5/2 121/5/2 125/5/2
f 122/5/2 123/5/2 126/5/2
f 123/5/2 118/5/2 127/5/2
f 126/5/2 123/5/2 127/5/2
f 125/5/2 121/5/2 128/5/2
f 122/5/2 126/5/2 129/5/2
f 125/5/2 128/5/2 130/5/2
f 128/5/2 129/5/2 130/5/2
f 129/5/2 126/5/2 131/5/2
f 130/5/2 129/5/2 131/5/2
f 132/2/2 133/2/2 136/2/2
f 136/2/2 133/2/2 137/2/2
f 134/2/2 135/2/2 138/2/2
f 138/2/2 135/2/2 139/2/2
f 140/2/2 141/2/2 144/2/2
f 144/2/2 141/2/2 145/2/2
f 142/2/2 143/2/2 146/2/2
f 146/2/2 143/2/2 147/2/2
f 148/2/2 149/2/2 152/2/2
f 152/2/2 149/2/2 153/2/2
f 150/2/2 151/2/2 154/2/2
f 154/2/2 151/2/2 155/2/2
f 156/2/2 157/2/2 160/2/2
f 160/2/2 157/2/2 161/2/2
f 158/2/2 159/2/2 162/2/2
f 162/2/2 159/2/2 163/2/2
f 164/2/2 165/2/2 168/2/2
f 168/2/2 165/2/2 169/2/2
f 166/2/2 167/2/2 172/2/2
f 172/2/2 167/2/2 173/2/2
f 170/2/2 171/2/2 174/2/2
f 174/2/2 171/2/2 175/2/2
f 176/3/2 177/3/2 179/3/2
f 179/3/2 177/3/2 180/3/2
f 178/3/2 179/3/2 182/3/2
f 179/5/2 180/5/2 183/5/2
f 182/3/2 179/3/2 183/3/2
f 180/3/2 181/3/2 184/3/2
f 183/5/2 180/5/2 184/5/2
f 184/3/2 181/3/2 185/3/2
f 183/5/2 184/5/2 188/5/2
f 188/5/2 184/5/2 189/5/2
f 186/2/2 187/2/2 192/2/2
f 190/2/2 191/2/2 193/2/2
f 186/2/2 192/2/2 194/2/2
f 193/2/2 191/2/2 195/2/2
f 186/2/2 194/2/2 196/2/2
f 195/2/2 191/2/2 197/2/2
f 186/2/2 196/2/2 198/2/2
f 197/2/2 191/2/2 201/2/2
f 199/2/2 200/2/2 202/2/2
f 200/2/2 201/2/2 202/2/2
f 186/2/2 198/2/2 202/2/2
f 198/2/2 199/2/2 202/2/2
f 202/2/2 201/2/2 203/2/2
f 201/2/2 191/2/2 204/2/2
f 203/2/2 201/2/2 204/2/2
f 204/2/2 191/2/2 205/2/2
f 203/2/2 204/2/2 206/2/2
f 206/2/2 204/2/2 207/2/2
f 208/3/2 209/3/2 212/3/2
f 212/3/2 209/3/2 213/3/2
f 210/3/2 211/3/2 214/3/2
f 214/3/2 211/3/2 215/3/2
f 216/2/2 217/2/2 220/2/2
f 218/2/2 219/2/2 221/2/2
f 216/2/2 220/2/2 222/2/2
f 220/2/2 221/2/2 222/2/2
f 222/2/2 221/2/2 223/2/2
f 221/2/2 219/2/2 224/2/2
f 223/2/2 221/2/2 224/2/2
f 224/2/2 219/2/2 225/2/2
f 222/5/2 223/5/2 226/5/2
f 223/2/2 224/2/2 227/2/2
f 226/5/2 223/5/2 227/5/2
f 224/5/2 225/5/2 228/5/2
f 227/2/2 224/2/2 228/2/2
f 228/5/2 225/5/2 229/5/2
f 226/4/2 227/4/2 230/4/2
f 227/2/2 228/2/2 231/2/2
f 230/4/2 227/4/2 231/4/2
f 228/4/2 229/4/2 232/4/2
f 231/2/2 228/2/2 232/2/2
f 232/4/2 229/4/2 233/4/2
f 234/3/2 235/3/2 238/3/2
f 238/3/2 235/3/2 239/3/2
f 236/3/2 237/3/2 240/3/2
f 240/3/2 237/3/2 241/3/2
f 239/2/2 240/2/2 242/2/2
f 242/2/2 240/2/2 243/2/2
f 244/3/2 245/3/2 246/3/2
f 246/3/2 245/3/2 247/3/2
f 250/5/3 249/5/3 248/5/3
f 251/5/3 249/5/3 250/5/3
f 254/2/3 253/2/3 252/2/3
f 255/2/3 253/2/3 254/2/3
f 256/2/3 253/2/3 255/2/3
f 257/2/3 253/2/3 256/2/3
f 258/2/3 256/2/3 255/2/3
f 259/2/3 256/2/3 258/2/3
f 264/5/3 261/5/3 260/5/3
f 265/5/3 261/5/3 264/5/3
f 266/5/3 263/5/3 262/5/3
f 267/5/3 263/5/3 266/5/3
f 273/2/3 269/2/3 268/2/3
f 274/2/3 269/2/3 273/2/3
f 277/2/3 271/2/3 270/2/3
f 278/2/3 275/2/3 274/2/3
f 278/2/3 273/2/3 272/2/3
f 278/2/3 274/2/3 273/2/3
f 279/2/3 277/2/3 276/2/3
f 280/2/3 271/2/3 277/2/3
f 280/2/3 277/2/3 279/2/3
f 281/2/3 271/2/3 280/2/3
f 282/2/3 278/2/3 272/2/3
f 282/2/3 279/2/3 278/2/3
f 282/2/3 280/2/3 279/2/3
f 283/2/3 280/2/3 282/2/3
f 288/5/3 285/5/3 284/5/3
f 289/5/3 285/5/3 288/5/3
f 290/5/3 287/5/3 286/5/3
f 291/5/3 287/5/3 290/5/3
f 294/5/3 293/5/3 292/5/3
f 295/5/3 293/5/3 294/5/3
f 301/1/3 297/1/3 296/1/3
f 302/1/3 297/1/3 301/1/3
f 303/2/3 299/2/3 298/2/3
f 304/2/3 299/2/3 303/2/3
f 306/1/3 301/1/3 300/1/3
f 307/1/3 301/1/3 306/1/3
f 310/3/3 306/3/3 305/3/3
f 310/3/3 307/3/3 306/3/3
f 311/3/3 307/3/3 310/3/3
f 312/3/3 307/3/3 311/3/3
f 317/2/3 309/2/3 308/2/3
f 318/2/3 309/2/3 317/2/3
f 319/3/3 312/3/3 311/3/3
f 319/3/3 313/3/3 312/3/3
f 320/3/3 313/3/3 319/3/3
f 321/2/3 314/2/3 313/2/3
f 321/3/3 313/3/3 320/3/3
f 322/5/3 315/5/3 314/5/3
f 322/2/3 314/2/3 321/2/3
f 323/4/3 316/4/3 315/4/3
f 323/5/3 315/5/3 322/5/3
f 324/4/3 316/4/3 323/4/3
f 325/3/3 321/3/3 320/3/3
f 326/3/3 321/3/3 325/3/3
f 329/5/3 328/5/3 327/5/3
f 330/5/3 328/5/3 329/5/3
f 333/1/3 332/1/3 331/1/3
f 334/1/3 332/1/3 333/1/3
f 339/2/3 336/2/3 335/2/3
f 340/2/3 336/2/3 339/2/3
f 341/3/3 338/3/3 337/3/3
f 342/3/3 338/3/3 341/3/3
f 346/2/3 344/2/3 343/2/3
f 347/2/3 344/2/3 346/2/3
f 348/3/3 346/3/3 345/3/3
f 349/3/3 346/3/3 348/3/3
f 352/1/3 351/1/3 350/1/3
f 353/1/3 351/1/3 352/1/3
f 356/3/3 355/3/3 354/3/3
f 357/3/3 355/3/3 356/3/3
f 360/2/3 359/2/3 358/2/3
f 361/2/3 359/2/3 360/2/3
f 362/3/4 363/3/4 364/3/4
f 364/3/4 363/3/4 365/3/4
f 368/2/4 369/2/4 370/2/4
f 370/2/4 369/2/4 371/2/4
f 366/1/4 367/1/4 375/1/4
f 375/1/4 367/1/4 376/1/4
f 372/2/4 373/2/4 377/2/4
f 377/2/4 373/2/4 378/2/4
f 374/3/4 375/3/4 379/3/4
f 379/3/4 375/3/4 380/3/4
f 381/2/4 382/2/4 384/2/4
f 384/2/4 382/2/4 385/2/4
f 383/3/4 384/3/4 386/3/4
f 386/3/4 384/3/4 387/3/4
f 388/5/4 389/5/4 390/5/4
f 390/5/4 389/5/4 391/5/4
f 392/1/4 393/1/4 396/1/4
f 396/1/4 393/1/4 397/1/4
f 394/2/4 395/2/4 398/2/4
f 398/2/4 395/2/4 399/2/4
f 392/1/4 396/1/4 401/1/4
f 401/1/4 396/1/4 402/1/4
f 400/3/4 401/3/4 405/3/4
f 401/3/4 402/3/4 405/3/4
f 405/3/4 402/3/4 406/3/4
f 406/3/4 402/3/4 407/3/4
f 403/2/4 404/2/4 412/2/4
f 412/2/4 404/2/4 413/2/4
f 406/3/4 407/3/4 414/3/4
f 407/3/4 408/3/4 414/3/4
f 414/3/4 408/3/4 415/3/4
f 408/2/4 409/2/4 416/2/4
f 415/3/4 408/3/4 416/3/4
f 409/5/4 410/5/4 417/5/4
f 416/2/4 409/2/4 417/2/4
f 410/4/4 411/4/4 418/4/4
f 417/5/4 410/5/4 418/5/4
f 418/4/4 411/4/4 419/4/4
f 415/3/4 416/3/4 420/3/4
f 420/3/4 416/3/4 421/3/4
f 422/5/4 423/5/4 426/5/4
f 426/5/4 423/5/4 427/5/4
f 424/5/4 425/5/4 428/5/4
f 428/5/4 425/5/4 429/5/4
f 430/2/4 431/2/4 435/2/4
f 435/2/4 431/2/4 436/2/4
f 432/2/4 433/2/4 439/2/4
f 434/1/4 435/1/4 440/1/4
f 436/2/4 437/2/4 441/2/4
f 440/1/4 435/1/4 441/1/4
f 435/2/4 436/2/4 441/2/4
f 441/2/4 437/2/4 442/2/4
f 438/2/4 439/2/4 443/2/4
f 439/2/4 433/2/4 444/2/4
f 443/2/4 439/2/4 444/2/4
f 444/2/4 433/2/4 445/2/4
f 441/2/4 442/2/4 446/2/4
f 442/2/4 443/2/4 446/2/4
f 443/2/4 444/2/4 446/2/4
f 440/2/4 441/2/4 446/2/4
f 446/2/4 444/2/4 447/2/4
f 448/5/4 449/5/4 452/5/4
f 452/5/4 449/5/4 453/5/4
f 450/5/4 451/5/4 454/5/4
f 454/5/4 451/5/4 455/5/4
f 456/2/4 457/2/4 458/2/4
f 458/2/4 457/2/4 459/2/4
f 459/2/4 457/2/4 460/2/4
f 460/2/4 457/2/4 461/2/4
f 459/2/4 460/2/4 462/2/4
f 462/2/4 460/2/4 463/2/4
f 464/5/4 465/5/4 466/5/4
f 466/5/4 465/5/4 467/5/4
f 470/3/5 469/3/5 468/3/5
f 471/3/5 469/3/5 470/3/5
f 474/5/5 473/5/5 472/5/5
f 475/5/5 473/5/5 474/5/5
f 478/3/5 477/3/5 476/3/5
f 479/3/5 477/3/5 478/3/5
f 482/1/5 481/1/5 480/1/5
f 483/1/5 481/1/5 482/1/5
f 485/3/5 484/3/5 483/3/5
f 486/3/5 484/3/5 485/3/5
f 489/5/5 488/5/5 487/5/5
f 490/5/5 488/5/5 489/5/5
f 493/5/5 492/5/5 491/5/5
f 494/5/5 492/5/5 493/5/5
f 500/1/5 496/1/5 495/1/5
f 501/1/5 496/1/5 500/1/5
f 502/3/5 498/3/5 497/3/5
f 503/3/5 498/3/5 502/3/5
f 504/1/5 501/1/5 500/1/5
f 504/1/5 500/1/5 499/1/5
f 505/1/5 501/1/5 504/1/5
f 510/1/5 507/1/5 506/1/5
f 511/1/5 507/1/5 510/1/5
f 512/3/5 509/3/5 508/3/5
f 513/3/5 509/3/5 512/3/5
f 516/5/5 515/5/5 514/5/5
f 517/5/5 515/5/5 516/5/5
f 521/2/5 519/2/5 518/2/5
f 522/2/5 519/2/5 521/2/5
f 523/2/5 519/2/5 522/2/5
f 526/1/5 521/1/5 520/1/5
f 527/1/5 521/1/5 526/1/5
f 529/3/5 525/3/5 524/3/5
f 530/3/5 525/3/5 529/3/5
f 532/5/5 529/5/5 528/5/5
f 532/5/5 530/5/5 529/5/5
f 533/5/5 530/5/5 532/5/5
f 534/3/5 531/3/5 530/3/5
f 534/5/5 530/5/5 533/5/5
f 535/3/5 531/3/5 534/3/5
f 539/3/5 534/3/5 533/3/5
f 540/3/5 534/3/5 539/3/5
f 541/1/5 537/1/5 536/1/5
f 542/2/5 538/2/5 537/2/5
f 542/1/5 537/1/5 541/1/5
f 543/2/5 538/2/5 542/2/5
f 546/5/5 545/5/5 544/5/5
f 547/5/5 545/5/5 546/5/5
f 550/5/5 549/5/5 548/5/5
f 551/5/5 549/5/5 550/5/5
f 554/2/5 553/2/5 552/2/5
f 555/2/5 553/2/5 554/2/5
f 558/2/5 557/2/5 556/2/5
f 559/2/5 557/2/5 558/2/5
f 562/5/5 561/5/5 560/5/5
f 563/5/5 561/5/5 562/5/5
f 566/5/5 565/5/5 564/5/5
f 567/5/5 565/5/5 566/5/5
f 570/2/5 569/2/5 568/2/5
f 571/2/5 569/2/5 570/2/5
f 574/2/5 573/2/5 572/2/5
f 575/2/5 573/2/5 574/2/5
f 578/2/5 577/2/5 576/2/5
f 579/2/5 577/2/5 578/2/5
f 582/2/5 581/2/5 580/2/5
f 583/2/5 581/2/5 582/2/5
f 586/2/5 585/2/5 584/2/5
f 587/2/5 585/2/5 586/2/5
f 588/3/6 589/3/6 590/3/6
f 590/3/6 589/3/6 591/3/6
f 591/3/6 592/3/6 594/3/6
f 594/3/6 592/3/6 595/3/6
f 593/3/6 594/3/6 596/3/6
f 596/3/6 594/3/6 597/3/6
f 598/2/6 599/2/6 600/2/6
f 600/2/6 599/2/6 601/2/6
f 602/2/6 603/2/6 604/2/6
f 604/2/6 603/2/6 605/2/6
f 606/2/6 607/2/6 608/2/6
f 608/2/6 607/2/6 609/2/6
f 610/4/6 611/4/6 612/4/6
f 612/4/6 611/4/6 613/4/6
f 612/2/6 613/2/6 614/2/6
f 614/2/6 613/2/6 615/2/6
f 614/4/6 615/4/6 616/4/6
f 616/4/6 615/4/6 617/4/6
f 618/2/6 619/2/6 620/2/6
f 620/2/6 619/2/6 621/2/6
f 622/2/6 623/2/6 624/2/6
f 624/2/6 623/2/6 625/2/6
f 626/2/6 627/2/6 628/2/6
f 628/2/6 627/2/6 629/2/6
f 630/2/6 631/2/6 634/2/6
f 634/2/6 631/2/6 635/2/6
f 632/2/6 633/2/6 636/2/6
f 636/2/6 633/2/6 637/2/6
f 638/5/6 639/5/6 640/5/6
f 640/5/6 639/5/6 641/5/6
f 642/5/6 643/5/6 644/5/6
f 644/5/6 643/5/6 645/5/6
f 646/2/6 647/2/6 648/2/6
f 648/2/6 647/2/6 649/2/6
f 649/2/6 647/2/6 650/2/6
f 650/2/6 651/2/6 652/2/6
f 649/2/6 650/2/6 652/2/6
f 652/2/6 651/2/6 653/2/6
f 653/2/6 651/2/6 655/2/6
f 654/2/6 655/2/6 657/2/6
f 655/2/6 651/2/6 658/2/6
f 657/2/6 655/2/6 658/2/6
f 658/2/6 651/2/6 659/2/6
f 656/2/6 657/2/6 660/2/6
f 657/2/6 658/2/6 660/2/6
f 660/2/6 658/2/6 661/2/6
f 662/5/6 663/5/6 664/5/6
f 664/5/6 663/5/6 665/5/6
f 666/5/6 667/5/6 668/5/6
f 668/5/6 667/5/6 669/5/6
f 670/2/6 671/2/6 672/2/6
f 670/2/6 672/2/6 674/2/6
f 672/2/6 673/2/6 674/2/6
f 674/2/6 673/2/6 675/2/6
f 670/2/6 674/2/6 676/2/6
f 676/2/6 674/2/6 677/2/6
f 678/5/6 679/5/6 680/5/6
f 680/5/6 679/5/6 681/5/6
