# MagicaVoxel @ Ephtracy

# group
o 

# material
mtllib geodude-2.mtl
usemtl palette

# normals
vn 0 0 1
vn 0 0 -1
vn 1 0 0
vn -1 0 0
vn 0 -1 0
vn 0 1 0

# texcoords
vt 0.814453 0.5
vt 0.845703 0.5

# verts
v 3.2 3.3 1.5
v 3.1 3.3 1.5
v 3 3.3 1.5
v 2.7 3.3 1.5
v 3.3 3.4 1.5
v 3.2 3.4 1.5
v 3.1 3.4 1.5
v 3 3.4 1.5
v 2.9 3.5 1.5
v 2.7 3.5 1.5
v 2.6 3.6 1.5
v 2.4 3.6 1.5
v 2.9 3.7 1.5
v 2.6 3.7 1.5
v 3.1 3.8 1.5
v 3 3.8 1.5
v 3.1 3.9 1.5
v 3 3.9 1.5
v 2.9 3.9 1.5
v 3.3 4 1.5
v 3.2 4 1.5
v 3 4 1.5
v 2.9 4 1.5
v 2.5 4 1.5
v 2.4 4 1.5
v 3.2 4.1 1.5
v 2.5 4.1 1.5
v 3.3 3.3 1.4
v 3.2 3.3 1.4
v 3.3 3.4 1.4
v 3.2 3.4 1.4
v 3.3 4 1.4
v 3.2 4 1.4
v 2.5 4 1.4
v 2.4 4 1.4
v 3.3 4.1 1.4
v 3.2 4.1 1.4
v 2.5 4.1 1.4
v 2.4 4.1 1.4
v 3 2.6 1.3
v 2.7 2.6 1.3
v 3.2 2.7 1.3
v 3 2.7 1.3
v 2.8 2.9 1.3
v 2.7 2.9 1.3
v 3.2 3.1 1.3
v 3.1 3.1 1.3
v 2.9 3.1 1.3
v 2.8 3.1 1.3
v 3.1 3.2 1.3
v 2.9 3.2 1.3
v 2.8 3.2 1.3
v 2.9 2.4 1.2
v 2.5 2.4 1.2
v 2.4 2.4 1.2
v 2.9 2.5 1.2
v 2.8 2.5 1.2
v 2.5 2.5 1.2
v 2.4 2.5 1.2
v 2.9 2.6 1.2
v 2.8 2.6 1.2
v 2.7 2.6 1.2
v 2.7 2.7 1.2
v 2.4 2.7 1.2
v 3.2 3.1 1.2
v 3.1 3.1 1.2
v 3.2 3.2 1.2
v 3.1 3.2 1.2
v 2.9 3.2 1.2
v 2.8 3.2 1.2
v 3.1 3.3 1.2
v 2.8 3.3 1.2
v 2.4 2.4 1.1
v 1.9 2.4 1.1
v 2.4 2.5 1.1
v 2.5 2.7 1.1
v 2.4 2.7 1.1
v 2.5 2.8 1.1
v 1.9 2.8 1.1
v 2.5 3.6 1.1
v 2.4 3.6 1.1
v 3.3 4 1.1
v 3.2 4 1.1
v 2.5 4 1.1
v 3.3 4.1 1.1
v 3.2 4.1 1.1
v 2.4 4.1 1.1
v 2.9 3.4 0.9
v 2.8 3.4 0.9
v 2.7 3.4 0.9
v 2.9 3.5 0.9
v 2.7 3.5 0.9
v 2.5 3.6 0.8
v 2.4 3.6 0.8
v 2.5 3.9 0.8
v 2.4 3.9 0.8
v 2.9 3.4 1.3
v 2.7 3.4 1.3
v 2.9 3.5 1.3
v 2.7 3.5 1.3
v 2.5 3.6 1.2
v 2.4 3.6 1.2
v 3.3 4 1.2
v 2.5 4 1.2
v 3.3 4.1 1.2
v 2.4 4.1 1.2
v 3 2.6 1
v 2.9 2.6 1
v 3 2.7 1
v 2.9 2.7 1
v 2.8 2.7 1
v 2.7 2.7 1
v 2.8 2.9 1
v 2.7 2.9 1
v 3.2 3.1 1
v 3.1 3.1 1
v 3.2 3.2 1
v 3.1 3.2 1
v 2.8 3.2 1
v 3.1 3.3 1
v 2.8 3.3 1
v 2.9 2.4 0.9
v 2.7 2.4 0.9
v 2.5 2.4 0.9
v 2.9 2.5 0.9
v 2.7 2.5 0.9
v 3.2 2.7 0.9
v 3.1 2.7 0.9
v 2.9 2.7 0.9
v 2.8 2.7 0.9
v 2.5 2.7 0.9
v 3.2 2.8 0.9
v 3.1 2.8 0.9
v 3 2.9 0.9
v 2.9 2.9 0.9
v 3 3 0.9
v 2.9 3 0.9
v 3.2 3.1 0.9
v 3.1 3.1 0.9
v 3.1 3.2 0.9
v 2.8 3.2 0.9
v 2.5 3.6 0.9
v 2.4 3.6 0.9
v 2.5 3.9 0.9
v 2.4 3.9 0.9
v 2.5 2.4 0.8
v 1.9 2.4 0.8
v 2.5 2.7 0.8
v 2.4 2.7 0.8
v 2.5 2.8 0.8
v 2.4 2.8 0.8
v 1.9 2.8 0.8
v 3.3 3.3 0.8
v 3.2 3.3 0.8
v 3.3 3.4 0.8
v 3.2 3.4 0.8
v 3.3 3.9 0.8
v 2.4 3.9 0.8
v 3.2 4 0.8
v 3.1 4 0.8
v 3.3 4.1 0.8
v 3.2 4.1 0.8
v 3.1 4.1 0.8
v 2.4 4.1 0.8
v 3.2 3.3 0.7
v 3.1 3.3 0.7
v 3.3 3.4 0.7
v 3.2 3.4 0.7
v 3.1 3.4 0.7
v 3.3 3.5 0.7
v 3.2 3.5 0.7
v 3.3 3.8 0.7
v 3.2 3.8 0.7
v 3.3 3.9 0.7
v 3.2 3.9 0.7
v 3.1 3.3 0.6
v 2.7 3.3 0.6
v 3.2 3.4 0.6
v 3.1 3.4 0.6
v 3.3 3.5 0.6
v 3.2 3.5 0.6
v 3.1 3.5 0.6
v 3 3.5 0.6
v 2.9 3.5 0.6
v 2.7 3.5 0.6
v 2.6 3.6 0.6
v 2.4 3.6 0.6
v 3.1 3.7 0.6
v 3 3.7 0.6
v 2.9 3.7 0.6
v 2.6 3.7 0.6
v 3.3 3.8 0.6
v 3.2 3.8 0.6
v 2.5 3.8 0.6
v 2.4 3.8 0.6
v 3.2 3.9 0.6
v 2.5 3.9 0.6
v 2.4 3.9 0.6
v 3.3 3.4 1.5
v 3.3 4 1.5
v 3.3 3.3 1.4
v 3.3 3.4 1.4
v 3.3 4 1.4
v 3.3 4.1 1.4
v 3.3 3.4 1.3
v 3.3 3.6 1.3
v 3.3 4 1.2
v 3.3 4.1 1.2
v 3.3 3.4 1.1
v 3.3 3.6 1.1
v 3.3 4 1.1
v 3.3 4.1 1.1
v 3.3 4 1
v 3.3 4.1 1
v 3.3 3.7 0.9
v 3.3 3.8 0.9
v 3.3 3.3 0.8
v 3.3 3.4 0.8
v 3.3 3.5 0.8
v 3.3 3.7 0.8
v 3.3 3.8 0.8
v 3.3 3.9 0.8
v 3.3 4.1 0.8
v 3.3 3.4 0.7
v 3.3 3.5 0.7
v 3.3 3.8 0.7
v 3.3 3.9 0.7
v 3.3 3.5 0.6
v 3.3 3.8 0.6
v 3.2 3.3 1.5
v 3.2 3.4 1.5
v 3.2 4 1.5
v 3.2 4.1 1.5
v 3.2 3.3 1.4
v 3.2 3.4 1.4
v 3.2 4 1.4
v 3.2 4.1 1.4
v 3.2 2.7 1.3
v 3.2 3.1 1.3
v 3.2 3.1 1.2
v 3.2 3.2 1.2
v 3.2 2.8 1.1
v 3.2 2.9 1.1
v 3.2 2.7 1
v 3.2 2.8 1
v 3.2 2.9 1
v 3.2 3.1 1
v 3.2 3.2 1
v 3.2 2.7 0.9
v 3.2 2.8 0.9
v 3.2 3.1 0.9
v 3.2 3.3 0.8
v 3.2 3.4 0.8
v 3.2 3.3 0.7
v 3.2 3.4 0.7
v 3.2 3.5 0.7
v 3.2 3.8 0.7
v 3.2 3.9 0.7
v 3.2 3.4 0.6
v 3.2 3.5 0.6
v 3.2 3.8 0.6
v 3.2 3.9 0.6
v 3.1 3.1 1.3
v 3.1 3.2 1.3
v 3.1 3.1 1.2
v 3.1 3.2 1.2
v 3.1 3.3 1.2
v 3.1 3.1 1
v 3.1 3.2 1
v 3.1 3.3 1
v 3.1 3.1 0.9
v 3.1 3.2 0.9
v 3.1 3.3 0.7
v 3.1 3.4 0.7
v 3.1 3.3 0.6
v 3.1 3.4 0.6
v 3 2.6 1.3
v 3 2.7 1.3
v 3 2.6 1
v 3 2.7 1
v 2.9 2.4 1.2
v 2.9 2.5 1.2
v 2.9 2.6 1.2
v 2.9 2.5 1.1
v 2.9 2.6 1.1
v 2.9 2.4 1
v 2.9 2.5 1
v 2.9 2.6 1
v 2.9 2.7 1
v 2.9 2.4 0.9
v 2.9 2.5 0.9
v 2.9 2.7 0.9
v 2.6 3.6 1.5
v 2.6 3.7 1.5
v 2.6 3.6 0.6
v 2.6 3.7 0.6
v 2.5 2.7 1.1
v 2.5 2.8 1.1
v 2.5 2.4 0.9
v 2.5 2.7 0.9
v 2.5 2.8 0.9
v 2.5 2.4 0.8
v 2.5 2.7 0.8
v 2.5 2.8 0.8
v 2.9 3.5 1.5
v 2.9 3.7 1.5
v 2.9 3.4 1.3
v 2.9 3.5 1.3
v 2.9 3.4 1
v 2.9 3.4 0.9
v 2.9 3.5 0.9
v 2.9 3.5 0.6
v 2.9 3.7 0.6
v 2.8 2.9 1.3
v 2.8 3.1 1.3
v 2.8 3.2 1.3
v 2.8 3.1 1.2
v 2.8 3.2 1.2
v 2.8 3.3 1.2
v 2.8 2.7 1
v 2.8 2.9 1
v 2.8 3.2 1
v 2.8 3.3 1
v 2.8 2.7 0.9
v 2.8 3.2 0.9
v 2.7 3.3 1.5
v 2.7 3.5 1.5
v 2.7 2.6 1.3
v 2.7 2.9 1.3
v 2.7 3.4 1.3
v 2.7 3.5 1.3
v 2.7 2.6 1.2
v 2.7 2.7 1.2
v 2.7 2.7 1
v 2.7 2.9 1
v 2.7 3.4 0.9
v 2.7 3.5 0.9
v 2.7 3.3 0.6
v 2.7 3.5 0.6
v 2.5 4 1.5
v 2.5 4.1 1.5
v 2.5 4 1.4
v 2.5 4.1 1.4
v 2.5 3.6 1.2
v 2.5 4 1.2
v 2.5 3.6 1.1
v 2.5 4 1.1
v 2.5 3.6 0.9
v 2.5 3.9 0.9
v 2.5 3.6 0.8
v 2.5 3.9 0.8
v 2.4 3.6 1.5
v 2.4 4 1.5
v 2.4 4 1.4
v 2.4 4.1 1.4
v 2.4 4 1.3
v 2.4 4.1 1.3
v 2.4 2.4 1.2
v 2.4 2.5 1.2
v 2.4 2.7 1.2
v 2.4 3.6 1.2
v 2.4 4.1 1.2
v 2.4 2.4 1.1
v 2.4 2.5 1.1
v 2.4 2.7 1.1
v 2.4 3.6 1.1
v 2.4 4.1 1.1
v 2.4 3.6 0.9
v 2.4 3.9 0.9
v 2.4 3.6 0.8
v 2.4 3.9 0.8
v 2.4 4.1 0.8
v 2.4 3.8 0.7
v 2.4 3.9 0.7
v 2.4 3.6 0.6
v 2.4 3.8 0.6
v 2.4 3.9 0.6
v 1.9 2.4 1.1
v 1.9 2.8 1.1
v 1.9 2.4 0.8
v 1.9 2.8 0.8
v 2.9 2.4 1.2
v 2.9 2.4 1
v 2.9 2.4 0.9
v 2.7 2.4 1
v 2.7 2.4 0.9
v 2.5 2.4 1.2
v 2.5 2.4 1.1
v 2.5 2.4 0.9
v 2.5 2.4 0.8
v 2.4 2.4 1.2
v 2.4 2.4 1.1
v 1.9 2.4 1.1
v 1.9 2.4 0.8
v 3 2.6 1.3
v 3 2.6 1
v 2.9 2.6 1.2
v 2.9 2.6 1.1
v 2.9 2.6 1
v 2.8 2.6 1.2
v 2.7 2.6 1.3
v 2.7 2.6 1.2
v 3.2 2.7 1.3
v 3.2 2.7 1
v 3.2 2.7 0.9
v 3.1 2.7 1
v 3.1 2.7 0.9
v 3 2.7 1.3
v 3 2.7 1
v 2.9 2.7 1
v 2.9 2.7 0.9
v 3.3 3.3 1.4
v 3.3 3.3 0.8
v 3.2 3.3 1.5
v 3.2 3.3 1.4
v 3.2 3.3 0.8
v 3.2 3.3 0.7
v 3.1 3.3 1.5
v 3.1 3.3 1.4
v 3.1 3.3 1.2
v 3.1 3.3 1
v 3.1 3.3 0.9
v 3.1 3.3 0.7
v 3.1 3.3 0.6
v 3 3.3 1.5
v 3 3.3 1.4
v 2.8 3.3 1.2
v 2.8 3.3 1
v 2.8 3.3 0.9
v 2.7 3.3 1.5
v 2.7 3.3 0.6
v 3.3 3.4 1.5
v 3.3 3.4 1.4
v 3.3 3.4 0.8
v 3.3 3.4 0.7
v 3.2 3.4 1.5
v 3.2 3.4 1.4
v 3.2 3.4 0.8
v 3.2 3.4 0.7
v 3.2 3.4 0.6
v 3.1 3.4 0.7
v 3.1 3.4 0.6
v 3.3 3.5 0.7
v 3.3 3.5 0.6
v 3.2 3.5 0.7
v 3.2 3.5 0.6
v 2.6 3.6 1.5
v 2.6 3.6 0.6
v 2.5 3.6 1.2
v 2.5 3.6 1.1
v 2.5 3.6 0.9
v 2.5 3.6 0.8
v 2.4 3.6 1.5
v 2.4 3.6 1.2
v 2.4 3.6 1.1
v 2.4 3.6 0.9
v 2.4 3.6 0.8
v 2.4 3.6 0.6
v 2.9 3.7 1.5
v 2.9 3.7 0.6
v 2.6 3.7 1.5
v 2.6 3.7 0.6
v 2.5 3.9 0.9
v 2.5 3.9 0.8
v 2.4 3.9 0.9
v 2.4 3.9 0.8
v 2.8 2.7 1
v 2.8 2.7 0.9
v 2.7 2.7 1.2
v 2.7 2.7 1
v 2.5 2.7 1.1
v 2.5 2.7 0.9
v 2.4 2.7 1.2
v 2.4 2.7 1.1
v 2.5 2.8 1.1
v 2.5 2.8 0.9
v 2.5 2.8 0.8
v 2.4 2.8 0.9
v 2.4 2.8 0.8
v 1.9 2.8 1.1
v 1.9 2.8 0.8
v 2.8 2.9 1.3
v 2.8 2.9 1
v 2.7 2.9 1.3
v 2.7 2.9 1
v 3.2 3.1 1.3
v 3.2 3.1 1.2
v 3.2 3.1 1
v 3.2 3.1 0.9
v 3.1 3.1 1.3
v 3.1 3.1 1.2
v 3.1 3.1 1
v 3.1 3.1 0.9
v 3.2 3.2 1.2
v 3.2 3.2 1
v 3.1 3.2 1.3
v 3.1 3.2 1.2
v 3.1 3.2 1
v 3.1 3.2 0.9
v 2.9 3.2 1.3
v 2.9 3.2 1.2
v 2.8 3.2 1.3
v 2.8 3.2 1.2
v 2.8 3.2 1
v 2.8 3.2 0.9
v 2.9 3.4 1.3
v 2.9 3.4 1
v 2.9 3.4 0.9
v 2.8 3.4 1
v 2.8 3.4 0.9
v 2.7 3.4 1.3
v 2.7 3.4 0.9
v 2.9 3.5 1.5
v 2.9 3.5 1.3
v 2.9 3.5 0.9
v 2.9 3.5 0.6
v 2.7 3.5 1.5
v 2.7 3.5 1.3
v 2.7 3.5 0.9
v 2.7 3.5 0.6
v 3.3 3.8 0.7
v 3.3 3.8 0.6
v 3.2 3.8 0.7
v 3.2 3.8 0.6
v 3.3 3.9 0.8
v 3.3 3.9 0.7
v 3.2 3.9 0.7
v 3.2 3.9 0.6
v 2.5 3.9 0.7
v 2.5 3.9 0.6
v 2.4 3.9 0.8
v 2.4 3.9 0.7
v 2.4 3.9 0.6
v 3.3 4 1.5
v 3.3 4 1.4
v 3.3 4 1.2
v 3.3 4 1.1
v 3.2 4 1.5
v 3.2 4 1.4
v 3.2 4 1.1
v 2.5 4 1.5
v 2.5 4 1.4
v 2.5 4 1.2
v 2.5 4 1.1
v 2.4 4 1.5
v 2.4 4 1.4
v 3.3 4.1 1.4
v 3.3 4.1 1.2
v 3.3 4.1 1.1
v 3.3 4.1 1
v 3.3 4.1 0.8
v 3.2 4.1 1.5
v 3.2 4.1 1.4
v 3.2 4.1 1.1
v 3.2 4.1 1
v 3.2 4.1 0.9
v 3.2 4.1 0.8
v 3.1 4.1 1.4
v 3.1 4.1 1.3
v 3.1 4.1 0.9
v 3.1 4.1 0.8
v 3 4.1 1.4
v 3 4.1 1.3
v 2.7 4.1 1
v 2.7 4.1 0.9
v 2.6 4.1 1
v 2.6 4.1 0.9
v 2.5 4.1 1.5
v 2.5 4.1 1.4
v 2.5 4.1 1.3
v 2.4 4.1 1.4
v 2.4 4.1 1.3
v 2.4 4.1 1.2
v 2.4 4.1 1.1
v 2.4 4.1 0.8

# faces
f 6/2/1 2/2/1 1/2/1
f 7/1/1 3/1/1 2/1/1
f 7/2/1 2/2/1 6/2/1
f 8/2/1 4/2/1 3/2/1
f 8/1/1 3/1/1 7/1/1
f 9/2/1 7/2/1 6/2/1
f 9/2/1 4/2/1 8/2/1
f 9/2/1 8/2/1 7/2/1
f 9/2/1 6/2/1 5/2/1
f 10/2/1 4/2/1 9/2/1
f 13/2/1 9/2/1 5/2/1
f 14/2/1 12/2/1 11/2/1
f 15/2/1 13/2/1 5/2/1
f 15/2/1 14/2/1 13/2/1
f 16/2/1 14/2/1 15/2/1
f 17/2/1 15/2/1 5/2/1
f 17/1/1 16/1/1 15/1/1
f 18/2/1 14/2/1 16/2/1
f 18/1/1 16/1/1 17/1/1
f 19/2/1 14/2/1 18/2/1
f 20/2/1 17/2/1 5/2/1
f 20/2/1 18/2/1 17/2/1
f 21/2/1 18/2/1 20/2/1
f 22/1/1 19/1/1 18/1/1
f 22/2/1 18/2/1 21/2/1
f 23/2/1 14/2/1 19/2/1
f 23/1/1 19/1/1 22/1/1
f 24/2/1 12/2/1 14/2/1
f 24/2/1 14/2/1 23/2/1
f 25/2/1 12/2/1 24/2/1
f 26/2/1 23/2/1 22/2/1
f 26/2/1 22/2/1 21/2/1
f 26/2/1 24/2/1 23/2/1
f 27/2/1 24/2/1 26/2/1
f 30/2/1 29/2/1 28/2/1
f 31/2/1 29/2/1 30/2/1
f 36/2/1 33/2/1 32/2/1
f 37/2/1 33/2/1 36/2/1
f 38/1/1 35/1/1 34/1/1
f 39/1/1 35/1/1 38/1/1
f 43/2/1 41/2/1 40/2/1
f 44/2/1 41/2/1 43/2/1
f 44/2/1 43/2/1 42/2/1
f 45/2/1 41/2/1 44/2/1
f 46/2/1 44/2/1 42/2/1
f 47/2/1 44/2/1 46/2/1
f 48/2/1 44/2/1 47/2/1
f 49/2/1 44/2/1 48/2/1
f 50/2/1 48/2/1 47/2/1
f 51/1/1 49/1/1 48/1/1
f 51/2/1 48/2/1 50/2/1
f 52/1/1 49/1/1 51/1/1
f 56/2/1 54/2/1 53/2/1
f 57/2/1 54/2/1 56/2/1
f 58/1/1 55/1/1 54/1/1
f 58/2/1 54/2/1 57/2/1
f 59/1/1 55/1/1 58/1/1
f 60/1/1 57/1/1 56/1/1
f 61/2/1 58/2/1 57/2/1
f 61/1/1 57/1/1 60/1/1
f 61/2/1 59/2/1 58/2/1
f 62/2/1 59/2/1 61/2/1
f 63/2/1 59/2/1 62/2/1
f 64/2/1 59/2/1 63/2/1
f 67/2/1 66/2/1 65/2/1
f 68/2/1 66/2/1 67/2/1
f 71/2/1 70/2/1 69/2/1
f 71/2/1 69/2/1 68/2/1
f 72/2/1 70/2/1 71/2/1
f 75/2/1 74/2/1 73/2/1
f 77/2/1 74/2/1 75/2/1
f 78/2/1 77/2/1 76/2/1
f 79/2/1 74/2/1 77/2/1
f 79/2/1 77/2/1 78/2/1
f 84/2/1 81/2/1 80/2/1
f 85/1/1 83/1/1 82/1/1
f 86/2/1 84/2/1 83/2/1
f 86/1/1 83/1/1 85/1/1
f 87/2/1 81/2/1 84/2/1
f 87/2/1 84/2/1 86/2/1
f 91/2/1 89/2/1 88/2/1
f 91/2/1 90/2/1 89/2/1
f 92/2/1 90/2/1 91/2/1
f 95/2/1 94/2/1 93/2/1
f 96/2/1 94/2/1 95/2/1
f 97/2/2 98/2/2 99/2/2
f 99/2/2 98/2/2 100/2/2
f 101/2/2 102/2/2 104/2/2
f 103/2/2 104/2/2 105/2/2
f 104/2/2 102/2/2 106/2/2
f 105/2/2 104/2/2 106/2/2
f 107/2/2 108/2/2 109/2/2
f 109/2/2 108/2/2 110/2/2
f 111/2/2 112/2/2 113/2/2
f 113/2/2 112/2/2 114/2/2
f 115/2/2 116/2/2 117/2/2
f 117/2/2 116/2/2 118/2/2
f 118/2/2 119/2/2 120/2/2
f 120/2/2 119/2/2 121/2/2
f 122/1/2 123/1/2 125/1/2
f 123/2/2 124/2/2 126/2/2
f 125/1/2 123/1/2 126/1/2
f 125/2/2 126/2/2 129/2/2
f 129/2/2 126/2/2 130/2/2
f 126/2/2 124/2/2 131/2/2
f 130/2/2 126/2/2 131/2/2
f 127/1/2 128/1/2 132/1/2
f 129/2/2 130/2/2 133/2/2
f 132/1/2 128/1/2 133/1/2
f 128/2/2 129/2/2 133/2/2
f 132/2/2 133/2/2 134/2/2
f 133/2/2 130/2/2 134/2/2
f 134/2/2 130/2/2 135/2/2
f 132/2/2 134/2/2 136/2/2
f 134/1/2 135/1/2 136/1/2
f 135/2/2 130/2/2 137/2/2
f 136/1/2 135/1/2 137/1/2
f 132/2/2 136/2/2 138/2/2
f 136/2/2 137/2/2 138/2/2
f 138/2/2 137/2/2 139/2/2
f 139/2/2 137/2/2 140/2/2
f 137/2/2 130/2/2 141/2/2
f 140/2/2 137/2/2 141/2/2
f 142/2/2 143/2/2 144/2/2
f 144/2/2 143/2/2 145/2/2
f 146/2/2 147/2/2 148/2/2
f 148/2/2 147/2/2 149/2/2
f 148/1/2 149/1/2 150/1/2
f 149/2/2 147/2/2 151/2/2
f 150/1/2 149/1/2 151/1/2
f 151/2/2 147/2/2 152/2/2
f 153/2/2 154/2/2 155/2/2
f 155/2/2 154/2/2 156/2/2
f 157/2/2 158/2/2 159/2/2
f 159/2/2 158/2/2 160/2/2
f 157/2/2 159/2/2 161/2/2
f 159/1/2 160/1/2 162/1/2
f 161/2/2 159/2/2 162/2/2
f 160/2/2 158/2/2 163/2/2
f 162/1/2 160/1/2 163/1/2
f 163/2/2 158/2/2 164/2/2
f 165/2/2 166/2/2 168/2/2
f 168/2/2 166/2/2 169/2/2
f 167/1/2 168/1/2 170/1/2
f 170/1/2 168/1/2 171/1/2
f 172/2/2 173/2/2 174/2/2
f 174/2/2 173/2/2 175/2/2
f 176/2/2 177/2/2 179/2/2
f 178/2/2 179/2/2 181/2/2
f 179/2/2 177/2/2 182/2/2
f 181/2/2 179/2/2 182/2/2
f 182/2/2 177/2/2 183/2/2
f 183/2/2 177/2/2 184/2/2
f 184/2/2 177/2/2 185/2/2
f 180/2/2 181/2/2 188/2/2
f 181/2/2 182/2/2 188/2/2
f 182/1/2 183/1/2 188/1/2
f 183/2/2 184/2/2 189/2/2
f 188/1/2 183/1/2 189/1/2
f 189/2/2 184/2/2 190/2/2
f 186/2/2 187/2/2 191/2/2
f 189/2/2 190/2/2 192/2/2
f 190/2/2 191/2/2 192/2/2
f 180/2/2 188/2/2 192/2/2
f 188/2/2 189/2/2 192/2/2
f 192/2/2 191/2/2 193/2/2
f 191/2/2 187/2/2 194/2/2
f 193/2/2 191/2/2 194/2/2
f 194/2/2 187/2/2 195/2/2
f 193/2/2 194/2/2 196/2/2
f 194/1/2 195/1/2 197/1/2
f 196/2/2 194/2/2 197/2/2
f 197/1/2 195/1/2 198/1/2
f 202/2/3 200/2/3 199/2/3
f 203/2/3 200/2/3 202/2/3
f 205/2/3 202/2/3 201/2/3
f 205/2/3 204/2/3 203/2/3
f 205/2/3 203/2/3 202/2/3
f 206/2/3 204/2/3 205/2/3
f 207/2/3 204/2/3 206/2/3
f 208/2/3 204/2/3 207/2/3
f 209/2/3 205/2/3 201/2/3
f 209/1/3 206/1/3 205/1/3
f 210/2/3 207/2/3 206/2/3
f 210/1/3 206/1/3 209/1/3
f 211/2/3 207/2/3 210/2/3
f 213/2/3 210/2/3 209/2/3
f 213/1/3 212/1/3 211/1/3
f 213/2/3 211/2/3 210/2/3
f 214/1/3 212/1/3 213/1/3
f 215/2/3 213/2/3 209/2/3
f 215/2/3 214/2/3 213/2/3
f 216/2/3 214/2/3 215/2/3
f 217/2/3 209/2/3 201/2/3
f 217/2/3 215/2/3 209/2/3
f 218/2/3 215/2/3 217/2/3
f 219/2/3 215/2/3 218/2/3
f 220/1/3 216/1/3 215/1/3
f 220/2/3 215/2/3 219/2/3
f 221/2/3 214/2/3 216/2/3
f 221/1/3 216/1/3 220/1/3
f 222/2/3 214/2/3 221/2/3
f 223/2/3 214/2/3 222/2/3
f 224/1/3 219/1/3 218/1/3
f 225/2/3 220/2/3 219/2/3
f 225/1/3 219/1/3 224/1/3
f 225/2/3 222/2/3 221/2/3
f 225/2/3 221/2/3 220/2/3
f 226/2/3 222/2/3 225/2/3
f 227/2/3 222/2/3 226/2/3
f 228/2/3 226/2/3 225/2/3
f 229/2/3 226/2/3 228/2/3
f 234/2/3 231/2/3 230/2/3
f 235/2/3 231/2/3 234/2/3
f 236/2/3 233/2/3 232/2/3
f 237/2/3 233/2/3 236/2/3
f 240/2/3 239/2/3 238/2/3
f 242/2/3 240/2/3 238/2/3
f 242/2/3 241/2/3 240/2/3
f 243/2/3 241/2/3 242/2/3
f 244/2/3 242/2/3 238/2/3
f 245/1/3 243/1/3 242/1/3
f 245/2/3 242/2/3 244/2/3
f 246/2/3 241/2/3 243/2/3
f 246/1/3 243/1/3 245/1/3
f 247/2/3 241/2/3 246/2/3
f 248/2/3 241/2/3 247/2/3
f 249/1/3 245/1/3 244/1/3
f 250/2/3 246/2/3 245/2/3
f 250/1/3 245/1/3 249/1/3
f 250/2/3 247/2/3 246/2/3
f 251/2/3 247/2/3 250/2/3
f 254/2/3 253/2/3 252/2/3
f 255/2/3 253/2/3 254/2/3
f 259/2/3 256/2/3 255/2/3
f 260/2/3 256/2/3 259/2/3
f 261/2/3 258/2/3 257/2/3
f 262/2/3 258/2/3 261/2/3
f 265/2/3 264/2/3 263/2/3
f 266/2/3 264/2/3 265/2/3
f 269/2/3 267/2/3 266/2/3
f 270/2/3 267/2/3 269/2/3
f 271/2/3 269/2/3 268/2/3
f 272/2/3 269/2/3 271/2/3
f 275/2/3 274/2/3 273/2/3
f 276/2/3 274/2/3 275/2/3
f 279/2/3 278/2/3 277/2/3
f 280/2/3 278/2/3 279/2/3
f 284/2/3 282/2/3 281/2/3
f 284/1/3 283/1/3 282/1/3
f 285/1/3 283/1/3 284/1/3
f 286/2/3 284/2/3 281/2/3
f 286/2/3 285/2/3 284/2/3
f 287/2/3 285/2/3 286/2/3
f 288/2/3 285/2/3 287/2/3
f 290/1/3 287/1/3 286/1/3
f 291/2/3 288/2/3 287/2/3
f 291/1/3 287/1/3 290/1/3
f 291/2/3 289/2/3 288/2/3
f 292/2/3 289/2/3 291/2/3
f 295/2/3 294/2/3 293/2/3
f 296/2/3 294/2/3 295/2/3
f 300/2/3 298/2/3 297/2/3
f 301/2/3 298/2/3 300/2/3
f 302/2/3 300/2/3 299/2/3
f 303/1/3 301/1/3 300/1/3
f 303/2/3 300/2/3 302/2/3
f 304/1/3 301/1/3 303/1/3
f 305/2/4 306/2/4 308/2/4
f 307/2/4 308/2/4 309/2/4
f 309/2/4 308/2/4 310/2/4
f 308/2/4 306/2/4 311/2/4
f 310/2/4 308/2/4 311/2/4
f 311/2/4 306/2/4 312/2/4
f 312/2/4 306/2/4 313/2/4
f 314/2/4 315/2/4 317/2/4
f 315/1/4 316/1/4 317/1/4
f 317/1/4 316/1/4 318/1/4
f 314/2/4 317/2/4 321/2/4
f 318/2/4 319/2/4 321/2/4
f 317/2/4 318/2/4 321/2/4
f 321/2/4 319/2/4 322/2/4
f 322/2/4 319/2/4 323/2/4
f 320/2/4 321/2/4 324/2/4
f 321/2/4 322/2/4 324/2/4
f 324/2/4 322/2/4 325/2/4
f 326/2/4 327/2/4 330/2/4
f 330/2/4 327/2/4 331/2/4
f 328/2/4 329/2/4 332/2/4
f 332/2/4 329/2/4 333/2/4
f 333/2/4 329/2/4 334/2/4
f 334/2/4 329/2/4 335/2/4
f 326/2/4 330/2/4 336/2/4
f 326/2/4 336/2/4 338/2/4
f 336/2/4 337/2/4 338/2/4
f 338/2/4 337/2/4 339/2/4
f 340/2/4 341/2/4 342/2/4
f 342/2/4 341/2/4 343/2/4
f 344/2/4 345/2/4 346/2/4
f 346/2/4 345/2/4 347/2/4
f 348/2/4 349/2/4 350/2/4
f 350/2/4 349/2/4 351/2/4
f 352/2/4 353/2/4 354/2/4
f 352/2/4 354/2/4 356/2/4
f 354/1/4 355/1/4 356/1/4
f 356/1/4 355/1/4 357/1/4
f 352/2/4 356/2/4 361/2/4
f 356/2/4 357/2/4 361/2/4
f 361/2/4 357/2/4 362/2/4
f 358/1/4 359/1/4 363/1/4
f 359/2/4 360/2/4 364/2/4
f 363/1/4 359/1/4 364/1/4
f 364/2/4 360/2/4 365/2/4
f 366/2/4 367/2/4 368/2/4
f 368/2/4 367/2/4 369/2/4
f 369/2/4 367/2/4 371/2/4
f 371/2/4 367/2/4 372/2/4
f 370/2/4 371/2/4 373/2/4
f 373/2/4 371/2/4 374/2/4
f 370/2/4 373/2/4 375/2/4
f 373/1/4 374/1/4 376/1/4
f 375/2/4 373/2/4 376/2/4
f 376/1/4 374/1/4 377/1/4
f 378/2/4 379/2/4 380/2/4
f 380/2/4 379/2/4 381/2/4
f 385/2/5 383/2/5 382/2/5
f 385/1/5 384/1/5 383/1/5
f 386/1/5 384/1/5 385/1/5
f 387/2/5 385/2/5 382/2/5
f 387/2/5 386/2/5 385/2/5
f 388/2/5 386/2/5 387/2/5
f 389/2/5 386/2/5 388/2/5
f 391/1/5 388/1/5 387/1/5
f 392/2/5 389/2/5 388/2/5
f 392/1/5 388/1/5 391/1/5
f 392/2/5 390/2/5 389/2/5
f 393/2/5 390/2/5 392/2/5
f 394/2/5 390/2/5 393/2/5
f 397/2/5 396/2/5 395/2/5
f 398/2/5 396/2/5 397/2/5
f 399/2/5 396/2/5 398/2/5
f 400/2/5 397/2/5 395/2/5
f 401/2/5 400/2/5 395/2/5
f 402/2/5 400/2/5 401/2/5
f 406/2/5 404/2/5 403/2/5
f 406/1/5 405/1/5 404/1/5
f 407/1/5 405/1/5 406/1/5
f 408/2/5 406/2/5 403/2/5
f 408/2/5 407/2/5 406/2/5
f 409/2/5 407/2/5 408/2/5
f 410/2/5 407/2/5 409/2/5
f 411/2/5 407/2/5 410/2/5
f 415/2/5 413/2/5 412/2/5
f 416/2/5 413/2/5 415/2/5
f 418/2/5 415/2/5 414/2/5
f 418/2/5 417/2/5 416/2/5
f 418/2/5 416/2/5 415/2/5
f 419/2/5 417/2/5 418/2/5
f 420/2/5 417/2/5 419/2/5
f 421/2/5 417/2/5 420/2/5
f 422/2/5 417/2/5 421/2/5
f 423/2/5 417/2/5 422/2/5
f 425/1/5 419/1/5 418/1/5
f 426/2/5 420/2/5 419/2/5
f 426/1/5 419/1/5 425/1/5
f 427/2/5 426/2/5 425/2/5
f 427/2/5 420/2/5 426/2/5
f 428/1/5 422/1/5 421/1/5
f 429/2/5 424/2/5 423/2/5
f 429/2/5 423/2/5 422/2/5
f 429/1/5 422/1/5 428/1/5
f 430/2/5 428/2/5 427/2/5
f 430/2/5 427/2/5 425/2/5
f 430/2/5 429/2/5 428/2/5
f 431/2/5 424/2/5 429/2/5
f 431/2/5 429/2/5 430/2/5
f 436/2/5 433/2/5 432/2/5
f 437/2/5 433/2/5 436/2/5
f 438/1/5 435/1/5 434/1/5
f 439/1/5 435/1/5 438/1/5
f 441/2/5 440/2/5 439/2/5
f 442/2/5 440/2/5 441/2/5
f 445/2/5 444/2/5 443/2/5
f 446/2/5 444/2/5 445/2/5
f 449/2/5 448/2/5 447/2/5
f 450/2/5 448/2/5 449/2/5
f 451/2/5 448/2/5 450/2/5
f 452/2/5 448/2/5 451/2/5
f 453/2/5 449/2/5 447/2/5
f 454/2/5 449/2/5 453/2/5
f 455/2/5 451/2/5 450/2/5
f 456/2/5 451/2/5 455/2/5
f 457/2/5 448/2/5 452/2/5
f 458/2/5 448/2/5 457/2/5
f 461/2/5 460/2/5 459/2/5
f 462/2/5 460/2/5 461/2/5
f 465/2/5 464/2/5 463/2/5
f 466/2/5 464/2/5 465/2/5
f 467/2/6 468/2/6 470/2/6
f 469/2/6 470/2/6 471/2/6
f 470/2/6 468/2/6 472/2/6
f 471/2/6 470/2/6 472/2/6
f 469/2/6 471/2/6 473/2/6
f 473/2/6 471/2/6 474/2/6
f 475/2/6 476/2/6 478/2/6
f 476/1/6 477/1/6 478/1/6
f 478/1/6 477/1/6 479/1/6
f 475/2/6 478/2/6 480/2/6
f 478/2/6 479/2/6 480/2/6
f 480/2/6 479/2/6 481/2/6
f 482/2/6 483/2/6 484/2/6
f 484/2/6 483/2/6 485/2/6
f 486/2/6 487/2/6 490/2/6
f 490/2/6 487/2/6 491/2/6
f 488/2/6 489/2/6 492/2/6
f 492/2/6 489/2/6 493/2/6
f 494/2/6 495/2/6 497/2/6
f 497/2/6 495/2/6 498/2/6
f 496/2/6 497/2/6 500/2/6
f 500/2/6 497/2/6 501/2/6
f 500/1/6 501/1/6 502/1/6
f 502/1/6 501/1/6 503/1/6
f 498/2/6 499/2/6 504/2/6
f 504/2/6 499/2/6 505/2/6
f 506/2/6 507/2/6 509/2/6
f 507/1/6 508/1/6 509/1/6
f 509/1/6 508/1/6 510/1/6
f 506/2/6 509/2/6 511/2/6
f 509/2/6 510/2/6 511/2/6
f 511/2/6 510/2/6 512/2/6
f 513/2/6 514/2/6 517/2/6
f 517/2/6 514/2/6 518/2/6
f 515/2/6 516/2/6 519/2/6
f 519/2/6 516/2/6 520/2/6
f 521/2/6 522/2/6 523/2/6
f 523/2/6 522/2/6 524/2/6
f 525/2/6 526/2/6 527/2/6
f 525/2/6 527/2/6 529/2/6
f 527/2/6 528/2/6 529/2/6
f 529/2/6 528/2/6 530/2/6
f 525/2/6 529/2/6 531/2/6
f 529/1/6 530/1/6 532/1/6
f 531/2/6 529/2/6 532/2/6
f 532/1/6 530/1/6 533/1/6
f 534/2/6 535/2/6 538/2/6
f 538/2/6 535/2/6 539/2/6
f 536/2/6 537/2/6 540/2/6
f 536/2/6 540/2/6 543/2/6
f 543/2/6 540/2/6 544/2/6
f 541/2/6 542/2/6 545/2/6
f 545/2/6 542/2/6 546/2/6
f 547/2/6 548/2/6 553/2/6
f 549/1/6 550/1/6 554/1/6
f 550/2/6 551/2/6 555/2/6
f 554/1/6 550/1/6 555/1/6
f 555/2/6 551/2/6 556/2/6
f 556/2/6 551/2/6 557/2/6
f 552/2/6 553/2/6 558/2/6
f 553/2/6 548/2/6 558/2/6
f 558/2/6 548/2/6 559/2/6
f 556/1/6 557/1/6 560/1/6
f 554/2/6 555/2/6 560/2/6
f 555/2/6 556/2/6 560/2/6
f 560/1/6 557/1/6 561/1/6
f 558/1/6 559/1/6 562/1/6
f 552/2/6 558/2/6 562/2/6
f 559/2/6 548/2/6 563/2/6
f 562/1/6 559/1/6 563/1/6
f 560/2/6 561/2/6 564/2/6
f 554/2/6 560/2/6 564/2/6
f 564/2/6 561/2/6 565/2/6
f 554/2/6 564/2/6 566/2/6
f 564/1/6 565/1/6 566/1/6
f 565/2/6 561/2/6 567/2/6
f 566/1/6 565/1/6 567/1/6
f 552/2/6 562/2/6 568/2/6
f 562/2/6 563/2/6 568/2/6
f 568/2/6 563/2/6 569/2/6
f 563/2/6 548/2/6 570/2/6
f 569/2/6 563/2/6 570/2/6
f 569/1/6 570/1/6 571/1/6
f 570/2/6 548/2/6 572/2/6
f 571/1/6 570/1/6 572/1/6
f 572/2/6 548/2/6 573/2/6
f 566/2/6 567/2/6 574/2/6
f 554/2/6 566/2/6 574/2/6
f 567/2/6 561/2/6 575/2/6
f 574/2/6 567/2/6 575/2/6
