# MagicaVoxel @ Ephtracy

# group
o 

# material
mtllib energy-placeholder-selected.mtl
usemtl palette

# normals
vn -1 0 0
vn 1 0 0
vn 0 0 1
vn 0 0 -1
vn 0 -1 0
vn 0 1 0

# texcoords
vt 0.958984 0.5
vt 0.982422 0.5

# verts
v -0.8 1.8 -2.3
v -0.8 1.8 -2.4
v -0.8 2.5 -2.3
v -0.8 2.5 -2.4
v -0.7 1.6 -2.3
v -0.7 1.6 -2.4
v -0.7 1.8 -2.3
v -0.7 1.8 -2.4
v -0.7 2.5 -2.3
v -0.7 2.5 -2.4
v -0.7 2.7 -2.3
v -0.7 2.7 -2.4
v -0.6 1.5 -2.3
v -0.6 1.5 -2.4
v -0.6 1.6 -2.3
v -0.6 1.6 -2.4
v -0.6 2.7 -2.3
v -0.6 2.7 -2.4
v -0.6 2.8 -2.3
v -0.6 2.8 -2.4
v -0.5 1.4 -2.3
v -0.5 1.4 -2.4
v -0.5 1.5 -2.3
v -0.5 1.5 -2.4
v -0.5 2.8 -2.3
v -0.5 2.8 -2.4
v -0.5 2.9 -2.3
v -0.5 2.9 -2.4
v -0.5 3.7 -2.3
v -0.5 3.7 -2.4
v -0.5 3.9 -2.3
v -0.5 3.9 -2.4
v -0.4 3.6 -2.3
v -0.4 3.6 -2.4
v -0.4 3.7 -2.3
v -0.4 3.7 -2.4
v -0.3 1.3 -2.3
v -0.3 1.3 -2.4
v -0.3 1.4 -2.3
v -0.3 1.4 -2.4
v -0.3 2.9 -2.3
v -0.3 2.9 -2.4
v -0.3 3 -2.3
v -0.3 3 -2.4
v -0.3 3.5 -2.3
v -0.3 3.5 -2.4
v -0.3 3.6 -2.3
v -0.3 3.6 -2.4
v -0.2 2.1 -2.2
v -0.2 2.1 -2.3
v -0.2 2.2 -2.2
v -0.2 2.2 -2.3
v -0.2 3.4 -2.3
v -0.2 3.4 -2.4
v -0.2 3.5 -2.3
v -0.2 3.5 -2.4
v -0.1 3.3 -2.3
v -0.1 3.3 -2.4
v -0.1 3.4 -2.3
v -0.1 3.4 -2.4
v -5.96046e-008 1.9 -2.2
v -5.96046e-008 1.9 -2.3
v -5.96046e-008 2.1 -2.2
v -5.96046e-008 2.1 -2.3
v -5.96046e-008 2.2 -2.2
v -5.96046e-008 2.2 -2.3
v -5.96046e-008 2.4 -2.2
v -5.96046e-008 2.4 -2.3
v -5.96046e-008 3.2 -2.3
v -5.96046e-008 3.2 -2.4
v -5.96046e-008 3.3 -2.3
v -5.96046e-008 3.3 -2.4
v 0.0999999 3.4 -2.3
v 0.0999999 3.4 -2.4
v 0.0999999 3.5 -2.3
v 0.0999999 3.5 -2.4
v 0.2 3.5 -2.3
v 0.2 3.5 -2.4
v 0.2 3.6 -2.3
v 0.2 3.6 -2.4
v 0.3 3.6 -2.3
v 0.3 3.6 -2.4
v 0.3 3.7 -2.3
v 0.3 3.7 -2.4
v 0.4 3.7 -2.3
v 0.4 3.7 -2.4
v 0.4 3.8 -2.3
v 0.4 3.8 -2.4
v 0.5 3.8 -2.3
v 0.5 3.8 -2.4
v 0.5 3.9 -2.3
v 0.5 3.9 -2.4
v -0.4 3.8 -2.3
v -0.4 3.8 -2.4
v -0.4 3.9 -2.3
v -0.4 3.9 -2.4
v -0.3 3.7 -2.3
v -0.3 3.7 -2.4
v -0.3 3.8 -2.3
v -0.3 3.8 -2.4
v -0.2 3.6 -2.3
v -0.2 3.6 -2.4
v -0.2 3.7 -2.3
v -0.2 3.7 -2.4
v -0.1 3.5 -2.3
v -0.1 3.5 -2.4
v -0.1 3.6 -2.3
v -0.1 3.6 -2.4
v -5.96046e-008 3.4 -2.3
v -5.96046e-008 3.4 -2.4
v -5.96046e-008 3.5 -2.3
v -5.96046e-008 3.5 -2.4
v 0.0999999 1.9 -2.2
v 0.0999999 1.9 -2.3
v 0.0999999 2.1 -2.2
v 0.0999999 2.1 -2.3
v 0.0999999 2.2 -2.2
v 0.0999999 2.2 -2.3
v 0.0999999 2.4 -2.2
v 0.0999999 2.4 -2.3
v 0.0999999 3.2 -2.3
v 0.0999999 3.2 -2.4
v 0.0999999 3.3 -2.3
v 0.0999999 3.3 -2.4
v 0.2 3.3 -2.3
v 0.2 3.3 -2.4
v 0.2 3.4 -2.3
v 0.2 3.4 -2.4
v 0.3 2.1 -2.2
v 0.3 2.1 -2.3
v 0.3 2.2 -2.2
v 0.3 2.2 -2.3
v 0.3 3.4 -2.3
v 0.3 3.4 -2.4
v 0.3 3.5 -2.3
v 0.3 3.5 -2.4
v 0.4 1.3 -2.3
v 0.4 1.3 -2.4
v 0.4 1.4 -2.3
v 0.4 1.4 -2.4
v 0.4 2.9 -2.3
v 0.4 2.9 -2.4
v 0.4 3 -2.3
v 0.4 3 -2.4
v 0.4 3.5 -2.3
v 0.4 3.5 -2.4
v 0.4 3.6 -2.3
v 0.4 3.6 -2.4
v 0.5 2.8 -2.3
v 0.5 2.8 -2.4
v 0.5 2.9 -2.3
v 0.5 2.9 -2.4
v 0.5 3.6 -2.3
v 0.5 3.6 -2.4
v 0.5 3.7 -2.3
v 0.5 3.7 -2.4
v 0.6 1.4 -2.3
v 0.6 1.4 -2.4
v 0.6 1.5 -2.3
v 0.6 1.5 -2.4
v 0.6 3.7 -2.3
v 0.6 3.7 -2.4
v 0.6 3.9 -2.3
v 0.6 3.9 -2.4
v 0.7 1.5 -2.3
v 0.7 1.5 -2.4
v 0.7 1.6 -2.3
v 0.7 1.6 -2.4
v 0.7 2.6 -2.3
v 0.7 2.6 -2.4
v 0.7 2.8 -2.3
v 0.7 2.8 -2.4
v 0.8 1.6 -2.3
v 0.8 1.6 -2.4
v 0.8 1.8 -2.3
v 0.8 1.8 -2.4
v 0.8 2.5 -2.3
v 0.8 2.5 -2.4
v 0.8 2.6 -2.3
v 0.8 2.6 -2.4
v 0.9 1.8 -2.3
v 0.9 1.8 -2.4
v 0.9 2.5 -2.3
v 0.9 2.5 -2.4
v -0.2 2.1 -2.2
v -0.2 2.2 -2.2
v -5.96046e-008 1.9 -2.2
v -5.96046e-008 2.1 -2.2
v -5.96046e-008 2.2 -2.2
v -5.96046e-008 2.4 -2.2
v 0.0999999 1.9 -2.2
v 0.0999999 2.1 -2.2
v 0.0999999 2.2 -2.2
v 0.0999999 2.4 -2.2
v 0.3 2.1 -2.2
v 0.3 2.2 -2.2
v -0.8 1.8 -2.3
v -0.8 2.5 -2.3
v -0.7 1.6 -2.3
v -0.7 1.8 -2.3
v -0.7 2.5 -2.3
v -0.7 2.7 -2.3
v -0.6 1.5 -2.3
v -0.6 1.6 -2.3
v -0.6 2.7 -2.3
v -0.6 2.8 -2.3
v -0.5 1.4 -2.3
v -0.5 1.5 -2.3
v -0.5 2.8 -2.3
v -0.5 2.9 -2.3
v -0.5 3.7 -2.3
v -0.5 3.9 -2.3
v -0.4 3.6 -2.3
v -0.4 3.7 -2.3
v -0.4 3.8 -2.3
v -0.4 3.9 -2.3
v -0.3 1.3 -2.3
v -0.3 1.4 -2.3
v -0.3 2.9 -2.3
v -0.3 3 -2.3
v -0.3 3.5 -2.3
v -0.3 3.6 -2.3
v -0.3 3.7 -2.3
v -0.3 3.8 -2.3
v -0.2 2.1 -2.3
v -0.2 2.2 -2.3
v -0.2 3.4 -2.3
v -0.2 3.5 -2.3
v -0.2 3.6 -2.3
v -0.2 3.7 -2.3
v -0.1 3.3 -2.3
v -0.1 3.4 -2.3
v -0.1 3.5 -2.3
v -0.1 3.6 -2.3
v -5.96046e-008 1.9 -2.3
v -5.96046e-008 2.1 -2.3
v -5.96046e-008 2.2 -2.3
v -5.96046e-008 2.4 -2.3
v -5.96046e-008 3.2 -2.3
v -5.96046e-008 3.3 -2.3
v -5.96046e-008 3.4 -2.3
v -5.96046e-008 3.5 -2.3
v 0.0999999 1.9 -2.3
v 0.0999999 2.1 -2.3
v 0.0999999 2.2 -2.3
v 0.0999999 2.4 -2.3
v 0.0999999 3.2 -2.3
v 0.0999999 3.3 -2.3
v 0.0999999 3.4 -2.3
v 0.0999999 3.5 -2.3
v 0.2 3.3 -2.3
v 0.2 3.4 -2.3
v 0.2 3.5 -2.3
v 0.2 3.6 -2.3
v 0.3 2.1 -2.3
v 0.3 2.2 -2.3
v 0.3 3.4 -2.3
v 0.3 3.5 -2.3
v 0.3 3.6 -2.3
v 0.3 3.7 -2.3
v 0.4 1.3 -2.3
v 0.4 1.4 -2.3
v 0.4 2.9 -2.3
v 0.4 3 -2.3
v 0.4 3.5 -2.3
v 0.4 3.6 -2.3
v 0.4 3.7 -2.3
v 0.4 3.8 -2.3
v 0.5 2.8 -2.3
v 0.5 2.9 -2.3
v 0.5 3.6 -2.3
v 0.5 3.7 -2.3
v 0.5 3.8 -2.3
v 0.5 3.9 -2.3
v 0.6 1.4 -2.3
v 0.6 1.5 -2.3
v 0.6 3.7 -2.3
v 0.6 3.9 -2.3
v 0.7 1.5 -2.3
v 0.7 1.6 -2.3
v 0.7 2.6 -2.3
v 0.7 2.8 -2.3
v 0.8 1.6 -2.3
v 0.8 1.8 -2.3
v 0.8 2.5 -2.3
v 0.8 2.6 -2.3
v 0.9 1.8 -2.3
v 0.9 2.5 -2.3
v -0.8 1.8 -2.4
v -0.8 2.5 -2.4
v -0.7 1.6 -2.4
v -0.7 1.8 -2.4
v -0.7 2.5 -2.4
v -0.7 2.7 -2.4
v -0.6 1.5 -2.4
v -0.6 1.6 -2.4
v -0.6 2.7 -2.4
v -0.6 2.8 -2.4
v -0.5 1.4 -2.4
v -0.5 1.5 -2.4
v -0.5 2.8 -2.4
v -0.5 2.9 -2.4
v -0.5 3.7 -2.4
v -0.5 3.9 -2.4
v -0.4 3.6 -2.4
v -0.4 3.7 -2.4
v -0.4 3.8 -2.4
v -0.4 3.9 -2.4
v -0.3 1.3 -2.4
v -0.3 1.4 -2.4
v -0.3 2.9 -2.4
v -0.3 3 -2.4
v -0.3 3.5 -2.4
v -0.3 3.6 -2.4
v -0.3 3.7 -2.4
v -0.3 3.8 -2.4
v -0.2 3.4 -2.4
v -0.2 3.5 -2.4
v -0.2 3.6 -2.4
v -0.2 3.7 -2.4
v -0.1 3.3 -2.4
v -0.1 3.4 -2.4
v -0.1 3.5 -2.4
v -0.1 3.6 -2.4
v -5.96046e-008 3.2 -2.4
v -5.96046e-008 3.3 -2.4
v -5.96046e-008 3.4 -2.4
v -5.96046e-008 3.5 -2.4
v 0.0999999 3.2 -2.4
v 0.0999999 3.3 -2.4
v 0.0999999 3.4 -2.4
v 0.0999999 3.5 -2.4
v 0.2 3.3 -2.4
v 0.2 3.4 -2.4
v 0.2 3.5 -2.4
v 0.2 3.6 -2.4
v 0.3 3.4 -2.4
v 0.3 3.5 -2.4
v 0.3 3.6 -2.4
v 0.3 3.7 -2.4
v 0.4 1.3 -2.4
v 0.4 1.4 -2.4
v 0.4 2.9 -2.4
v 0.4 3 -2.4
v 0.4 3.5 -2.4
v 0.4 3.6 -2.4
v 0.4 3.7 -2.4
v 0.4 3.8 -2.4
v 0.5 2.8 -2.4
v 0.5 2.9 -2.4
v 0.5 3.6 -2.4
v 0.5 3.7 -2.4
v 0.5 3.8 -2.4
v 0.5 3.9 -2.4
v 0.6 1.4 -2.4
v 0.6 1.5 -2.4
v 0.6 3.7 -2.4
v 0.6 3.9 -2.4
v 0.7 1.5 -2.4
v 0.7 1.6 -2.4
v 0.7 2.6 -2.4
v 0.7 2.8 -2.4
v 0.8 1.6 -2.4
v 0.8 1.8 -2.4
v 0.8 2.5 -2.4
v 0.8 2.6 -2.4
v 0.9 1.8 -2.4
v 0.9 2.5 -2.4
v -0.3 1.3 -2.3
v 0.4 1.3 -2.3
v -0.3 1.3 -2.4
v 0.4 1.3 -2.4
v -0.5 1.4 -2.3
v -0.3 1.4 -2.3
v 0.4 1.4 -2.3
v 0.6 1.4 -2.3
v -0.5 1.4 -2.4
v -0.3 1.4 -2.4
v 0.4 1.4 -2.4
v 0.6 1.4 -2.4
v -0.6 1.5 -2.3
v -0.5 1.5 -2.3
v 0.6 1.5 -2.3
v 0.7 1.5 -2.3
v -0.6 1.5 -2.4
v -0.5 1.5 -2.4
v 0.6 1.5 -2.4
v 0.7 1.5 -2.4
v -0.7 1.6 -2.3
v -0.6 1.6 -2.3
v 0.7 1.6 -2.3
v 0.8 1.6 -2.3
v -0.7 1.6 -2.4
v -0.6 1.6 -2.4
v 0.7 1.6 -2.4
v 0.8 1.6 -2.4
v -0.8 1.8 -2.3
v -0.7 1.8 -2.3
v 0.8 1.8 -2.3
v 0.9 1.8 -2.3
v -0.8 1.8 -2.4
v -0.7 1.8 -2.4
v 0.8 1.8 -2.4
v 0.9 1.8 -2.4
v -5.96046e-008 1.9 -2.2
v 0.0999999 1.9 -2.2
v -5.96046e-008 1.9 -2.3
v 0.0999999 1.9 -2.3
v -0.2 2.1 -2.2
v -5.96046e-008 2.1 -2.2
v 0.0999999 2.1 -2.2
v 0.3 2.1 -2.2
v -0.2 2.1 -2.3
v -5.96046e-008 2.1 -2.3
v 0.0999999 2.1 -2.3
v 0.3 2.1 -2.3
v -5.96046e-008 3.2 -2.3
v 0.0999999 3.2 -2.3
v -5.96046e-008 3.2 -2.4
v 0.0999999 3.2 -2.4
v -0.1 3.3 -2.3
v -5.96046e-008 3.3 -2.3
v 0.0999999 3.3 -2.3
v 0.2 3.3 -2.3
v -0.1 3.3 -2.4
v -5.96046e-008 3.3 -2.4
v 0.0999999 3.3 -2.4
v 0.2 3.3 -2.4
v -0.2 3.4 -2.3
v -0.1 3.4 -2.3
v 0.2 3.4 -2.3
v 0.3 3.4 -2.3
v -0.2 3.4 -2.4
v -0.1 3.4 -2.4
v 0.2 3.4 -2.4
v 0.3 3.4 -2.4
v -0.3 3.5 -2.3
v -0.2 3.5 -2.3
v 0.3 3.5 -2.3
v 0.4 3.5 -2.3
v -0.3 3.5 -2.4
v -0.2 3.5 -2.4
v 0.3 3.5 -2.4
v 0.4 3.5 -2.4
v -0.4 3.6 -2.3
v -0.3 3.6 -2.3
v 0.4 3.6 -2.3
v 0.5 3.6 -2.3
v -0.4 3.6 -2.4
v -0.3 3.6 -2.4
v 0.4 3.6 -2.4
v 0.5 3.6 -2.4
v -0.5 3.7 -2.3
v -0.4 3.7 -2.3
v 0.5 3.7 -2.3
v 0.6 3.7 -2.3
v -0.5 3.7 -2.4
v -0.4 3.7 -2.4
v 0.5 3.7 -2.4
v 0.6 3.7 -2.4
v -0.2 2.2 -2.2
v -5.96046e-008 2.2 -2.2
v 0.0999999 2.2 -2.2
v 0.3 2.2 -2.2
v -0.2 2.2 -2.3
v -5.96046e-008 2.2 -2.3
v 0.0999999 2.2 -2.3
v 0.3 2.2 -2.3
v -5.96046e-008 2.4 -2.2
v 0.0999999 2.4 -2.2
v -5.96046e-008 2.4 -2.3
v 0.0999999 2.4 -2.3
v -0.8 2.5 -2.3
v -0.7 2.5 -2.3
v 0.8 2.5 -2.3
v 0.9 2.5 -2.3
v -0.8 2.5 -2.4
v -0.7 2.5 -2.4
v 0.8 2.5 -2.4
v 0.9 2.5 -2.4
v 0.7 2.6 -2.3
v 0.8 2.6 -2.3
v 0.7 2.6 -2.4
v 0.8 2.6 -2.4
v -0.7 2.7 -2.3
v -0.6 2.7 -2.3
v -0.7 2.7 -2.4
v -0.6 2.7 -2.4
v -0.6 2.8 -2.3
v -0.5 2.8 -2.3
v 0.5 2.8 -2.3
v 0.7 2.8 -2.3
v -0.6 2.8 -2.4
v -0.5 2.8 -2.4
v 0.5 2.8 -2.4
v 0.7 2.8 -2.4
v -0.5 2.9 -2.3
v -0.3 2.9 -2.3
v 0.4 2.9 -2.3
v 0.5 2.9 -2.3
v -0.5 2.9 -2.4
v -0.3 2.9 -2.4
v 0.4 2.9 -2.4
v 0.5 2.9 -2.4
v -0.3 3 -2.3
v 0.4 3 -2.3
v -0.3 3 -2.4
v 0.4 3 -2.4
v -5.96046e-008 3.4 -2.3
v 0.0999999 3.4 -2.3
v -5.96046e-008 3.4 -2.4
v 0.0999999 3.4 -2.4
v -0.1 3.5 -2.3
v -5.96046e-008 3.5 -2.3
v 0.0999999 3.5 -2.3
v 0.2 3.5 -2.3
v -0.1 3.5 -2.4
v -5.96046e-008 3.5 -2.4
v 0.0999999 3.5 -2.4
v 0.2 3.5 -2.4
v -0.2 3.6 -2.3
v -0.1 3.6 -2.3
v 0.2 3.6 -2.3
v 0.3 3.6 -2.3
v -0.2 3.6 -2.4
v -0.1 3.6 -2.4
v 0.2 3.6 -2.4
v 0.3 3.6 -2.4
v -0.3 3.7 -2.3
v -0.2 3.7 -2.3
v 0.3 3.7 -2.3
v 0.4 3.7 -2.3
v -0.3 3.7 -2.4
v -0.2 3.7 -2.4
v 0.3 3.7 -2.4
v 0.4 3.7 -2.4
v -0.4 3.8 -2.3
v -0.3 3.8 -2.3
v 0.4 3.8 -2.3
v 0.5 3.8 -2.3
v -0.4 3.8 -2.4
v -0.3 3.8 -2.4
v 0.4 3.8 -2.4
v 0.5 3.8 -2.4
v -0.5 3.9 -2.3
v -0.4 3.9 -2.3
v 0.5 3.9 -2.3
v 0.6 3.9 -2.3
v -0.5 3.9 -2.4
v -0.4 3.9 -2.4
v 0.5 3.9 -2.4
v 0.6 3.9 -2.4

# faces
f 3/2/1 2/2/1 1/2/1
f 4/2/1 2/2/1 3/2/1
f 7/2/1 6/2/1 5/2/1
f 8/2/1 6/2/1 7/2/1
f 11/2/1 10/2/1 9/2/1
f 12/2/1 10/2/1 11/2/1
f 15/2/1 14/2/1 13/2/1
f 16/2/1 14/2/1 15/2/1
f 19/2/1 18/2/1 17/2/1
f 20/2/1 18/2/1 19/2/1
f 23/2/1 22/2/1 21/2/1
f 24/2/1 22/2/1 23/2/1
f 27/2/1 26/2/1 25/2/1
f 28/2/1 26/2/1 27/2/1
f 31/1/1 30/1/1 29/1/1
f 32/1/1 30/1/1 31/1/1
f 35/1/1 34/1/1 33/1/1
f 36/1/1 34/1/1 35/1/1
f 39/2/1 38/2/1 37/2/1
f 40/2/1 38/2/1 39/2/1
f 43/2/1 42/2/1 41/2/1
f 44/2/1 42/2/1 43/2/1
f 47/1/1 46/1/1 45/1/1
f 48/1/1 46/1/1 47/1/1
f 51/1/1 50/1/1 49/1/1
f 52/1/1 50/1/1 51/1/1
f 55/1/1 54/1/1 53/1/1
f 56/1/1 54/1/1 55/1/1
f 59/1/1 58/1/1 57/1/1
f 60/1/1 58/1/1 59/1/1
f 63/1/1 62/1/1 61/1/1
f 64/1/1 62/1/1 63/1/1
f 67/1/1 66/1/1 65/1/1
f 68/1/1 66/1/1 67/1/1
f 71/1/1 70/1/1 69/1/1
f 72/1/1 70/1/1 71/1/1
f 75/1/1 74/1/1 73/1/1
f 76/1/1 74/1/1 75/1/1
f 79/1/1 78/1/1 77/1/1
f 80/1/1 78/1/1 79/1/1
f 83/1/1 82/1/1 81/1/1
f 84/1/1 82/1/1 83/1/1
f 87/1/1 86/1/1 85/1/1
f 88/1/1 86/1/1 87/1/1
f 91/1/1 90/1/1 89/1/1
f 92/1/1 90/1/1 91/1/1
f 93/1/2 94/1/2 95/1/2
f 95/1/2 94/1/2 96/1/2
f 97/1/2 98/1/2 99/1/2
f 99/1/2 98/1/2 100/1/2
f 101/1/2 102/1/2 103/1/2
f 103/1/2 102/1/2 104/1/2
f 105/1/2 106/1/2 107/1/2
f 107/1/2 106/1/2 108/1/2
f 109/1/2 110/1/2 111/1/2
f 111/1/2 110/1/2 112/1/2
f 113/1/2 114/1/2 115/1/2
f 115/1/2 114/1/2 116/1/2
f 117/1/2 118/1/2 119/1/2
f 119/1/2 118/1/2 120/1/2
f 121/1/2 122/1/2 123/1/2
f 123/1/2 122/1/2 124/1/2
f 125/1/2 126/1/2 127/1/2
f 127/1/2 126/1/2 128/1/2
f 129/1/2 130/1/2 131/1/2
f 131/1/2 130/1/2 132/1/2
f 133/1/2 134/1/2 135/1/2
f 135/1/2 134/1/2 136/1/2
f 137/2/2 138/2/2 139/2/2
f 139/2/2 138/2/2 140/2/2
f 141/2/2 142/2/2 143/2/2
f 143/2/2 142/2/2 144/2/2
f 145/1/2 146/1/2 147/1/2
f 147/1/2 146/1/2 148/1/2
f 149/2/2 150/2/2 151/2/2
f 151/2/2 150/2/2 152/2/2
f 153/1/2 154/1/2 155/1/2
f 155/1/2 154/1/2 156/1/2
f 157/2/2 158/2/2 159/2/2
f 159/2/2 158/2/2 160/2/2
f 161/1/2 162/1/2 163/1/2
f 163/1/2 162/1/2 164/1/2
f 165/2/2 166/2/2 167/2/2
f 167/2/2 166/2/2 168/2/2
f 169/2/2 170/2/2 171/2/2
f 171/2/2 170/2/2 172/2/2
f 173/2/2 174/2/2 175/2/2
f 175/2/2 174/2/2 176/2/2
f 177/2/2 178/2/2 179/2/2
f 179/2/2 178/2/2 180/2/2
f 181/2/2 182/2/2 183/2/2
f 183/2/2 182/2/2 184/2/2
f 188/1/3 186/1/3 185/1/3
f 189/1/3 186/1/3 188/1/3
f 191/1/3 188/1/3 187/1/3
f 191/1/3 190/1/3 189/1/3
f 191/1/3 189/1/3 188/1/3
f 192/1/3 190/1/3 191/1/3
f 193/1/3 190/1/3 192/1/3
f 194/1/3 190/1/3 193/1/3
f 195/1/3 193/1/3 192/1/3
f 196/1/3 193/1/3 195/1/3
f 200/2/3 198/2/3 197/2/3
f 201/2/3 198/2/3 200/2/3
f 204/2/3 200/2/3 199/2/3
f 204/2/3 202/2/3 201/2/3
f 204/2/3 201/2/3 200/2/3
f 205/2/3 202/2/3 204/2/3
f 208/2/3 204/2/3 203/2/3
f 208/2/3 206/2/3 205/2/3
f 208/2/3 205/2/3 204/2/3
f 209/2/3 206/2/3 208/2/3
f 214/1/3 212/1/3 211/1/3
f 215/1/3 212/1/3 214/1/3
f 216/1/3 212/1/3 215/1/3
f 218/2/3 208/2/3 207/2/3
f 218/2/3 209/2/3 208/2/3
f 218/2/3 210/2/3 209/2/3
f 219/2/3 210/2/3 218/2/3
f 222/1/3 215/1/3 214/1/3
f 222/1/3 214/1/3 213/1/3
f 223/1/3 215/1/3 222/1/3
f 224/1/3 215/1/3 223/1/3
f 225/2/3 220/2/3 219/2/3
f 225/2/3 219/2/3 218/2/3
f 225/2/3 218/2/3 217/2/3
f 226/2/3 220/2/3 225/2/3
f 228/1/3 223/1/3 222/1/3
f 228/1/3 222/1/3 221/1/3
f 229/1/3 223/1/3 228/1/3
f 230/1/3 223/1/3 229/1/3
f 232/1/3 228/1/3 227/1/3
f 232/1/3 229/1/3 228/1/3
f 233/1/3 229/1/3 232/1/3
f 234/1/3 229/1/3 233/1/3
f 235/2/3 225/2/3 217/2/3
f 236/2/3 225/2/3 235/2/3
f 237/2/3 220/2/3 226/2/3
f 238/2/3 220/2/3 237/2/3
f 240/1/3 232/1/3 231/1/3
f 240/1/3 233/1/3 232/1/3
f 241/1/3 233/1/3 240/1/3
f 242/1/3 233/1/3 241/1/3
f 243/2/3 235/2/3 217/2/3
f 246/2/3 220/2/3 238/2/3
f 247/1/3 241/1/3 240/1/3
f 247/1/3 240/1/3 239/1/3
f 248/1/3 241/1/3 247/1/3
f 249/1/3 241/1/3 248/1/3
f 251/1/3 250/1/3 249/1/3
f 251/1/3 249/1/3 248/1/3
f 252/1/3 250/1/3 251/1/3
f 253/1/3 250/1/3 252/1/3
f 255/2/3 244/2/3 243/2/3
f 256/2/3 246/2/3 245/2/3
f 257/1/3 253/1/3 252/1/3
f 257/1/3 254/1/3 253/1/3
f 258/1/3 254/1/3 257/1/3
f 259/1/3 254/1/3 258/1/3
f 261/2/3 256/2/3 255/2/3
f 261/2/3 255/2/3 243/2/3
f 261/2/3 243/2/3 217/2/3
f 262/2/3 256/2/3 261/2/3
f 263/2/3 246/2/3 256/2/3
f 263/2/3 256/2/3 262/2/3
f 263/2/3 220/2/3 246/2/3
f 264/2/3 220/2/3 263/2/3
f 265/1/3 260/1/3 259/1/3
f 265/1/3 259/1/3 258/1/3
f 266/1/3 260/1/3 265/1/3
f 267/1/3 260/1/3 266/1/3
f 269/2/3 263/2/3 262/2/3
f 270/2/3 263/2/3 269/2/3
f 271/1/3 268/1/3 267/1/3
f 271/1/3 267/1/3 266/1/3
f 272/1/3 268/1/3 271/1/3
f 273/1/3 268/1/3 272/1/3
f 275/2/3 269/2/3 262/2/3
f 276/2/3 269/2/3 275/2/3
f 277/1/3 273/1/3 272/1/3
f 277/1/3 274/1/3 273/1/3
f 278/1/3 274/1/3 277/1/3
f 279/2/3 269/2/3 276/2/3
f 280/2/3 269/2/3 279/2/3
f 281/2/3 269/2/3 280/2/3
f 282/2/3 269/2/3 281/2/3
f 283/2/3 281/2/3 280/2/3
f 284/2/3 281/2/3 283/2/3
f 285/2/3 281/2/3 284/2/3
f 286/2/3 281/2/3 285/2/3
f 287/2/3 285/2/3 284/2/3
f 288/2/3 285/2/3 287/2/3
f 289/2/4 290/2/4 292/2/4
f 292/2/4 290/2/4 293/2/4
f 291/2/4 292/2/4 296/2/4
f 293/2/4 294/2/4 296/2/4
f 292/2/4 293/2/4 296/2/4
f 296/2/4 294/2/4 297/2/4
f 295/2/4 296/2/4 300/2/4
f 297/2/4 298/2/4 300/2/4
f 296/2/4 297/2/4 300/2/4
f 300/2/4 298/2/4 301/2/4
f 303/1/4 304/1/4 306/1/4
f 306/1/4 304/1/4 307/1/4
f 307/1/4 304/1/4 308/1/4
f 299/2/4 300/2/4 310/2/4
f 300/2/4 301/2/4 310/2/4
f 301/2/4 302/2/4 310/2/4
f 310/2/4 302/2/4 311/2/4
f 306/1/4 307/1/4 314/1/4
f 305/1/4 306/1/4 314/1/4
f 314/1/4 307/1/4 315/1/4
f 315/1/4 307/1/4 316/1/4
f 313/1/4 314/1/4 318/1/4
f 314/1/4 315/1/4 318/1/4
f 318/1/4 315/1/4 319/1/4
f 319/1/4 315/1/4 320/1/4
f 317/1/4 318/1/4 322/1/4
f 318/1/4 319/1/4 322/1/4
f 322/1/4 319/1/4 323/1/4
f 323/1/4 319/1/4 324/1/4
f 321/1/4 322/1/4 326/1/4
f 322/1/4 323/1/4 326/1/4
f 326/1/4 323/1/4 327/1/4
f 327/1/4 323/1/4 328/1/4
f 325/1/4 326/1/4 329/1/4
f 326/1/4 327/1/4 329/1/4
f 329/1/4 327/1/4 330/1/4
f 330/1/4 327/1/4 331/1/4
f 331/1/4 332/1/4 333/1/4
f 330/1/4 331/1/4 333/1/4
f 333/1/4 332/1/4 334/1/4
f 334/1/4 332/1/4 335/1/4
f 334/1/4 335/1/4 337/1/4
f 335/1/4 336/1/4 337/1/4
f 337/1/4 336/1/4 338/1/4
f 338/1/4 336/1/4 339/1/4
f 311/2/4 312/2/4 341/2/4
f 310/2/4 311/2/4 341/2/4
f 309/2/4 310/2/4 341/2/4
f 341/2/4 312/2/4 342/2/4
f 342/2/4 312/2/4 343/2/4
f 343/2/4 312/2/4 344/2/4
f 339/1/4 340/1/4 345/1/4
f 338/1/4 339/1/4 345/1/4
f 345/1/4 340/1/4 346/1/4
f 346/1/4 340/1/4 347/1/4
f 342/2/4 343/2/4 349/2/4
f 349/2/4 343/2/4 350/2/4
f 347/1/4 348/1/4 351/1/4
f 346/1/4 347/1/4 351/1/4
f 351/1/4 348/1/4 352/1/4
f 352/1/4 348/1/4 353/1/4
f 342/2/4 349/2/4 355/2/4
f 355/2/4 349/2/4 356/2/4
f 353/1/4 354/1/4 357/1/4
f 352/1/4 353/1/4 357/1/4
f 357/1/4 354/1/4 358/1/4
f 356/2/4 349/2/4 359/2/4
f 359/2/4 349/2/4 360/2/4
f 360/2/4 349/2/4 361/2/4
f 361/2/4 349/2/4 362/2/4
f 360/2/4 361/2/4 363/2/4
f 363/2/4 361/2/4 364/2/4
f 364/2/4 361/2/4 365/2/4
f 365/2/4 361/2/4 366/2/4
f 364/2/4 365/2/4 367/2/4
f 367/2/4 365/2/4 368/2/4
f 371/2/5 370/2/5 369/2/5
f 372/2/5 370/2/5 371/2/5
f 377/2/5 374/2/5 373/2/5
f 378/2/5 374/2/5 377/2/5
f 379/2/5 376/2/5 375/2/5
f 380/2/5 376/2/5 379/2/5
f 385/2/5 382/2/5 381/2/5
f 386/2/5 382/2/5 385/2/5
f 387/2/5 384/2/5 383/2/5
f 388/2/5 384/2/5 387/2/5
f 393/2/5 390/2/5 389/2/5
f 394/2/5 390/2/5 393/2/5
f 395/2/5 392/2/5 391/2/5
f 396/2/5 392/2/5 395/2/5
f 401/2/5 398/2/5 397/2/5
f 402/2/5 398/2/5 401/2/5
f 403/2/5 400/2/5 399/2/5
f 404/2/5 400/2/5 403/2/5
f 407/1/5 406/1/5 405/1/5
f 408/1/5 406/1/5 407/1/5
f 413/1/5 410/1/5 409/1/5
f 414/1/5 410/1/5 413/1/5
f 415/1/5 412/1/5 411/1/5
f 416/1/5 412/1/5 415/1/5
f 419/1/5 418/1/5 417/1/5
f 420/1/5 418/1/5 419/1/5
f 425/1/5 422/1/5 421/1/5
f 426/1/5 422/1/5 425/1/5
f 427/1/5 424/1/5 423/1/5
f 428/1/5 424/1/5 427/1/5
f 433/1/5 430/1/5 429/1/5
f 434/1/5 430/1/5 433/1/5
f 435/1/5 432/1/5 431/1/5
f 436/1/5 432/1/5 435/1/5
f 441/1/5 438/1/5 437/1/5
f 442/1/5 438/1/5 441/1/5
f 443/1/5 440/1/5 439/1/5
f 444/1/5 440/1/5 443/1/5
f 449/1/5 446/1/5 445/1/5
f 450/1/5 446/1/5 449/1/5
f 451/1/5 448/1/5 447/1/5
f 452/1/5 448/1/5 451/1/5
f 457/1/5 454/1/5 453/1/5
f 458/1/5 454/1/5 457/1/5
f 459/1/5 456/1/5 455/1/5
f 460/1/5 456/1/5 459/1/5
f 461/1/6 462/1/6 465/1/6
f 465/1/6 462/1/6 466/1/6
f 463/1/6 464/1/6 467/1/6
f 467/1/6 464/1/6 468/1/6
f 469/1/6 470/1/6 471/1/6
f 471/1/6 470/1/6 472/1/6
f 473/2/6 474/2/6 477/2/6
f 477/2/6 474/2/6 478/2/6
f 475/2/6 476/2/6 479/2/6
f 479/2/6 476/2/6 480/2/6
f 481/2/6 482/2/6 483/2/6
f 483/2/6 482/2/6 484/2/6
f 485/2/6 486/2/6 487/2/6
f 487/2/6 486/2/6 488/2/6
f 489/2/6 490/2/6 493/2/6
f 493/2/6 490/2/6 494/2/6
f 491/2/6 492/2/6 495/2/6
f 495/2/6 492/2/6 496/2/6
f 497/2/6 498/2/6 501/2/6
f 501/2/6 498/2/6 502/2/6
f 499/2/6 500/2/6 503/2/6
f 503/2/6 500/2/6 504/2/6
f 505/2/6 506/2/6 507/2/6
f 507/2/6 506/2/6 508/2/6
f 509/1/6 510/1/6 511/1/6
f 511/1/6 510/1/6 512/1/6
f 513/1/6 514/1/6 517/1/6
f 517/1/6 514/1/6 518/1/6
f 515/1/6 516/1/6 519/1/6
f 519/1/6 516/1/6 520/1/6
f 521/1/6 522/1/6 525/1/6
f 525/1/6 522/1/6 526/1/6
f 523/1/6 524/1/6 527/1/6
f 527/1/6 524/1/6 528/1/6
f 529/1/6 530/1/6 533/1/6
f 533/1/6 530/1/6 534/1/6
f 531/1/6 532/1/6 535/1/6
f 535/1/6 532/1/6 536/1/6
f 537/1/6 538/1/6 541/1/6
f 541/1/6 538/1/6 542/1/6
f 539/1/6 540/1/6 543/1/6
f 543/1/6 540/1/6 544/1/6
f 545/1/6 546/1/6 549/1/6
f 549/1/6 546/1/6 550/1/6
f 547/1/6 548/1/6 551/1/6
f 551/1/6 548/1/6 552/1/6
