# MagicaVoxel @ Ephtracy

# group
o 

# material
mtllib energy-flying.mtl
usemtl palette

# normals
vn -1 0 0
vn 1 0 0
vn 0 0 1
vn 0 0 -1
vn 0 -1 0
vn 0 1 0

# texcoords
vt 0.947266 0.5
vt 0.962891 0.5
vt 0.982422 0.5

# verts
v -0.8 1.8 -2.3
v -0.8 1.8 -2.4
v -0.8 2.5 -2.3
v -0.8 2.5 -2.4
v -0.7 1.6 -2.3
v -0.7 1.6 -2.4
v -0.7 1.8 -2.2
v -0.7 1.8 -2.3
v -0.7 1.8 -2.4
v -0.7 2.5 -2.2
v -0.7 2.5 -2.3
v -0.7 2.5 -2.4
v -0.7 2.7 -2.3
v -0.7 2.7 -2.4
v -0.6 1.5 -2.3
v -0.6 1.5 -2.4
v -0.6 1.6 -2.2
v -0.6 1.6 -2.3
v -0.6 1.6 -2.4
v -0.6 1.8 -2.2
v -0.6 1.8 -2.3
v -0.6 2.5 -2.2
v -0.6 2.5 -2.3
v -0.6 2.7 -2.2
v -0.6 2.7 -2.3
v -0.6 2.7 -2.4
v -0.6 2.8 -2.3
v -0.6 2.8 -2.4
v -0.5 1.4 -2.3
v -0.5 1.4 -2.4
v -0.5 1.5 -2.3
v -0.5 1.5 -2.4
v -0.5 2.7 -2.2
v -0.5 2.7 -2.3
v -0.5 2.8 -2.2
v -0.5 2.8 -2.3
v -0.5 2.8 -2.4
v -0.5 2.9 -2.3
v -0.5 2.9 -2.4
v -0.4 1.5 -2.2
v -0.4 1.5 -2.3
v -0.4 1.6 -2.2
v -0.4 1.6 -2.3
v -0.3 1.3 -2.3
v -0.3 1.3 -2.4
v -0.3 1.4 -2.2
v -0.3 1.4 -2.3
v -0.3 1.4 -2.4
v -0.3 1.5 -2.2
v -0.3 1.5 -2.3
v -0.3 1.6 -2.2
v -0.3 1.6 -2.3
v -0.3 1.7 -2.2
v -0.3 1.7 -2.3
v -0.3 2.8 -2.2
v -0.3 2.8 -2.3
v -0.3 2.9 -2.2
v -0.3 2.9 -2.3
v -0.3 2.9 -2.4
v -0.3 3 -2.3
v -0.3 3 -2.4
v -0.2 1.9 -2.2
v -0.2 1.9 -2.3
v -0.2 2 -2.2
v -0.2 2 -2.3
v -0.1 1.7 -2.2
v -0.1 1.7 -2.3
v -0.1 1.8 -2.2
v -0.1 1.8 -2.3
v -0.1 2 -2.2
v -0.1 2 -2.3
v -0.1 2.1 -2.2
v -0.1 2.1 -2.3
v -5.96046e-08 2.1 -2.2
v -5.96046e-08 2.1 -2.3
v -5.96046e-08 2.2 -2.2
v -5.96046e-08 2.2 -2.3
v 0.0999999 2.2 -2.2
v 0.0999999 2.2 -2.3
v 0.0999999 2.4 -2.2
v 0.0999999 2.4 -2.3
v 0.2 1.8 -2.2
v 0.2 1.8 -2.3
v 0.2 1.9 -2.2
v 0.2 1.9 -2.3
v 0.2 2.4 -2.2
v 0.2 2.4 -2.3
v 0.2 2.6 -2.2
v 0.2 2.6 -2.3
v 0.3 1.9 -2.2
v 0.3 1.9 -2.3
v 0.3 2 -2.2
v 0.3 2 -2.3
v 0.3 2.6 -2.2
v 0.3 2.6 -2.3
v 0.3 2.7 -2.2
v 0.3 2.7 -2.3
v 0.4 2 -2.2
v 0.4 2 -2.3
v 0.4 2.1 -2.2
v 0.4 2.1 -2.3
v 0.5 2.1 -2.2
v 0.5 2.1 -2.3
v 0.5 2.4 -2.2
v 0.5 2.4 -2.3
v 0.6 2.4 -2.2
v 0.6 2.4 -2.3
v 0.6 2.7 -2.2
v 0.6 2.7 -2.3
v -0.5 1.6 -2.2
v -0.5 1.6 -2.3
v -0.5 1.7 -2.2
v -0.5 1.7 -2.3
v -0.4 1.7 -2.2
v -0.4 1.7 -2.3
v -0.4 2.2 -2.2
v -0.4 2.2 -2.3
v -0.3 2.2 -2.2
v -0.3 2.2 -2.3
v -0.3 2.4 -2.2
v -0.3 2.4 -2.3
v -0.2 2.4 -2.2
v -0.2 2.4 -2.3
v -0.2 2.6 -2.2
v -0.2 2.6 -2.3
v -0.1 1.9 -2.2
v -0.1 1.9 -2.3
v -0.1 2 -2.2
v -0.1 2 -2.3
v -0.1 2.6 -2.2
v -0.1 2.6 -2.3
v -0.1 2.7 -2.2
v -0.1 2.7 -2.3
v -5.96046e-08 2 -2.2
v -5.96046e-08 2 -2.3
v -5.96046e-08 2.1 -2.2
v -5.96046e-08 2.1 -2.3
v -5.96046e-08 2.7 -2.2
v -5.96046e-08 2.7 -2.3
v -5.96046e-08 2.8 -2.2
v -5.96046e-08 2.8 -2.3
v 0.0999999 2.1 -2.2
v 0.0999999 2.1 -2.3
v 0.0999999 2.2 -2.2
v 0.0999999 2.2 -2.3
v 0.2 2.2 -2.2
v 0.2 2.2 -2.3
v 0.2 2.4 -2.2
v 0.2 2.4 -2.3
v 0.2 2.8 -2.2
v 0.2 2.8 -2.3
v 0.2 2.9 -2.2
v 0.2 2.9 -2.3
v 0.3 2.4 -2.2
v 0.3 2.4 -2.3
v 0.3 2.6 -2.2
v 0.3 2.6 -2.3
v 0.4 1.3 -2.3
v 0.4 1.3 -2.4
v 0.4 1.4 -2.2
v 0.4 1.4 -2.3
v 0.4 1.4 -2.4
v 0.4 1.5 -2.2
v 0.4 1.5 -2.3
v 0.4 2.6 -2.2
v 0.4 2.6 -2.3
v 0.4 2.7 -2.2
v 0.4 2.7 -2.3
v 0.4 2.9 -2.3
v 0.4 2.9 -2.4
v 0.4 3 -2.3
v 0.4 3 -2.4
v 0.6 1.4 -2.3
v 0.6 1.4 -2.4
v 0.6 1.5 -2.2
v 0.6 1.5 -2.3
v 0.6 1.5 -2.4
v 0.6 1.6 -2.2
v 0.6 1.6 -2.3
v 0.6 2.8 -2.3
v 0.6 2.8 -2.4
v 0.6 2.9 -2.3
v 0.6 2.9 -2.4
v 0.7 1.5 -2.3
v 0.7 1.5 -2.4
v 0.7 1.6 -2.2
v 0.7 1.6 -2.3
v 0.7 1.6 -2.4
v 0.7 1.8 -2.2
v 0.7 1.8 -2.3
v 0.7 2.5 -2.2
v 0.7 2.5 -2.3
v 0.7 2.6 -2.3
v 0.7 2.6 -2.4
v 0.7 2.7 -2.2
v 0.7 2.7 -2.3
v 0.7 2.8 -2.3
v 0.7 2.8 -2.4
v 0.8 1.6 -2.3
v 0.8 1.6 -2.4
v 0.8 1.8 -2.2
v 0.8 1.8 -2.3
v 0.8 1.8 -2.4
v 0.8 2.5 -2.2
v 0.8 2.5 -2.3
v 0.8 2.5 -2.4
v 0.8 2.6 -2.3
v 0.8 2.6 -2.4
v 0.9 1.8 -2.3
v 0.9 1.8 -2.4
v 0.9 2.5 -2.3
v 0.9 2.5 -2.4
v -0.7 1.8 -2.2
v -0.7 2.5 -2.2
v -0.6 1.6 -2.2
v -0.6 1.8 -2.2
v -0.6 2.5 -2.2
v -0.6 2.7 -2.2
v -0.5 1.6 -2.2
v -0.5 1.7 -2.2
v -0.5 2.7 -2.2
v -0.5 2.8 -2.2
v -0.4 1.5 -2.2
v -0.4 1.6 -2.2
v -0.4 1.7 -2.2
v -0.4 2.2 -2.2
v -0.3 1.4 -2.2
v -0.3 1.5 -2.2
v -0.3 1.6 -2.2
v -0.3 1.7 -2.2
v -0.3 2.2 -2.2
v -0.3 2.4 -2.2
v -0.3 2.8 -2.2
v -0.3 2.9 -2.2
v -0.2 1.9 -2.2
v -0.2 2 -2.2
v -0.2 2.4 -2.2
v -0.2 2.6 -2.2
v -0.1 1.7 -2.2
v -0.1 1.8 -2.2
v -0.1 1.9 -2.2
v -0.1 2 -2.2
v -0.1 2.1 -2.2
v -0.1 2.6 -2.2
v -0.1 2.7 -2.2
v -5.96046e-08 2 -2.2
v -5.96046e-08 2.1 -2.2
v -5.96046e-08 2.2 -2.2
v -5.96046e-08 2.7 -2.2
v -5.96046e-08 2.8 -2.2
v 0.0999999 2.1 -2.2
v 0.0999999 2.2 -2.2
v 0.0999999 2.4 -2.2
v 0.2 1.8 -2.2
v 0.2 1.9 -2.2
v 0.2 2.2 -2.2
v 0.2 2.4 -2.2
v 0.2 2.6 -2.2
v 0.2 2.8 -2.2
v 0.2 2.9 -2.2
v 0.3 1.9 -2.2
v 0.3 2 -2.2
v 0.3 2.4 -2.2
v 0.3 2.6 -2.2
v 0.3 2.7 -2.2
v 0.4 1.4 -2.2
v 0.4 1.5 -2.2
v 0.4 2 -2.2
v 0.4 2.1 -2.2
v 0.4 2.6 -2.2
v 0.4 2.7 -2.2
v 0.5 2.1 -2.2
v 0.5 2.4 -2.2
v 0.6 1.5 -2.2
v 0.6 1.6 -2.2
v 0.6 2.4 -2.2
v 0.6 2.7 -2.2
v 0.7 1.6 -2.2
v 0.7 1.8 -2.2
v 0.7 2.5 -2.2
v 0.7 2.7 -2.2
v 0.8 1.8 -2.2
v 0.8 2.5 -2.2
v -0.8 1.8 -2.3
v -0.8 2.5 -2.3
v -0.7 1.6 -2.3
v -0.7 1.8 -2.3
v -0.7 2.5 -2.3
v -0.7 2.7 -2.3
v -0.6 1.5 -2.3
v -0.6 1.6 -2.3
v -0.6 1.8 -2.3
v -0.6 2.5 -2.3
v -0.6 2.7 -2.3
v -0.6 2.8 -2.3
v -0.5 1.4 -2.3
v -0.5 1.5 -2.3
v -0.5 1.6 -2.3
v -0.5 1.7 -2.3
v -0.5 2.7 -2.3
v -0.5 2.8 -2.3
v -0.5 2.9 -2.3
v -0.4 1.5 -2.3
v -0.4 1.6 -2.3
v -0.4 1.7 -2.3
v -0.4 2.2 -2.3
v -0.3 1.3 -2.3
v -0.3 1.4 -2.3
v -0.3 1.5 -2.3
v -0.3 1.6 -2.3
v -0.3 1.7 -2.3
v -0.3 2.2 -2.3
v -0.3 2.4 -2.3
v -0.3 2.8 -2.3
v -0.3 2.9 -2.3
v -0.3 3 -2.3
v -0.2 1.9 -2.3
v -0.2 2 -2.3
v -0.2 2.4 -2.3
v -0.2 2.6 -2.3
v -0.1 1.7 -2.3
v -0.1 1.8 -2.3
v -0.1 1.9 -2.3
v -0.1 2 -2.3
v -0.1 2.1 -2.3
v -0.1 2.6 -2.3
v -0.1 2.7 -2.3
v -5.96046e-08 2 -2.3
v -5.96046e-08 2.1 -2.3
v -5.96046e-08 2.2 -2.3
v -5.96046e-08 2.7 -2.3
v -5.96046e-08 2.8 -2.3
v 0.0999999 2.1 -2.3
v 0.0999999 2.2 -2.3
v 0.0999999 2.4 -2.3
v 0.2 1.8 -2.3
v 0.2 1.9 -2.3
v 0.2 2.2 -2.3
v 0.2 2.4 -2.3
v 0.2 2.6 -2.3
v 0.2 2.8 -2.3
v 0.2 2.9 -2.3
v 0.3 1.9 -2.3
v 0.3 2 -2.3
v 0.3 2.4 -2.3
v 0.3 2.6 -2.3
v 0.3 2.7 -2.3
v 0.4 1.3 -2.3
v 0.4 1.4 -2.3
v 0.4 1.5 -2.3
v 0.4 2 -2.3
v 0.4 2.1 -2.3
v 0.4 2.6 -2.3
v 0.4 2.7 -2.3
v 0.4 2.9 -2.3
v 0.4 3 -2.3
v 0.5 2.1 -2.3
v 0.5 2.4 -2.3
v 0.5 2.8 -2.3
v 0.5 2.9 -2.3
v 0.6 1.4 -2.3
v 0.6 1.5 -2.3
v 0.6 1.6 -2.3
v 0.6 2.4 -2.3
v 0.6 2.7 -2.3
v 0.6 2.8 -2.3
v 0.6 2.9 -2.3
v 0.7 1.5 -2.3
v 0.7 1.6 -2.3
v 0.7 1.8 -2.3
v 0.7 2.5 -2.3
v 0.7 2.6 -2.3
v 0.7 2.7 -2.3
v 0.7 2.8 -2.3
v 0.8 1.6 -2.3
v 0.8 1.8 -2.3
v 0.8 2.5 -2.3
v 0.8 2.6 -2.3
v 0.9 1.8 -2.3
v 0.9 2.5 -2.3
v -0.8 1.8 -2.4
v -0.8 2.5 -2.4
v -0.7 1.6 -2.4
v -0.7 1.8 -2.4
v -0.7 2.5 -2.4
v -0.7 2.7 -2.4
v -0.6 1.5 -2.4
v -0.6 1.6 -2.4
v -0.6 1.8 -2.4
v -0.6 2.6 -2.4
v -0.6 2.7 -2.4
v -0.6 2.8 -2.4
v -0.5 1.4 -2.4
v -0.5 1.5 -2.4
v -0.5 1.8 -2.4
v -0.5 2.6 -2.4
v -0.5 2.7 -2.4
v -0.5 2.8 -2.4
v -0.5 2.9 -2.4
v -0.4 1.5 -2.4
v -0.4 1.6 -2.4
v -0.4 2.7 -2.4
v -0.4 2.8 -2.4
v -0.3 1.3 -2.4
v -0.3 1.4 -2.4
v -0.3 2.9 -2.4
v -0.3 3 -2.4
v -0.1 1.5 -2.4
v -0.1 1.6 -2.4
v -0.1 2.8 -2.4
v -0.1 2.9 -2.4
v 0.4 1.3 -2.4
v 0.4 1.4 -2.4
v 0.4 1.5 -2.4
v 0.4 1.6 -2.4
v 0.4 2.9 -2.4
v 0.4 3 -2.4
v 0.5 2.8 -2.4
v 0.5 2.9 -2.4
v 0.6 1.4 -2.4
v 0.6 1.5 -2.4
v 0.6 1.6 -2.4
v 0.6 1.8 -2.4
v 0.6 2.4 -2.4
v 0.6 2.8 -2.4
v 0.6 2.9 -2.4
v 0.7 1.5 -2.4
v 0.7 1.6 -2.4
v 0.7 1.8 -2.4
v 0.7 2.4 -2.4
v 0.7 2.6 -2.4
v 0.7 2.8 -2.4
v 0.8 1.6 -2.4
v 0.8 1.8 -2.4
v 0.8 2.5 -2.4
v 0.8 2.6 -2.4
v 0.9 1.8 -2.4
v 0.9 2.5 -2.4
v -0.3 1.3 -2.3
v 0.4 1.3 -2.3
v -0.3 1.3 -2.4
v 0.4 1.3 -2.4
v -0.3 1.4 -2.2
v 0.4 1.4 -2.2
v -0.5 1.4 -2.3
v -0.3 1.4 -2.3
v 0.4 1.4 -2.3
v 0.6 1.4 -2.3
v -0.5 1.4 -2.4
v -0.3 1.4 -2.4
v 0.4 1.4 -2.4
v 0.6 1.4 -2.4
v -0.4 1.5 -2.2
v -0.3 1.5 -2.2
v 0.4 1.5 -2.2
v 0.6 1.5 -2.2
v -0.6 1.5 -2.3
v -0.5 1.5 -2.3
v -0.4 1.5 -2.3
v -0.3 1.5 -2.3
v 0.4 1.5 -2.3
v 0.6 1.5 -2.3
v 0.7 1.5 -2.3
v -0.6 1.5 -2.4
v -0.5 1.5 -2.4
v 0.6 1.5 -2.4
v 0.7 1.5 -2.4
v -0.6 1.6 -2.2
v -0.5 1.6 -2.2
v 0.6 1.6 -2.2
v 0.7 1.6 -2.2
v -0.7 1.6 -2.3
v -0.6 1.6 -2.3
v -0.5 1.6 -2.3
v 0.6 1.6 -2.3
v 0.7 1.6 -2.3
v 0.8 1.6 -2.3
v -0.7 1.6 -2.4
v -0.6 1.6 -2.4
v 0.7 1.6 -2.4
v 0.8 1.6 -2.4
v -0.5 1.7 -2.2
v -0.4 1.7 -2.2
v -0.5 1.7 -2.3
v -0.4 1.7 -2.3
v -0.7 1.8 -2.2
v -0.6 1.8 -2.2
v 0.7 1.8 -2.2
v 0.8 1.8 -2.2
v -0.8 1.8 -2.3
v -0.7 1.8 -2.3
v -0.6 1.8 -2.3
v 0.7 1.8 -2.3
v 0.8 1.8 -2.3
v 0.9 1.8 -2.3
v -0.8 1.8 -2.4
v -0.7 1.8 -2.4
v 0.8 1.8 -2.4
v 0.9 1.8 -2.4
v -0.2 1.9 -2.2
v -0.1 1.9 -2.2
v -0.2 1.9 -2.3
v -0.1 1.9 -2.3
v -0.1 2 -2.2
v -5.96046e-08 2 -2.2
v -0.1 2 -2.3
v -5.96046e-08 2 -2.3
v -5.96046e-08 2.1 -2.2
v 0.0999999 2.1 -2.2
v -5.96046e-08 2.1 -2.3
v 0.0999999 2.1 -2.3
v -0.4 2.2 -2.2
v -0.3 2.2 -2.2
v 0.0999999 2.2 -2.2
v 0.2 2.2 -2.2
v -0.4 2.2 -2.3
v -0.3 2.2 -2.3
v 0.0999999 2.2 -2.3
v 0.2 2.2 -2.3
v -0.3 2.4 -2.2
v -0.2 2.4 -2.2
v 0.2 2.4 -2.2
v 0.3 2.4 -2.2
v -0.3 2.4 -2.3
v -0.2 2.4 -2.3
v 0.2 2.4 -2.3
v 0.3 2.4 -2.3
v -0.2 2.6 -2.2
v -0.1 2.6 -2.2
v 0.3 2.6 -2.2
v 0.4 2.6 -2.2
v -0.2 2.6 -2.3
v -0.1 2.6 -2.3
v 0.3 2.6 -2.3
v 0.4 2.6 -2.3
v -0.1 2.7 -2.2
v -5.96046e-08 2.7 -2.2
v -0.1 2.7 -2.3
v -5.96046e-08 2.7 -2.3
v -5.96046e-08 2.8 -2.2
v 0.2 2.8 -2.2
v -5.96046e-08 2.8 -2.3
v 0.2 2.8 -2.3
v -0.4 1.6 -2.2
v -0.3 1.6 -2.2
v -0.4 1.6 -2.3
v -0.3 1.6 -2.3
v -0.3 1.7 -2.2
v -0.1 1.7 -2.2
v -0.3 1.7 -2.3
v -0.1 1.7 -2.3
v -0.1 1.8 -2.2
v 0.2 1.8 -2.2
v -0.1 1.8 -2.3
v 0.2 1.8 -2.3
v 0.2 1.9 -2.2
v 0.3 1.9 -2.2
v 0.2 1.9 -2.3
v 0.3 1.9 -2.3
v -0.2 2 -2.2
v -0.1 2 -2.2
v 0.3 2 -2.2
v 0.4 2 -2.2
v -0.2 2 -2.3
v -0.1 2 -2.3
v 0.3 2 -2.3
v 0.4 2 -2.3
v -0.1 2.1 -2.2
v -5.96046e-08 2.1 -2.2
v 0.4 2.1 -2.2
v 0.5 2.1 -2.2
v -0.1 2.1 -2.3
v -5.96046e-08 2.1 -2.3
v 0.4 2.1 -2.3
v 0.5 2.1 -2.3
v -5.96046e-08 2.2 -2.2
v 0.0999999 2.2 -2.2
v -5.96046e-08 2.2 -2.3
v 0.0999999 2.2 -2.3
v 0.0999999 2.4 -2.2
v 0.2 2.4 -2.2
v 0.5 2.4 -2.2
v 0.6 2.4 -2.2
v 0.0999999 2.4 -2.3
v 0.2 2.4 -2.3
v 0.5 2.4 -2.3
v 0.6 2.4 -2.3
v -0.7 2.5 -2.2
v -0.6 2.5 -2.2
v 0.7 2.5 -2.2
v 0.8 2.5 -2.2
v -0.8 2.5 -2.3
v -0.7 2.5 -2.3
v -0.6 2.5 -2.3
v 0.7 2.5 -2.3
v 0.8 2.5 -2.3
v 0.9 2.5 -2.3
v -0.8 2.5 -2.4
v -0.7 2.5 -2.4
v 0.8 2.5 -2.4
v 0.9 2.5 -2.4
v 0.2 2.6 -2.2
v 0.3 2.6 -2.2
v 0.2 2.6 -2.3
v 0.3 2.6 -2.3
v 0.7 2.6 -2.3
v 0.8 2.6 -2.3
v 0.7 2.6 -2.4
v 0.8 2.6 -2.4
v -0.6 2.7 -2.2
v -0.5 2.7 -2.2
v 0.3 2.7 -2.2
v 0.4 2.7 -2.2
v 0.6 2.7 -2.2
v 0.7 2.7 -2.2
v -0.7 2.7 -2.3
v -0.6 2.7 -2.3
v -0.5 2.7 -2.3
v 0.3 2.7 -2.3
v 0.4 2.7 -2.3
v 0.6 2.7 -2.3
v 0.7 2.7 -2.3
v -0.7 2.7 -2.4
v -0.6 2.7 -2.4
v -0.5 2.8 -2.2
v -0.3 2.8 -2.2
v -0.6 2.8 -2.3
v -0.5 2.8 -2.3
v -0.3 2.8 -2.3
v 0.6 2.8 -2.3
v 0.7 2.8 -2.3
v -0.6 2.8 -2.4
v -0.5 2.8 -2.4
v 0.6 2.8 -2.4
v 0.7 2.8 -2.4
v -0.3 2.9 -2.2
v 0.2 2.9 -2.2
v -0.5 2.9 -2.3
v -0.3 2.9 -2.3
v 0.2 2.9 -2.3
v 0.4 2.9 -2.3
v 0.5 2.9 -2.3
v 0.6 2.9 -2.3
v -0.5 2.9 -2.4
v -0.3 2.9 -2.4
v 0.4 2.9 -2.4
v 0.5 2.9 -2.4
v 0.6 2.9 -2.4
v -0.3 3 -2.3
v 0.4 3 -2.3
v -0.3 3 -2.4
v 0.4 3 -2.4

# faces
f 3/3/1 2/3/1 1/3/1
f 4/3/1 2/3/1 3/3/1
f 8/3/1 6/3/1 5/3/1
f 9/3/1 6/3/1 8/3/1
f 10/2/1 8/2/1 7/2/1
f 11/2/1 8/2/1 10/2/1
f 13/3/1 12/3/1 11/3/1
f 14/3/1 12/3/1 13/3/1
f 18/3/1 16/3/1 15/3/1
f 19/3/1 16/3/1 18/3/1
f 20/2/1 18/2/1 17/2/1
f 21/2/1 18/2/1 20/2/1
f 24/2/1 23/2/1 22/2/1
f 25/2/1 23/2/1 24/2/1
f 27/3/1 26/3/1 25/3/1
f 28/3/1 26/3/1 27/3/1
f 31/3/1 30/3/1 29/3/1
f 32/3/1 30/3/1 31/3/1
f 35/2/1 34/2/1 33/2/1
f 36/2/1 34/2/1 35/2/1
f 38/3/1 37/3/1 36/3/1
f 39/3/1 37/3/1 38/3/1
f 42/2/1 41/2/1 40/2/1
f 43/2/1 41/2/1 42/2/1
f 47/3/1 45/3/1 44/3/1
f 48/3/1 45/3/1 47/3/1
f 49/2/1 47/2/1 46/2/1
f 50/2/1 47/2/1 49/2/1
f 53/2/1 52/2/1 51/2/1
f 54/2/1 52/2/1 53/2/1
f 57/2/1 56/2/1 55/2/1
f 58/2/1 56/2/1 57/2/1
f 60/3/1 59/3/1 58/3/1
f 61/3/1 59/3/1 60/3/1
f 64/2/1 63/2/1 62/2/1
f 65/2/1 63/2/1 64/2/1
f 68/2/1 67/2/1 66/2/1
f 69/2/1 67/2/1 68/2/1
f 72/2/1 71/2/1 70/2/1
f 73/2/1 71/2/1 72/2/1
f 76/2/1 75/2/1 74/2/1
f 77/2/1 75/2/1 76/2/1
f 80/2/1 79/2/1 78/2/1
f 81/2/1 79/2/1 80/2/1
f 84/2/1 83/2/1 82/2/1
f 85/2/1 83/2/1 84/2/1
f 88/2/1 87/2/1 86/2/1
f 89/2/1 87/2/1 88/2/1
f 92/2/1 91/2/1 90/2/1
f 93/2/1 91/2/1 92/2/1
f 96/2/1 95/2/1 94/2/1
f 97/2/1 95/2/1 96/2/1
f 100/2/1 99/2/1 98/2/1
f 101/2/1 99/2/1 100/2/1
f 104/2/1 103/2/1 102/2/1
f 105/2/1 103/2/1 104/2/1
f 108/2/1 107/2/1 106/2/1
f 109/2/1 107/2/1 108/2/1
f 110/2/2 111/2/2 112/2/2
f 112/2/2 111/2/2 113/2/2
f 114/2/2 115/2/2 116/2/2
f 116/2/2 115/2/2 117/2/2
f 118/2/2 119/2/2 120/2/2
f 120/2/2 119/2/2 121/2/2
f 122/2/2 123/2/2 124/2/2
f 124/2/2 123/2/2 125/2/2
f 126/2/2 127/2/2 128/2/2
f 128/2/2 127/2/2 129/2/2
f 130/2/2 131/2/2 132/2/2
f 132/2/2 131/2/2 133/2/2
f 134/2/2 135/2/2 136/2/2
f 136/2/2 135/2/2 137/2/2
f 138/2/2 139/2/2 140/2/2
f 140/2/2 139/2/2 141/2/2
f 142/2/2 143/2/2 144/2/2
f 144/2/2 143/2/2 145/2/2
f 146/2/2 147/2/2 148/2/2
f 148/2/2 147/2/2 149/2/2
f 150/2/2 151/2/2 152/2/2
f 152/2/2 151/2/2 153/2/2
f 154/2/2 155/2/2 156/2/2
f 156/2/2 155/2/2 157/2/2
f 158/3/2 159/3/2 161/3/2
f 161/3/2 159/3/2 162/3/2
f 160/2/2 161/2/2 163/2/2
f 163/2/2 161/2/2 164/2/2
f 165/2/2 166/2/2 167/2/2
f 167/2/2 166/2/2 168/2/2
f 169/3/2 170/3/2 171/3/2
f 171/3/2 170/3/2 172/3/2
f 173/3/2 174/3/2 176/3/2
f 176/3/2 174/3/2 177/3/2
f 175/2/2 176/2/2 178/2/2
f 178/2/2 176/2/2 179/2/2
f 180/3/2 181/3/2 182/3/2
f 182/3/2 181/3/2 183/3/2
f 184/3/2 185/3/2 187/3/2
f 187/3/2 185/3/2 188/3/2
f 186/2/2 187/2/2 189/2/2
f 189/2/2 187/2/2 190/2/2
f 191/2/2 192/2/2 193/2/2
f 191/2/2 193/2/2 195/2/2
f 193/3/2 194/3/2 196/3/2
f 195/2/2 193/2/2 196/2/2
f 196/3/2 194/3/2 197/3/2
f 197/3/2 194/3/2 198/3/2
f 199/3/2 200/3/2 202/3/2
f 202/3/2 200/3/2 203/3/2
f 201/2/2 202/2/2 204/2/2
f 204/2/2 202/2/2 205/2/2
f 205/3/2 206/3/2 207/3/2
f 207/3/2 206/3/2 208/3/2
f 209/3/2 210/3/2 211/3/2
f 211/3/2 210/3/2 212/3/2
f 216/2/3 214/2/3 213/2/3
f 217/2/3 214/2/3 216/2/3
f 219/2/3 216/2/3 215/2/3
f 219/2/3 218/2/3 217/2/3
f 219/2/3 217/2/3 216/2/3
f 220/2/3 218/2/3 219/2/3
f 221/2/3 218/2/3 220/2/3
f 225/2/3 222/2/3 221/2/3
f 225/2/3 221/2/3 220/2/3
f 226/2/3 222/2/3 225/2/3
f 228/2/3 224/2/3 223/2/3
f 229/2/3 224/2/3 228/2/3
f 231/2/3 222/2/3 226/2/3
f 232/2/3 222/2/3 231/2/3
f 233/2/3 222/2/3 232/2/3
f 237/2/3 234/2/3 233/2/3
f 237/2/3 233/2/3 232/2/3
f 238/2/3 234/2/3 237/2/3
f 239/2/3 230/2/3 229/2/3
f 239/2/3 228/2/3 227/2/3
f 239/2/3 229/2/3 228/2/3
f 241/2/3 236/2/3 235/2/3
f 242/2/3 236/2/3 241/2/3
f 244/2/3 234/2/3 238/2/3
f 245/2/3 234/2/3 244/2/3
f 246/2/3 243/2/3 242/2/3
f 247/2/3 243/2/3 246/2/3
f 249/2/3 234/2/3 245/2/3
f 250/2/3 234/2/3 249/2/3
f 251/2/3 248/2/3 247/2/3
f 252/2/3 248/2/3 251/2/3
f 254/2/3 240/2/3 239/2/3
f 256/2/3 253/2/3 252/2/3
f 257/2/3 253/2/3 256/2/3
f 259/2/3 234/2/3 250/2/3
f 260/2/3 234/2/3 259/2/3
f 261/2/3 255/2/3 254/2/3
f 263/2/3 258/2/3 257/2/3
f 264/2/3 258/2/3 263/2/3
f 266/2/3 262/2/3 261/2/3
f 266/2/3 239/2/3 227/2/3
f 266/2/3 254/2/3 239/2/3
f 266/2/3 261/2/3 254/2/3
f 267/2/3 262/2/3 266/2/3
f 268/2/3 262/2/3 267/2/3
f 270/2/3 265/2/3 264/2/3
f 271/2/3 265/2/3 270/2/3
f 272/2/3 269/2/3 268/2/3
f 272/2/3 268/2/3 267/2/3
f 274/2/3 272/2/3 267/2/3
f 274/2/3 273/2/3 272/2/3
f 275/2/3 273/2/3 274/2/3
f 276/2/3 273/2/3 275/2/3
f 278/2/3 277/2/3 276/2/3
f 278/2/3 276/2/3 275/2/3
f 279/2/3 277/2/3 278/2/3
f 280/2/3 277/2/3 279/2/3
f 281/2/3 277/2/3 280/2/3
f 282/2/3 280/2/3 279/2/3
f 283/2/3 280/2/3 282/2/3
f 287/3/3 285/3/3 284/3/3
f 288/3/3 285/3/3 287/3/3
f 291/3/3 287/3/3 286/3/3
f 292/3/3 287/3/3 291/3/3
f 293/3/3 289/3/3 288/3/3
f 294/3/3 289/3/3 293/3/3
f 297/3/3 291/3/3 290/3/3
f 298/3/3 291/3/3 297/3/3
f 300/3/3 295/3/3 294/3/3
f 301/3/3 295/3/3 300/3/3
f 303/1/3 299/1/3 298/1/3
f 303/3/3 297/3/3 296/3/3
f 303/1/3 298/1/3 297/1/3
f 304/1/3 299/1/3 303/1/3
f 305/1/3 299/1/3 304/1/3
f 308/3/3 303/3/3 296/3/3
f 309/3/3 303/3/3 308/3/3
f 310/1/3 305/1/3 304/1/3
f 310/1/3 306/1/3 305/1/3
f 311/1/3 306/1/3 310/1/3
f 312/1/3 306/1/3 311/1/3
f 314/3/3 302/3/3 301/3/3
f 315/3/3 302/3/3 314/3/3
f 317/1/3 313/1/3 312/1/3
f 317/1/3 312/1/3 311/1/3
f 318/1/3 313/1/3 317/1/3
f 319/1/3 313/1/3 318/1/3
f 321/1/3 317/1/3 311/1/3
f 322/1/3 317/1/3 321/1/3
f 323/1/3 317/1/3 322/1/3
f 324/1/3 320/1/3 319/1/3
f 324/1/3 319/1/3 318/1/3
f 325/1/3 320/1/3 324/1/3
f 326/1/3 320/1/3 325/1/3
f 328/1/3 323/1/3 322/1/3
f 328/1/3 324/1/3 323/1/3
f 329/1/3 327/1/3 326/1/3
f 329/1/3 326/1/3 325/1/3
f 330/1/3 327/1/3 329/1/3
f 331/1/3 327/1/3 330/1/3
f 333/1/3 329/1/3 328/1/3
f 334/1/3 332/1/3 331/1/3
f 334/1/3 331/1/3 330/1/3
f 335/1/3 332/1/3 334/1/3
f 336/1/3 328/1/3 322/1/3
f 336/1/3 333/1/3 328/1/3
f 336/1/3 334/1/3 333/1/3
f 337/1/3 334/1/3 336/1/3
f 338/1/3 334/1/3 337/1/3
f 339/1/3 332/1/3 335/1/3
f 340/1/3 332/1/3 339/1/3
f 341/1/3 332/1/3 340/1/3
f 342/3/3 316/3/3 315/3/3
f 343/1/3 338/1/3 337/1/3
f 343/1/3 339/1/3 338/1/3
f 344/1/3 339/1/3 343/1/3
f 345/1/3 339/1/3 344/1/3
f 346/1/3 341/1/3 340/1/3
f 346/1/3 342/1/3 341/1/3
f 347/1/3 342/1/3 346/1/3
f 348/3/3 308/3/3 307/3/3
f 349/3/3 308/3/3 348/3/3
f 351/1/3 345/1/3 344/1/3
f 351/1/3 346/1/3 345/1/3
f 352/1/3 346/1/3 351/1/3
f 353/1/3 346/1/3 352/1/3
f 354/1/3 342/1/3 347/1/3
f 355/3/3 316/3/3 342/3/3
f 355/1/3 342/1/3 354/1/3
f 356/3/3 316/3/3 355/3/3
f 357/1/3 353/1/3 352/1/3
f 357/1/3 355/1/3 354/1/3
f 357/1/3 354/1/3 353/1/3
f 358/1/3 355/1/3 357/1/3
f 359/1/3 355/1/3 358/1/3
f 360/1/3 355/1/3 359/1/3
f 361/3/3 350/3/3 349/3/3
f 362/3/3 350/3/3 361/3/3
f 364/1/3 359/1/3 358/1/3
f 365/1/3 359/1/3 364/1/3
f 366/3/3 360/3/3 359/3/3
f 366/1/3 359/1/3 365/1/3
f 367/3/3 360/3/3 366/3/3
f 368/3/3 363/3/3 362/3/3
f 369/3/3 363/3/3 368/3/3
f 373/3/3 366/3/3 365/3/3
f 374/3/3 366/3/3 373/3/3
f 375/3/3 370/3/3 369/3/3
f 376/3/3 370/3/3 375/3/3
f 377/3/3 372/3/3 371/3/3
f 378/3/3 372/3/3 377/3/3
f 379/3/3 377/3/3 376/3/3
f 380/3/3 377/3/3 379/3/3
f 381/3/4 382/3/4 384/3/4
f 384/3/4 382/3/4 385/3/4
f 383/3/4 384/3/4 388/3/4
f 385/3/4 386/3/4 388/3/4
f 384/3/4 385/3/4 388/3/4
f 388/3/4 386/3/4 389/3/4
f 389/3/4 386/3/4 390/3/4
f 390/3/4 386/3/4 391/3/4
f 387/3/4 388/3/4 394/3/4
f 388/3/4 389/3/4 394/3/4
f 389/1/4 390/1/4 395/1/4
f 394/3/4 389/3/4 395/3/4
f 391/3/4 392/3/4 396/3/4
f 395/1/4 390/1/4 396/1/4
f 390/3/4 391/3/4 396/3/4
f 396/3/4 392/3/4 397/3/4
f 397/3/4 392/3/4 398/3/4
f 394/1/4 395/1/4 400/1/4
f 393/3/4 394/3/4 400/3/4
f 395/1/4 396/1/4 400/1/4
f 396/1/4 397/1/4 400/1/4
f 400/1/4 397/1/4 401/1/4
f 398/3/4 399/3/4 402/3/4
f 401/1/4 397/1/4 402/1/4
f 397/3/4 398/3/4 402/3/4
f 402/3/4 399/3/4 403/3/4
f 400/3/4 401/3/4 405/3/4
f 393/3/4 400/3/4 405/3/4
f 403/3/4 399/3/4 406/3/4
f 404/3/4 405/3/4 408/3/4
f 405/3/4 401/3/4 408/3/4
f 402/1/4 403/1/4 409/1/4
f 408/3/4 401/3/4 409/3/4
f 401/1/4 402/1/4 409/1/4
f 406/3/4 407/3/4 410/3/4
f 409/1/4 403/1/4 410/1/4
f 403/3/4 406/3/4 410/3/4
f 410/3/4 407/3/4 411/3/4
f 404/3/4 408/3/4 412/3/4
f 412/3/4 408/3/4 413/3/4
f 408/1/4 409/1/4 414/1/4
f 413/3/4 408/3/4 414/3/4
f 409/1/4 410/1/4 414/1/4
f 410/1/4 411/1/4 414/1/4
f 414/1/4 411/1/4 415/1/4
f 411/3/4 407/3/4 416/3/4
f 415/1/4 411/1/4 416/1/4
f 416/3/4 407/3/4 417/3/4
f 415/1/4 416/1/4 418/1/4
f 418/1/4 416/1/4 419/1/4
f 414/3/4 415/3/4 420/3/4
f 413/3/4 414/3/4 420/3/4
f 420/3/4 415/3/4 421/3/4
f 415/1/4 418/1/4 422/1/4
f 421/3/4 415/3/4 422/3/4
f 422/1/4 418/1/4 423/1/4
f 423/1/4 418/1/4 424/1/4
f 418/3/4 419/3/4 425/3/4
f 424/1/4 418/1/4 425/1/4
f 425/3/4 419/3/4 426/3/4
f 421/3/4 422/3/4 427/3/4
f 422/3/4 423/3/4 427/3/4
f 427/3/4 423/3/4 428/3/4
f 423/1/4 424/1/4 429/1/4
f 428/3/4 423/3/4 429/3/4
f 424/3/4 425/3/4 430/3/4
f 429/1/4 424/1/4 430/1/4
f 430/3/4 425/3/4 431/3/4
f 431/3/4 425/3/4 432/3/4
f 428/3/4 429/3/4 433/3/4
f 430/3/4 431/3/4 433/3/4
f 429/3/4 430/3/4 433/3/4
f 433/3/4 431/3/4 434/3/4
f 434/3/4 431/3/4 435/3/4
f 435/3/4 431/3/4 436/3/4
f 434/3/4 435/3/4 437/3/4
f 437/3/4 435/3/4 438/3/4
f 441/3/5 440/3/5 439/3/5
f 442/3/5 440/3/5 441/3/5
f 446/2/5 444/2/5 443/2/5
f 447/2/5 444/2/5 446/2/5
f 449/3/5 446/3/5 445/3/5
f 450/3/5 446/3/5 449/3/5
f 451/3/5 448/3/5 447/3/5
f 452/3/5 448/3/5 451/3/5
f 459/2/5 454/2/5 453/2/5
f 460/2/5 454/2/5 459/2/5
f 461/2/5 456/2/5 455/2/5
f 462/2/5 456/2/5 461/2/5
f 464/3/5 458/3/5 457/3/5
f 465/3/5 458/3/5 464/3/5
f 466/3/5 463/3/5 462/3/5
f 467/3/5 463/3/5 466/3/5
f 473/2/5 469/2/5 468/2/5
f 474/2/5 469/2/5 473/2/5
f 475/2/5 471/2/5 470/2/5
f 476/2/5 471/2/5 475/2/5
f 478/3/5 473/3/5 472/3/5
f 479/3/5 473/3/5 478/3/5
f 480/3/5 477/3/5 476/3/5
f 481/3/5 477/3/5 480/3/5
f 484/2/5 483/2/5 482/2/5
f 485/2/5 483/2/5 484/2/5
f 491/2/5 487/2/5 486/2/5
f 492/2/5 487/2/5 491/2/5
f 493/2/5 489/2/5 488/2/5
f 494/2/5 489/2/5 493/2/5
f 496/3/5 491/3/5 490/3/5
f 497/3/5 491/3/5 496/3/5
f 498/3/5 495/3/5 494/3/5
f 499/3/5 495/3/5 498/3/5
f 502/2/5 501/2/5 500/2/5
f 503/2/5 501/2/5 502/2/5
f 506/2/5 505/2/5 504/2/5
f 507/2/5 505/2/5 506/2/5
f 510/2/5 509/2/5 508/2/5
f 511/2/5 509/2/5 510/2/5
f 516/2/5 513/2/5 512/2/5
f 517/2/5 513/2/5 516/2/5
f 518/2/5 515/2/5 514/2/5
f 519/2/5 515/2/5 518/2/5
f 524/2/5 521/2/5 520/2/5
f 525/2/5 521/2/5 524/2/5
f 526/2/5 523/2/5 522/2/5
f 527/2/5 523/2/5 526/2/5
f 532/2/5 529/2/5 528/2/5
f 533/2/5 529/2/5 532/2/5
f 534/2/5 531/2/5 530/2/5
f 535/2/5 531/2/5 534/2/5
f 538/2/5 537/2/5 536/2/5
f 539/2/5 537/2/5 538/2/5
f 542/2/5 541/2/5 540/2/5
f 543/2/5 541/2/5 542/2/5
f 544/2/6 545/2/6 546/2/6
f 546/2/6 545/2/6 547/2/6
f 548/2/6 549/2/6 550/2/6
f 550/2/6 549/2/6 551/2/6
f 552/2/6 553/2/6 554/2/6
f 554/2/6 553/2/6 555/2/6
f 556/2/6 557/2/6 558/2/6
f 558/2/6 557/2/6 559/2/6
f 560/2/6 561/2/6 564/2/6
f 564/2/6 561/2/6 565/2/6
f 562/2/6 563/2/6 566/2/6
f 566/2/6 563/2/6 567/2/6
f 568/2/6 569/2/6 572/2/6
f 572/2/6 569/2/6 573/2/6
f 570/2/6 571/2/6 574/2/6
f 574/2/6 571/2/6 575/2/6
f 576/2/6 577/2/6 578/2/6
f 578/2/6 577/2/6 579/2/6
f 580/2/6 581/2/6 584/2/6
f 584/2/6 581/2/6 585/2/6
f 582/2/6 583/2/6 586/2/6
f 586/2/6 583/2/6 587/2/6
f 588/2/6 589/2/6 593/2/6
f 593/2/6 589/2/6 594/2/6
f 590/2/6 591/2/6 595/2/6
f 595/2/6 591/2/6 596/2/6
f 592/3/6 593/3/6 598/3/6
f 598/3/6 593/3/6 599/3/6
f 596/3/6 597/3/6 600/3/6
f 600/3/6 597/3/6 601/3/6
f 602/2/6 603/2/6 604/2/6
f 604/2/6 603/2/6 605/2/6
f 606/3/6 607/3/6 608/3/6
f 608/3/6 607/3/6 609/3/6
f 610/2/6 611/2/6 617/2/6
f 617/2/6 611/2/6 618/2/6
f 612/2/6 613/2/6 619/2/6
f 619/2/6 613/2/6 620/2/6
f 614/2/6 615/2/6 621/2/6
f 621/2/6 615/2/6 622/2/6
f 616/3/6 617/3/6 623/3/6
f 623/3/6 617/3/6 624/3/6
f 625/2/6 626/2/6 628/2/6
f 628/2/6 626/2/6 629/2/6
f 627/3/6 628/3/6 632/3/6
f 632/3/6 628/3/6 633/3/6
f 630/3/6 631/3/6 634/3/6
f 634/3/6 631/3/6 635/3/6
f 636/2/6 637/2/6 639/2/6
f 639/2/6 637/2/6 640/2/6
f 638/3/6 639/3/6 644/3/6
f 644/3/6 639/3/6 645/3/6
f 641/1/6 642/1/6 646/1/6
f 642/3/6 643/3/6 647/3/6
f 646/1/6 642/1/6 647/1/6
f 647/3/6 643/3/6 648/3/6
f 649/3/6 650/3/6 651/3/6
f 651/3/6 650/3/6 652/3/6
