# MagicaVoxel @ Ephtracy

# group
o body

# material
mtllib poliwag-icon-1-body.mtl
usemtl palette

# normals
vn 0 0 -1
vn 0 0 1
vn -1 0 0
vn 1 0 0
vn 0 -1 0
vn 0 1 0

# texcoords
vt 0.853516 0.5
vt 0.876953 0.5
vt 0.880859 0.5
vt 0.884766 0.5
vt 0.888672 0.5
vt 0.994141 0.5

# verts
v -0.8 1.2 -2.4
v 0.9 1.2 -2.4
v -0.9 1.3 -2.4
v -0.8 1.3 -2.4
v -0.7 1.3 -2.4
v -0.3 1.3 -2.4
v 0.3 1.3 -2.4
v 0.7 1.3 -2.4
v -1 1.4 -2.4
v -0.9 1.4 -2.4
v -0.8 1.4 -2.4
v -0.7 1.4 -2.4
v -0.4 1.4 -2.4
v -0.3 1.4 -2.4
v 0.3 1.4 -2.4
v 0.4 1.4 -2.4
v 0.7 1.4 -2.4
v 0.8 1.4 -2.4
v 0.9 1.4 -2.4
v 1 1.4 -2.4
v -1.1 1.5 -2.4
v -1 1.5 -2.4
v -0.9 1.5 -2.4
v -0.8 1.5 -2.4
v -0.4 1.5 -2.4
v 0.4 1.5 -2.4
v 0.8 1.5 -2.4
v 0.9 1.5 -2.4
v 1 1.5 -2.4
v 1.1 1.5 -2.4
v -1 1.6 -2.4
v -0.9 1.6 -2.4
v 0.9 1.6 -2.4
v 1 1.6 -2.4
v -1 3.6 -2.4
v -0.9 3.6 -2.4
v 0.9 3.6 -2.4
v 1 3.6 -2.4
v -1.1 3.7 -2.4
v -1 3.7 -2.4
v -0.9 3.7 -2.4
v -0.8 3.7 -2.4
v 0.8 3.7 -2.4
v 0.9 3.7 -2.4
v 1 3.7 -2.4
v 1.1 3.7 -2.4
v -1 3.8 -2.4
v -0.9 3.8 -2.4
v -0.8 3.8 -2.4
v -0.7 3.8 -2.4
v 0.7 3.8 -2.4
v 0.8 3.8 -2.4
v 0.9 3.8 -2.4
v 1 3.8 -2.4
v -0.9 3.9 -2.4
v -0.8 3.9 -2.4
v -0.7 3.9 -2.4
v 0.7 3.9 -2.4
v 0.8 3.9 -2.4
v 0.9 3.9 -2.4
v -0.8 4 -2.4
v 0.8 4 -2.4
v -0.8 1.2 -2.3
v 0.9 1.2 -2.3
v -0.9 1.3 -2.3
v -0.8 1.3 -2.3
v -0.7 1.3 -2.3
v -0.3 1.3 -2.3
v 0.3 1.3 -2.3
v 0.7 1.3 -2.3
v -1 1.4 -2.3
v -0.9 1.4 -2.3
v -0.8 1.4 -2.3
v -0.7 1.4 -2.3
v -0.4 1.4 -2.3
v -0.3 1.4 -2.3
v 0.3 1.4 -2.3
v 0.4 1.4 -2.3
v 0.7 1.4 -2.3
v 0.8 1.4 -2.3
v 0.9 1.4 -2.3
v 1 1.4 -2.3
v -1.1 1.5 -2.3
v -1 1.5 -2.3
v -0.9 1.5 -2.3
v -0.8 1.5 -2.3
v -0.5 1.5 -2.3
v -0.4 1.5 -2.3
v 0.4 1.5 -2.3
v 0.5 1.5 -2.3
v 0.8 1.5 -2.3
v 0.9 1.5 -2.3
v 1 1.5 -2.3
v 1.1 1.5 -2.3
v -1 1.6 -2.3
v -0.9 1.6 -2.3
v -0.8 1.6 -2.3
v 0.8 1.6 -2.3
v 0.9 1.6 -2.3
v 1 1.6 -2.3
v -1 3.6 -2.3
v -0.9 3.6 -2.3
v -0.8 3.6 -2.3
v 0.8 3.6 -2.3
v 0.9 3.6 -2.3
v 1 3.6 -2.3
v -1.1 3.7 -2.3
v -1 3.7 -2.3
v -0.9 3.7 -2.3
v -0.8 3.7 -2.3
v -0.7 3.7 -2.3
v 0.7 3.7 -2.3
v 0.8 3.7 -2.3
v 0.9 3.7 -2.3
v 1 3.7 -2.3
v 1.1 3.7 -2.3
v -1 3.8 -2.3
v -0.9 3.8 -2.3
v -0.8 3.8 -2.3
v -0.7 3.8 -2.3
v 0.7 3.8 -2.3
v 0.8 3.8 -2.3
v 0.9 3.8 -2.3
v 1 3.8 -2.3
v -0.9 3.9 -2.3
v -0.8 3.9 -2.3
v -0.7 3.9 -2.3
v 0.7 3.9 -2.3
v 0.8 3.9 -2.3
v 0.9 3.9 -2.3
v -0.8 4 -2.3
v 0.8 4 -2.3
v -0.8 1.5 -2.2
v -0.7 1.5 -2.2
v 0.7 1.5 -2.2
v 0.8 1.5 -2.2
v -0.9 1.6 -2.2
v -0.8 1.6 -2.2
v -0.7 1.6 -2.2
v 0.7 1.6 -2.2
v 0.8 1.6 -2.2
v 0.9 1.6 -2.2
v -0.9 1.7 -2.2
v -0.8 1.7 -2.2
v 0.8 1.7 -2.2
v 0.9 1.7 -2.2
v -0.9 3.5 -2.2
v -0.8 3.5 -2.2
v 0.8 3.5 -2.2
v 0.9 3.5 -2.2
v -0.9 3.6 -2.2
v -0.8 3.6 -2.2
v -0.7 3.6 -2.2
v 0.7 3.6 -2.2
v 0.8 3.6 -2.2
v 0.9 3.6 -2.2
v -0.8 3.7 -2.2
v -0.7 3.7 -2.2
v 0.7 3.7 -2.2
v 0.8 3.7 -2.2
v -0.7 3.8 -2.2
v 0.7 3.8 -2.2
v -0.7 1.5 -2.1
v -0.6 1.5 -2.1
v 0.6 1.5 -2.1
v 0.7 1.5 -2.1
v -0.8 1.6 -2.1
v -0.7 1.6 -2.1
v -0.6 1.6 -2.1
v -0.5 1.6 -2.1
v -0.4 1.6 -2.1
v 0.6 1.6 -2.1
v 0.7 1.6 -2.1
v 0.8 1.6 -2.1
v -0.9 1.7 -2.1
v -0.8 1.7 -2.1
v -0.6 1.7 -2.1
v -0.5 1.7 -2.1
v -0.4 1.7 -2.1
v -0.3 1.7 -2.1
v 0.4 1.7 -2.1
v 0.8 1.7 -2.1
v 0.9 1.7 -2.1
v -0.8 1.8 -2.1
v -0.7 1.8 -2.1
v -0.4 1.8 -2.1
v -0.3 1.8 -2.1
v 0.4 1.8 -2.1
v 0.5 1.8 -2.1
v 0.7 1.8 -2.1
v 0.8 1.8 -2.1
v -0.2 1.9 -2.1
v 0.2 1.9 -2.1
v -0.1 2 -2.1
v 0.2 2 -2.1
v 0.3 2 -2.1
v 0 2.1 -2.1
v 0.1 2.1 -2.1
v -0.1 2.2 -2.1
v 0 2.2 -2.1
v -0.2 2.3 -2.1
v 0.1 2.3 -2.1
v -0.8 2.4 -2.1
v -0.7 2.4 -2.1
v -0.4 2.4 -2.1
v -0.3 2.4 -2.1
v 0.2 2.4 -2.1
v 0.7 2.4 -2.1
v 0.8 2.4 -2.1
v -0.6 2.5 -2.1
v -0.5 2.5 -2.1
v -0.4 2.5 -2.1
v -0.3 2.5 -2.1
v 0.3 2.5 -2.1
v 0.6 2.5 -2.1
v 0.7 2.5 -2.1
v -0.7 2.6 -2.1
v -0.6 2.6 -2.1
v -0.5 2.6 -2.1
v -0.4 2.6 -2.1
v 0.4 2.6 -2.1
v 0.5 2.6 -2.1
v -0.6 2.7 -2.1
v -0.5 2.7 -2.1
v -0.4 2.7 -2.1
v -0.2 2.7 -2.1
v 0.2 2.7 -2.1
v 0.4 2.7 -2.1
v 0.5 2.7 -2.1
v 0.6 2.7 -2.1
v -0.5 2.8 -2.1
v -0.3 2.8 -2.1
v -0.1 2.8 -2.1
v 0.1 2.8 -2.1
v 0.3 2.8 -2.1
v 0.5 2.8 -2.1
v -0.3 2.9 -2.1
v -0.2 2.9 -2.1
v -0.1 2.9 -2.1
v 0.1 2.9 -2.1
v 0.2 2.9 -2.1
v 0.3 2.9 -2.1
v -0.2 3 -2.1
v 0.2 3 -2.1
v -0.6 3.1 -2.1
v -0.2 3.1 -2.1
v 0.2 3.1 -2.1
v 0.6 3.1 -2.1
v -0.4 3.2 -2.1
v -0.2 3.2 -2.1
v 0.2 3.2 -2.1
v 0.4 3.2 -2.1
v -0.5 3.3 -2.1
v -0.4 3.3 -2.1
v 0.4 3.3 -2.1
v 0.5 3.3 -2.1
v -0.3 3.4 -2.1
v -0.2 3.4 -2.1
v 0.2 3.4 -2.1
v 0.3 3.4 -2.1
v -0.9 3.5 -2.1
v -0.8 3.5 -2.1
v -0.5 3.5 -2.1
v -0.4 3.5 -2.1
v 0.4 3.5 -2.1
v 0.5 3.5 -2.1
v 0.8 3.5 -2.1
v 0.9 3.5 -2.1
v -0.8 3.6 -2.1
v -0.7 3.6 -2.1
v -0.6 3.6 -2.1
v -0.5 3.6 -2.1
v -0.4 3.6 -2.1
v -0.3 3.6 -2.1
v -0.2 3.6 -2.1
v 0.2 3.6 -2.1
v 0.3 3.6 -2.1
v 0.4 3.6 -2.1
v 0.5 3.6 -2.1
v 0.6 3.6 -2.1
v 0.7 3.6 -2.1
v 0.8 3.6 -2.1
v -0.7 3.7 -2.1
v 0.7 3.7 -2.1
v -0.2 2.7 -2
v 0.2 2.7 -2
v -0.1 2.8 -2
v 0.1 2.8 -2
v -0.1 2.9 -2
v 0.1 2.9 -2
v -0.2 3 -2
v 0.2 3 -2
v -1.1 1.5 -2.4
v -1.1 3.7 -2.4
v -1.1 1.5 -2.3
v -1.1 3.7 -2.3
v -1 1.4 -2.4
v -1 1.5 -2.4
v -1 3.7 -2.4
v -1 3.8 -2.4
v -1 1.4 -2.3
v -1 1.5 -2.3
v -1 3.7 -2.3
v -1 3.8 -2.3
v -0.9 1.3 -2.4
v -0.9 1.4 -2.4
v -0.9 3.8 -2.4
v -0.9 3.9 -2.4
v -0.9 1.3 -2.3
v -0.9 1.4 -2.3
v -0.9 1.6 -2.3
v -0.9 3.6 -2.3
v -0.9 3.8 -2.3
v -0.9 3.9 -2.3
v -0.9 1.6 -2.2
v -0.9 1.7 -2.2
v -0.9 3.5 -2.2
v -0.9 3.6 -2.2
v -0.9 1.7 -2.1
v -0.9 3.5 -2.1
v -0.8 1.2 -2.4
v -0.8 1.3 -2.4
v -0.8 3.9 -2.4
v -0.8 4 -2.4
v -0.8 1.2 -2.3
v -0.8 1.3 -2.3
v -0.8 1.5 -2.3
v -0.8 1.6 -2.3
v -0.8 3.6 -2.3
v -0.8 3.7 -2.3
v -0.8 3.9 -2.3
v -0.8 4 -2.3
v -0.8 1.5 -2.2
v -0.8 1.6 -2.2
v -0.8 1.7 -2.2
v -0.8 3.5 -2.2
v -0.8 3.6 -2.2
v -0.8 3.7 -2.2
v -0.8 1.6 -2.1
v -0.8 1.7 -2.1
v -0.8 3.5 -2.1
v -0.8 3.6 -2.1
v -0.7 3.7 -2.3
v -0.7 3.8 -2.3
v -0.7 1.5 -2.2
v -0.7 1.6 -2.2
v -0.7 3.6 -2.2
v -0.7 3.7 -2.2
v -0.7 3.8 -2.2
v -0.7 1.5 -2.1
v -0.7 1.6 -2.1
v -0.7 3.6 -2.1
v -0.7 3.7 -2.1
v -0.2 2.7 -2.1
v -0.2 2.9 -2.1
v -0.2 3 -2.1
v -0.2 2.7 -2
v -0.2 3 -2
v 0.1 2.8 -2.1
v 0.1 2.9 -2.1
v 0.1 2.8 -2
v 0.1 2.9 -2
v -0.1 2.8 -2.1
v -0.1 2.9 -2.1
v -0.1 2.8 -2
v -0.1 2.9 -2
v 0.2 2.7 -2.1
v 0.2 2.9 -2.1
v 0.2 3 -2.1
v 0.2 2.7 -2
v 0.2 3 -2
v 0.7 3.7 -2.3
v 0.7 3.8 -2.3
v 0.7 1.5 -2.2
v 0.7 1.6 -2.2
v 0.7 3.6 -2.2
v 0.7 3.7 -2.2
v 0.7 3.8 -2.2
v 0.7 1.5 -2.1
v 0.7 1.6 -2.1
v 0.7 3.6 -2.1
v 0.7 3.7 -2.1
v 0.8 3.9 -2.4
v 0.8 4 -2.4
v 0.8 1.5 -2.3
v 0.8 1.6 -2.3
v 0.8 3.6 -2.3
v 0.8 3.7 -2.3
v 0.8 3.9 -2.3
v 0.8 4 -2.3
v 0.8 1.5 -2.2
v 0.8 1.6 -2.2
v 0.8 1.7 -2.2
v 0.8 3.5 -2.2
v 0.8 3.6 -2.2
v 0.8 3.7 -2.2
v 0.8 1.6 -2.1
v 0.8 1.7 -2.1
v 0.8 3.5 -2.1
v 0.8 3.6 -2.1
v 0.9 1.2 -2.4
v 0.9 1.4 -2.4
v 0.9 3.8 -2.4
v 0.9 3.9 -2.4
v 0.9 1.2 -2.3
v 0.9 1.4 -2.3
v 0.9 1.6 -2.3
v 0.9 3.6 -2.3
v 0.9 3.8 -2.3
v 0.9 3.9 -2.3
v 0.9 1.6 -2.2
v 0.9 1.7 -2.2
v 0.9 3.5 -2.2
v 0.9 3.6 -2.2
v 0.9 1.7 -2.1
v 0.9 3.5 -2.1
v 1 1.4 -2.4
v 1 1.5 -2.4
v 1 3.7 -2.4
v 1 3.8 -2.4
v 1 1.4 -2.3
v 1 1.5 -2.3
v 1 3.7 -2.3
v 1 3.8 -2.3
v 1.1 1.5 -2.4
v 1.1 3.7 -2.4
v 1.1 1.5 -2.3
v 1.1 3.7 -2.3
v -0.8 1.2 -2.4
v -0.8 1.2 -2.3
v 0.9 1.2 -2.4
v 0.9 1.2 -2.3
v -0.9 1.3 -2.4
v -0.9 1.3 -2.3
v -0.8 1.3 -2.4
v -0.8 1.3 -2.3
v -1 1.4 -2.4
v -1 1.4 -2.3
v -0.9 1.4 -2.4
v -0.9 1.4 -2.3
v 0.9 1.4 -2.4
v 0.9 1.4 -2.3
v 1 1.4 -2.4
v 1 1.4 -2.3
v -1.1 1.5 -2.4
v -1.1 1.5 -2.3
v -1 1.5 -2.4
v -1 1.5 -2.3
v -0.8 1.5 -2.3
v -0.8 1.5 -2.2
v -0.7 1.5 -2.2
v -0.7 1.5 -2.1
v -0.6 1.5 -2.2
v -0.6 1.5 -2.1
v -0.5 1.5 -2.3
v -0.5 1.5 -2.2
v -0.4 1.5 -2.3
v 0.4 1.5 -2.3
v 0.5 1.5 -2.3
v 0.5 1.5 -2.2
v 0.6 1.5 -2.2
v 0.6 1.5 -2.1
v 0.7 1.5 -2.2
v 0.7 1.5 -2.1
v 0.8 1.5 -2.3
v 0.8 1.5 -2.2
v 1 1.5 -2.4
v 1 1.5 -2.3
v 1.1 1.5 -2.4
v 1.1 1.5 -2.3
v -0.9 1.6 -2.3
v -0.9 1.6 -2.2
v -0.8 1.6 -2.3
v -0.8 1.6 -2.2
v -0.8 1.6 -2.1
v -0.7 1.6 -2.2
v -0.7 1.6 -2.1
v 0.7 1.6 -2.2
v 0.7 1.6 -2.1
v 0.8 1.6 -2.3
v 0.8 1.6 -2.2
v 0.8 1.6 -2.1
v 0.9 1.6 -2.3
v 0.9 1.6 -2.2
v -0.9 1.7 -2.2
v -0.9 1.7 -2.1
v -0.8 1.7 -2.2
v -0.8 1.7 -2.1
v 0.8 1.7 -2.2
v 0.8 1.7 -2.1
v 0.9 1.7 -2.2
v 0.9 1.7 -2.1
v -0.2 2.7 -2.1
v -0.2 2.7 -2
v 0.2 2.7 -2.1
v 0.2 2.7 -2
v -0.1 2.9 -2.1
v -0.1 2.9 -2
v 0.1 2.9 -2.1
v 0.1 2.9 -2
v -0.1 2.8 -2.1
v -0.1 2.8 -2
v 0.1 2.8 -2.1
v 0.1 2.8 -2
v -0.2 3 -2.1
v -0.2 3 -2
v 0.2 3 -2.1
v 0.2 3 -2
v -0.9 3.5 -2.2
v -0.9 3.5 -2.1
v -0.8 3.5 -2.2
v -0.8 3.5 -2.1
v 0.8 3.5 -2.2
v 0.8 3.5 -2.1
v 0.9 3.5 -2.2
v 0.9 3.5 -2.1
v -0.9 3.6 -2.3
v -0.9 3.6 -2.2
v -0.8 3.6 -2.3
v -0.8 3.6 -2.2
v -0.8 3.6 -2.1
v -0.7 3.6 -2.2
v -0.7 3.6 -2.1
v 0.7 3.6 -2.2
v 0.7 3.6 -2.1
v 0.8 3.6 -2.3
v 0.8 3.6 -2.2
v 0.8 3.6 -2.1
v 0.9 3.6 -2.3
v 0.9 3.6 -2.2
v -1.1 3.7 -2.4
v -1.1 3.7 -2.3
v -1 3.7 -2.4
v -1 3.7 -2.3
v -0.8 3.7 -2.3
v -0.8 3.7 -2.2
v -0.7 3.7 -2.3
v -0.7 3.7 -2.2
v -0.7 3.7 -2.1
v 0.7 3.7 -2.3
v 0.7 3.7 -2.2
v 0.7 3.7 -2.1
v 0.8 3.7 -2.3
v 0.8 3.7 -2.2
v 1 3.7 -2.4
v 1 3.7 -2.3
v 1.1 3.7 -2.4
v 1.1 3.7 -2.3
v -1 3.8 -2.4
v -1 3.8 -2.3
v -0.9 3.8 -2.4
v -0.9 3.8 -2.3
v -0.7 3.8 -2.3
v -0.7 3.8 -2.2
v 0.7 3.8 -2.3
v 0.7 3.8 -2.2
v 0.9 3.8 -2.4
v 0.9 3.8 -2.3
v 1 3.8 -2.4
v 1 3.8 -2.3
v -0.9 3.9 -2.4
v -0.9 3.9 -2.3
v -0.8 3.9 -2.4
v -0.8 3.9 -2.3
v 0.8 3.9 -2.4
v 0.8 3.9 -2.3
v 0.9 3.9 -2.4
v 0.9 3.9 -2.3
v -0.8 4 -2.4
v -0.8 4 -2.3
v 0.8 4 -2.4
v 0.8 4 -2.3

# faces
f 4/6/1 2/6/1 1/6/1
f 5/6/1 2/6/1 4/6/1
f 6/6/1 2/6/1 5/6/1
f 7/6/1 2/6/1 6/6/1
f 8/6/1 2/6/1 7/6/1
f 10/6/1 4/6/1 3/6/1
f 10/6/1 5/6/1 4/6/1
f 11/6/1 5/6/1 10/6/1
f 12/2/1 6/2/1 5/2/1
f 12/6/1 5/6/1 11/6/1
f 13/2/1 6/2/1 12/2/1
f 14/5/1 7/5/1 6/5/1
f 14/2/1 6/2/1 13/2/1
f 15/2/1 8/2/1 7/2/1
f 15/5/1 7/5/1 14/5/1
f 16/2/1 8/2/1 15/2/1
f 17/6/1 2/6/1 8/6/1
f 17/2/1 8/2/1 16/2/1
f 18/6/1 2/6/1 17/6/1
f 19/6/1 2/6/1 18/6/1
f 22/6/1 11/6/1 10/6/1
f 22/6/1 10/6/1 9/6/1
f 23/6/1 11/6/1 22/6/1
f 24/2/1 13/2/1 12/2/1
f 24/6/1 11/6/1 23/6/1
f 24/2/1 12/2/1 11/2/1
f 25/5/1 16/5/1 15/5/1
f 25/2/1 13/2/1 24/2/1
f 25/5/1 14/5/1 13/5/1
f 25/5/1 15/5/1 14/5/1
f 26/2/1 18/2/1 17/2/1
f 26/5/1 16/5/1 25/5/1
f 26/2/1 17/2/1 16/2/1
f 27/6/1 20/6/1 19/6/1
f 27/2/1 18/2/1 26/2/1
f 27/6/1 19/6/1 18/6/1
f 28/6/1 20/6/1 27/6/1
f 29/6/1 20/6/1 28/6/1
f 31/6/1 23/6/1 22/6/1
f 31/6/1 22/6/1 21/6/1
f 32/2/1 24/2/1 23/2/1
f 32/6/1 23/6/1 31/6/1
f 32/2/1 26/2/1 25/2/1
f 32/2/1 28/2/1 27/2/1
f 32/2/1 27/2/1 26/2/1
f 32/2/1 25/2/1 24/2/1
f 33/6/1 29/6/1 28/6/1
f 33/2/1 28/2/1 32/2/1
f 33/6/1 30/6/1 29/6/1
f 34/6/1 30/6/1 33/6/1
f 35/6/1 31/6/1 21/6/1
f 35/2/1 32/2/1 31/2/1
f 35/2/1 34/2/1 33/2/1
f 35/2/1 33/2/1 32/2/1
f 36/2/1 34/2/1 35/2/1
f 37/2/1 34/2/1 36/2/1
f 38/6/1 30/6/1 34/6/1
f 38/2/1 34/2/1 37/2/1
f 39/6/1 35/6/1 21/6/1
f 39/6/1 36/6/1 35/6/1
f 40/6/1 36/6/1 39/6/1
f 41/2/1 37/2/1 36/2/1
f 41/6/1 36/6/1 40/6/1
f 42/2/1 37/2/1 41/2/1
f 43/2/1 37/2/1 42/2/1
f 44/6/1 38/6/1 37/6/1
f 44/2/1 37/2/1 43/2/1
f 45/6/1 30/6/1 38/6/1
f 45/6/1 38/6/1 44/6/1
f 46/6/1 30/6/1 45/6/1
f 47/6/1 41/6/1 40/6/1
f 47/6/1 42/6/1 41/6/1
f 48/6/1 42/6/1 47/6/1
f 49/2/1 43/2/1 42/2/1
f 49/6/1 42/6/1 48/6/1
f 50/2/1 43/2/1 49/2/1
f 51/2/1 43/2/1 50/2/1
f 52/6/1 44/6/1 43/6/1
f 52/2/1 43/2/1 51/2/1
f 52/6/1 45/6/1 44/6/1
f 53/6/1 45/6/1 52/6/1
f 54/6/1 45/6/1 53/6/1
f 55/6/1 50/6/1 49/6/1
f 55/6/1 49/6/1 48/6/1
f 56/6/1 50/6/1 55/6/1
f 57/2/1 51/2/1 50/2/1
f 57/6/1 50/6/1 56/6/1
f 58/6/1 53/6/1 52/6/1
f 58/2/1 51/2/1 57/2/1
f 58/6/1 52/6/1 51/6/1
f 59/6/1 53/6/1 58/6/1
f 60/6/1 53/6/1 59/6/1
f 61/6/1 57/6/1 56/6/1
f 61/6/1 59/6/1 58/6/1
f 61/6/1 58/6/1 57/6/1
f 62/6/1 59/6/1 61/6/1
f 63/6/2 64/6/2 66/6/2
f 66/6/2 64/6/2 67/6/2
f 67/6/2 64/6/2 68/6/2
f 68/6/2 64/6/2 69/6/2
f 69/6/2 64/6/2 70/6/2
f 65/6/2 66/6/2 72/6/2
f 66/6/2 67/6/2 72/6/2
f 72/6/2 67/6/2 73/6/2
f 67/2/2 68/2/2 74/2/2
f 73/6/2 67/6/2 74/6/2
f 74/2/2 68/2/2 75/2/2
f 68/5/2 69/5/2 76/5/2
f 75/2/2 68/2/2 76/2/2
f 69/2/2 70/2/2 77/2/2
f 76/5/2 69/5/2 77/5/2
f 77/2/2 70/2/2 78/2/2
f 70/6/2 64/6/2 79/6/2
f 78/2/2 70/2/2 79/2/2
f 79/6/2 64/6/2 80/6/2
f 80/6/2 64/6/2 81/6/2
f 72/6/2 73/6/2 84/6/2
f 71/6/2 72/6/2 84/6/2
f 84/6/2 73/6/2 85/6/2
f 74/2/2 75/2/2 86/2/2
f 85/6/2 73/6/2 86/6/2
f 73/2/2 74/2/2 86/2/2
f 86/2/2 75/2/2 87/2/2
f 77/5/2 78/5/2 88/5/2
f 87/2/2 75/2/2 88/2/2
f 75/5/2 76/5/2 88/5/2
f 76/5/2 77/5/2 88/5/2
f 78/2/2 79/2/2 89/2/2
f 88/5/2 78/5/2 89/5/2
f 79/2/2 80/2/2 89/2/2
f 89/2/2 80/2/2 90/2/2
f 81/6/2 82/6/2 91/6/2
f 90/2/2 80/2/2 91/2/2
f 80/6/2 81/6/2 91/6/2
f 91/6/2 82/6/2 92/6/2
f 92/6/2 82/6/2 93/6/2
f 84/6/2 85/6/2 95/6/2
f 83/6/2 84/6/2 95/6/2
f 85/2/2 86/2/2 96/2/2
f 95/6/2 85/6/2 96/6/2
f 96/2/2 86/2/2 97/2/2
f 91/2/2 92/2/2 98/2/2
f 93/6/2 94/6/2 99/6/2
f 98/2/2 92/2/2 99/2/2
f 92/6/2 93/6/2 99/6/2
f 99/6/2 94/6/2 100/6/2
f 83/6/2 95/6/2 101/6/2
f 95/2/2 96/2/2 101/2/2
f 101/2/2 96/2/2 102/2/2
f 99/2/2 100/2/2 105/2/2
f 100/6/2 94/6/2 106/6/2
f 105/2/2 100/2/2 106/2/2
f 83/6/2 101/6/2 107/6/2
f 101/6/2 102/6/2 107/6/2
f 107/6/2 102/6/2 108/6/2
f 102/2/2 103/2/2 109/2/2
f 108/6/2 102/6/2 109/6/2
f 109/2/2 103/2/2 110/2/2
f 104/2/2 105/2/2 113/2/2
f 105/6/2 106/6/2 114/6/2
f 113/2/2 105/2/2 114/2/2
f 106/6/2 94/6/2 115/6/2
f 114/6/2 106/6/2 115/6/2
f 115/6/2 94/6/2 116/6/2
f 108/6/2 109/6/2 117/6/2
f 109/6/2 110/6/2 117/6/2
f 117/6/2 110/6/2 118/6/2
f 110/2/2 111/2/2 119/2/2
f 118/6/2 110/6/2 119/6/2
f 119/2/2 111/2/2 120/2/2
f 112/2/2 113/2/2 121/2/2
f 113/6/2 114/6/2 122/6/2
f 114/6/2 115/6/2 122/6/2
f 121/2/2 113/2/2 122/2/2
f 122/6/2 115/6/2 123/6/2
f 123/6/2 115/6/2 124/6/2
f 119/6/2 120/6/2 125/6/2
f 118/6/2 119/6/2 125/6/2
f 125/6/2 120/6/2 126/6/2
f 120/2/2 121/2/2 127/2/2
f 126/6/2 120/6/2 127/6/2
f 122/6/2 123/6/2 128/6/2
f 127/2/2 121/2/2 128/2/2
f 121/6/2 122/6/2 128/6/2
f 128/6/2 123/6/2 129/6/2
f 129/6/2 123/6/2 130/6/2
f 126/6/2 127/6/2 131/6/2
f 128/6/2 129/6/2 131/6/2
f 127/6/2 128/6/2 131/6/2
f 131/6/2 129/6/2 132/6/2
f 133/2/2 134/2/2 138/2/2
f 138/2/2 134/2/2 139/2/2
f 135/2/2 136/2/2 140/2/2
f 140/2/2 136/2/2 141/2/2
f 137/2/2 138/2/2 143/2/2
f 143/2/2 138/2/2 144/2/2
f 141/2/2 142/2/2 145/2/2
f 145/2/2 142/2/2 146/2/2
f 147/2/2 148/2/2 151/2/2
f 151/2/2 148/2/2 152/2/2
f 149/2/2 150/2/2 155/2/2
f 155/2/2 150/2/2 156/2/2
f 152/2/2 153/2/2 157/2/2
f 157/2/2 153/2/2 158/2/2
f 154/2/2 155/2/2 159/2/2
f 159/2/2 155/2/2 160/2/2
f 158/2/2 159/2/2 161/2/2
f 161/2/2 159/2/2 162/2/2
f 163/2/2 164/2/2 168/2/2
f 164/5/2 165/5/2 169/5/2
f 168/2/2 164/2/2 169/2/2
f 169/5/2 165/5/2 170/5/2
f 170/5/2 165/5/2 171/5/2
f 165/2/2 166/2/2 172/2/2
f 171/5/2 165/5/2 172/5/2
f 172/2/2 166/2/2 173/2/2
f 167/2/2 168/2/2 176/2/2
f 168/5/2 169/5/2 177/5/2
f 169/5/2 170/5/2 177/5/2
f 170/4/2 171/4/2 178/4/2
f 177/5/2 170/5/2 178/5/2
f 171/5/2 172/5/2 179/5/2
f 178/4/2 171/4/2 179/4/2
f 172/5/2 173/5/2 179/5/2
f 179/5/2 173/5/2 180/5/2
f 180/5/2 173/5/2 181/5/2
f 173/2/2 174/2/2 182/2/2
f 175/2/2 176/2/2 184/2/2
f 176/2/2 168/2/2 184/2/2
f 168/5/2 177/5/2 185/5/2
f 184/2/2 168/2/2 185/2/2
f 178/5/2 179/5/2 186/5/2
f 179/5/2 180/5/2 186/5/2
f 180/4/2 181/4/2 187/4/2
f 186/5/2 180/5/2 187/5/2
f 181/5/2 173/5/2 188/5/2
f 187/4/2 181/4/2 188/4/2
f 188/5/2 173/5/2 189/5/2
f 182/2/2 183/2/2 190/2/2
f 189/5/2 173/5/2 190/5/2
f 173/2/2 182/2/2 190/2/2
f 190/2/2 183/2/2 191/2/2
f 187/5/2 188/5/2 192/5/2
f 192/5/2 188/5/2 193/5/2
f 192/4/2 193/4/2 194/4/2
f 193/5/2 188/5/2 195/5/2
f 194/4/2 193/4/2 195/4/2
f 195/5/2 188/5/2 196/5/2
f 194/5/2 195/5/2 197/5/2
f 197/5/2 195/5/2 198/5/2
f 192/4/2 194/4/2 199/4/2
f 194/5/2 197/5/2 199/5/2
f 197/4/2 198/4/2 200/4/2
f 199/5/2 197/5/2 200/5/2
f 187/5/2 192/5/2 201/5/2
f 192/4/2 199/4/2 201/4/2
f 199/4/2 200/4/2 201/4/2
f 200/4/2 198/4/2 202/4/2
f 201/4/2 200/4/2 202/4/2
f 198/5/2 195/5/2 202/5/2
f 175/2/2 184/2/2 203/2/2
f 184/5/2 185/5/2 203/5/2
f 185/5/2 177/5/2 204/5/2
f 203/5/2 185/5/2 204/5/2
f 186/4/2 187/4/2 205/4/2
f 178/5/2 186/5/2 205/5/2
f 201/5/2 202/5/2 206/5/2
f 205/4/2 187/4/2 206/4/2
f 187/5/2 201/5/2 206/5/2
f 202/5/2 195/5/2 207/5/2
f 206/5/2 202/5/2 207/5/2
f 195/4/2 196/4/2 207/4/2
f 189/5/2 190/5/2 208/5/2
f 190/5/2 191/5/2 208/5/2
f 191/2/2 183/2/2 209/2/2
f 208/5/2 191/5/2 209/5/2
f 204/5/2 177/5/2 210/5/2
f 177/4/2 178/4/2 210/4/2
f 205/5/2 206/5/2 211/5/2
f 210/4/2 178/4/2 211/4/2
f 178/5/2 205/5/2 211/5/2
f 211/5/2 206/5/2 212/5/2
f 206/4/2 207/4/2 213/4/2
f 212/5/2 206/5/2 213/5/2
f 196/5/2 188/5/2 214/5/2
f 213/4/2 207/4/2 214/4/2
f 207/4/2 196/4/2 214/4/2
f 189/5/2 208/5/2 215/5/2
f 208/2/2 209/2/2 216/2/2
f 215/5/2 208/5/2 216/5/2
f 204/5/2 210/5/2 217/5/2
f 203/2/2 204/2/2 217/2/2
f 210/5/2 211/5/2 217/5/2
f 217/5/2 211/5/2 218/5/2
f 211/4/2 212/4/2 219/4/2
f 218/5/2 211/5/2 219/5/2
f 212/5/2 213/5/2 220/5/2
f 219/4/2 212/4/2 220/4/2
f 213/5/2 214/5/2 220/5/2
f 188/4/2 189/4/2 221/4/2
f 220/5/2 214/5/2 221/5/2
f 214/5/2 188/5/2 221/5/2
f 189/5/2 215/5/2 222/5/2
f 221/4/2 189/4/2 222/4/2
f 219/5/2 220/5/2 223/5/2
f 217/2/2 218/2/2 223/2/2
f 218/5/2 219/5/2 223/5/2
f 223/5/2 220/5/2 224/5/2
f 220/4/2 221/4/2 225/4/2
f 224/5/2 220/5/2 225/5/2
f 225/4/2 221/4/2 226/4/2
f 226/4/2 221/4/2 227/4/2
f 221/5/2 222/5/2 228/5/2
f 227/4/2 221/4/2 228/4/2
f 222/5/2 215/5/2 229/5/2
f 228/5/2 222/5/2 229/5/2
f 215/2/2 216/2/2 230/2/2
f 229/5/2 215/5/2 230/5/2
f 223/2/2 224/2/2 231/2/2
f 224/5/2 225/5/2 231/5/2
f 225/5/2 226/5/2 231/5/2
f 231/5/2 226/5/2 232/5/2
f 227/5/2 228/5/2 235/5/2
f 228/5/2 229/5/2 235/5/2
f 229/2/2 230/2/2 236/2/2
f 235/5/2 229/5/2 236/5/2
f 232/5/2 226/5/2 237/5/2
f 231/2/2 232/2/2 237/2/2
f 237/5/2 226/5/2 238/5/2
f 233/4/2 234/4/2 239/4/2
f 239/4/2 234/4/2 240/4/2
f 227/5/2 235/5/2 241/5/2
f 235/2/2 236/2/2 242/2/2
f 241/5/2 235/5/2 242/5/2
f 237/2/2 238/2/2 243/2/2
f 241/2/2 242/2/2 244/2/2
f 237/2/2 243/2/2 245/2/2
f 243/2/2 244/2/2 245/2/2
f 217/2/2 223/2/2 245/2/2
f 223/2/2 231/2/2 245/2/2
f 231/2/2 237/2/2 245/2/2
f 245/2/2 244/2/2 246/2/2
f 244/2/2 242/2/2 247/2/2
f 246/2/2 244/2/2 247/2/2
f 242/2/2 236/2/2 248/2/2
f 247/2/2 242/2/2 248/2/2
f 230/2/2 216/2/2 248/2/2
f 236/2/2 230/2/2 248/2/2
f 245/5/2 246/5/2 249/5/2
f 246/2/2 247/2/2 250/2/2
f 249/5/2 246/5/2 250/5/2
f 247/5/2 248/5/2 251/5/2
f 250/2/2 247/2/2 251/2/2
f 251/5/2 248/5/2 252/5/2
f 245/5/2 249/5/2 253/5/2
f 249/4/2 250/4/2 254/4/2
f 253/5/2 249/5/2 254/5/2
f 252/5/2 248/5/2 255/5/2
f 251/4/2 252/4/2 255/4/2
f 255/5/2 248/5/2 256/5/2
f 254/4/2 250/4/2 257/4/2
f 253/4/2 254/4/2 257/4/2
f 250/2/2 251/2/2 258/2/2
f 257/4/2 250/4/2 258/4/2
f 255/4/2 256/4/2 259/4/2
f 258/2/2 251/2/2 259/2/2
f 251/4/2 255/4/2 259/4/2
f 259/4/2 256/4/2 260/4/2
f 217/2/2 245/2/2 261/2/2
f 175/2/2 203/2/2 261/2/2
f 203/2/2 217/2/2 261/2/2
f 261/2/2 245/2/2 262/2/2
f 245/5/2 253/5/2 263/5/2
f 253/4/2 257/4/2 263/4/2
f 263/4/2 257/4/2 264/4/2
f 260/4/2 256/4/2 265/4/2
f 256/5/2 248/5/2 266/5/2
f 265/4/2 256/4/2 266/4/2
f 216/2/2 209/2/2 267/2/2
f 209/2/2 183/2/2 267/2/2
f 248/2/2 216/2/2 267/2/2
f 267/2/2 183/2/2 268/2/2
f 262/2/2 245/2/2 269/2/2
f 269/2/2 245/2/2 270/2/2
f 245/5/2 263/5/2 271/5/2
f 270/2/2 245/2/2 271/2/2
f 263/1/2 264/1/2 272/1/2
f 271/5/2 263/5/2 272/5/2
f 264/4/2 257/4/2 273/4/2
f 272/1/2 264/1/2 273/1/2
f 257/5/2 258/5/2 274/5/2
f 273/4/2 257/4/2 274/4/2
f 258/2/2 259/2/2 275/2/2
f 274/5/2 258/5/2 275/5/2
f 259/5/2 260/5/2 276/5/2
f 275/2/2 259/2/2 276/2/2
f 260/4/2 265/4/2 277/4/2
f 276/5/2 260/5/2 277/5/2
f 265/1/2 266/1/2 278/1/2
f 277/4/2 265/4/2 278/4/2
f 266/5/2 248/5/2 279/5/2
f 278/1/2 266/1/2 279/1/2
f 248/2/2 267/2/2 280/2/2
f 279/5/2 248/5/2 280/5/2
f 280/2/2 267/2/2 281/2/2
f 281/2/2 267/2/2 282/2/2
f 277/2/2 278/2/2 283/2/2
f 276/2/2 277/2/2 283/2/2
f 280/2/2 281/2/2 283/2/2
f 279/2/2 280/2/2 283/2/2
f 275/2/2 276/2/2 283/2/2
f 271/2/2 272/2/2 283/2/2
f 272/2/2 273/2/2 283/2/2
f 278/2/2 279/2/2 283/2/2
f 270/2/2 271/2/2 283/2/2
f 274/2/2 275/2/2 283/2/2
f 273/2/2 274/2/2 283/2/2
f 283/2/2 281/2/2 284/2/2
f 285/3/2 286/3/2 287/3/2
f 287/3/2 286/3/2 288/3/2
f 285/3/2 287/3/2 289/3/2
f 288/3/2 286/3/2 290/3/2
f 285/3/2 289/3/2 291/3/2
f 289/3/2 290/3/2 291/3/2
f 290/3/2 286/3/2 292/3/2
f 291/3/2 290/3/2 292/3/2
f 295/6/3 294/6/3 293/6/3
f 296/6/3 294/6/3 295/6/3
f 301/6/3 298/6/3 297/6/3
f 302/6/3 298/6/3 301/6/3
f 303/6/3 300/6/3 299/6/3
f 304/6/3 300/6/3 303/6/3
f 309/6/3 306/6/3 305/6/3
f 310/6/3 306/6/3 309/6/3
f 313/6/3 308/6/3 307/6/3
f 314/6/3 308/6/3 313/6/3
f 315/2/3 312/2/3 311/2/3
f 316/2/3 312/2/3 315/2/3
f 317/2/3 312/2/3 316/2/3
f 318/2/3 312/2/3 317/2/3
f 319/2/3 317/2/3 316/2/3
f 320/2/3 317/2/3 319/2/3
f 325/6/3 322/6/3 321/6/3
f 326/6/3 322/6/3 325/6/3
f 331/6/3 324/6/3 323/6/3
f 332/6/3 324/6/3 331/6/3
f 333/2/3 328/2/3 327/2/3
f 334/2/3 328/2/3 333/2/3
f 337/2/3 330/2/3 329/2/3
f 338/2/3 330/2/3 337/2/3
f 339/2/3 335/2/3 334/2/3
f 340/2/3 335/2/3 339/2/3
f 341/2/3 337/2/3 336/2/3
f 342/2/3 337/2/3 341/2/3
f 348/2/3 344/2/3 343/2/3
f 349/2/3 344/2/3 348/2/3
f 350/2/3 346/2/3 345/2/3
f 351/2/3 346/2/3 350/2/3
f 352/2/3 348/2/3 347/2/3
f 353/2/3 348/2/3 352/2/3
f 357/3/3 355/3/3 354/3/3
f 357/3/3 356/3/3 355/3/3
f 358/3/3 356/3/3 357/3/3
f 361/3/3 360/3/3 359/3/3
f 362/3/3 360/3/3 361/3/3
f 363/3/4 364/3/4 365/3/4
f 365/3/4 364/3/4 366/3/4
f 367/3/4 368/3/4 370/3/4
f 368/3/4 369/3/4 370/3/4
f 370/3/4 369/3/4 371/3/4
f 372/2/4 373/2/4 377/2/4
f 377/2/4 373/2/4 378/2/4
f 374/2/4 375/2/4 379/2/4
f 379/2/4 375/2/4 380/2/4
f 376/2/4 377/2/4 381/2/4
f 381/2/4 377/2/4 382/2/4
f 383/6/4 384/6/4 389/6/4
f 389/6/4 384/6/4 390/6/4
f 385/2/4 386/2/4 391/2/4
f 391/2/4 386/2/4 392/2/4
f 387/2/4 388/2/4 395/2/4
f 395/2/4 388/2/4 396/2/4
f 392/2/4 393/2/4 397/2/4
f 397/2/4 393/2/4 398/2/4
f 394/2/4 395/2/4 399/2/4
f 399/2/4 395/2/4 400/2/4
f 401/6/4 402/6/4 405/6/4
f 405/6/4 402/6/4 406/6/4
f 403/6/4 404/6/4 409/6/4
f 409/6/4 404/6/4 410/6/4
f 407/2/4 408/2/4 411/2/4
f 411/2/4 408/2/4 412/2/4
f 412/2/4 408/2/4 413/2/4
f 413/2/4 408/2/4 414/2/4
f 412/2/4 413/2/4 415/2/4
f 415/2/4 413/2/4 416/2/4
f 417/6/4 418/6/4 421/6/4
f 421/6/4 418/6/4 422/6/4
f 419/6/4 420/6/4 423/6/4
f 423/6/4 420/6/4 424/6/4
f 425/6/4 426/6/4 427/6/4
f 427/6/4 426/6/4 428/6/4
f 431/6/5 430/6/5 429/6/5
f 432/6/5 430/6/5 431/6/5
f 435/6/5 434/6/5 433/6/5
f 436/6/5 434/6/5 435/6/5
f 439/6/5 438/6/5 437/6/5
f 440/6/5 438/6/5 439/6/5
f 443/6/5 442/6/5 441/6/5
f 444/6/5 442/6/5 443/6/5
f 447/6/5 446/6/5 445/6/5
f 448/6/5 446/6/5 447/6/5
f 451/2/5 450/2/5 449/2/5
f 453/2/5 451/2/5 449/2/5
f 453/2/5 452/2/5 451/2/5
f 454/2/5 452/2/5 453/2/5
f 455/2/5 453/2/5 449/2/5
f 456/5/5 454/5/5 453/5/5
f 456/2/5 453/2/5 455/2/5
f 457/5/5 456/5/5 455/5/5
f 458/5/5 456/5/5 457/5/5
f 459/5/5 456/5/5 458/5/5
f 460/5/5 454/5/5 456/5/5
f 460/5/5 456/5/5 459/5/5
f 461/2/5 460/2/5 459/2/5
f 461/5/5 454/5/5 460/5/5
f 462/5/5 454/5/5 461/5/5
f 463/2/5 461/2/5 459/2/5
f 463/2/5 462/2/5 461/2/5
f 464/2/5 462/2/5 463/2/5
f 465/2/5 463/2/5 459/2/5
f 466/2/5 463/2/5 465/2/5
f 469/6/5 468/6/5 467/6/5
f 470/6/5 468/6/5 469/6/5
f 473/2/5 472/2/5 471/2/5
f 474/2/5 472/2/5 473/2/5
f 476/2/5 475/2/5 474/2/5
f 477/2/5 475/2/5 476/2/5
f 481/2/5 479/2/5 478/2/5
f 482/2/5 479/2/5 481/2/5
f 483/2/5 481/2/5 480/2/5
f 484/2/5 481/2/5 483/2/5
f 487/2/5 486/2/5 485/2/5
f 488/2/5 486/2/5 487/2/5
f 491/2/5 490/2/5 489/2/5
f 492/2/5 490/2/5 491/2/5
f 495/3/5 494/3/5 493/3/5
f 496/3/5 494/3/5 495/3/5
f 499/3/5 498/3/5 497/3/5
f 500/3/5 498/3/5 499/3/5
f 501/3/6 502/3/6 503/3/6
f 503/3/6 502/3/6 504/3/6
f 505/3/6 506/3/6 507/3/6
f 507/3/6 506/3/6 508/3/6
f 509/2/6 510/2/6 511/2/6
f 511/2/6 510/2/6 512/2/6
f 513/2/6 514/2/6 515/2/6
f 515/2/6 514/2/6 516/2/6
f 517/2/6 518/2/6 519/2/6
f 519/2/6 518/2/6 520/2/6
f 520/2/6 521/2/6 522/2/6
f 522/2/6 521/2/6 523/2/6
f 524/2/6 525/2/6 527/2/6
f 527/2/6 525/2/6 528/2/6
f 526/2/6 527/2/6 529/2/6
f 529/2/6 527/2/6 530/2/6
f 531/6/6 532/6/6 533/6/6
f 533/6/6 532/6/6 534/6/6
f 535/2/6 536/2/6 537/2/6
f 537/2/6 536/2/6 538/2/6
f 538/2/6 539/2/6 541/2/6
f 541/2/6 539/2/6 542/2/6
f 540/2/6 541/2/6 543/2/6
f 543/2/6 541/2/6 544/2/6
f 545/6/6 546/6/6 547/6/6
f 547/6/6 546/6/6 548/6/6
f 549/6/6 550/6/6 551/6/6
f 551/6/6 550/6/6 552/6/6
f 553/2/6 554/2/6 555/2/6
f 555/2/6 554/2/6 556/2/6
f 557/6/6 558/6/6 559/6/6
f 559/6/6 558/6/6 560/6/6
f 561/6/6 562/6/6 563/6/6
f 563/6/6 562/6/6 564/6/6
f 565/6/6 566/6/6 567/6/6
f 567/6/6 566/6/6 568/6/6
f 569/6/6 570/6/6 571/6/6
f 571/6/6 570/6/6 572/6/6
