# MagicaVoxel @ Ephtracy

# group
o 

# material
mtllib lite-grass-v6.mtl
usemtl palette

# normals
vn -1 0 0
vn 1 0 0
vn 0 0 1
vn 0 0 -1
vn 0 -1 0
vn 0 1 0

# texcoords
vt 0.908203 0.5
vt 0.912109 0.5
vt 0.916016 0.5

# verts
v -1.9 0.3 -0.3
v -1.9 0.3 -0.8
v -1.9 0.4 -0.3
v -1.9 0.4 -0.8
v -1.5 0.3 0.9
v -1.5 0.3 0.5
v -1.5 0.4 0.9
v -1.5 0.4 0.5
v -0.2 0.3 0
v -0.2 0.3 -0.4
v -0.2 0.3 -1.5
v -0.2 0.3 -1.9
v -0.2 0.4 -1.5
v -0.2 0.4 -1.9
v -0.2 0.5 0
v -0.2 0.5 -0.4
v 0.6 0.3 1.2
v 0.6 0.3 0.7
v 0.6 0.4 1.2
v 0.6 0.4 0.7
v -1.4 0.3 -0.3
v -1.4 0.3 -0.8
v -1.4 0.4 -0.3
v -1.4 0.4 -0.8
v -1 0.3 0.9
v -1 0.3 0.5
v -1 0.4 0.9
v -1 0.4 0.5
v 0.3 0.3 -1.5
v 0.3 0.3 -1.9
v 0.3 0.4 -1.5
v 0.3 0.4 -1.9
v 0.4 0.3 0
v 0.4 0.3 -0.4
v 0.4 0.5 0
v 0.4 0.5 -0.4
v 1.1 0.3 1.2
v 1.1 0.3 0.7
v 1.1 0.4 1.2
v 1.1 0.4 0.7
v 0.6 0.3 1.2
v 0.6 0.4 1.2
v 1.1 0.3 1.2
v 1.1 0.4 1.2
v -1.5 0.3 0.9
v -1.5 0.4 0.9
v -1 0.3 0.9
v -1 0.4 0.9
v -0.2 0.3 0
v -0.2 0.5 0
v 0.4 0.3 0
v 0.4 0.5 0
v -1.9 0.3 -0.3
v -1.9 0.4 -0.3
v -1.4 0.3 -0.3
v -1.4 0.4 -0.3
v -0.2 0.3 -1.5
v -0.2 0.4 -1.5
v 0.3 0.3 -1.5
v 0.3 0.4 -1.5
v 0.6 0.3 0.7
v 0.6 0.4 0.7
v 1.1 0.3 0.7
v 1.1 0.4 0.7
v -1.5 0.3 0.5
v -1.5 0.4 0.5
v -1 0.3 0.5
v -1 0.4 0.5
v -0.2 0.3 -0.4
v -0.2 0.5 -0.4
v 0.4 0.3 -0.4
v 0.4 0.5 -0.4
v -1.9 0.3 -0.8
v -1.9 0.4 -0.8
v -1.4 0.3 -0.8
v -1.4 0.4 -0.8
v -0.2 0.3 -1.9
v -0.2 0.4 -1.9
v 0.3 0.3 -1.9
v 0.3 0.4 -1.9
v 0.6 0.3 1.2
v 1.1 0.3 1.2
v -1.5 0.3 0.9
v -1 0.3 0.9
v 0.6 0.3 0.7
v 1.1 0.3 0.7
v -1.5 0.3 0.5
v -1 0.3 0.5
v -0.2 0.3 0
v 0.4 0.3 0
v -1.9 0.3 -0.3
v -1.4 0.3 -0.3
v -0.2 0.3 -0.4
v 0.4 0.3 -0.4
v -1.9 0.3 -0.8
v -1.4 0.3 -0.8
v -0.2 0.3 -1.5
v 0.3 0.3 -1.5
v -0.2 0.3 -1.9
v 0.3 0.3 -1.9
v 0.6 0.4 1.2
v 1.1 0.4 1.2
v -1.5 0.4 0.9
v -1 0.4 0.9
v 0.6 0.4 0.7
v 1.1 0.4 0.7
v -1.5 0.4 0.5
v -1 0.4 0.5
v -1.9 0.4 -0.3
v -1.4 0.4 -0.3
v -1.9 0.4 -0.8
v -1.4 0.4 -0.8
v -0.2 0.4 -1.5
v 0.3 0.4 -1.5
v -0.2 0.4 -1.9
v 0.3 0.4 -1.9
v -0.2 0.5 0
v 0.4 0.5 0
v -0.2 0.5 -0.4
v 0.4 0.5 -0.4

# faces
f 3/1/1 2/1/1 1/1/1
f 4/1/1 2/1/1 3/1/1
f 7/2/1 6/2/1 5/2/1
f 8/2/1 6/2/1 7/2/1
f 13/2/1 12/2/1 11/2/1
f 14/2/1 12/2/1 13/2/1
f 15/3/1 10/3/1 9/3/1
f 16/3/1 10/3/1 15/3/1
f 19/1/1 18/1/1 17/1/1
f 20/1/1 18/1/1 19/1/1
f 21/1/2 22/1/2 23/1/2
f 23/1/2 22/1/2 24/1/2
f 25/2/2 26/2/2 27/2/2
f 27/2/2 26/2/2 28/2/2
f 29/2/2 30/2/2 31/2/2
f 31/2/2 30/2/2 32/2/2
f 33/3/2 34/3/2 35/3/2
f 35/3/2 34/3/2 36/3/2
f 37/1/2 38/1/2 39/1/2
f 39/1/2 38/1/2 40/1/2
f 43/1/3 42/1/3 41/1/3
f 44/1/3 42/1/3 43/1/3
f 47/2/3 46/2/3 45/2/3
f 48/2/3 46/2/3 47/2/3
f 51/3/3 50/3/3 49/3/3
f 52/3/3 50/3/3 51/3/3
f 55/1/3 54/1/3 53/1/3
f 56/1/3 54/1/3 55/1/3
f 59/2/3 58/2/3 57/2/3
f 60/2/3 58/2/3 59/2/3
f 61/1/4 62/1/4 63/1/4
f 63/1/4 62/1/4 64/1/4
f 65/2/4 66/2/4 67/2/4
f 67/2/4 66/2/4 68/2/4
f 69/3/4 70/3/4 71/3/4
f 71/3/4 70/3/4 72/3/4
f 73/1/4 74/1/4 75/1/4
f 75/1/4 74/1/4 76/1/4
f 77/2/4 78/2/4 79/2/4
f 79/2/4 78/2/4 80/2/4
f 85/1/5 82/1/5 81/1/5
f 86/1/5 82/1/5 85/1/5
f 87/2/5 84/2/5 83/2/5
f 88/2/5 84/2/5 87/2/5
f 93/3/5 90/3/5 89/3/5
f 94/3/5 90/3/5 93/3/5
f 95/1/5 92/1/5 91/1/5
f 96/1/5 92/1/5 95/1/5
f 99/2/5 98/2/5 97/2/5
f 100/2/5 98/2/5 99/2/5
f 101/1/6 102/1/6 105/1/6
f 105/1/6 102/1/6 106/1/6
f 103/2/6 104/2/6 107/2/6
f 107/2/6 104/2/6 108/2/6
f 109/1/6 110/1/6 111/1/6
f 111/1/6 110/1/6 112/1/6
f 113/2/6 114/2/6 115/2/6
f 115/2/6 114/2/6 116/2/6
f 117/3/6 118/3/6 119/3/6
f 119/3/6 118/3/6 120/3/6
