# MagicaVoxel @ Ephtracy

# group
o 

# material
mtllib lab-floor-1.mtl
usemtl palette

# normals
vn -1 0 0
vn 1 0 0
vn 0 0 1
vn 0 0 -1
vn 0 -1 0
vn 0 1 0

# texcoords
vt 0.845703 0.5

# verts
v -2.4 0 2.4
v -2.4 0 -2.4
v -2.4 0.1 2.4
v -2.4 0.1 -2.4
v -2.3 0.1 2.3
v -2.3 0.1 0.3
v -2.3 0.1 0
v -2.3 0.1 -2.1
v -2.3 0.2 2.3
v -2.3 0.2 0.3
v -2.3 0.2 0
v -2.3 0.2 -2.1
v -2.2 0.1 0.3
v -2.2 0.1 0.2
v -2.2 0.1 -2.1
v -2.2 0.1 -2.2
v -2.2 0.2 0.3
v -2.2 0.2 0.2
v -2.2 0.2 -2.1
v -2.2 0.2 -2.2
v -2.1 0.1 0.2
v -2.1 0.1 0.0999999
v -2.1 0.1 -2.2
v -2.1 0.1 -2.3
v -2.1 0.2 0.2
v -2.1 0.2 0.0999999
v -2.1 0.2 -2.2
v -2.1 0.2 -2.3
v 0 0.1 2.3
v 0 0.1 0.3
v 0 0.1 0
v 0 0.1 -2.1
v 0 0.2 2.3
v 0 0.2 0.3
v 0 0.2 0
v 0 0.2 -2.1
v 0.1 0.1 0.3
v 0.1 0.1 0.2
v 0.1 0.1 -2.1
v 0.1 0.1 -2.2
v 0.1 0.2 0.3
v 0.1 0.2 0.2
v 0.1 0.2 -2.1
v 0.1 0.2 -2.2
v 0.2 0.1 0.2
v 0.2 0.1 0.0999999
v 0.2 0.1 -2.2
v 0.2 0.1 -2.3
v 0.2 0.2 0.2
v 0.2 0.2 0.0999999
v 0.2 0.2 -2.2
v 0.2 0.2 -2.3
v -0.3 0.1 2.3
v -0.3 0.1 2.2
v -0.3 0.1 0
v -0.3 0.1 -0.1
v -0.3 0.2 2.3
v -0.3 0.2 2.2
v -0.3 0.2 0
v -0.3 0.2 -0.1
v -0.2 0.1 2.2
v -0.2 0.1 2.1
v -0.2 0.1 -0.1
v -0.2 0.1 -0.2
v -0.2 0.2 2.2
v -0.2 0.2 2.1
v -0.2 0.2 -0.1
v -0.2 0.2 -0.2
v -0.0999999 0.1 2.1
v -0.0999999 0.1 0.0999999
v -0.0999999 0.1 -0.2
v -0.0999999 0.1 -2.3
v -0.0999999 0.2 2.1
v -0.0999999 0.2 0.0999999
v -0.0999999 0.2 -0.2
v -0.0999999 0.2 -2.3
v 2.1 0.1 2.3
v 2.1 0.1 2.2
v 2.1 0.1 0
v 2.1 0.1 -0.1
v 2.1 0.2 2.3
v 2.1 0.2 2.2
v 2.1 0.2 0
v 2.1 0.2 -0.1
v 2.2 0.1 2.2
v 2.2 0.1 2.1
v 2.2 0.1 -0.1
v 2.2 0.1 -0.2
v 2.2 0.2 2.2
v 2.2 0.2 2.1
v 2.2 0.2 -0.1
v 2.2 0.2 -0.2
v 2.3 0.1 2.1
v 2.3 0.1 0.0999999
v 2.3 0.1 -0.2
v 2.3 0.1 -2.3
v 2.3 0.2 2.1
v 2.3 0.2 0.0999999
v 2.3 0.2 -0.2
v 2.3 0.2 -2.3
v 2.4 0 2.4
v 2.4 0 -2.4
v 2.4 0.1 2.4
v 2.4 0.1 -2.4
v -2.4 0 2.4
v -2.4 0.1 2.4
v 2.4 0 2.4
v 2.4 0.1 2.4
v -2.3 0.1 2.3
v -2.3 0.2 2.3
v -0.3 0.1 2.3
v -0.3 0.2 2.3
v 0 0.1 2.3
v 0 0.2 2.3
v 2.1 0.1 2.3
v 2.1 0.2 2.3
v -0.3 0.1 2.2
v -0.3 0.2 2.2
v -0.2 0.1 2.2
v -0.2 0.2 2.2
v 2.1 0.1 2.2
v 2.1 0.2 2.2
v 2.2 0.1 2.2
v 2.2 0.2 2.2
v -0.2 0.1 2.1
v -0.2 0.2 2.1
v -0.0999999 0.1 2.1
v -0.0999999 0.2 2.1
v 2.2 0.1 2.1
v 2.2 0.2 2.1
v 2.3 0.1 2.1
v 2.3 0.2 2.1
v -2.3 0.1 0
v -2.3 0.2 0
v -0.3 0.1 0
v -0.3 0.2 0
v 0 0.1 0
v 0 0.2 0
v 2.1 0.1 0
v 2.1 0.2 0
v -0.3 0.1 -0.1
v -0.3 0.2 -0.1
v -0.2 0.1 -0.1
v -0.2 0.2 -0.1
v 2.1 0.1 -0.1
v 2.1 0.2 -0.1
v 2.2 0.1 -0.1
v 2.2 0.2 -0.1
v -0.2 0.1 -0.2
v -0.2 0.2 -0.2
v -0.0999999 0.1 -0.2
v -0.0999999 0.2 -0.2
v 2.2 0.1 -0.2
v 2.2 0.2 -0.2
v 2.3 0.1 -0.2
v 2.3 0.2 -0.2
v -2.3 0.1 0.3
v -2.3 0.2 0.3
v -2.2 0.1 0.3
v -2.2 0.2 0.3
v 0 0.1 0.3
v 0 0.2 0.3
v 0.1 0.1 0.3
v 0.1 0.2 0.3
v -2.2 0.1 0.2
v -2.2 0.2 0.2
v -2.1 0.1 0.2
v -2.1 0.2 0.2
v 0.1 0.1 0.2
v 0.1 0.2 0.2
v 0.2 0.1 0.2
v 0.2 0.2 0.2
v -2.1 0.1 0.0999999
v -2.1 0.2 0.0999999
v -0.0999999 0.1 0.0999999
v -0.0999999 0.2 0.0999999
v 0.2 0.1 0.0999999
v 0.2 0.2 0.0999999
v 2.3 0.1 0.0999999
v 2.3 0.2 0.0999999
v -2.3 0.1 -2.1
v -2.3 0.2 -2.1
v -2.2 0.1 -2.1
v -2.2 0.2 -2.1
v 0 0.1 -2.1
v 0 0.2 -2.1
v 0.1 0.1 -2.1
v 0.1 0.2 -2.1
v -2.2 0.1 -2.2
v -2.2 0.2 -2.2
v -2.1 0.1 -2.2
v -2.1 0.2 -2.2
v 0.1 0.1 -2.2
v 0.1 0.2 -2.2
v 0.2 0.1 -2.2
v 0.2 0.2 -2.2
v -2.1 0.1 -2.3
v -2.1 0.2 -2.3
v -0.0999999 0.1 -2.3
v -0.0999999 0.2 -2.3
v 0.2 0.1 -2.3
v 0.2 0.2 -2.3
v 2.3 0.1 -2.3
v 2.3 0.2 -2.3
v -2.4 0 -2.4
v -2.4 0.1 -2.4
v 2.4 0 -2.4
v 2.4 0.1 -2.4
v -2.4 0 2.4
v 2.4 0 2.4
v -2.4 0 -2.4
v 2.4 0 -2.4
v -2.4 0.1 2.4
v 2.4 0.1 2.4
v -2.3 0.1 2.3
v -0.3 0.1 2.3
v 0 0.1 2.3
v 2.1 0.1 2.3
v -0.3 0.1 2.2
v -0.2 0.1 2.2
v 2.1 0.1 2.2
v 2.2 0.1 2.2
v -0.2 0.1 2.1
v -0.0999999 0.1 2.1
v 2.2 0.1 2.1
v 2.3 0.1 2.1
v -2.3 0.1 0.3
v -2.2 0.1 0.3
v 0 0.1 0.3
v 0.1 0.1 0.3
v -2.2 0.1 0.2
v -2.1 0.1 0.2
v 0.1 0.1 0.2
v 0.2 0.1 0.2
v -2.1 0.1 0.0999999
v -0.0999999 0.1 0.0999999
v 0.2 0.1 0.0999999
v 2.3 0.1 0.0999999
v -2.3 0.1 0
v -0.3 0.1 0
v 0 0.1 0
v 2.1 0.1 0
v -0.3 0.1 -0.1
v -0.2 0.1 -0.1
v 2.1 0.1 -0.1
v 2.2 0.1 -0.1
v -0.2 0.1 -0.2
v -0.0999999 0.1 -0.2
v 2.2 0.1 -0.2
v 2.3 0.1 -0.2
v -2.3 0.1 -2.1
v -2.2 0.1 -2.1
v 0 0.1 -2.1
v 0.1 0.1 -2.1
v -2.2 0.1 -2.2
v -2.1 0.1 -2.2
v 0.1 0.1 -2.2
v 0.2 0.1 -2.2
v -2.1 0.1 -2.3
v -0.0999999 0.1 -2.3
v 0.2 0.1 -2.3
v 2.3 0.1 -2.3
v -2.4 0.1 -2.4
v 2.4 0.1 -2.4
v -2.3 0.2 2.3
v -0.3 0.2 2.3
v 0 0.2 2.3
v 2.1 0.2 2.3
v -0.3 0.2 2.2
v -0.2 0.2 2.2
v 2.1 0.2 2.2
v 2.2 0.2 2.2
v -0.2 0.2 2.1
v -0.0999999 0.2 2.1
v 2.2 0.2 2.1
v 2.3 0.2 2.1
v -2.3 0.2 0.3
v -2.2 0.2 0.3
v 0 0.2 0.3
v 0.1 0.2 0.3
v -2.2 0.2 0.2
v -2.1 0.2 0.2
v 0.1 0.2 0.2
v 0.2 0.2 0.2
v -2.1 0.2 0.0999999
v -0.0999999 0.2 0.0999999
v 0.2 0.2 0.0999999
v 2.3 0.2 0.0999999
v -2.3 0.2 0
v -0.3 0.2 0
v 0 0.2 0
v 2.1 0.2 0
v -0.3 0.2 -0.1
v -0.2 0.2 -0.1
v 2.1 0.2 -0.1
v 2.2 0.2 -0.1
v -0.2 0.2 -0.2
v -0.0999999 0.2 -0.2
v 2.2 0.2 -0.2
v 2.3 0.2 -0.2
v -2.3 0.2 -2.1
v -2.2 0.2 -2.1
v 0 0.2 -2.1
v 0.1 0.2 -2.1
v -2.2 0.2 -2.2
v -2.1 0.2 -2.2
v 0.1 0.2 -2.2
v 0.2 0.2 -2.2
v -2.1 0.2 -2.3
v -0.0999999 0.2 -2.3
v 0.2 0.2 -2.3
v 2.3 0.2 -2.3

# faces
f 3/1/1 2/1/1 1/1/1
f 4/1/1 2/1/1 3/1/1
f 9/1/1 6/1/1 5/1/1
f 10/1/1 6/1/1 9/1/1
f 11/1/1 8/1/1 7/1/1
f 12/1/1 8/1/1 11/1/1
f 17/1/1 14/1/1 13/1/1
f 18/1/1 14/1/1 17/1/1
f 19/1/1 16/1/1 15/1/1
f 20/1/1 16/1/1 19/1/1
f 25/1/1 22/1/1 21/1/1
f 26/1/1 22/1/1 25/1/1
f 27/1/1 24/1/1 23/1/1
f 28/1/1 24/1/1 27/1/1
f 33/1/1 30/1/1 29/1/1
f 34/1/1 30/1/1 33/1/1
f 35/1/1 32/1/1 31/1/1
f 36/1/1 32/1/1 35/1/1
f 41/1/1 38/1/1 37/1/1
f 42/1/1 38/1/1 41/1/1
f 43/1/1 40/1/1 39/1/1
f 44/1/1 40/1/1 43/1/1
f 49/1/1 46/1/1 45/1/1
f 50/1/1 46/1/1 49/1/1
f 51/1/1 48/1/1 47/1/1
f 52/1/1 48/1/1 51/1/1
f 53/1/2 54/1/2 57/1/2
f 57/1/2 54/1/2 58/1/2
f 55/1/2 56/1/2 59/1/2
f 59/1/2 56/1/2 60/1/2
f 61/1/2 62/1/2 65/1/2
f 65/1/2 62/1/2 66/1/2
f 63/1/2 64/1/2 67/1/2
f 67/1/2 64/1/2 68/1/2
f 69/1/2 70/1/2 73/1/2
f 73/1/2 70/1/2 74/1/2
f 71/1/2 72/1/2 75/1/2
f 75/1/2 72/1/2 76/1/2
f 77/1/2 78/1/2 81/1/2
f 81/1/2 78/1/2 82/1/2
f 79/1/2 80/1/2 83/1/2
f 83/1/2 80/1/2 84/1/2
f 85/1/2 86/1/2 89/1/2
f 89/1/2 86/1/2 90/1/2
f 87/1/2 88/1/2 91/1/2
f 91/1/2 88/1/2 92/1/2
f 93/1/2 94/1/2 97/1/2
f 97/1/2 94/1/2 98/1/2
f 95/1/2 96/1/2 99/1/2
f 99/1/2 96/1/2 100/1/2
f 101/1/2 102/1/2 103/1/2
f 103/1/2 102/1/2 104/1/2
f 107/1/3 106/1/3 105/1/3
f 108/1/3 106/1/3 107/1/3
f 111/1/3 110/1/3 109/1/3
f 112/1/3 110/1/3 111/1/3
f 115/1/3 114/1/3 113/1/3
f 116/1/3 114/1/3 115/1/3
f 119/1/3 118/1/3 117/1/3
f 120/1/3 118/1/3 119/1/3
f 123/1/3 122/1/3 121/1/3
f 124/1/3 122/1/3 123/1/3
f 127/1/3 126/1/3 125/1/3
f 128/1/3 126/1/3 127/1/3
f 131/1/3 130/1/3 129/1/3
f 132/1/3 130/1/3 131/1/3
f 135/1/3 134/1/3 133/1/3
f 136/1/3 134/1/3 135/1/3
f 139/1/3 138/1/3 137/1/3
f 140/1/3 138/1/3 139/1/3
f 143/1/3 142/1/3 141/1/3
f 144/1/3 142/1/3 143/1/3
f 147/1/3 146/1/3 145/1/3
f 148/1/3 146/1/3 147/1/3
f 151/1/3 150/1/3 149/1/3
f 152/1/3 150/1/3 151/1/3
f 155/1/3 154/1/3 153/1/3
f 156/1/3 154/1/3 155/1/3
f 157/1/4 158/1/4 159/1/4
f 159/1/4 158/1/4 160/1/4
f 161/1/4 162/1/4 163/1/4
f 163/1/4 162/1/4 164/1/4
f 165/1/4 166/1/4 167/1/4
f 167/1/4 166/1/4 168/1/4
f 169/1/4 170/1/4 171/1/4
f 171/1/4 170/1/4 172/1/4
f 173/1/4 174/1/4 175/1/4
f 175/1/4 174/1/4 176/1/4
f 177/1/4 178/1/4 179/1/4
f 179/1/4 178/1/4 180/1/4
f 181/1/4 182/1/4 183/1/4
f 183/1/4 182/1/4 184/1/4
f 185/1/4 186/1/4 187/1/4
f 187/1/4 186/1/4 188/1/4
f 189/1/4 190/1/4 191/1/4
f 191/1/4 190/1/4 192/1/4
f 193/1/4 194/1/4 195/1/4
f 195/1/4 194/1/4 196/1/4
f 197/1/4 198/1/4 199/1/4
f 199/1/4 198/1/4 200/1/4
f 201/1/4 202/1/4 203/1/4
f 203/1/4 202/1/4 204/1/4
f 205/1/4 206/1/4 207/1/4
f 207/1/4 206/1/4 208/1/4
f 211/1/5 210/1/5 209/1/5
f 212/1/5 210/1/5 211/1/5
f 213/1/6 214/1/6 215/1/6
f 215/1/6 214/1/6 216/1/6
f 216/1/6 214/1/6 217/1/6
f 217/1/6 214/1/6 218/1/6
f 216/1/6 217/1/6 219/1/6
f 219/1/6 217/1/6 220/1/6
f 218/1/6 214/1/6 221/1/6
f 221/1/6 214/1/6 222/1/6
f 220/1/6 217/1/6 223/1/6
f 223/1/6 217/1/6 224/1/6
f 222/1/6 214/1/6 225/1/6
f 225/1/6 214/1/6 226/1/6
f 213/1/6 215/1/6 227/1/6
f 224/1/6 217/1/6 229/1/6
f 227/1/6 228/1/6 231/1/6
f 229/1/6 230/1/6 233/1/6
f 231/1/6 232/1/6 235/1/6
f 233/1/6 234/1/6 236/1/6
f 224/1/6 229/1/6 236/1/6
f 229/1/6 233/1/6 236/1/6
f 236/1/6 234/1/6 237/1/6
f 226/1/6 214/1/6 238/1/6
f 236/1/6 237/1/6 239/1/6
f 237/1/6 238/1/6 239/1/6
f 231/1/6 235/1/6 239/1/6
f 213/1/6 227/1/6 239/1/6
f 235/1/6 236/1/6 239/1/6
f 227/1/6 231/1/6 239/1/6
f 239/1/6 238/1/6 240/1/6
f 240/1/6 238/1/6 241/1/6
f 241/1/6 238/1/6 242/1/6
f 240/1/6 241/1/6 243/1/6
f 243/1/6 241/1/6 244/1/6
f 242/1/6 238/1/6 245/1/6
f 245/1/6 238/1/6 246/1/6
f 244/1/6 241/1/6 247/1/6
f 247/1/6 241/1/6 248/1/6
f 246/1/6 238/1/6 249/1/6
f 238/1/6 214/1/6 250/1/6
f 249/1/6 238/1/6 250/1/6
f 213/1/6 239/1/6 251/1/6
f 248/1/6 241/1/6 253/1/6
f 251/1/6 252/1/6 255/1/6
f 253/1/6 254/1/6 257/1/6
f 255/1/6 256/1/6 259/1/6
f 257/1/6 258/1/6 260/1/6
f 248/1/6 253/1/6 260/1/6
f 253/1/6 257/1/6 260/1/6
f 260/1/6 258/1/6 261/1/6
f 250/1/6 214/1/6 262/1/6
f 260/1/6 261/1/6 263/1/6
f 261/1/6 262/1/6 263/1/6
f 255/1/6 259/1/6 263/1/6
f 213/1/6 251/1/6 263/1/6
f 259/1/6 260/1/6 263/1/6
f 251/1/6 255/1/6 263/1/6
f 262/1/6 214/1/6 264/1/6
f 263/1/6 262/1/6 264/1/6
f 265/1/6 266/1/6 269/1/6
f 267/1/6 268/1/6 271/1/6
f 269/1/6 270/1/6 273/1/6
f 271/1/6 272/1/6 275/1/6
f 273/1/6 274/1/6 277/1/6
f 265/1/6 269/1/6 277/1/6
f 269/1/6 273/1/6 277/1/6
f 277/1/6 274/1/6 278/1/6
f 275/1/6 276/1/6 279/1/6
f 271/1/6 275/1/6 279/1/6
f 267/1/6 271/1/6 279/1/6
f 279/1/6 276/1/6 280/1/6
f 278/1/6 274/1/6 281/1/6
f 281/1/6 274/1/6 282/1/6
f 280/1/6 276/1/6 283/1/6
f 283/1/6 276/1/6 284/1/6
f 282/1/6 274/1/6 285/1/6
f 285/1/6 274/1/6 286/1/6
f 284/1/6 276/1/6 287/1/6
f 287/1/6 276/1/6 288/1/6
f 289/1/6 290/1/6 293/1/6
f 291/1/6 292/1/6 295/1/6
f 293/1/6 294/1/6 297/1/6
f 295/1/6 296/1/6 299/1/6
f 297/1/6 298/1/6 301/1/6
f 289/1/6 293/1/6 301/1/6
f 293/1/6 297/1/6 301/1/6
f 301/1/6 298/1/6 302/1/6
f 299/1/6 300/1/6 303/1/6
f 295/1/6 299/1/6 303/1/6
f 291/1/6 295/1/6 303/1/6
f 303/1/6 300/1/6 304/1/6
f 302/1/6 298/1/6 305/1/6
f 305/1/6 298/1/6 306/1/6
f 304/1/6 300/1/6 307/1/6
f 307/1/6 300/1/6 308/1/6
f 306/1/6 298/1/6 309/1/6
f 309/1/6 298/1/6 310/1/6
f 308/1/6 300/1/6 311/1/6
f 311/1/6 300/1/6 312/1/6
