# MagicaVoxel @ Ephtracy

# group
o 

# material
mtllib mart-2.mtl
usemtl palette

# normals
vn 0 -1 0
vn 0 1 0
vn 0 0 -1
vn 0 0 1
vn 1 0 0
vn -1 0 0

# texcoords
vt 0.845703 0.5
vt 0.876953 0.5
vt 0.880859 0.5

# verts
v 12.4 4.6 -11.4
v 12.4 4.6 -10.8
v 6.7 4.6 -11.4
v 6.7 4.6 -10.8
v 6.9 4.9 -11.4
v 6.9 4.9 -10.8
v 6.7 4.9 -11.4
v 6.7 4.9 -10.8
v 12.4 5 -11.4
v 12.4 5 -10.8
v 10.7 5 -11.1
v 10.7 5 -11
v 10.7 5 -10.8
v 10.6 5 -11.1
v 10.6 5 -11
v 10.6 5 -10.8
v 10.3 5 -11.1
v 10.3 5 -11
v 10.3 5 -10.8
v 10.2 5 -11.1
v 10.2 5 -11
v 10.2 5 -10.8
v 6.9 5 -11.4
v 6.9 5 -10.8
v 12.4 4.6 -11.4
v 6.7 4.6 -11.4
v 6.9 4.9 -11.4
v 6.7 4.9 -11.4
v 12.4 5 -11.4
v 6.9 5 -11.4
v 12.4 4.6 -10.8
v 6.7 4.6 -10.8
v 10.7 4.7 -10.8
v 10.6 4.7 -10.8
v 10.3 4.7 -10.8
v 10.2 4.7 -10.8
v 6.9 4.9 -10.8
v 6.7 4.9 -10.8
v 12.4 5 -10.8
v 10.7 5 -10.8
v 10.6 5 -10.8
v 10.3 5 -10.8
v 10.2 5 -10.8
v 6.9 5 -10.8
v 12.4 4.6 -11.4
v 12.4 5 -11.4
v 12.4 4.6 -10.8
v 12.4 5 -10.8
v 6.9 4.9 -11.4
v 6.9 5 -11.4
v 6.9 4.9 -10.8
v 6.9 5 -10.8
v 6.7 4.6 -11.4
v 6.7 4.9 -11.4
v 6.7 4.6 -10.8
v 6.7 4.9 -10.8

# faces
f 1/2/1 2/2/1 3/2/1
f 3/2/1 2/2/1 4/2/1
f 7/2/2 6/2/2 5/2/2
f 8/2/2 6/2/2 7/2/2
f 11/2/2 10/2/2 9/2/2
f 12/2/2 10/2/2 11/2/2
f 13/2/2 10/2/2 12/2/2
f 14/2/2 11/2/2 9/2/2
f 14/3/2 12/3/2 11/3/2
f 15/1/2 13/1/2 12/1/2
f 15/3/2 12/3/2 14/3/2
f 16/1/2 13/1/2 15/1/2
f 17/2/2 14/2/2 9/2/2
f 17/2/2 15/2/2 14/2/2
f 17/2/2 16/2/2 15/2/2
f 18/2/2 16/2/2 17/2/2
f 19/2/2 16/2/2 18/2/2
f 20/2/2 17/2/2 9/2/2
f 20/3/2 18/3/2 17/3/2
f 21/1/2 19/1/2 18/1/2
f 21/3/2 18/3/2 20/3/2
f 22/1/2 19/1/2 21/1/2
f 23/2/2 20/2/2 9/2/2
f 23/2/2 21/2/2 20/2/2
f 23/2/2 22/2/2 21/2/2
f 24/2/2 22/2/2 23/2/2
f 25/2/3 26/2/3 27/2/3
f 27/2/3 26/2/3 28/2/3
f 25/2/3 27/2/3 29/2/3
f 29/2/3 27/2/3 30/2/3
f 33/2/4 32/2/4 31/2/4
f 34/2/4 32/2/4 33/2/4
f 35/2/4 32/2/4 34/2/4
f 36/2/4 32/2/4 35/2/4
f 37/2/4 32/2/4 36/2/4
f 38/2/4 32/2/4 37/2/4
f 39/2/4 33/2/4 31/2/4
f 40/1/4 34/1/4 33/1/4
f 40/2/4 33/2/4 39/2/4
f 41/2/4 35/2/4 34/2/4
f 41/1/4 34/1/4 40/1/4
f 42/1/4 36/1/4 35/1/4
f 42/2/4 35/2/4 41/2/4
f 43/2/4 37/2/4 36/2/4
f 43/1/4 36/1/4 42/1/4
f 44/2/4 37/2/4 43/2/4
f 45/2/5 46/2/5 47/2/5
f 47/2/5 46/2/5 48/2/5
f 51/2/6 50/2/6 49/2/6
f 52/2/6 50/2/6 51/2/6
f 55/2/6 54/2/6 53/2/6
f 56/2/6 54/2/6 55/2/6
