# MagicaVoxel @ Ephtracy

# group
o 

# material
mtllib mart-19.mtl
usemtl palette

# normals
vn 0 0 -1
vn 0 0 1
vn -1 0 0
vn 1 0 0
vn 0 -1 0
vn 0 1 0

# texcoords
vt 0.845703 0.5
vt 0.876953 0.5
vt 0.880859 0.5

# verts
v 3.3 0 -7.2
v 7.2 0 -7.2
v 3.3 2.1 -7.2
v 3.5 2.1 -7.2
v 7.2 2.1 -7.2
v 3.3 4 -7.2
v 3.5 4 -7.2
v 7.2 4 -7.2
v 3.3 4.8 -7.2
v 7.2 4.8 -7.2
v 3.3 0 -2.4
v 7.2 0 -2.4
v 3.3 2.1 -2.4
v 3.5 2.1 -2.4
v 7.2 2.1 -2.4
v 3.3 4 -2.4
v 3.5 4 -2.4
v 7.2 4 -2.4
v 3.3 4.8 -2.4
v 7.2 4.8 -2.4
v 3.3 0 -7.2
v 3.3 2.1 -7.2
v 3.3 4 -7.2
v 3.3 4.8 -7.2
v 3.3 0 -2.4
v 3.3 2.1 -2.4
v 3.3 4 -2.4
v 3.3 4.8 -2.4
v 3.5 2.1 -7.2
v 3.5 4 -7.2
v 3.5 2.1 -2.4
v 3.5 4 -2.4
v 7.2 0 -7.2
v 7.2 2.1 -7.2
v 7.2 4 -7.2
v 7.2 4.8 -7.2
v 7.2 0 -2.4
v 7.2 2.1 -2.4
v 7.2 4 -2.4
v 7.2 4.8 -2.4
v 3.3 0 -7.2
v 3.3 0 -2.4
v 7.2 0 -7.2
v 7.2 0 -2.4
v 3.3 4 -7.2
v 3.3 4 -2.4
v 3.5 4 -7.2
v 3.5 4 -2.4
v 3.3 2.1 -7.2
v 3.3 2.1 -2.4
v 3.5 2.1 -7.2
v 3.5 2.1 -2.4
v 3.3 4.8 -7.2
v 3.3 4.8 -2.4
v 7.2 4.8 -7.2
v 7.2 4.8 -2.4

# faces
f 3/1/1 2/1/1 1/1/1
f 4/1/1 2/1/1 3/1/1
f 5/1/1 2/1/1 4/1/1
f 7/2/1 5/2/1 4/2/1
f 8/2/1 5/2/1 7/2/1
f 9/3/1 7/3/1 6/3/1
f 9/3/1 8/3/1 7/3/1
f 10/3/1 8/3/1 9/3/1
f 11/1/2 12/1/2 13/1/2
f 13/1/2 12/1/2 14/1/2
f 14/1/2 12/1/2 15/1/2
f 14/2/2 15/2/2 17/2/2
f 17/2/2 15/2/2 18/2/2
f 16/3/2 17/3/2 19/3/2
f 17/3/2 18/3/2 19/3/2
f 19/3/2 18/3/2 20/3/2
f 25/1/3 22/1/3 21/1/3
f 26/1/3 22/1/3 25/1/3
f 27/3/3 24/3/3 23/3/3
f 28/3/3 24/3/3 27/3/3
f 31/2/3 30/2/3 29/2/3
f 32/2/3 30/2/3 31/2/3
f 33/1/4 34/1/4 37/1/4
f 34/2/4 35/2/4 38/2/4
f 37/1/4 34/1/4 38/1/4
f 35/3/4 36/3/4 39/3/4
f 38/2/4 35/2/4 39/2/4
f 39/3/4 36/3/4 40/3/4
f 43/1/5 42/1/5 41/1/5
f 44/1/5 42/1/5 43/1/5
f 47/3/5 46/3/5 45/3/5
f 48/3/5 46/3/5 47/3/5
f 49/1/6 50/1/6 51/1/6
f 51/1/6 50/1/6 52/1/6
f 53/3/6 54/3/6 55/3/6
f 55/3/6 54/3/6 56/3/6
