# MagicaVoxel @ Ephtracy

# group
o 

# material
mtllib gym-54.mtl
usemtl palette

# normals
vn -1 0 0
vn 1 0 0
vn 0 0 -1
vn 0 0 1
vn 0 -1 0
vn 0 1 0

# texcoords
vt 0.818359 0.5

# verts
v 13.9 2.4 -10.9
v 13.9 2.4 -10.8
v 13.9 3.7 -10.9
v 13.9 3.7 -10.8
v 14.2 3.3 -10.9
v 14.2 3.3 -10.8
v 14.2 3.4 -10.9
v 14.2 3.4 -10.8
v 14.3 3.2 -10.9
v 14.3 3.2 -10.8
v 14.3 3.3 -10.9
v 14.3 3.3 -10.8
v 14.4 3.1 -10.9
v 14.4 3.1 -10.8
v 14.4 3.2 -10.9
v 14.4 3.2 -10.8
v 14.5 3.3 -10.9
v 14.5 3.3 -10.8
v 14.5 3.4 -10.9
v 14.5 3.4 -10.8
v 14.6 3.4 -10.9
v 14.6 3.4 -10.8
v 14.6 3.5 -10.9
v 14.6 3.5 -10.8
v 14.7 3.5 -10.9
v 14.7 3.5 -10.8
v 14.7 3.6 -10.9
v 14.7 3.6 -10.8
v 14.8 2.4 -10.9
v 14.8 2.4 -10.8
v 14.8 3.4 -10.9
v 14.8 3.4 -10.8
v 14.8 3.6 -10.9
v 14.8 3.6 -10.8
v 14.8 3.7 -10.9
v 14.8 3.7 -10.8
v 15.2 3.4 -10.9
v 15.2 3.4 -10.8
v 15.2 3.7 -10.9
v 15.2 3.7 -10.8
v 15.3 3.3 -10.9
v 15.3 3.3 -10.8
v 15.3 3.4 -10.9
v 15.3 3.4 -10.8
v 15.4 3.2 -10.9
v 15.4 3.2 -10.8
v 15.4 3.3 -10.9
v 15.4 3.3 -10.8
v 15.5 3.1 -10.9
v 15.5 3.1 -10.8
v 15.5 3.2 -10.9
v 15.5 3.2 -10.8
v 15.6 2.5 -10.9
v 15.6 2.5 -10.8
v 15.6 3.1 -10.9
v 15.6 3.1 -10.8
v 15.8 3.2 -10.9
v 15.8 3.2 -10.8
v 15.8 3.3 -10.9
v 15.8 3.3 -10.8
v 15.9 3.3 -10.9
v 15.9 3.3 -10.8
v 15.9 3.4 -10.9
v 15.9 3.4 -10.8
v 16 3.4 -10.9
v 16 3.4 -10.8
v 16 3.7 -10.9
v 16 3.7 -10.8
v 16.4 2.5 -10.9
v 16.4 2.5 -10.8
v 16.4 3 -10.9
v 16.4 3 -10.8
v 16.4 3.3 -10.9
v 16.4 3.3 -10.8
v 16.4 3.7 -10.9
v 16.4 3.7 -10.8
v 17 2.7 -10.9
v 17 2.7 -10.8
v 17 3.5 -10.9
v 17 3.5 -10.8
v 14.1 2.4 -10.9
v 14.1 2.4 -10.8
v 14.1 3.4 -10.9
v 14.1 3.4 -10.8
v 14.1 3.6 -10.9
v 14.1 3.6 -10.8
v 14.1 3.7 -10.9
v 14.1 3.7 -10.8
v 14.2 3.5 -10.9
v 14.2 3.5 -10.8
v 14.2 3.6 -10.9
v 14.2 3.6 -10.8
v 14.3 3.4 -10.9
v 14.3 3.4 -10.8
v 14.3 3.5 -10.9
v 14.3 3.5 -10.8
v 14.4 3.3 -10.9
v 14.4 3.3 -10.8
v 14.4 3.4 -10.9
v 14.4 3.4 -10.8
v 14.5 3.1 -10.9
v 14.5 3.1 -10.8
v 14.5 3.2 -10.9
v 14.5 3.2 -10.8
v 14.6 3.2 -10.9
v 14.6 3.2 -10.8
v 14.6 3.3 -10.9
v 14.6 3.3 -10.8
v 14.7 3.3 -10.9
v 14.7 3.3 -10.8
v 14.7 3.4 -10.9
v 14.7 3.4 -10.8
v 15 2.4 -10.9
v 15 2.4 -10.8
v 15 3.7 -10.9
v 15 3.7 -10.8
v 15.4 3.4 -10.9
v 15.4 3.4 -10.8
v 15.4 3.7 -10.9
v 15.4 3.7 -10.8
v 15.5 3.3 -10.9
v 15.5 3.3 -10.8
v 15.5 3.4 -10.9
v 15.5 3.4 -10.8
v 15.6 3.2 -10.9
v 15.6 3.2 -10.8
v 15.6 3.3 -10.9
v 15.6 3.3 -10.8
v 15.8 2.5 -10.9
v 15.8 2.5 -10.8
v 15.8 3.1 -10.9
v 15.8 3.1 -10.8
v 15.9 3.1 -10.9
v 15.9 3.1 -10.8
v 15.9 3.2 -10.9
v 15.9 3.2 -10.8
v 16 3.2 -10.9
v 16 3.2 -10.8
v 16 3.3 -10.9
v 16 3.3 -10.8
v 16.1 3.3 -10.9
v 16.1 3.3 -10.8
v 16.1 3.4 -10.9
v 16.1 3.4 -10.8
v 16.2 3.4 -10.9
v 16.2 3.4 -10.8
v 16.2 3.7 -10.9
v 16.2 3.7 -10.8
v 16.6 2.7 -10.9
v 16.6 2.7 -10.8
v 16.6 2.9 -10.9
v 16.6 2.9 -10.8
v 16.6 3.3 -10.9
v 16.6 3.3 -10.8
v 16.6 3.5 -10.9
v 16.6 3.5 -10.8
v 16.8 2.9 -10.9
v 16.8 2.9 -10.8
v 16.8 3 -10.9
v 16.8 3 -10.8
v 17.2 2.5 -10.9
v 17.2 2.5 -10.8
v 17.2 3.7 -10.9
v 17.2 3.7 -10.8
v 13.9 2.4 -10.9
v 13.9 3.7 -10.9
v 14.1 2.4 -10.9
v 14.1 3.4 -10.9
v 14.1 3.6 -10.9
v 14.1 3.7 -10.9
v 14.2 3.3 -10.9
v 14.2 3.4 -10.9
v 14.2 3.5 -10.9
v 14.2 3.6 -10.9
v 14.3 3.2 -10.9
v 14.3 3.3 -10.9
v 14.3 3.4 -10.9
v 14.3 3.5 -10.9
v 14.4 3.1 -10.9
v 14.4 3.2 -10.9
v 14.4 3.3 -10.9
v 14.4 3.4 -10.9
v 14.5 3.1 -10.9
v 14.5 3.2 -10.9
v 14.5 3.3 -10.9
v 14.5 3.4 -10.9
v 14.6 3.2 -10.9
v 14.6 3.3 -10.9
v 14.6 3.4 -10.9
v 14.6 3.5 -10.9
v 14.7 3.3 -10.9
v 14.7 3.4 -10.9
v 14.7 3.5 -10.9
v 14.7 3.6 -10.9
v 14.8 2.4 -10.9
v 14.8 3.4 -10.9
v 14.8 3.6 -10.9
v 14.8 3.7 -10.9
v 15 2.4 -10.9
v 15 3.7 -10.9
v 15.2 3.4 -10.9
v 15.2 3.7 -10.9
v 15.3 3.3 -10.9
v 15.3 3.4 -10.9
v 15.4 3.2 -10.9
v 15.4 3.3 -10.9
v 15.4 3.4 -10.9
v 15.4 3.7 -10.9
v 15.5 3.1 -10.9
v 15.5 3.2 -10.9
v 15.5 3.3 -10.9
v 15.5 3.4 -10.9
v 15.6 2.5 -10.9
v 15.6 3.1 -10.9
v 15.6 3.2 -10.9
v 15.6 3.3 -10.9
v 15.8 2.5 -10.9
v 15.8 3.1 -10.9
v 15.8 3.2 -10.9
v 15.8 3.3 -10.9
v 15.9 3.1 -10.9
v 15.9 3.2 -10.9
v 15.9 3.3 -10.9
v 15.9 3.4 -10.9
v 16 3.2 -10.9
v 16 3.3 -10.9
v 16 3.4 -10.9
v 16 3.7 -10.9
v 16.1 3.3 -10.9
v 16.1 3.4 -10.9
v 16.2 3.4 -10.9
v 16.2 3.7 -10.9
v 16.4 2.5 -10.9
v 16.4 3 -10.9
v 16.4 3.3 -10.9
v 16.4 3.7 -10.9
v 16.6 2.7 -10.9
v 16.6 2.9 -10.9
v 16.6 3.3 -10.9
v 16.6 3.5 -10.9
v 16.8 2.9 -10.9
v 16.8 3 -10.9
v 17 2.7 -10.9
v 17 3.5 -10.9
v 17.2 2.5 -10.9
v 17.2 3.7 -10.9
v 13.9 2.4 -10.8
v 13.9 3.7 -10.8
v 14.1 2.4 -10.8
v 14.1 3.4 -10.8
v 14.1 3.6 -10.8
v 14.1 3.7 -10.8
v 14.2 3.3 -10.8
v 14.2 3.4 -10.8
v 14.2 3.5 -10.8
v 14.2 3.6 -10.8
v 14.3 3.2 -10.8
v 14.3 3.3 -10.8
v 14.3 3.4 -10.8
v 14.3 3.5 -10.8
v 14.4 3.1 -10.8
v 14.4 3.2 -10.8
v 14.4 3.3 -10.8
v 14.4 3.4 -10.8
v 14.5 3.1 -10.8
v 14.5 3.2 -10.8
v 14.5 3.3 -10.8
v 14.5 3.4 -10.8
v 14.6 3.2 -10.8
v 14.6 3.3 -10.8
v 14.6 3.4 -10.8
v 14.6 3.5 -10.8
v 14.7 3.3 -10.8
v 14.7 3.4 -10.8
v 14.7 3.5 -10.8
v 14.7 3.6 -10.8
v 14.8 2.4 -10.8
v 14.8 3.4 -10.8
v 14.8 3.6 -10.8
v 14.8 3.7 -10.8
v 15 2.4 -10.8
v 15 3.7 -10.8
v 15.2 3.4 -10.8
v 15.2 3.7 -10.8
v 15.3 3.3 -10.8
v 15.3 3.4 -10.8
v 15.4 3.2 -10.8
v 15.4 3.3 -10.8
v 15.4 3.4 -10.8
v 15.4 3.7 -10.8
v 15.5 3.1 -10.8
v 15.5 3.2 -10.8
v 15.5 3.3 -10.8
v 15.5 3.4 -10.8
v 15.6 2.5 -10.8
v 15.6 3.1 -10.8
v 15.6 3.2 -10.8
v 15.6 3.3 -10.8
v 15.8 2.5 -10.8
v 15.8 3.1 -10.8
v 15.8 3.2 -10.8
v 15.8 3.3 -10.8
v 15.9 3.1 -10.8
v 15.9 3.2 -10.8
v 15.9 3.3 -10.8
v 15.9 3.4 -10.8
v 16 3.2 -10.8
v 16 3.3 -10.8
v 16 3.4 -10.8
v 16 3.7 -10.8
v 16.1 3.3 -10.8
v 16.1 3.4 -10.8
v 16.2 3.4 -10.8
v 16.2 3.7 -10.8
v 16.4 2.5 -10.8
v 16.4 3 -10.8
v 16.4 3.3 -10.8
v 16.4 3.7 -10.8
v 16.6 2.7 -10.8
v 16.6 2.9 -10.8
v 16.6 3.3 -10.8
v 16.6 3.5 -10.8
v 16.8 2.9 -10.8
v 16.8 3 -10.8
v 17 2.7 -10.8
v 17 3.5 -10.8
v 17.2 2.5 -10.8
v 17.2 3.7 -10.8
v 13.9 2.4 -10.9
v 14.1 2.4 -10.9
v 14.8 2.4 -10.9
v 15 2.4 -10.9
v 13.9 2.4 -10.8
v 14.1 2.4 -10.8
v 14.8 2.4 -10.8
v 15 2.4 -10.8
v 15.6 2.5 -10.9
v 15.8 2.5 -10.9
v 16.4 2.5 -10.9
v 17.2 2.5 -10.9
v 15.6 2.5 -10.8
v 15.8 2.5 -10.8
v 16.4 2.5 -10.8
v 17.2 2.5 -10.8
v 16.6 2.9 -10.9
v 16.8 2.9 -10.9
v 16.6 2.9 -10.8
v 16.8 2.9 -10.8
v 14.4 3.1 -10.9
v 14.5 3.1 -10.9
v 15.5 3.1 -10.9
v 15.6 3.1 -10.9
v 15.8 3.1 -10.9
v 15.9 3.1 -10.9
v 14.4 3.1 -10.8
v 14.5 3.1 -10.8
v 15.5 3.1 -10.8
v 15.6 3.1 -10.8
v 15.8 3.1 -10.8
v 15.9 3.1 -10.8
v 14.3 3.2 -10.9
v 14.4 3.2 -10.9
v 14.5 3.2 -10.9
v 14.6 3.2 -10.9
v 15.4 3.2 -10.9
v 15.5 3.2 -10.9
v 15.9 3.2 -10.9
v 16 3.2 -10.9
v 14.3 3.2 -10.8
v 14.4 3.2 -10.8
v 14.5 3.2 -10.8
v 14.6 3.2 -10.8
v 15.4 3.2 -10.8
v 15.5 3.2 -10.8
v 15.9 3.2 -10.8
v 16 3.2 -10.8
v 14.2 3.3 -10.9
v 14.3 3.3 -10.9
v 14.6 3.3 -10.9
v 14.7 3.3 -10.9
v 15.3 3.3 -10.9
v 15.4 3.3 -10.9
v 16 3.3 -10.9
v 16.1 3.3 -10.9
v 16.4 3.3 -10.9
v 16.6 3.3 -10.9
v 14.2 3.3 -10.8
v 14.3 3.3 -10.8
v 14.6 3.3 -10.8
v 14.7 3.3 -10.8
v 15.3 3.3 -10.8
v 15.4 3.3 -10.8
v 16 3.3 -10.8
v 16.1 3.3 -10.8
v 16.4 3.3 -10.8
v 16.6 3.3 -10.8
v 14.1 3.4 -10.9
v 14.2 3.4 -10.9
v 14.7 3.4 -10.9
v 14.8 3.4 -10.9
v 15.2 3.4 -10.9
v 15.3 3.4 -10.9
v 16.1 3.4 -10.9
v 16.2 3.4 -10.9
v 14.1 3.4 -10.8
v 14.2 3.4 -10.8
v 14.7 3.4 -10.8
v 14.8 3.4 -10.8
v 15.2 3.4 -10.8
v 15.3 3.4 -10.8
v 16.1 3.4 -10.8
v 16.2 3.4 -10.8
v 16.6 3.5 -10.9
v 17 3.5 -10.9
v 16.6 3.5 -10.8
v 17 3.5 -10.8
v 16.6 2.7 -10.9
v 17 2.7 -10.9
v 16.6 2.7 -10.8
v 17 2.7 -10.8
v 16.4 3 -10.9
v 16.8 3 -10.9
v 16.4 3 -10.8
v 16.8 3 -10.8
v 15.6 3.2 -10.9
v 15.8 3.2 -10.9
v 15.6 3.2 -10.8
v 15.8 3.2 -10.8
v 14.4 3.3 -10.9
v 14.5 3.3 -10.9
v 15.5 3.3 -10.9
v 15.6 3.3 -10.9
v 15.8 3.3 -10.9
v 15.9 3.3 -10.9
v 14.4 3.3 -10.8
v 14.5 3.3 -10.8
v 15.5 3.3 -10.8
v 15.6 3.3 -10.8
v 15.8 3.3 -10.8
v 15.9 3.3 -10.8
v 14.3 3.4 -10.9
v 14.4 3.4 -10.9
v 14.5 3.4 -10.9
v 14.6 3.4 -10.9
v 15.4 3.4 -10.9
v 15.5 3.4 -10.9
v 15.9 3.4 -10.9
v 16 3.4 -10.9
v 14.3 3.4 -10.8
v 14.4 3.4 -10.8
v 14.5 3.4 -10.8
v 14.6 3.4 -10.8
v 15.4 3.4 -10.8
v 15.5 3.4 -10.8
v 15.9 3.4 -10.8
v 16 3.4 -10.8
v 14.2 3.5 -10.9
v 14.3 3.5 -10.9
v 14.6 3.5 -10.9
v 14.7 3.5 -10.9
v 14.2 3.5 -10.8
v 14.3 3.5 -10.8
v 14.6 3.5 -10.8
v 14.7 3.5 -10.8
v 14.1 3.6 -10.9
v 14.2 3.6 -10.9
v 14.7 3.6 -10.9
v 14.8 3.6 -10.9
v 14.1 3.6 -10.8
v 14.2 3.6 -10.8
v 14.7 3.6 -10.8
v 14.8 3.6 -10.8
v 13.9 3.7 -10.9
v 14.1 3.7 -10.9
v 14.8 3.7 -10.9
v 15 3.7 -10.9
v 15.2 3.7 -10.9
v 15.4 3.7 -10.9
v 16 3.7 -10.9
v 16.2 3.7 -10.9
v 16.4 3.7 -10.9
v 17.2 3.7 -10.9
v 13.9 3.7 -10.8
v 14.1 3.7 -10.8
v 14.8 3.7 -10.8
v 15 3.7 -10.8
v 15.2 3.7 -10.8
v 15.4 3.7 -10.8
v 16 3.7 -10.8
v 16.2 3.7 -10.8
v 16.4 3.7 -10.8
v 17.2 3.7 -10.8

# faces
f 1/1/1 2/1/1 3/1/1
f 3/1/1 2/1/1 4/1/1
f 5/1/1 6/1/1 7/1/1
f 7/1/1 6/1/1 8/1/1
f 9/1/1 10/1/1 11/1/1
f 11/1/1 10/1/1 12/1/1
f 13/1/1 14/1/1 15/1/1
f 15/1/1 14/1/1 16/1/1
f 17/1/1 18/1/1 19/1/1
f 19/1/1 18/1/1 20/1/1
f 21/1/1 22/1/1 23/1/1
f 23/1/1 22/1/1 24/1/1
f 25/1/1 26/1/1 27/1/1
f 27/1/1 26/1/1 28/1/1
f 29/1/1 30/1/1 31/1/1
f 31/1/1 30/1/1 32/1/1
f 33/1/1 34/1/1 35/1/1
f 35/1/1 34/1/1 36/1/1
f 37/1/1 38/1/1 39/1/1
f 39/1/1 38/1/1 40/1/1
f 41/1/1 42/1/1 43/1/1
f 43/1/1 42/1/1 44/1/1
f 45/1/1 46/1/1 47/1/1
f 47/1/1 46/1/1 48/1/1
f 49/1/1 50/1/1 51/1/1
f 51/1/1 50/1/1 52/1/1
f 53/1/1 54/1/1 55/1/1
f 55/1/1 54/1/1 56/1/1
f 57/1/1 58/1/1 59/1/1
f 59/1/1 58/1/1 60/1/1
f 61/1/1 62/1/1 63/1/1
f 63/1/1 62/1/1 64/1/1
f 65/1/1 66/1/1 67/1/1
f 67/1/1 66/1/1 68/1/1
f 69/1/1 70/1/1 71/1/1
f 71/1/1 70/1/1 72/1/1
f 73/1/1 74/1/1 75/1/1
f 75/1/1 74/1/1 76/1/1
f 77/1/1 78/1/1 79/1/1
f 79/1/1 78/1/1 80/1/1
f 83/1/2 82/1/2 81/1/2
f 84/1/2 82/1/2 83/1/2
f 87/1/2 86/1/2 85/1/2
f 88/1/2 86/1/2 87/1/2
f 91/1/2 90/1/2 89/1/2
f 92/1/2 90/1/2 91/1/2
f 95/1/2 94/1/2 93/1/2
f 96/1/2 94/1/2 95/1/2
f 99/1/2 98/1/2 97/1/2
f 100/1/2 98/1/2 99/1/2
f 103/1/2 102/1/2 101/1/2
f 104/1/2 102/1/2 103/1/2
f 107/1/2 106/1/2 105/1/2
f 108/1/2 106/1/2 107/1/2
f 111/1/2 110/1/2 109/1/2
f 112/1/2 110/1/2 111/1/2
f 115/1/2 114/1/2 113/1/2
f 116/1/2 114/1/2 115/1/2
f 119/1/2 118/1/2 117/1/2
f 120/1/2 118/1/2 119/1/2
f 123/1/2 122/1/2 121/1/2
f 124/1/2 122/1/2 123/1/2
f 127/1/2 126/1/2 125/1/2
f 128/1/2 126/1/2 127/1/2
f 131/1/2 130/1/2 129/1/2
f 132/1/2 130/1/2 131/1/2
f 135/1/2 134/1/2 133/1/2
f 136/1/2 134/1/2 135/1/2
f 139/1/2 138/1/2 137/1/2
f 140/1/2 138/1/2 139/1/2
f 143/1/2 142/1/2 141/1/2
f 144/1/2 142/1/2 143/1/2
f 147/1/2 146/1/2 145/1/2
f 148/1/2 146/1/2 147/1/2
f 151/1/2 150/1/2 149/1/2
f 152/1/2 150/1/2 151/1/2
f 155/1/2 154/1/2 153/1/2
f 156/1/2 154/1/2 155/1/2
f 159/1/2 158/1/2 157/1/2
f 160/1/2 158/1/2 159/1/2
f 163/1/2 162/1/2 161/1/2
f 164/1/2 162/1/2 163/1/2
f 165/1/3 166/1/3 167/1/3
f 167/1/3 166/1/3 168/1/3
f 168/1/3 166/1/3 169/1/3
f 169/1/3 166/1/3 170/1/3
f 168/1/3 169/1/3 172/1/3
f 172/1/3 169/1/3 173/1/3
f 173/1/3 169/1/3 174/1/3
f 171/1/3 172/1/3 176/1/3
f 172/1/3 173/1/3 176/1/3
f 176/1/3 173/1/3 177/1/3
f 177/1/3 173/1/3 178/1/3
f 175/1/3 176/1/3 180/1/3
f 176/1/3 177/1/3 180/1/3
f 180/1/3 177/1/3 181/1/3
f 181/1/3 177/1/3 182/1/3
f 179/1/3 180/1/3 183/1/3
f 180/1/3 181/1/3 183/1/3
f 183/1/3 181/1/3 184/1/3
f 184/1/3 181/1/3 185/1/3
f 185/1/3 186/1/3 187/1/3
f 184/1/3 185/1/3 187/1/3
f 187/1/3 186/1/3 188/1/3
f 188/1/3 186/1/3 189/1/3
f 188/1/3 189/1/3 191/1/3
f 189/1/3 190/1/3 191/1/3
f 191/1/3 190/1/3 192/1/3
f 192/1/3 190/1/3 193/1/3
f 192/1/3 193/1/3 196/1/3
f 193/1/3 194/1/3 196/1/3
f 196/1/3 194/1/3 197/1/3
f 196/1/3 197/1/3 199/1/3
f 197/1/3 198/1/3 199/1/3
f 195/1/3 196/1/3 199/1/3
f 199/1/3 198/1/3 200/1/3
f 201/1/3 202/1/3 204/1/3
f 203/1/3 204/1/3 206/1/3
f 204/1/3 202/1/3 207/1/3
f 206/1/3 204/1/3 207/1/3
f 207/1/3 202/1/3 208/1/3
f 205/1/3 206/1/3 210/1/3
f 206/1/3 207/1/3 210/1/3
f 210/1/3 207/1/3 211/1/3
f 211/1/3 207/1/3 212/1/3
f 209/1/3 210/1/3 214/1/3
f 210/1/3 211/1/3 214/1/3
f 214/1/3 211/1/3 215/1/3
f 215/1/3 211/1/3 216/1/3
f 213/1/3 214/1/3 217/1/3
f 214/1/3 215/1/3 217/1/3
f 217/1/3 215/1/3 218/1/3
f 218/1/3 215/1/3 219/1/3
f 219/1/3 220/1/3 221/1/3
f 218/1/3 219/1/3 221/1/3
f 221/1/3 220/1/3 222/1/3
f 222/1/3 220/1/3 223/1/3
f 222/1/3 223/1/3 225/1/3
f 223/1/3 224/1/3 225/1/3
f 225/1/3 224/1/3 226/1/3
f 226/1/3 224/1/3 227/1/3
f 226/1/3 227/1/3 229/1/3
f 227/1/3 228/1/3 229/1/3
f 229/1/3 228/1/3 230/1/3
f 230/1/3 228/1/3 231/1/3
f 231/1/3 228/1/3 232/1/3
f 233/1/3 234/1/3 237/1/3
f 237/1/3 234/1/3 238/1/3
f 235/1/3 236/1/3 239/1/3
f 239/1/3 236/1/3 240/1/3
f 238/1/3 234/1/3 241/1/3
f 241/1/3 234/1/3 242/1/3
f 233/1/3 237/1/3 243/1/3
f 240/1/3 236/1/3 244/1/3
f 233/1/3 243/1/3 245/1/3
f 243/1/3 244/1/3 245/1/3
f 244/1/3 236/1/3 246/1/3
f 245/1/3 244/1/3 246/1/3
f 249/1/4 248/1/4 247/1/4
f 250/1/4 248/1/4 249/1/4
f 251/1/4 248/1/4 250/1/4
f 252/1/4 248/1/4 251/1/4
f 254/1/4 251/1/4 250/1/4
f 255/1/4 251/1/4 254/1/4
f 256/1/4 251/1/4 255/1/4
f 258/1/4 254/1/4 253/1/4
f 258/1/4 255/1/4 254/1/4
f 259/1/4 255/1/4 258/1/4
f 260/1/4 255/1/4 259/1/4
f 262/1/4 258/1/4 257/1/4
f 262/1/4 259/1/4 258/1/4
f 263/1/4 259/1/4 262/1/4
f 264/1/4 259/1/4 263/1/4
f 265/1/4 262/1/4 261/1/4
f 265/1/4 263/1/4 262/1/4
f 266/1/4 263/1/4 265/1/4
f 267/1/4 263/1/4 266/1/4
f 269/1/4 268/1/4 267/1/4
f 269/1/4 267/1/4 266/1/4
f 270/1/4 268/1/4 269/1/4
f 271/1/4 268/1/4 270/1/4
f 273/1/4 271/1/4 270/1/4
f 273/1/4 272/1/4 271/1/4
f 274/1/4 272/1/4 273/1/4
f 275/1/4 272/1/4 274/1/4
f 278/1/4 275/1/4 274/1/4
f 278/1/4 276/1/4 275/1/4
f 279/1/4 276/1/4 278/1/4
f 281/1/4 279/1/4 278/1/4
f 281/1/4 280/1/4 279/1/4
f 281/1/4 278/1/4 277/1/4
f 282/1/4 280/1/4 281/1/4
f 286/1/4 284/1/4 283/1/4
f 288/1/4 286/1/4 285/1/4
f 289/1/4 284/1/4 286/1/4
f 289/1/4 286/1/4 288/1/4
f 290/1/4 284/1/4 289/1/4
f 292/1/4 288/1/4 287/1/4
f 292/1/4 289/1/4 288/1/4
f 293/1/4 289/1/4 292/1/4
f 294/1/4 289/1/4 293/1/4
f 296/1/4 292/1/4 291/1/4
f 296/1/4 293/1/4 292/1/4
f 297/1/4 293/1/4 296/1/4
f 298/1/4 293/1/4 297/1/4
f 299/1/4 296/1/4 295/1/4
f 299/1/4 297/1/4 296/1/4
f 300/1/4 297/1/4 299/1/4
f 301/1/4 297/1/4 300/1/4
f 303/1/4 302/1/4 301/1/4
f 303/1/4 301/1/4 300/1/4
f 304/1/4 302/1/4 303/1/4
f 305/1/4 302/1/4 304/1/4
f 307/1/4 305/1/4 304/1/4
f 307/1/4 306/1/4 305/1/4
f 308/1/4 306/1/4 307/1/4
f 309/1/4 306/1/4 308/1/4
f 311/1/4 309/1/4 308/1/4
f 311/1/4 310/1/4 309/1/4
f 312/1/4 310/1/4 311/1/4
f 313/1/4 310/1/4 312/1/4
f 314/1/4 310/1/4 313/1/4
f 319/1/4 316/1/4 315/1/4
f 320/1/4 316/1/4 319/1/4
f 321/1/4 318/1/4 317/1/4
f 322/1/4 318/1/4 321/1/4
f 323/1/4 316/1/4 320/1/4
f 324/1/4 316/1/4 323/1/4
f 325/1/4 319/1/4 315/1/4
f 326/1/4 318/1/4 322/1/4
f 327/1/4 325/1/4 315/1/4
f 327/1/4 326/1/4 325/1/4
f 328/1/4 318/1/4 326/1/4
f 328/1/4 326/1/4 327/1/4
f 329/1/5 330/1/5 333/1/5
f 333/1/5 330/1/5 334/1/5
f 331/1/5 332/1/5 335/1/5
f 335/1/5 332/1/5 336/1/5
f 337/1/5 338/1/5 341/1/5
f 341/1/5 338/1/5 342/1/5
f 339/1/5 340/1/5 343/1/5
f 343/1/5 340/1/5 344/1/5
f 345/1/5 346/1/5 347/1/5
f 347/1/5 346/1/5 348/1/5
f 349/1/5 350/1/5 355/1/5
f 355/1/5 350/1/5 356/1/5
f 351/1/5 352/1/5 357/1/5
f 357/1/5 352/1/5 358/1/5
f 353/1/5 354/1/5 359/1/5
f 359/1/5 354/1/5 360/1/5
f 361/1/5 362/1/5 369/1/5
f 369/1/5 362/1/5 370/1/5
f 363/1/5 364/1/5 371/1/5
f 371/1/5 364/1/5 372/1/5
f 365/1/5 366/1/5 373/1/5
f 373/1/5 366/1/5 374/1/5
f 367/1/5 368/1/5 375/1/5
f 375/1/5 368/1/5 376/1/5
f 377/1/5 378/1/5 387/1/5
f 387/1/5 378/1/5 388/1/5
f 379/1/5 380/1/5 389/1/5
f 389/1/5 380/1/5 390/1/5
f 381/1/5 382/1/5 391/1/5
f 391/1/5 382/1/5 392/1/5
f 383/1/5 384/1/5 393/1/5
f 393/1/5 384/1/5 394/1/5
f 385/1/5 386/1/5 395/1/5
f 395/1/5 386/1/5 396/1/5
f 397/1/5 398/1/5 405/1/5
f 405/1/5 398/1/5 406/1/5
f 399/1/5 400/1/5 407/1/5
f 407/1/5 400/1/5 408/1/5
f 401/1/5 402/1/5 409/1/5
f 409/1/5 402/1/5 410/1/5
f 403/1/5 404/1/5 411/1/5
f 411/1/5 404/1/5 412/1/5
f 413/1/5 414/1/5 415/1/5
f 415/1/5 414/1/5 416/1/5
f 419/1/6 418/1/6 417/1/6
f 420/1/6 418/1/6 419/1/6
f 423/1/6 422/1/6 421/1/6
f 424/1/6 422/1/6 423/1/6
f 427/1/6 426/1/6 425/1/6
f 428/1/6 426/1/6 427/1/6
f 435/1/6 430/1/6 429/1/6
f 436/1/6 430/1/6 435/1/6
f 437/1/6 432/1/6 431/1/6
f 438/1/6 432/1/6 437/1/6
f 439/1/6 434/1/6 433/1/6
f 440/1/6 434/1/6 439/1/6
f 449/1/6 442/1/6 441/1/6
f 450/1/6 442/1/6 449/1/6
f 451/1/6 444/1/6 443/1/6
f 452/1/6 444/1/6 451/1/6
f 453/1/6 446/1/6 445/1/6
f 454/1/6 446/1/6 453/1/6
f 455/1/6 448/1/6 447/1/6
f 456/1/6 448/1/6 455/1/6
f 461/1/6 458/1/6 457/1/6
f 462/1/6 458/1/6 461/1/6
f 463/1/6 460/1/6 459/1/6
f 464/1/6 460/1/6 463/1/6
f 469/1/6 466/1/6 465/1/6
f 470/1/6 466/1/6 469/1/6
f 471/1/6 468/1/6 467/1/6
f 472/1/6 468/1/6 471/1/6
f 483/1/6 474/1/6 473/1/6
f 484/1/6 474/1/6 483/1/6
f 485/1/6 476/1/6 475/1/6
f 486/1/6 476/1/6 485/1/6
f 487/1/6 478/1/6 477/1/6
f 488/1/6 478/1/6 487/1/6
f 489/1/6 480/1/6 479/1/6
f 490/1/6 480/1/6 489/1/6
f 491/1/6 482/1/6 481/1/6
f 492/1/6 482/1/6 491/1/6
