# MagicaVoxel @ Ephtracy

# group
o 

# material
mtllib gym-57.mtl
usemtl palette

# normals
vn -1 0 0
vn 1 0 0
vn 0 0 -1
vn 0 0 1
vn 0 -1 0
vn 0 1 0

# texcoords
vt 0.818359 0.5
vt 0.845703 0.5
vt 0.876953 0.5
vt 0.880859 0.5

# verts
v 11.3 0 -14
v 11.3 0 -10.8
v 11.3 1.6 -14
v 11.3 1.6 -13.8
v 11.3 1.6 -11.1
v 11.3 1.6 -11
v 11.3 1.6 -10.8
v 11.3 1.7 -13.9
v 11.3 1.7 -13.8
v 11.3 1.7 -11.1
v 11.3 1.7 -11
v 11.3 1.7 -10.8
v 11.3 2 -13.9
v 11.3 2 -13.8
v 11.3 2 -11.1
v 11.3 2 -11
v 11.3 2 -10.8
v 11.3 2.1 -13.9
v 11.3 2.1 -13.8
v 11.3 2.1 -11.1
v 11.3 2.1 -11
v 11.3 2.1 -10.8
v 11.3 4.8 -13.9
v 11.3 4.8 -10.8
v 12.4 1.6 -13.8
v 12.4 1.6 -11.1
v 12.4 1.6 -11
v 12.4 1.6 -10.8
v 12.4 1.7 -13.8
v 12.4 1.7 -11.1
v 12.4 1.7 -11
v 12.4 1.7 -10.8
v 12.4 2 -13.8
v 12.4 2 -11.1
v 12.4 2 -11
v 12.4 2 -10.8
v 12.4 2.1 -13.8
v 12.4 2.1 -11.1
v 12.4 2.1 -11
v 12.4 2.1 -10.8
v 12.5 1.7 -13.9
v 12.5 1.7 -10.8
v 12.5 2 -13.9
v 12.5 2 -10.8
v 12.6 0 -14
v 12.6 0 -10.8
v 12.6 1.6 -14
v 12.6 1.6 -10.8
v 12.6 2.1 -13.9
v 12.6 2.1 -10.8
v 12.6 4.8 -13.9
v 12.6 4.8 -10.8
v 11.3 0 -14
v 11.3 1.6 -14
v 12.6 0 -14
v 12.6 1.6 -14
v 11.3 1.7 -13.9
v 11.3 2 -13.9
v 11.3 2.1 -13.9
v 11.3 4.8 -13.9
v 12.5 1.7 -13.9
v 12.5 2 -13.9
v 12.6 2.1 -13.9
v 12.6 4.8 -13.9
v 11.3 1.6 -13.8
v 11.3 1.7 -13.8
v 11.3 2 -13.8
v 11.3 2.1 -13.8
v 12.4 1.6 -13.8
v 12.4 1.7 -13.8
v 12.4 2 -13.8
v 12.4 2.1 -13.8
v 11.3 0 -10.8
v 11.3 1.6 -10.8
v 11.3 1.7 -10.8
v 11.3 2 -10.8
v 11.3 2.1 -10.8
v 11.3 4.8 -10.8
v 12.4 1.6 -10.8
v 12.4 1.7 -10.8
v 12.4 2 -10.8
v 12.4 2.1 -10.8
v 12.5 1.7 -10.8
v 12.5 2 -10.8
v 12.6 0 -10.8
v 12.6 1.6 -10.8
v 12.6 2.1 -10.8
v 12.6 4.8 -10.8
v 11.3 0 -14
v 12.6 0 -14
v 11.3 0 -10.8
v 12.6 0 -10.8
v 11.3 1.7 -13.9
v 12.5 1.7 -13.9
v 11.3 1.7 -13.8
v 12.4 1.7 -13.8
v 12.4 1.7 -11.1
v 12.4 1.7 -11
v 12.4 1.7 -10.8
v 12.5 1.7 -10.8
v 11.3 2.1 -13.9
v 12.6 2.1 -13.9
v 11.3 2.1 -13.8
v 12.4 2.1 -13.8
v 12.4 2.1 -11.1
v 12.4 2.1 -11
v 12.4 2.1 -10.8
v 12.6 2.1 -10.8
v 11.3 1.6 -14
v 12.6 1.6 -14
v 11.3 1.6 -13.8
v 12.4 1.6 -13.8
v 12.4 1.6 -11.1
v 12.4 1.6 -11
v 12.4 1.6 -10.8
v 12.6 1.6 -10.8
v 11.3 2 -13.9
v 12.5 2 -13.9
v 11.3 2 -13.8
v 12.4 2 -13.8
v 12.4 2 -11.1
v 12.4 2 -11
v 12.4 2 -10.8
v 12.5 2 -10.8
v 11.3 4.8 -13.9
v 12.6 4.8 -13.9
v 11.3 4.8 -10.8
v 12.6 4.8 -10.8

# faces
f 1/3/1 2/3/1 3/3/1
f 3/3/1 2/3/1 4/3/1
f 4/3/1 2/3/1 5/3/1
f 5/3/1 2/3/1 6/3/1
f 6/3/1 2/3/1 7/3/1
f 4/1/1 5/1/1 9/1/1
f 5/4/1 6/4/1 10/4/1
f 9/1/1 5/1/1 10/1/1
f 6/2/1 7/2/1 11/2/1
f 10/4/1 6/4/1 11/4/1
f 11/2/1 7/2/1 12/2/1
f 9/3/1 10/3/1 13/3/1
f 8/3/1 9/3/1 13/3/1
f 11/3/1 12/3/1 13/3/1
f 10/3/1 11/3/1 13/3/1
f 13/3/1 12/3/1 14/3/1
f 14/3/1 12/3/1 15/3/1
f 15/3/1 12/3/1 16/3/1
f 16/3/1 12/3/1 17/3/1
f 14/1/1 15/1/1 19/1/1
f 15/4/1 16/4/1 20/4/1
f 19/1/1 15/1/1 20/1/1
f 16/2/1 17/2/1 21/2/1
f 20/4/1 16/4/1 21/4/1
f 21/2/1 17/2/1 22/2/1
f 19/3/1 20/3/1 23/3/1
f 18/3/1 19/3/1 23/3/1
f 21/3/1 22/3/1 23/3/1
f 20/3/1 21/3/1 23/3/1
f 23/3/1 22/3/1 24/3/1
f 29/1/2 26/1/2 25/1/2
f 30/4/2 27/4/2 26/4/2
f 30/1/2 26/1/2 29/1/2
f 31/2/2 28/2/2 27/2/2
f 31/4/2 27/4/2 30/4/2
f 32/2/2 28/2/2 31/2/2
f 37/1/2 34/1/2 33/1/2
f 38/4/2 35/4/2 34/4/2
f 38/1/2 34/1/2 37/1/2
f 39/2/2 36/2/2 35/2/2
f 39/4/2 35/4/2 38/4/2
f 40/2/2 36/2/2 39/2/2
f 43/3/2 42/3/2 41/3/2
f 44/3/2 42/3/2 43/3/2
f 47/3/2 46/3/2 45/3/2
f 48/3/2 46/3/2 47/3/2
f 51/3/2 50/3/2 49/3/2
f 52/3/2 50/3/2 51/3/2
f 53/3/3 54/3/3 55/3/3
f 55/3/3 54/3/3 56/3/3
f 57/3/3 58/3/3 61/3/3
f 61/3/3 58/3/3 62/3/3
f 59/3/3 60/3/3 63/3/3
f 63/3/3 60/3/3 64/3/3
f 65/1/3 66/1/3 69/1/3
f 69/1/3 66/1/3 70/1/3
f 67/1/3 68/1/3 71/1/3
f 71/1/3 68/1/3 72/1/3
f 79/3/4 74/3/4 73/3/4
f 79/2/4 75/2/4 74/2/4
f 80/3/4 76/3/4 75/3/4
f 80/2/4 75/2/4 79/2/4
f 81/2/4 77/2/4 76/2/4
f 81/3/4 76/3/4 80/3/4
f 82/3/4 78/3/4 77/3/4
f 82/2/4 77/2/4 81/2/4
f 83/3/4 81/3/4 80/3/4
f 84/3/4 81/3/4 83/3/4
f 85/3/4 79/3/4 73/3/4
f 86/3/4 79/3/4 85/3/4
f 87/3/4 78/3/4 82/3/4
f 88/3/4 78/3/4 87/3/4
f 89/3/5 90/3/5 91/3/5
f 91/3/5 90/3/5 92/3/5
f 93/3/5 94/3/5 95/3/5
f 95/3/5 94/3/5 96/3/5
f 96/3/5 94/3/5 97/3/5
f 97/3/5 94/3/5 98/3/5
f 98/3/5 94/3/5 99/3/5
f 99/3/5 94/3/5 100/3/5
f 101/3/5 102/3/5 103/3/5
f 103/3/5 102/3/5 104/3/5
f 104/3/5 102/3/5 105/3/5
f 105/3/5 102/3/5 106/3/5
f 106/3/5 102/3/5 107/3/5
f 107/3/5 102/3/5 108/3/5
f 111/3/6 110/3/6 109/3/6
f 112/3/6 110/3/6 111/3/6
f 113/3/6 110/3/6 112/3/6
f 114/3/6 110/3/6 113/3/6
f 115/3/6 110/3/6 114/3/6
f 116/3/6 110/3/6 115/3/6
f 119/3/6 118/3/6 117/3/6
f 120/3/6 118/3/6 119/3/6
f 121/3/6 118/3/6 120/3/6
f 122/3/6 118/3/6 121/3/6
f 123/3/6 118/3/6 122/3/6
f 124/3/6 118/3/6 123/3/6
f 127/3/6 126/3/6 125/3/6
f 128/3/6 126/3/6 127/3/6
