# MagicaVoxel @ Ephtracy

# group
o 

# material
mtllib rail-angle-north-west.mtl
usemtl palette

# normals
vn -1 0 0
vn 1 0 0
vn 0 0 1
vn 0 0 -1
vn 0 -1 0
vn 0 1 0

# texcoords
vt 0.962891 0.5
vt 0.978516 0.5

# verts
v -2.4 1.7 0.0999999
v -2.4 1.7 -0.3
v -2.4 1.8 0.2
v -2.4 1.8 0.0999999
v -2.4 1.8 -0.3
v -2.4 1.8 -0.4
v -2.4 2.1 0.2
v -2.4 2.1 0.0999999
v -2.4 2.2 0.2
v -2.4 2.2 0.0999999
v -2.4 2.2 -0.1
v -2.4 2.2 -0.3
v -2.4 2.2 -0.4
v -2.4 2.3 0.0999999
v -2.4 2.3 -0.1
v -2.4 2.3 -0.3
v -2.4 3.2 0.0999999
v -2.4 3.2 -0.3
v -2.4 3.3 0.2
v -2.4 3.3 0.0999999
v -2.4 3.3 -0.3
v -2.4 3.3 -0.4
v -2.4 3.6 0.2
v -2.4 3.6 0.0999999
v -2.4 3.7 0.2
v -2.4 3.7 0.0999999
v -2.4 3.7 -0.1
v -2.4 3.7 -0.3
v -2.4 3.7 -0.4
v -2.4 3.8 0.0999999
v -2.4 3.8 -0.1
v -2.4 3.8 -0.3
v -0.3 0 0.0999999
v -0.3 0 -0.3
v -0.3 0.3 0.0999999
v -0.3 0.3 -5.96046e-08
v -0.3 1.1 0.0999999
v -0.3 1.1 -5.96046e-08
v -0.3 1.7 0.0999999
v -0.3 1.7 -0.3
v -0.3 1.8 -0.4
v -0.3 1.8 -2.4
v -0.3 2.1 -1.3
v -0.3 2.1 -2.4
v -0.3 2.2 -0.4
v -0.3 2.2 -1.3
v -0.3 2.2 -2.4
v -0.3 2.3 0.0999999
v -0.3 2.3 -0.3
v -0.3 2.4 0.0999999
v -0.3 2.4 -5.96046e-08
v -0.3 2.7 0.0999999
v -0.3 2.7 -5.96046e-08
v -0.3 3.2 0.0999999
v -0.3 3.2 -0.3
v -0.3 3.3 -0.4
v -0.3 3.3 -2.4
v -0.3 3.6 -0.4
v -0.3 3.6 -2.4
v -0.3 3.7 -0.4
v -0.3 3.7 -2.4
v -0.2 0 0.2
v -0.2 0 0.0999999
v -0.2 0 -0.3
v -0.2 0 -0.4
v -0.2 0.3 0.2
v -0.2 0.3 0.0999999
v -0.2 1.1 0.0999999
v -0.2 1.3 0.2
v -0.2 1.3 0.0999999
v -0.2 1.4 0.2
v -0.2 1.4 0.0999999
v -0.2 1.5 0.2
v -0.2 1.5 0.0999999
v -0.2 1.7 -0.4
v -0.2 1.7 -2.4
v -0.2 1.8 0.2
v -0.2 1.8 0.0999999
v -0.2 1.8 -0.3
v -0.2 1.8 -2.4
v -0.2 2.2 0.2
v -0.2 2.2 0.0999999
v -0.2 2.2 -0.3
v -0.2 2.2 -0.8
v -0.2 2.2 -0.9
v -0.2 2.2 -1.2
v -0.2 2.2 -1.3
v -0.2 2.2 -2.4
v -0.2 2.3 -0.4
v -0.2 2.3 -0.8
v -0.2 2.3 -0.9
v -0.2 2.3 -1.2
v -0.2 2.3 -2.4
v -0.2 2.4 0.2
v -0.2 2.4 0.0999999
v -0.2 2.7 0.0999999
v -0.2 2.8 0.2
v -0.2 2.8 0.0999999
v -0.2 2.9 0.2
v -0.2 2.9 0.0999999
v -0.2 3 0.2
v -0.2 3 0.0999999
v -0.2 3.2 -0.4
v -0.2 3.2 -2.4
v -0.2 3.3 0.2
v -0.2 3.3 0.0999999
v -0.2 3.3 -0.3
v -0.2 3.3 -2.4
v -0.2 3.7 -0.3
v -0.2 3.7 -0.4
v -0.2 3.7 -0.6
v -0.2 3.7 -2.4
v -0.2 3.8 -0.3
v -0.2 3.8 -0.6
v -0.2 3.8 -2.4
v 0.2 0 0.2
v 0.2 0 0.0999999
v 0.2 0 -0.3
v 0.2 0 -0.4
v 0.2 1.7 -0.4
v 0.2 1.7 -2.4
v 0.2 1.8 -0.3
v 0.2 1.8 -2.4
v 0.2 2.2 -0.3
v 0.2 2.2 -2.4
v 0.2 2.3 -0.4
v 0.2 2.3 -2.4
v 0.2 3.2 -0.4
v 0.2 3.2 -2.4
v 0.2 3.3 -0.3
v 0.2 3.3 -2.4
v 0.2 3.7 0.2
v 0.2 3.7 0.0999999
v 0.2 3.7 -2.4
v 0.2 3.8 0.0999999
v 0.2 3.8 -2.4
v 0.3 0 0.0999999
v 0.3 0 -0.3
v 0.3 1.8 -0.3
v 0.3 1.8 -2.4
v 0.3 2.2 -0.3
v 0.3 2.2 -2.4
v 0.3 3.3 -0.3
v 0.3 3.3 -2.4
v 0.3 3.7 0.0999999
v 0.3 3.7 -2.4
v -2.4 1.8 0.2
v -2.4 2.1 0.2
v -2.4 2.2 0.2
v -2.4 3.3 0.2
v -2.4 3.6 0.2
v -2.4 3.7 0.2
v -1.8 2.1 0.2
v -1.8 2.2 0.2
v -1 3.6 0.2
v -1 3.7 0.2
v -0.2 0 0.2
v -0.2 0.3 0.2
v -0.2 1.3 0.2
v -0.2 1.4 0.2
v -0.2 1.5 0.2
v -0.2 1.8 0.2
v -0.2 2.2 0.2
v -0.2 2.4 0.2
v -0.2 2.8 0.2
v -0.2 2.9 0.2
v -0.2 3 0.2
v -0.2 3.3 0.2
v -0.0999999 0.3 0.2
v -0.0999999 1.3 0.2
v -0.0999999 1.4 0.2
v -0.0999999 1.5 0.2
v -0.0999999 2.4 0.2
v -0.0999999 2.8 0.2
v -0.0999999 2.9 0.2
v -0.0999999 3 0.2
v 0.2 0 0.2
v 0.2 3.7 0.2
v -2.4 1.7 0.0999999
v -2.4 1.8 0.0999999
v -2.4 2.2 0.0999999
v -2.4 2.3 0.0999999
v -2.4 3.2 0.0999999
v -2.4 3.3 0.0999999
v -2.4 3.7 0.0999999
v -2.4 3.8 0.0999999
v -1.8 2.2 0.0999999
v -1.5 2.2 0.0999999
v -1.5 2.3 0.0999999
v -1 3.7 0.0999999
v -1 3.8 0.0999999
v -0.9 3.7 0.0999999
v -0.9 3.8 0.0999999
v -0.8 3.7 0.0999999
v -0.8 3.8 0.0999999
v -0.3 0 0.0999999
v -0.3 0.3 0.0999999
v -0.3 1.1 0.0999999
v -0.3 1.7 0.0999999
v -0.3 2.3 0.0999999
v -0.3 2.4 0.0999999
v -0.3 2.7 0.0999999
v -0.3 3.2 0.0999999
v -0.2 0 0.0999999
v -0.2 0.3 0.0999999
v -0.2 1.1 0.0999999
v -0.2 1.3 0.0999999
v -0.2 1.4 0.0999999
v -0.2 1.5 0.0999999
v -0.2 1.8 0.0999999
v -0.2 2.2 0.0999999
v -0.2 2.4 0.0999999
v -0.2 2.7 0.0999999
v -0.2 2.8 0.0999999
v -0.2 2.9 0.0999999
v -0.2 3 0.0999999
v -0.2 3.3 0.0999999
v 0.2 0 0.0999999
v 0.2 3.7 0.0999999
v 0.2 3.8 0.0999999
v 0.3 0 0.0999999
v 0.3 3.7 0.0999999
v -2.4 1.7 -0.3
v -2.4 1.8 -0.3
v -2.4 2.2 -0.3
v -2.4 2.3 -0.3
v -2.4 3.2 -0.3
v -2.4 3.3 -0.3
v -2.4 3.7 -0.3
v -2.4 3.8 -0.3
v -0.3 0 -0.3
v -0.3 1.7 -0.3
v -0.3 2.3 -0.3
v -0.3 3.2 -0.3
v -0.2 0 -0.3
v -0.2 1.8 -0.3
v -0.2 2.2 -0.3
v -0.2 3.3 -0.3
v -0.2 3.7 -0.3
v -0.2 3.8 -0.3
v 0.2 0 -0.3
v 0.2 1.8 -0.3
v 0.2 2.2 -0.3
v 0.2 3.3 -0.3
v 0.3 0 -0.3
v 0.3 1.8 -0.3
v 0.3 2.2 -0.3
v 0.3 3.3 -0.3
v -2.4 1.8 -0.4
v -2.4 2.2 -0.4
v -2.4 3.3 -0.4
v -2.4 3.7 -0.4
v -0.3 1.8 -0.4
v -0.3 2.2 -0.4
v -0.3 3.3 -0.4
v -0.3 3.6 -0.4
v -0.3 3.7 -0.4
v -0.2 0 -0.4
v -0.2 1.7 -0.4
v -0.2 2.3 -0.4
v -0.2 3.2 -0.4
v 0.2 0 -0.4
v 0.2 1.7 -0.4
v 0.2 2.3 -0.4
v 0.2 3.2 -0.4
v -0.3 1.8 -2.4
v -0.3 2.1 -2.4
v -0.3 2.2 -2.4
v -0.3 3.3 -2.4
v -0.3 3.6 -2.4
v -0.3 3.7 -2.4
v -0.2 1.7 -2.4
v -0.2 1.8 -2.4
v -0.2 2.1 -2.4
v -0.2 2.2 -2.4
v -0.2 2.3 -2.4
v -0.2 3.2 -2.4
v -0.2 3.3 -2.4
v -0.2 3.6 -2.4
v -0.2 3.7 -2.4
v -0.2 3.8 -2.4
v 0 2.2 -2.4
v 0 2.3 -2.4
v 0 3.7 -2.4
v 0 3.8 -2.4
v 0.2 1.7 -2.4
v 0.2 1.8 -2.4
v 0.2 2.2 -2.4
v 0.2 2.3 -2.4
v 0.2 3.2 -2.4
v 0.2 3.3 -2.4
v 0.2 3.7 -2.4
v 0.2 3.8 -2.4
v 0.3 1.8 -2.4
v 0.3 2.2 -2.4
v 0.3 3.3 -2.4
v 0.3 3.7 -2.4
v -0.2 0 0.2
v 0.2 0 0.2
v -0.3 0 0.0999999
v -0.2 0 0.0999999
v 0.2 0 0.0999999
v 0.3 0 0.0999999
v -0.3 0 -0.3
v -0.2 0 -0.3
v 0.2 0 -0.3
v 0.3 0 -0.3
v -0.2 0 -0.4
v 0.2 0 -0.4
v -2.4 1.7 0.0999999
v -0.3 1.7 0.0999999
v -2.4 1.7 -0.3
v -0.3 1.7 -0.3
v -0.2 1.7 -0.4
v 0.2 1.7 -0.4
v -0.2 1.7 -2.4
v 0.2 1.7 -2.4
v -2.4 1.8 0.2
v -0.2 1.8 0.2
v -2.4 1.8 0.0999999
v -0.2 1.8 0.0999999
v -2.4 1.8 -0.3
v -0.2 1.8 -0.3
v 0.2 1.8 -0.3
v 0.3 1.8 -0.3
v -2.4 1.8 -0.4
v -0.3 1.8 -0.4
v -0.3 1.8 -2.4
v -0.2 1.8 -2.4
v 0.2 1.8 -2.4
v 0.3 1.8 -2.4
v -2.4 3.2 0.0999999
v -0.3 3.2 0.0999999
v -2.4 3.2 -0.3
v -0.3 3.2 -0.3
v -0.2 3.2 -0.4
v 0.2 3.2 -0.4
v -0.2 3.2 -2.4
v 0.2 3.2 -2.4
v -2.4 3.3 0.2
v -0.2 3.3 0.2
v -2.4 3.3 0.0999999
v -0.2 3.3 0.0999999
v -2.4 3.3 -0.3
v -0.2 3.3 -0.3
v 0.2 3.3 -0.3
v 0.3 3.3 -0.3
v -2.4 3.3 -0.4
v -0.3 3.3 -0.4
v -0.3 3.3 -2.4
v -0.2 3.3 -2.4
v 0.2 3.3 -2.4
v 0.3 3.3 -2.4
v -2.4 2.2 0.2
v -1.8 2.2 0.2
v -0.2 2.2 0.2
v -2.4 2.2 0.0999999
v -1.8 2.2 0.0999999
v -1.5 2.2 0.0999999
v -0.2 2.2 0.0999999
v -2.4 2.2 -0.3
v -0.2 2.2 -0.3
v 0.2 2.2 -0.3
v 0.3 2.2 -0.3
v -2.4 2.2 -0.4
v -0.3 2.2 -0.4
v -0.2 2.2 -0.8
v -0.2 2.2 -0.9
v -0.2 2.2 -1.2
v -0.3 2.2 -1.3
v -0.2 2.2 -1.3
v -0.3 2.2 -2.4
v -0.2 2.2 -2.4
v 0.2 2.2 -2.4
v 0.3 2.2 -2.4
v -2.4 2.3 0.0999999
v -1.5 2.3 0.0999999
v -0.3 2.3 0.0999999
v -1.5 2.3 -5.96046e-08
v -1.4 2.3 -5.96046e-08
v -1.3 2.3 -5.96046e-08
v -1.2 2.3 -5.96046e-08
v -2.4 2.3 -0.1
v -1.4 2.3 -0.1
v -1.3 2.3 -0.1
v -1.2 2.3 -0.1
v -2.4 2.3 -0.3
v -0.3 2.3 -0.3
v -0.2 2.3 -0.4
v 0.2 2.3 -0.4
v -0.2 2.3 -0.8
v -0.0999999 2.3 -0.8
v -0.2 2.3 -0.9
v -0.0999999 2.3 -0.9
v -0.0999999 2.3 -1
v 0 2.3 -1
v -0.2 2.3 -1.2
v -0.0999999 2.3 -1.2
v -0.2 2.3 -2.4
v 0 2.3 -2.4
v 0.2 2.3 -2.4
v -2.4 3.7 0.2
v -1 3.7 0.2
v 0.2 3.7 0.2
v -2.4 3.7 0.0999999
v -1 3.7 0.0999999
v -0.9 3.7 0.0999999
v -0.8 3.7 0.0999999
v 0.2 3.7 0.0999999
v 0.3 3.7 0.0999999
v -2.4 3.7 -0.3
v -0.2 3.7 -0.3
v -2.4 3.7 -0.4
v -0.3 3.7 -0.4
v -0.2 3.7 -0.4
v -0.2 3.7 -0.6
v -0.3 3.7 -2.4
v -0.2 3.7 -2.4
v 0.2 3.7 -2.4
v 0.3 3.7 -2.4
v -2.4 3.8 0.0999999
v -1 3.8 0.0999999
v -0.9 3.8 0.0999999
v -0.8 3.8 0.0999999
v 0.2 3.8 0.0999999
v -1.2 3.8 -5.96046e-08
v -1 3.8 -5.96046e-08
v -0.9 3.8 -5.96046e-08
v -0.8 3.8 -5.96046e-08
v -2.4 3.8 -0.1
v -1.2 3.8 -0.1
v -2.4 3.8 -0.3
v -0.2 3.8 -0.3
v -0.2 3.8 -0.6
v -0.0999999 3.8 -0.6
v -0.0999999 3.8 -0.7
v 0 3.8 -0.7
v -0.2 3.8 -2.4
v 0 3.8 -2.4
v 0.2 3.8 -2.4

# faces
f 4/2/1 2/2/1 1/2/1
f 5/2/1 2/2/1 4/2/1
f 7/2/1 4/2/1 3/2/1
f 7/2/1 6/2/1 5/2/1
f 7/2/1 5/2/1 4/2/1
f 8/2/1 6/2/1 7/2/1
f 9/1/1 8/1/1 7/1/1
f 10/2/1 6/2/1 8/2/1
f 10/1/1 8/1/1 9/1/1
f 11/2/1 6/2/1 10/2/1
f 12/2/1 6/2/1 11/2/1
f 13/2/1 6/2/1 12/2/1
f 14/1/1 11/1/1 10/1/1
f 15/2/1 12/2/1 11/2/1
f 15/1/1 11/1/1 14/1/1
f 16/2/1 12/2/1 15/2/1
f 20/2/1 18/2/1 17/2/1
f 21/2/1 18/2/1 20/2/1
f 23/2/1 21/2/1 20/2/1
f 23/2/1 22/2/1 21/2/1
f 23/2/1 20/2/1 19/2/1
f 24/2/1 22/2/1 23/2/1
f 25/1/1 24/1/1 23/1/1
f 26/2/1 22/2/1 24/2/1
f 26/1/1 24/1/1 25/1/1
f 27/2/1 22/2/1 26/2/1
f 28/2/1 22/2/1 27/2/1
f 29/2/1 22/2/1 28/2/1
f 30/1/1 27/1/1 26/1/1
f 31/2/1 28/2/1 27/2/1
f 31/1/1 27/1/1 30/1/1
f 32/2/1 28/2/1 31/2/1
f 35/2/1 34/2/1 33/2/1
f 36/2/1 34/2/1 35/2/1
f 37/1/1 36/1/1 35/1/1
f 38/2/1 34/2/1 36/2/1
f 38/1/1 36/1/1 37/1/1
f 39/2/1 38/2/1 37/2/1
f 40/2/1 34/2/1 38/2/1
f 40/2/1 38/2/1 39/2/1
f 43/2/1 42/2/1 41/2/1
f 44/2/1 42/2/1 43/2/1
f 45/2/1 43/2/1 41/2/1
f 46/1/1 44/1/1 43/1/1
f 46/2/1 43/2/1 45/2/1
f 47/1/1 44/1/1 46/1/1
f 50/2/1 49/2/1 48/2/1
f 51/2/1 49/2/1 50/2/1
f 52/1/1 51/1/1 50/1/1
f 53/2/1 49/2/1 51/2/1
f 53/1/1 51/1/1 52/1/1
f 54/2/1 53/2/1 52/2/1
f 55/2/1 49/2/1 53/2/1
f 55/2/1 53/2/1 54/2/1
f 58/2/1 57/2/1 56/2/1
f 59/2/1 57/2/1 58/2/1
f 60/1/1 59/1/1 58/1/1
f 61/1/1 59/1/1 60/1/1
f 66/2/1 63/2/1 62/2/1
f 67/2/1 63/2/1 66/2/1
f 68/1/1 67/1/1 66/1/1
f 69/1/1 68/1/1 66/1/1
f 70/1/1 68/1/1 69/1/1
f 71/2/1 70/2/1 69/2/1
f 72/2/1 70/2/1 71/2/1
f 73/1/1 72/1/1 71/1/1
f 74/1/1 72/1/1 73/1/1
f 75/2/1 65/2/1 64/2/1
f 77/2/1 74/2/1 73/2/1
f 78/2/1 74/2/1 77/2/1
f 79/2/1 76/2/1 75/2/1
f 79/2/1 75/2/1 64/2/1
f 80/2/1 76/2/1 79/2/1
f 89/2/1 84/2/1 83/2/1
f 90/1/1 85/1/1 84/1/1
f 90/2/1 84/2/1 89/2/1
f 91/2/1 86/2/1 85/2/1
f 91/1/1 85/1/1 90/1/1
f 92/1/1 88/1/1 87/1/1
f 92/2/1 86/2/1 91/2/1
f 92/1/1 87/1/1 86/1/1
f 93/1/1 88/1/1 92/1/1
f 94/2/1 82/2/1 81/2/1
f 95/2/1 82/2/1 94/2/1
f 96/1/1 95/1/1 94/1/1
f 97/1/1 96/1/1 94/1/1
f 98/1/1 96/1/1 97/1/1
f 99/2/1 98/2/1 97/2/1
f 100/2/1 98/2/1 99/2/1
f 101/1/1 100/1/1 99/1/1
f 102/1/1 100/1/1 101/1/1
f 103/2/1 89/2/1 83/2/1
f 105/2/1 102/2/1 101/2/1
f 106/2/1 102/2/1 105/2/1
f 107/2/1 104/2/1 103/2/1
f 107/2/1 103/2/1 83/2/1
f 108/2/1 104/2/1 107/2/1
f 113/2/1 110/2/1 109/2/1
f 113/2/1 111/2/1 110/2/1
f 114/1/1 112/1/1 111/1/1
f 114/2/1 111/2/1 113/2/1
f 115/1/1 112/1/1 114/1/1
f 118/2/2 119/2/2 120/2/2
f 118/2/2 120/2/2 122/2/2
f 120/2/2 121/2/2 122/2/2
f 122/2/2 121/2/2 123/2/2
f 124/2/2 125/2/2 126/2/2
f 126/2/2 125/2/2 127/2/2
f 124/2/2 126/2/2 128/2/2
f 124/2/2 128/2/2 130/2/2
f 128/2/2 129/2/2 130/2/2
f 130/2/2 129/2/2 131/2/2
f 116/2/2 117/2/2 132/2/2
f 132/2/2 117/2/2 133/2/2
f 133/2/2 134/2/2 135/2/2
f 135/2/2 134/2/2 136/2/2
f 137/2/2 138/2/2 139/2/2
f 137/2/2 139/2/2 141/2/2
f 139/2/2 140/2/2 141/2/2
f 141/2/2 140/2/2 142/2/2
f 137/2/2 141/2/2 143/2/2
f 137/2/2 143/2/2 145/2/2
f 143/2/2 144/2/2 145/2/2
f 145/2/2 144/2/2 146/2/2
f 153/2/3 148/2/3 147/2/3
f 153/1/3 149/1/3 148/1/3
f 154/1/3 149/1/3 153/1/3
f 155/1/3 152/1/3 151/1/3
f 155/2/3 151/2/3 150/2/3
f 156/1/3 152/1/3 155/1/3
f 162/2/3 154/2/3 153/2/3
f 162/2/3 153/2/3 147/2/3
f 163/2/3 154/2/3 162/2/3
f 168/2/3 155/2/3 150/2/3
f 168/2/3 156/2/3 155/2/3
f 169/2/3 158/2/3 157/2/3
f 169/1/3 159/1/3 158/1/3
f 170/2/3 160/2/3 159/2/3
f 170/1/3 159/1/3 169/1/3
f 171/1/3 161/1/3 160/1/3
f 171/2/3 160/2/3 170/2/3
f 172/2/3 162/2/3 161/2/3
f 172/1/3 161/1/3 171/1/3
f 172/2/3 163/2/3 162/2/3
f 172/2/3 164/2/3 163/2/3
f 173/1/3 165/1/3 164/1/3
f 173/2/3 164/2/3 172/2/3
f 174/2/3 166/2/3 165/2/3
f 174/1/3 165/1/3 173/1/3
f 175/1/3 167/1/3 166/1/3
f 175/2/3 166/2/3 174/2/3
f 176/2/3 168/2/3 167/2/3
f 176/1/3 167/1/3 175/1/3
f 177/2/3 170/2/3 169/2/3
f 177/2/3 169/2/3 157/2/3
f 177/2/3 176/2/3 175/2/3
f 177/2/3 172/2/3 171/2/3
f 177/2/3 174/2/3 173/2/3
f 177/2/3 171/2/3 170/2/3
f 177/2/3 173/2/3 172/2/3
f 177/2/3 175/2/3 174/2/3
f 178/2/3 168/2/3 176/2/3
f 178/2/3 176/2/3 177/2/3
f 178/2/3 156/2/3 168/2/3
f 187/1/3 182/1/3 181/1/3
f 188/1/3 182/1/3 187/1/3
f 189/1/3 182/1/3 188/1/3
f 190/1/3 186/1/3 185/1/3
f 191/1/3 186/1/3 190/1/3
f 192/2/3 191/2/3 190/2/3
f 193/2/3 191/2/3 192/2/3
f 194/1/3 193/1/3 192/1/3
f 195/1/3 193/1/3 194/1/3
f 199/2/3 180/2/3 179/2/3
f 200/2/3 189/2/3 188/2/3
f 203/2/3 184/2/3 183/2/3
f 204/2/3 197/2/3 196/2/3
f 205/1/3 198/1/3 197/1/3
f 205/2/3 197/2/3 204/2/3
f 206/2/3 199/2/3 198/2/3
f 206/1/3 198/1/3 205/1/3
f 207/2/3 199/2/3 206/2/3
f 208/2/3 199/2/3 207/2/3
f 209/2/3 199/2/3 208/2/3
f 210/2/3 180/2/3 199/2/3
f 210/2/3 199/2/3 209/2/3
f 211/2/3 200/2/3 188/2/3
f 211/2/3 201/2/3 200/2/3
f 212/1/3 202/1/3 201/1/3
f 212/2/3 201/2/3 211/2/3
f 213/2/3 203/2/3 202/2/3
f 213/1/3 202/1/3 212/1/3
f 214/2/3 203/2/3 213/2/3
f 215/2/3 203/2/3 214/2/3
f 216/2/3 203/2/3 215/2/3
f 217/2/3 184/2/3 203/2/3
f 217/2/3 203/2/3 216/2/3
f 219/2/3 195/2/3 194/2/3
f 220/2/3 195/2/3 219/2/3
f 221/2/3 219/2/3 218/2/3
f 222/2/3 219/2/3 221/2/3
f 223/2/4 224/2/4 232/2/4
f 225/2/4 226/2/4 233/2/4
f 227/2/4 228/2/4 234/2/4
f 231/2/4 232/2/4 235/2/4
f 232/2/4 224/2/4 236/2/4
f 235/2/4 232/2/4 236/2/4
f 233/2/4 234/2/4 237/2/4
f 225/2/4 233/2/4 237/2/4
f 234/2/4 228/2/4 238/2/4
f 237/2/4 234/2/4 238/2/4
f 229/2/4 230/2/4 239/2/4
f 239/2/4 230/2/4 240/2/4
f 241/2/4 242/2/4 245/2/4
f 245/2/4 242/2/4 246/2/4
f 243/2/4 244/2/4 247/2/4
f 247/2/4 244/2/4 248/2/4
f 249/2/4 250/2/4 253/2/4
f 253/2/4 250/2/4 254/2/4
f 251/2/4 252/2/4 255/2/4
f 255/2/4 252/2/4 256/2/4
f 256/2/4 252/2/4 257/2/4
f 258/2/4 259/2/4 262/2/4
f 262/2/4 259/2/4 263/2/4
f 260/2/4 261/2/4 264/2/4
f 264/2/4 261/2/4 265/2/4
f 266/2/4 267/2/4 273/2/4
f 267/1/4 268/1/4 274/1/4
f 273/2/4 267/2/4 274/2/4
f 274/1/4 268/1/4 275/1/4
f 269/2/4 270/2/4 278/2/4
f 270/1/4 271/1/4 279/1/4
f 278/2/4 270/2/4 279/2/4
f 279/1/4 271/1/4 280/1/4
f 272/2/4 273/2/4 282/2/4
f 275/1/4 276/1/4 282/1/4
f 273/2/4 274/2/4 282/2/4
f 274/2/4 275/2/4 282/2/4
f 282/1/4 276/1/4 283/1/4
f 277/2/4 278/2/4 284/2/4
f 280/1/4 281/1/4 284/1/4
f 279/2/4 280/2/4 284/2/4
f 278/2/4 279/2/4 284/2/4
f 284/1/4 281/1/4 285/1/4
f 282/2/4 283/2/4 286/2/4
f 272/2/4 282/2/4 286/2/4
f 286/2/4 283/2/4 287/2/4
f 287/2/4 283/2/4 288/2/4
f 288/2/4 283/2/4 289/2/4
f 284/2/4 285/2/4 290/2/4
f 277/2/4 284/2/4 290/2/4
f 290/2/4 285/2/4 291/2/4
f 291/2/4 285/2/4 292/2/4
f 292/2/4 285/2/4 293/2/4
f 287/2/4 288/2/4 294/2/4
f 294/2/4 288/2/4 295/2/4
f 291/2/4 292/2/4 296/2/4
f 296/2/4 292/2/4 297/2/4
f 301/2/5 299/2/5 298/2/5
f 302/2/5 299/2/5 301/2/5
f 304/2/5 301/2/5 300/2/5
f 304/2/5 303/2/5 302/2/5
f 304/2/5 302/2/5 301/2/5
f 305/2/5 303/2/5 304/2/5
f 306/2/5 303/2/5 305/2/5
f 307/2/5 303/2/5 306/2/5
f 308/2/5 306/2/5 305/2/5
f 309/2/5 306/2/5 308/2/5
f 312/2/5 311/2/5 310/2/5
f 313/2/5 311/2/5 312/2/5
f 316/2/5 315/2/5 314/2/5
f 317/2/5 315/2/5 316/2/5
f 320/2/5 319/2/5 318/2/5
f 321/2/5 319/2/5 320/2/5
f 326/2/5 323/2/5 322/2/5
f 327/2/5 323/2/5 326/2/5
f 328/2/5 323/2/5 327/2/5
f 329/2/5 323/2/5 328/2/5
f 330/2/5 325/2/5 324/2/5
f 331/2/5 325/2/5 330/2/5
f 334/2/5 333/2/5 332/2/5
f 335/2/5 333/2/5 334/2/5
f 338/2/5 337/2/5 336/2/5
f 339/2/5 337/2/5 338/2/5
f 342/2/5 341/2/5 340/2/5
f 343/2/5 341/2/5 342/2/5
f 348/2/5 345/2/5 344/2/5
f 349/2/5 345/2/5 348/2/5
f 350/2/5 345/2/5 349/2/5
f 351/2/5 345/2/5 350/2/5
f 352/2/5 347/2/5 346/2/5
f 353/2/5 347/2/5 352/2/5
f 354/1/6 355/1/6 357/1/6
f 355/2/6 356/2/6 358/2/6
f 357/1/6 355/1/6 358/1/6
f 358/2/6 356/2/6 359/2/6
f 359/2/6 356/2/6 360/2/6
f 361/2/6 362/2/6 365/2/6
f 365/2/6 362/2/6 366/2/6
f 366/2/6 362/2/6 367/2/6
f 366/2/6 367/2/6 368/2/6
f 366/2/6 368/2/6 369/2/6
f 366/2/6 369/2/6 370/2/6
f 370/2/6 369/2/6 371/2/6
f 370/1/6 371/1/6 372/1/6
f 372/1/6 371/1/6 373/1/6
f 363/2/6 364/2/6 374/2/6
f 374/2/6 364/2/6 375/2/6
f 376/1/6 377/1/6 379/1/6
f 377/2/6 378/2/6 379/2/6
f 379/2/6 378/2/6 380/2/6
f 380/2/6 378/2/6 381/2/6
f 381/2/6 378/2/6 382/2/6
f 376/1/6 379/1/6 383/1/6
f 379/1/6 380/1/6 383/1/6
f 380/2/6 381/2/6 384/2/6
f 383/1/6 380/1/6 384/1/6
f 381/1/6 382/1/6 385/1/6
f 384/2/6 381/2/6 385/2/6
f 382/2/6 378/2/6 386/2/6
f 385/1/6 382/1/6 386/1/6
f 384/2/6 385/2/6 387/2/6
f 383/2/6 384/2/6 387/2/6
f 385/2/6 386/2/6 387/2/6
f 386/2/6 378/2/6 388/2/6
f 387/2/6 386/2/6 388/2/6
f 389/2/6 390/2/6 391/2/6
f 391/2/6 390/2/6 392/2/6
f 391/1/6 392/1/6 393/1/6
f 392/2/6 390/2/6 394/2/6
f 393/1/6 392/1/6 394/1/6
f 393/2/6 394/2/6 395/2/6
f 394/2/6 390/2/6 395/2/6
f 395/2/6 390/2/6 396/2/6
f 393/2/6 395/2/6 397/2/6
f 395/1/6 396/1/6 398/1/6
f 397/2/6 395/2/6 398/2/6
f 397/1/6 398/1/6 399/1/6
f 396/2/6 390/2/6 400/2/6
f 399/1/6 398/1/6 400/1/6
f 398/1/6 396/1/6 400/1/6
f 400/2/6 390/2/6 401/2/6
f 402/1/6 403/1/6 405/1/6
f 403/2/6 404/2/6 406/2/6
f 405/1/6 403/1/6 406/1/6
f 406/2/6 404/2/6 407/2/6
f 407/2/6 404/2/6 408/2/6
f 408/2/6 404/2/6 409/2/6
f 411/2/6 412/2/6 413/2/6
f 413/2/6 412/2/6 414/2/6
f 414/2/6 412/2/6 415/2/6
f 414/1/6 415/1/6 416/1/6
f 414/1/6 416/1/6 417/1/6
f 417/1/6 416/1/6 418/1/6
f 409/2/6 410/2/6 419/2/6
f 419/2/6 410/2/6 420/2/6
f 421/1/6 422/1/6 426/1/6
f 422/2/6 423/2/6 427/2/6
f 426/1/6 422/1/6 427/1/6
f 423/1/6 424/1/6 428/1/6
f 427/2/6 423/2/6 428/2/6
f 424/2/6 425/2/6 429/2/6
f 428/1/6 424/1/6 429/1/6
f 421/1/6 426/1/6 430/1/6
f 427/2/6 428/2/6 431/2/6
f 430/1/6 426/1/6 431/1/6
f 426/2/6 427/2/6 431/2/6
f 428/2/6 429/2/6 431/2/6
f 430/2/6 431/2/6 432/2/6
f 429/2/6 425/2/6 433/2/6
f 432/2/6 431/2/6 433/2/6
f 431/2/6 429/2/6 433/2/6
f 433/2/6 425/2/6 434/2/6
f 434/2/6 425/2/6 435/2/6
f 434/1/6 435/1/6 436/1/6
f 435/2/6 425/2/6 436/2/6
f 436/2/6 425/2/6 437/2/6
f 434/1/6 436/1/6 438/1/6
f 436/1/6 437/1/6 438/1/6
f 437/2/6 425/2/6 439/2/6
f 438/1/6 437/1/6 439/1/6
f 439/2/6 425/2/6 440/2/6
