# MagicaVoxel @ Ephtracy

# group
o 

# material
mtllib gym-v2-110.mtl
usemtl palette

# normals
vn -1 0 0
vn 1 0 0
vn 0 0 -1
vn 0 0 1
vn 0 -1 0
vn 0 1 0

# texcoords
vt 0.845703 0.5
vt 0.876953 0.5
vt 0.916016 0.5

# verts
v -26.4 0 -64.7
v -26.4 0 -59.9
v -26.4 0.1 -64.7
v -26.4 0.1 -59.9
v -26.4 0.2 -64.7
v -26.4 0.2 -59.9
v -21.7 0.1 -64.6
v -21.7 0.1 -60
v -21.7 0.2 -64.6
v -21.7 0.2 -60
v -26.3 0.1 -64.6
v -26.3 0.1 -60
v -26.3 0.2 -64.6
v -26.3 0.2 -60
v -21.6 0 -64.7
v -21.6 0 -59.9
v -21.6 0.1 -64.7
v -21.6 0.1 -59.9
v -21.6 0.2 -64.7
v -21.6 0.2 -59.9
v -26.4 0 -64.7
v -26.4 0.1 -64.7
v -26.4 0.2 -64.7
v -21.6 0 -64.7
v -21.6 0.1 -64.7
v -21.6 0.2 -64.7
v -26.3 0.1 -60
v -26.3 0.2 -60
v -21.7 0.1 -60
v -21.7 0.2 -60
v -26.3 0.1 -64.6
v -26.3 0.2 -64.6
v -21.7 0.1 -64.6
v -21.7 0.2 -64.6
v -26.4 0 -59.9
v -26.4 0.1 -59.9
v -26.4 0.2 -59.9
v -21.6 0 -59.9
v -21.6 0.1 -59.9
v -21.6 0.2 -59.9
v -26.4 0 -64.7
v -21.6 0 -64.7
v -26.3 0 -64.6
v -21.7 0 -64.6
v -26.3 0 -60
v -21.7 0 -60
v -26.4 0 -59.9
v -21.6 0 -59.9
v -26.3 0.1 -64.6
v -21.7 0.1 -64.6
v -26.3 0.1 -60
v -21.7 0.1 -60
v -26.4 0.2 -64.7
v -21.6 0.2 -64.7
v -26.3 0.2 -64.6
v -21.7 0.2 -64.6
v -26.3 0.2 -60
v -21.7 0.2 -60
v -26.4 0.2 -59.9
v -21.6 0.2 -59.9

# faces
f 1/1/1 2/1/1 3/1/1
f 3/1/1 2/1/1 4/1/1
f 3/2/1 4/2/1 5/2/1
f 5/2/1 4/2/1 6/2/1
f 7/2/1 8/2/1 9/2/1
f 9/2/1 8/2/1 10/2/1
f 13/2/2 12/2/2 11/2/2
f 14/2/2 12/2/2 13/2/2
f 17/1/2 16/1/2 15/1/2
f 18/1/2 16/1/2 17/1/2
f 19/2/2 18/2/2 17/2/2
f 20/2/2 18/2/2 19/2/2
f 21/1/3 22/1/3 24/1/3
f 22/2/3 23/2/3 25/2/3
f 24/1/3 22/1/3 25/1/3
f 25/2/3 23/2/3 26/2/3
f 27/2/3 28/2/3 29/2/3
f 29/2/3 28/2/3 30/2/3
f 33/2/4 32/2/4 31/2/4
f 34/2/4 32/2/4 33/2/4
f 38/1/4 36/1/4 35/1/4
f 39/2/4 37/2/4 36/2/4
f 39/1/4 36/1/4 38/1/4
f 40/2/4 37/2/4 39/2/4
f 41/1/5 42/1/5 43/1/5
f 43/1/5 42/1/5 44/1/5
f 41/1/5 43/1/5 45/1/5
f 43/3/5 44/3/5 45/3/5
f 44/1/5 42/1/5 46/1/5
f 45/3/5 44/3/5 46/3/5
f 41/1/5 45/1/5 47/1/5
f 45/1/5 46/1/5 47/1/5
f 46/1/5 42/1/5 48/1/5
f 47/1/5 46/1/5 48/1/5
f 51/3/6 50/3/6 49/3/6
f 52/3/6 50/3/6 51/3/6
f 55/2/6 54/2/6 53/2/6
f 56/2/6 54/2/6 55/2/6
f 57/2/6 55/2/6 53/2/6
f 58/2/6 54/2/6 56/2/6
f 59/2/6 57/2/6 53/2/6
f 59/2/6 58/2/6 57/2/6
f 60/2/6 54/2/6 58/2/6
f 60/2/6 58/2/6 59/2/6
